<?xml version="1.0" encoding="UTF-8" standalone="no"?>
<!DOCTYPE svg PUBLIC "-//W3C//DTD SVG 1.1//EN" "http://www.w3.org/Graphics/SVG/1.1/DTD/svg11.dtd">
<svg xmlns="http://www.w3.org/2000/svg" version="1.1" viewBox="0.00 0.00 350.00 100.00">
<g stroke-width="2.00" fill="none" stroke-linecap="butt">
<path stroke="#227330" vector-effect="non-scaling-stroke" d="
  M 300.17 33.81
  A 0.36 0.36 0.0 0 1 299.56 33.56
  L 299.52 20.86
  A 0.36 0.36 0.0 0 0 299.16 20.50
  L 292.36 20.50
  A 0.36 0.36 0.0 0 0 292.00 20.86
  L 292.00 33.38
  A 0.36 0.36 0.0 0 1 291.38 33.63
  L 282.87 24.94
  A 0.36 0.36 0.0 0 0 282.34 24.95
  L 277.96 29.72
  A 0.36 0.36 0.0 0 0 277.98 30.22
  L 286.83 38.63
  A 0.36 0.36 0.0 0 1 286.58 39.25
  L 273.86 39.25
  A 0.36 0.36 0.0 0 0 273.50 39.61
  L 273.50 46.18
  A 0.36 0.36 0.0 0 0 273.86 46.54
  L 286.67 46.42
  A 0.36 0.36 0.0 0 1 286.92 47.04
  L 277.86 55.71
  A 0.36 0.36 0.0 0 0 277.85 56.22
  L 282.37 60.75
  A 0.36 0.36 0.0 0 0 282.87 60.75
  L 295.50 48.13
  A 0.36 0.36 0.0 0 1 296.00 48.13
  L 308.60 60.72
  A 0.36 0.36 0.0 0 0 309.10 60.72
  L 313.69 56.29
  A 0.36 0.36 0.0 0 0 313.69 55.77
  L 304.97 47.12
  A 0.36 0.36 0.0 0 1 305.22 46.50
  L 317.89 46.50
  A 0.36 0.36 0.0 0 0 318.25 46.14
  L 318.25 39.61
  A 0.36 0.36 0.0 0 0 317.89 39.25
  L 305.05 39.25
  A 0.36 0.36 0.0 0 1 304.80 38.63
  L 313.77 30.22
  A 0.36 0.36 0.0 0 0 313.78 29.71
  L 309.26 25.05
  A 0.36 0.36 0.0 0 0 308.74 25.04
  L 300.17 33.81"
/>
<path stroke="#227330" vector-effect="non-scaling-stroke" d="
  M 51.84 68.27
  A 0.34 0.34 0.0 0 1 51.50 67.93
  L 51.50 27.00
  A 0.34 0.34 0.0 0 0 51.16 26.66
  L 44.09 26.72
  A 0.34 0.34 0.0 0 0 43.75 27.06
  L 43.75 74.66
  A 0.34 0.34 0.0 0 0 44.09 75.00
  L 72.91 75.01
  A 0.34 0.34 0.0 0 0 73.25 74.67
  L 73.25 68.56
  A 0.34 0.34 0.0 0 0 72.91 68.22
  L 51.84 68.27"
/>
<path stroke="#227330" vector-effect="non-scaling-stroke" d="
  M 155.46 75.00
  A 0.35 0.35 0.0 0 0 155.72 74.42
  L 141.51 57.93
  A 0.35 0.35 0.0 0 1 141.51 57.47
  L 155.86 40.83
  A 0.35 0.35 0.0 0 0 155.60 40.25
  L 147.44 40.25
  A 0.35 0.35 0.0 0 0 147.16 40.38
  L 133.37 57.16
  A 0.35 0.35 0.0 0 1 132.75 56.94
  L 132.75 27.14
  A 0.35 0.35 0.0 0 0 132.41 26.79
  L 125.86 26.65
  A 0.35 0.35 0.0 0 0 125.50 27.00
  L 125.50 74.70
  A 0.35 0.35 0.0 0 0 125.85 75.05
  L 132.40 75.05
  A 0.35 0.35 0.0 0 0 132.75 74.70
  L 132.75 58.49
  A 0.35 0.35 0.0 0 1 133.37 58.26
  L 147.02 74.87
  A 0.35 0.35 0.0 0 0 147.30 75.00
  L 155.46 75.00"
/>
<path stroke="#227330" vector-effect="non-scaling-stroke" d="
  M 85.82 31.38
  A 4.66 4.66 0.0 0 0 81.16 26.72
  A 4.66 4.66 0.0 0 0 76.50 31.38
  A 4.66 4.66 0.0 0 0 81.16 36.04
  A 4.66 4.66 0.0 0 0 85.82 31.38"
/>
<path stroke="#227330" vector-effect="non-scaling-stroke" d="
  M 175.24 68.27
  C 173.12 68.24 167.53 68.92 167.21 65.74
  Q 166.64 60.11 167.14 46.67
  Q 167.15 46.25 167.57 46.25
  L 175.39 46.25
  Q 175.98 46.25 176.01 45.66
  L 176.30 41.01
  A 0.56 0.56 0.0 0 0 175.76 40.41
  L 167.44 40.18
  A 0.48 0.48 0.0 0 1 166.97 39.69
  L 167.08 31.92
  Q 167.09 31.25 166.42 31.25
  L 160.27 31.25
  Q 159.77 31.25 159.77 31.75
  Q 159.70 47.64 159.78 63.51
  C 159.84 74.90 165.61 74.89 175.17 75.05
  Q 175.75 75.06 175.75 74.48
  L 175.75 68.79
  Q 175.75 68.27 175.24 68.27"
/>
<path stroke="#227330" vector-effect="non-scaling-stroke" d="
  M 96.76 44.65
  L 96.74 40.75
  A 0.50 0.49 90.0 0 0 96.25 40.25
  L 90.00 40.25
  Q 89.50 40.25 89.50 40.75
  L 89.50 74.40
  Q 89.50 74.99 90.09 75.00
  L 96.31 75.07
  A 0.47 0.46 -89.4 0 0 96.78 74.60
  C 96.70 68.53 95.53 56.56 97.64 51.17
  C 99.82 45.61 108.49 44.09 111.99 48.84
  C 115.36 53.41 114.12 68.66 113.91 74.49
  Q 113.89 74.97 114.38 74.98
  L 120.61 75.04
  Q 121.15 75.04 121.16 74.51
  Q 121.49 62.46 121.08 53.21
  C 120.50 40.03 105.48 33.96 97.11 44.77
  A 0.20 0.19 63.6 0 1 96.76 44.65"
/>
<path stroke="#227330" vector-effect="non-scaling-stroke" d="
  M 187.00 43.78
  L 187.00 40.87
  Q 187.00 40.25 186.37 40.25
  L 180.38 40.25
  Q 179.75 40.25 179.75 40.88
  L 179.75 74.50
  Q 179.75 75.00 180.25 75.00
  L 186.51 75.00
  A 0.57 0.56 -1.0 0 0 187.08 74.42
  Q 186.77 66.23 187.20 58.10
  C 187.59 50.76 189.76 45.35 198.08 46.28
  Q 198.54 46.33 198.54 45.87
  L 198.48 40.02
  Q 198.48 39.64 198.11 39.59
  Q 191.39 38.58 187.62 43.97
  Q 187.00 44.87 187.00 43.78"
/>
<path stroke="#227330" vector-effect="non-scaling-stroke" d="
  M 207.03 59.50
  L 232.78 59.50
  Q 233.31 59.50 233.35 58.97
  C 235.50 30.96 193.34 33.90 199.90 63.09
  C 203.65 79.79 228.51 80.46 233.25 64.45
  Q 233.46 63.75 232.73 63.75
  L 226.47 63.75
  A 0.94 0.94 0.0 0 0 225.59 64.36
  C 222.15 73.08 207.09 70.22 206.62 59.92
  Q 206.60 59.50 207.03 59.50"
/>
<path stroke="#227330" vector-effect="non-scaling-stroke" d="
  M 245.00 59.50
  L 270.99 59.50
  Q 271.45 59.50 271.46 59.03
  C 271.56 47.73 265.59 39.14 253.53 39.44
  C 232.65 39.97 231.12 73.90 252.67 75.93
  C 260.50 76.67 269.48 72.55 271.13 64.23
  Q 271.22 63.75 270.74 63.75
  L 264.26 63.75
  Q 263.79 63.75 263.61 64.19
  C 260.10 73.06 245.04 70.26 244.51 60.02
  Q 244.48 59.50 245.00 59.50"
/>
<path stroke="#227330" vector-effect="non-scaling-stroke" d="
  M 84.74 40.69
  A 0.44 0.44 0.0 0 0 84.30 40.25
  L 77.94 40.25
  A 0.44 0.44 0.0 0 0 77.50 40.69
  L 77.50 74.63
  A 0.44 0.44 0.0 0 0 77.94 75.07
  L 84.30 75.07
  A 0.44 0.44 0.0 0 0 84.74 74.63
  L 84.74 40.69"
/>
<path stroke="#227330" vector-effect="non-scaling-stroke" d="
  M 299.7357 58.1733
  A 0.69 0.69 0.0 0 0 299.0445 57.4845
  L 292.6845 57.4956
  A 0.69 0.69 0.0 0 0 291.9957 58.1868
  L 292.0243 74.5467
  A 0.69 0.69 0.0 0 0 292.7155 75.2355
  L 299.0755 75.2244
  A 0.69 0.69 0.0 0 0 299.7643 74.5332
  L 299.7357 58.1733"
/>
<path stroke="#227330" vector-effect="non-scaling-stroke" d="
  M 207.47 53.25
  L 225.37 53.25
  A 0.11 0.11 0.0 0 0 225.48 53.14
  L 225.48 53.06
  A 8.94 6.73 0.0 0 0 216.54 46.33
  L 216.30 46.33
  A 8.94 6.73 0.0 0 0 207.36 53.06
  L 207.36 53.14
  A 0.11 0.11 0.0 0 0 207.47 53.25"
/>
<path stroke="#227330" vector-effect="non-scaling-stroke" d="
  M 245.42 53.27
  L 263.22 53.23
  A 0.13 0.13 0.0 0 0 263.35 53.10
  L 263.35 53.01
  A 8.91 6.74 -0.1 0 0 254.42 46.29
  L 254.18 46.29
  A 8.91 6.74 -0.1 0 0 245.29 53.05
  L 245.29 53.14
  A 0.13 0.13 0.0 0 0 245.42 53.27"
/>
</g>
<path fill="#43e660" d="
  M 0.00 0.00
  L 350.00 0.00
  L 350.00 100.00
  L 0.00 100.00
  L 0.00 0.00
  Z
  M 300.17 33.81
  A 0.36 0.36 0.0 0 1 299.56 33.56
  L 299.52 20.86
  A 0.36 0.36 0.0 0 0 299.16 20.50
  L 292.36 20.50
  A 0.36 0.36 0.0 0 0 292.00 20.86
  L 292.00 33.38
  A 0.36 0.36 0.0 0 1 291.38 33.63
  L 282.87 24.94
  A 0.36 0.36 0.0 0 0 282.34 24.95
  L 277.96 29.72
  A 0.36 0.36 0.0 0 0 277.98 30.22
  L 286.83 38.63
  A 0.36 0.36 0.0 0 1 286.58 39.25
  L 273.86 39.25
  A 0.36 0.36 0.0 0 0 273.50 39.61
  L 273.50 46.18
  A 0.36 0.36 0.0 0 0 273.86 46.54
  L 286.67 46.42
  A 0.36 0.36 0.0 0 1 286.92 47.04
  L 277.86 55.71
  A 0.36 0.36 0.0 0 0 277.85 56.22
  L 282.37 60.75
  A 0.36 0.36 0.0 0 0 282.87 60.75
  L 295.50 48.13
  A 0.36 0.36 0.0 0 1 296.00 48.13
  L 308.60 60.72
  A 0.36 0.36 0.0 0 0 309.10 60.72
  L 313.69 56.29
  A 0.36 0.36 0.0 0 0 313.69 55.77
  L 304.97 47.12
  A 0.36 0.36 0.0 0 1 305.22 46.50
  L 317.89 46.50
  A 0.36 0.36 0.0 0 0 318.25 46.14
  L 318.25 39.61
  A 0.36 0.36 0.0 0 0 317.89 39.25
  L 305.05 39.25
  A 0.36 0.36 0.0 0 1 304.80 38.63
  L 313.77 30.22
  A 0.36 0.36 0.0 0 0 313.78 29.71
  L 309.26 25.05
  A 0.36 0.36 0.0 0 0 308.74 25.04
  L 300.17 33.81
  Z
  M 51.84 68.27
  A 0.34 0.34 0.0 0 1 51.50 67.93
  L 51.50 27.00
  A 0.34 0.34 0.0 0 0 51.16 26.66
  L 44.09 26.72
  A 0.34 0.34 0.0 0 0 43.75 27.06
  L 43.75 74.66
  A 0.34 0.34 0.0 0 0 44.09 75.00
  L 72.91 75.01
  A 0.34 0.34 0.0 0 0 73.25 74.67
  L 73.25 68.56
  A 0.34 0.34 0.0 0 0 72.91 68.22
  L 51.84 68.27
  Z
  M 155.46 75.00
  A 0.35 0.35 0.0 0 0 155.72 74.42
  L 141.51 57.93
  A 0.35 0.35 0.0 0 1 141.51 57.47
  L 155.86 40.83
  A 0.35 0.35 0.0 0 0 155.60 40.25
  L 147.44 40.25
  A 0.35 0.35 0.0 0 0 147.16 40.38
  L 133.37 57.16
  A 0.35 0.35 0.0 0 1 132.75 56.94
  L 132.75 27.14
  A 0.35 0.35 0.0 0 0 132.41 26.79
  L 125.86 26.65
  A 0.35 0.35 0.0 0 0 125.50 27.00
  L 125.50 74.70
  A 0.35 0.35 0.0 0 0 125.85 75.05
  L 132.40 75.05
  A 0.35 0.35 0.0 0 0 132.75 74.70
  L 132.75 58.49
  A 0.35 0.35 0.0 0 1 133.37 58.26
  L 147.02 74.87
  A 0.35 0.35 0.0 0 0 147.30 75.00
  L 155.46 75.00
  Z
  M 85.82 31.38
  A 4.66 4.66 0.0 0 0 81.16 26.72
  A 4.66 4.66 0.0 0 0 76.50 31.38
  A 4.66 4.66 0.0 0 0 81.16 36.04
  A 4.66 4.66 0.0 0 0 85.82 31.38
  Z
  M 175.24 68.27
  C 173.12 68.24 167.53 68.92 167.21 65.74
  Q 166.64 60.11 167.14 46.67
  Q 167.15 46.25 167.57 46.25
  L 175.39 46.25
  Q 175.98 46.25 176.01 45.66
  L 176.30 41.01
  A 0.56 0.56 0.0 0 0 175.76 40.41
  L 167.44 40.18
  A 0.48 0.48 0.0 0 1 166.97 39.69
  L 167.08 31.92
  Q 167.09 31.25 166.42 31.25
  L 160.27 31.25
  Q 159.77 31.25 159.77 31.75
  Q 159.70 47.64 159.78 63.51
  C 159.84 74.90 165.61 74.89 175.17 75.05
  Q 175.75 75.06 175.75 74.48
  L 175.75 68.79
  Q 175.75 68.27 175.24 68.27
  Z
  M 96.76 44.65
  L 96.74 40.75
  A 0.50 0.49 90.0 0 0 96.25 40.25
  L 90.00 40.25
  Q 89.50 40.25 89.50 40.75
  L 89.50 74.40
  Q 89.50 74.99 90.09 75.00
  L 96.31 75.07
  A 0.47 0.46 -89.4 0 0 96.78 74.60
  C 96.70 68.53 95.53 56.56 97.64 51.17
  C 99.82 45.61 108.49 44.09 111.99 48.84
  C 115.36 53.41 114.12 68.66 113.91 74.49
  Q 113.89 74.97 114.38 74.98
  L 120.61 75.04
  Q 121.15 75.04 121.16 74.51
  Q 121.49 62.46 121.08 53.21
  C 120.50 40.03 105.48 33.96 97.11 44.77
  A 0.20 0.19 63.6 0 1 96.76 44.65
  Z
  M 187.00 43.78
  L 187.00 40.87
  Q 187.00 40.25 186.37 40.25
  L 180.38 40.25
  Q 179.75 40.25 179.75 40.88
  L 179.75 74.50
  Q 179.75 75.00 180.25 75.00
  L 186.51 75.00
  A 0.57 0.56 -1.0 0 0 187.08 74.42
  Q 186.77 66.23 187.20 58.10
  C 187.59 50.76 189.76 45.35 198.08 46.28
  Q 198.54 46.33 198.54 45.87
  L 198.48 40.02
  Q 198.48 39.64 198.11 39.59
  Q 191.39 38.58 187.62 43.97
  Q 187.00 44.87 187.00 43.78
  Z
  M 207.03 59.50
  L 232.78 59.50
  Q 233.31 59.50 233.35 58.97
  C 235.50 30.96 193.34 33.90 199.90 63.09
  C 203.65 79.79 228.51 80.46 233.25 64.45
  Q 233.46 63.75 232.73 63.75
  L 226.47 63.75
  A 0.94 0.94 0.0 0 0 225.59 64.36
  C 222.15 73.08 207.09 70.22 206.62 59.92
  Q 206.60 59.50 207.03 59.50
  Z
  M 245.00 59.50
  L 270.99 59.50
  Q 271.45 59.50 271.46 59.03
  C 271.56 47.73 265.59 39.14 253.53 39.44
  C 232.65 39.97 231.12 73.90 252.67 75.93
  C 260.50 76.67 269.48 72.55 271.13 64.23
  Q 271.22 63.75 270.74 63.75
  L 264.26 63.75
  Q 263.79 63.75 263.61 64.19
  C 260.10 73.06 245.04 70.26 244.51 60.02
  Q 244.48 59.50 245.00 59.50
  Z
  M 84.74 40.69
  A 0.44 0.44 0.0 0 0 84.30 40.25
  L 77.94 40.25
  A 0.44 0.44 0.0 0 0 77.50 40.69
  L 77.50 74.63
  A 0.44 0.44 0.0 0 0 77.94 75.07
  L 84.30 75.07
  A 0.44 0.44 0.0 0 0 84.74 74.63
  L 84.74 40.69
  Z
  M 299.7357 58.1733
  A 0.69 0.69 0.0 0 0 299.0445 57.4845
  L 292.6845 57.4956
  A 0.69 0.69 0.0 0 0 291.9957 58.1868
  L 292.0243 74.5467
  A 0.69 0.69 0.0 0 0 292.7155 75.2355
  L 299.0755 75.2244
  A 0.69 0.69 0.0 0 0 299.7643 74.5332
  L 299.7357 58.1733
  Z"
/>
<path fill="#000000" d="
  M 300.17 33.81
  L 308.74 25.04
  A 0.36 0.36 0.0 0 1 309.26 25.05
  L 313.78 29.71
  A 0.36 0.36 0.0 0 1 313.77 30.22
  L 304.80 38.63
  A 0.36 0.36 0.0 0 0 305.05 39.25
  L 317.89 39.25
  A 0.36 0.36 0.0 0 1 318.25 39.61
  L 318.25 46.14
  A 0.36 0.36 0.0 0 1 317.89 46.50
  L 305.22 46.50
  A 0.36 0.36 0.0 0 0 304.97 47.12
  L 313.69 55.77
  A 0.36 0.36 0.0 0 1 313.69 56.29
  L 309.10 60.72
  A 0.36 0.36 0.0 0 1 308.60 60.72
  L 296.00 48.13
  A 0.36 0.36 0.0 0 0 295.50 48.13
  L 282.87 60.75
  A 0.36 0.36 0.0 0 1 282.37 60.75
  L 277.85 56.22
  A 0.36 0.36 0.0 0 1 277.86 55.71
  L 286.92 47.04
  A 0.36 0.36 0.0 0 0 286.67 46.42
  L 273.86 46.54
  A 0.36 0.36 0.0 0 1 273.50 46.18
  L 273.50 39.61
  A 0.36 0.36 0.0 0 1 273.86 39.25
  L 286.58 39.25
  A 0.36 0.36 0.0 0 0 286.83 38.63
  L 277.98 30.22
  A 0.36 0.36 0.0 0 1 277.96 29.72
  L 282.34 24.95
  A 0.36 0.36 0.0 0 1 282.87 24.94
  L 291.38 33.63
  A 0.36 0.36 0.0 0 0 292.00 33.38
  L 292.00 20.86
  A 0.36 0.36 0.0 0 1 292.36 20.50
  L 299.16 20.50
  A 0.36 0.36 0.0 0 1 299.52 20.86
  L 299.56 33.56
  A 0.36 0.36 0.0 0 0 300.17 33.81
  Z"
/>
<path fill="#000000" d="
  M 51.84 68.27
  L 72.91 68.22
  A 0.34 0.34 0.0 0 1 73.25 68.56
  L 73.25 74.67
  A 0.34 0.34 0.0 0 1 72.91 75.01
  L 44.09 75.00
  A 0.34 0.34 0.0 0 1 43.75 74.66
  L 43.75 27.06
  A 0.34 0.34 0.0 0 1 44.09 26.72
  L 51.16 26.66
  A 0.34 0.34 0.0 0 1 51.50 27.00
  L 51.50 67.93
  A 0.34 0.34 0.0 0 0 51.84 68.27
  Z"
/>
<path fill="#000000" d="
  M 155.46 75.00
  L 147.30 75.00
  A 0.35 0.35 0.0 0 1 147.02 74.87
  L 133.37 58.26
  A 0.35 0.35 0.0 0 0 132.75 58.49
  L 132.75 74.70
  A 0.35 0.35 0.0 0 1 132.40 75.05
  L 125.85 75.05
  A 0.35 0.35 0.0 0 1 125.50 74.70
  L 125.50 27.00
  A 0.35 0.35 0.0 0 1 125.86 26.65
  L 132.41 26.79
  A 0.35 0.35 0.0 0 1 132.75 27.14
  L 132.75 56.94
  A 0.35 0.35 0.0 0 0 133.37 57.16
  L 147.16 40.38
  A 0.35 0.35 0.0 0 1 147.44 40.25
  L 155.60 40.25
  A 0.35 0.35 0.0 0 1 155.86 40.83
  L 141.51 57.47
  A 0.35 0.35 0.0 0 0 141.51 57.93
  L 155.72 74.42
  A 0.35 0.35 0.0 0 1 155.46 75.00
  Z"
/>
<circle fill="#000000" cx="81.16" cy="31.38" r="4.66"/>
<path fill="#000000" d="
  M 167.21 65.74
  C 167.53 68.92 173.12 68.24 175.24 68.27
  Q 175.75 68.27 175.75 68.79
  L 175.75 74.48
  Q 175.75 75.06 175.17 75.05
  C 165.61 74.89 159.84 74.90 159.78 63.51
  Q 159.70 47.64 159.77 31.75
  Q 159.77 31.25 160.27 31.25
  L 166.42 31.25
  Q 167.09 31.25 167.08 31.92
  L 166.97 39.69
  A 0.48 0.48 0.0 0 0 167.44 40.18
  L 175.76 40.41
  A 0.56 0.56 0.0 0 1 176.30 41.01
  L 176.01 45.66
  Q 175.98 46.25 175.39 46.25
  L 167.57 46.25
  Q 167.15 46.25 167.14 46.67
  Q 166.64 60.11 167.21 65.74
  Z"
/>
<path fill="#000000" d="
  M 96.76 44.65
  A 0.20 0.19 63.6 0 0 97.11 44.77
  C 105.48 33.96 120.50 40.03 121.08 53.21
  Q 121.49 62.46 121.16 74.51
  Q 121.15 75.04 120.61 75.04
  L 114.38 74.98
  Q 113.89 74.97 113.91 74.49
  C 114.12 68.66 115.36 53.41 111.99 48.84
  C 108.49 44.09 99.82 45.61 97.64 51.17
  C 95.53 56.56 96.70 68.53 96.78 74.60
  A 0.47 0.46 -89.4 0 1 96.31 75.07
  L 90.09 75.00
  Q 89.50 74.99 89.50 74.40
  L 89.50 40.75
  Q 89.50 40.25 90.00 40.25
  L 96.25 40.25
  A 0.50 0.49 90.0 0 1 96.74 40.75
  L 96.76 44.65
  Z"
/>
<path fill="#000000" d="
  M 187.62 43.97
  Q 191.39 38.58 198.11 39.59
  Q 198.48 39.64 198.48 40.02
  L 198.54 45.87
  Q 198.54 46.33 198.08 46.28
  C 189.76 45.35 187.59 50.76 187.20 58.10
  Q 186.77 66.23 187.08 74.42
  A 0.57 0.56 -1.0 0 1 186.51 75.00
  L 180.25 75.00
  Q 179.75 75.00 179.75 74.50
  L 179.75 40.88
  Q 179.75 40.25 180.38 40.25
  L 186.37 40.25
  Q 187.00 40.25 187.00 40.87
  L 187.00 43.78
  Q 187.00 44.87 187.62 43.97
  Z"
/>
<path fill="#000000" d="
  M 206.62 59.92
  C 207.09 70.22 222.15 73.08 225.59 64.36
  A 0.94 0.94 0.0 0 1 226.47 63.75
  L 232.73 63.75
  Q 233.46 63.75 233.25 64.45
  C 228.51 80.46 203.65 79.79 199.90 63.09
  C 193.34 33.90 235.50 30.96 233.35 58.97
  Q 233.31 59.50 232.78 59.50
  L 207.03 59.50
  Q 206.60 59.50 206.62 59.92
  Z
  M 207.47 53.25
  L 225.37 53.25
  A 0.11 0.11 0.0 0 0 225.48 53.14
  L 225.48 53.06
  A 8.94 6.73 0.0 0 0 216.54 46.33
  L 216.30 46.33
  A 8.94 6.73 0.0 0 0 207.36 53.06
  L 207.36 53.14
  A 0.11 0.11 0.0 0 0 207.47 53.25
  Z"
/>
<path fill="#000000" d="
  M 244.51 60.02
  C 245.04 70.26 260.10 73.06 263.61 64.19
  Q 263.79 63.75 264.26 63.75
  L 270.74 63.75
  Q 271.22 63.75 271.13 64.23
  C 269.48 72.55 260.50 76.67 252.67 75.93
  C 231.12 73.90 232.65 39.97 253.53 39.44
  C 265.59 39.14 271.56 47.73 271.46 59.03
  Q 271.45 59.50 270.99 59.50
  L 245.00 59.50
  Q 244.48 59.50 244.51 60.02
  Z
  M 245.42 53.27
  L 263.22 53.23
  A 0.13 0.13 0.0 0 0 263.35 53.10
  L 263.35 53.01
  A 8.91 6.74 -0.1 0 0 254.42 46.29
  L 254.18 46.29
  A 8.91 6.74 -0.1 0 0 245.29 53.05
  L 245.29 53.14
  A 0.13 0.13 0.0 0 0 245.42 53.27
  Z"
/>
<rect fill="#000000" x="77.50" y="40.25" width="7.24" height="34.82" rx="0.44"/>
<path fill="#43e660" d="
  M 207.47 53.25
  A 0.11 0.11 0.0 0 1 207.36 53.14
  L 207.36 53.06
  A 8.94 6.73 -0.0 0 1 216.30 46.33
  L 216.54 46.33
  A 8.94 6.73 0.0 0 1 225.48 53.06
  L 225.48 53.14
  A 0.11 0.11 0.0 0 1 225.37 53.25
  L 207.47 53.25
  Z"
/>
<path fill="#43e660" d="
  M 245.42 53.27
  A 0.13 0.13 0.0 0 1 245.29 53.14
  L 245.29 53.05
  A 8.91 6.74 -0.1 0 1 254.18 46.29
  L 254.42 46.29
  A 8.91 6.74 -0.1 0 1 263.35 53.01
  L 263.35 53.10
  A 0.13 0.13 0.0 0 1 263.22 53.23
  L 245.42 53.27
  Z"
/>
<rect fill="#000000" x="-3.87" y="-8.87" transform="translate(295.88,66.36) rotate(-0.1)" width="7.74" height="17.74" rx="0.69"/>
</svg>
