<?xml version="1.0" encoding="UTF-8" standalone="no"?>
<!DOCTYPE svg PUBLIC "-//W3C//DTD SVG 1.1//EN" "http://www.w3.org/Graphics/SVG/1.1/DTD/svg11.dtd">
<svg xmlns="http://www.w3.org/2000/svg" version="1.1" viewBox="0.00 0.00 329.00 100.00">
<g stroke-width="2.00" fill="none" stroke-linecap="butt">
<path stroke="#ff5e2d" vector-effect="non-scaling-stroke" d="
  M 60.4400 99.6800
  A 49.60 48.84 90.0 0 0 109.2800 50.0800
  A 49.60 48.84 90.0 0 0 60.4400 0.4800
  A 49.60 48.84 90.0 0 0 11.6000 50.0800
  A 49.60 48.84 90.0 0 0 60.4400 99.6800"
/>
<path stroke="#803c2d" vector-effect="non-scaling-stroke" d="
  M 224.86 71.16
  A 0.50 0.50 0.0 0 1 225.67 71.29
  C 227.45 75.02 232.75 73.42 232.75 70.00
  Q 232.75 45.96 232.74 21.91
  C 232.74 17.76 228.19 15.08 225.94 18.74
  C 224.34 21.36 225.26 33.51 225.23 37.18
  Q 225.23 37.72 224.80 37.40
  Q 218.79 32.96 212.18 34.53
  C 194.11 38.84 192.93 67.01 209.82 73.54
  C 214.56 75.37 221.01 75.17 224.86 71.16"
/>
<path stroke="#803c2d" vector-effect="non-scaling-stroke" d="
  M 263.93 37.26
  C 243.52 23.76 227.35 56.01 243.81 70.40
  C 249.46 75.34 258.11 76.52 264.04 71.18
  Q 264.49 70.78 264.84 71.26
  L 265.66 72.40
  A 1.82 1.72 82.2 0 0 266.39 72.99
  C 269.86 74.53 271.83 72.11 271.87 68.75
  Q 272.13 45.65 271.96 22.55
  C 271.91 15.26 264.44 16.50 264.48 20.25
  Q 264.56 28.61 264.47 36.97
  A 0.35 0.35 0.0 0 1 263.93 37.26"
/>
<path stroke="#ff5e2d" vector-effect="non-scaling-stroke" d="
  M 291.08 28.15
  A 6.64 6.64 0.0 0 0 284.44 21.51
  A 6.64 6.64 0.0 0 0 277.80 28.15
  A 6.64 6.64 0.0 0 0 284.44 34.79
  A 6.64 6.64 0.0 0 0 291.08 28.15"
/>
<path stroke="#803c2d" vector-effect="non-scaling-stroke" d="
  M 307.74 34.25
  C 307.79 32.32 308.12 28.84 306.90 27.23
  C 305.48 25.34 302.23 25.12 300.95 27.09
  C 299.81 28.84 300.27 32.01 300.24 34.27
  Q 300.24 34.80 299.71 34.81
  C 297.55 34.86 294.28 34.59 293.58 37.31
  C 292.42 41.84 296.47 41.60 299.38 41.77
  Q 299.92 41.80 299.93 42.35
  Q 300.09 55.67 299.74 68.99
  C 299.58 74.82 307.49 75.83 307.63 69.21
  Q 307.91 55.77 307.69 42.69
  A 1.01 1.01 0.0 0 1 308.87 41.68
  C 316.08 42.91 316.55 33.76 308.33 34.78
  Q 307.73 34.86 307.74 34.25"
/>
<path stroke="#803c2d" vector-effect="non-scaling-stroke" d="
  M 143.09 38.39
  L 142.45 36.59
  Q 142.24 36.02 141.70 35.72
  C 137.93 33.67 135.73 36.07 135.69 39.83
  Q 135.49 54.81 135.83 69.78
  C 135.96 75.66 143.13 74.84 143.24 70.00
  C 143.44 60.62 139.10 40.92 156.64 41.75
  Q 157.14 41.77 157.56 41.51
  C 160.62 39.66 160.43 34.82 156.68 34.34
  Q 149.10 33.37 143.76 38.54
  A 0.41 0.41 0.0 0 1 143.09 38.39"
/>
<path stroke="#803c2d" vector-effect="non-scaling-stroke" d="
  M 184.89 64.15
  C 178.34 69.66 168.77 66.37 167.43 57.95
  Q 167.27 56.95 168.28 56.95
  Q 179.66 57.00 190.00 57.00
  C 193.81 57.00 195.25 54.08 194.84 50.58
  C 192.76 32.71 169.58 27.71 161.61 45.05
  Q 157.67 53.63 161.03 62.49
  C 165.73 74.90 180.59 79.01 190.39 69.54
  C 194.87 65.20 190.07 59.77 184.89 64.15"
/>
<path stroke="#803c2d" vector-effect="non-scaling-stroke" d="
  M 288.22 41.98
  A 3.64 3.64 0.0 0 0 284.58 38.34
  L 284.40 38.34
  A 3.64 3.64 0.0 0 0 280.76 41.98
  L 280.76 70.08
  A 3.64 3.64 0.0 0 0 284.40 73.72
  L 284.58 73.72
  A 3.64 3.64 0.0 0 0 288.22 70.08
  L 288.22 41.98"
/>
<path stroke="#ffa280" vector-effect="non-scaling-stroke" d="
  M 65.98 23.84
  L 75.05 25.89
  Q 75.58 26.01 75.74 26.52
  C 78.14 34.14 88.69 29.10 85.07 22.71
  Q 83.15 19.34 78.56 20.44
  A 1.25 1.24 -80.6 0 0 77.80 20.99
  Q 76.80 22.65 75.26 22.28
  Q 70.26 21.10 64.39 20.09
  A 1.78 1.77 10.6 0 0 62.35 21.48
  L 58.94 38.09
  Q 58.86 38.46 58.48 38.48
  Q 48.57 38.89 40.34 44.31
  Q 39.94 44.57 39.57 44.28
  C 31.80 38.28 22.63 49.72 31.43 56.57
  Q 31.81 56.87 31.81 57.36
  Q 31.83 67.17 40.08 72.95
  C 51.59 81.03 68.35 81.23 80.19 73.72
  Q 89.23 67.99 89.45 57.27
  Q 89.46 56.77 89.84 56.45
  C 98.00 49.38 89.35 38.95 81.31 44.53
  A 0.78 0.77 -45.3 0 1 80.43 44.54
  Q 72.57 39.23 63.05 38.94
  Q 62.40 38.92 62.53 38.29
  L 65.44 24.19
  Q 65.53 23.74 65.98 23.84"
/>
<path stroke="#803c2d" vector-effect="non-scaling-stroke" d="
  M 215.6079 67.0900
  A 12.64 10.40 90.1 0 0 226.0300 54.4682
  A 12.64 10.40 90.1 0 0 215.6521 41.8100
  A 12.64 10.40 90.1 0 0 205.2300 54.4318
  A 12.64 10.40 90.1 0 0 215.6079 67.0900"
/>
<path stroke="#803c2d" vector-effect="non-scaling-stroke" d="
  M 254.8300 67.1100
  A 12.66 10.40 90.0 0 0 265.2300 54.4500
  A 12.66 10.40 90.0 0 0 254.8300 41.7900
  A 12.66 10.40 90.0 0 0 244.4300 54.4500
  A 12.66 10.40 90.0 0 0 254.8300 67.1100"
/>
<path stroke="#ffa280" vector-effect="non-scaling-stroke" d="
  M 53.70 55.06
  A 4.66 4.66 0.0 0 0 49.04 50.40
  A 4.66 4.66 0.0 0 0 44.38 55.06
  A 4.66 4.66 0.0 0 0 49.04 59.72
  A 4.66 4.66 0.0 0 0 53.70 55.06"
/>
<path stroke="#ffa280" vector-effect="non-scaling-stroke" d="
  M 76.42 55.29
  A 4.70 4.70 0.0 0 0 71.72 50.59
  A 4.70 4.70 0.0 0 0 67.02 55.29
  A 4.70 4.70 0.0 0 0 71.72 59.99
  A 4.70 4.70 0.0 0 0 76.42 55.29"
/>
<path stroke="#ffa280" vector-effect="non-scaling-stroke" d="
  M 71.20 66.84
  C 65.08 71.37 56.05 71.34 49.94 66.83
  A 0.88 0.88 0.0 0 0 48.62 67.17
  Q 48.01 68.49 49.47 69.30
  Q 60.81 75.54 71.81 69.00
  C 72.46 68.61 72.71 67.94 72.49 67.26
  A 0.83 0.83 0.0 0 0 71.20 66.84"
/>
<path stroke="#803c2d" vector-effect="non-scaling-stroke" d="
  M 186.92 49.68
  C 183.82 39.24 170.67 39.50 167.66 49.77
  Q 167.52 50.25 168.01 50.25
  L 186.49 50.25
  A 0.45 0.44 -8.2 0 0 186.92 49.68"
/>
</g>
<path fill="#ff7759" d="
  M 0.00 0.00
  L 329.00 0.00
  L 329.00 100.00
  L 0.00 100.00
  L 0.00 0.00
  Z
  M 60.4400 99.6800
  A 49.60 48.84 90.0 0 0 109.2800 50.0800
  A 49.60 48.84 90.0 0 0 60.4400 0.4800
  A 49.60 48.84 90.0 0 0 11.6000 50.0800
  A 49.60 48.84 90.0 0 0 60.4400 99.6800
  Z
  M 224.86 71.16
  A 0.50 0.50 0.0 0 1 225.67 71.29
  C 227.45 75.02 232.75 73.42 232.75 70.00
  Q 232.75 45.96 232.74 21.91
  C 232.74 17.76 228.19 15.08 225.94 18.74
  C 224.34 21.36 225.26 33.51 225.23 37.18
  Q 225.23 37.72 224.80 37.40
  Q 218.79 32.96 212.18 34.53
  C 194.11 38.84 192.93 67.01 209.82 73.54
  C 214.56 75.37 221.01 75.17 224.86 71.16
  Z
  M 263.93 37.26
  C 243.52 23.76 227.35 56.01 243.81 70.40
  C 249.46 75.34 258.11 76.52 264.04 71.18
  Q 264.49 70.78 264.84 71.26
  L 265.66 72.40
  A 1.82 1.72 82.2 0 0 266.39 72.99
  C 269.86 74.53 271.83 72.11 271.87 68.75
  Q 272.13 45.65 271.96 22.55
  C 271.91 15.26 264.44 16.50 264.48 20.25
  Q 264.56 28.61 264.47 36.97
  A 0.35 0.35 0.0 0 1 263.93 37.26
  Z
  M 291.08 28.15
  A 6.64 6.64 0.0 0 0 284.44 21.51
  A 6.64 6.64 0.0 0 0 277.80 28.15
  A 6.64 6.64 0.0 0 0 284.44 34.79
  A 6.64 6.64 0.0 0 0 291.08 28.15
  Z
  M 307.74 34.25
  C 307.79 32.32 308.12 28.84 306.90 27.23
  C 305.48 25.34 302.23 25.12 300.95 27.09
  C 299.81 28.84 300.27 32.01 300.24 34.27
  Q 300.24 34.80 299.71 34.81
  C 297.55 34.86 294.28 34.59 293.58 37.31
  C 292.42 41.84 296.47 41.60 299.38 41.77
  Q 299.92 41.80 299.93 42.35
  Q 300.09 55.67 299.74 68.99
  C 299.58 74.82 307.49 75.83 307.63 69.21
  Q 307.91 55.77 307.69 42.69
  A 1.01 1.01 0.0 0 1 308.87 41.68
  C 316.08 42.91 316.55 33.76 308.33 34.78
  Q 307.73 34.86 307.74 34.25
  Z
  M 143.09 38.39
  L 142.45 36.59
  Q 142.24 36.02 141.70 35.72
  C 137.93 33.67 135.73 36.07 135.69 39.83
  Q 135.49 54.81 135.83 69.78
  C 135.96 75.66 143.13 74.84 143.24 70.00
  C 143.44 60.62 139.10 40.92 156.64 41.75
  Q 157.14 41.77 157.56 41.51
  C 160.62 39.66 160.43 34.82 156.68 34.34
  Q 149.10 33.37 143.76 38.54
  A 0.41 0.41 0.0 0 1 143.09 38.39
  Z
  M 184.89 64.15
  C 178.34 69.66 168.77 66.37 167.43 57.95
  Q 167.27 56.95 168.28 56.95
  Q 179.66 57.00 190.00 57.00
  C 193.81 57.00 195.25 54.08 194.84 50.58
  C 192.76 32.71 169.58 27.71 161.61 45.05
  Q 157.67 53.63 161.03 62.49
  C 165.73 74.90 180.59 79.01 190.39 69.54
  C 194.87 65.20 190.07 59.77 184.89 64.15
  Z
  M 288.22 41.98
  A 3.64 3.64 0.0 0 0 284.58 38.34
  L 284.40 38.34
  A 3.64 3.64 0.0 0 0 280.76 41.98
  L 280.76 70.08
  A 3.64 3.64 0.0 0 0 284.40 73.72
  L 284.58 73.72
  A 3.64 3.64 0.0 0 0 288.22 70.08
  L 288.22 41.98
  Z"
/>
<path fill="#ff4500" d="
  M 60.4400 99.6800
  A 49.60 48.84 90.0 0 1 11.6000 50.0800
  A 49.60 48.84 90.0 0 1 60.4400 0.4800
  A 49.60 48.84 90.0 0 1 109.2800 50.0800
  A 49.60 48.84 90.0 0 1 60.4400 99.6800
  Z
  M 65.98 23.84
  L 75.05 25.89
  Q 75.58 26.01 75.74 26.52
  C 78.14 34.14 88.69 29.10 85.07 22.71
  Q 83.15 19.34 78.56 20.44
  A 1.25 1.24 -80.6 0 0 77.80 20.99
  Q 76.80 22.65 75.26 22.28
  Q 70.26 21.10 64.39 20.09
  A 1.78 1.77 10.6 0 0 62.35 21.48
  L 58.94 38.09
  Q 58.86 38.46 58.48 38.48
  Q 48.57 38.89 40.34 44.31
  Q 39.94 44.57 39.57 44.28
  C 31.80 38.28 22.63 49.72 31.43 56.57
  Q 31.81 56.87 31.81 57.36
  Q 31.83 67.17 40.08 72.95
  C 51.59 81.03 68.35 81.23 80.19 73.72
  Q 89.23 67.99 89.45 57.27
  Q 89.46 56.77 89.84 56.45
  C 98.00 49.38 89.35 38.95 81.31 44.53
  A 0.78 0.77 -45.3 0 1 80.43 44.54
  Q 72.57 39.23 63.05 38.94
  Q 62.40 38.92 62.53 38.29
  L 65.44 24.19
  Q 65.53 23.74 65.98 23.84
  Z"
/>
<path fill="#000000" d="
  M 224.86 71.16
  C 221.01 75.17 214.56 75.37 209.82 73.54
  C 192.93 67.01 194.11 38.84 212.18 34.53
  Q 218.79 32.96 224.80 37.40
  Q 225.23 37.72 225.23 37.18
  C 225.26 33.51 224.34 21.36 225.94 18.74
  C 228.19 15.08 232.74 17.76 232.74 21.91
  Q 232.75 45.96 232.75 70.00
  C 232.75 73.42 227.45 75.02 225.67 71.29
  A 0.50 0.50 0.0 0 0 224.86 71.16
  Z
  M 215.6079 67.0900
  A 12.64 10.40 90.1 0 0 226.0300 54.4682
  A 12.64 10.40 90.1 0 0 215.6521 41.8100
  A 12.64 10.40 90.1 0 0 205.2300 54.4318
  A 12.64 10.40 90.1 0 0 215.6079 67.0900
  Z"
/>
<path fill="#000000" d="
  M 264.47 36.97
  Q 264.56 28.61 264.48 20.25
  C 264.44 16.50 271.91 15.26 271.96 22.55
  Q 272.13 45.65 271.87 68.75
  C 271.83 72.11 269.86 74.53 266.39 72.99
  A 1.82 1.72 82.2 0 1 265.66 72.40
  L 264.84 71.26
  Q 264.49 70.78 264.04 71.18
  C 258.11 76.52 249.46 75.34 243.81 70.40
  C 227.35 56.01 243.52 23.76 263.93 37.26
  A 0.35 0.35 0.0 0 0 264.47 36.97
  Z
  M 254.8300 67.1100
  A 12.66 10.40 90.0 0 0 265.2300 54.4500
  A 12.66 10.40 90.0 0 0 254.8300 41.7900
  A 12.66 10.40 90.0 0 0 244.4300 54.4500
  A 12.66 10.40 90.0 0 0 254.8300 67.1100
  Z"
/>
<path fill="#ffffff" d="
  M 65.44 24.19
  L 62.53 38.29
  Q 62.40 38.92 63.05 38.94
  Q 72.57 39.23 80.43 44.54
  A 0.78 0.77 -45.3 0 0 81.31 44.53
  C 89.35 38.95 98.00 49.38 89.84 56.45
  Q 89.46 56.77 89.45 57.27
  Q 89.23 67.99 80.19 73.72
  C 68.35 81.23 51.59 81.03 40.08 72.95
  Q 31.83 67.17 31.81 57.36
  Q 31.81 56.87 31.43 56.57
  C 22.63 49.72 31.80 38.28 39.57 44.28
  Q 39.94 44.57 40.34 44.31
  Q 48.57 38.89 58.48 38.48
  Q 58.86 38.46 58.94 38.09
  L 62.35 21.48
  A 1.78 1.77 10.6 0 1 64.39 20.09
  Q 70.26 21.10 75.26 22.28
  Q 76.80 22.65 77.80 20.99
  A 1.25 1.24 -80.6 0 1 78.56 20.44
  Q 83.15 19.34 85.07 22.71
  C 88.69 29.10 78.14 34.14 75.74 26.52
  Q 75.58 26.01 75.05 25.89
  L 65.98 23.84
  Q 65.53 23.74 65.44 24.19
  Z
  M 53.70 55.06
  A 4.66 4.66 0.0 0 0 49.04 50.40
  A 4.66 4.66 0.0 0 0 44.38 55.06
  A 4.66 4.66 0.0 0 0 49.04 59.72
  A 4.66 4.66 0.0 0 0 53.70 55.06
  Z
  M 76.42 55.29
  A 4.70 4.70 0.0 0 0 71.72 50.59
  A 4.70 4.70 0.0 0 0 67.02 55.29
  A 4.70 4.70 0.0 0 0 71.72 59.99
  A 4.70 4.70 0.0 0 0 76.42 55.29
  Z
  M 71.20 66.84
  C 65.08 71.37 56.05 71.34 49.94 66.83
  A 0.88 0.88 0.0 0 0 48.62 67.17
  Q 48.01 68.49 49.47 69.30
  Q 60.81 75.54 71.81 69.00
  C 72.46 68.61 72.71 67.94 72.49 67.26
  A 0.83 0.83 0.0 0 0 71.20 66.84
  Z"
/>
<circle fill="#ff4500" cx="284.44" cy="28.15" r="6.64"/>
<path fill="#000000" d="
  M 308.33 34.78
  C 316.55 33.76 316.08 42.91 308.87 41.68
  A 1.01 1.01 0.0 0 0 307.69 42.69
  Q 307.91 55.77 307.63 69.21
  C 307.49 75.83 299.58 74.82 299.74 68.99
  Q 300.09 55.67 299.93 42.35
  Q 299.92 41.80 299.38 41.77
  C 296.47 41.60 292.42 41.84 293.58 37.31
  C 294.28 34.59 297.55 34.86 299.71 34.81
  Q 300.24 34.80 300.24 34.27
  C 300.27 32.01 299.81 28.84 300.95 27.09
  C 302.23 25.12 305.48 25.34 306.90 27.23
  C 308.12 28.84 307.79 32.32 307.74 34.25
  Q 307.73 34.86 308.33 34.78
  Z"
/>
<path fill="#000000" d="
  M 143.76 38.54
  Q 149.10 33.37 156.68 34.34
  C 160.43 34.82 160.62 39.66 157.56 41.51
  Q 157.14 41.77 156.64 41.75
  C 139.10 40.92 143.44 60.62 143.24 70.00
  C 143.13 74.84 135.96 75.66 135.83 69.78
  Q 135.49 54.81 135.69 39.83
  C 135.73 36.07 137.93 33.67 141.70 35.72
  Q 142.24 36.02 142.45 36.59
  L 143.09 38.39
  A 0.41 0.41 0.0 0 0 143.76 38.54
  Z"
/>
<path fill="#000000" d="
  M 167.43 57.95
  C 168.77 66.37 178.34 69.66 184.89 64.15
  C 190.07 59.77 194.87 65.20 190.39 69.54
  C 180.59 79.01 165.73 74.90 161.03 62.49
  Q 157.67 53.63 161.61 45.05
  C 169.58 27.71 192.76 32.71 194.84 50.58
  C 195.25 54.08 193.81 57.00 190.00 57.00
  Q 179.66 57.00 168.28 56.95
  Q 167.27 56.95 167.43 57.95
  Z
  M 186.92 49.68
  C 183.82 39.24 170.67 39.50 167.66 49.77
  Q 167.52 50.25 168.01 50.25
  L 186.49 50.25
  A 0.45 0.44 -8.2 0 0 186.92 49.68
  Z"
/>
<rect fill="#000000" x="280.76" y="38.34" width="7.46" height="35.38" rx="3.64"/>
<path fill="#ff7759" d="
  M 167.66 49.77
  C 170.67 39.50 183.82 39.24 186.92 49.68
  A 0.45 0.44 -8.2 0 1 186.49 50.25
  L 168.01 50.25
  Q 167.52 50.25 167.66 49.77
  Z"
/>
<ellipse fill="#ff7759" cx="0.00" cy="0.00" transform="translate(215.63,54.45) rotate(90.1)" rx="12.64" ry="10.40"/>
<ellipse fill="#ff7759" cx="0.00" cy="0.00" transform="translate(254.83,54.45) rotate(90.0)" rx="12.66" ry="10.40"/>
<circle fill="#ff4500" cx="49.04" cy="55.06" r="4.66"/>
<circle fill="#ff4500" cx="71.72" cy="55.29" r="4.70"/>
<path fill="#ff4500" d="
  M 49.94 66.83
  C 56.05 71.34 65.08 71.37 71.20 66.84
  A 0.83 0.83 0.0 0 1 72.49 67.26
  C 72.71 67.94 72.46 68.61 71.81 69.00
  Q 60.81 75.54 49.47 69.30
  Q 48.01 68.49 48.62 67.17
  A 0.88 0.88 0.0 0 1 49.94 66.83
  Z"
/>
</svg>
