<?xml version="1.0" encoding="UTF-8" standalone="no"?>
<!DOCTYPE svg PUBLIC "-//W3C//DTD SVG 1.1//EN" "http://www.w3.org/Graphics/SVG/1.1/DTD/svg11.dtd">
<svg xmlns="http://www.w3.org/2000/svg" version="1.1" viewBox="0.00 0.00 329.00 100.00">
<g stroke-width="2.00" fill="none" stroke-linecap="butt">
<path stroke="#808080" vector-effect="non-scaling-stroke" d="
  M 56.41 58.80
  A 0.33 0.33 0.0 0 1 56.92 58.83
  L 78.17 87.37
  A 0.33 0.33 0.0 0 0 78.44 87.50
  L 100.33 87.50
  A 0.33 0.33 0.0 0 0 100.60 86.97
  L 69.46 45.23
  A 0.33 0.33 0.0 0 1 69.49 44.81
  L 98.24 14.06
  A 0.33 0.33 0.0 0 0 98.00 13.50
  L 92.26 13.50
  A 0.33 0.33 0.0 0 0 92.02 13.60
  L 66.65 40.70
  A 0.33 0.33 0.0 0 1 66.14 40.68
  L 45.80 13.63
  A 0.33 0.33 0.0 0 0 45.54 13.50
  L 23.69 13.50
  A 0.33 0.33 0.0 0 0 23.42 14.03
  L 53.51 54.41
  A 0.33 0.33 0.0 0 1 53.48 54.83
  L 23.44 86.94
  A 0.33 0.33 0.0 0 0 23.68 87.50
  L 29.42 87.50
  A 0.33 0.33 0.0 0 0 29.66 87.40
  L 56.41 58.80"
/>
<path stroke="#808080" vector-effect="non-scaling-stroke" d="
  M 141.25 41.75
  A 0.32 0.32 0.0 0 1 141.57 42.07
  L 141.72 63.68
  A 0.32 0.32 0.0 0 0 142.04 64.00
  L 146.68 64.00
  A 0.32 0.32 0.0 0 0 147.00 63.68
  L 147.00 42.07
  A 0.32 0.32 0.0 0 1 147.32 41.75
  L 154.43 41.75
  A 0.32 0.32 0.0 0 0 154.75 41.43
  L 154.75 37.57
  A 0.32 0.32 0.0 0 0 154.43 37.25
  L 134.32 37.25
  A 0.32 0.32 0.0 0 0 134.00 37.57
  L 134.00 41.43
  A 0.32 0.32 0.0 0 0 134.32 41.75
  L 141.25 41.75"
/>
<path stroke="#808080" vector-effect="non-scaling-stroke" d="
  M 174.31 43.99
  L 179.16 63.33
  Q 179.33 64.00 180.01 64.00
  L 184.71 64.00
  Q 185.26 64.00 185.39 63.47
  L 191.47 37.93
  Q 191.63 37.25 190.94 37.25
  L 186.81 37.25
  Q 186.11 37.25 185.96 37.94
  L 182.30 55.47
  Q 182.20 55.95 182.08 55.47
  Q 179.84 46.62 177.64 37.76
  Q 177.52 37.25 177.00 37.25
  L 171.55 37.25
  A 0.59 0.59 0.0 0 0 170.98 37.70
  L 166.65 54.99
  Q 166.43 55.89 166.24 54.99
  L 162.59 37.86
  Q 162.46 37.25 161.83 37.25
  L 157.54 37.25
  Q 156.81 37.25 156.98 37.96
  L 163.02 63.34
  Q 163.17 64.00 163.85 64.00
  L 168.67 64.00
  Q 169.11 64.00 169.22 63.57
  L 174.20 43.99
  Q 174.25 43.77 174.31 43.99"
/>
<path stroke="#808080" vector-effect="non-scaling-stroke" d="
  M 200.00 37.69
  A 0.43 0.43 0.0 0 0 199.57 37.26
  L 194.93 37.26
  A 0.43 0.43 0.0 0 0 194.50 37.69
  L 194.50 63.57
  A 0.43 0.43 0.0 0 0 194.93 64.00
  L 199.57 64.00
  A 0.43 0.43 0.0 0 0 200.00 63.57
  L 200.00 37.69"
/>
<path stroke="#808080" vector-effect="non-scaling-stroke" d="
  M 210.94 41.75
  A 0.31 0.31 0.0 0 1 211.25 42.06
  L 211.25 63.69
  A 0.31 0.31 0.0 0 0 211.56 64.00
  L 216.44 64.00
  A 0.31 0.31 0.0 0 0 216.75 63.69
  L 216.75 42.06
  A 0.31 0.31 0.0 0 1 217.06 41.75
  L 224.19 41.76
  A 0.31 0.31 0.0 0 0 224.50 41.45
  L 224.50 37.56
  A 0.31 0.31 0.0 0 0 224.19 37.25
  L 203.81 37.25
  A 0.31 0.31 0.0 0 0 203.50 37.56
  L 203.50 41.44
  A 0.31 0.31 0.0 0 0 203.81 41.75
  L 210.94 41.75"
/>
<path stroke="#808080" vector-effect="non-scaling-stroke" d="
  M 234.68 41.73
  A 0.32 0.32 0.0 0 1 235.00 42.05
  L 235.00 63.68
  A 0.32 0.32 0.0 0 0 235.32 64.00
  L 239.96 64.00
  A 0.32 0.32 0.0 0 0 240.28 63.68
  L 240.23 42.01
  A 0.32 0.32 0.0 0 1 240.56 41.69
  L 247.67 41.85
  A 0.32 0.32 0.0 0 0 248.00 41.53
  L 248.00 37.57
  A 0.32 0.32 0.0 0 0 247.68 37.25
  L 227.57 37.25
  A 0.32 0.32 0.0 0 0 227.25 37.57
  L 227.25 41.47
  A 0.32 0.32 0.0 0 0 227.57 41.79
  L 234.68 41.73"
/>
<path stroke="#808080" vector-effect="non-scaling-stroke" d="
  M 257.62 47.79
  A 0.32 0.32 0.0 0 1 257.30 47.48
  L 257.13 42.08
  A 0.32 0.32 0.0 0 1 257.45 41.75
  L 269.18 41.75
  A 0.32 0.32 0.0 0 0 269.50 41.43
  L 269.50 37.57
  A 0.32 0.32 0.0 0 0 269.18 37.25
  L 252.07 37.25
  A 0.32 0.32 0.0 0 0 251.75 37.57
  L 251.79 63.68
  A 0.32 0.32 0.0 0 0 252.11 64.00
  L 269.75 64.00
  A 0.32 0.32 0.0 0 0 270.07 63.68
  L 270.10 59.66
  A 0.32 0.32 0.0 0 0 269.78 59.34
  L 257.57 59.24
  A 0.32 0.32 0.0 0 1 257.25 58.92
  L 257.25 52.82
  A 0.32 0.32 0.0 0 1 257.57 52.50
  L 268.18 52.50
  A 0.32 0.32 0.0 0 0 268.50 52.18
  L 268.50 48.05
  A 0.32 0.32 0.0 0 0 268.18 47.73
  L 257.62 47.79"
/>
<path stroke="#808080" vector-effect="non-scaling-stroke" d="
  M 289.72 51.90
  Q 295.70 49.63 294.83 43.75
  C 293.62 35.62 281.46 36.99 275.08 37.36
  Q 274.73 37.39 274.73 37.74
  L 274.75 63.41
  Q 274.75 64.00 275.35 64.00
  L 279.50 64.00
  Q 280.00 64.00 280.00 63.50
  L 280.00 53.49
  A 0.66 0.66 0.0 0 1 280.63 52.83
  C 286.51 52.51 288.57 58.79 290.40 63.51
  Q 290.57 63.96 291.05 63.96
  L 295.97 64.02
  Q 296.75 64.03 296.40 63.33
  C 294.74 59.96 292.58 54.75 289.63 52.49
  Q 289.16 52.12 289.72 51.90"
/>
<path stroke="#808080" vector-effect="non-scaling-stroke" d="
  M 90.95 81.90
  L 43.99 19.18
  Q 43.68 18.75 43.14 18.75
  L 33.84 18.75
  Q 33.10 18.75 33.55 19.34
  L 80.32 81.78
  A 1.20 1.17 70.8 0 0 81.26 82.25
  Q 86.03 82.25 90.78 82.25
  Q 91.21 82.25 90.95 81.90"
/>
<path stroke="#808080" vector-effect="non-scaling-stroke" d="
  M 280.00 42.42
  L 280.00 48.02
  A 0.44 0.44 0.0 0 0 280.45 48.46
  L 285.75 48.45
  A 3.76 3.02 -0.1 0 0 289.50 45.42
  L 289.50 44.98
  A 3.76 3.02 -0.1 0 0 285.73 41.97
  L 280.43 41.98
  A 0.44 0.44 0.0 0 0 280.00 42.42"
/>
</g>
<path fill="#000000" d="
  M 0.00 0.00
  L 329.00 0.00
  L 329.00 100.00
  L 0.00 100.00
  L 0.00 0.00
  Z
  M 56.41 58.80
  A 0.33 0.33 0.0 0 1 56.92 58.83
  L 78.17 87.37
  A 0.33 0.33 0.0 0 0 78.44 87.50
  L 100.33 87.50
  A 0.33 0.33 0.0 0 0 100.60 86.97
  L 69.46 45.23
  A 0.33 0.33 0.0 0 1 69.49 44.81
  L 98.24 14.06
  A 0.33 0.33 0.0 0 0 98.00 13.50
  L 92.26 13.50
  A 0.33 0.33 0.0 0 0 92.02 13.60
  L 66.65 40.70
  A 0.33 0.33 0.0 0 1 66.14 40.68
  L 45.80 13.63
  A 0.33 0.33 0.0 0 0 45.54 13.50
  L 23.69 13.50
  A 0.33 0.33 0.0 0 0 23.42 14.03
  L 53.51 54.41
  A 0.33 0.33 0.0 0 1 53.48 54.83
  L 23.44 86.94
  A 0.33 0.33 0.0 0 0 23.68 87.50
  L 29.42 87.50
  A 0.33 0.33 0.0 0 0 29.66 87.40
  L 56.41 58.80
  Z
  M 141.25 41.75
  A 0.32 0.32 0.0 0 1 141.57 42.07
  L 141.72 63.68
  A 0.32 0.32 0.0 0 0 142.04 64.00
  L 146.68 64.00
  A 0.32 0.32 0.0 0 0 147.00 63.68
  L 147.00 42.07
  A 0.32 0.32 0.0 0 1 147.32 41.75
  L 154.43 41.75
  A 0.32 0.32 0.0 0 0 154.75 41.43
  L 154.75 37.57
  A 0.32 0.32 0.0 0 0 154.43 37.25
  L 134.32 37.25
  A 0.32 0.32 0.0 0 0 134.00 37.57
  L 134.00 41.43
  A 0.32 0.32 0.0 0 0 134.32 41.75
  L 141.25 41.75
  Z
  M 174.31 43.99
  L 179.16 63.33
  Q 179.33 64.00 180.01 64.00
  L 184.71 64.00
  Q 185.26 64.00 185.39 63.47
  L 191.47 37.93
  Q 191.63 37.25 190.94 37.25
  L 186.81 37.25
  Q 186.11 37.25 185.96 37.94
  L 182.30 55.47
  Q 182.20 55.95 182.08 55.47
  Q 179.84 46.62 177.64 37.76
  Q 177.52 37.25 177.00 37.25
  L 171.55 37.25
  A 0.59 0.59 0.0 0 0 170.98 37.70
  L 166.65 54.99
  Q 166.43 55.89 166.24 54.99
  L 162.59 37.86
  Q 162.46 37.25 161.83 37.25
  L 157.54 37.25
  Q 156.81 37.25 156.98 37.96
  L 163.02 63.34
  Q 163.17 64.00 163.85 64.00
  L 168.67 64.00
  Q 169.11 64.00 169.22 63.57
  L 174.20 43.99
  Q 174.25 43.77 174.31 43.99
  Z
  M 200.00 37.69
  A 0.43 0.43 0.0 0 0 199.57 37.26
  L 194.93 37.26
  A 0.43 0.43 0.0 0 0 194.50 37.69
  L 194.50 63.57
  A 0.43 0.43 0.0 0 0 194.93 64.00
  L 199.57 64.00
  A 0.43 0.43 0.0 0 0 200.00 63.57
  L 200.00 37.69
  Z
  M 210.94 41.75
  A 0.31 0.31 0.0 0 1 211.25 42.06
  L 211.25 63.69
  A 0.31 0.31 0.0 0 0 211.56 64.00
  L 216.44 64.00
  A 0.31 0.31 0.0 0 0 216.75 63.69
  L 216.75 42.06
  A 0.31 0.31 0.0 0 1 217.06 41.75
  L 224.19 41.76
  A 0.31 0.31 0.0 0 0 224.50 41.45
  L 224.50 37.56
  A 0.31 0.31 0.0 0 0 224.19 37.25
  L 203.81 37.25
  A 0.31 0.31 0.0 0 0 203.50 37.56
  L 203.50 41.44
  A 0.31 0.31 0.0 0 0 203.81 41.75
  L 210.94 41.75
  Z
  M 234.68 41.73
  A 0.32 0.32 0.0 0 1 235.00 42.05
  L 235.00 63.68
  A 0.32 0.32 0.0 0 0 235.32 64.00
  L 239.96 64.00
  A 0.32 0.32 0.0 0 0 240.28 63.68
  L 240.23 42.01
  A 0.32 0.32 0.0 0 1 240.56 41.69
  L 247.67 41.85
  A 0.32 0.32 0.0 0 0 248.00 41.53
  L 248.00 37.57
  A 0.32 0.32 0.0 0 0 247.68 37.25
  L 227.57 37.25
  A 0.32 0.32 0.0 0 0 227.25 37.57
  L 227.25 41.47
  A 0.32 0.32 0.0 0 0 227.57 41.79
  L 234.68 41.73
  Z
  M 257.62 47.79
  A 0.32 0.32 0.0 0 1 257.30 47.48
  L 257.13 42.08
  A 0.32 0.32 0.0 0 1 257.45 41.75
  L 269.18 41.75
  A 0.32 0.32 0.0 0 0 269.50 41.43
  L 269.50 37.57
  A 0.32 0.32 0.0 0 0 269.18 37.25
  L 252.07 37.25
  A 0.32 0.32 0.0 0 0 251.75 37.57
  L 251.79 63.68
  A 0.32 0.32 0.0 0 0 252.11 64.00
  L 269.75 64.00
  A 0.32 0.32 0.0 0 0 270.07 63.68
  L 270.10 59.66
  A 0.32 0.32 0.0 0 0 269.78 59.34
  L 257.57 59.24
  A 0.32 0.32 0.0 0 1 257.25 58.92
  L 257.25 52.82
  A 0.32 0.32 0.0 0 1 257.57 52.50
  L 268.18 52.50
  A 0.32 0.32 0.0 0 0 268.50 52.18
  L 268.50 48.05
  A 0.32 0.32 0.0 0 0 268.18 47.73
  L 257.62 47.79
  Z
  M 289.72 51.90
  Q 295.70 49.63 294.83 43.75
  C 293.62 35.62 281.46 36.99 275.08 37.36
  Q 274.73 37.39 274.73 37.74
  L 274.75 63.41
  Q 274.75 64.00 275.35 64.00
  L 279.50 64.00
  Q 280.00 64.00 280.00 63.50
  L 280.00 53.49
  A 0.66 0.66 0.0 0 1 280.63 52.83
  C 286.51 52.51 288.57 58.79 290.40 63.51
  Q 290.57 63.96 291.05 63.96
  L 295.97 64.02
  Q 296.75 64.03 296.40 63.33
  C 294.74 59.96 292.58 54.75 289.63 52.49
  Q 289.16 52.12 289.72 51.90
  Z"
/>
<path fill="#ffffff" d="
  M 56.41 58.80
  L 29.66 87.40
  A 0.33 0.33 0.0 0 1 29.42 87.50
  L 23.68 87.50
  A 0.33 0.33 0.0 0 1 23.44 86.94
  L 53.48 54.83
  A 0.33 0.33 0.0 0 0 53.51 54.41
  L 23.42 14.03
  A 0.33 0.33 0.0 0 1 23.69 13.50
  L 45.54 13.50
  A 0.33 0.33 0.0 0 1 45.80 13.63
  L 66.14 40.68
  A 0.33 0.33 0.0 0 0 66.65 40.70
  L 92.02 13.60
  A 0.33 0.33 0.0 0 1 92.26 13.50
  L 98.00 13.50
  A 0.33 0.33 0.0 0 1 98.24 14.06
  L 69.49 44.81
  A 0.33 0.33 0.0 0 0 69.46 45.23
  L 100.60 86.97
  A 0.33 0.33 0.0 0 1 100.33 87.50
  L 78.44 87.50
  A 0.33 0.33 0.0 0 1 78.17 87.37
  L 56.92 58.83
  A 0.33 0.33 0.0 0 0 56.41 58.80
  Z
  M 90.95 81.90
  L 43.99 19.18
  Q 43.68 18.75 43.14 18.75
  L 33.84 18.75
  Q 33.10 18.75 33.55 19.34
  L 80.32 81.78
  A 1.20 1.17 70.8 0 0 81.26 82.25
  Q 86.03 82.25 90.78 82.25
  Q 91.21 82.25 90.95 81.90
  Z"
/>
<path fill="#000000" d="
  M 90.78 82.25
  Q 86.03 82.25 81.26 82.25
  A 1.20 1.17 70.8 0 1 80.32 81.78
  L 33.55 19.34
  Q 33.10 18.75 33.84 18.75
  L 43.14 18.75
  Q 43.68 18.75 43.99 19.18
  L 90.95 81.90
  Q 91.21 82.25 90.78 82.25
  Z"
/>
<path fill="#ffffff" d="
  M 141.25 41.75
  L 134.32 41.75
  A 0.32 0.32 0.0 0 1 134.00 41.43
  L 134.00 37.57
  A 0.32 0.32 0.0 0 1 134.32 37.25
  L 154.43 37.25
  A 0.32 0.32 0.0 0 1 154.75 37.57
  L 154.75 41.43
  A 0.32 0.32 0.0 0 1 154.43 41.75
  L 147.32 41.75
  A 0.32 0.32 0.0 0 0 147.00 42.07
  L 147.00 63.68
  A 0.32 0.32 0.0 0 1 146.68 64.00
  L 142.04 64.00
  A 0.32 0.32 0.0 0 1 141.72 63.68
  L 141.57 42.07
  A 0.32 0.32 0.0 0 0 141.25 41.75
  Z"
/>
<path fill="#ffffff" d="
  M 174.20 43.99
  L 169.22 63.57
  Q 169.11 64.00 168.67 64.00
  L 163.85 64.00
  Q 163.17 64.00 163.02 63.34
  L 156.98 37.96
  Q 156.81 37.25 157.54 37.25
  L 161.83 37.25
  Q 162.46 37.25 162.59 37.86
  L 166.24 54.99
  Q 166.43 55.89 166.65 54.99
  L 170.98 37.70
  A 0.59 0.59 0.0 0 1 171.55 37.25
  L 177.00 37.25
  Q 177.52 37.25 177.64 37.76
  Q 179.84 46.62 182.08 55.47
  Q 182.20 55.95 182.30 55.47
  L 185.96 37.94
  Q 186.11 37.25 186.81 37.25
  L 190.94 37.25
  Q 191.63 37.25 191.47 37.93
  L 185.39 63.47
  Q 185.26 64.00 184.71 64.00
  L 180.01 64.00
  Q 179.33 64.00 179.16 63.33
  L 174.31 43.99
  Q 174.25 43.77 174.20 43.99
  Z"
/>
<rect fill="#ffffff" x="194.50" y="37.26" width="5.50" height="26.74" rx="0.43"/>
<path fill="#ffffff" d="
  M 210.94 41.75
  L 203.81 41.75
  A 0.31 0.31 0.0 0 1 203.50 41.44
  L 203.50 37.56
  A 0.31 0.31 0.0 0 1 203.81 37.25
  L 224.19 37.25
  A 0.31 0.31 0.0 0 1 224.50 37.56
  L 224.50 41.45
  A 0.31 0.31 0.0 0 1 224.19 41.76
  L 217.06 41.75
  A 0.31 0.31 0.0 0 0 216.75 42.06
  L 216.75 63.69
  A 0.31 0.31 0.0 0 1 216.44 64.00
  L 211.56 64.00
  A 0.31 0.31 0.0 0 1 211.25 63.69
  L 211.25 42.06
  A 0.31 0.31 0.0 0 0 210.94 41.75
  Z"
/>
<path fill="#ffffff" d="
  M 234.68 41.73
  L 227.57 41.79
  A 0.32 0.32 0.0 0 1 227.25 41.47
  L 227.25 37.57
  A 0.32 0.32 0.0 0 1 227.57 37.25
  L 247.68 37.25
  A 0.32 0.32 0.0 0 1 248.00 37.57
  L 248.00 41.53
  A 0.32 0.32 0.0 0 1 247.67 41.85
  L 240.56 41.69
  A 0.32 0.32 0.0 0 0 240.23 42.01
  L 240.28 63.68
  A 0.32 0.32 0.0 0 1 239.96 64.00
  L 235.32 64.00
  A 0.32 0.32 0.0 0 1 235.00 63.68
  L 235.00 42.05
  A 0.32 0.32 0.0 0 0 234.68 41.73
  Z"
/>
<path fill="#ffffff" d="
  M 257.62 47.79
  L 268.18 47.73
  A 0.32 0.32 0.0 0 1 268.50 48.05
  L 268.50 52.18
  A 0.32 0.32 0.0 0 1 268.18 52.50
  L 257.57 52.50
  A 0.32 0.32 0.0 0 0 257.25 52.82
  L 257.25 58.92
  A 0.32 0.32 0.0 0 0 257.57 59.24
  L 269.78 59.34
  A 0.32 0.32 0.0 0 1 270.10 59.66
  L 270.07 63.68
  A 0.32 0.32 0.0 0 1 269.75 64.00
  L 252.11 64.00
  A 0.32 0.32 0.0 0 1 251.79 63.68
  L 251.75 37.57
  A 0.32 0.32 0.0 0 1 252.07 37.25
  L 269.18 37.25
  A 0.32 0.32 0.0 0 1 269.50 37.57
  L 269.50 41.43
  A 0.32 0.32 0.0 0 1 269.18 41.75
  L 257.45 41.75
  A 0.32 0.32 0.0 0 0 257.13 42.08
  L 257.30 47.48
  A 0.32 0.32 0.0 0 0 257.62 47.79
  Z"
/>
<path fill="#ffffff" d="
  M 289.63 52.49
  C 292.58 54.75 294.74 59.96 296.40 63.33
  Q 296.75 64.03 295.97 64.02
  L 291.05 63.96
  Q 290.57 63.96 290.40 63.51
  C 288.57 58.79 286.51 52.51 280.63 52.83
  A 0.66 0.66 0.0 0 0 280.00 53.49
  L 280.00 63.50
  Q 280.00 64.00 279.50 64.00
  L 275.35 64.00
  Q 274.75 64.00 274.75 63.41
  L 274.73 37.74
  Q 274.73 37.39 275.08 37.36
  C 281.46 36.99 293.62 35.62 294.83 43.75
  Q 295.70 49.63 289.72 51.90
  Q 289.16 52.12 289.63 52.49
  Z
  M 280.00 42.42
  L 280.00 48.02
  A 0.44 0.44 0.0 0 0 280.45 48.46
  L 285.75 48.45
  A 3.76 3.02 -0.1 0 0 289.50 45.42
  L 289.50 44.98
  A 3.76 3.02 -0.1 0 0 285.73 41.97
  L 280.43 41.98
  A 0.44 0.44 0.0 0 0 280.00 42.42
  Z"
/>
<path fill="#000000" d="
  M 280.00 42.42
  A 0.44 0.44 0.0 0 1 280.43 41.98
  L 285.73 41.97
  A 3.76 3.02 -0.1 0 1 289.50 44.98
  L 289.50 45.42
  A 3.76 3.02 -0.1 0 1 285.75 48.45
  L 280.45 48.46
  A 0.44 0.44 0.0 0 1 280.00 48.02
  L 280.00 42.42
  Z"
/>
</svg>
