<?xml version="1.0" encoding="UTF-8" standalone="no"?>
<!DOCTYPE svg PUBLIC "-//W3C//DTD SVG 1.1//EN" "http://www.w3.org/Graphics/SVG/1.1/DTD/svg11.dtd">
<svg xmlns="http://www.w3.org/2000/svg" version="1.1" viewBox="0.00 0.00 329.00 100.00">
<g stroke-width="2.00" fill="none" stroke-linecap="butt">
<path stroke="#ff292a" vector-effect="non-scaling-stroke" d="
  M 99.07 81.25
  Q 100.27 81.92 101.08 81.00
  Q 101.42 80.61 101.88 80.36
  Q 105.03 78.61 106.60 75.32
  C 107.28 73.88 107.05 72.42 108.03 70.93
  Q 108.31 70.51 108.28 70.00
  C 108.03 65.49 109.15 60.68 109.28 56.99
  Q 109.74 43.09 107.96 30.51
  C 106.18 18.01 96.66 19.13 86.73 18.50
  Q 86.27 18.48 85.90 18.19
  C 83.99 16.70 49.73 17.75 44.60 17.75
  Q 42.27 17.75 37.46 18.39
  C 31.70 19.16 25.76 18.04 20.90 22.19
  C 12.90 29.02 15.60 61.78 17.02 70.49
  Q 18.13 77.23 22.73 80.28
  C 26.88 83.02 32.98 81.84 37.58 82.56
  Q 41.84 83.23 43.97 83.24
  Q 63.06 83.32 82.14 83.18
  C 86.39 83.15 91.01 81.67 95.93 82.43
  Q 96.52 82.52 97.00 82.17
  L 98.22 81.29
  Q 98.63 81.00 99.07 81.25"
/>
<path stroke="#802929" vector-effect="non-scaling-stroke" d="
  M 264.50 40.36
  L 264.48 20.75
  A 0.72 0.51 -0.4 0 0 263.76 20.25
  Q 259.67 20.25 255.57 20.25
  Q 254.95 20.24 254.72 20.82
  Q 254.31 21.82 255.01 22.87
  Q 255.25 23.24 255.25 23.69
  Q 255.24 49.04 255.25 74.40
  C 255.25 75.56 254.77 76.54 254.51 77.69
  A 0.57 0.57 0.0 0 0 254.93 78.37
  Q 257.61 78.99 260.31 78.74
  C 263.36 78.45 263.50 78.73 263.52 75.63
  A 0.29 0.29 0.0 0 1 264.04 75.45
  C 269.36 82.14 278.69 80.37 280.15 71.68
  Q 282.42 58.18 280.24 43.50
  C 278.99 35.08 269.49 34.60 264.78 40.46
  A 0.16 0.16 0.0 0 1 264.50 40.36"
/>
<path stroke="#802929" vector-effect="non-scaling-stroke" d="
  M 133.51 49.11
  L 128.12 22.83
  Q 128.01 22.27 127.44 22.27
  L 119.61 22.24
  A 0.91 0.91 0.0 0 0 118.74 23.41
  Q 123.10 38.63 127.21 53.89
  C 129.53 62.51 129.78 69.52 128.75 77.95
  Q 128.69 78.50 129.25 78.50
  L 137.99 78.50
  A 0.51 0.50 -89.4 0 0 138.49 78.00
  C 138.53 71.24 137.60 63.03 139.42 56.53
  Q 143.87 40.65 148.60 24.05
  A 1.41 1.41 0.0 0 0 147.24 22.25
  L 140.92 22.25
  A 1.64 1.64 0.0 0 0 139.32 23.54
  L 133.82 49.11
  A 0.16 0.16 0.0 0 1 133.51 49.11"
/>
<path stroke="#802929" vector-effect="non-scaling-stroke" d="
  M 218.50 30.62
  A 0.85 0.85 0.0 0 1 219.34 29.77
  L 226.65 29.70
  A 0.85 0.85 0.0 0 0 227.49 28.84
  L 227.46 23.09
  A 0.85 0.85 0.0 0 0 226.61 22.25
  L 200.45 22.25
  A 0.85 0.85 0.0 0 0 199.60 23.10
  L 199.56 28.90
  A 0.85 0.85 0.0 0 0 200.41 29.75
  L 207.65 29.75
  A 0.85 0.85 0.0 0 1 208.50 30.60
  L 208.50 77.82
  A 0.85 0.85 0.0 0 0 209.37 78.67
  L 217.67 78.44
  A 0.85 0.85 0.0 0 0 218.50 77.59
  L 218.50 30.62"
/>
<path stroke="#802929" vector-effect="non-scaling-stroke" d="
  M 167.31 38.69
  Q 159.27 33.87 152.17 38.36
  C 144.56 43.19 146.34 60.34 147.02 67.48
  Q 148.20 79.83 159.25 79.67
  C 164.98 79.59 170.07 77.16 171.24 71.24
  C 172.49 64.96 174.40 42.94 167.31 38.69"
/>
<path stroke="#802929" vector-effect="non-scaling-stroke" d="
  M 299.50 72.40
  C 292.49 73.53 294.67 66.13 294.40 62.07
  A 0.53 0.53 0.0 0 1 294.92 61.50
  L 308.92 61.28
  Q 309.44 61.27 309.45 60.75
  C 309.73 50.83 312.09 35.94 296.91 36.44
  Q 286.83 36.78 285.34 48.19
  Q 283.70 60.83 285.88 70.56
  Q 287.92 79.65 297.48 79.48
  Q 309.54 79.25 309.59 67.43
  Q 309.60 66.79 308.97 66.71
  L 302.12 65.74
  Q 301.64 65.67 301.54 66.14
  L 300.27 71.68
  A 0.94 0.94 0.0 0 1 299.50 72.40"
/>
<path stroke="#802929" vector-effect="non-scaling-stroke" d="
  M 194.18 74.26
  L 194.96 78.02
  Q 195.06 78.50 195.55 78.50
  L 201.63 78.50
  Q 202.25 78.50 202.25 77.87
  L 202.25 38.25
  Q 202.25 37.75 201.75 37.75
  L 193.25 37.75
  Q 192.75 37.75 192.75 38.25
  L 192.75 70.03
  Q 192.75 70.52 192.42 70.87
  C 190.25 73.17 186.26 73.97 186.27 69.50
  Q 186.31 53.86 186.22 38.24
  Q 186.21 37.74 185.72 37.74
  L 177.22 37.75
  Q 176.53 37.75 176.65 38.43
  C 178.43 48.55 177.17 60.92 177.19 71.30
  C 177.21 81.37 189.14 81.76 193.38 74.13
  Q 193.95 73.10 194.18 74.26"
/>
<path stroke="#802929" vector-effect="non-scaling-stroke" d="
  M 236.43 78.92
  Q 239.35 77.37 240.91 74.49
  Q 241.37 73.65 241.64 74.57
  Q 241.98 75.70 241.54 76.71
  A 1.37 1.37 0.0 0 0 242.75 78.63
  L 248.56 78.79
  A 0.92 0.92 0.0 0 0 249.50 77.87
  L 249.50 38.27
  Q 249.50 37.48 248.71 37.49
  L 240.90 37.55
  Q 240.29 37.55 240.31 38.16
  Q 240.66 53.15 240.18 68.14
  C 240.08 71.29 238.70 73.10 235.38 72.44
  Q 234.93 72.35 234.77 71.92
  Q 233.79 69.24 233.75 67.94
  Q 233.48 60.48 233.50 38.06
  Q 233.50 37.51 232.95 37.51
  L 225.05 37.51
  A 0.55 0.55 0.0 0 0 224.50 38.06
  Q 224.50 53.93 224.49 69.77
  C 224.49 76.41 227.79 80.61 235.00 79.45
  C 235.31 79.39 235.77 79.57 236.11 79.17
  A 1.31 1.30 6.7 0 1 236.43 78.92"
/>
<path stroke="#ff8081" vector-effect="non-scaling-stroke" d="
  M 53.96 37.32
  A 0.31 0.31 0.0 0 0 53.50 37.59
  L 53.50 63.43
  A 0.31 0.31 0.0 0 0 53.96 63.70
  L 76.50 50.78
  A 0.31 0.31 0.0 0 0 76.50 50.24
  L 53.96 37.32"
/>
<path stroke="#802929" vector-effect="non-scaling-stroke" d="
  M 270.47 45.01
  C 268.71 41.40 266.25 44.38 264.67 45.69
  A 0.49 0.46 71.3 0 0 264.50 46.06
  Q 264.50 58.23 264.50 70.41
  Q 264.50 70.98 264.98 71.30
  L 266.93 72.58
  A 2.68 2.20 -73.5 0 0 270.41 70.23
  C 270.54 68.76 271.50 67.87 271.50 66.20
  C 271.51 60.94 272.65 49.47 270.47 45.01"
/>
<path stroke="#802929" vector-effect="non-scaling-stroke" d="
  M 162.61 46.54
  A 2.97 2.97 0.0 0 0 159.64 43.57
  L 159.46 43.57
  A 2.97 2.97 0.0 0 0 156.49 46.54
  L 156.49 69.54
  A 2.97 2.97 0.0 0 0 159.46 72.51
  L 159.64 72.51
  A 2.97 2.97 0.0 0 0 162.61 69.54
  L 162.61 46.54"
/>
<path stroke="#802929" vector-effect="non-scaling-stroke" d="
  M 294.69 55.58
  L 300.47 55.53
  A 0.21 0.21 0.0 0 0 300.68 55.32
  L 300.61 46.91
  A 3.48 2.03 89.5 0 0 298.55 43.45
  L 296.41 43.47
  A 3.48 2.03 89.5 0 0 294.41 46.97
  L 294.48 55.38
  A 0.21 0.21 0.0 0 0 294.69 55.58"
/>
</g>
<path fill="#ff5151" d="
  M 0.00 0.00
  L 329.00 0.00
  L 329.00 100.00
  L 0.00 100.00
  L 0.00 0.00
  Z
  M 99.07 81.25
  Q 100.27 81.92 101.08 81.00
  Q 101.42 80.61 101.88 80.36
  Q 105.03 78.61 106.60 75.32
  C 107.28 73.88 107.05 72.42 108.03 70.93
  Q 108.31 70.51 108.28 70.00
  C 108.03 65.49 109.15 60.68 109.28 56.99
  Q 109.74 43.09 107.96 30.51
  C 106.18 18.01 96.66 19.13 86.73 18.50
  Q 86.27 18.48 85.90 18.19
  C 83.99 16.70 49.73 17.75 44.60 17.75
  Q 42.27 17.75 37.46 18.39
  C 31.70 19.16 25.76 18.04 20.90 22.19
  C 12.90 29.02 15.60 61.78 17.02 70.49
  Q 18.13 77.23 22.73 80.28
  C 26.88 83.02 32.98 81.84 37.58 82.56
  Q 41.84 83.23 43.97 83.24
  Q 63.06 83.32 82.14 83.18
  C 86.39 83.15 91.01 81.67 95.93 82.43
  Q 96.52 82.52 97.00 82.17
  L 98.22 81.29
  Q 98.63 81.00 99.07 81.25
  Z
  M 264.50 40.36
  L 264.48 20.75
  A 0.72 0.51 -0.4 0 0 263.76 20.25
  Q 259.67 20.25 255.57 20.25
  Q 254.95 20.24 254.72 20.82
  Q 254.31 21.82 255.01 22.87
  Q 255.25 23.24 255.25 23.69
  Q 255.24 49.04 255.25 74.40
  C 255.25 75.56 254.77 76.54 254.51 77.69
  A 0.57 0.57 0.0 0 0 254.93 78.37
  Q 257.61 78.99 260.31 78.74
  C 263.36 78.45 263.50 78.73 263.52 75.63
  A 0.29 0.29 0.0 0 1 264.04 75.45
  C 269.36 82.14 278.69 80.37 280.15 71.68
  Q 282.42 58.18 280.24 43.50
  C 278.99 35.08 269.49 34.60 264.78 40.46
  A 0.16 0.16 0.0 0 1 264.50 40.36
  Z
  M 133.51 49.11
  L 128.12 22.83
  Q 128.01 22.27 127.44 22.27
  L 119.61 22.24
  A 0.91 0.91 0.0 0 0 118.74 23.41
  Q 123.10 38.63 127.21 53.89
  C 129.53 62.51 129.78 69.52 128.75 77.95
  Q 128.69 78.50 129.25 78.50
  L 137.99 78.50
  A 0.51 0.50 -89.4 0 0 138.49 78.00
  C 138.53 71.24 137.60 63.03 139.42 56.53
  Q 143.87 40.65 148.60 24.05
  A 1.41 1.41 0.0 0 0 147.24 22.25
  L 140.92 22.25
  A 1.64 1.64 0.0 0 0 139.32 23.54
  L 133.82 49.11
  A 0.16 0.16 0.0 0 1 133.51 49.11
  Z
  M 218.50 30.62
  A 0.85 0.85 0.0 0 1 219.34 29.77
  L 226.65 29.70
  A 0.85 0.85 0.0 0 0 227.49 28.84
  L 227.46 23.09
  A 0.85 0.85 0.0 0 0 226.61 22.25
  L 200.45 22.25
  A 0.85 0.85 0.0 0 0 199.60 23.10
  L 199.56 28.90
  A 0.85 0.85 0.0 0 0 200.41 29.75
  L 207.65 29.75
  A 0.85 0.85 0.0 0 1 208.50 30.60
  L 208.50 77.82
  A 0.85 0.85 0.0 0 0 209.37 78.67
  L 217.67 78.44
  A 0.85 0.85 0.0 0 0 218.50 77.59
  L 218.50 30.62
  Z
  M 167.31 38.69
  Q 159.27 33.87 152.17 38.36
  C 144.56 43.19 146.34 60.34 147.02 67.48
  Q 148.20 79.83 159.25 79.67
  C 164.98 79.59 170.07 77.16 171.24 71.24
  C 172.49 64.96 174.40 42.94 167.31 38.69
  Z
  M 299.50 72.40
  C 292.49 73.53 294.67 66.13 294.40 62.07
  A 0.53 0.53 0.0 0 1 294.92 61.50
  L 308.92 61.28
  Q 309.44 61.27 309.45 60.75
  C 309.73 50.83 312.09 35.94 296.91 36.44
  Q 286.83 36.78 285.34 48.19
  Q 283.70 60.83 285.88 70.56
  Q 287.92 79.65 297.48 79.48
  Q 309.54 79.25 309.59 67.43
  Q 309.60 66.79 308.97 66.71
  L 302.12 65.74
  Q 301.64 65.67 301.54 66.14
  L 300.27 71.68
  A 0.94 0.94 0.0 0 1 299.50 72.40
  Z
  M 194.18 74.26
  L 194.96 78.02
  Q 195.06 78.50 195.55 78.50
  L 201.63 78.50
  Q 202.25 78.50 202.25 77.87
  L 202.25 38.25
  Q 202.25 37.75 201.75 37.75
  L 193.25 37.75
  Q 192.75 37.75 192.75 38.25
  L 192.75 70.03
  Q 192.75 70.52 192.42 70.87
  C 190.25 73.17 186.26 73.97 186.27 69.50
  Q 186.31 53.86 186.22 38.24
  Q 186.21 37.74 185.72 37.74
  L 177.22 37.75
  Q 176.53 37.75 176.65 38.43
  C 178.43 48.55 177.17 60.92 177.19 71.30
  C 177.21 81.37 189.14 81.76 193.38 74.13
  Q 193.95 73.10 194.18 74.26
  Z
  M 236.43 78.92
  Q 239.35 77.37 240.91 74.49
  Q 241.37 73.65 241.64 74.57
  Q 241.98 75.70 241.54 76.71
  A 1.37 1.37 0.0 0 0 242.75 78.63
  L 248.56 78.79
  A 0.92 0.92 0.0 0 0 249.50 77.87
  L 249.50 38.27
  Q 249.50 37.48 248.71 37.49
  L 240.90 37.55
  Q 240.29 37.55 240.31 38.16
  Q 240.66 53.15 240.18 68.14
  C 240.08 71.29 238.70 73.10 235.38 72.44
  Q 234.93 72.35 234.77 71.92
  Q 233.79 69.24 233.75 67.94
  Q 233.48 60.48 233.50 38.06
  Q 233.50 37.51 232.95 37.51
  L 225.05 37.51
  A 0.55 0.55 0.0 0 0 224.50 38.06
  Q 224.50 53.93 224.49 69.77
  C 224.49 76.41 227.79 80.61 235.00 79.45
  C 235.31 79.39 235.77 79.57 236.11 79.17
  A 1.31 1.30 6.7 0 1 236.43 78.92
  Z"
/>
<path fill="#fe0002" d="
  M 98.22 81.29
  L 97.00 82.17
  Q 96.52 82.52 95.93 82.43
  C 91.01 81.67 86.39 83.15 82.14 83.18
  Q 63.06 83.32 43.97 83.24
  Q 41.84 83.23 37.58 82.56
  C 32.98 81.84 26.88 83.02 22.73 80.28
  Q 18.13 77.23 17.02 70.49
  C 15.60 61.78 12.90 29.02 20.90 22.19
  C 25.76 18.04 31.70 19.16 37.46 18.39
  Q 42.27 17.75 44.60 17.75
  C 49.73 17.75 83.99 16.70 85.90 18.19
  Q 86.27 18.48 86.73 18.50
  C 96.66 19.13 106.18 18.01 107.96 30.51
  Q 109.74 43.09 109.28 56.99
  C 109.15 60.68 108.03 65.49 108.28 70.00
  Q 108.31 70.51 108.03 70.93
  C 107.05 72.42 107.28 73.88 106.60 75.32
  Q 105.03 78.61 101.88 80.36
  Q 101.42 80.61 101.08 81.00
  Q 100.27 81.92 99.07 81.25
  Q 98.63 81.00 98.22 81.29
  Z
  M 53.96 37.32
  A 0.31 0.31 0.0 0 0 53.50 37.59
  L 53.50 63.43
  A 0.31 0.31 0.0 0 0 53.96 63.70
  L 76.50 50.78
  A 0.31 0.31 0.0 0 0 76.50 50.24
  L 53.96 37.32
  Z"
/>
<path fill="#000000" d="
  M 264.50 40.36
  A 0.16 0.16 0.0 0 0 264.78 40.46
  C 269.49 34.60 278.99 35.08 280.24 43.50
  Q 282.42 58.18 280.15 71.68
  C 278.69 80.37 269.36 82.14 264.04 75.45
  A 0.29 0.29 0.0 0 0 263.52 75.63
  C 263.50 78.73 263.36 78.45 260.31 78.74
  Q 257.61 78.99 254.93 78.37
  A 0.57 0.57 0.0 0 1 254.51 77.69
  C 254.77 76.54 255.25 75.56 255.25 74.40
  Q 255.24 49.04 255.25 23.69
  Q 255.25 23.24 255.01 22.87
  Q 254.31 21.82 254.72 20.82
  Q 254.95 20.24 255.57 20.25
  Q 259.67 20.25 263.76 20.25
  A 0.72 0.51 -0.4 0 1 264.48 20.75
  L 264.50 40.36
  Z
  M 270.47 45.01
  C 268.71 41.40 266.25 44.38 264.67 45.69
  A 0.49 0.46 71.3 0 0 264.50 46.06
  Q 264.50 58.23 264.50 70.41
  Q 264.50 70.98 264.98 71.30
  L 266.93 72.58
  A 2.68 2.20 -73.5 0 0 270.41 70.23
  C 270.54 68.76 271.50 67.87 271.50 66.20
  C 271.51 60.94 272.65 49.47 270.47 45.01
  Z"
/>
<path fill="#000000" d="
  M 133.82 49.11
  L 139.32 23.54
  A 1.64 1.64 0.0 0 1 140.92 22.25
  L 147.24 22.25
  A 1.41 1.41 0.0 0 1 148.60 24.05
  Q 143.87 40.65 139.42 56.53
  C 137.60 63.03 138.53 71.24 138.49 78.00
  A 0.51 0.50 -89.4 0 1 137.99 78.50
  L 129.25 78.50
  Q 128.69 78.50 128.75 77.95
  C 129.78 69.52 129.53 62.51 127.21 53.89
  Q 123.10 38.63 118.74 23.41
  A 0.91 0.91 0.0 0 1 119.61 22.24
  L 127.44 22.27
  Q 128.01 22.27 128.12 22.83
  L 133.51 49.11
  A 0.16 0.16 0.0 0 0 133.82 49.11
  Z"
/>
<path fill="#000000" d="
  M 218.50 30.62
  L 218.50 77.59
  A 0.85 0.85 0.0 0 1 217.67 78.44
  L 209.37 78.67
  A 0.85 0.85 0.0 0 1 208.50 77.82
  L 208.50 30.60
  A 0.85 0.85 0.0 0 0 207.65 29.75
  L 200.41 29.75
  A 0.85 0.85 0.0 0 1 199.56 28.90
  L 199.60 23.10
  A 0.85 0.85 0.0 0 1 200.45 22.25
  L 226.61 22.25
  A 0.85 0.85 0.0 0 1 227.46 23.09
  L 227.49 28.84
  A 0.85 0.85 0.0 0 1 226.65 29.70
  L 219.34 29.77
  A 0.85 0.85 0.0 0 0 218.50 30.62
  Z"
/>
<path fill="#000000" d="
  M 167.31 38.69
  C 174.40 42.94 172.49 64.96 171.24 71.24
  C 170.07 77.16 164.98 79.59 159.25 79.67
  Q 148.20 79.83 147.02 67.48
  C 146.34 60.34 144.56 43.19 152.17 38.36
  Q 159.27 33.87 167.31 38.69
  Z
  M 162.61 46.54
  A 2.97 2.97 0.0 0 0 159.64 43.57
  L 159.46 43.57
  A 2.97 2.97 0.0 0 0 156.49 46.54
  L 156.49 69.54
  A 2.97 2.97 0.0 0 0 159.46 72.51
  L 159.64 72.51
  A 2.97 2.97 0.0 0 0 162.61 69.54
  L 162.61 46.54
  Z"
/>
<path fill="#000000" d="
  M 300.27 71.68
  L 301.54 66.14
  Q 301.64 65.67 302.12 65.74
  L 308.97 66.71
  Q 309.60 66.79 309.59 67.43
  Q 309.54 79.25 297.48 79.48
  Q 287.92 79.65 285.88 70.56
  Q 283.70 60.83 285.34 48.19
  Q 286.83 36.78 296.91 36.44
  C 312.09 35.94 309.73 50.83 309.45 60.75
  Q 309.44 61.27 308.92 61.28
  L 294.92 61.50
  A 0.53 0.53 0.0 0 0 294.40 62.07
  C 294.67 66.13 292.49 73.53 299.50 72.40
  A 0.94 0.94 0.0 0 0 300.27 71.68
  Z
  M 294.69 55.58
  L 300.47 55.53
  A 0.21 0.21 0.0 0 0 300.68 55.32
  L 300.61 46.91
  A 3.48 2.03 89.5 0 0 298.55 43.45
  L 296.41 43.47
  A 3.48 2.03 89.5 0 0 294.41 46.97
  L 294.48 55.38
  A 0.21 0.21 0.0 0 0 294.69 55.58
  Z"
/>
<path fill="#ffffff" d="
  M 53.96 37.32
  L 76.50 50.24
  A 0.31 0.31 0.0 0 1 76.50 50.78
  L 53.96 63.70
  A 0.31 0.31 0.0 0 1 53.50 63.43
  L 53.50 37.59
  A 0.31 0.31 0.0 0 1 53.96 37.32
  Z"
/>
<path fill="#000000" d="
  M 193.38 74.13
  C 189.14 81.76 177.21 81.37 177.19 71.30
  C 177.17 60.92 178.43 48.55 176.65 38.43
  Q 176.53 37.75 177.22 37.75
  L 185.72 37.74
  Q 186.21 37.74 186.22 38.24
  Q 186.31 53.86 186.27 69.50
  C 186.26 73.97 190.25 73.17 192.42 70.87
  Q 192.75 70.52 192.75 70.03
  L 192.75 38.25
  Q 192.75 37.75 193.25 37.75
  L 201.75 37.75
  Q 202.25 37.75 202.25 38.25
  L 202.25 77.87
  Q 202.25 78.50 201.63 78.50
  L 195.55 78.50
  Q 195.06 78.50 194.96 78.02
  L 194.18 74.26
  Q 193.95 73.10 193.38 74.13
  Z"
/>
<path fill="#000000" d="
  M 236.11 79.17
  C 235.77 79.57 235.31 79.39 235.00 79.45
  C 227.79 80.61 224.49 76.41 224.49 69.77
  Q 224.50 53.93 224.50 38.06
  A 0.55 0.55 0.0 0 1 225.05 37.51
  L 232.95 37.51
  Q 233.50 37.51 233.50 38.06
  Q 233.48 60.48 233.75 67.94
  Q 233.79 69.24 234.77 71.92
  Q 234.93 72.35 235.38 72.44
  C 238.70 73.10 240.08 71.29 240.18 68.14
  Q 240.66 53.15 240.31 38.16
  Q 240.29 37.55 240.90 37.55
  L 248.71 37.49
  Q 249.50 37.48 249.50 38.27
  L 249.50 77.87
  A 0.92 0.92 0.0 0 1 248.56 78.79
  L 242.75 78.63
  A 1.37 1.37 0.0 0 1 241.54 76.71
  Q 241.98 75.70 241.64 74.57
  Q 241.37 73.65 240.91 74.49
  Q 239.35 77.37 236.43 78.92
  A 1.31 1.30 6.7 0 0 236.11 79.17
  Z"
/>
<rect fill="#ff5151" x="156.49" y="43.57" width="6.12" height="28.94" rx="2.97"/>
<path fill="#ff5151" d="
  M 264.67 45.69
  C 266.25 44.38 268.71 41.40 270.47 45.01
  C 272.65 49.47 271.51 60.94 271.50 66.20
  C 271.50 67.87 270.54 68.76 270.41 70.23
  A 2.68 2.20 -73.5 0 1 266.93 72.58
  L 264.98 71.30
  Q 264.50 70.98 264.50 70.41
  Q 264.50 58.23 264.50 46.06
  A 0.49 0.46 71.3 0 1 264.67 45.69
  Z"
/>
<path fill="#ff5151" d="
  M 294.69 55.58
  A 0.21 0.21 0.0 0 1 294.48 55.38
  L 294.41 46.97
  A 3.48 2.03 89.5 0 1 296.41 43.47
  L 298.55 43.45
  A 3.48 2.03 89.5 0 1 300.61 46.91
  L 300.68 55.32
  A 0.21 0.21 0.0 0 1 300.47 55.53
  L 294.69 55.58
  Z"
/>
</svg>
