<?xml version="1.0" encoding="UTF-8" standalone="no"?>
<!DOCTYPE svg PUBLIC "-//W3C//DTD SVG 1.1//EN" "http://www.w3.org/Graphics/SVG/1.1/DTD/svg11.dtd">
<svg xmlns="http://www.w3.org/2000/svg" version="1.1" viewBox="0.00 0.00 350.00 100.00">
<g stroke-width="2.00" fill="none" stroke-linecap="butt">
<path stroke="#175574" vector-effect="non-scaling-stroke" d="
  M 83.40 73.32
  Q 89.43 74.91 95.01 77.75
  A 0.43 0.43 0.0 0 0 95.58 77.15
  Q 74.50 40.83 57.72 2.35
  A 0.15 0.15 0.0 0 0 57.45 2.35
  L 45.54 29.81
  Q 45.32 30.31 45.74 30.67
  L 57.04 40.30
  Q 57.68 40.84 56.91 40.51
  Q 50.21 37.68 44.36 33.40
  Q 43.87 33.04 43.59 33.58
  Q 26.26 66.83 7.38 99.22
  A 0.32 0.32 0.0 0 0 7.82 99.66
  C 20.10 92.67 32.48 86.97 46.52 83.46
  A 0.47 0.47 0.0 0 0 46.86 82.91
  C 45.45 76.04 46.66 65.12 52.83 60.79
  Q 56.99 57.86 60.97 59.86
  C 68.62 63.70 69.95 75.42 68.73 82.81
  A 0.61 0.60 -78.0 0 0 69.17 83.50
  Q 89.44 88.88 107.31 99.84
  A 0.32 0.32 0.0 0 0 107.76 99.41
  C 104.99 94.33 101.67 86.40 97.17 82.85
  Q 90.61 77.66 83.28 73.62
  Q 82.11 72.98 83.40 73.32"
/>
<path stroke="#323232" vector-effect="non-scaling-stroke" d="
  M 193.44 39.31
  L 197.90 34.66
  A 1.24 1.23 -23.0 0 0 198.25 33.80
  L 198.25 22.73
  Q 198.25 22.20 197.74 22.32
  L 190.30 24.02
  Q 189.75 24.15 189.75 24.71
  L 189.75 67.80
  Q 189.75 68.37 190.31 68.27
  L 197.71 66.91
  A 0.65 0.65 0.0 0 0 198.25 66.27
  L 198.25 45.67
  Q 198.25 45.08 198.61 44.63
  Q 203.09 38.87 210.52 41.60
  Q 213.38 42.64 213.30 45.74
  Q 213.04 56.81 213.49 67.89
  Q 213.51 68.44 214.05 68.35
  L 220.99 67.17
  Q 221.45 67.09 221.47 66.62
  C 221.63 62.83 222.73 40.84 220.64 39.06
  Q 212.17 31.85 201.69 34.72
  C 198.78 35.52 196.17 37.76 193.59 39.49
  A 0.12 0.12 0.0 0 1 193.44 39.31"
/>
<path stroke="#175574" vector-effect="non-scaling-stroke" d="
  M 229.22 23.35
  A 0.33 0.33 0.0 0 0 228.98 23.67
  L 229.01 67.20
  A 0.33 0.33 0.0 0 0 229.38 67.52
  L 232.56 67.14
  A 0.33 0.33 0.0 0 0 232.85 66.81
  L 232.70 22.85
  A 0.33 0.33 0.0 0 0 232.29 22.53
  L 229.22 23.35"
/>
<path stroke="#175574" vector-effect="non-scaling-stroke" d="
  M 239.14 25.70
  L 240.49 27.20
  A 0.73 0.73 0.0 0 0 241.52 27.25
  L 242.99 25.93
  A 0.84 0.62 -42.1 0 0 243.19 24.90
  L 241.69 23.24
  A 0.84 0.62 -42.1 0 0 240.65 23.35
  L 239.19 24.67
  A 0.73 0.73 0.0 0 0 239.14 25.70"
/>
<path stroke="#323232" vector-effect="non-scaling-stroke" d="
  M 127.16 60.91
  Q 125.25 63.95 122.96 66.68
  A 0.69 0.68 -74.6 0 0 123.59 67.80
  L 129.99 66.80
  Q 130.61 66.70 130.62 66.07
  Q 130.73 56.16 130.78 46.25
  Q 130.80 41.39 129.76 38.73
  C 126.59 30.66 112.48 31.71 105.87 33.66
  A 0.87 0.86 87.3 0 0 105.27 34.33
  L 103.93 41.45
  Q 103.78 42.25 104.56 42.02
  C 108.39 40.88 120.75 37.69 121.71 44.01
  Q 121.81 44.66 121.23 44.36
  C 112.12 39.59 98.18 44.39 99.77 56.79
  Q 100.57 63.02 106.00 66.03
  C 114.53 70.77 120.77 66.83 126.79 60.62
  A 0.24 0.24 0.0 0 1 127.16 60.91"
/>
<path stroke="#323232" vector-effect="non-scaling-stroke" d="
  M 144.00 36.72
  L 144.00 33.24
  Q 144.00 32.74 143.50 32.82
  L 136.39 34.01
  A 0.63 0.63 0.0 0 0 135.87 34.62
  L 135.73 67.37
  Q 135.73 67.98 136.32 67.87
  L 144.23 66.41
  Q 144.77 66.31 144.77 65.76
  Q 144.77 57.26 144.58 48.75
  C 144.46 43.59 149.41 41.17 153.87 40.86
  Q 154.47 40.82 154.72 40.26
  L 157.76 33.56
  Q 158.01 33.02 157.41 32.95
  Q 149.99 32.13 144.64 37.00
  Q 144.00 37.58 144.00 36.72"
/>
<path stroke="#323232" vector-effect="non-scaling-stroke" d="
  M 185.83 37.48
  C 175.37 30.88 158.00 31.01 154.78 45.73
  C 152.77 54.89 156.24 63.72 165.38 66.66
  C 172.64 68.99 181.11 68.23 186.51 62.36
  Q 186.91 61.93 186.49 61.52
  L 181.88 57.05
  Q 181.49 56.67 181.07 57.03
  Q 174.53 62.78 168.01 59.01
  C 163.61 56.46 161.48 50.78 164.17 46.34
  C 167.74 40.41 175.60 40.49 180.88 44.29
  Q 181.35 44.63 181.73 44.19
  L 186.09 39.25
  A 1.18 1.17 36.9 0 0 185.83 37.48"
/>
<path stroke="#175574" vector-effect="non-scaling-stroke" d="
  M 253.00 40.98
  L 253.00 35.94
  Q 253.00 35.36 252.43 35.46
  L 249.73 35.93
  Q 249.25 36.01 249.25 36.50
  L 249.25 67.33
  Q 249.25 67.95 249.85 67.80
  L 252.72 67.12
  Q 253.24 67.00 253.25 66.46
  Q 253.26 57.15 253.25 47.81
  C 253.23 37.41 273.29 33.64 273.53 46.89
  Q 273.71 57.17 273.71 67.49
  Q 273.71 68.05 274.26 67.93
  L 276.50 67.41
  A 0.61 0.61 0.0 0 0 276.98 66.79
  Q 276.66 56.13 276.73 45.45
  C 276.82 31.87 259.25 32.01 253.31 41.07
  Q 253.00 41.55 253.00 40.98"
/>
<path stroke="#175574" vector-effect="non-scaling-stroke" d="
  M 242.81 36.39
  A 0.18 0.18 0.0 0 1 242.84 36.30
  L 243.12 35.83
  A 0.18 0.18 0.0 0 0 242.90 35.56
  L 239.62 36.76
  A 0.18 0.18 0.0 0 0 239.50 36.93
  L 239.50 67.64
  A 0.18 0.18 0.0 0 0 239.72 67.82
  L 242.64 67.15
  A 0.18 0.18 0.0 0 0 242.78 66.98
  L 242.81 36.39"
/>
<path stroke="#175574" vector-effect="non-scaling-stroke" d="
  M 306.74 62.63
  L 306.75 67.79
  Q 306.76 68.33 307.28 68.22
  L 309.98 67.65
  Q 310.50 67.54 310.50 67.01
  L 310.50 36.20
  Q 310.50 35.63 309.95 35.77
  L 307.27 36.47
  Q 306.76 36.60 306.76 37.12
  C 306.73 42.74 308.04 54.70 305.51 59.46
  C 302.71 64.74 292.68 68.08 288.45 62.30
  Q 287.12 60.49 286.98 56.26
  Q 286.65 46.17 286.83 36.08
  Q 286.84 35.50 286.27 35.61
  L 283.19 36.20
  A 0.61 0.60 84.9 0 0 282.70 36.80
  Q 282.81 46.46 282.97 56.11
  C 283.08 62.67 284.32 66.98 291.02 68.43
  Q 300.91 70.57 306.43 62.54
  A 0.17 0.17 0.0 0 1 306.74 62.63"
/>
<path stroke="#175574" vector-effect="non-scaling-stroke" d="
  M 317.33 68.10
  A 0.36 0.36 0.0 0 0 317.84 68.03
  L 327.76 54.48
  A 0.36 0.36 0.0 0 1 328.34 54.48
  L 338.61 68.35
  A 0.36 0.36 0.0 0 0 339.13 68.41
  L 341.11 66.75
  A 0.36 0.36 0.0 0 0 341.17 66.26
  L 330.02 51.33
  A 0.36 0.36 0.0 0 1 330.02 50.91
  L 338.86 38.90
  A 0.36 0.36 0.0 0 0 338.80 38.41
  L 336.61 36.56
  A 0.36 0.36 0.0 0 0 336.08 36.62
  L 328.22 47.53
  A 0.36 0.36 0.0 0 1 327.64 47.54
  L 318.41 36.09
  A 0.36 0.36 0.0 0 0 317.91 36.02
  L 315.74 37.61
  A 0.36 0.36 0.0 0 0 315.67 38.12
  L 325.75 50.81
  A 0.36 0.36 0.0 0 1 325.76 51.24
  L 315.09 65.88
  A 0.36 0.36 0.0 0 0 315.16 66.37
  L 317.33 68.10"
/>
<path stroke="#323232" vector-effect="non-scaling-stroke" d="
  M 121.63 55.20
  A 6.81 5.11 0.0 0 0 114.82 50.09
  A 6.81 5.11 0.0 0 0 108.01 55.20
  A 6.81 5.11 0.0 0 0 114.82 60.31
  A 6.81 5.11 0.0 0 0 121.63 55.20"
/>
</g>
<path fill="#161616" d="
  M 0.00 0.00
  L 350.00 0.00
  L 350.00 100.00
  L 0.00 100.00
  L 0.00 0.00
  Z
  M 83.40 73.32
  Q 89.43 74.91 95.01 77.75
  A 0.43 0.43 0.0 0 0 95.58 77.15
  Q 74.50 40.83 57.72 2.35
  A 0.15 0.15 0.0 0 0 57.45 2.35
  L 45.54 29.81
  Q 45.32 30.31 45.74 30.67
  L 57.04 40.30
  Q 57.68 40.84 56.91 40.51
  Q 50.21 37.68 44.36 33.40
  Q 43.87 33.04 43.59 33.58
  Q 26.26 66.83 7.38 99.22
  A 0.32 0.32 0.0 0 0 7.82 99.66
  C 20.10 92.67 32.48 86.97 46.52 83.46
  A 0.47 0.47 0.0 0 0 46.86 82.91
  C 45.45 76.04 46.66 65.12 52.83 60.79
  Q 56.99 57.86 60.97 59.86
  C 68.62 63.70 69.95 75.42 68.73 82.81
  A 0.61 0.60 -78.0 0 0 69.17 83.50
  Q 89.44 88.88 107.31 99.84
  A 0.32 0.32 0.0 0 0 107.76 99.41
  C 104.99 94.33 101.67 86.40 97.17 82.85
  Q 90.61 77.66 83.28 73.62
  Q 82.11 72.98 83.40 73.32
  Z
  M 193.44 39.31
  L 197.90 34.66
  A 1.24 1.23 -23.0 0 0 198.25 33.80
  L 198.25 22.73
  Q 198.25 22.20 197.74 22.32
  L 190.30 24.02
  Q 189.75 24.15 189.75 24.71
  L 189.75 67.80
  Q 189.75 68.37 190.31 68.27
  L 197.71 66.91
  A 0.65 0.65 0.0 0 0 198.25 66.27
  L 198.25 45.67
  Q 198.25 45.08 198.61 44.63
  Q 203.09 38.87 210.52 41.60
  Q 213.38 42.64 213.30 45.74
  Q 213.04 56.81 213.49 67.89
  Q 213.51 68.44 214.05 68.35
  L 220.99 67.17
  Q 221.45 67.09 221.47 66.62
  C 221.63 62.83 222.73 40.84 220.64 39.06
  Q 212.17 31.85 201.69 34.72
  C 198.78 35.52 196.17 37.76 193.59 39.49
  A 0.12 0.12 0.0 0 1 193.44 39.31
  Z
  M 229.22 23.35
  A 0.33 0.33 0.0 0 0 228.98 23.67
  L 229.01 67.20
  A 0.33 0.33 0.0 0 0 229.38 67.52
  L 232.56 67.14
  A 0.33 0.33 0.0 0 0 232.85 66.81
  L 232.70 22.85
  A 0.33 0.33 0.0 0 0 232.29 22.53
  L 229.22 23.35
  Z
  M 239.14 25.70
  L 240.49 27.20
  A 0.73 0.73 0.0 0 0 241.52 27.25
  L 242.99 25.93
  A 0.84 0.62 -42.1 0 0 243.19 24.90
  L 241.69 23.24
  A 0.84 0.62 -42.1 0 0 240.65 23.35
  L 239.19 24.67
  A 0.73 0.73 0.0 0 0 239.14 25.70
  Z
  M 127.16 60.91
  Q 125.25 63.95 122.96 66.68
  A 0.69 0.68 -74.6 0 0 123.59 67.80
  L 129.99 66.80
  Q 130.61 66.70 130.62 66.07
  Q 130.73 56.16 130.78 46.25
  Q 130.80 41.39 129.76 38.73
  C 126.59 30.66 112.48 31.71 105.87 33.66
  A 0.87 0.86 87.3 0 0 105.27 34.33
  L 103.93 41.45
  Q 103.78 42.25 104.56 42.02
  C 108.39 40.88 120.75 37.69 121.71 44.01
  Q 121.81 44.66 121.23 44.36
  C 112.12 39.59 98.18 44.39 99.77 56.79
  Q 100.57 63.02 106.00 66.03
  C 114.53 70.77 120.77 66.83 126.79 60.62
  A 0.24 0.24 0.0 0 1 127.16 60.91
  Z
  M 144.00 36.72
  L 144.00 33.24
  Q 144.00 32.74 143.50 32.82
  L 136.39 34.01
  A 0.63 0.63 0.0 0 0 135.87 34.62
  L 135.73 67.37
  Q 135.73 67.98 136.32 67.87
  L 144.23 66.41
  Q 144.77 66.31 144.77 65.76
  Q 144.77 57.26 144.58 48.75
  C 144.46 43.59 149.41 41.17 153.87 40.86
  Q 154.47 40.82 154.72 40.26
  L 157.76 33.56
  Q 158.01 33.02 157.41 32.95
  Q 149.99 32.13 144.64 37.00
  Q 144.00 37.58 144.00 36.72
  Z
  M 185.83 37.48
  C 175.37 30.88 158.00 31.01 154.78 45.73
  C 152.77 54.89 156.24 63.72 165.38 66.66
  C 172.64 68.99 181.11 68.23 186.51 62.36
  Q 186.91 61.93 186.49 61.52
  L 181.88 57.05
  Q 181.49 56.67 181.07 57.03
  Q 174.53 62.78 168.01 59.01
  C 163.61 56.46 161.48 50.78 164.17 46.34
  C 167.74 40.41 175.60 40.49 180.88 44.29
  Q 181.35 44.63 181.73 44.19
  L 186.09 39.25
  A 1.18 1.17 36.9 0 0 185.83 37.48
  Z
  M 253.00 40.98
  L 253.00 35.94
  Q 253.00 35.36 252.43 35.46
  L 249.73 35.93
  Q 249.25 36.01 249.25 36.50
  L 249.25 67.33
  Q 249.25 67.95 249.85 67.80
  L 252.72 67.12
  Q 253.24 67.00 253.25 66.46
  Q 253.26 57.15 253.25 47.81
  C 253.23 37.41 273.29 33.64 273.53 46.89
  Q 273.71 57.17 273.71 67.49
  Q 273.71 68.05 274.26 67.93
  L 276.50 67.41
  A 0.61 0.61 0.0 0 0 276.98 66.79
  Q 276.66 56.13 276.73 45.45
  C 276.82 31.87 259.25 32.01 253.31 41.07
  Q 253.00 41.55 253.00 40.98
  Z
  M 242.81 36.39
  A 0.18 0.18 0.0 0 1 242.84 36.30
  L 243.12 35.83
  A 0.18 0.18 0.0 0 0 242.90 35.56
  L 239.62 36.76
  A 0.18 0.18 0.0 0 0 239.50 36.93
  L 239.50 67.64
  A 0.18 0.18 0.0 0 0 239.72 67.82
  L 242.64 67.15
  A 0.18 0.18 0.0 0 0 242.78 66.98
  L 242.81 36.39
  Z
  M 306.74 62.63
  L 306.75 67.79
  Q 306.76 68.33 307.28 68.22
  L 309.98 67.65
  Q 310.50 67.54 310.50 67.01
  L 310.50 36.20
  Q 310.50 35.63 309.95 35.77
  L 307.27 36.47
  Q 306.76 36.60 306.76 37.12
  C 306.73 42.74 308.04 54.70 305.51 59.46
  C 302.71 64.74 292.68 68.08 288.45 62.30
  Q 287.12 60.49 286.98 56.26
  Q 286.65 46.17 286.83 36.08
  Q 286.84 35.50 286.27 35.61
  L 283.19 36.20
  A 0.61 0.60 84.9 0 0 282.70 36.80
  Q 282.81 46.46 282.97 56.11
  C 283.08 62.67 284.32 66.98 291.02 68.43
  Q 300.91 70.57 306.43 62.54
  A 0.17 0.17 0.0 0 1 306.74 62.63
  Z
  M 317.33 68.10
  A 0.36 0.36 0.0 0 0 317.84 68.03
  L 327.76 54.48
  A 0.36 0.36 0.0 0 1 328.34 54.48
  L 338.61 68.35
  A 0.36 0.36 0.0 0 0 339.13 68.41
  L 341.11 66.75
  A 0.36 0.36 0.0 0 0 341.17 66.26
  L 330.02 51.33
  A 0.36 0.36 0.0 0 1 330.02 50.91
  L 338.86 38.90
  A 0.36 0.36 0.0 0 0 338.80 38.41
  L 336.61 36.56
  A 0.36 0.36 0.0 0 0 336.08 36.62
  L 328.22 47.53
  A 0.36 0.36 0.0 0 1 327.64 47.54
  L 318.41 36.09
  A 0.36 0.36 0.0 0 0 317.91 36.02
  L 315.74 37.61
  A 0.36 0.36 0.0 0 0 315.67 38.12
  L 325.75 50.81
  A 0.36 0.36 0.0 0 1 325.76 51.24
  L 315.09 65.88
  A 0.36 0.36 0.0 0 0 315.16 66.37
  L 317.33 68.10
  Z"
/>
<path fill="#1793d1" d="
  M 83.28 73.62
  Q 90.61 77.66 97.17 82.85
  C 101.67 86.40 104.99 94.33 107.76 99.41
  A 0.32 0.32 0.0 0 1 107.31 99.84
  Q 89.44 88.88 69.17 83.50
  A 0.61 0.60 -78.0 0 1 68.73 82.81
  C 69.95 75.42 68.62 63.70 60.97 59.86
  Q 56.99 57.86 52.83 60.79
  C 46.66 65.12 45.45 76.04 46.86 82.91
  A 0.47 0.47 0.0 0 1 46.52 83.46
  C 32.48 86.97 20.10 92.67 7.82 99.66
  A 0.32 0.32 0.0 0 1 7.38 99.22
  Q 26.26 66.83 43.59 33.58
  Q 43.87 33.04 44.36 33.40
  Q 50.21 37.68 56.91 40.51
  Q 57.68 40.84 57.04 40.30
  L 45.74 30.67
  Q 45.32 30.31 45.54 29.81
  L 57.45 2.35
  A 0.15 0.15 0.0 0 1 57.72 2.35
  Q 74.50 40.83 95.58 77.15
  A 0.43 0.43 0.0 0 1 95.01 77.75
  Q 89.43 74.91 83.40 73.32
  Q 82.11 72.98 83.28 73.62
  Z"
/>
<path fill="#4d4d4d" d="
  M 193.59 39.49
  C 196.17 37.76 198.78 35.52 201.69 34.72
  Q 212.17 31.85 220.64 39.06
  C 222.73 40.84 221.63 62.83 221.47 66.62
  Q 221.45 67.09 220.99 67.17
  L 214.05 68.35
  Q 213.51 68.44 213.49 67.89
  Q 213.04 56.81 213.30 45.74
  Q 213.38 42.64 210.52 41.60
  Q 203.09 38.87 198.61 44.63
  Q 198.25 45.08 198.25 45.67
  L 198.25 66.27
  A 0.65 0.65 0.0 0 1 197.71 66.91
  L 190.31 68.27
  Q 189.75 68.37 189.75 67.80
  L 189.75 24.71
  Q 189.75 24.15 190.30 24.02
  L 197.74 22.32
  Q 198.25 22.20 198.25 22.73
  L 198.25 33.80
  A 1.24 1.23 -23.0 0 1 197.90 34.66
  L 193.44 39.31
  A 0.12 0.12 0.0 0 0 193.59 39.49
  Z"
/>
<path fill="#1793d1" d="
  M 229.22 23.35
  L 232.29 22.53
  A 0.33 0.33 0.0 0 1 232.70 22.85
  L 232.85 66.81
  A 0.33 0.33 0.0 0 1 232.56 67.14
  L 229.38 67.52
  A 0.33 0.33 0.0 0 1 229.01 67.20
  L 228.98 23.67
  A 0.33 0.33 0.0 0 1 229.22 23.35
  Z"
/>
<path fill="#1793d1" d="
  M 239.14 25.70
  A 0.73 0.73 0.0 0 1 239.19 24.67
  L 240.65 23.35
  A 0.84 0.62 -42.1 0 1 241.69 23.24
  L 243.19 24.90
  A 0.84 0.62 -42.1 0 1 242.99 25.93
  L 241.52 27.25
  A 0.73 0.73 0.0 0 1 240.49 27.20
  L 239.14 25.70
  Z"
/>
<path fill="#4d4d4d" d="
  M 126.79 60.62
  C 120.77 66.83 114.53 70.77 106.00 66.03
  Q 100.57 63.02 99.77 56.79
  C 98.18 44.39 112.12 39.59 121.23 44.36
  Q 121.81 44.66 121.71 44.01
  C 120.75 37.69 108.39 40.88 104.56 42.02
  Q 103.78 42.25 103.93 41.45
  L 105.27 34.33
  A 0.87 0.86 87.3 0 1 105.87 33.66
  C 112.48 31.71 126.59 30.66 129.76 38.73
  Q 130.80 41.39 130.78 46.25
  Q 130.73 56.16 130.62 66.07
  Q 130.61 66.70 129.99 66.80
  L 123.59 67.80
  A 0.69 0.68 -74.6 0 1 122.96 66.68
  Q 125.25 63.95 127.16 60.91
  A 0.24 0.24 0.0 0 0 126.79 60.62
  Z
  M 121.63 55.20
  A 6.81 5.11 0.0 0 0 114.82 50.09
  A 6.81 5.11 0.0 0 0 108.01 55.20
  A 6.81 5.11 0.0 0 0 114.82 60.31
  A 6.81 5.11 0.0 0 0 121.63 55.20
  Z"
/>
<path fill="#4d4d4d" d="
  M 144.64 37.00
  Q 149.99 32.13 157.41 32.95
  Q 158.01 33.02 157.76 33.56
  L 154.72 40.26
  Q 154.47 40.82 153.87 40.86
  C 149.41 41.17 144.46 43.59 144.58 48.75
  Q 144.77 57.26 144.77 65.76
  Q 144.77 66.31 144.23 66.41
  L 136.32 67.87
  Q 135.73 67.98 135.73 67.37
  L 135.87 34.62
  A 0.63 0.63 0.0 0 1 136.39 34.01
  L 143.50 32.82
  Q 144.00 32.74 144.00 33.24
  L 144.00 36.72
  Q 144.00 37.58 144.64 37.00
  Z"
/>
<path fill="#4d4d4d" d="
  M 185.83 37.48
  A 1.18 1.17 36.9 0 1 186.09 39.25
  L 181.73 44.19
  Q 181.35 44.63 180.88 44.29
  C 175.60 40.49 167.74 40.41 164.17 46.34
  C 161.48 50.78 163.61 56.46 168.01 59.01
  Q 174.53 62.78 181.07 57.03
  Q 181.49 56.67 181.88 57.05
  L 186.49 61.52
  Q 186.91 61.93 186.51 62.36
  C 181.11 68.23 172.64 68.99 165.38 66.66
  C 156.24 63.72 152.77 54.89 154.78 45.73
  C 158.00 31.01 175.37 30.88 185.83 37.48
  Z"
/>
<path fill="#1793d1" d="
  M 253.31 41.07
  C 259.25 32.01 276.82 31.87 276.73 45.45
  Q 276.66 56.13 276.98 66.79
  A 0.61 0.61 0.0 0 1 276.50 67.41
  L 274.26 67.93
  Q 273.71 68.05 273.71 67.49
  Q 273.71 57.17 273.53 46.89
  C 273.29 33.64 253.23 37.41 253.25 47.81
  Q 253.26 57.15 253.25 66.46
  Q 253.24 67.00 252.72 67.12
  L 249.85 67.80
  Q 249.25 67.95 249.25 67.33
  L 249.25 36.50
  Q 249.25 36.01 249.73 35.93
  L 252.43 35.46
  Q 253.00 35.36 253.00 35.94
  L 253.00 40.98
  Q 253.00 41.55 253.31 41.07
  Z"
/>
<path fill="#1793d1" d="
  M 242.81 36.39
  L 242.78 66.98
  A 0.18 0.18 0.0 0 1 242.64 67.15
  L 239.72 67.82
  A 0.18 0.18 0.0 0 1 239.50 67.64
  L 239.50 36.93
  A 0.18 0.18 0.0 0 1 239.62 36.76
  L 242.90 35.56
  A 0.18 0.18 0.0 0 1 243.12 35.83
  L 242.84 36.30
  A 0.18 0.18 0.0 0 0 242.81 36.39
  Z"
/>
<path fill="#1793d1" d="
  M 306.74 62.63
  A 0.17 0.17 0.0 0 0 306.43 62.54
  Q 300.91 70.57 291.02 68.43
  C 284.32 66.98 283.08 62.67 282.97 56.11
  Q 282.81 46.46 282.70 36.80
  A 0.61 0.60 84.9 0 1 283.19 36.20
  L 286.27 35.61
  Q 286.84 35.50 286.83 36.08
  Q 286.65 46.17 286.98 56.26
  Q 287.12 60.49 288.45 62.30
  C 292.68 68.08 302.71 64.74 305.51 59.46
  C 308.04 54.70 306.73 42.74 306.76 37.12
  Q 306.76 36.60 307.27 36.47
  L 309.95 35.77
  Q 310.50 35.63 310.50 36.20
  L 310.50 67.01
  Q 310.50 67.54 309.98 67.65
  L 307.28 68.22
  Q 306.76 68.33 306.75 67.79
  L 306.74 62.63
  Z"
/>
<path fill="#1793d1" d="
  M 317.33 68.10
  L 315.16 66.37
  A 0.36 0.36 0.0 0 1 315.09 65.88
  L 325.76 51.24
  A 0.36 0.36 0.0 0 0 325.75 50.81
  L 315.67 38.12
  A 0.36 0.36 0.0 0 1 315.74 37.61
  L 317.91 36.02
  A 0.36 0.36 0.0 0 1 318.41 36.09
  L 327.64 47.54
  A 0.36 0.36 0.0 0 0 328.22 47.53
  L 336.08 36.62
  A 0.36 0.36 0.0 0 1 336.61 36.56
  L 338.80 38.41
  A 0.36 0.36 0.0 0 1 338.86 38.90
  L 330.02 50.91
  A 0.36 0.36 0.0 0 0 330.02 51.33
  L 341.17 66.26
  A 0.36 0.36 0.0 0 1 341.11 66.75
  L 339.13 68.41
  A 0.36 0.36 0.0 0 1 338.61 68.35
  L 328.34 54.48
  A 0.36 0.36 0.0 0 0 327.76 54.48
  L 317.84 68.03
  A 0.36 0.36 0.0 0 1 317.33 68.10
  Z"
/>
<ellipse fill="#161616" cx="114.82" cy="55.20" rx="6.81" ry="5.11"/>
</svg>
