<?xml version="1.0" encoding="UTF-8" standalone="no"?>
<!DOCTYPE svg PUBLIC "-//W3C//DTD SVG 1.1//EN" "http://www.w3.org/Graphics/SVG/1.1/DTD/svg11.dtd">
<svg xmlns="http://www.w3.org/2000/svg" version="1.1" viewBox="0.00 0.00 350.00 100.00">
<g stroke-width="2.00" fill="none" stroke-linecap="butt">
<path stroke="#41a5d6" vector-effect="non-scaling-stroke" d="
  M 84.00 73.74
  Q 90.05 74.99 95.04 77.91
  A 0.39 0.39 0.0 0 0 95.58 77.38
  C 81.88 52.89 69.37 28.75 57.95 2.66
  Q 57.62 1.91 57.29 2.66
  L 45.57 29.68
  Q 45.36 30.18 45.75 30.56
  Q 50.80 35.44 56.40 39.66
  A 0.27 0.27 0.0 0 1 56.14 40.13
  Q 49.81 37.43 44.30 33.33
  Q 43.88 33.01 43.64 33.48
  Q 26.23 66.89 7.25 99.44
  A 0.27 0.27 0.0 0 0 7.62 99.81
  C 19.92 92.85 32.58 86.68 46.51 83.64
  Q 47.04 83.52 46.93 82.99
  Q 45.09 74.39 48.66 66.36
  C 51.76 59.38 59.36 56.03 64.68 63.27
  Q 70.97 71.83 68.62 82.87
  Q 68.51 83.37 69.01 83.51
  Q 89.29 88.90 107.23 99.80
  A 0.40 0.39 0.9 0 0 107.78 99.27
  C 104.95 94.27 101.79 86.60 97.40 82.98
  Q 91.11 77.80 83.91 73.99
  A 0.13 0.13 0.0 0 1 84.00 73.74"
/>
<path stroke="#5c8294" vector-effect="non-scaling-stroke" d="
  M 194.12 38.46
  L 197.88 34.69
  Q 198.25 34.32 198.25 33.80
  L 198.25 22.73
  Q 198.25 22.21 197.75 22.33
  L 190.19 24.02
  Q 189.75 24.12 189.75 24.56
  L 189.75 67.80
  Q 189.75 68.35 190.30 68.26
  L 197.73 66.97
  A 0.63 0.63 0.0 0 0 198.25 66.35
  Q 198.25 56.05 198.24 45.74
  Q 198.24 45.23 198.54 44.80
  C 201.64 40.37 213.24 37.86 213.23 45.87
  Q 213.22 56.82 213.48 67.86
  A 0.50 0.50 0.0 0 0 214.07 68.34
  L 221.02 67.16
  Q 221.59 67.07 221.59 66.49
  Q 221.63 54.85 221.75 43.22
  C 221.79 40.33 220.36 38.31 218.05 36.97
  Q 205.50 29.71 194.49 38.96
  Q 194.25 39.16 194.09 38.95
  Q 193.89 38.69 194.12 38.46"
/>
<path stroke="#41a5d6" vector-effect="non-scaling-stroke" d="
  M 229.20 23.56
  A 0.33 0.33 0.0 0 0 228.97 23.87
  L 229.01 67.20
  A 0.33 0.33 0.0 0 0 229.38 67.52
  L 232.64 67.13
  A 0.33 0.33 0.0 0 0 232.93 66.80
  L 232.68 22.93
  A 0.33 0.33 0.0 0 0 232.26 22.62
  L 229.20 23.56"
/>
<path stroke="#41a5d6" vector-effect="non-scaling-stroke" d="
  M 241.6396 23.2402
  A 0.50 0.50 0.0 0 0 240.9348 23.1835
  L 239.0157 24.8168
  A 0.50 0.50 0.0 0 0 238.9590 25.5216
  L 240.5404 27.3798
  A 0.50 0.50 0.0 0 0 241.2452 27.4365
  L 243.1643 25.8032
  A 0.50 0.50 0.0 0 0 243.2210 25.0984
  L 241.6396 23.2402"
/>
<path stroke="#5c8294" vector-effect="non-scaling-stroke" d="
  M 126.83 61.32
  Q 124.94 64.29 122.70 67.03
  A 0.51 0.51 0.0 0 0 123.17 67.86
  L 130.13 66.83
  Q 130.72 66.74 130.72 66.15
  Q 130.80 57.15 130.74 48.13
  Q 130.70 41.04 129.60 38.62
  C 125.97 30.61 112.84 31.60 105.92 33.57
  A 0.90 0.90 0.0 0 0 105.28 34.26
  L 103.82 41.51
  Q 103.70 42.08 104.27 41.97
  C 107.24 41.41 122.75 37.52 121.67 44.34
  Q 121.58 44.89 121.13 44.57
  C 115.39 40.62 102.27 42.88 100.15 50.65
  C 97.00 62.24 106.92 70.44 117.91 67.39
  C 121.38 66.43 123.93 63.62 126.48 61.04
  A 0.23 0.23 0.0 0 1 126.83 61.32"
/>
<path stroke="#5c8294" vector-effect="non-scaling-stroke" d="
  M 144.01 37.18
  L 143.99 33.24
  Q 143.99 32.75 143.51 32.83
  L 136.33 33.98
  Q 135.75 34.08 135.75 34.67
  L 135.75 67.29
  Q 135.75 68.02 136.47 67.88
  L 144.21 66.43
  Q 144.73 66.33 144.74 65.80
  Q 144.78 57.49 144.74 49.11
  C 144.71 43.79 148.74 41.06 153.81 41.00
  A 0.89 0.88 11.6 0 0 154.60 40.49
  L 157.83 33.54
  Q 158.09 32.97 157.47 32.90
  Q 149.66 32.07 144.33 37.31
  A 0.19 0.19 0.0 0 1 144.01 37.18"
/>
<path stroke="#5c8294" vector-effect="non-scaling-stroke" d="
  M 185.86 37.53
  C 172.21 28.68 151.89 33.31 154.42 53.18
  C 156.33 68.25 177.42 73.35 186.58 62.22
  Q 186.89 61.85 186.54 61.51
  L 181.85 57.04
  Q 181.42 56.63 181.00 57.03
  C 168.76 68.48 154.99 48.52 168.38 42.70
  Q 174.67 39.97 180.88 44.30
  Q 181.36 44.64 181.75 44.20
  L 186.10 39.32
  Q 187.02 38.29 185.86 37.53"
/>
<path stroke="#41a5d6" vector-effect="non-scaling-stroke" d="
  M 252.99 40.73
  L 253.01 35.98
  Q 253.01 35.36 252.41 35.47
  L 249.73 35.93
  Q 249.25 36.01 249.25 36.50
  L 249.25 67.31
  Q 249.25 67.95 249.87 67.80
  L 252.75 67.14
  Q 253.24 67.02 253.24 66.53
  Q 253.28 57.15 253.23 47.70
  C 253.18 37.37 273.57 33.90 273.51 46.76
  Q 273.46 57.15 273.52 67.59
  A 0.45 0.44 82.0 0 0 274.08 68.02
  L 276.50 67.41
  A 0.68 0.67 83.2 0 0 277.00 66.77
  Q 277.07 56.45 276.79 46.14
  C 276.63 40.25 274.73 36.41 268.91 35.13
  Q 259.08 32.96 253.35 40.85
  Q 252.99 41.34 252.99 40.73"
/>
<path stroke="#41a5d6" vector-effect="non-scaling-stroke" d="
  M 240.57 67.54
  L 242.31 67.22
  Q 242.75 67.13 242.75 66.69
  L 242.75 35.90
  A 0.46 0.46 0.0 0 0 242.13 35.47
  L 240.36 36.16
  Q 239.88 36.35 239.84 36.87
  Q 238.73 51.87 239.79 66.94
  Q 239.84 67.68 240.57 67.54"
/>
<path stroke="#41a5d6" vector-effect="non-scaling-stroke" d="
  M 306.74 62.88
  L 306.76 67.82
  Q 306.76 68.39 307.32 68.27
  L 310.21 67.63
  Q 310.62 67.54 310.61 67.12
  L 310.45 36.16
  Q 310.45 35.60 309.90 35.73
  L 307.18 36.41
  A 0.66 0.66 0.0 0 0 306.68 37.06
  Q 306.78 45.04 306.73 52.26
  C 306.69 58.03 305.81 61.67 300.49 63.94
  C 293.60 66.87 286.99 64.89 287.01 56.51
  Q 287.03 46.25 286.98 35.94
  Q 286.98 35.34 286.40 35.47
  L 283.34 36.16
  Q 282.79 36.28 282.78 36.84
  Q 282.63 47.30 282.93 57.78
  C 283.32 71.34 300.28 72.23 306.26 62.75
  A 0.26 0.26 0.0 0 1 306.74 62.88"
/>
<path stroke="#41a5d6" vector-effect="non-scaling-stroke" d="
  M 328.20 47.50
  A 0.37 0.37 0.0 0 1 327.62 47.52
  L 318.48 36.09
  A 0.37 0.37 0.0 0 0 317.98 36.02
  L 315.73 37.59
  A 0.37 0.37 0.0 0 0 315.65 38.13
  L 325.70 50.78
  A 0.37 0.37 0.0 0 1 325.70 51.23
  L 315.02 65.91
  A 0.37 0.37 0.0 0 0 315.09 66.43
  L 317.39 68.13
  A 0.37 0.37 0.0 0 0 317.91 68.05
  L 327.75 54.52
  A 0.37 0.37 0.0 0 1 328.35 54.52
  L 338.54 68.43
  A 0.37 0.37 0.0 0 0 339.07 68.50
  L 341.20 66.76
  A 0.37 0.37 0.0 0 0 341.26 66.26
  L 330.07 51.35
  A 0.37 0.37 0.0 0 1 330.06 50.91
  L 338.92 38.97
  A 0.37 0.37 0.0 0 0 338.86 38.47
  L 336.59 36.55
  A 0.37 0.37 0.0 0 0 336.05 36.61
  L 328.20 47.50"
/>
<path stroke="#5c8294" vector-effect="non-scaling-stroke" d="
  M 121.7000 55.2080
  A 6.85 5.10 -0.1 0 0 114.8411 50.1200
  A 6.85 5.10 -0.1 0 0 108.0000 55.2320
  A 6.85 5.10 -0.1 0 0 114.8589 60.3200
  A 6.85 5.10 -0.1 0 0 121.7000 55.2080"
/>
</g>
<path fill="#6bb6db" d="
  M 0.00 0.00
  L 350.00 0.00
  L 350.00 100.00
  L 0.00 100.00
  L 0.00 0.00
  Z
  M 84.00 73.74
  Q 90.05 74.99 95.04 77.91
  A 0.39 0.39 0.0 0 0 95.58 77.38
  C 81.88 52.89 69.37 28.75 57.95 2.66
  Q 57.62 1.91 57.29 2.66
  L 45.57 29.68
  Q 45.36 30.18 45.75 30.56
  Q 50.80 35.44 56.40 39.66
  A 0.27 0.27 0.0 0 1 56.14 40.13
  Q 49.81 37.43 44.30 33.33
  Q 43.88 33.01 43.64 33.48
  Q 26.23 66.89 7.25 99.44
  A 0.27 0.27 0.0 0 0 7.62 99.81
  C 19.92 92.85 32.58 86.68 46.51 83.64
  Q 47.04 83.52 46.93 82.99
  Q 45.09 74.39 48.66 66.36
  C 51.76 59.38 59.36 56.03 64.68 63.27
  Q 70.97 71.83 68.62 82.87
  Q 68.51 83.37 69.01 83.51
  Q 89.29 88.90 107.23 99.80
  A 0.40 0.39 0.9 0 0 107.78 99.27
  C 104.95 94.27 101.79 86.60 97.40 82.98
  Q 91.11 77.80 83.91 73.99
  A 0.13 0.13 0.0 0 1 84.00 73.74
  Z
  M 194.12 38.46
  L 197.88 34.69
  Q 198.25 34.32 198.25 33.80
  L 198.25 22.73
  Q 198.25 22.21 197.75 22.33
  L 190.19 24.02
  Q 189.75 24.12 189.75 24.56
  L 189.75 67.80
  Q 189.75 68.35 190.30 68.26
  L 197.73 66.97
  A 0.63 0.63 0.0 0 0 198.25 66.35
  Q 198.25 56.05 198.24 45.74
  Q 198.24 45.23 198.54 44.80
  C 201.64 40.37 213.24 37.86 213.23 45.87
  Q 213.22 56.82 213.48 67.86
  A 0.50 0.50 0.0 0 0 214.07 68.34
  L 221.02 67.16
  Q 221.59 67.07 221.59 66.49
  Q 221.63 54.85 221.75 43.22
  C 221.79 40.33 220.36 38.31 218.05 36.97
  Q 205.50 29.71 194.49 38.96
  Q 194.25 39.16 194.09 38.95
  Q 193.89 38.69 194.12 38.46
  Z
  M 229.20 23.56
  A 0.33 0.33 0.0 0 0 228.97 23.87
  L 229.01 67.20
  A 0.33 0.33 0.0 0 0 229.38 67.52
  L 232.64 67.13
  A 0.33 0.33 0.0 0 0 232.93 66.80
  L 232.68 22.93
  A 0.33 0.33 0.0 0 0 232.26 22.62
  L 229.20 23.56
  Z
  M 241.6396 23.2402
  A 0.50 0.50 0.0 0 0 240.9348 23.1835
  L 239.0157 24.8168
  A 0.50 0.50 0.0 0 0 238.9590 25.5216
  L 240.5404 27.3798
  A 0.50 0.50 0.0 0 0 241.2452 27.4365
  L 243.1643 25.8032
  A 0.50 0.50 0.0 0 0 243.2210 25.0984
  L 241.6396 23.2402
  Z
  M 126.83 61.32
  Q 124.94 64.29 122.70 67.03
  A 0.51 0.51 0.0 0 0 123.17 67.86
  L 130.13 66.83
  Q 130.72 66.74 130.72 66.15
  Q 130.80 57.15 130.74 48.13
  Q 130.70 41.04 129.60 38.62
  C 125.97 30.61 112.84 31.60 105.92 33.57
  A 0.90 0.90 0.0 0 0 105.28 34.26
  L 103.82 41.51
  Q 103.70 42.08 104.27 41.97
  C 107.24 41.41 122.75 37.52 121.67 44.34
  Q 121.58 44.89 121.13 44.57
  C 115.39 40.62 102.27 42.88 100.15 50.65
  C 97.00 62.24 106.92 70.44 117.91 67.39
  C 121.38 66.43 123.93 63.62 126.48 61.04
  A 0.23 0.23 0.0 0 1 126.83 61.32
  Z
  M 144.01 37.18
  L 143.99 33.24
  Q 143.99 32.75 143.51 32.83
  L 136.33 33.98
  Q 135.75 34.08 135.75 34.67
  L 135.75 67.29
  Q 135.75 68.02 136.47 67.88
  L 144.21 66.43
  Q 144.73 66.33 144.74 65.80
  Q 144.78 57.49 144.74 49.11
  C 144.71 43.79 148.74 41.06 153.81 41.00
  A 0.89 0.88 11.6 0 0 154.60 40.49
  L 157.83 33.54
  Q 158.09 32.97 157.47 32.90
  Q 149.66 32.07 144.33 37.31
  A 0.19 0.19 0.0 0 1 144.01 37.18
  Z
  M 185.86 37.53
  C 172.21 28.68 151.89 33.31 154.42 53.18
  C 156.33 68.25 177.42 73.35 186.58 62.22
  Q 186.89 61.85 186.54 61.51
  L 181.85 57.04
  Q 181.42 56.63 181.00 57.03
  C 168.76 68.48 154.99 48.52 168.38 42.70
  Q 174.67 39.97 180.88 44.30
  Q 181.36 44.64 181.75 44.20
  L 186.10 39.32
  Q 187.02 38.29 185.86 37.53
  Z
  M 252.99 40.73
  L 253.01 35.98
  Q 253.01 35.36 252.41 35.47
  L 249.73 35.93
  Q 249.25 36.01 249.25 36.50
  L 249.25 67.31
  Q 249.25 67.95 249.87 67.80
  L 252.75 67.14
  Q 253.24 67.02 253.24 66.53
  Q 253.28 57.15 253.23 47.70
  C 253.18 37.37 273.57 33.90 273.51 46.76
  Q 273.46 57.15 273.52 67.59
  A 0.45 0.44 82.0 0 0 274.08 68.02
  L 276.50 67.41
  A 0.68 0.67 83.2 0 0 277.00 66.77
  Q 277.07 56.45 276.79 46.14
  C 276.63 40.25 274.73 36.41 268.91 35.13
  Q 259.08 32.96 253.35 40.85
  Q 252.99 41.34 252.99 40.73
  Z
  M 240.57 67.54
  L 242.31 67.22
  Q 242.75 67.13 242.75 66.69
  L 242.75 35.90
  A 0.46 0.46 0.0 0 0 242.13 35.47
  L 240.36 36.16
  Q 239.88 36.35 239.84 36.87
  Q 238.73 51.87 239.79 66.94
  Q 239.84 67.68 240.57 67.54
  Z
  M 306.74 62.88
  L 306.76 67.82
  Q 306.76 68.39 307.32 68.27
  L 310.21 67.63
  Q 310.62 67.54 310.61 67.12
  L 310.45 36.16
  Q 310.45 35.60 309.90 35.73
  L 307.18 36.41
  A 0.66 0.66 0.0 0 0 306.68 37.06
  Q 306.78 45.04 306.73 52.26
  C 306.69 58.03 305.81 61.67 300.49 63.94
  C 293.60 66.87 286.99 64.89 287.01 56.51
  Q 287.03 46.25 286.98 35.94
  Q 286.98 35.34 286.40 35.47
  L 283.34 36.16
  Q 282.79 36.28 282.78 36.84
  Q 282.63 47.30 282.93 57.78
  C 283.32 71.34 300.28 72.23 306.26 62.75
  A 0.26 0.26 0.0 0 1 306.74 62.88
  Z
  M 328.20 47.50
  A 0.37 0.37 0.0 0 1 327.62 47.52
  L 318.48 36.09
  A 0.37 0.37 0.0 0 0 317.98 36.02
  L 315.73 37.59
  A 0.37 0.37 0.0 0 0 315.65 38.13
  L 325.70 50.78
  A 0.37 0.37 0.0 0 1 325.70 51.23
  L 315.02 65.91
  A 0.37 0.37 0.0 0 0 315.09 66.43
  L 317.39 68.13
  A 0.37 0.37 0.0 0 0 317.91 68.05
  L 327.75 54.52
  A 0.37 0.37 0.0 0 1 328.35 54.52
  L 338.54 68.43
  A 0.37 0.37 0.0 0 0 339.07 68.50
  L 341.20 66.76
  A 0.37 0.37 0.0 0 0 341.26 66.26
  L 330.07 51.35
  A 0.37 0.37 0.0 0 1 330.06 50.91
  L 338.92 38.97
  A 0.37 0.37 0.0 0 0 338.86 38.47
  L 336.59 36.55
  A 0.37 0.37 0.0 0 0 336.05 36.61
  L 328.20 47.50
  Z"
/>
<path fill="#1793d1" d="
  M 83.91 73.99
  Q 91.11 77.80 97.40 82.98
  C 101.79 86.60 104.95 94.27 107.78 99.27
  A 0.40 0.39 0.9 0 1 107.23 99.80
  Q 89.29 88.90 69.01 83.51
  Q 68.51 83.37 68.62 82.87
  Q 70.97 71.83 64.68 63.27
  C 59.36 56.03 51.76 59.38 48.66 66.36
  Q 45.09 74.39 46.93 82.99
  Q 47.04 83.52 46.51 83.64
  C 32.58 86.68 19.92 92.85 7.62 99.81
  A 0.27 0.27 0.0 0 1 7.25 99.44
  Q 26.23 66.89 43.64 33.48
  Q 43.88 33.01 44.30 33.33
  Q 49.81 37.43 56.14 40.13
  A 0.27 0.27 0.0 0 0 56.40 39.66
  Q 50.80 35.44 45.75 30.56
  Q 45.36 30.18 45.57 29.68
  L 57.29 2.66
  Q 57.62 1.91 57.95 2.66
  C 69.37 28.75 81.88 52.89 95.58 77.38
  A 0.39 0.39 0.0 0 1 95.04 77.91
  Q 90.05 74.99 84.00 73.74
  A 0.13 0.13 0.0 0 0 83.91 73.99
  Z"
/>
<path fill="#4d4d4d" d="
  M 197.88 34.69
  L 194.12 38.46
  Q 193.89 38.69 194.09 38.95
  Q 194.25 39.16 194.49 38.96
  Q 205.50 29.71 218.05 36.97
  C 220.36 38.31 221.79 40.33 221.75 43.22
  Q 221.63 54.85 221.59 66.49
  Q 221.59 67.07 221.02 67.16
  L 214.07 68.34
  A 0.50 0.50 0.0 0 1 213.48 67.86
  Q 213.22 56.82 213.23 45.87
  C 213.24 37.86 201.64 40.37 198.54 44.80
  Q 198.24 45.23 198.24 45.74
  Q 198.25 56.05 198.25 66.35
  A 0.63 0.63 0.0 0 1 197.73 66.97
  L 190.30 68.26
  Q 189.75 68.35 189.75 67.80
  L 189.75 24.56
  Q 189.75 24.12 190.19 24.02
  L 197.75 22.33
  Q 198.25 22.21 198.25 22.73
  L 198.25 33.80
  Q 198.25 34.32 197.88 34.69
  Z"
/>
<path fill="#1793d1" d="
  M 229.20 23.56
  L 232.26 22.62
  A 0.33 0.33 0.0 0 1 232.68 22.93
  L 232.93 66.80
  A 0.33 0.33 0.0 0 1 232.64 67.13
  L 229.38 67.52
  A 0.33 0.33 0.0 0 1 229.01 67.20
  L 228.97 23.87
  A 0.33 0.33 0.0 0 1 229.20 23.56
  Z"
/>
<rect fill="#1793d1" x="-1.76" y="-1.72" transform="translate(241.09,25.31) rotate(-40.4)" width="3.52" height="3.44" rx="0.50"/>
<path fill="#4d4d4d" d="
  M 126.48 61.04
  C 123.93 63.62 121.38 66.43 117.91 67.39
  C 106.92 70.44 97.00 62.24 100.15 50.65
  C 102.27 42.88 115.39 40.62 121.13 44.57
  Q 121.58 44.89 121.67 44.34
  C 122.75 37.52 107.24 41.41 104.27 41.97
  Q 103.70 42.08 103.82 41.51
  L 105.28 34.26
  A 0.90 0.90 0.0 0 1 105.92 33.57
  C 112.84 31.60 125.97 30.61 129.60 38.62
  Q 130.70 41.04 130.74 48.13
  Q 130.80 57.15 130.72 66.15
  Q 130.72 66.74 130.13 66.83
  L 123.17 67.86
  A 0.51 0.51 0.0 0 1 122.70 67.03
  Q 124.94 64.29 126.83 61.32
  A 0.23 0.23 0.0 0 0 126.48 61.04
  Z
  M 121.7000 55.2080
  A 6.85 5.10 -0.1 0 0 114.8411 50.1200
  A 6.85 5.10 -0.1 0 0 108.0000 55.2320
  A 6.85 5.10 -0.1 0 0 114.8589 60.3200
  A 6.85 5.10 -0.1 0 0 121.7000 55.2080
  Z"
/>
<path fill="#4d4d4d" d="
  M 144.01 37.18
  A 0.19 0.19 0.0 0 0 144.33 37.31
  Q 149.66 32.07 157.47 32.90
  Q 158.09 32.97 157.83 33.54
  L 154.60 40.49
  A 0.89 0.88 11.6 0 1 153.81 41.00
  C 148.74 41.06 144.71 43.79 144.74 49.11
  Q 144.78 57.49 144.74 65.80
  Q 144.73 66.33 144.21 66.43
  L 136.47 67.88
  Q 135.75 68.02 135.75 67.29
  L 135.75 34.67
  Q 135.75 34.08 136.33 33.98
  L 143.51 32.83
  Q 143.99 32.75 143.99 33.24
  L 144.01 37.18
  Z"
/>
<path fill="#4d4d4d" d="
  M 185.86 37.53
  Q 187.02 38.29 186.10 39.32
  L 181.75 44.20
  Q 181.36 44.64 180.88 44.30
  Q 174.67 39.97 168.38 42.70
  C 154.99 48.52 168.76 68.48 181.00 57.03
  Q 181.42 56.63 181.85 57.04
  L 186.54 61.51
  Q 186.89 61.85 186.58 62.22
  C 177.42 73.35 156.33 68.25 154.42 53.18
  C 151.89 33.31 172.21 28.68 185.86 37.53
  Z"
/>
<path fill="#1793d1" d="
  M 253.35 40.85
  Q 259.08 32.96 268.91 35.13
  C 274.73 36.41 276.63 40.25 276.79 46.14
  Q 277.07 56.45 277.00 66.77
  A 0.68 0.67 83.2 0 1 276.50 67.41
  L 274.08 68.02
  A 0.45 0.44 82.0 0 1 273.52 67.59
  Q 273.46 57.15 273.51 46.76
  C 273.57 33.90 253.18 37.37 253.23 47.70
  Q 253.28 57.15 253.24 66.53
  Q 253.24 67.02 252.75 67.14
  L 249.87 67.80
  Q 249.25 67.95 249.25 67.31
  L 249.25 36.50
  Q 249.25 36.01 249.73 35.93
  L 252.41 35.47
  Q 253.01 35.36 253.01 35.98
  L 252.99 40.73
  Q 252.99 41.34 253.35 40.85
  Z"
/>
<path fill="#1793d1" d="
  M 239.79 66.94
  Q 238.73 51.87 239.84 36.87
  Q 239.88 36.35 240.36 36.16
  L 242.13 35.47
  A 0.46 0.46 0.0 0 1 242.75 35.90
  L 242.75 66.69
  Q 242.75 67.13 242.31 67.22
  L 240.57 67.54
  Q 239.84 67.68 239.79 66.94
  Z"
/>
<path fill="#1793d1" d="
  M 306.74 62.88
  A 0.26 0.26 0.0 0 0 306.26 62.75
  C 300.28 72.23 283.32 71.34 282.93 57.78
  Q 282.63 47.30 282.78 36.84
  Q 282.79 36.28 283.34 36.16
  L 286.40 35.47
  Q 286.98 35.34 286.98 35.94
  Q 287.03 46.25 287.01 56.51
  C 286.99 64.89 293.60 66.87 300.49 63.94
  C 305.81 61.67 306.69 58.03 306.73 52.26
  Q 306.78 45.04 306.68 37.06
  A 0.66 0.66 0.0 0 1 307.18 36.41
  L 309.90 35.73
  Q 310.45 35.60 310.45 36.16
  L 310.61 67.12
  Q 310.62 67.54 310.21 67.63
  L 307.32 68.27
  Q 306.76 68.39 306.76 67.82
  L 306.74 62.88
  Z"
/>
<path fill="#1793d1" d="
  M 328.20 47.50
  L 336.05 36.61
  A 0.37 0.37 0.0 0 1 336.59 36.55
  L 338.86 38.47
  A 0.37 0.37 0.0 0 1 338.92 38.97
  L 330.06 50.91
  A 0.37 0.37 0.0 0 0 330.07 51.35
  L 341.26 66.26
  A 0.37 0.37 0.0 0 1 341.20 66.76
  L 339.07 68.50
  A 0.37 0.37 0.0 0 1 338.54 68.43
  L 328.35 54.52
  A 0.37 0.37 0.0 0 0 327.75 54.52
  L 317.91 68.05
  A 0.37 0.37 0.0 0 1 317.39 68.13
  L 315.09 66.43
  A 0.37 0.37 0.0 0 1 315.02 65.91
  L 325.70 51.23
  A 0.37 0.37 0.0 0 0 325.70 50.78
  L 315.65 38.13
  A 0.37 0.37 0.0 0 1 315.73 37.59
  L 317.98 36.02
  A 0.37 0.37 0.0 0 1 318.48 36.09
  L 327.62 47.52
  A 0.37 0.37 0.0 0 0 328.20 47.50
  Z"
/>
<ellipse fill="#6bb6db" cx="0.00" cy="0.00" transform="translate(114.85,55.22) rotate(-0.1)" rx="6.85" ry="5.10"/>
</svg>
