<?xml version="1.0" encoding="UTF-8" standalone="no"?>
<!DOCTYPE svg PUBLIC "-//W3C//DTD SVG 1.1//EN" "http://www.w3.org/Graphics/SVG/1.1/DTD/svg11.dtd">
<svg xmlns="http://www.w3.org/2000/svg" version="1.1" viewBox="0.00 0.00 350.00 100.00">
<g stroke-width="2.00" fill="none" stroke-linecap="butt">
<path stroke="#c8daf3" vector-effect="non-scaling-stroke" d="
  M 54.54 5.67
  L 54.75 6.42
  A 0.53 0.53 0.0 0 1 54.12 7.08
  Q 42.17 4.37 29.96 4.83
  A 0.64 0.64 0.0 0 0 29.89 6.10
  C 31.82 6.41 34.57 6.35 36.13 6.50
  Q 48.84 7.68 61.66 11.32"
/>
<path stroke="#92afcc" vector-effect="non-scaling-stroke" d="
  M 61.66 11.32
  Q 33.67 12.11 7.28 17.13
  Q 6.67 17.25 7.26 17.45
  Q 7.87 17.65 8.51 17.56
  Q 29.55 14.56 50.74 13.55"
/>
<path stroke="#c8daf3" vector-effect="non-scaling-stroke" d="
  M 50.74 13.55
  L 55.89 13.74
  Q 56.58 13.76 56.18 14.33
  C 55.15 15.77 48.41 14.98 45.87 15.28
  Q 43.02 15.62 37.50 15.98
  Q 25.18 16.78 11.88 19.18
  A 0.71 0.71 0.0 0 0 11.48 20.36
  C 12.00 20.92 13.45 20.44 14.06 20.35
  Q 34.64 17.43 55.43 17.18
  Q 56.01 17.18 55.91 17.74
  L 55.81 18.26"
/>
<path stroke="#92afcc" vector-effect="non-scaling-stroke" d="
  M 55.81 18.26
  Q 34.90 23.00 17.19 34.38"
/>
<path stroke="#c8daf3" vector-effect="non-scaling-stroke" d="
  M 17.19 34.38
  Q 15.90 35.68 16.41 37.42
  Q 16.61 38.08 17.23 37.79
  Q 18.65 37.12 21.69 35.45
  Q 40.71 24.99 64.75 21.76
  Q 67.62 21.37 70.47 21.58
  Q 71.02 21.62 71.21 22.14
  L 73.06 27.21"
/>
<path stroke="#92afcc" vector-effect="non-scaling-stroke" d="
  M 73.06 27.21
  Q 69.48 30.07 67.94 34.30"
/>
<path stroke="#c8daf3" vector-effect="non-scaling-stroke" d="
  M 67.94 34.30
  Q 62.99 41.57 64.87 48.61
  C 67.59 58.82 77.19 62.52 87.26 61.43
  Q 92.73 60.83 98.90 64.15"
/>
<path stroke="#92afcc" vector-effect="non-scaling-stroke" d="
  M 98.90 64.15
  L 36.26 64.27
  A 2.02 2.02 0.0 0 0 34.25 66.28
  Q 34.21 81.09 34.38 95.43
  C 34.42 99.29 41.12 98.01 43.69 97.99
  Q 44.25 97.99 44.25 97.43
  L 44.25 96.25
  Q 44.25 95.75 43.75 95.75
  L 37.25 95.75
  Q 36.75 95.75 36.75 95.25
  L 36.75 67.25
  A 0.75 0.75 0.0 0 1 37.50 66.50
  L 98.01 66.76
  Q 98.50 66.77 98.50 67.26
  L 98.50 95.25
  Q 98.50 95.75 98.00 95.75
  L 47.56 95.75
  Q 46.84 95.75 46.98 96.45
  L 47.16 97.39
  Q 47.27 97.98 47.87 97.98
  L 98.76 98.01
  A 2.23 2.22 -0.1 0 0 100.99 95.78
  L 100.99 65.76"
/>
<path stroke="#c8daf3" vector-effect="non-scaling-stroke" d="
  M 100.99 65.76
  Q 100.94 65.46 101.19 65.26
  Q 101.60 64.94 102.04 65.20
  C 112.38 71.23 115.99 78.52 120.70 89.02
  Q 120.92 89.50 121.13 89.02
  Q 121.74 87.63 121.25 86.02
  Q 117.30 73.03 106.18 65.29
  A 2.26 2.25 17.0 0 1 105.21 63.48
  Q 105.20 63.23 106.29 63.14"
/>
<path stroke="#92afcc" vector-effect="non-scaling-stroke" d="
  M 106.29 63.14
  C 116.19 68.82 122.26 80.60 124.23 91.48
  Q 124.51 93.04 124.47 91.46
  C 124.19 77.84 116.14 69.01 106.55 60.75
  Q 105.86 60.16 106.75 60.33
  C 116.26 62.19 125.08 67.54 129.02 76.75
  Q 129.12 76.99 129.23 76.75
  Q 129.32 76.56 129.22 76.26
  C 123.89 60.69 104.89 55.32 90.24 55.08
  C 82.23 54.95 75.36 54.92 71.57 46.45
  Q 68.79 40.23 72.18 34.38"
/>
<path stroke="#c8daf3" vector-effect="non-scaling-stroke" d="
  M 72.18 34.38
  Q 77.65 30.05 84.05 30.42
  C 87.50 30.61 91.62 32.73 95.46 33.64
  Q 97.57 34.13 104.75 37.62
  Q 105.21 37.85 105.32 38.35
  L 105.69 39.96
  Q 105.80 40.44 106.21 40.72
  L 114.79 46.52
  A 1.72 1.71 -79.4 0 0 117.42 44.71
  L 117.22 43.84"
/>
<path stroke="#92afcc" vector-effect="non-scaling-stroke" d="
  M 117.22 43.84
  L 119.88 41.93
  Q 120.49 41.49 119.77 41.27
  Q 117.36 40.57 115.47 38.86
  Q 115.09 38.51 114.89 38.02
  Q 113.74 35.14 111.77 32.70
  Q 111.48 32.34 111.01 32.38
  L 109.73 32.51
  Q 109.22 32.56 108.85 32.22
  L 105.74 29.36
  A 0.29 0.29 0.0 0 0 105.25 29.61
  L 105.31 30.01
  Q 105.40 30.63 104.87 30.29
  Q 103.21 29.20 101.76 27.83
  Q 101.39 27.48 101.03 27.84
  L 100.74 28.13
  Q 100.41 28.46 100.08 28.13
  C 98.04 26.06 91.95 24.60 89.16 23.93
  C 85.50 23.04 81.88 24.08 77.98 21.94
  C 73.43 19.44 72.61 14.07 73.49 9.35
  Q 73.59 8.82 73.10 8.61
  C 57.47 1.96 38.28 0.49 22.61 1.06
  Q -8.12 2.20 22.59 1.91
  C 31.08 1.83 43.96 3.37 54.54 5.67"
/>
<path stroke="#89a9bf" vector-effect="non-scaling-stroke" d="
  M 117.22 43.84
  Q 114.46 40.92 108.56 37.95
  Q 107.15 37.25 107.31 35.04
  Q 107.35 34.52 106.87 34.29
  C 97.74 29.92 78.45 20.21 72.18 34.38"
/>
<path stroke="#89a9bf" vector-effect="non-scaling-stroke" d="
  M 106.29 63.14
  C 98.97 58.41 92.45 58.78 84.66 58.31
  C 70.90 57.48 63.89 48.57 67.94 34.30"
/>
<path stroke="#89a9bf" vector-effect="non-scaling-stroke" d="
  M 73.06 27.21
  L 75.63 25.48
  Q 76.00 25.23 75.85 24.80
  L 71.00 11.28
  A 1.91 1.91 0.0 0 0 69.91 10.15
  Q 62.72 7.28 54.54 5.67"
/>
<path stroke="#89a9bf" vector-effect="non-scaling-stroke" d="
  M 100.99 65.76
  Q 99.95 64.30 98.90 64.15"
/>
<path stroke="#89a9bf" vector-effect="non-scaling-stroke" d="
  M 17.19 34.38
  Q 23.44 31.68 29.63 28.89
  C 43.44 22.65 56.35 19.06 71.77 17.86
  A 0.11 0.10 -82.8 0 0 71.87 17.78
  C 72.43 15.92 71.24 15.38 69.62 15.57
  Q 62.54 16.38 55.81 18.26"
/>
<path stroke="#89a9bf" vector-effect="non-scaling-stroke" d="
  M 50.74 13.55
  L 70.79 14.01
  Q 71.55 14.03 71.29 13.32
  L 70.83 12.09
  A 0.83 0.82 -8.9 0 0 70.08 11.55
  L 61.66 11.32"
/>
<path stroke="#697080" vector-effect="non-scaling-stroke" d="
  M 144.50 28.22
  L 144.50 16.79
  Q 144.50 16.15 143.86 16.18
  L 141.46 16.28
  Q 140.98 16.30 140.98 16.79
  L 141.00 42.41
  Q 141.00 43.00 141.60 43.00
  L 144.00 43.00
  Q 144.50 43.00 144.50 42.50
  Q 144.50 38.10 144.50 33.71
  Q 144.51 33.12 144.92 32.70
  L 147.71 29.91
  A 0.53 0.53 0.0 0 1 148.53 30.00
  L 156.70 42.50
  A 1.12 1.11 -16.7 0 0 157.63 43.00
  L 160.55 43.00
  A 0.48 0.48 0.0 0 0 160.95 42.25
  L 151.11 27.43
  A 0.95 0.94 50.7 0 1 151.22 26.25
  L 160.70 16.63
  Q 161.21 16.11 160.48 16.03
  C 158.36 15.80 156.81 16.01 155.20 17.66
  Q 150.00 22.99 144.85 28.36
  Q 144.50 28.73 144.50 28.22"
/>
<path stroke="#697080" vector-effect="non-scaling-stroke" d="
  M 194.54 39.75
  A 0.31 0.31 0.0 0 1 194.23 39.44
  L 194.28 16.49
  A 0.31 0.31 0.0 0 0 193.96 16.18
  L 191.05 16.29
  A 0.31 0.31 0.0 0 0 190.75 16.60
  L 190.75 42.69
  A 0.31 0.31 0.0 0 0 191.06 43.00
  L 207.19 43.00
  A 0.31 0.31 0.0 0 0 207.50 42.69
  L 207.50 40.06
  A 0.31 0.31 0.0 0 0 207.19 39.75
  L 194.54 39.75"
/>
<path stroke="#697080" vector-effect="non-scaling-stroke" d="
  M 215.24 16.46
  A 0.26 0.26 0.0 0 0 214.98 16.20
  L 211.76 16.20
  A 0.26 0.26 0.0 0 0 211.50 16.46
  L 211.50 42.74
  A 0.26 0.26 0.0 0 0 211.76 43.00
  L 214.98 43.00
  A 0.26 0.26 0.0 0 0 215.24 42.74
  L 215.24 16.46"
/>
<path stroke="#697080" vector-effect="non-scaling-stroke" d="
  M 224.80 39.75
  A 0.31 0.31 0.0 0 1 224.49 39.44
  L 224.52 16.41
  A 0.31 0.31 0.0 0 0 224.19 16.10
  L 221.29 16.32
  A 0.31 0.31 0.0 0 0 221.00 16.63
  L 221.00 42.69
  A 0.31 0.31 0.0 0 0 221.31 43.00
  L 237.44 43.00
  A 0.31 0.31 0.0 0 0 237.75 42.69
  L 237.75 40.06
  A 0.31 0.31 0.0 0 0 237.44 39.75
  L 224.80 39.75"
/>
<path stroke="#697080" vector-effect="non-scaling-stroke" d="
  M 267.78 36.61
  L 255.01 16.69
  A 0.94 0.92 -15.6 0 0 254.22 16.26
  L 251.54 16.23
  Q 251.00 16.23 251.00 16.77
  L 251.00 42.50
  Q 251.00 43.00 251.50 43.00
  L 254.00 43.00
  Q 254.50 43.00 254.50 42.50
  L 254.50 23.06
  A 0.29 0.29 0.0 0 1 255.04 22.91
  L 267.48 42.50
  Q 267.80 43.00 268.39 43.00
  L 271.12 43.00
  Q 271.75 43.00 271.75 42.38
  L 271.75 16.85
  Q 271.75 16.21 271.11 16.19
  L 268.34 16.11
  A 0.34 0.34 0.0 0 0 267.98 16.45
  L 268.04 36.53
  A 0.14 0.14 0.0 0 1 267.78 36.61"
/>
<path stroke="#697080" vector-effect="non-scaling-stroke" d="
  M 294.02 16.76
  C 294.19 21.50 295.87 36.83 291.43 39.37
  C 287.81 41.44 282.47 40.31 281.32 35.77
  C 279.90 30.18 280.96 22.47 281.03 16.59
  Q 281.03 16.13 280.57 16.14
  L 277.41 16.20
  Q 276.98 16.21 276.98 16.63
  Q 277.04 25.49 277.45 34.29
  Q 277.83 42.43 285.71 43.25
  Q 297.46 44.48 297.82 33.00
  Q 298.08 24.89 297.96 16.73
  Q 297.96 16.17 297.40 16.19
  L 294.47 16.28
  Q 294.00 16.29 294.02 16.76"
/>
<path stroke="#697080" vector-effect="non-scaling-stroke" d="
  M 312.20 25.89
  Q 309.25 21.24 306.11 16.75
  Q 305.81 16.34 305.30 16.30
  L 302.02 16.10
  A 0.38 0.38 0.0 0 0 301.68 16.70
  L 309.90 28.59
  A 0.92 0.91 -44.7 0 1 309.89 29.65
  L 300.71 42.30
  Q 300.20 43.00 301.07 43.00
  L 303.70 43.00
  A 1.21 1.20 -72.3 0 0 304.68 42.49
  L 312.07 32.04
  A 0.26 0.26 0.0 0 1 312.49 32.04
  L 319.52 42.51
  A 1.09 1.08 -16.4 0 0 320.43 43.00
  L 323.43 43.00
  Q 324.27 43.00 323.79 42.31
  L 314.72 29.25
  Q 314.44 28.85 314.73 28.45
  L 323.07 16.92
  Q 323.55 16.27 322.77 16.07
  Q 321.71 15.80 320.73 15.92
  C 318.59 16.18 314.10 23.92 312.88 25.89
  A 0.40 0.40 0.0 0 1 312.20 25.89"
/>
<path stroke="#697080" vector-effect="non-scaling-stroke" d="
  M 180.58 34.90
  A 0.32 0.32 0.0 0 1 180.89 35.11
  L 183.74 42.79
  A 0.32 0.32 0.0 0 0 184.04 43.00
  L 187.55 43.00
  A 0.32 0.32 0.0 0 0 187.85 42.56
  L 177.22 16.45
  A 0.32 0.32 0.0 0 0 176.92 16.25
  L 173.42 16.25
  A 0.32 0.32 0.0 0 0 173.12 16.46
  L 163.10 42.57
  A 0.32 0.32 0.0 0 0 163.40 43.00
  L 166.59 43.00
  A 0.32 0.32 0.0 0 0 166.90 42.79
  L 169.59 35.26
  A 0.32 0.32 0.0 0 1 169.88 35.05
  L 180.58 34.90"
/>
<path stroke="#697080" vector-effect="non-scaling-stroke" d="
  M 245.2571 16.5069
  A 0.27 0.27 0.0 0 0 244.9867 16.2374
  L 241.9867 16.2426
  A 0.27 0.27 0.0 0 0 241.7171 16.5131
  L 241.7629 42.7131
  A 0.27 0.27 0.0 0 0 242.0333 42.9826
  L 245.0333 42.9774
  A 0.27 0.27 0.0 0 0 245.3029 42.7069
  L 245.2571 16.5069"
/>
<path stroke="#92afcc" vector-effect="non-scaling-stroke" d="
  M 110.70 31.30
  C 110.44 28.62 93.48 18.67 90.53 18.63
  Q 90.18 18.63 90.51 18.76
  Q 101.59 23.26 110.15 31.57
  Q 110.78 32.18 110.70 31.30"
/>
<path stroke="#697080" vector-effect="non-scaling-stroke" d="
  M 188.5142 88.4900
  A 13.86 12.83 89.9 0 0 201.3200 74.6076
  A 13.86 12.83 89.9 0 0 188.4658 60.7700
  A 13.86 12.83 89.9 0 0 175.6600 74.6524
  A 13.86 12.83 89.9 0 0 188.5142 88.4900"
/>
<path stroke="#697080" vector-effect="non-scaling-stroke" d="
  M 209.81 72.75
  A 0.31 0.31 0.0 0 1 209.50 72.44
  L 209.50 64.81
  A 0.31 0.31 0.0 0 1 209.81 64.50
  L 222.69 64.50
  A 0.31 0.31 0.0 0 0 223.00 64.19
  L 223.00 61.52
  A 0.31 0.31 0.0 0 0 222.69 61.21
  L 206.17 61.27
  A 0.31 0.31 0.0 0 0 205.86 61.58
  L 206.04 87.69
  A 0.31 0.31 0.0 0 0 206.35 88.00
  L 209.19 88.00
  A 0.31 0.31 0.0 0 0 209.50 87.69
  L 209.50 76.31
  A 0.31 0.31 0.0 0 1 209.81 76.00
  L 221.19 76.00
  A 0.31 0.31 0.0 0 0 221.50 75.69
  L 221.50 73.06
  A 0.31 0.31 0.0 0 0 221.19 72.75
  L 209.81 72.75"
/>
<path stroke="#697080" vector-effect="non-scaling-stroke" d="
  M 244.02 70.17
  C 240.34 63.69 252.54 60.66 255.14 68.85
  Q 255.29 69.32 255.77 69.23
  L 258.25 68.76
  Q 258.83 68.65 258.69 68.08
  C 256.02 56.84 236.77 59.74 240.08 70.23
  C 241.61 75.09 248.72 75.73 252.83 76.91
  C 256.43 77.94 257.26 81.66 254.19 83.90
  C 250.13 86.88 243.10 85.23 242.38 79.44
  A 0.60 0.60 0.0 0 0 241.68 78.93
  L 239.09 79.40
  Q 238.49 79.51 238.67 80.09
  Q 241.79 90.21 252.58 88.03
  C 260.27 86.48 262.26 75.76 254.51 73.69
  Q 248.10 71.99 244.80 70.82
  Q 244.28 70.64 244.02 70.17"
/>
<path stroke="#697080" vector-effect="non-scaling-stroke" d="
  M 272.49 61.28
  C 257.89 64.13 260.65 92.11 278.53 88.02
  Q 285.10 86.52 286.62 79.61
  Q 286.72 79.17 286.27 79.12
  L 283.54 78.77
  Q 283.13 78.72 283.02 79.12
  Q 281.39 85.17 275.71 85.30
  C 263.28 85.60 263.74 62.05 277.00 64.12
  Q 281.30 64.79 282.44 68.91
  Q 282.58 69.43 283.12 69.34
  L 285.97 68.87
  Q 286.49 68.79 286.28 68.30
  Q 282.47 59.32 272.49 61.28"
/>
<path stroke="#92afcc" vector-effect="non-scaling-stroke" d="
  M 49.29 82.81
  C 50.64 84.86 53.44 90.56 56.45 89.72
  A 0.54 0.54 0.0 0 0 56.75 88.90
  L 51.06 80.68
  A 0.69 0.69 0.0 0 1 51.10 79.83
  L 56.55 73.49
  Q 56.97 73.01 56.36 72.81
  C 53.46 71.91 49.28 78.32 47.70 80.27
  A 0.34 0.34 0.0 0 1 47.10 80.05
  L 47.31 73.42
  A 0.65 0.64 -89.1 0 0 46.67 72.75
  L 45.02 72.75
  Q 44.54 72.75 44.53 73.23
  L 44.17 89.10
  A 0.66 0.65 88.8 0 0 44.86 89.77
  L 46.58 89.69
  Q 47.24 89.65 47.24 88.99
  L 47.26 83.42
  A 1.11 1.10 -61.6 0 1 49.29 82.81"
/>
<path stroke="#92afcc" vector-effect="non-scaling-stroke" d="
  M 70.16 85.61
  Q 70.74 87.35 71.33 89.11
  A 0.86 0.84 81.4 0 0 72.10 89.69
  L 73.80 89.75
  Q 74.54 89.78 74.28 89.09
  L 68.57 73.75
  A 2.00 2.00 0.0 0 0 64.82 73.75
  L 59.19 88.78
  Q 58.99 89.31 59.48 89.57
  C 62.17 91.06 62.66 86.92 63.35 85.43
  Q 63.55 85.00 64.02 85.00
  L 69.32 85.00
  Q 69.96 85.00 70.16 85.61"
/>
<path stroke="#92afcc" vector-effect="non-scaling-stroke" d="
  M 79.64 87.22
  A 0.41 0.41 0.0 0 1 79.25 86.81
  L 79.25 73.16
  A 0.41 0.41 0.0 0 0 78.84 72.75
  L 76.91 72.75
  A 0.41 0.41 0.0 0 0 76.50 73.16
  L 76.50 89.34
  A 0.41 0.41 0.0 0 0 76.91 89.75
  L 85.84 89.75
  A 0.41 0.41 0.0 0 0 86.25 89.34
  L 86.25 87.87
  A 0.41 0.41 0.0 0 0 85.86 87.46
  L 79.64 87.22"
/>
<path stroke="#92afcc" vector-effect="non-scaling-stroke" d="
  M 91.0049 73.3596
  A 0.60 0.60 0.0 0 0 90.4091 72.7554
  L 88.9091 72.7450
  A 0.60 0.60 0.0 0 0 88.3050 73.3408
  L 88.1951 89.0804
  A 0.60 0.60 0.0 0 0 88.7909 89.6846
  L 90.2909 89.6950
  A 0.60 0.60 0.0 0 0 90.8950 89.0992
  L 91.0049 73.3596"
/>
<path stroke="#697080" vector-effect="non-scaling-stroke" d="
  M 236.00 77.04
  A 0.36 0.36 0.0 0 0 235.64 76.68
  L 226.14 76.68
  A 0.36 0.36 0.0 0 0 225.78 77.04
  L 225.78 79.64
  A 0.36 0.36 0.0 0 0 226.14 80.00
  L 235.64 80.00
  A 0.36 0.36 0.0 0 0 236.00 79.64
  L 236.00 77.04"
/>
<path stroke="#697080" vector-effect="non-scaling-stroke" d="
  M 174.97 19.92
  L 171.09 31.49
  Q 170.92 32.00 171.46 32.00
  L 178.95 32.00
  Q 179.61 32.00 179.39 31.38
  L 175.27 19.92
  A 0.16 0.16 0.0 0 0 174.97 19.92"
/>
<path stroke="#697080" vector-effect="non-scaling-stroke" d="
  M 188.5478 85.5099
  A 10.84 9.18 89.8 0 0 197.6899 74.6380
  A 10.84 9.18 89.8 0 0 188.4722 63.8301
  A 10.84 9.18 89.8 0 0 179.3301 74.7020
  A 10.84 9.18 89.8 0 0 188.5478 85.5099"
/>
<path stroke="#92afcc" vector-effect="non-scaling-stroke" d="
  M 64.40 82.23
  A 0.32 0.32 0.0 0 0 64.71 82.66
  L 68.67 82.61
  A 0.32 0.32 0.0 0 0 68.97 82.20
  L 67.04 76.22
  A 0.32 0.32 0.0 0 0 66.43 76.22
  L 64.40 82.23"
/>
</g>
<path fill="#d1e0ff" d="
  M 0.00 0.00
  L 350.00 0.00
  L 350.00 100.00
  L 0.00 100.00
  L 0.00 0.00
  Z
  M 54.54 5.67
  L 54.75 6.42
  A 0.53 0.53 0.0 0 1 54.12 7.08
  Q 42.17 4.37 29.96 4.83
  A 0.64 0.64 0.0 0 0 29.89 6.10
  C 31.82 6.41 34.57 6.35 36.13 6.50
  Q 48.84 7.68 61.66 11.32
  Q 33.67 12.11 7.28 17.13
  Q 6.67 17.25 7.26 17.45
  Q 7.87 17.65 8.51 17.56
  Q 29.55 14.56 50.74 13.55
  L 55.89 13.74
  Q 56.58 13.76 56.18 14.33
  C 55.15 15.77 48.41 14.98 45.87 15.28
  Q 43.02 15.62 37.50 15.98
  Q 25.18 16.78 11.88 19.18
  A 0.71 0.71 0.0 0 0 11.48 20.36
  C 12.00 20.92 13.45 20.44 14.06 20.35
  Q 34.64 17.43 55.43 17.18
  Q 56.01 17.18 55.91 17.74
  L 55.81 18.26
  Q 34.90 23.00 17.19 34.38
  Q 15.90 35.68 16.41 37.42
  Q 16.61 38.08 17.23 37.79
  Q 18.65 37.12 21.69 35.45
  Q 40.71 24.99 64.75 21.76
  Q 67.62 21.37 70.47 21.58
  Q 71.02 21.62 71.21 22.14
  L 73.06 27.21
  Q 69.48 30.07 67.94 34.30
  Q 62.99 41.57 64.87 48.61
  C 67.59 58.82 77.19 62.52 87.26 61.43
  Q 92.73 60.83 98.90 64.15
  L 36.26 64.27
  A 2.02 2.02 0.0 0 0 34.25 66.28
  Q 34.21 81.09 34.38 95.43
  C 34.42 99.29 41.12 98.01 43.69 97.99
  Q 44.25 97.99 44.25 97.43
  L 44.25 96.25
  Q 44.25 95.75 43.75 95.75
  L 37.25 95.75
  Q 36.75 95.75 36.75 95.25
  L 36.75 67.25
  A 0.75 0.75 0.0 0 1 37.50 66.50
  L 98.01 66.76
  Q 98.50 66.77 98.50 67.26
  L 98.50 95.25
  Q 98.50 95.75 98.00 95.75
  L 47.56 95.75
  Q 46.84 95.75 46.98 96.45
  L 47.16 97.39
  Q 47.27 97.98 47.87 97.98
  L 98.76 98.01
  A 2.23 2.22 -0.1 0 0 100.99 95.78
  L 100.99 65.76
  Q 100.94 65.46 101.19 65.26
  Q 101.60 64.94 102.04 65.20
  C 112.38 71.23 115.99 78.52 120.70 89.02
  Q 120.92 89.50 121.13 89.02
  Q 121.74 87.63 121.25 86.02
  Q 117.30 73.03 106.18 65.29
  A 2.26 2.25 17.0 0 1 105.21 63.48
  Q 105.20 63.23 106.29 63.14
  C 116.19 68.82 122.26 80.60 124.23 91.48
  Q 124.51 93.04 124.47 91.46
  C 124.19 77.84 116.14 69.01 106.55 60.75
  Q 105.86 60.16 106.75 60.33
  C 116.26 62.19 125.08 67.54 129.02 76.75
  Q 129.12 76.99 129.23 76.75
  Q 129.32 76.56 129.22 76.26
  C 123.89 60.69 104.89 55.32 90.24 55.08
  C 82.23 54.95 75.36 54.92 71.57 46.45
  Q 68.79 40.23 72.18 34.38
  Q 77.65 30.05 84.05 30.42
  C 87.50 30.61 91.62 32.73 95.46 33.64
  Q 97.57 34.13 104.75 37.62
  Q 105.21 37.85 105.32 38.35
  L 105.69 39.96
  Q 105.80 40.44 106.21 40.72
  L 114.79 46.52
  A 1.72 1.71 -79.4 0 0 117.42 44.71
  L 117.22 43.84
  L 119.88 41.93
  Q 120.49 41.49 119.77 41.27
  Q 117.36 40.57 115.47 38.86
  Q 115.09 38.51 114.89 38.02
  Q 113.74 35.14 111.77 32.70
  Q 111.48 32.34 111.01 32.38
  L 109.73 32.51
  Q 109.22 32.56 108.85 32.22
  L 105.74 29.36
  A 0.29 0.29 0.0 0 0 105.25 29.61
  L 105.31 30.01
  Q 105.40 30.63 104.87 30.29
  Q 103.21 29.20 101.76 27.83
  Q 101.39 27.48 101.03 27.84
  L 100.74 28.13
  Q 100.41 28.46 100.08 28.13
  C 98.04 26.06 91.95 24.60 89.16 23.93
  C 85.50 23.04 81.88 24.08 77.98 21.94
  C 73.43 19.44 72.61 14.07 73.49 9.35
  Q 73.59 8.82 73.10 8.61
  C 57.47 1.96 38.28 0.49 22.61 1.06
  Q -8.12 2.20 22.59 1.91
  C 31.08 1.83 43.96 3.37 54.54 5.67
  Z
  M 144.50 28.22
  L 144.50 16.79
  Q 144.50 16.15 143.86 16.18
  L 141.46 16.28
  Q 140.98 16.30 140.98 16.79
  L 141.00 42.41
  Q 141.00 43.00 141.60 43.00
  L 144.00 43.00
  Q 144.50 43.00 144.50 42.50
  Q 144.50 38.10 144.50 33.71
  Q 144.51 33.12 144.92 32.70
  L 147.71 29.91
  A 0.53 0.53 0.0 0 1 148.53 30.00
  L 156.70 42.50
  A 1.12 1.11 -16.7 0 0 157.63 43.00
  L 160.55 43.00
  A 0.48 0.48 0.0 0 0 160.95 42.25
  L 151.11 27.43
  A 0.95 0.94 50.7 0 1 151.22 26.25
  L 160.70 16.63
  Q 161.21 16.11 160.48 16.03
  C 158.36 15.80 156.81 16.01 155.20 17.66
  Q 150.00 22.99 144.85 28.36
  Q 144.50 28.73 144.50 28.22
  Z
  M 194.54 39.75
  A 0.31 0.31 0.0 0 1 194.23 39.44
  L 194.28 16.49
  A 0.31 0.31 0.0 0 0 193.96 16.18
  L 191.05 16.29
  A 0.31 0.31 0.0 0 0 190.75 16.60
  L 190.75 42.69
  A 0.31 0.31 0.0 0 0 191.06 43.00
  L 207.19 43.00
  A 0.31 0.31 0.0 0 0 207.50 42.69
  L 207.50 40.06
  A 0.31 0.31 0.0 0 0 207.19 39.75
  L 194.54 39.75
  Z
  M 215.24 16.46
  A 0.26 0.26 0.0 0 0 214.98 16.20
  L 211.76 16.20
  A 0.26 0.26 0.0 0 0 211.50 16.46
  L 211.50 42.74
  A 0.26 0.26 0.0 0 0 211.76 43.00
  L 214.98 43.00
  A 0.26 0.26 0.0 0 0 215.24 42.74
  L 215.24 16.46
  Z
  M 224.80 39.75
  A 0.31 0.31 0.0 0 1 224.49 39.44
  L 224.52 16.41
  A 0.31 0.31 0.0 0 0 224.19 16.10
  L 221.29 16.32
  A 0.31 0.31 0.0 0 0 221.00 16.63
  L 221.00 42.69
  A 0.31 0.31 0.0 0 0 221.31 43.00
  L 237.44 43.00
  A 0.31 0.31 0.0 0 0 237.75 42.69
  L 237.75 40.06
  A 0.31 0.31 0.0 0 0 237.44 39.75
  L 224.80 39.75
  Z
  M 267.78 36.61
  L 255.01 16.69
  A 0.94 0.92 -15.6 0 0 254.22 16.26
  L 251.54 16.23
  Q 251.00 16.23 251.00 16.77
  L 251.00 42.50
  Q 251.00 43.00 251.50 43.00
  L 254.00 43.00
  Q 254.50 43.00 254.50 42.50
  L 254.50 23.06
  A 0.29 0.29 0.0 0 1 255.04 22.91
  L 267.48 42.50
  Q 267.80 43.00 268.39 43.00
  L 271.12 43.00
  Q 271.75 43.00 271.75 42.38
  L 271.75 16.85
  Q 271.75 16.21 271.11 16.19
  L 268.34 16.11
  A 0.34 0.34 0.0 0 0 267.98 16.45
  L 268.04 36.53
  A 0.14 0.14 0.0 0 1 267.78 36.61
  Z
  M 294.02 16.76
  C 294.19 21.50 295.87 36.83 291.43 39.37
  C 287.81 41.44 282.47 40.31 281.32 35.77
  C 279.90 30.18 280.96 22.47 281.03 16.59
  Q 281.03 16.13 280.57 16.14
  L 277.41 16.20
  Q 276.98 16.21 276.98 16.63
  Q 277.04 25.49 277.45 34.29
  Q 277.83 42.43 285.71 43.25
  Q 297.46 44.48 297.82 33.00
  Q 298.08 24.89 297.96 16.73
  Q 297.96 16.17 297.40 16.19
  L 294.47 16.28
  Q 294.00 16.29 294.02 16.76
  Z
  M 312.20 25.89
  Q 309.25 21.24 306.11 16.75
  Q 305.81 16.34 305.30 16.30
  L 302.02 16.10
  A 0.38 0.38 0.0 0 0 301.68 16.70
  L 309.90 28.59
  A 0.92 0.91 -44.7 0 1 309.89 29.65
  L 300.71 42.30
  Q 300.20 43.00 301.07 43.00
  L 303.70 43.00
  A 1.21 1.20 -72.3 0 0 304.68 42.49
  L 312.07 32.04
  A 0.26 0.26 0.0 0 1 312.49 32.04
  L 319.52 42.51
  A 1.09 1.08 -16.4 0 0 320.43 43.00
  L 323.43 43.00
  Q 324.27 43.00 323.79 42.31
  L 314.72 29.25
  Q 314.44 28.85 314.73 28.45
  L 323.07 16.92
  Q 323.55 16.27 322.77 16.07
  Q 321.71 15.80 320.73 15.92
  C 318.59 16.18 314.10 23.92 312.88 25.89
  A 0.40 0.40 0.0 0 1 312.20 25.89
  Z
  M 180.58 34.90
  A 0.32 0.32 0.0 0 1 180.89 35.11
  L 183.74 42.79
  A 0.32 0.32 0.0 0 0 184.04 43.00
  L 187.55 43.00
  A 0.32 0.32 0.0 0 0 187.85 42.56
  L 177.22 16.45
  A 0.32 0.32 0.0 0 0 176.92 16.25
  L 173.42 16.25
  A 0.32 0.32 0.0 0 0 173.12 16.46
  L 163.10 42.57
  A 0.32 0.32 0.0 0 0 163.40 43.00
  L 166.59 43.00
  A 0.32 0.32 0.0 0 0 166.90 42.79
  L 169.59 35.26
  A 0.32 0.32 0.0 0 1 169.88 35.05
  L 180.58 34.90
  Z
  M 245.2571 16.5069
  A 0.27 0.27 0.0 0 0 244.9867 16.2374
  L 241.9867 16.2426
  A 0.27 0.27 0.0 0 0 241.7171 16.5131
  L 241.7629 42.7131
  A 0.27 0.27 0.0 0 0 242.0333 42.9826
  L 245.0333 42.9774
  A 0.27 0.27 0.0 0 0 245.3029 42.7069
  L 245.2571 16.5069
  Z
  M 110.70 31.30
  C 110.44 28.62 93.48 18.67 90.53 18.63
  Q 90.18 18.63 90.51 18.76
  Q 101.59 23.26 110.15 31.57
  Q 110.78 32.18 110.70 31.30
  Z
  M 188.5142 88.4900
  A 13.86 12.83 89.9 0 0 201.3200 74.6076
  A 13.86 12.83 89.9 0 0 188.4658 60.7700
  A 13.86 12.83 89.9 0 0 175.6600 74.6524
  A 13.86 12.83 89.9 0 0 188.5142 88.4900
  Z
  M 209.81 72.75
  A 0.31 0.31 0.0 0 1 209.50 72.44
  L 209.50 64.81
  A 0.31 0.31 0.0 0 1 209.81 64.50
  L 222.69 64.50
  A 0.31 0.31 0.0 0 0 223.00 64.19
  L 223.00 61.52
  A 0.31 0.31 0.0 0 0 222.69 61.21
  L 206.17 61.27
  A 0.31 0.31 0.0 0 0 205.86 61.58
  L 206.04 87.69
  A 0.31 0.31 0.0 0 0 206.35 88.00
  L 209.19 88.00
  A 0.31 0.31 0.0 0 0 209.50 87.69
  L 209.50 76.31
  A 0.31 0.31 0.0 0 1 209.81 76.00
  L 221.19 76.00
  A 0.31 0.31 0.0 0 0 221.50 75.69
  L 221.50 73.06
  A 0.31 0.31 0.0 0 0 221.19 72.75
  L 209.81 72.75
  Z
  M 244.02 70.17
  C 240.34 63.69 252.54 60.66 255.14 68.85
  Q 255.29 69.32 255.77 69.23
  L 258.25 68.76
  Q 258.83 68.65 258.69 68.08
  C 256.02 56.84 236.77 59.74 240.08 70.23
  C 241.61 75.09 248.72 75.73 252.83 76.91
  C 256.43 77.94 257.26 81.66 254.19 83.90
  C 250.13 86.88 243.10 85.23 242.38 79.44
  A 0.60 0.60 0.0 0 0 241.68 78.93
  L 239.09 79.40
  Q 238.49 79.51 238.67 80.09
  Q 241.79 90.21 252.58 88.03
  C 260.27 86.48 262.26 75.76 254.51 73.69
  Q 248.10 71.99 244.80 70.82
  Q 244.28 70.64 244.02 70.17
  Z
  M 272.49 61.28
  C 257.89 64.13 260.65 92.11 278.53 88.02
  Q 285.10 86.52 286.62 79.61
  Q 286.72 79.17 286.27 79.12
  L 283.54 78.77
  Q 283.13 78.72 283.02 79.12
  Q 281.39 85.17 275.71 85.30
  C 263.28 85.60 263.74 62.05 277.00 64.12
  Q 281.30 64.79 282.44 68.91
  Q 282.58 69.43 283.12 69.34
  L 285.97 68.87
  Q 286.49 68.79 286.28 68.30
  Q 282.47 59.32 272.49 61.28
  Z
  M 49.29 82.81
  C 50.64 84.86 53.44 90.56 56.45 89.72
  A 0.54 0.54 0.0 0 0 56.75 88.90
  L 51.06 80.68
  A 0.69 0.69 0.0 0 1 51.10 79.83
  L 56.55 73.49
  Q 56.97 73.01 56.36 72.81
  C 53.46 71.91 49.28 78.32 47.70 80.27
  A 0.34 0.34 0.0 0 1 47.10 80.05
  L 47.31 73.42
  A 0.65 0.64 -89.1 0 0 46.67 72.75
  L 45.02 72.75
  Q 44.54 72.75 44.53 73.23
  L 44.17 89.10
  A 0.66 0.65 88.8 0 0 44.86 89.77
  L 46.58 89.69
  Q 47.24 89.65 47.24 88.99
  L 47.26 83.42
  A 1.11 1.10 -61.6 0 1 49.29 82.81
  Z
  M 70.16 85.61
  Q 70.74 87.35 71.33 89.11
  A 0.86 0.84 81.4 0 0 72.10 89.69
  L 73.80 89.75
  Q 74.54 89.78 74.28 89.09
  L 68.57 73.75
  A 2.00 2.00 0.0 0 0 64.82 73.75
  L 59.19 88.78
  Q 58.99 89.31 59.48 89.57
  C 62.17 91.06 62.66 86.92 63.35 85.43
  Q 63.55 85.00 64.02 85.00
  L 69.32 85.00
  Q 69.96 85.00 70.16 85.61
  Z
  M 79.64 87.22
  A 0.41 0.41 0.0 0 1 79.25 86.81
  L 79.25 73.16
  A 0.41 0.41 0.0 0 0 78.84 72.75
  L 76.91 72.75
  A 0.41 0.41 0.0 0 0 76.50 73.16
  L 76.50 89.34
  A 0.41 0.41 0.0 0 0 76.91 89.75
  L 85.84 89.75
  A 0.41 0.41 0.0 0 0 86.25 89.34
  L 86.25 87.87
  A 0.41 0.41 0.0 0 0 85.86 87.46
  L 79.64 87.22
  Z
  M 91.0049 73.3596
  A 0.60 0.60 0.0 0 0 90.4091 72.7554
  L 88.9091 72.7450
  A 0.60 0.60 0.0 0 0 88.3050 73.3408
  L 88.1951 89.0804
  A 0.60 0.60 0.0 0 0 88.7909 89.6846
  L 90.2909 89.6950
  A 0.60 0.60 0.0 0 0 90.8950 89.0992
  L 91.0049 73.3596
  Z
  M 236.00 77.04
  A 0.36 0.36 0.0 0 0 235.64 76.68
  L 226.14 76.68
  A 0.36 0.36 0.0 0 0 225.78 77.04
  L 225.78 79.64
  A 0.36 0.36 0.0 0 0 226.14 80.00
  L 235.64 80.00
  A 0.36 0.36 0.0 0 0 236.00 79.64
  L 236.00 77.04
  Z"
/>
<path fill="#537e98" d="
  M 117.22 43.84
  Q 114.46 40.92 108.56 37.95
  Q 107.15 37.25 107.31 35.04
  Q 107.35 34.52 106.87 34.29
  C 97.74 29.92 78.45 20.21 72.18 34.38
  Q 68.79 40.23 71.57 46.45
  C 75.36 54.92 82.23 54.95 90.24 55.08
  C 104.89 55.32 123.89 60.69 129.22 76.26
  Q 129.32 76.56 129.23 76.75
  Q 129.12 76.99 129.02 76.75
  C 125.08 67.54 116.26 62.19 106.75 60.33
  Q 105.86 60.16 106.55 60.75
  C 116.14 69.01 124.19 77.84 124.47 91.46
  Q 124.51 93.04 124.23 91.48
  C 122.26 80.60 116.19 68.82 106.29 63.14
  C 98.97 58.41 92.45 58.78 84.66 58.31
  C 70.90 57.48 63.89 48.57 67.94 34.30
  Q 69.48 30.07 73.06 27.21
  L 75.63 25.48
  Q 76.00 25.23 75.85 24.80
  L 71.00 11.28
  A 1.91 1.91 0.0 0 0 69.91 10.15
  Q 62.72 7.28 54.54 5.67
  C 43.96 3.37 31.08 1.83 22.59 1.91
  Q -8.12 2.20 22.61 1.06
  C 38.28 0.49 57.47 1.96 73.10 8.61
  Q 73.59 8.82 73.49 9.35
  C 72.61 14.07 73.43 19.44 77.98 21.94
  C 81.88 24.08 85.50 23.04 89.16 23.93
  C 91.95 24.60 98.04 26.06 100.08 28.13
  Q 100.41 28.46 100.74 28.13
  L 101.03 27.84
  Q 101.39 27.48 101.76 27.83
  Q 103.21 29.20 104.87 30.29
  Q 105.40 30.63 105.31 30.01
  L 105.25 29.61
  A 0.29 0.29 0.0 0 1 105.74 29.36
  L 108.85 32.22
  Q 109.22 32.56 109.73 32.51
  L 111.01 32.38
  Q 111.48 32.34 111.77 32.70
  Q 113.74 35.14 114.89 38.02
  Q 115.09 38.51 115.47 38.86
  Q 117.36 40.57 119.77 41.27
  Q 120.49 41.49 119.88 41.93
  L 117.22 43.84
  Z"
/>
<path fill="#bed3e6" d="
  M 54.54 5.67
  Q 62.72 7.28 69.91 10.15
  A 1.91 1.91 0.0 0 1 71.00 11.28
  L 75.85 24.80
  Q 76.00 25.23 75.63 25.48
  L 73.06 27.21
  L 71.21 22.14
  Q 71.02 21.62 70.47 21.58
  Q 67.62 21.37 64.75 21.76
  Q 40.71 24.99 21.69 35.45
  Q 18.65 37.12 17.23 37.79
  Q 16.61 38.08 16.41 37.42
  Q 15.90 35.68 17.19 34.38
  Q 23.44 31.68 29.63 28.89
  C 43.44 22.65 56.35 19.06 71.77 17.86
  A 0.11 0.10 -82.8 0 0 71.87 17.78
  C 72.43 15.92 71.24 15.38 69.62 15.57
  Q 62.54 16.38 55.81 18.26
  L 55.91 17.74
  Q 56.01 17.18 55.43 17.18
  Q 34.64 17.43 14.06 20.35
  C 13.45 20.44 12.00 20.92 11.48 20.36
  A 0.71 0.71 0.0 0 1 11.88 19.18
  Q 25.18 16.78 37.50 15.98
  Q 43.02 15.62 45.87 15.28
  C 48.41 14.98 55.15 15.77 56.18 14.33
  Q 56.58 13.76 55.89 13.74
  L 50.74 13.55
  L 70.79 14.01
  Q 71.55 14.03 71.29 13.32
  L 70.83 12.09
  A 0.83 0.82 -8.9 0 0 70.08 11.55
  L 61.66 11.32
  Q 48.84 7.68 36.13 6.50
  C 34.57 6.35 31.82 6.41 29.89 6.10
  A 0.64 0.64 0.0 0 1 29.96 4.83
  Q 42.17 4.37 54.12 7.08
  A 0.53 0.53 0.0 0 0 54.75 6.42
  L 54.54 5.67
  Z"
/>
<path fill="#537e98" d="
  M 61.66 11.32
  L 70.08 11.55
  A 0.83 0.82 -8.9 0 1 70.83 12.09
  L 71.29 13.32
  Q 71.55 14.03 70.79 14.01
  L 50.74 13.55
  Q 29.55 14.56 8.51 17.56
  Q 7.87 17.65 7.26 17.45
  Q 6.67 17.25 7.28 17.13
  Q 33.67 12.11 61.66 11.32
  Z"
/>
<path fill="#537e98" d="
  M 17.19 34.38
  Q 34.90 23.00 55.81 18.26
  Q 62.54 16.38 69.62 15.57
  C 71.24 15.38 72.43 15.92 71.87 17.78
  A 0.11 0.10 -82.8 0 1 71.77 17.86
  C 56.35 19.06 43.44 22.65 29.63 28.89
  Q 23.44 31.68 17.19 34.38
  Z"
/>
<path fill="#000000" d="
  M 144.85 28.36
  Q 150.00 22.99 155.20 17.66
  C 156.81 16.01 158.36 15.80 160.48 16.03
  Q 161.21 16.11 160.70 16.63
  L 151.22 26.25
  A 0.95 0.94 50.7 0 0 151.11 27.43
  L 160.95 42.25
  A 0.48 0.48 0.0 0 1 160.55 43.00
  L 157.63 43.00
  A 1.12 1.11 -16.7 0 1 156.70 42.50
  L 148.53 30.00
  A 0.53 0.53 0.0 0 0 147.71 29.91
  L 144.92 32.70
  Q 144.51 33.12 144.50 33.71
  Q 144.50 38.10 144.50 42.50
  Q 144.50 43.00 144.00 43.00
  L 141.60 43.00
  Q 141.00 43.00 141.00 42.41
  L 140.98 16.79
  Q 140.98 16.30 141.46 16.28
  L 143.86 16.18
  Q 144.50 16.15 144.50 16.79
  L 144.50 28.22
  Q 144.50 28.73 144.85 28.36
  Z"
/>
<path fill="#000000" d="
  M 194.54 39.75
  L 207.19 39.75
  A 0.31 0.31 0.0 0 1 207.50 40.06
  L 207.50 42.69
  A 0.31 0.31 0.0 0 1 207.19 43.00
  L 191.06 43.00
  A 0.31 0.31 0.0 0 1 190.75 42.69
  L 190.75 16.60
  A 0.31 0.31 0.0 0 1 191.05 16.29
  L 193.96 16.18
  A 0.31 0.31 0.0 0 1 194.28 16.49
  L 194.23 39.44
  A 0.31 0.31 0.0 0 0 194.54 39.75
  Z"
/>
<rect fill="#000000" x="211.50" y="16.20" width="3.74" height="26.80" rx="0.26"/>
<path fill="#000000" d="
  M 224.80 39.75
  L 237.44 39.75
  A 0.31 0.31 0.0 0 1 237.75 40.06
  L 237.75 42.69
  A 0.31 0.31 0.0 0 1 237.44 43.00
  L 221.31 43.00
  A 0.31 0.31 0.0 0 1 221.00 42.69
  L 221.00 16.63
  A 0.31 0.31 0.0 0 1 221.29 16.32
  L 224.19 16.10
  A 0.31 0.31 0.0 0 1 224.52 16.41
  L 224.49 39.44
  A 0.31 0.31 0.0 0 0 224.80 39.75
  Z"
/>
<path fill="#000000" d="
  M 268.04 36.53
  L 267.98 16.45
  A 0.34 0.34 0.0 0 1 268.34 16.11
  L 271.11 16.19
  Q 271.75 16.21 271.75 16.85
  L 271.75 42.38
  Q 271.75 43.00 271.12 43.00
  L 268.39 43.00
  Q 267.80 43.00 267.48 42.50
  L 255.04 22.91
  A 0.29 0.29 0.0 0 0 254.50 23.06
  L 254.50 42.50
  Q 254.50 43.00 254.00 43.00
  L 251.50 43.00
  Q 251.00 43.00 251.00 42.50
  L 251.00 16.77
  Q 251.00 16.23 251.54 16.23
  L 254.22 16.26
  A 0.94 0.92 -15.6 0 1 255.01 16.69
  L 267.78 36.61
  A 0.14 0.14 0.0 0 0 268.04 36.53
  Z"
/>
<path fill="#000000" d="
  M 291.43 39.37
  C 295.87 36.83 294.19 21.50 294.02 16.76
  Q 294.00 16.29 294.47 16.28
  L 297.40 16.19
  Q 297.96 16.17 297.96 16.73
  Q 298.08 24.89 297.82 33.00
  Q 297.46 44.48 285.71 43.25
  Q 277.83 42.43 277.45 34.29
  Q 277.04 25.49 276.98 16.63
  Q 276.98 16.21 277.41 16.20
  L 280.57 16.14
  Q 281.03 16.13 281.03 16.59
  C 280.96 22.47 279.90 30.18 281.32 35.77
  C 282.47 40.31 287.81 41.44 291.43 39.37
  Z"
/>
<path fill="#000000" d="
  M 312.88 25.89
  C 314.10 23.92 318.59 16.18 320.73 15.92
  Q 321.71 15.80 322.77 16.07
  Q 323.55 16.27 323.07 16.92
  L 314.73 28.45
  Q 314.44 28.85 314.72 29.25
  L 323.79 42.31
  Q 324.27 43.00 323.43 43.00
  L 320.43 43.00
  A 1.09 1.08 -16.4 0 1 319.52 42.51
  L 312.49 32.04
  A 0.26 0.26 0.0 0 0 312.07 32.04
  L 304.68 42.49
  A 1.21 1.20 -72.3 0 1 303.70 43.00
  L 301.07 43.00
  Q 300.20 43.00 300.71 42.30
  L 309.89 29.65
  A 0.92 0.91 -44.7 0 0 309.90 28.59
  L 301.68 16.70
  A 0.38 0.38 0.0 0 1 302.02 16.10
  L 305.30 16.30
  Q 305.81 16.34 306.11 16.75
  Q 309.25 21.24 312.20 25.89
  A 0.40 0.40 0.0 0 0 312.88 25.89
  Z"
/>
<path fill="#000000" d="
  M 180.58 34.90
  L 169.88 35.05
  A 0.32 0.32 0.0 0 0 169.59 35.26
  L 166.90 42.79
  A 0.32 0.32 0.0 0 1 166.59 43.00
  L 163.40 43.00
  A 0.32 0.32 0.0 0 1 163.10 42.57
  L 173.12 16.46
  A 0.32 0.32 0.0 0 1 173.42 16.25
  L 176.92 16.25
  A 0.32 0.32 0.0 0 1 177.22 16.45
  L 187.85 42.56
  A 0.32 0.32 0.0 0 1 187.55 43.00
  L 184.04 43.00
  A 0.32 0.32 0.0 0 1 183.74 42.79
  L 180.89 35.11
  A 0.32 0.32 0.0 0 0 180.58 34.90
  Z
  M 174.97 19.92
  L 171.09 31.49
  Q 170.92 32.00 171.46 32.00
  L 178.95 32.00
  Q 179.61 32.00 179.39 31.38
  L 175.27 19.92
  A 0.16 0.16 0.0 0 0 174.97 19.92
  Z"
/>
<rect fill="#000000" x="-1.77" y="-13.37" transform="translate(243.51,29.61) rotate(-0.1)" width="3.54" height="26.74" rx="0.27"/>
<path fill="#537e98" d="
  M 90.53 18.63
  C 93.48 18.67 110.44 28.62 110.70 31.30
  Q 110.78 32.18 110.15 31.57
  Q 101.59 23.26 90.51 18.76
  Q 90.18 18.63 90.53 18.63
  Z"
/>
<path fill="#d1e0ff" d="
  M 174.97 19.92
  A 0.16 0.16 0.0 0 1 175.27 19.92
  L 179.39 31.38
  Q 179.61 32.00 178.95 32.00
  L 171.46 32.00
  Q 170.92 32.00 171.09 31.49
  L 174.97 19.92
  Z"
/>
<path fill="#bed3e6" d="
  M 117.22 43.84
  L 117.42 44.71
  A 1.72 1.71 -79.4 0 1 114.79 46.52
  L 106.21 40.72
  Q 105.80 40.44 105.69 39.96
  L 105.32 38.35
  Q 105.21 37.85 104.75 37.62
  Q 97.57 34.13 95.46 33.64
  C 91.62 32.73 87.50 30.61 84.05 30.42
  Q 77.65 30.05 72.18 34.38
  C 78.45 20.21 97.74 29.92 106.87 34.29
  Q 107.35 34.52 107.31 35.04
  Q 107.15 37.25 108.56 37.95
  Q 114.46 40.92 117.22 43.84
  Z"
/>
<path fill="#bed3e6" d="
  M 67.94 34.30
  C 63.89 48.57 70.90 57.48 84.66 58.31
  C 92.45 58.78 98.97 58.41 106.29 63.14
  Q 105.20 63.23 105.21 63.48
  A 2.26 2.25 17.0 0 0 106.18 65.29
  Q 117.30 73.03 121.25 86.02
  Q 121.74 87.63 121.13 89.02
  Q 120.92 89.50 120.70 89.02
  C 115.99 78.52 112.38 71.23 102.04 65.20
  Q 101.60 64.94 101.19 65.26
  Q 100.94 65.46 100.99 65.76
  Q 99.95 64.30 98.90 64.15
  Q 92.73 60.83 87.26 61.43
  C 77.19 62.52 67.59 58.82 64.87 48.61
  Q 62.99 41.57 67.94 34.30
  Z"
/>
<path fill="#000000" d="
  M 188.5142 88.4900
  A 13.86 12.83 89.9 0 1 175.6600 74.6524
  A 13.86 12.83 89.9 0 1 188.4658 60.7700
  A 13.86 12.83 89.9 0 1 201.3200 74.6076
  A 13.86 12.83 89.9 0 1 188.5142 88.4900
  Z
  M 188.5478 85.5099
  A 10.84 9.18 89.8 0 0 197.6899 74.6380
  A 10.84 9.18 89.8 0 0 188.4722 63.8301
  A 10.84 9.18 89.8 0 0 179.3301 74.7020
  A 10.84 9.18 89.8 0 0 188.5478 85.5099
  Z"
/>
<path fill="#000000" d="
  M 209.81 72.75
  L 221.19 72.75
  A 0.31 0.31 0.0 0 1 221.50 73.06
  L 221.50 75.69
  A 0.31 0.31 0.0 0 1 221.19 76.00
  L 209.81 76.00
  A 0.31 0.31 0.0 0 0 209.50 76.31
  L 209.50 87.69
  A 0.31 0.31 0.0 0 1 209.19 88.00
  L 206.35 88.00
  A 0.31 0.31 0.0 0 1 206.04 87.69
  L 205.86 61.58
  A 0.31 0.31 0.0 0 1 206.17 61.27
  L 222.69 61.21
  A 0.31 0.31 0.0 0 1 223.00 61.52
  L 223.00 64.19
  A 0.31 0.31 0.0 0 1 222.69 64.50
  L 209.81 64.50
  A 0.31 0.31 0.0 0 0 209.50 64.81
  L 209.50 72.44
  A 0.31 0.31 0.0 0 0 209.81 72.75
  Z"
/>
<path fill="#000000" d="
  M 244.80 70.82
  Q 248.10 71.99 254.51 73.69
  C 262.26 75.76 260.27 86.48 252.58 88.03
  Q 241.79 90.21 238.67 80.09
  Q 238.49 79.51 239.09 79.40
  L 241.68 78.93
  A 0.60 0.60 0.0 0 1 242.38 79.44
  C 243.10 85.23 250.13 86.88 254.19 83.90
  C 257.26 81.66 256.43 77.94 252.83 76.91
  C 248.72 75.73 241.61 75.09 240.08 70.23
  C 236.77 59.74 256.02 56.84 258.69 68.08
  Q 258.83 68.65 258.25 68.76
  L 255.77 69.23
  Q 255.29 69.32 255.14 68.85
  C 252.54 60.66 240.34 63.69 244.02 70.17
  Q 244.28 70.64 244.80 70.82
  Z"
/>
<path fill="#000000" d="
  M 278.53 88.02
  C 260.65 92.11 257.89 64.13 272.49 61.28
  Q 282.47 59.32 286.28 68.30
  Q 286.49 68.79 285.97 68.87
  L 283.12 69.34
  Q 282.58 69.43 282.44 68.91
  Q 281.30 64.79 277.00 64.12
  C 263.74 62.05 263.28 85.60 275.71 85.30
  Q 281.39 85.17 283.02 79.12
  Q 283.13 78.72 283.54 78.77
  L 286.27 79.12
  Q 286.72 79.17 286.62 79.61
  Q 285.10 86.52 278.53 88.02
  Z"
/>
<path fill="#537e98" d="
  M 98.90 64.15
  Q 99.95 64.30 100.99 65.76
  L 100.99 95.78
  A 2.23 2.22 -0.1 0 1 98.76 98.01
  L 47.87 97.98
  Q 47.27 97.98 47.16 97.39
  L 46.98 96.45
  Q 46.84 95.75 47.56 95.75
  L 98.00 95.75
  Q 98.50 95.75 98.50 95.25
  L 98.50 67.26
  Q 98.50 66.77 98.01 66.76
  L 37.50 66.50
  A 0.75 0.75 0.0 0 0 36.75 67.25
  L 36.75 95.25
  Q 36.75 95.75 37.25 95.75
  L 43.75 95.75
  Q 44.25 95.75 44.25 96.25
  L 44.25 97.43
  Q 44.25 97.99 43.69 97.99
  C 41.12 98.01 34.42 99.29 34.38 95.43
  Q 34.21 81.09 34.25 66.28
  A 2.02 2.02 0.0 0 1 36.26 64.27
  L 98.90 64.15
  Z"
/>
<ellipse fill="#d1e0ff" cx="0.00" cy="0.00" transform="translate(188.51,74.67) rotate(89.8)" rx="10.84" ry="9.18"/>
<path fill="#537e98" d="
  M 49.29 82.81
  A 1.11 1.10 -61.6 0 0 47.26 83.42
  L 47.24 88.99
  Q 47.24 89.65 46.58 89.69
  L 44.86 89.77
  A 0.66 0.65 88.8 0 1 44.17 89.10
  L 44.53 73.23
  Q 44.54 72.75 45.02 72.75
  L 46.67 72.75
  A 0.65 0.64 -89.1 0 1 47.31 73.42
  L 47.10 80.05
  A 0.34 0.34 0.0 0 0 47.70 80.27
  C 49.28 78.32 53.46 71.91 56.36 72.81
  Q 56.97 73.01 56.55 73.49
  L 51.10 79.83
  A 0.69 0.69 0.0 0 0 51.06 80.68
  L 56.75 88.90
  A 0.54 0.54 0.0 0 1 56.45 89.72
  C 53.44 90.56 50.64 84.86 49.29 82.81
  Z"
/>
<path fill="#537e98" d="
  M 69.32 85.00
  L 64.02 85.00
  Q 63.55 85.00 63.35 85.43
  C 62.66 86.92 62.17 91.06 59.48 89.57
  Q 58.99 89.31 59.19 88.78
  L 64.82 73.75
  A 2.00 2.00 0.0 0 1 68.57 73.75
  L 74.28 89.09
  Q 74.54 89.78 73.80 89.75
  L 72.10 89.69
  A 0.86 0.84 81.4 0 1 71.33 89.11
  Q 70.74 87.35 70.16 85.61
  Q 69.96 85.00 69.32 85.00
  Z
  M 64.40 82.23
  A 0.32 0.32 0.0 0 0 64.71 82.66
  L 68.67 82.61
  A 0.32 0.32 0.0 0 0 68.97 82.20
  L 67.04 76.22
  A 0.32 0.32 0.0 0 0 66.43 76.22
  L 64.40 82.23
  Z"
/>
<path fill="#537e98" d="
  M 79.64 87.22
  L 85.86 87.46
  A 0.41 0.41 0.0 0 1 86.25 87.87
  L 86.25 89.34
  A 0.41 0.41 0.0 0 1 85.84 89.75
  L 76.91 89.75
  A 0.41 0.41 0.0 0 1 76.50 89.34
  L 76.50 73.16
  A 0.41 0.41 0.0 0 1 76.91 72.75
  L 78.84 72.75
  A 0.41 0.41 0.0 0 1 79.25 73.16
  L 79.25 86.81
  A 0.41 0.41 0.0 0 0 79.64 87.22
  Z"
/>
<rect fill="#537e98" x="-1.35" y="-8.47" transform="translate(89.60,81.22) rotate(0.4)" width="2.70" height="16.94" rx="0.60"/>
<path fill="#d1e0ff" d="
  M 64.40 82.23
  L 66.43 76.22
  A 0.32 0.32 0.0 0 1 67.04 76.22
  L 68.97 82.20
  A 0.32 0.32 0.0 0 1 68.67 82.61
  L 64.71 82.66
  A 0.32 0.32 0.0 0 1 64.40 82.23
  Z"
/>
<rect fill="#000000" x="225.78" y="76.68" width="10.22" height="3.32" rx="0.36"/>
</svg>
