<?xml version="1.0" encoding="UTF-8" standalone="no"?>
<!DOCTYPE svg PUBLIC "-//W3C//DTD SVG 1.1//EN" "http://www.w3.org/Graphics/SVG/1.1/DTD/svg11.dtd">
<svg xmlns="http://www.w3.org/2000/svg" version="1.1" viewBox="0.00 0.00 350.00 100.00">
<g stroke-width="2.00" fill="none" stroke-linecap="butt">
<path stroke="#5e162b" vector-effect="non-scaling-stroke" d="
  M 29.30 28.52
  A 0.47 0.47 0.0 0 1 29.41 29.38
  Q 21.13 33.90 21.68 43.44
  Q 21.71 43.95 21.40 44.35
  C 19.74 46.49 17.43 48.04 16.21 50.19
  C 12.77 56.23 13.35 61.92 17.10 67.69
  C 21.56 74.57 19.51 81.62 27.33 86.92
  C 31.47 89.73 37.98 93.25 43.27 96.72
  C 49.64 100.90 56.62 100.58 62.87 96.21
  C 67.25 93.14 71.24 91.28 76.91 87.86
  C 86.61 82.00 83.97 74.74 89.10 66.73
  C 93.72 59.52 91.77 49.87 84.65 45.06
  Q 84.24 44.79 84.26 44.30
  Q 84.65 34.27 76.32 29.13
  Q 75.88 28.85 76.32 28.57
  Q 87.58 21.11 88.05 7.53
  C 88.27 1.05 70.65 0.53 66.92 0.89
  Q 57.28 1.83 53.05 10.70
  Q 52.72 11.39 52.41 10.70
  C 51.25 8.12 50.44 5.89 47.99 4.34
  C 39.66 -0.95 30.34 0.27 21.18 3.45
  Q 19.24 4.12 17.99 5.05
  Q 17.56 5.38 17.55 5.92
  Q 17.39 19.88 28.44 28.02
  Q 29.03 28.45 29.30 28.52"
/>
<path stroke="#5e162b" vector-effect="non-scaling-stroke" d="
  M 166.34 20.76
  C 169.00 16.36 177.07 16.99 177.92 22.81
  Q 178.00 23.37 178.56 23.26
  L 181.18 22.78
  Q 181.78 22.67 181.63 22.07
  C 178.67 10.54 159.48 14.01 163.11 24.45
  C 165.50 31.30 178.90 28.45 179.00 34.73
  Q 179.04 37.54 176.08 38.57
  Q 167.60 41.53 165.14 33.41
  Q 164.98 32.88 164.44 32.97
  L 162.03 33.36
  Q 161.41 33.46 161.59 34.05
  Q 164.73 44.27 175.60 42.03
  C 183.05 40.50 185.47 30.29 177.41 27.86
  C 173.91 26.80 166.63 25.97 166.15 21.65
  A 1.48 1.44 57.8 0 1 166.34 20.76"
/>
<path stroke="#5e162b" vector-effect="non-scaling-stroke" d="
  M 238.00 30.31
  A 0.31 0.31 0.0 0 1 238.31 30.00
  L 249.99 30.00
  A 0.31 0.31 0.0 0 0 250.30 29.71
  L 250.44 26.83
  A 0.31 0.31 0.0 0 0 250.13 26.50
  L 238.31 26.50
  A 0.31 0.31 0.0 0 1 238.00 26.19
  L 238.00 18.80
  A 0.31 0.31 0.0 0 1 238.31 18.49
  L 251.08 18.50
  A 0.31 0.31 0.0 0 0 251.39 18.18
  L 251.32 15.54
  A 0.31 0.31 0.0 0 0 251.01 15.24
  L 234.80 15.22
  A 0.31 0.31 0.0 0 0 234.49 15.53
  L 234.50 41.69
  A 0.31 0.31 0.0 0 0 234.81 42.00
  L 251.69 42.00
  A 0.31 0.31 0.0 0 0 252.00 41.69
  L 252.00 39.06
  A 0.31 0.31 0.0 0 0 251.69 38.75
  L 238.31 38.75
  A 0.31 0.31 0.0 0 1 238.00 38.44
  L 238.00 30.31"
/>
<path stroke="#5e162b" vector-effect="non-scaling-stroke" d="
  M 126.83 29.52
  Q 131.07 27.95 131.76 24.30
  C 133.75 13.74 119.49 14.95 113.51 15.33
  Q 112.95 15.37 112.95 15.93
  L 113.02 41.41
  Q 113.02 42.00 113.60 42.00
  L 116.00 42.00
  Q 116.50 42.00 116.50 41.50
  L 116.50 30.99
  A 0.51 0.51 0.0 0 1 117.02 30.48
  Q 119.73 30.55 122.41 31.04
  Q 122.94 31.14 123.30 31.55
  Q 127.22 35.95 129.05 41.64
  Q 129.17 42.00 129.55 42.00
  L 132.74 42.00
  Q 133.49 42.00 133.17 41.32
  Q 130.42 35.41 126.66 30.06
  A 0.36 0.36 0.0 0 1 126.83 29.52"
/>
<path stroke="#5e162b" vector-effect="non-scaling-stroke" d="
  M 153.12 34.00
  A 0.33 0.33 0.0 0 1 153.43 34.21
  L 156.25 41.79
  A 0.33 0.33 0.0 0 0 156.56 42.00
  L 160.02 42.00
  A 0.33 0.33 0.0 0 0 160.32 41.55
  L 149.68 15.46
  A 0.33 0.33 0.0 0 0 149.38 15.25
  L 145.91 15.25
  A 0.33 0.33 0.0 0 0 145.60 15.46
  L 135.59 41.55
  A 0.33 0.33 0.0 0 0 135.90 42.00
  L 139.10 42.00
  A 0.33 0.33 0.0 0 0 139.41 41.78
  L 142.15 34.22
  A 0.33 0.33 0.0 0 1 142.46 34.00
  L 153.12 34.00"
/>
<path stroke="#5e162b" vector-effect="non-scaling-stroke" d="
  M 199.31 15.70
  Q 193.43 14.97 187.61 15.31
  Q 187.23 15.34 187.23 15.72
  L 187.24 41.37
  Q 187.24 42.00 187.87 42.00
  L 190.25 42.00
  Q 190.75 42.00 190.75 41.50
  L 190.85 32.05
  Q 190.86 31.45 191.46 31.44
  C 194.93 31.36 199.25 31.74 202.11 30.18
  C 208.71 26.59 207.27 16.69 199.31 15.70"
/>
<path stroke="#5e162b" vector-effect="non-scaling-stroke" d="
  M 225.68 27.33
  C 229.01 24.84 229.70 20.24 226.52 17.32
  C 223.54 14.60 215.43 15.06 210.40 15.37
  Q 210.00 15.39 210.00 15.79
  L 210.00 41.48
  Q 210.00 41.94 210.46 41.95
  Q 217.51 42.14 221.94 41.91
  C 229.71 41.49 233.32 32.11 225.73 28.00
  Q 225.18 27.70 225.68 27.33"
/>
<path stroke="#5e162b" vector-effect="non-scaling-stroke" d="
  M 260.62 30.80
  C 268.00 28.88 270.41 35.35 272.92 41.44
  A 0.90 0.89 78.7 0 0 273.75 42.00
  L 276.74 42.00
  Q 277.28 42.00 277.06 41.50
  Q 274.37 35.49 270.54 30.13
  Q 270.20 29.65 270.76 29.46
  C 276.04 27.60 277.58 20.66 273.56 17.42
  C 270.02 14.56 261.78 15.07 257.19 15.32
  Q 256.75 15.34 256.75 15.78
  L 256.75 41.50
  Q 256.75 42.00 257.25 42.00
  L 259.65 42.00
  A 0.64 0.64 0.0 0 0 260.29 41.35
  L 260.23 31.31
  Q 260.23 30.91 260.62 30.80"
/>
<path stroke="#5e162b" vector-effect="non-scaling-stroke" d="
  M 284.98 30.47
  C 292.61 29.39 294.38 35.52 297.18 41.49
  Q 297.42 42.00 297.99 42.00
  L 300.72 42.00
  Q 301.29 42.00 301.08 41.47
  Q 298.64 35.32 294.62 30.08
  Q 294.28 29.64 294.81 29.49
  Q 299.03 28.25 299.71 24.26
  C 301.48 13.95 288.49 14.84 281.29 15.42
  Q 280.75 15.46 280.75 16.01
  L 280.75 41.37
  Q 280.75 42.00 281.38 42.00
  L 283.88 42.00
  Q 284.50 42.00 284.50 41.37
  L 284.50 31.01
  Q 284.50 30.53 284.98 30.47"
/>
<path stroke="#5e162b" vector-effect="non-scaling-stroke" d="
  M 313.59 27.25
  A 0.31 0.31 0.0 0 1 313.06 27.25
  L 305.78 15.40
  A 0.31 0.31 0.0 0 0 305.52 15.25
  L 301.95 15.25
  A 0.31 0.31 0.0 0 0 301.69 15.73
  L 311.48 30.87
  A 0.31 0.31 0.0 0 1 311.53 31.04
  L 311.43 41.69
  A 0.31 0.31 0.0 0 0 311.74 42.00
  L 314.49 42.00
  A 0.31 0.31 0.0 0 0 314.80 41.69
  L 314.73 30.97
  A 0.31 0.31 0.0 0 1 314.78 30.79
  L 324.91 15.73
  A 0.31 0.31 0.0 0 0 324.65 15.25
  L 321.23 15.25
  A 0.31 0.31 0.0 0 0 320.97 15.40
  L 313.59 27.25"
/>
<path stroke="#5e162b" vector-effect="non-scaling-stroke" d="
  M 183.84 83.75
  A 0.31 0.31 0.0 0 1 183.53 83.44
  L 183.45 75.31
  A 0.31 0.31 0.0 0 1 183.76 75.00
  L 195.44 75.00
  A 0.31 0.31 0.0 0 0 195.75 74.69
  L 195.75 71.80
  A 0.31 0.31 0.0 0 0 195.44 71.49
  L 183.84 71.50
  A 0.31 0.31 0.0 0 1 183.53 71.19
  L 183.44 63.81
  A 0.31 0.31 0.0 0 1 183.75 63.50
  L 196.42 63.50
  A 0.31 0.31 0.0 0 0 196.73 63.19
  L 196.78 60.58
  A 0.31 0.31 0.0 0 0 196.47 60.27
  L 180.06 60.21
  A 0.31 0.31 0.0 0 0 179.75 60.52
  L 179.75 86.69
  A 0.31 0.31 0.0 0 0 180.06 87.00
  L 196.94 87.00
  A 0.31 0.31 0.0 0 0 197.25 86.69
  L 197.25 84.06
  A 0.31 0.31 0.0 0 0 196.94 83.75
  L 183.84 83.75"
/>
<path stroke="#5e162b" vector-effect="non-scaling-stroke" d="
  M 217.85 72.43
  C 222.08 68.34 221.36 61.74 215.13 60.80
  Q 208.84 59.84 202.41 60.35
  A 0.44 0.44 0.0 0 0 202.00 60.79
  L 202.00 86.48
  Q 202.00 86.94 202.46 86.95
  C 209.04 87.11 220.21 88.74 221.73 80.64
  Q 222.64 75.79 217.93 73.09
  Q 217.45 72.81 217.85 72.43"
/>
<path stroke="#5e162b" vector-effect="non-scaling-stroke" d="
  M 230.25 60.54
  A 0.38 0.38 0.0 0 0 229.87 60.16
  L 226.89 60.16
  A 0.38 0.38 0.0 0 0 226.51 60.54
  L 226.51 86.62
  A 0.38 0.38 0.0 0 0 226.89 87.00
  L 229.87 87.00
  A 0.38 0.38 0.0 0 0 230.25 86.62
  L 230.25 60.54"
/>
<path stroke="#5e162b" vector-effect="non-scaling-stroke" d="
  M 153.98 60.43
  L 153.88 86.75
  A 0.24 0.24 0.0 0 0 154.12 86.99
  L 163.41 87.03
  A 11.95 11.75 -89.8 0 0 175.20 75.12
  L 175.21 72.22
  A 11.95 11.75 -89.8 0 0 163.51 60.23
  L 154.22 60.19
  A 0.24 0.24 0.0 0 0 153.98 60.43"
/>
<path stroke="#5e162b" vector-effect="non-scaling-stroke" d="
  M 250.58 78.92
  A 0.32 0.32 0.0 0 1 250.88 79.13
  L 253.82 86.79
  A 0.32 0.32 0.0 0 0 254.12 87.00
  L 257.60 87.00
  A 0.32 0.32 0.0 0 0 257.90 86.56
  L 247.23 60.45
  A 0.32 0.32 0.0 0 0 246.94 60.25
  L 243.45 60.25
  A 0.32 0.32 0.0 0 0 243.15 60.46
  L 233.13 86.53
  A 0.32 0.32 0.0 0 0 233.42 86.97
  L 236.56 87.08
  A 0.32 0.32 0.0 0 0 236.87 86.87
  L 239.66 79.25
  A 0.32 0.32 0.0 0 1 239.96 79.04
  L 250.58 78.92"
/>
<path stroke="#5e162b" vector-effect="non-scaling-stroke" d="
  M 278.00 80.31
  A 0.32 0.32 0.0 0 1 277.41 80.48
  L 264.64 60.40
  A 0.32 0.32 0.0 0 0 264.37 60.25
  L 261.07 60.25
  A 0.32 0.32 0.0 0 0 260.75 60.57
  L 260.75 86.68
  A 0.32 0.32 0.0 0 0 261.07 87.00
  L 263.93 87.00
  A 0.32 0.32 0.0 0 0 264.25 86.68
  L 264.25 67.14
  A 0.32 0.32 0.0 0 1 264.84 66.97
  L 277.46 86.85
  A 0.32 0.32 0.0 0 0 277.73 87.00
  L 281.18 87.00
  A 0.32 0.32 0.0 0 0 281.50 86.68
  L 281.50 60.57
  A 0.32 0.32 0.0 0 0 281.18 60.25
  L 278.32 60.25
  A 0.32 0.32 0.0 0 0 278.00 60.57
  L 278.00 80.31"
/>
<path stroke="#3b5514" vector-effect="non-scaling-stroke" d="
  M 30.30 10.49
  Q 32.55 11.22 34.37 12.12
  C 38.79 14.30 42.81 15.52 46.80 18.70
  A 0.83 0.82 51.3 0 0 47.68 18.80
  C 53.09 16.17 49.02 8.57 44.88 6.85
  Q 33.68 2.19 22.15 6.91
  Q 21.72 7.09 21.74 7.56
  C 22.09 15.10 26.84 25.13 34.81 26.94
  Q 39.41 27.99 43.56 24.29
  Q 46.15 21.98 43.31 19.98
  C 39.11 17.03 36.42 13.39 30.20 10.75
  A 0.14 0.14 0.0 0 1 30.30 10.49"
/>
<path stroke="#3b5514" vector-effect="non-scaling-stroke" d="
  M 74.49 11.29
  Q 67.72 14.81 62.16 20.22
  Q 59.50 22.81 62.62 24.95
  C 74.18 32.87 84.82 17.52 83.68 7.48
  Q 83.63 7.02 83.19 6.84
  C 75.34 3.61 57.96 2.37 55.76 13.93
  C 55.41 15.75 56.39 17.25 57.32 18.76
  Q 57.62 19.25 58.15 19.04
  C 60.46 18.14 62.12 16.17 64.17 15.29
  C 65.17 14.86 74.29 10.88 74.50 10.99
  Q 74.78 11.14 74.49 11.29"
/>
<path stroke="#5f0922" vector-effect="non-scaling-stroke" d="
  M 45.38 37.46
  C 47.06 38.16 48.59 39.20 50.43 39.23
  C 53.96 39.27 58.48 40.01 61.29 37.20
  C 63.42 35.06 62.21 33.21 60.20 31.76
  Q 52.58 26.23 45.16 31.38
  C 43.24 32.71 42.94 36.45 45.38 37.46"
/>
<path stroke="#5f0922" vector-effect="non-scaling-stroke" d="
  M 39.29 30.80
  Q 26.87 30.36 25.31 42.34
  A 0.77 0.77 0.0 0 0 26.48 43.09
  Q 33.98 38.39 39.62 31.53
  A 0.45 0.45 0.0 0 0 39.29 30.80"
/>
<path stroke="#5f0922" vector-effect="non-scaling-stroke" d="
  M 79.42 42.91
  C 79.06 35.20 73.56 31.11 66.18 30.86
  A 0.98 0.98 0.0 0 0 65.40 32.48
  Q 70.98 39.07 78.42 43.51
  A 0.66 0.66 0.0 0 0 79.42 42.91"
/>
<path stroke="#5f0922" vector-effect="non-scaling-stroke" d="
  M 71.8791 61.3569
  A 11.23 9.35 56.8 0 0 73.5537 46.8403
  A 11.23 9.35 56.8 0 0 59.5809 42.5631
  A 11.23 9.35 56.8 0 0 57.9063 57.0797
  A 11.23 9.35 56.8 0 0 71.8791 61.3569"
/>
<path stroke="#5f0922" vector-effect="non-scaling-stroke" d="
  M 33.6679 61.9803
  A 11.37 9.36 123.6 0 0 47.7561 57.6897
  A 11.37 9.36 123.6 0 0 46.2521 43.0397
  A 11.37 9.36 123.6 0 0 32.1639 47.3303
  A 11.37 9.36 123.6 0 0 33.6679 61.9803"
/>
<path stroke="#5f0922" vector-effect="non-scaling-stroke" d="
  M 23.17 48.40
  Q 13.65 55.95 20.89 65.88
  A 0.54 0.54 0.0 0 0 21.71 65.93
  C 24.59 62.91 26.35 52.13 24.06 48.55
  Q 23.70 47.98 23.17 48.40"
/>
<path stroke="#5f0922" vector-effect="non-scaling-stroke" d="
  M 82.42 48.97
  C 81.89 48.54 81.48 47.75 80.57 48.09
  A 1.02 1.00 83.8 0 0 79.92 48.91
  C 79.55 51.68 79.85 63.95 82.81 65.47
  A 1.49 1.48 26.8 0 0 84.82 64.81
  Q 89.73 54.93 82.42 48.97"
/>
<path stroke="#5f0922" vector-effect="non-scaling-stroke" d="
  M 63.5692 71.6988
  A 10.53 9.77 -3.6 0 0 52.4465 62.6093
  A 10.53 9.77 -3.6 0 0 42.5508 73.0212
  A 10.53 9.77 -3.6 0 0 53.6735 82.1107
  A 10.53 9.77 -3.6 0 0 63.5692 71.6988"
/>
<path stroke="#5f0922" vector-effect="non-scaling-stroke" d="
  M 81.21 69.51
  C 80.80 66.56 77.53 66.03 75.32 67.32
  Q 67.66 71.82 65.85 80.80
  C 64.94 85.31 68.15 86.88 71.94 85.70
  Q 83.01 82.23 81.21 69.51"
/>
<path stroke="#5f0922" vector-effect="non-scaling-stroke" d="
  M 32.97 85.38
  C 35.84 86.33 40.02 85.19 39.26 81.23
  Q 37.37 71.32 27.73 67.92
  Q 27.20 67.73 26.68 67.98
  Q 22.87 69.80 23.98 74.82
  Q 25.80 83.00 32.97 85.38"
/>
<path stroke="#5f0922" vector-effect="non-scaling-stroke" d="
  M 61.97 88.45
  C 56.37 85.45 48.49 86.35 43.18 89.27
  A 1.36 1.36 0.0 0 0 42.90 91.45
  Q 52.69 100.72 62.38 91.33
  A 1.81 1.80 37.1 0 0 61.97 88.45"
/>
<path stroke="#5e162b" vector-effect="non-scaling-stroke" d="
  M 116.48 19.05
  L 116.48 26.69
  A 0.54 0.54 0.0 0 0 117.02 27.23
  L 123.29 27.23
  A 4.73 3.70 0.0 0 0 128.02 23.53
  L 128.02 22.21
  A 4.73 3.70 -0.0 0 0 123.29 18.51
  L 117.02 18.51
  A 0.54 0.54 0.0 0 0 116.48 19.05"
/>
<path stroke="#5e162b" vector-effect="non-scaling-stroke" d="
  M 147.40 18.79
  L 143.65 30.42
  Q 143.47 31.00 144.08 31.00
  L 151.43 31.00
  Q 152.10 31.00 151.87 30.37
  L 147.68 18.78
  Q 147.53 18.37 147.40 18.79"
/>
<path stroke="#5e162b" vector-effect="non-scaling-stroke" d="
  M 190.76 19.42
  L 190.74 27.28
  A 0.95 0.95 0.0 0 0 191.68 28.23
  L 197.07 28.25
  A 5.42 4.67 0.2 0 0 202.51 23.60
  L 202.51 23.18
  A 5.42 4.67 0.2 0 0 197.11 18.49
  L 191.72 18.47
  A 0.95 0.95 0.0 0 0 190.76 19.42"
/>
<path stroke="#5e162b" vector-effect="non-scaling-stroke" d="
  M 213.69 18.81
  L 213.71 26.19
  A 0.31 0.31 0.0 0 0 214.02 26.50
  L 220.00 26.49
  A 4.99 3.82 -0.1 0 0 224.98 22.66
  L 224.98 22.30
  A 4.99 3.82 -0.1 0 0 219.98 18.49
  L 214.00 18.50
  A 0.31 0.31 0.0 0 0 213.69 18.81"
/>
<path stroke="#5e162b" vector-effect="non-scaling-stroke" d="
  M 213.58 30.47
  L 213.60 38.07
  A 0.71 0.71 0.0 0 0 214.31 38.78
  L 220.85 38.77
  A 5.41 4.30 -0.1 0 0 226.25 34.46
  L 226.25 34.04
  A 5.41 4.30 -0.1 0 0 220.83 29.75
  L 214.29 29.76
  A 0.71 0.71 0.0 0 0 213.58 30.47"
/>
<path stroke="#5e162b" vector-effect="non-scaling-stroke" d="
  M 260.26 19.05
  L 260.24 26.61
  A 0.57 0.57 0.0 0 0 260.80 27.18
  L 267.07 27.20
  A 4.92 4.05 0.2 0 0 272.01 23.17
  L 272.01 22.57
  A 4.92 4.05 0.2 0 0 267.11 18.50
  L 260.84 18.48
  A 0.57 0.57 0.0 0 0 260.26 19.05"
/>
<path stroke="#5e162b" vector-effect="non-scaling-stroke" d="
  M 284.48 18.92
  L 284.46 26.82
  A 0.45 0.45 0.0 0 0 284.90 27.27
  L 291.00 27.29
  A 5.23 4.19 0.2 0 0 296.25 23.12
  L 296.25 22.70
  A 5.23 4.19 0.2 0 0 291.04 18.49
  L 284.94 18.47
  A 0.45 0.45 0.0 0 0 284.48 18.92"
/>
<path stroke="#5e162b" vector-effect="non-scaling-stroke" d="
  M 205.74 63.87
  L 205.76 71.13
  A 0.36 0.36 0.0 0 0 206.12 71.49
  L 212.34 71.47
  A 4.68 3.75 -0.2 0 0 217.01 67.70
  L 217.01 67.22
  A 4.68 3.75 -0.2 0 0 212.32 63.49
  L 206.10 63.51
  A 0.36 0.36 0.0 0 0 205.74 63.87"
/>
<path stroke="#5e162b" vector-effect="non-scaling-stroke" d="
  M 205.73 75.05
  L 205.71 83.45
  A 0.32 0.32 0.0 0 0 206.03 83.77
  L 212.82 83.78
  A 5.43 4.25 0.1 0 0 218.26 79.54
  L 218.26 79.00
  A 5.43 4.25 0.1 0 0 212.84 74.74
  L 206.05 74.73
  A 0.32 0.32 0.0 0 0 205.73 75.05"
/>
<path stroke="#5e162b" vector-effect="non-scaling-stroke" d="
  M 157.53 63.71
  L 157.47 83.49
  A 0.27 0.27 0.0 0 0 157.73 83.76
  L 163.21 83.78
  A 8.45 8.19 -89.8 0 0 171.43 75.35
  L 171.45 71.93
  A 8.45 8.19 -89.8 0 0 163.29 63.46
  L 157.81 63.44
  A 0.27 0.27 0.0 0 0 157.53 63.71"
/>
<path stroke="#5e162b" vector-effect="non-scaling-stroke" d="
  M 244.97 63.92
  L 241.16 75.43
  Q 240.97 76.00 241.57 76.00
  L 248.95 76.00
  Q 249.67 76.00 249.42 75.33
  L 245.25 63.92
  A 0.15 0.15 0.0 0 0 244.97 63.92"
/>
</g>
<path fill="#bc2b56" d="
  M 0.00 0.00
  L 350.00 0.00
  L 350.00 100.00
  L 0.00 100.00
  L 0.00 0.00
  Z
  M 29.30 28.52
  A 0.47 0.47 0.0 0 1 29.41 29.38
  Q 21.13 33.90 21.68 43.44
  Q 21.71 43.95 21.40 44.35
  C 19.74 46.49 17.43 48.04 16.21 50.19
  C 12.77 56.23 13.35 61.92 17.10 67.69
  C 21.56 74.57 19.51 81.62 27.33 86.92
  C 31.47 89.73 37.98 93.25 43.27 96.72
  C 49.64 100.90 56.62 100.58 62.87 96.21
  C 67.25 93.14 71.24 91.28 76.91 87.86
  C 86.61 82.00 83.97 74.74 89.10 66.73
  C 93.72 59.52 91.77 49.87 84.65 45.06
  Q 84.24 44.79 84.26 44.30
  Q 84.65 34.27 76.32 29.13
  Q 75.88 28.85 76.32 28.57
  Q 87.58 21.11 88.05 7.53
  C 88.27 1.05 70.65 0.53 66.92 0.89
  Q 57.28 1.83 53.05 10.70
  Q 52.72 11.39 52.41 10.70
  C 51.25 8.12 50.44 5.89 47.99 4.34
  C 39.66 -0.95 30.34 0.27 21.18 3.45
  Q 19.24 4.12 17.99 5.05
  Q 17.56 5.38 17.55 5.92
  Q 17.39 19.88 28.44 28.02
  Q 29.03 28.45 29.30 28.52
  Z
  M 166.34 20.76
  C 169.00 16.36 177.07 16.99 177.92 22.81
  Q 178.00 23.37 178.56 23.26
  L 181.18 22.78
  Q 181.78 22.67 181.63 22.07
  C 178.67 10.54 159.48 14.01 163.11 24.45
  C 165.50 31.30 178.90 28.45 179.00 34.73
  Q 179.04 37.54 176.08 38.57
  Q 167.60 41.53 165.14 33.41
  Q 164.98 32.88 164.44 32.97
  L 162.03 33.36
  Q 161.41 33.46 161.59 34.05
  Q 164.73 44.27 175.60 42.03
  C 183.05 40.50 185.47 30.29 177.41 27.86
  C 173.91 26.80 166.63 25.97 166.15 21.65
  A 1.48 1.44 57.8 0 1 166.34 20.76
  Z
  M 238.00 30.31
  A 0.31 0.31 0.0 0 1 238.31 30.00
  L 249.99 30.00
  A 0.31 0.31 0.0 0 0 250.30 29.71
  L 250.44 26.83
  A 0.31 0.31 0.0 0 0 250.13 26.50
  L 238.31 26.50
  A 0.31 0.31 0.0 0 1 238.00 26.19
  L 238.00 18.80
  A 0.31 0.31 0.0 0 1 238.31 18.49
  L 251.08 18.50
  A 0.31 0.31 0.0 0 0 251.39 18.18
  L 251.32 15.54
  A 0.31 0.31 0.0 0 0 251.01 15.24
  L 234.80 15.22
  A 0.31 0.31 0.0 0 0 234.49 15.53
  L 234.50 41.69
  A 0.31 0.31 0.0 0 0 234.81 42.00
  L 251.69 42.00
  A 0.31 0.31 0.0 0 0 252.00 41.69
  L 252.00 39.06
  A 0.31 0.31 0.0 0 0 251.69 38.75
  L 238.31 38.75
  A 0.31 0.31 0.0 0 1 238.00 38.44
  L 238.00 30.31
  Z
  M 126.83 29.52
  Q 131.07 27.95 131.76 24.30
  C 133.75 13.74 119.49 14.95 113.51 15.33
  Q 112.95 15.37 112.95 15.93
  L 113.02 41.41
  Q 113.02 42.00 113.60 42.00
  L 116.00 42.00
  Q 116.50 42.00 116.50 41.50
  L 116.50 30.99
  A 0.51 0.51 0.0 0 1 117.02 30.48
  Q 119.73 30.55 122.41 31.04
  Q 122.94 31.14 123.30 31.55
  Q 127.22 35.95 129.05 41.64
  Q 129.17 42.00 129.55 42.00
  L 132.74 42.00
  Q 133.49 42.00 133.17 41.32
  Q 130.42 35.41 126.66 30.06
  A 0.36 0.36 0.0 0 1 126.83 29.52
  Z
  M 153.12 34.00
  A 0.33 0.33 0.0 0 1 153.43 34.21
  L 156.25 41.79
  A 0.33 0.33 0.0 0 0 156.56 42.00
  L 160.02 42.00
  A 0.33 0.33 0.0 0 0 160.32 41.55
  L 149.68 15.46
  A 0.33 0.33 0.0 0 0 149.38 15.25
  L 145.91 15.25
  A 0.33 0.33 0.0 0 0 145.60 15.46
  L 135.59 41.55
  A 0.33 0.33 0.0 0 0 135.90 42.00
  L 139.10 42.00
  A 0.33 0.33 0.0 0 0 139.41 41.78
  L 142.15 34.22
  A 0.33 0.33 0.0 0 1 142.46 34.00
  L 153.12 34.00
  Z
  M 199.31 15.70
  Q 193.43 14.97 187.61 15.31
  Q 187.23 15.34 187.23 15.72
  L 187.24 41.37
  Q 187.24 42.00 187.87 42.00
  L 190.25 42.00
  Q 190.75 42.00 190.75 41.50
  L 190.85 32.05
  Q 190.86 31.45 191.46 31.44
  C 194.93 31.36 199.25 31.74 202.11 30.18
  C 208.71 26.59 207.27 16.69 199.31 15.70
  Z
  M 225.68 27.33
  C 229.01 24.84 229.70 20.24 226.52 17.32
  C 223.54 14.60 215.43 15.06 210.40 15.37
  Q 210.00 15.39 210.00 15.79
  L 210.00 41.48
  Q 210.00 41.94 210.46 41.95
  Q 217.51 42.14 221.94 41.91
  C 229.71 41.49 233.32 32.11 225.73 28.00
  Q 225.18 27.70 225.68 27.33
  Z
  M 260.62 30.80
  C 268.00 28.88 270.41 35.35 272.92 41.44
  A 0.90 0.89 78.7 0 0 273.75 42.00
  L 276.74 42.00
  Q 277.28 42.00 277.06 41.50
  Q 274.37 35.49 270.54 30.13
  Q 270.20 29.65 270.76 29.46
  C 276.04 27.60 277.58 20.66 273.56 17.42
  C 270.02 14.56 261.78 15.07 257.19 15.32
  Q 256.75 15.34 256.75 15.78
  L 256.75 41.50
  Q 256.75 42.00 257.25 42.00
  L 259.65 42.00
  A 0.64 0.64 0.0 0 0 260.29 41.35
  L 260.23 31.31
  Q 260.23 30.91 260.62 30.80
  Z
  M 284.98 30.47
  C 292.61 29.39 294.38 35.52 297.18 41.49
  Q 297.42 42.00 297.99 42.00
  L 300.72 42.00
  Q 301.29 42.00 301.08 41.47
  Q 298.64 35.32 294.62 30.08
  Q 294.28 29.64 294.81 29.49
  Q 299.03 28.25 299.71 24.26
  C 301.48 13.95 288.49 14.84 281.29 15.42
  Q 280.75 15.46 280.75 16.01
  L 280.75 41.37
  Q 280.75 42.00 281.38 42.00
  L 283.88 42.00
  Q 284.50 42.00 284.50 41.37
  L 284.50 31.01
  Q 284.50 30.53 284.98 30.47
  Z
  M 313.59 27.25
  A 0.31 0.31 0.0 0 1 313.06 27.25
  L 305.78 15.40
  A 0.31 0.31 0.0 0 0 305.52 15.25
  L 301.95 15.25
  A 0.31 0.31 0.0 0 0 301.69 15.73
  L 311.48 30.87
  A 0.31 0.31 0.0 0 1 311.53 31.04
  L 311.43 41.69
  A 0.31 0.31 0.0 0 0 311.74 42.00
  L 314.49 42.00
  A 0.31 0.31 0.0 0 0 314.80 41.69
  L 314.73 30.97
  A 0.31 0.31 0.0 0 1 314.78 30.79
  L 324.91 15.73
  A 0.31 0.31 0.0 0 0 324.65 15.25
  L 321.23 15.25
  A 0.31 0.31 0.0 0 0 320.97 15.40
  L 313.59 27.25
  Z
  M 183.84 83.75
  A 0.31 0.31 0.0 0 1 183.53 83.44
  L 183.45 75.31
  A 0.31 0.31 0.0 0 1 183.76 75.00
  L 195.44 75.00
  A 0.31 0.31 0.0 0 0 195.75 74.69
  L 195.75 71.80
  A 0.31 0.31 0.0 0 0 195.44 71.49
  L 183.84 71.50
  A 0.31 0.31 0.0 0 1 183.53 71.19
  L 183.44 63.81
  A 0.31 0.31 0.0 0 1 183.75 63.50
  L 196.42 63.50
  A 0.31 0.31 0.0 0 0 196.73 63.19
  L 196.78 60.58
  A 0.31 0.31 0.0 0 0 196.47 60.27
  L 180.06 60.21
  A 0.31 0.31 0.0 0 0 179.75 60.52
  L 179.75 86.69
  A 0.31 0.31 0.0 0 0 180.06 87.00
  L 196.94 87.00
  A 0.31 0.31 0.0 0 0 197.25 86.69
  L 197.25 84.06
  A 0.31 0.31 0.0 0 0 196.94 83.75
  L 183.84 83.75
  Z
  M 217.85 72.43
  C 222.08 68.34 221.36 61.74 215.13 60.80
  Q 208.84 59.84 202.41 60.35
  A 0.44 0.44 0.0 0 0 202.00 60.79
  L 202.00 86.48
  Q 202.00 86.94 202.46 86.95
  C 209.04 87.11 220.21 88.74 221.73 80.64
  Q 222.64 75.79 217.93 73.09
  Q 217.45 72.81 217.85 72.43
  Z
  M 230.25 60.54
  A 0.38 0.38 0.0 0 0 229.87 60.16
  L 226.89 60.16
  A 0.38 0.38 0.0 0 0 226.51 60.54
  L 226.51 86.62
  A 0.38 0.38 0.0 0 0 226.89 87.00
  L 229.87 87.00
  A 0.38 0.38 0.0 0 0 230.25 86.62
  L 230.25 60.54
  Z
  M 153.98 60.43
  L 153.88 86.75
  A 0.24 0.24 0.0 0 0 154.12 86.99
  L 163.41 87.03
  A 11.95 11.75 -89.8 0 0 175.20 75.12
  L 175.21 72.22
  A 11.95 11.75 -89.8 0 0 163.51 60.23
  L 154.22 60.19
  A 0.24 0.24 0.0 0 0 153.98 60.43
  Z
  M 250.58 78.92
  A 0.32 0.32 0.0 0 1 250.88 79.13
  L 253.82 86.79
  A 0.32 0.32 0.0 0 0 254.12 87.00
  L 257.60 87.00
  A 0.32 0.32 0.0 0 0 257.90 86.56
  L 247.23 60.45
  A 0.32 0.32 0.0 0 0 246.94 60.25
  L 243.45 60.25
  A 0.32 0.32 0.0 0 0 243.15 60.46
  L 233.13 86.53
  A 0.32 0.32 0.0 0 0 233.42 86.97
  L 236.56 87.08
  A 0.32 0.32 0.0 0 0 236.87 86.87
  L 239.66 79.25
  A 0.32 0.32 0.0 0 1 239.96 79.04
  L 250.58 78.92
  Z
  M 278.00 80.31
  A 0.32 0.32 0.0 0 1 277.41 80.48
  L 264.64 60.40
  A 0.32 0.32 0.0 0 0 264.37 60.25
  L 261.07 60.25
  A 0.32 0.32 0.0 0 0 260.75 60.57
  L 260.75 86.68
  A 0.32 0.32 0.0 0 0 261.07 87.00
  L 263.93 87.00
  A 0.32 0.32 0.0 0 0 264.25 86.68
  L 264.25 67.14
  A 0.32 0.32 0.0 0 1 264.84 66.97
  L 277.46 86.85
  A 0.32 0.32 0.0 0 0 277.73 87.00
  L 281.18 87.00
  A 0.32 0.32 0.0 0 0 281.50 86.68
  L 281.50 60.57
  A 0.32 0.32 0.0 0 0 281.18 60.25
  L 278.32 60.25
  A 0.32 0.32 0.0 0 0 278.00 60.57
  L 278.00 80.31
  Z"
/>
<path fill="#000000" d="
  M 29.30 28.52
  Q 29.03 28.45 28.44 28.02
  Q 17.39 19.88 17.55 5.92
  Q 17.56 5.38 17.99 5.05
  Q 19.24 4.12 21.18 3.45
  C 30.34 0.27 39.66 -0.95 47.99 4.34
  C 50.44 5.89 51.25 8.12 52.41 10.70
  Q 52.72 11.39 53.05 10.70
  Q 57.28 1.83 66.92 0.89
  C 70.65 0.53 88.27 1.05 88.05 7.53
  Q 87.58 21.11 76.32 28.57
  Q 75.88 28.85 76.32 29.13
  Q 84.65 34.27 84.26 44.30
  Q 84.24 44.79 84.65 45.06
  C 91.77 49.87 93.72 59.52 89.10 66.73
  C 83.97 74.74 86.61 82.00 76.91 87.86
  C 71.24 91.28 67.25 93.14 62.87 96.21
  C 56.62 100.58 49.64 100.90 43.27 96.72
  C 37.98 93.25 31.47 89.73 27.33 86.92
  C 19.51 81.62 21.56 74.57 17.10 67.69
  C 13.35 61.92 12.77 56.23 16.21 50.19
  C 17.43 48.04 19.74 46.49 21.40 44.35
  Q 21.71 43.95 21.68 43.44
  Q 21.13 33.90 29.41 29.38
  A 0.47 0.47 0.0 0 0 29.30 28.52
  Z
  M 30.30 10.49
  Q 32.55 11.22 34.37 12.12
  C 38.79 14.30 42.81 15.52 46.80 18.70
  A 0.83 0.82 51.3 0 0 47.68 18.80
  C 53.09 16.17 49.02 8.57 44.88 6.85
  Q 33.68 2.19 22.15 6.91
  Q 21.72 7.09 21.74 7.56
  C 22.09 15.10 26.84 25.13 34.81 26.94
  Q 39.41 27.99 43.56 24.29
  Q 46.15 21.98 43.31 19.98
  C 39.11 17.03 36.42 13.39 30.20 10.75
  A 0.14 0.14 0.0 0 1 30.30 10.49
  Z
  M 74.49 11.29
  Q 67.72 14.81 62.16 20.22
  Q 59.50 22.81 62.62 24.95
  C 74.18 32.87 84.82 17.52 83.68 7.48
  Q 83.63 7.02 83.19 6.84
  C 75.34 3.61 57.96 2.37 55.76 13.93
  C 55.41 15.75 56.39 17.25 57.32 18.76
  Q 57.62 19.25 58.15 19.04
  C 60.46 18.14 62.12 16.17 64.17 15.29
  C 65.17 14.86 74.29 10.88 74.50 10.99
  Q 74.78 11.14 74.49 11.29
  Z
  M 45.38 37.46
  C 47.06 38.16 48.59 39.20 50.43 39.23
  C 53.96 39.27 58.48 40.01 61.29 37.20
  C 63.42 35.06 62.21 33.21 60.20 31.76
  Q 52.58 26.23 45.16 31.38
  C 43.24 32.71 42.94 36.45 45.38 37.46
  Z
  M 39.29 30.80
  Q 26.87 30.36 25.31 42.34
  A 0.77 0.77 0.0 0 0 26.48 43.09
  Q 33.98 38.39 39.62 31.53
  A 0.45 0.45 0.0 0 0 39.29 30.80
  Z
  M 79.42 42.91
  C 79.06 35.20 73.56 31.11 66.18 30.86
  A 0.98 0.98 0.0 0 0 65.40 32.48
  Q 70.98 39.07 78.42 43.51
  A 0.66 0.66 0.0 0 0 79.42 42.91
  Z
  M 71.8791 61.3569
  A 11.23 9.35 56.8 0 0 73.5537 46.8403
  A 11.23 9.35 56.8 0 0 59.5809 42.5631
  A 11.23 9.35 56.8 0 0 57.9063 57.0797
  A 11.23 9.35 56.8 0 0 71.8791 61.3569
  Z
  M 33.6679 61.9803
  A 11.37 9.36 123.6 0 0 47.7561 57.6897
  A 11.37 9.36 123.6 0 0 46.2521 43.0397
  A 11.37 9.36 123.6 0 0 32.1639 47.3303
  A 11.37 9.36 123.6 0 0 33.6679 61.9803
  Z
  M 23.17 48.40
  Q 13.65 55.95 20.89 65.88
  A 0.54 0.54 0.0 0 0 21.71 65.93
  C 24.59 62.91 26.35 52.13 24.06 48.55
  Q 23.70 47.98 23.17 48.40
  Z
  M 82.42 48.97
  C 81.89 48.54 81.48 47.75 80.57 48.09
  A 1.02 1.00 83.8 0 0 79.92 48.91
  C 79.55 51.68 79.85 63.95 82.81 65.47
  A 1.49 1.48 26.8 0 0 84.82 64.81
  Q 89.73 54.93 82.42 48.97
  Z
  M 63.5692 71.6988
  A 10.53 9.77 -3.6 0 0 52.4465 62.6093
  A 10.53 9.77 -3.6 0 0 42.5508 73.0212
  A 10.53 9.77 -3.6 0 0 53.6735 82.1107
  A 10.53 9.77 -3.6 0 0 63.5692 71.6988
  Z
  M 81.21 69.51
  C 80.80 66.56 77.53 66.03 75.32 67.32
  Q 67.66 71.82 65.85 80.80
  C 64.94 85.31 68.15 86.88 71.94 85.70
  Q 83.01 82.23 81.21 69.51
  Z
  M 32.97 85.38
  C 35.84 86.33 40.02 85.19 39.26 81.23
  Q 37.37 71.32 27.73 67.92
  Q 27.20 67.73 26.68 67.98
  Q 22.87 69.80 23.98 74.82
  Q 25.80 83.00 32.97 85.38
  Z
  M 61.97 88.45
  C 56.37 85.45 48.49 86.35 43.18 89.27
  A 1.36 1.36 0.0 0 0 42.90 91.45
  Q 52.69 100.72 62.38 91.33
  A 1.81 1.80 37.1 0 0 61.97 88.45
  Z"
/>
<path fill="#75aa28" d="
  M 30.20 10.75
  C 36.42 13.39 39.11 17.03 43.31 19.98
  Q 46.15 21.98 43.56 24.29
  Q 39.41 27.99 34.81 26.94
  C 26.84 25.13 22.09 15.10 21.74 7.56
  Q 21.72 7.09 22.15 6.91
  Q 33.68 2.19 44.88 6.85
  C 49.02 8.57 53.09 16.17 47.68 18.80
  A 0.83 0.82 51.3 0 1 46.80 18.70
  C 42.81 15.52 38.79 14.30 34.37 12.12
  Q 32.55 11.22 30.30 10.49
  A 0.14 0.14 0.0 0 0 30.20 10.75
  Z"
/>
<path fill="#75aa28" d="
  M 74.50 10.99
  C 74.29 10.88 65.17 14.86 64.17 15.29
  C 62.12 16.17 60.46 18.14 58.15 19.04
  Q 57.62 19.25 57.32 18.76
  C 56.39 17.25 55.41 15.75 55.76 13.93
  C 57.96 2.37 75.34 3.61 83.19 6.84
  Q 83.63 7.02 83.68 7.48
  C 84.82 17.52 74.18 32.87 62.62 24.95
  Q 59.50 22.81 62.16 20.22
  Q 67.72 14.81 74.49 11.29
  Q 74.78 11.14 74.50 10.99
  Z"
/>
<path fill="#000000" d="
  M 166.15 21.65
  C 166.63 25.97 173.91 26.80 177.41 27.86
  C 185.47 30.29 183.05 40.50 175.60 42.03
  Q 164.73 44.27 161.59 34.05
  Q 161.41 33.46 162.03 33.36
  L 164.44 32.97
  Q 164.98 32.88 165.14 33.41
  Q 167.60 41.53 176.08 38.57
  Q 179.04 37.54 179.00 34.73
  C 178.90 28.45 165.50 31.30 163.11 24.45
  C 159.48 14.01 178.67 10.54 181.63 22.07
  Q 181.78 22.67 181.18 22.78
  L 178.56 23.26
  Q 178.00 23.37 177.92 22.81
  C 177.07 16.99 169.00 16.36 166.34 20.76
  A 1.48 1.44 57.8 0 0 166.15 21.65
  Z"
/>
<path fill="#000000" d="
  M 238.00 30.31
  L 238.00 38.44
  A 0.31 0.31 0.0 0 0 238.31 38.75
  L 251.69 38.75
  A 0.31 0.31 0.0 0 1 252.00 39.06
  L 252.00 41.69
  A 0.31 0.31 0.0 0 1 251.69 42.00
  L 234.81 42.00
  A 0.31 0.31 0.0 0 1 234.50 41.69
  L 234.49 15.53
  A 0.31 0.31 0.0 0 1 234.80 15.22
  L 251.01 15.24
  A 0.31 0.31 0.0 0 1 251.32 15.54
  L 251.39 18.18
  A 0.31 0.31 0.0 0 1 251.08 18.50
  L 238.31 18.49
  A 0.31 0.31 0.0 0 0 238.00 18.80
  L 238.00 26.19
  A 0.31 0.31 0.0 0 0 238.31 26.50
  L 250.13 26.50
  A 0.31 0.31 0.0 0 1 250.44 26.83
  L 250.30 29.71
  A 0.31 0.31 0.0 0 1 249.99 30.00
  L 238.31 30.00
  A 0.31 0.31 0.0 0 0 238.00 30.31
  Z"
/>
<path fill="#000000" d="
  M 126.66 30.06
  Q 130.42 35.41 133.17 41.32
  Q 133.49 42.00 132.74 42.00
  L 129.55 42.00
  Q 129.17 42.00 129.05 41.64
  Q 127.22 35.95 123.30 31.55
  Q 122.94 31.14 122.41 31.04
  Q 119.73 30.55 117.02 30.48
  A 0.51 0.51 0.0 0 0 116.50 30.99
  L 116.50 41.50
  Q 116.50 42.00 116.00 42.00
  L 113.60 42.00
  Q 113.02 42.00 113.02 41.41
  L 112.95 15.93
  Q 112.95 15.37 113.51 15.33
  C 119.49 14.95 133.75 13.74 131.76 24.30
  Q 131.07 27.95 126.83 29.52
  A 0.36 0.36 0.0 0 0 126.66 30.06
  Z
  M 116.48 19.05
  L 116.48 26.69
  A 0.54 0.54 0.0 0 0 117.02 27.23
  L 123.29 27.23
  A 4.73 3.70 0.0 0 0 128.02 23.53
  L 128.02 22.21
  A 4.73 3.70 -0.0 0 0 123.29 18.51
  L 117.02 18.51
  A 0.54 0.54 0.0 0 0 116.48 19.05
  Z"
/>
<path fill="#000000" d="
  M 153.12 34.00
  L 142.46 34.00
  A 0.33 0.33 0.0 0 0 142.15 34.22
  L 139.41 41.78
  A 0.33 0.33 0.0 0 1 139.10 42.00
  L 135.90 42.00
  A 0.33 0.33 0.0 0 1 135.59 41.55
  L 145.60 15.46
  A 0.33 0.33 0.0 0 1 145.91 15.25
  L 149.38 15.25
  A 0.33 0.33 0.0 0 1 149.68 15.46
  L 160.32 41.55
  A 0.33 0.33 0.0 0 1 160.02 42.00
  L 156.56 42.00
  A 0.33 0.33 0.0 0 1 156.25 41.79
  L 153.43 34.21
  A 0.33 0.33 0.0 0 0 153.12 34.00
  Z
  M 147.40 18.79
  L 143.65 30.42
  Q 143.47 31.00 144.08 31.00
  L 151.43 31.00
  Q 152.10 31.00 151.87 30.37
  L 147.68 18.78
  Q 147.53 18.37 147.40 18.79
  Z"
/>
<path fill="#000000" d="
  M 199.31 15.70
  C 207.27 16.69 208.71 26.59 202.11 30.18
  C 199.25 31.74 194.93 31.36 191.46 31.44
  Q 190.86 31.45 190.85 32.05
  L 190.75 41.50
  Q 190.75 42.00 190.25 42.00
  L 187.87 42.00
  Q 187.24 42.00 187.24 41.37
  L 187.23 15.72
  Q 187.23 15.34 187.61 15.31
  Q 193.43 14.97 199.31 15.70
  Z
  M 190.76 19.42
  L 190.74 27.28
  A 0.95 0.95 0.0 0 0 191.68 28.23
  L 197.07 28.25
  A 5.42 4.67 0.2 0 0 202.51 23.60
  L 202.51 23.18
  A 5.42 4.67 0.2 0 0 197.11 18.49
  L 191.72 18.47
  A 0.95 0.95 0.0 0 0 190.76 19.42
  Z"
/>
<path fill="#000000" d="
  M 225.73 28.00
  C 233.32 32.11 229.71 41.49 221.94 41.91
  Q 217.51 42.14 210.46 41.95
  Q 210.00 41.94 210.00 41.48
  L 210.00 15.79
  Q 210.00 15.39 210.40 15.37
  C 215.43 15.06 223.54 14.60 226.52 17.32
  C 229.70 20.24 229.01 24.84 225.68 27.33
  Q 225.18 27.70 225.73 28.00
  Z
  M 213.69 18.81
  L 213.71 26.19
  A 0.31 0.31 0.0 0 0 214.02 26.50
  L 220.00 26.49
  A 4.99 3.82 -0.1 0 0 224.98 22.66
  L 224.98 22.30
  A 4.99 3.82 -0.1 0 0 219.98 18.49
  L 214.00 18.50
  A 0.31 0.31 0.0 0 0 213.69 18.81
  Z
  M 213.58 30.47
  L 213.60 38.07
  A 0.71 0.71 0.0 0 0 214.31 38.78
  L 220.85 38.77
  A 5.41 4.30 -0.1 0 0 226.25 34.46
  L 226.25 34.04
  A 5.41 4.30 -0.1 0 0 220.83 29.75
  L 214.29 29.76
  A 0.71 0.71 0.0 0 0 213.58 30.47
  Z"
/>
<path fill="#000000" d="
  M 260.23 31.31
  L 260.29 41.35
  A 0.64 0.64 0.0 0 1 259.65 42.00
  L 257.25 42.00
  Q 256.75 42.00 256.75 41.50
  L 256.75 15.78
  Q 256.75 15.34 257.19 15.32
  C 261.78 15.07 270.02 14.56 273.56 17.42
  C 277.58 20.66 276.04 27.60 270.76 29.46
  Q 270.20 29.65 270.54 30.13
  Q 274.37 35.49 277.06 41.50
  Q 277.28 42.00 276.74 42.00
  L 273.75 42.00
  A 0.90 0.89 78.7 0 1 272.92 41.44
  C 270.41 35.35 268.00 28.88 260.62 30.80
  Q 260.23 30.91 260.23 31.31
  Z
  M 260.26 19.05
  L 260.24 26.61
  A 0.57 0.57 0.0 0 0 260.80 27.18
  L 267.07 27.20
  A 4.92 4.05 0.2 0 0 272.01 23.17
  L 272.01 22.57
  A 4.92 4.05 0.2 0 0 267.11 18.50
  L 260.84 18.48
  A 0.57 0.57 0.0 0 0 260.26 19.05
  Z"
/>
<path fill="#000000" d="
  M 284.50 31.01
  L 284.50 41.37
  Q 284.50 42.00 283.88 42.00
  L 281.38 42.00
  Q 280.75 42.00 280.75 41.37
  L 280.75 16.01
  Q 280.75 15.46 281.29 15.42
  C 288.49 14.84 301.48 13.95 299.71 24.26
  Q 299.03 28.25 294.81 29.49
  Q 294.28 29.64 294.62 30.08
  Q 298.64 35.32 301.08 41.47
  Q 301.29 42.00 300.72 42.00
  L 297.99 42.00
  Q 297.42 42.00 297.18 41.49
  C 294.38 35.52 292.61 29.39 284.98 30.47
  Q 284.50 30.53 284.50 31.01
  Z
  M 284.48 18.92
  L 284.46 26.82
  A 0.45 0.45 0.0 0 0 284.90 27.27
  L 291.00 27.29
  A 5.23 4.19 0.2 0 0 296.25 23.12
  L 296.25 22.70
  A 5.23 4.19 0.2 0 0 291.04 18.49
  L 284.94 18.47
  A 0.45 0.45 0.0 0 0 284.48 18.92
  Z"
/>
<path fill="#000000" d="
  M 313.59 27.25
  L 320.97 15.40
  A 0.31 0.31 0.0 0 1 321.23 15.25
  L 324.65 15.25
  A 0.31 0.31 0.0 0 1 324.91 15.73
  L 314.78 30.79
  A 0.31 0.31 0.0 0 0 314.73 30.97
  L 314.80 41.69
  A 0.31 0.31 0.0 0 1 314.49 42.00
  L 311.74 42.00
  A 0.31 0.31 0.0 0 1 311.43 41.69
  L 311.53 31.04
  A 0.31 0.31 0.0 0 0 311.48 30.87
  L 301.69 15.73
  A 0.31 0.31 0.0 0 1 301.95 15.25
  L 305.52 15.25
  A 0.31 0.31 0.0 0 1 305.78 15.40
  L 313.06 27.25
  A 0.31 0.31 0.0 0 0 313.59 27.25
  Z"
/>
<path fill="#bc2b56" d="
  M 116.48 19.05
  A 0.54 0.54 0.0 0 1 117.02 18.51
  L 123.29 18.51
  A 4.73 3.70 -0.0 0 1 128.02 22.21
  L 128.02 23.53
  A 4.73 3.70 -0.0 0 1 123.29 27.23
  L 117.02 27.23
  A 0.54 0.54 0.0 0 1 116.48 26.69
  L 116.48 19.05
  Z"
/>
<path fill="#bc2b56" d="
  M 147.68 18.78
  L 151.87 30.37
  Q 152.10 31.00 151.43 31.00
  L 144.08 31.00
  Q 143.47 31.00 143.65 30.42
  L 147.40 18.79
  Q 147.53 18.37 147.68 18.78
  Z"
/>
<path fill="#bc2b56" d="
  M 190.76 19.42
  A 0.95 0.95 0.0 0 1 191.72 18.47
  L 197.11 18.49
  A 5.42 4.67 0.2 0 1 202.51 23.18
  L 202.51 23.60
  A 5.42 4.67 0.2 0 1 197.07 28.25
  L 191.68 28.23
  A 0.95 0.95 0.0 0 1 190.74 27.28
  L 190.76 19.42
  Z"
/>
<path fill="#bc2b56" d="
  M 213.69 18.81
  A 0.31 0.31 0.0 0 1 214.00 18.50
  L 219.98 18.49
  A 4.99 3.82 -0.1 0 1 224.98 22.30
  L 224.98 22.66
  A 4.99 3.82 -0.1 0 1 220.00 26.49
  L 214.02 26.50
  A 0.31 0.31 0.0 0 1 213.71 26.19
  L 213.69 18.81
  Z"
/>
<path fill="#bc2b56" d="
  M 260.26 19.05
  A 0.57 0.57 0.0 0 1 260.84 18.48
  L 267.11 18.50
  A 4.92 4.05 0.2 0 1 272.01 22.57
  L 272.01 23.17
  A 4.92 4.05 0.2 0 1 267.07 27.20
  L 260.80 27.18
  A 0.57 0.57 0.0 0 1 260.24 26.61
  L 260.26 19.05
  Z"
/>
<path fill="#bc2b56" d="
  M 284.48 18.92
  A 0.45 0.45 0.0 0 1 284.94 18.47
  L 291.04 18.49
  A 5.23 4.19 0.2 0 1 296.25 22.70
  L 296.25 23.12
  A 5.23 4.19 0.2 0 1 291.00 27.29
  L 284.90 27.27
  A 0.45 0.45 0.0 0 1 284.46 26.82
  L 284.48 18.92
  Z"
/>
<path fill="#bd1143" d="
  M 45.38 37.46
  C 42.94 36.45 43.24 32.71 45.16 31.38
  Q 52.58 26.23 60.20 31.76
  C 62.21 33.21 63.42 35.06 61.29 37.20
  C 58.48 40.01 53.96 39.27 50.43 39.23
  C 48.59 39.20 47.06 38.16 45.38 37.46
  Z"
/>
<path fill="#bc2b56" d="
  M 213.58 30.47
  A 0.71 0.71 0.0 0 1 214.29 29.76
  L 220.83 29.75
  A 5.41 4.30 -0.1 0 1 226.25 34.04
  L 226.25 34.46
  A 5.41 4.30 -0.1 0 1 220.85 38.77
  L 214.31 38.78
  A 0.71 0.71 0.0 0 1 213.60 38.07
  L 213.58 30.47
  Z"
/>
<path fill="#bd1143" d="
  M 39.29 30.80
  A 0.45 0.45 0.0 0 1 39.62 31.53
  Q 33.98 38.39 26.48 43.09
  A 0.77 0.77 0.0 0 1 25.31 42.34
  Q 26.87 30.36 39.29 30.80
  Z"
/>
<path fill="#bd1143" d="
  M 66.18 30.86
  C 73.56 31.11 79.06 35.20 79.42 42.91
  A 0.66 0.66 0.0 0 1 78.42 43.51
  Q 70.98 39.07 65.40 32.48
  A 0.98 0.98 0.0 0 1 66.18 30.86
  Z"
/>
<ellipse fill="#bd1143" cx="0.00" cy="0.00" transform="translate(65.73,51.96) rotate(56.8)" rx="11.23" ry="9.35"/>
<ellipse fill="#bd1143" cx="0.00" cy="0.00" transform="translate(39.96,52.51) rotate(123.6)" rx="11.37" ry="9.36"/>
<path fill="#bd1143" d="
  M 23.17 48.40
  Q 23.70 47.98 24.06 48.55
  C 26.35 52.13 24.59 62.91 21.71 65.93
  A 0.54 0.54 0.0 0 1 20.89 65.88
  Q 13.65 55.95 23.17 48.40
  Z"
/>
<path fill="#bd1143" d="
  M 82.42 48.97
  Q 89.73 54.93 84.82 64.81
  A 1.49 1.48 26.8 0 1 82.81 65.47
  C 79.85 63.95 79.55 51.68 79.92 48.91
  A 1.02 1.00 83.8 0 1 80.57 48.09
  C 81.48 47.75 81.89 48.54 82.42 48.97
  Z"
/>
<path fill="#000000" d="
  M 183.84 83.75
  L 196.94 83.75
  A 0.31 0.31 0.0 0 1 197.25 84.06
  L 197.25 86.69
  A 0.31 0.31 0.0 0 1 196.94 87.00
  L 180.06 87.00
  A 0.31 0.31 0.0 0 1 179.75 86.69
  L 179.75 60.52
  A 0.31 0.31 0.0 0 1 180.06 60.21
  L 196.47 60.27
  A 0.31 0.31 0.0 0 1 196.78 60.58
  L 196.73 63.19
  A 0.31 0.31 0.0 0 1 196.42 63.50
  L 183.75 63.50
  A 0.31 0.31 0.0 0 0 183.44 63.81
  L 183.53 71.19
  A 0.31 0.31 0.0 0 0 183.84 71.50
  L 195.44 71.49
  A 0.31 0.31 0.0 0 1 195.75 71.80
  L 195.75 74.69
  A 0.31 0.31 0.0 0 1 195.44 75.00
  L 183.76 75.00
  A 0.31 0.31 0.0 0 0 183.45 75.31
  L 183.53 83.44
  A 0.31 0.31 0.0 0 0 183.84 83.75
  Z"
/>
<path fill="#000000" d="
  M 217.93 73.09
  Q 222.64 75.79 221.73 80.64
  C 220.21 88.74 209.04 87.11 202.46 86.95
  Q 202.00 86.94 202.00 86.48
  L 202.00 60.79
  A 0.44 0.44 0.0 0 1 202.41 60.35
  Q 208.84 59.84 215.13 60.80
  C 221.36 61.74 222.08 68.34 217.85 72.43
  Q 217.45 72.81 217.93 73.09
  Z
  M 205.74 63.87
  L 205.76 71.13
  A 0.36 0.36 0.0 0 0 206.12 71.49
  L 212.34 71.47
  A 4.68 3.75 -0.2 0 0 217.01 67.70
  L 217.01 67.22
  A 4.68 3.75 -0.2 0 0 212.32 63.49
  L 206.10 63.51
  A 0.36 0.36 0.0 0 0 205.74 63.87
  Z
  M 205.73 75.05
  L 205.71 83.45
  A 0.32 0.32 0.0 0 0 206.03 83.77
  L 212.82 83.78
  A 5.43 4.25 0.1 0 0 218.26 79.54
  L 218.26 79.00
  A 5.43 4.25 0.1 0 0 212.84 74.74
  L 206.05 74.73
  A 0.32 0.32 0.0 0 0 205.73 75.05
  Z"
/>
<rect fill="#000000" x="226.51" y="60.16" width="3.74" height="26.84" rx="0.38"/>
<path fill="#000000" d="
  M 153.98 60.43
  A 0.24 0.24 0.0 0 1 154.22 60.19
  L 163.51 60.23
  A 11.95 11.75 -89.8 0 1 175.21 72.22
  L 175.20 75.12
  A 11.95 11.75 -89.8 0 1 163.41 87.03
  L 154.12 86.99
  A 0.24 0.24 0.0 0 1 153.88 86.75
  L 153.98 60.43
  Z
  M 157.53 63.71
  L 157.47 83.49
  A 0.27 0.27 0.0 0 0 157.73 83.76
  L 163.21 83.78
  A 8.45 8.19 -89.8 0 0 171.43 75.35
  L 171.45 71.93
  A 8.45 8.19 -89.8 0 0 163.29 63.46
  L 157.81 63.44
  A 0.27 0.27 0.0 0 0 157.53 63.71
  Z"
/>
<path fill="#000000" d="
  M 250.58 78.92
  L 239.96 79.04
  A 0.32 0.32 0.0 0 0 239.66 79.25
  L 236.87 86.87
  A 0.32 0.32 0.0 0 1 236.56 87.08
  L 233.42 86.97
  A 0.32 0.32 0.0 0 1 233.13 86.53
  L 243.15 60.46
  A 0.32 0.32 0.0 0 1 243.45 60.25
  L 246.94 60.25
  A 0.32 0.32 0.0 0 1 247.23 60.45
  L 257.90 86.56
  A 0.32 0.32 0.0 0 1 257.60 87.00
  L 254.12 87.00
  A 0.32 0.32 0.0 0 1 253.82 86.79
  L 250.88 79.13
  A 0.32 0.32 0.0 0 0 250.58 78.92
  Z
  M 244.97 63.92
  L 241.16 75.43
  Q 240.97 76.00 241.57 76.00
  L 248.95 76.00
  Q 249.67 76.00 249.42 75.33
  L 245.25 63.92
  A 0.15 0.15 0.0 0 0 244.97 63.92
  Z"
/>
<path fill="#000000" d="
  M 278.00 80.31
  L 278.00 60.57
  A 0.32 0.32 0.0 0 1 278.32 60.25
  L 281.18 60.25
  A 0.32 0.32 0.0 0 1 281.50 60.57
  L 281.50 86.68
  A 0.32 0.32 0.0 0 1 281.18 87.00
  L 277.73 87.00
  A 0.32 0.32 0.0 0 1 277.46 86.85
  L 264.84 66.97
  A 0.32 0.32 0.0 0 0 264.25 67.14
  L 264.25 86.68
  A 0.32 0.32 0.0 0 1 263.93 87.00
  L 261.07 87.00
  A 0.32 0.32 0.0 0 1 260.75 86.68
  L 260.75 60.57
  A 0.32 0.32 0.0 0 1 261.07 60.25
  L 264.37 60.25
  A 0.32 0.32 0.0 0 1 264.64 60.40
  L 277.41 80.48
  A 0.32 0.32 0.0 0 0 278.00 80.31
  Z"
/>
<ellipse fill="#bd1143" cx="0.00" cy="0.00" transform="translate(53.06,72.36) rotate(-3.6)" rx="10.53" ry="9.77"/>
<path fill="#bc2b56" d="
  M 157.53 63.71
  A 0.27 0.27 0.0 0 1 157.81 63.44
  L 163.29 63.46
  A 8.45 8.19 -89.8 0 1 171.45 71.93
  L 171.43 75.35
  A 8.45 8.19 -89.8 0 1 163.21 83.78
  L 157.73 83.76
  A 0.27 0.27 0.0 0 1 157.47 83.49
  L 157.53 63.71
  Z"
/>
<path fill="#bc2b56" d="
  M 205.74 63.87
  A 0.36 0.36 0.0 0 1 206.10 63.51
  L 212.32 63.49
  A 4.68 3.75 -0.2 0 1 217.01 67.22
  L 217.01 67.70
  A 4.68 3.75 -0.2 0 1 212.34 71.47
  L 206.12 71.49
  A 0.36 0.36 0.0 0 1 205.76 71.13
  L 205.74 63.87
  Z"
/>
<path fill="#bc2b56" d="
  M 244.97 63.92
  A 0.15 0.15 0.0 0 1 245.25 63.92
  L 249.42 75.33
  Q 249.67 76.00 248.95 76.00
  L 241.57 76.00
  Q 240.97 76.00 241.16 75.43
  L 244.97 63.92
  Z"
/>
<path fill="#bd1143" d="
  M 75.32 67.32
  C 77.53 66.03 80.80 66.56 81.21 69.51
  Q 83.01 82.23 71.94 85.70
  C 68.15 86.88 64.94 85.31 65.85 80.80
  Q 67.66 71.82 75.32 67.32
  Z"
/>
<path fill="#bd1143" d="
  M 39.26 81.23
  C 40.02 85.19 35.84 86.33 32.97 85.38
  Q 25.80 83.00 23.98 74.82
  Q 22.87 69.80 26.68 67.98
  Q 27.20 67.73 27.73 67.92
  Q 37.37 71.32 39.26 81.23
  Z"
/>
<path fill="#bc2b56" d="
  M 205.73 75.05
  A 0.32 0.32 0.0 0 1 206.05 74.73
  L 212.84 74.74
  A 5.43 4.25 0.1 0 1 218.26 79.00
  L 218.26 79.54
  A 5.43 4.25 0.1 0 1 212.82 83.78
  L 206.03 83.77
  A 0.32 0.32 0.0 0 1 205.71 83.45
  L 205.73 75.05
  Z"
/>
<path fill="#bd1143" d="
  M 43.18 89.27
  C 48.49 86.35 56.37 85.45 61.97 88.45
  A 1.81 1.80 37.1 0 1 62.38 91.33
  Q 52.69 100.72 42.90 91.45
  A 1.36 1.36 0.0 0 1 43.18 89.27
  Z"
/>
</svg>
