<?xml version="1.0" encoding="UTF-8" standalone="no"?>
<!DOCTYPE svg PUBLIC "-//W3C//DTD SVG 1.1//EN" "http://www.w3.org/Graphics/SVG/1.1/DTD/svg11.dtd">
<svg xmlns="http://www.w3.org/2000/svg" version="1.1" viewBox="0.00 0.00 350.00 100.00">
<g stroke-width="2.00" fill="none" stroke-linecap="butt">
<path stroke="#9bbedf" vector-effect="non-scaling-stroke" d="
  M 74.06 22.06
  Q 74.37 21.78 74.22 21.41
  A 0.67 0.66 75.4 0 0 73.50 20.98
  L 42.43 25.51
  A 0.35 0.34 -3.8 0 0 42.13 25.85
  L 42.17 48.86
  Q 42.17 49.30 42.61 49.30
  L 73.52 48.93
  Q 74.03 48.92 74.02 48.41
  Q 73.97 35.24 74.06 22.06"
/>
<path stroke="#9bbedf" vector-effect="non-scaling-stroke" d="
  M 15.50 29.24
  A 0.36 0.36 0.0 0 0 15.19 29.59
  L 15.24 48.94
  A 0.36 0.36 0.0 0 0 15.60 49.30
  L 38.89 49.23
  A 0.36 0.36 0.0 0 0 39.25 48.87
  L 39.25 26.38
  A 0.36 0.36 0.0 0 0 38.84 26.03
  L 15.50 29.24"
/>
<path stroke="#9bbedf" vector-effect="non-scaling-stroke" d="
  M 146.14 33.06
  A 2.68 2.68 0.0 0 0 143.46 30.38
  A 2.68 2.68 0.0 0 0 140.78 33.06
  A 2.68 2.68 0.0 0 0 143.46 35.74
  A 2.68 2.68 0.0 0 0 146.14 33.06"
/>
<path stroke="#9bbedf" vector-effect="non-scaling-stroke" d="
  M 197.49 64.91
  L 197.49 67.59
  Q 197.49 68.25 198.15 68.25
  L 201.00 68.25
  Q 201.50 68.25 201.50 67.75
  L 201.50 30.88
  Q 201.50 30.25 200.88 30.26
  L 198.10 30.30
  Q 197.50 30.31 197.50 30.91
  L 197.50 44.99
  A 0.35 0.35 0.0 0 1 196.89 45.23
  Q 192.81 40.71 187.26 42.01
  C 179.16 43.89 177.19 52.91 178.47 59.98
  C 180.16 69.26 191.01 72.00 196.98 64.73
  A 0.29 0.29 0.0 0 1 197.49 64.91"
/>
<path stroke="#9bbedf" vector-effect="non-scaling-stroke" d="
  M 304.25 38.49
  L 304.25 67.75
  Q 304.25 68.25 304.75 68.25
  L 307.75 68.25
  Q 308.25 68.25 308.25 67.75
  L 308.25 32.00
  A 0.54 0.54 0.0 0 0 307.39 31.56
  Q 302.24 35.28 296.39 37.74
  Q 295.99 37.90 295.99 38.34
  L 296.01 41.33
  Q 296.02 41.89 296.55 41.71
  Q 300.34 40.41 303.65 38.17
  Q 304.25 37.76 304.25 38.49"
/>
<path stroke="#9bbedf" vector-effect="non-scaling-stroke" d="
  M 314.71 38.99
  C 311.86 46.45 311.07 63.06 319.34 67.65
  C 323.42 69.91 328.72 68.91 331.82 65.19
  C 336.86 59.15 336.42 47.04 334.59 39.93
  C 331.85 29.27 318.59 28.84 314.71 38.99"
/>
<path stroke="#9bbedf" vector-effect="non-scaling-stroke" d="
  M 115.26 39.90
  L 122.96 67.62
  Q 123.14 68.25 123.80 68.25
  L 127.36 68.25
  Q 128.00 68.25 128.18 67.63
  L 137.78 33.26
  A 0.62 0.61 -82.4 0 0 137.19 32.48
  L 134.00 32.51
  Q 133.47 32.51 133.33 33.02
  L 125.77 62.24
  Q 125.63 62.78 125.49 62.25
  L 117.55 32.85
  Q 117.39 32.28 116.80 32.33
  L 113.86 32.57
  Q 113.33 32.62 113.19 33.13
  L 104.85 62.70
  A 0.01 0.00 40.3 0 1 104.84 62.70
  L 96.84 33.18
  Q 96.65 32.50 95.95 32.50
  L 92.78 32.50
  A 0.57 0.57 0.0 0 0 92.23 33.23
  L 102.24 67.69
  A 0.79 0.78 81.5 0 0 102.99 68.25
  L 106.77 68.25
  Q 107.23 68.25 107.35 67.81
  L 115.11 39.90
  Q 115.18 39.62 115.26 39.90"
/>
<path stroke="#9bbedf" vector-effect="non-scaling-stroke" d="
  M 156.02 45.51
  L 156.31 43.07
  Q 156.38 42.50 155.81 42.50
  L 152.75 42.50
  Q 152.25 42.50 152.25 43.00
  L 152.25 67.75
  Q 152.25 68.25 152.75 68.25
  L 155.74 68.25
  Q 156.26 68.25 156.25 67.73
  C 156.24 63.16 155.30 54.05 156.78 50.01
  C 159.09 43.73 168.14 43.24 168.93 50.84
  Q 169.59 57.26 169.13 67.59
  Q 169.11 68.25 169.76 68.25
  L 172.51 68.25
  Q 173.05 68.25 173.09 67.71
  Q 173.76 58.55 172.74 49.45
  C 171.64 39.64 162.29 40.55 156.52 45.76
  Q 155.93 46.30 156.02 45.51"
/>
<path stroke="#9bbedf" vector-effect="non-scaling-stroke" d="
  M 231.1586 53.2168
  A 11.19 11.19 0.0 0 0 220.0666 41.9296
  L 217.9867 41.9114
  A 11.19 11.19 0.0 0 0 206.6995 53.0034
  L 206.6614 57.3632
  A 11.19 11.19 0.0 0 0 217.7534 68.6504
  L 219.8333 68.6686
  A 11.19 11.19 0.0 0 0 231.1205 57.5766
  L 231.1586 53.2168"
/>
<path stroke="#9bbedf" vector-effect="non-scaling-stroke" d="
  M 283.19 62.94
  C 281.44 67.35 274.22 65.30 271.36 63.15
  A 0.43 0.43 0.0 0 0 270.67 63.51
  L 270.77 66.92
  Q 270.79 67.31 271.15 67.47
  C 276.07 69.60 285.69 69.66 287.29 63.14
  C 288.99 56.24 281.61 54.34 276.97 52.19
  C 274.55 51.07 274.21 47.88 276.44 46.31
  C 279.36 44.26 282.90 45.32 285.82 46.90
  Q 286.55 47.29 286.52 46.47
  L 286.45 43.62
  A 0.83 0.83 0.0 0 0 285.93 42.88
  C 280.71 40.80 273.57 41.54 271.20 47.23
  C 267.04 57.24 285.85 56.21 283.19 62.94"
/>
<path stroke="#9bbedf" vector-effect="non-scaling-stroke" d="
  M 145.50 42.82
  A 0.30 0.30 0.0 0 0 145.20 42.52
  L 141.78 42.52
  A 0.30 0.30 0.0 0 0 141.48 42.82
  L 141.48 67.94
  A 0.30 0.30 0.0 0 0 141.78 68.24
  L 145.20 68.24
  A 0.30 0.30 0.0 0 0 145.50 67.94
  L 145.50 42.82"
/>
<path stroke="#9bbedf" vector-effect="non-scaling-stroke" d="
  M 258.62 63.44
  L 253.24 43.15
  Q 253.07 42.50 252.40 42.50
  L 249.75 42.50
  Q 249.30 42.50 249.17 42.93
  L 243.14 62.98
  Q 242.92 63.69 242.74 62.98
  Q 240.13 52.96 237.37 42.98
  Q 237.23 42.50 236.73 42.50
  L 233.64 42.50
  Q 232.99 42.50 233.17 43.13
  L 240.46 67.60
  Q 240.66 68.25 241.34 68.25
  L 244.25 68.25
  A 0.62 0.62 0.0 0 0 244.84 67.82
  L 250.77 48.44
  A 0.14 0.14 0.0 0 1 251.04 48.44
  L 256.40 67.59
  Q 256.59 68.25 257.27 68.25
  L 260.13 68.25
  Q 260.80 68.25 260.98 67.62
  L 268.21 43.19
  Q 268.42 42.50 267.70 42.50
  L 264.89 42.50
  Q 264.32 42.50 264.18 43.05
  L 258.91 63.44
  A 0.15 0.15 0.0 0 1 258.62 63.44"
/>
<path stroke="#9bbedf" vector-effect="non-scaling-stroke" d="
  M 39.25 52.24
  A 0.34 0.34 0.0 0 0 38.91 51.90
  L 15.61 51.71
  A 0.34 0.34 0.0 0 0 15.27 52.05
  L 15.22 71.59
  A 0.34 0.34 0.0 0 0 15.52 71.93
  L 38.86 75.08
  A 0.34 0.34 0.0 0 0 39.25 74.74
  L 39.25 52.24"
/>
<path stroke="#9bbedf" vector-effect="non-scaling-stroke" d="
  M 74.03 52.63
  A 0.31 0.31 0.0 0 0 73.72 52.32
  L 42.38 52.10
  A 0.31 0.31 0.0 0 0 42.07 52.41
  L 42.22 75.25
  A 0.31 0.31 0.0 0 0 42.48 75.56
  L 73.63 79.97
  A 0.31 0.31 0.0 0 0 73.98 79.66
  L 74.03 52.63"
/>
<path stroke="#9bbedf" vector-effect="non-scaling-stroke" d="
  M 192.56 45.69
  C 181.99 42.44 179.10 59.20 185.72 64.16
  C 189.01 66.62 193.49 65.52 195.75 62.23
  C 198.70 57.95 198.26 47.43 192.56 45.69"
/>
<path stroke="#9bbedf" vector-effect="non-scaling-stroke" d="
  M 321.96 65.04
  C 334.72 70.36 335.06 32.63 323.30 35.32
  C 314.77 37.27 314.97 62.14 321.96 65.04"
/>
<path stroke="#9bbedf" vector-effect="non-scaling-stroke" d="
  M 218.9679 65.6400
  A 10.27 8.45 89.9 0 0 227.4000 55.3553
  A 10.27 8.45 89.9 0 0 218.9321 45.1000
  A 10.27 8.45 89.9 0 0 210.5000 55.3847
  A 10.27 8.45 89.9 0 0 218.9679 65.6400"
/>
</g>
<path fill="#ffffff" d="
  M 0.00 0.00
  L 350.00 0.00
  L 350.00 100.00
  L 0.00 100.00
  L 0.00 0.00
  Z
  M 74.06 22.06
  Q 74.37 21.78 74.22 21.41
  A 0.67 0.66 75.4 0 0 73.50 20.98
  L 42.43 25.51
  A 0.35 0.34 -3.8 0 0 42.13 25.85
  L 42.17 48.86
  Q 42.17 49.30 42.61 49.30
  L 73.52 48.93
  Q 74.03 48.92 74.02 48.41
  Q 73.97 35.24 74.06 22.06
  Z
  M 15.50 29.24
  A 0.36 0.36 0.0 0 0 15.19 29.59
  L 15.24 48.94
  A 0.36 0.36 0.0 0 0 15.60 49.30
  L 38.89 49.23
  A 0.36 0.36 0.0 0 0 39.25 48.87
  L 39.25 26.38
  A 0.36 0.36 0.0 0 0 38.84 26.03
  L 15.50 29.24
  Z
  M 146.14 33.06
  A 2.68 2.68 0.0 0 0 143.46 30.38
  A 2.68 2.68 0.0 0 0 140.78 33.06
  A 2.68 2.68 0.0 0 0 143.46 35.74
  A 2.68 2.68 0.0 0 0 146.14 33.06
  Z
  M 197.49 64.91
  L 197.49 67.59
  Q 197.49 68.25 198.15 68.25
  L 201.00 68.25
  Q 201.50 68.25 201.50 67.75
  L 201.50 30.88
  Q 201.50 30.25 200.88 30.26
  L 198.10 30.30
  Q 197.50 30.31 197.50 30.91
  L 197.50 44.99
  A 0.35 0.35 0.0 0 1 196.89 45.23
  Q 192.81 40.71 187.26 42.01
  C 179.16 43.89 177.19 52.91 178.47 59.98
  C 180.16 69.26 191.01 72.00 196.98 64.73
  A 0.29 0.29 0.0 0 1 197.49 64.91
  Z
  M 304.25 38.49
  L 304.25 67.75
  Q 304.25 68.25 304.75 68.25
  L 307.75 68.25
  Q 308.25 68.25 308.25 67.75
  L 308.25 32.00
  A 0.54 0.54 0.0 0 0 307.39 31.56
  Q 302.24 35.28 296.39 37.74
  Q 295.99 37.90 295.99 38.34
  L 296.01 41.33
  Q 296.02 41.89 296.55 41.71
  Q 300.34 40.41 303.65 38.17
  Q 304.25 37.76 304.25 38.49
  Z
  M 314.71 38.99
  C 311.86 46.45 311.07 63.06 319.34 67.65
  C 323.42 69.91 328.72 68.91 331.82 65.19
  C 336.86 59.15 336.42 47.04 334.59 39.93
  C 331.85 29.27 318.59 28.84 314.71 38.99
  Z
  M 115.26 39.90
  L 122.96 67.62
  Q 123.14 68.25 123.80 68.25
  L 127.36 68.25
  Q 128.00 68.25 128.18 67.63
  L 137.78 33.26
  A 0.62 0.61 -82.4 0 0 137.19 32.48
  L 134.00 32.51
  Q 133.47 32.51 133.33 33.02
  L 125.77 62.24
  Q 125.63 62.78 125.49 62.25
  L 117.55 32.85
  Q 117.39 32.28 116.80 32.33
  L 113.86 32.57
  Q 113.33 32.62 113.19 33.13
  L 104.85 62.70
  A 0.01 0.00 40.3 0 1 104.84 62.70
  L 96.84 33.18
  Q 96.65 32.50 95.95 32.50
  L 92.78 32.50
  A 0.57 0.57 0.0 0 0 92.23 33.23
  L 102.24 67.69
  A 0.79 0.78 81.5 0 0 102.99 68.25
  L 106.77 68.25
  Q 107.23 68.25 107.35 67.81
  L 115.11 39.90
  Q 115.18 39.62 115.26 39.90
  Z
  M 156.02 45.51
  L 156.31 43.07
  Q 156.38 42.50 155.81 42.50
  L 152.75 42.50
  Q 152.25 42.50 152.25 43.00
  L 152.25 67.75
  Q 152.25 68.25 152.75 68.25
  L 155.74 68.25
  Q 156.26 68.25 156.25 67.73
  C 156.24 63.16 155.30 54.05 156.78 50.01
  C 159.09 43.73 168.14 43.24 168.93 50.84
  Q 169.59 57.26 169.13 67.59
  Q 169.11 68.25 169.76 68.25
  L 172.51 68.25
  Q 173.05 68.25 173.09 67.71
  Q 173.76 58.55 172.74 49.45
  C 171.64 39.64 162.29 40.55 156.52 45.76
  Q 155.93 46.30 156.02 45.51
  Z
  M 231.1586 53.2168
  A 11.19 11.19 0.0 0 0 220.0666 41.9296
  L 217.9867 41.9114
  A 11.19 11.19 0.0 0 0 206.6995 53.0034
  L 206.6614 57.3632
  A 11.19 11.19 0.0 0 0 217.7534 68.6504
  L 219.8333 68.6686
  A 11.19 11.19 0.0 0 0 231.1205 57.5766
  L 231.1586 53.2168
  Z
  M 283.19 62.94
  C 281.44 67.35 274.22 65.30 271.36 63.15
  A 0.43 0.43 0.0 0 0 270.67 63.51
  L 270.77 66.92
  Q 270.79 67.31 271.15 67.47
  C 276.07 69.60 285.69 69.66 287.29 63.14
  C 288.99 56.24 281.61 54.34 276.97 52.19
  C 274.55 51.07 274.21 47.88 276.44 46.31
  C 279.36 44.26 282.90 45.32 285.82 46.90
  Q 286.55 47.29 286.52 46.47
  L 286.45 43.62
  A 0.83 0.83 0.0 0 0 285.93 42.88
  C 280.71 40.80 273.57 41.54 271.20 47.23
  C 267.04 57.24 285.85 56.21 283.19 62.94
  Z
  M 145.50 42.82
  A 0.30 0.30 0.0 0 0 145.20 42.52
  L 141.78 42.52
  A 0.30 0.30 0.0 0 0 141.48 42.82
  L 141.48 67.94
  A 0.30 0.30 0.0 0 0 141.78 68.24
  L 145.20 68.24
  A 0.30 0.30 0.0 0 0 145.50 67.94
  L 145.50 42.82
  Z
  M 258.62 63.44
  L 253.24 43.15
  Q 253.07 42.50 252.40 42.50
  L 249.75 42.50
  Q 249.30 42.50 249.17 42.93
  L 243.14 62.98
  Q 242.92 63.69 242.74 62.98
  Q 240.13 52.96 237.37 42.98
  Q 237.23 42.50 236.73 42.50
  L 233.64 42.50
  Q 232.99 42.50 233.17 43.13
  L 240.46 67.60
  Q 240.66 68.25 241.34 68.25
  L 244.25 68.25
  A 0.62 0.62 0.0 0 0 244.84 67.82
  L 250.77 48.44
  A 0.14 0.14 0.0 0 1 251.04 48.44
  L 256.40 67.59
  Q 256.59 68.25 257.27 68.25
  L 260.13 68.25
  Q 260.80 68.25 260.98 67.62
  L 268.21 43.19
  Q 268.42 42.50 267.70 42.50
  L 264.89 42.50
  Q 264.32 42.50 264.18 43.05
  L 258.91 63.44
  A 0.15 0.15 0.0 0 1 258.62 63.44
  Z
  M 39.25 52.24
  A 0.34 0.34 0.0 0 0 38.91 51.90
  L 15.61 51.71
  A 0.34 0.34 0.0 0 0 15.27 52.05
  L 15.22 71.59
  A 0.34 0.34 0.0 0 0 15.52 71.93
  L 38.86 75.08
  A 0.34 0.34 0.0 0 0 39.25 74.74
  L 39.25 52.24
  Z
  M 74.03 52.63
  A 0.31 0.31 0.0 0 0 73.72 52.32
  L 42.38 52.10
  A 0.31 0.31 0.0 0 0 42.07 52.41
  L 42.22 75.25
  A 0.31 0.31 0.0 0 0 42.48 75.56
  L 73.63 79.97
  A 0.31 0.31 0.0 0 0 73.98 79.66
  L 74.03 52.63
  Z"
/>
<path fill="#377cbe" d="
  M 74.06 22.06
  Q 73.97 35.24 74.02 48.41
  Q 74.03 48.92 73.52 48.93
  L 42.61 49.30
  Q 42.17 49.30 42.17 48.86
  L 42.13 25.85
  A 0.35 0.34 -3.8 0 1 42.43 25.51
  L 73.50 20.98
  A 0.67 0.66 75.4 0 1 74.22 21.41
  Q 74.37 21.78 74.06 22.06
  Z"
/>
<path fill="#377cbe" d="
  M 15.50 29.24
  L 38.84 26.03
  A 0.36 0.36 0.0 0 1 39.25 26.38
  L 39.25 48.87
  A 0.36 0.36 0.0 0 1 38.89 49.23
  L 15.60 49.30
  A 0.36 0.36 0.0 0 1 15.24 48.94
  L 15.19 29.59
  A 0.36 0.36 0.0 0 1 15.50 29.24
  Z"
/>
<circle fill="#377cbe" cx="143.46" cy="33.06" r="2.68"/>
<path fill="#377cbe" d="
  M 197.49 64.91
  A 0.29 0.29 0.0 0 0 196.98 64.73
  C 191.01 72.00 180.16 69.26 178.47 59.98
  C 177.19 52.91 179.16 43.89 187.26 42.01
  Q 192.81 40.71 196.89 45.23
  A 0.35 0.35 0.0 0 0 197.50 44.99
  L 197.50 30.91
  Q 197.50 30.31 198.10 30.30
  L 200.88 30.26
  Q 201.50 30.25 201.50 30.88
  L 201.50 67.75
  Q 201.50 68.25 201.00 68.25
  L 198.15 68.25
  Q 197.49 68.25 197.49 67.59
  L 197.49 64.91
  Z
  M 192.56 45.69
  C 181.99 42.44 179.10 59.20 185.72 64.16
  C 189.01 66.62 193.49 65.52 195.75 62.23
  C 198.70 57.95 198.26 47.43 192.56 45.69
  Z"
/>
<path fill="#377cbe" d="
  M 303.65 38.17
  Q 300.34 40.41 296.55 41.71
  Q 296.02 41.89 296.01 41.33
  L 295.99 38.34
  Q 295.99 37.90 296.39 37.74
  Q 302.24 35.28 307.39 31.56
  A 0.54 0.54 0.0 0 1 308.25 32.00
  L 308.25 67.75
  Q 308.25 68.25 307.75 68.25
  L 304.75 68.25
  Q 304.25 68.25 304.25 67.75
  L 304.25 38.49
  Q 304.25 37.76 303.65 38.17
  Z"
/>
<path fill="#377cbe" d="
  M 319.34 67.65
  C 311.07 63.06 311.86 46.45 314.71 38.99
  C 318.59 28.84 331.85 29.27 334.59 39.93
  C 336.42 47.04 336.86 59.15 331.82 65.19
  C 328.72 68.91 323.42 69.91 319.34 67.65
  Z
  M 321.96 65.04
  C 334.72 70.36 335.06 32.63 323.30 35.32
  C 314.77 37.27 314.97 62.14 321.96 65.04
  Z"
/>
<path fill="#377cbe" d="
  M 115.11 39.90
  L 107.35 67.81
  Q 107.23 68.25 106.77 68.25
  L 102.99 68.25
  A 0.79 0.78 81.5 0 1 102.24 67.69
  L 92.23 33.23
  A 0.57 0.57 0.0 0 1 92.78 32.50
  L 95.95 32.50
  Q 96.65 32.50 96.84 33.18
  L 104.84 62.70
  A 0.01 0.00 40.3 0 0 104.85 62.70
  L 113.19 33.13
  Q 113.33 32.62 113.86 32.57
  L 116.80 32.33
  Q 117.39 32.28 117.55 32.85
  L 125.49 62.25
  Q 125.63 62.78 125.77 62.24
  L 133.33 33.02
  Q 133.47 32.51 134.00 32.51
  L 137.19 32.48
  A 0.62 0.61 -82.4 0 1 137.78 33.26
  L 128.18 67.63
  Q 128.00 68.25 127.36 68.25
  L 123.80 68.25
  Q 123.14 68.25 122.96 67.62
  L 115.26 39.90
  Q 115.18 39.62 115.11 39.90
  Z"
/>
<path fill="#ffffff" d="
  M 323.30 35.32
  C 335.06 32.63 334.72 70.36 321.96 65.04
  C 314.97 62.14 314.77 37.27 323.30 35.32
  Z"
/>
<path fill="#377cbe" d="
  M 156.52 45.76
  C 162.29 40.55 171.64 39.64 172.74 49.45
  Q 173.76 58.55 173.09 67.71
  Q 173.05 68.25 172.51 68.25
  L 169.76 68.25
  Q 169.11 68.25 169.13 67.59
  Q 169.59 57.26 168.93 50.84
  C 168.14 43.24 159.09 43.73 156.78 50.01
  C 155.30 54.05 156.24 63.16 156.25 67.73
  Q 156.26 68.25 155.74 68.25
  L 152.75 68.25
  Q 152.25 68.25 152.25 67.75
  L 152.25 43.00
  Q 152.25 42.50 152.75 42.50
  L 155.81 42.50
  Q 156.38 42.50 156.31 43.07
  L 156.02 45.51
  Q 155.93 46.30 156.52 45.76
  Z"
/>
<path fill="#377cbe" d="
  M 231.1205 57.5766
  A 11.19 11.19 0.0 0 1 219.8333 68.6686
  L 217.7534 68.6504
  A 11.19 11.19 0.0 0 1 206.6614 57.3632
  L 206.6995 53.0034
  A 11.19 11.19 0.0 0 1 217.9867 41.9114
  L 220.0666 41.9296
  A 11.19 11.19 0.0 0 1 231.1586 53.2168
  L 231.1205 57.5766
  Z
  M 218.9679 65.6400
  A 10.27 8.45 89.9 0 0 227.4000 55.3553
  A 10.27 8.45 89.9 0 0 218.9321 45.1000
  A 10.27 8.45 89.9 0 0 210.5000 55.3847
  A 10.27 8.45 89.9 0 0 218.9679 65.6400
  Z"
/>
<path fill="#377cbe" d="
  M 283.19 62.94
  C 285.85 56.21 267.04 57.24 271.20 47.23
  C 273.57 41.54 280.71 40.80 285.93 42.88
  A 0.83 0.83 0.0 0 1 286.45 43.62
  L 286.52 46.47
  Q 286.55 47.29 285.82 46.90
  C 282.90 45.32 279.36 44.26 276.44 46.31
  C 274.21 47.88 274.55 51.07 276.97 52.19
  C 281.61 54.34 288.99 56.24 287.29 63.14
  C 285.69 69.66 276.07 69.60 271.15 67.47
  Q 270.79 67.31 270.77 66.92
  L 270.67 63.51
  A 0.43 0.43 0.0 0 1 271.36 63.15
  C 274.22 65.30 281.44 67.35 283.19 62.94
  Z"
/>
<rect fill="#377cbe" x="141.48" y="42.52" width="4.02" height="25.72" rx="0.30"/>
<path fill="#377cbe" d="
  M 258.62 63.44
  A 0.15 0.15 0.0 0 0 258.91 63.44
  L 264.18 43.05
  Q 264.32 42.50 264.89 42.50
  L 267.70 42.50
  Q 268.42 42.50 268.21 43.19
  L 260.98 67.62
  Q 260.80 68.25 260.13 68.25
  L 257.27 68.25
  Q 256.59 68.25 256.40 67.59
  L 251.04 48.44
  A 0.14 0.14 0.0 0 0 250.77 48.44
  L 244.84 67.82
  A 0.62 0.62 0.0 0 1 244.25 68.25
  L 241.34 68.25
  Q 240.66 68.25 240.46 67.60
  L 233.17 43.13
  Q 232.99 42.50 233.64 42.50
  L 236.73 42.50
  Q 237.23 42.50 237.37 42.98
  Q 240.13 52.96 242.74 62.98
  Q 242.92 63.69 243.14 62.98
  L 249.17 42.93
  Q 249.30 42.50 249.75 42.50
  L 252.40 42.50
  Q 253.07 42.50 253.24 43.15
  L 258.62 63.44
  Z"
/>
<path fill="#ffffff" d="
  M 192.56 45.69
  C 198.26 47.43 198.70 57.95 195.75 62.23
  C 193.49 65.52 189.01 66.62 185.72 64.16
  C 179.10 59.20 181.99 42.44 192.56 45.69
  Z"
/>
<ellipse fill="#ffffff" cx="0.00" cy="0.00" transform="translate(218.95,55.37) rotate(89.9)" rx="10.27" ry="8.45"/>
<path fill="#377cbe" d="
  M 39.25 52.24
  L 39.25 74.74
  A 0.34 0.34 0.0 0 1 38.86 75.08
  L 15.52 71.93
  A 0.34 0.34 0.0 0 1 15.22 71.59
  L 15.27 52.05
  A 0.34 0.34 0.0 0 1 15.61 51.71
  L 38.91 51.90
  A 0.34 0.34 0.0 0 1 39.25 52.24
  Z"
/>
<path fill="#377cbe" d="
  M 74.03 52.63
  L 73.98 79.66
  A 0.31 0.31 0.0 0 1 73.63 79.97
  L 42.48 75.56
  A 0.31 0.31 0.0 0 1 42.22 75.25
  L 42.07 52.41
  A 0.31 0.31 0.0 0 1 42.38 52.10
  L 73.72 52.32
  A 0.31 0.31 0.0 0 1 74.03 52.63
  Z"
/>
</svg>
