<?xml version="1.0" encoding="UTF-8" standalone="no"?>
<!DOCTYPE svg PUBLIC "-//W3C//DTD SVG 1.1//EN" "http://www.w3.org/Graphics/SVG/1.1/DTD/svg11.dtd">
<svg xmlns="http://www.w3.org/2000/svg" version="1.1" viewBox="0.00 0.00 205.00 100.00">
<g stroke-width="2.00" fill="none" stroke-linecap="butt">
<path stroke="#823b86" vector-effect="non-scaling-stroke" d="
  M 13.80 74.77
  Q 14.98 76.75 16.91 77.87
  Q 34.95 88.33 53.06 98.70
  C 55.71 100.22 59.14 99.67 61.96 98.08
  Q 88.71 82.95 98.20 77.20
  Q 98.99 76.72 100.09 74.88"
/>
<path stroke="#8d498d" vector-effect="non-scaling-stroke" d="
  M 100.09 74.88
  Q 101.21 72.96 101.22 70.75
  Q 101.33 56.95 101.22 28.31
  Q 101.21 26.66 99.94 25.21"
/>
<path stroke="#9a5594" vector-effect="non-scaling-stroke" d="
  M 99.94 25.21
  Q 98.91 23.19 96.32 21.68
  Q 79.40 11.79 62.34 2.14
  C 58.32 -0.14 55.65 -0.15 51.80 2.04
  Q 34.84 11.68 17.99 21.51
  C 14.44 23.58 12.81 25.75 12.79 29.75
  Q 12.70 50.53 12.80 71.31
  Q 12.81 73.42 13.80 74.77"
/>
<path stroke="#8e3d8c" vector-effect="non-scaling-stroke" d="
  M 99.94 25.21
  L 82.62 35.20"
/>
<path stroke="#cda4c9" vector-effect="non-scaling-stroke" d="
  M 82.62 35.20
  C 61.54 2.29 13.16 30.34 31.29 64.54"
/>
<path stroke="#822f85" vector-effect="non-scaling-stroke" d="
  M 31.29 64.54
  L 13.80 74.77"
/>
<path stroke="#76237e" vector-effect="non-scaling-stroke" d="
  M 100.09 74.88
  L 84.33 65.75
  Q 83.88 65.49 83.77 64.98
  C 83.43 63.36 74.30 58.43 70.69 56.44
  C 70.02 56.07 69.45 56.25 68.80 56.53
  Q 68.38 56.71 67.99 56.47
  L 57.18 49.88"
/>
<path stroke="#8e3d8c" vector-effect="non-scaling-stroke" d="
  M 57.18 49.88
  L 69.60 42.86"
/>
<path stroke="#c098c2" vector-effect="non-scaling-stroke" d="
  M 82.62 35.20
  L 69.60 42.86"
/>
<path stroke="#cda4c9" vector-effect="non-scaling-stroke" d="
  M 69.60 42.86
  C 59.02 27.10 35.90 40.10 44.47 56.90"
/>
<path stroke="#b58abb" vector-effect="non-scaling-stroke" d="
  M 44.47 56.90
  C 49.87 66.02 63.20 67.19 68.94 57.76
  A 1.25 1.25 0.0 0 1 70.64 57.33
  L 82.44 64.22
  Q 82.87 64.47 82.60 64.89
  C 70.13 84.58 43.51 84.47 31.29 64.54"
/>
<path stroke="#822f85" vector-effect="non-scaling-stroke" d="
  M 57.18 49.88
  L 44.47 56.90"
/>
<path stroke="#4d314b" vector-effect="non-scaling-stroke" d="
  M 164.53 57.53
  L 167.52 57.41
  Q 168.09 57.39 167.97 57.95
  L 166.71 63.78
  Q 166.56 64.50 167.29 64.50
  L 170.16 64.50
  Q 170.84 64.50 170.98 63.83
  L 172.19 57.95
  Q 172.28 57.50 172.74 57.50
  L 177.00 57.50
  Q 177.50 57.50 177.50 57.00
  L 177.50 53.75
  Q 177.50 53.25 177.00 53.25
  L 173.69 53.25
  Q 173.11 53.25 173.23 52.69
  L 174.11 48.63
  A 0.80 0.80 0.0 0 1 174.89 48.00
  L 176.87 48.00
  Q 177.50 48.00 177.50 47.37
  L 177.50 44.52
  Q 177.50 43.98 176.96 43.98
  L 175.49 43.98
  Q 174.94 43.98 175.05 43.44
  L 176.32 37.49
  A 0.62 0.61 -84.2 0 0 175.72 36.75
  L 172.89 36.75
  Q 172.25 36.75 172.13 37.38
  L 170.91 43.42
  A 0.62 0.60 4.6 0 1 170.32 43.91
  L 167.80 43.97
  A 0.77 0.77 0.0 0 1 167.03 43.05
  L 168.13 37.38
  A 0.53 0.53 0.0 0 0 167.61 36.75
  L 164.49 36.75
  Q 164.00 36.75 163.91 37.24
  L 162.78 43.28
  Q 162.70 43.70 162.28 43.80
  Q 160.10 44.32 157.95 43.73
  Q 157.36 43.57 157.36 44.19
  L 157.41 47.46
  Q 157.42 48.00 157.96 48.00
  L 161.14 48.00
  Q 161.71 48.00 161.61 48.56
  L 160.89 52.61
  Q 160.78 53.25 160.13 53.25
  L 158.11 53.25
  Q 157.48 53.25 157.45 53.89
  L 157.33 56.97
  Q 157.30 57.65 157.97 57.52
  L 159.14 57.28
  A 0.51 0.51 0.0 0 1 159.74 57.89
  L 158.51 63.82
  Q 158.37 64.50 159.06 64.50
  L 162.17 64.50
  Q 162.61 64.50 162.71 64.07
  L 164.01 57.97
  Q 164.10 57.55 164.53 57.53"
/>
<path stroke="#4d314b" vector-effect="non-scaling-stroke" d="
  M 155.12 44.25
  C 152.60 36.69 142.69 34.88 136.97 38.97
  C 131.91 42.59 130.66 49.54 132.22 55.27
  C 135.38 66.93 152.52 67.90 155.42 55.97
  Q 155.54 55.45 155.02 55.34
  L 150.62 54.41
  Q 150.11 54.30 149.96 54.80
  Q 148.46 59.67 143.79 59.70
  C 135.81 59.75 135.28 45.81 140.98 42.37
  C 144.53 40.22 147.94 41.74 149.64 45.42
  Q 149.89 45.97 150.48 45.84
  L 154.76 44.88
  Q 155.29 44.76 155.12 44.25"
/>
<path stroke="#c098c2" vector-effect="non-scaling-stroke" d="
  M 85.91 55.77
  A 1.77 1.58 -42.0 0 1 89.25 55.75
  L 89.25 56.90
  Q 89.25 57.55 89.90 57.52
  L 92.07 57.44
  Q 92.56 57.43 92.54 56.94
  L 92.49 55.53
  Q 92.47 55.03 92.97 55.01
  L 94.12 54.97
  A 0.65 0.65 0.0 0 0 94.75 54.32
  L 94.75 52.25
  Q 94.75 51.75 94.25 51.75
  L 93.34 51.75
  Q 92.69 51.75 92.64 51.09
  L 92.49 48.94
  A 0.47 0.46 5.0 0 1 93.07 48.46
  L 94.04 48.71
  A 0.54 0.54 0.0 0 0 94.72 48.21
  L 94.82 45.89
  Q 94.85 45.25 94.21 45.25
  L 92.93 45.25
  Q 92.34 45.25 92.46 44.67
  L 92.70 43.40
  Q 92.83 42.75 92.16 42.75
  L 89.87 42.75
  Q 89.25 42.75 89.25 43.38
  L 89.25 44.75
  Q 89.25 45.25 88.75 45.25
  L 86.35 45.25
  A 0.57 0.57 0.0 0 1 85.80 44.53
  L 86.06 43.64
  Q 86.28 42.84 85.45 42.81
  L 83.08 42.73
  A 0.55 0.54 -6.3 0 0 82.53 43.41
  L 82.78 44.38
  A 0.70 0.69 82.8 0 1 82.11 45.25
  L 80.70 45.25
  Q 80.14 45.25 80.19 45.81
  L 80.42 48.19
  Q 80.49 48.90 81.18 48.72
  L 82.27 48.44
  A 0.47 0.47 0.0 0 1 82.80 49.14
  Q 82.28 50.00 82.71 50.83
  Q 83.08 51.56 82.26 51.53
  L 80.96 51.49
  A 0.62 0.62 0.0 0 0 80.32 52.11
  L 80.32 54.43
  A 0.58 0.57 -1.4 0 0 80.93 55.00
  L 81.93 54.95
  Q 82.50 54.92 82.50 55.49
  L 82.50 56.89
  A 0.63 0.63 0.0 0 0 83.15 57.52
  L 85.72 57.44
  Q 86.46 57.42 86.19 56.73
  Q 85.87 55.93 85.91 55.77"
/>
<path stroke="#4d314b" vector-effect="non-scaling-stroke" d="
  M 168.91 52.58
  L 169.83 48.70
  Q 170.00 48.00 169.28 48.00
  L 166.72 48.00
  A 0.89 0.88 -83.9 0 0 165.86 48.70
  L 165.01 52.72
  Q 164.90 53.22 165.42 53.24
  Q 166.78 53.28 168.17 53.21
  Q 168.77 53.17 168.91 52.58"
/>
<path stroke="#b58abb" vector-effect="non-scaling-stroke" d="
  M 89.2614 49.0011
  A 0.37 0.37 0.0 0 0 88.8986 48.6241
  L 86.4190 48.5765
  A 0.37 0.37 0.0 0 0 86.0420 48.9393
  L 85.9986 51.1989
  A 0.37 0.37 0.0 0 0 86.3614 51.5759
  L 88.8410 51.6235
  A 0.37 0.37 0.0 0 0 89.2180 51.2607
  L 89.2614 49.0011"
/>
</g>
<path fill="#996195" d="
  M 0.00 0.00
  L 205.00 0.00
  L 205.00 100.00
  L 0.00 100.00
  L 0.00 0.00
  Z
  M 13.80 74.77
  Q 14.98 76.75 16.91 77.87
  Q 34.95 88.33 53.06 98.70
  C 55.71 100.22 59.14 99.67 61.96 98.08
  Q 88.71 82.95 98.20 77.20
  Q 98.99 76.72 100.09 74.88
  Q 101.21 72.96 101.22 70.75
  Q 101.33 56.95 101.22 28.31
  Q 101.21 26.66 99.94 25.21
  Q 98.91 23.19 96.32 21.68
  Q 79.40 11.79 62.34 2.14
  C 58.32 -0.14 55.65 -0.15 51.80 2.04
  Q 34.84 11.68 17.99 21.51
  C 14.44 23.58 12.81 25.75 12.79 29.75
  Q 12.70 50.53 12.80 71.31
  Q 12.81 73.42 13.80 74.77
  Z
  M 164.53 57.53
  L 167.52 57.41
  Q 168.09 57.39 167.97 57.95
  L 166.71 63.78
  Q 166.56 64.50 167.29 64.50
  L 170.16 64.50
  Q 170.84 64.50 170.98 63.83
  L 172.19 57.95
  Q 172.28 57.50 172.74 57.50
  L 177.00 57.50
  Q 177.50 57.50 177.50 57.00
  L 177.50 53.75
  Q 177.50 53.25 177.00 53.25
  L 173.69 53.25
  Q 173.11 53.25 173.23 52.69
  L 174.11 48.63
  A 0.80 0.80 0.0 0 1 174.89 48.00
  L 176.87 48.00
  Q 177.50 48.00 177.50 47.37
  L 177.50 44.52
  Q 177.50 43.98 176.96 43.98
  L 175.49 43.98
  Q 174.94 43.98 175.05 43.44
  L 176.32 37.49
  A 0.62 0.61 -84.2 0 0 175.72 36.75
  L 172.89 36.75
  Q 172.25 36.75 172.13 37.38
  L 170.91 43.42
  A 0.62 0.60 4.6 0 1 170.32 43.91
  L 167.80 43.97
  A 0.77 0.77 0.0 0 1 167.03 43.05
  L 168.13 37.38
  A 0.53 0.53 0.0 0 0 167.61 36.75
  L 164.49 36.75
  Q 164.00 36.75 163.91 37.24
  L 162.78 43.28
  Q 162.70 43.70 162.28 43.80
  Q 160.10 44.32 157.95 43.73
  Q 157.36 43.57 157.36 44.19
  L 157.41 47.46
  Q 157.42 48.00 157.96 48.00
  L 161.14 48.00
  Q 161.71 48.00 161.61 48.56
  L 160.89 52.61
  Q 160.78 53.25 160.13 53.25
  L 158.11 53.25
  Q 157.48 53.25 157.45 53.89
  L 157.33 56.97
  Q 157.30 57.65 157.97 57.52
  L 159.14 57.28
  A 0.51 0.51 0.0 0 1 159.74 57.89
  L 158.51 63.82
  Q 158.37 64.50 159.06 64.50
  L 162.17 64.50
  Q 162.61 64.50 162.71 64.07
  L 164.01 57.97
  Q 164.10 57.55 164.53 57.53
  Z
  M 155.12 44.25
  C 152.60 36.69 142.69 34.88 136.97 38.97
  C 131.91 42.59 130.66 49.54 132.22 55.27
  C 135.38 66.93 152.52 67.90 155.42 55.97
  Q 155.54 55.45 155.02 55.34
  L 150.62 54.41
  Q 150.11 54.30 149.96 54.80
  Q 148.46 59.67 143.79 59.70
  C 135.81 59.75 135.28 45.81 140.98 42.37
  C 144.53 40.22 147.94 41.74 149.64 45.42
  Q 149.89 45.97 150.48 45.84
  L 154.76 44.88
  Q 155.29 44.76 155.12 44.25
  Z"
/>
<path fill="#9a4993" d="
  M 99.94 25.21
  L 82.62 35.20
  C 61.54 2.29 13.16 30.34 31.29 64.54
  L 13.80 74.77
  Q 12.81 73.42 12.80 71.31
  Q 12.70 50.53 12.79 29.75
  C 12.81 25.75 14.44 23.58 17.99 21.51
  Q 34.84 11.68 51.80 2.04
  C 55.65 -0.15 58.32 -0.14 62.34 2.14
  Q 79.40 11.79 96.32 21.68
  Q 98.91 23.19 99.94 25.21
  Z"
/>
<path fill="#ffffff" d="
  M 82.62 35.20
  L 69.60 42.86
  C 59.02 27.10 35.90 40.10 44.47 56.90
  C 49.87 66.02 63.20 67.19 68.94 57.76
  A 1.25 1.25 0.0 0 1 70.64 57.33
  L 82.44 64.22
  Q 82.87 64.47 82.60 64.89
  C 70.13 84.58 43.51 84.47 31.29 64.54
  C 13.16 30.34 61.54 2.29 82.62 35.20
  Z"
/>
<path fill="#813084" d="
  M 99.94 25.21
  Q 101.21 26.66 101.22 28.31
  Q 101.33 56.95 101.22 70.75
  Q 101.21 72.96 100.09 74.88
  L 84.33 65.75
  Q 83.88 65.49 83.77 64.98
  C 83.43 63.36 74.30 58.43 70.69 56.44
  C 70.02 56.07 69.45 56.25 68.80 56.53
  Q 68.38 56.71 67.99 56.47
  L 57.18 49.88
  L 69.60 42.86
  L 82.62 35.20
  L 99.94 25.21
  Z
  M 85.91 55.77
  A 1.77 1.58 -42.0 0 1 89.25 55.75
  L 89.25 56.90
  Q 89.25 57.55 89.90 57.52
  L 92.07 57.44
  Q 92.56 57.43 92.54 56.94
  L 92.49 55.53
  Q 92.47 55.03 92.97 55.01
  L 94.12 54.97
  A 0.65 0.65 0.0 0 0 94.75 54.32
  L 94.75 52.25
  Q 94.75 51.75 94.25 51.75
  L 93.34 51.75
  Q 92.69 51.75 92.64 51.09
  L 92.49 48.94
  A 0.47 0.46 5.0 0 1 93.07 48.46
  L 94.04 48.71
  A 0.54 0.54 0.0 0 0 94.72 48.21
  L 94.82 45.89
  Q 94.85 45.25 94.21 45.25
  L 92.93 45.25
  Q 92.34 45.25 92.46 44.67
  L 92.70 43.40
  Q 92.83 42.75 92.16 42.75
  L 89.87 42.75
  Q 89.25 42.75 89.25 43.38
  L 89.25 44.75
  Q 89.25 45.25 88.75 45.25
  L 86.35 45.25
  A 0.57 0.57 0.0 0 1 85.80 44.53
  L 86.06 43.64
  Q 86.28 42.84 85.45 42.81
  L 83.08 42.73
  A 0.55 0.54 -6.3 0 0 82.53 43.41
  L 82.78 44.38
  A 0.70 0.69 82.8 0 1 82.11 45.25
  L 80.70 45.25
  Q 80.14 45.25 80.19 45.81
  L 80.42 48.19
  Q 80.49 48.90 81.18 48.72
  L 82.27 48.44
  A 0.47 0.47 0.0 0 1 82.80 49.14
  Q 82.28 50.00 82.71 50.83
  Q 83.08 51.56 82.26 51.53
  L 80.96 51.49
  A 0.62 0.62 0.0 0 0 80.32 52.11
  L 80.32 54.43
  A 0.58 0.57 -1.4 0 0 80.93 55.00
  L 81.93 54.95
  Q 82.50 54.92 82.50 55.49
  L 82.50 56.89
  A 0.63 0.63 0.0 0 0 83.15 57.52
  L 85.72 57.44
  Q 86.46 57.42 86.19 56.73
  Q 85.87 55.93 85.91 55.77
  Z"
/>
<path fill="#9a4993" d="
  M 69.60 42.86
  L 57.18 49.88
  L 44.47 56.90
  C 35.90 40.10 59.02 27.10 69.60 42.86
  Z"
/>
<path fill="#000000" d="
  M 164.01 57.97
  L 162.71 64.07
  Q 162.61 64.50 162.17 64.50
  L 159.06 64.50
  Q 158.37 64.50 158.51 63.82
  L 159.74 57.89
  A 0.51 0.51 0.0 0 0 159.14 57.28
  L 157.97 57.52
  Q 157.30 57.65 157.33 56.97
  L 157.45 53.89
  Q 157.48 53.25 158.11 53.25
  L 160.13 53.25
  Q 160.78 53.25 160.89 52.61
  L 161.61 48.56
  Q 161.71 48.00 161.14 48.00
  L 157.96 48.00
  Q 157.42 48.00 157.41 47.46
  L 157.36 44.19
  Q 157.36 43.57 157.95 43.73
  Q 160.10 44.32 162.28 43.80
  Q 162.70 43.70 162.78 43.28
  L 163.91 37.24
  Q 164.00 36.75 164.49 36.75
  L 167.61 36.75
  A 0.53 0.53 0.0 0 1 168.13 37.38
  L 167.03 43.05
  A 0.77 0.77 0.0 0 0 167.80 43.97
  L 170.32 43.91
  A 0.62 0.60 4.6 0 0 170.91 43.42
  L 172.13 37.38
  Q 172.25 36.75 172.89 36.75
  L 175.72 36.75
  A 0.62 0.61 -84.2 0 1 176.32 37.49
  L 175.05 43.44
  Q 174.94 43.98 175.49 43.98
  L 176.96 43.98
  Q 177.50 43.98 177.50 44.52
  L 177.50 47.37
  Q 177.50 48.00 176.87 48.00
  L 174.89 48.00
  A 0.80 0.80 0.0 0 0 174.11 48.63
  L 173.23 52.69
  Q 173.11 53.25 173.69 53.25
  L 177.00 53.25
  Q 177.50 53.25 177.50 53.75
  L 177.50 57.00
  Q 177.50 57.50 177.00 57.50
  L 172.74 57.50
  Q 172.28 57.50 172.19 57.95
  L 170.98 63.83
  Q 170.84 64.50 170.16 64.50
  L 167.29 64.50
  Q 166.56 64.50 166.71 63.78
  L 167.97 57.95
  Q 168.09 57.39 167.52 57.41
  L 164.53 57.53
  Q 164.10 57.55 164.01 57.97
  Z
  M 168.91 52.58
  L 169.83 48.70
  Q 170.00 48.00 169.28 48.00
  L 166.72 48.00
  A 0.89 0.88 -83.9 0 0 165.86 48.70
  L 165.01 52.72
  Q 164.90 53.22 165.42 53.24
  Q 166.78 53.28 168.17 53.21
  Q 168.77 53.17 168.91 52.58
  Z"
/>
<path fill="#000000" d="
  M 136.97 38.97
  C 142.69 34.88 152.60 36.69 155.12 44.25
  Q 155.29 44.76 154.76 44.88
  L 150.48 45.84
  Q 149.89 45.97 149.64 45.42
  C 147.94 41.74 144.53 40.22 140.98 42.37
  C 135.28 45.81 135.81 59.75 143.79 59.70
  Q 148.46 59.67 149.96 54.80
  Q 150.11 54.30 150.62 54.41
  L 155.02 55.34
  Q 155.54 55.45 155.42 55.97
  C 152.52 67.90 135.38 66.93 132.22 55.27
  C 130.66 49.54 131.91 42.59 136.97 38.97
  Z"
/>
<path fill="#ffffff" d="
  M 85.91 55.77
  Q 85.87 55.93 86.19 56.73
  Q 86.46 57.42 85.72 57.44
  L 83.15 57.52
  A 0.63 0.63 0.0 0 1 82.50 56.89
  L 82.50 55.49
  Q 82.50 54.92 81.93 54.95
  L 80.93 55.00
  A 0.58 0.57 -1.4 0 1 80.32 54.43
  L 80.32 52.11
  A 0.62 0.62 0.0 0 1 80.96 51.49
  L 82.26 51.53
  Q 83.08 51.56 82.71 50.83
  Q 82.28 50.00 82.80 49.14
  A 0.47 0.47 0.0 0 0 82.27 48.44
  L 81.18 48.72
  Q 80.49 48.90 80.42 48.19
  L 80.19 45.81
  Q 80.14 45.25 80.70 45.25
  L 82.11 45.25
  A 0.70 0.69 82.8 0 0 82.78 44.38
  L 82.53 43.41
  A 0.55 0.54 -6.3 0 1 83.08 42.73
  L 85.45 42.81
  Q 86.28 42.84 86.06 43.64
  L 85.80 44.53
  A 0.57 0.57 0.0 0 0 86.35 45.25
  L 88.75 45.25
  Q 89.25 45.25 89.25 44.75
  L 89.25 43.38
  Q 89.25 42.75 89.87 42.75
  L 92.16 42.75
  Q 92.83 42.75 92.70 43.40
  L 92.46 44.67
  Q 92.34 45.25 92.93 45.25
  L 94.21 45.25
  Q 94.85 45.25 94.82 45.89
  L 94.72 48.21
  A 0.54 0.54 0.0 0 1 94.04 48.71
  L 93.07 48.46
  A 0.47 0.46 5.0 0 0 92.49 48.94
  L 92.64 51.09
  Q 92.69 51.75 93.34 51.75
  L 94.25 51.75
  Q 94.75 51.75 94.75 52.25
  L 94.75 54.32
  A 0.65 0.65 0.0 0 1 94.12 54.97
  L 92.97 55.01
  Q 92.47 55.03 92.49 55.53
  L 92.54 56.94
  Q 92.56 57.43 92.07 57.44
  L 89.90 57.52
  Q 89.25 57.55 89.25 56.90
  L 89.25 55.75
  A 1.77 1.58 -42.0 0 0 85.91 55.77
  Z
  M 89.2614 49.0011
  A 0.37 0.37 0.0 0 0 88.8986 48.6241
  L 86.4190 48.5765
  A 0.37 0.37 0.0 0 0 86.0420 48.9393
  L 85.9986 51.1989
  A 0.37 0.37 0.0 0 0 86.3614 51.5759
  L 88.8410 51.6235
  A 0.37 0.37 0.0 0 0 89.2180 51.2607
  L 89.2614 49.0011
  Z"
/>
<path fill="#996195" d="
  M 168.17 53.21
  Q 166.78 53.28 165.42 53.24
  Q 164.90 53.22 165.01 52.72
  L 165.86 48.70
  A 0.89 0.88 -83.9 0 1 166.72 48.00
  L 169.28 48.00
  Q 170.00 48.00 169.83 48.70
  L 168.91 52.58
  Q 168.77 53.17 168.17 53.21
  Z"
/>
<rect fill="#6a1577" x="-1.61" y="-1.50" transform="translate(87.63,50.10) rotate(1.1)" width="3.22" height="3.00" rx="0.37"/>
<path fill="#6a1577" d="
  M 57.18 49.88
  L 67.99 56.47
  Q 68.38 56.71 68.80 56.53
  C 69.45 56.25 70.02 56.07 70.69 56.44
  C 74.30 58.43 83.43 63.36 83.77 64.98
  Q 83.88 65.49 84.33 65.75
  L 100.09 74.88
  Q 98.99 76.72 98.20 77.20
  Q 88.71 82.95 61.96 98.08
  C 59.14 99.67 55.71 100.22 53.06 98.70
  Q 34.95 88.33 16.91 77.87
  Q 14.98 76.75 13.80 74.77
  L 31.29 64.54
  C 43.51 84.47 70.13 84.58 82.60 64.89
  Q 82.87 64.47 82.44 64.22
  L 70.64 57.33
  A 1.25 1.25 0.0 0 0 68.94 57.76
  C 63.20 67.19 49.87 66.02 44.47 56.90
  L 57.18 49.88
  Z"
/>
</svg>
