<?xml version="1.0" encoding="UTF-8" standalone="no"?>
<!DOCTYPE svg PUBLIC "-//W3C//DTD SVG 1.1//EN" "http://www.w3.org/Graphics/SVG/1.1/DTD/svg11.dtd">
<svg xmlns="http://www.w3.org/2000/svg" version="1.1" viewBox="0.00 0.00 179.00 100.00">
<g stroke-width="2.00" fill="none" stroke-linecap="butt">
<path stroke="#545fa8" vector-effect="non-scaling-stroke" d="
  M 11.64 73.17
  Q 12.34 73.71 12.14 73.29"
/>
<path stroke="#414ea3" vector-effect="non-scaling-stroke" d="
  M 12.14 73.29
  Q 11.83 73.78 11.93 74.24
  Q 12.04 74.72 12.48 74.97
  Q 32.89 86.36 53.32 97.73
  C 54.22 98.24 56.02 98.09 56.92 97.59
  Q 88.73 80.14 97.52 75.04
  Q 98.87 74.26 98.89 71.43"
/>
<path stroke="#5c69b3" vector-effect="non-scaling-stroke" d="
  M 98.89 71.43
  Q 99.26 46.25 98.81 25.94
  Q 98.79 25.06 97.76 24.47"
/>
<path stroke="#6e7abe" vector-effect="non-scaling-stroke" d="
  M 97.76 24.47
  Q 97.05 23.75 94.79 22.48
  Q 78.45 13.32 62.09 4.20
  C 59.89 2.98 57.54 2.06 55.24 1.09
  A 1.19 1.16 -44.3 0 0 54.31 1.09
  C 47.45 4.14 39.47 9.03 34.67 11.65
  C 31.55 13.35 11.49 23.55 11.40 26.00
  Q 10.57 48.92 11.27 71.84
  C 11.29 72.21 11.57 72.80 11.64 73.17"
/>
<path stroke="#4b5bb5" vector-effect="non-scaling-stroke" d="
  M 97.76 24.47
  C 95.15 26.11 85.70 32.54 83.18 32.56"
/>
<path stroke="#aeb5df" vector-effect="non-scaling-stroke" d="
  M 83.18 32.56
  C 60.15 -3.01 7.24 26.59 26.25 65.78"
/>
<path stroke="#3140a4" vector-effect="non-scaling-stroke" d="
  M 26.25 65.78
  Q 25.31 65.58 24.73 66.34"
/>
<path stroke="#4351a9" vector-effect="non-scaling-stroke" d="
  M 24.73 66.34
  L 13.66 72.64
  Q 13.25 72.88 12.79 72.96
  L 11.64 73.17"
/>
<path stroke="#17258e" vector-effect="non-scaling-stroke" d="
  M 97.50 73.92
  Q 97.05 74.45 96.32 74.84
  Q 80.25 83.35 64.47 92.40
  C 61.92 93.86 55.97 98.22 53.06 96.63
  Q 43.47 91.37 33.90 86.08
  C 29.63 83.71 21.65 78.74 15.14 75.68
  Q 14.69 75.47 14.38 75.06
  Q 13.37 73.69 12.14 73.29"
/>
<path stroke="#1f2e9a" vector-effect="non-scaling-stroke" d="
  M 98.89 71.43
  L 97.50 73.92"
/>
<path stroke="#31409f" vector-effect="non-scaling-stroke" d="
  M 97.50 73.92
  Q 91.37 69.73 84.77 66.66"
/>
<path stroke="#1f2e9a" vector-effect="non-scaling-stroke" d="
  M 84.77 66.66
  C 84.94 65.66 83.95 65.17 83.97 65.63"
/>
<path stroke="#1f2e9a" vector-effect="non-scaling-stroke" d="
  M 68.54 58.25
  Q 68.65 57.75 67.79 57.64"
/>
<path stroke="#31409f" vector-effect="non-scaling-stroke" d="
  M 67.79 57.64
  Q 61.29 53.09 53.75 49.71"
/>
<path stroke="#4b5bb5" vector-effect="non-scaling-stroke" d="
  M 53.75 49.71
  L 69.20 41.24"
/>
<path stroke="#17258e" vector-effect="non-scaling-stroke" d="
  M 84.77 66.66
  C 73.06 85.32 49.78 90.04 32.66 75.27
  Q 28.61 71.77 24.73 66.34"
/>
<path stroke="#414ea3" vector-effect="non-scaling-stroke" d="
  M 44.22 80.79
  Q 48.36 82.79 53.39 82.58"
/>
<path stroke="#9ca4d4" vector-effect="non-scaling-stroke" d="
  M 83.18 32.56
  Q 83.32 32.64 83.38 32.73
  Q 83.51 32.89 83.33 33.00
  L 69.20 41.24"
/>
<path stroke="#aeb5df" vector-effect="non-scaling-stroke" d="
  M 69.20 41.24
  C 56.37 24.00 31.39 38.85 40.64 57.10"
/>
<path stroke="#8189c4" vector-effect="non-scaling-stroke" d="
  M 40.64 57.10
  Q 48.46 68.93 61.69 64.19
  Q 65.77 62.72 68.54 58.25"
/>
<path stroke="#9ca4d4" vector-effect="non-scaling-stroke" d="
  M 68.54 58.25
  Q 69.17 57.59 69.66 57.87
  Q 76.49 61.74 83.97 65.63"
/>
<path stroke="#8189c4" vector-effect="non-scaling-stroke" d="
  M 83.97 65.63
  Q 73.14 82.88 53.39 82.58"
/>
<path stroke="#bec3dd" vector-effect="non-scaling-stroke" d="
  M 53.39 82.58
  L 44.22 80.79"
/>
<path stroke="#8189c4" vector-effect="non-scaling-stroke" d="
  M 44.22 80.79
  Q 32.49 76.37 26.25 65.78"
/>
<path stroke="#17258e" vector-effect="non-scaling-stroke" d="
  M 67.79 57.64
  C 61.15 66.70 47.81 66.41 41.71 56.72"
/>
<path stroke="#4351a9" vector-effect="non-scaling-stroke" d="
  M 53.75 49.71
  L 41.71 56.72"
/>
<path stroke="#3140a4" vector-effect="non-scaling-stroke" d="
  M 41.71 56.72
  Q 41.25 56.65 40.64 57.10"
/>
<path stroke="#3f445e" vector-effect="non-scaling-stroke" d="
  M 152.76 43.46
  C 149.71 34.28 137.87 33.48 132.43 40.75
  Q 127.60 47.21 130.76 55.55
  C 134.80 66.24 150.11 66.21 153.16 54.90
  Q 153.31 54.34 152.75 54.24
  L 150.37 53.79
  Q 149.94 53.70 149.78 54.11
  Q 146.53 62.42 138.81 59.65
  C 131.44 57.01 131.72 42.66 138.72 39.58
  C 142.69 37.84 147.65 39.33 149.01 44.02
  A 0.56 0.56 0.0 0 0 149.65 44.42
  L 152.51 43.89
  Q 152.88 43.82 152.76 43.46"
/>
</g>
<path fill="#7e88bc" d="
  M 0.00 0.00
  L 179.00 0.00
  L 179.00 100.00
  L 0.00 100.00
  L 0.00 0.00
  Z
  M 11.64 73.17
  Q 12.34 73.71 12.14 73.29
  Q 11.83 73.78 11.93 74.24
  Q 12.04 74.72 12.48 74.97
  Q 32.89 86.36 53.32 97.73
  C 54.22 98.24 56.02 98.09 56.92 97.59
  Q 88.73 80.14 97.52 75.04
  Q 98.87 74.26 98.89 71.43
  Q 99.26 46.25 98.81 25.94
  Q 98.79 25.06 97.76 24.47
  Q 97.05 23.75 94.79 22.48
  Q 78.45 13.32 62.09 4.20
  C 59.89 2.98 57.54 2.06 55.24 1.09
  A 1.19 1.16 -44.3 0 0 54.31 1.09
  C 47.45 4.14 39.47 9.03 34.67 11.65
  C 31.55 13.35 11.49 23.55 11.40 26.00
  Q 10.57 48.92 11.27 71.84
  C 11.29 72.21 11.57 72.80 11.64 73.17
  Z
  M 152.76 43.46
  C 149.71 34.28 137.87 33.48 132.43 40.75
  Q 127.60 47.21 130.76 55.55
  C 134.80 66.24 150.11 66.21 153.16 54.90
  Q 153.31 54.34 152.75 54.24
  L 150.37 53.79
  Q 149.94 53.70 149.78 54.11
  Q 146.53 62.42 138.81 59.65
  C 131.44 57.01 131.72 42.66 138.72 39.58
  C 142.69 37.84 147.65 39.33 149.01 44.02
  A 0.56 0.56 0.0 0 0 149.65 44.42
  L 152.51 43.89
  Q 152.88 43.82 152.76 43.46
  Z"
/>
<path fill="#5d6cbf" d="
  M 97.76 24.47
  C 95.15 26.11 85.70 32.54 83.18 32.56
  C 60.15 -3.01 7.24 26.59 26.25 65.78
  Q 25.31 65.58 24.73 66.34
  L 13.66 72.64
  Q 13.25 72.88 12.79 72.96
  L 11.64 73.17
  C 11.57 72.80 11.29 72.21 11.27 71.84
  Q 10.57 48.92 11.40 26.00
  C 11.49 23.55 31.55 13.35 34.67 11.65
  C 39.47 9.03 47.45 4.14 54.31 1.09
  A 1.19 1.16 -44.3 0 1 55.24 1.09
  C 57.54 2.06 59.89 2.98 62.09 4.20
  Q 78.45 13.32 94.79 22.48
  Q 97.05 23.75 97.76 24.47
  Z"
/>
<path fill="#fefefe" d="
  M 83.18 32.56
  Q 83.32 32.64 83.38 32.73
  Q 83.51 32.89 83.33 33.00
  L 69.20 41.24
  C 56.37 24.00 31.39 38.85 40.64 57.10
  Q 48.46 68.93 61.69 64.19
  Q 65.77 62.72 68.54 58.25
  Q 69.17 57.59 69.66 57.87
  Q 76.49 61.74 83.97 65.63
  Q 73.14 82.88 53.39 82.58
  L 44.22 80.79
  Q 32.49 76.37 26.25 65.78
  C 7.24 26.59 60.15 -3.01 83.18 32.56
  Z"
/>
<path fill="#3949aa" d="
  M 97.76 24.47
  Q 98.79 25.06 98.81 25.94
  Q 99.26 46.25 98.89 71.43
  L 97.50 73.92
  Q 91.37 69.73 84.77 66.66
  C 84.94 65.66 83.95 65.17 83.97 65.63
  Q 76.49 61.74 69.66 57.87
  Q 69.17 57.59 68.54 58.25
  Q 68.65 57.75 67.79 57.64
  Q 61.29 53.09 53.75 49.71
  L 69.20 41.24
  L 83.33 33.00
  Q 83.51 32.89 83.38 32.73
  Q 83.32 32.64 83.18 32.56
  C 85.70 32.54 95.15 26.11 97.76 24.47
  Z"
/>
<path fill="#5d6cbf" d="
  M 69.20 41.24
  L 53.75 49.71
  L 41.71 56.72
  Q 41.25 56.65 40.64 57.10
  C 31.39 38.85 56.37 24.00 69.20 41.24
  Z"
/>
<path fill="#000000" d="
  M 132.43 40.75
  C 137.87 33.48 149.71 34.28 152.76 43.46
  Q 152.88 43.82 152.51 43.89
  L 149.65 44.42
  A 0.56 0.56 0.0 0 1 149.01 44.02
  C 147.65 39.33 142.69 37.84 138.72 39.58
  C 131.72 42.66 131.44 57.01 138.81 59.65
  Q 146.53 62.42 149.78 54.11
  Q 149.94 53.70 150.37 53.79
  L 152.75 54.24
  Q 153.31 54.34 153.16 54.90
  C 150.11 66.21 134.80 66.24 130.76 55.55
  Q 127.60 47.21 132.43 40.75
  Z"
/>
<path fill="#293693" d="
  M 53.75 49.71
  Q 61.29 53.09 67.79 57.64
  C 61.15 66.70 47.81 66.41 41.71 56.72
  L 53.75 49.71
  Z"
/>
<path fill="#041389" d="
  M 41.71 56.72
  C 47.81 66.41 61.15 66.70 67.79 57.64
  Q 68.65 57.75 68.54 58.25
  Q 65.77 62.72 61.69 64.19
  Q 48.46 68.93 40.64 57.10
  Q 41.25 56.65 41.71 56.72
  Z"
/>
<path fill="#041389" d="
  M 83.97 65.63
  C 83.95 65.17 84.94 65.66 84.77 66.66
  C 73.06 85.32 49.78 90.04 32.66 75.27
  Q 28.61 71.77 24.73 66.34
  Q 25.31 65.58 26.25 65.78
  Q 32.49 76.37 44.22 80.79
  Q 48.36 82.79 53.39 82.58
  Q 73.14 82.88 83.97 65.63
  Z"
/>
<path fill="#293693" d="
  M 24.73 66.34
  Q 28.61 71.77 32.66 75.27
  C 49.78 90.04 73.06 85.32 84.77 66.66
  Q 91.37 69.73 97.50 73.92
  Q 97.05 74.45 96.32 74.84
  Q 80.25 83.35 64.47 92.40
  C 61.92 93.86 55.97 98.22 53.06 96.63
  Q 43.47 91.37 33.90 86.08
  C 29.63 83.71 21.65 78.74 15.14 75.68
  Q 14.69 75.47 14.38 75.06
  Q 13.37 73.69 12.14 73.29
  Q 12.34 73.71 11.64 73.17
  L 12.79 72.96
  Q 13.25 72.88 13.66 72.64
  L 24.73 66.34
  Z"
/>
<path fill="#041389" d="
  M 98.89 71.43
  Q 98.87 74.26 97.52 75.04
  Q 88.73 80.14 56.92 97.59
  C 56.02 98.09 54.22 98.24 53.32 97.73
  Q 32.89 86.36 12.48 74.97
  Q 12.04 74.72 11.93 74.24
  Q 11.83 73.78 12.14 73.29
  Q 13.37 73.69 14.38 75.06
  Q 14.69 75.47 15.14 75.68
  C 21.65 78.74 29.63 83.71 33.90 86.08
  Q 43.47 91.37 53.06 96.63
  C 55.97 98.22 61.92 93.86 64.47 92.40
  Q 80.25 83.35 96.32 74.84
  Q 97.05 74.45 97.50 73.92
  L 98.89 71.43
  Z"
/>
<path fill="#7e88bc" d="
  M 44.22 80.79
  L 53.39 82.58
  Q 48.36 82.79 44.22 80.79
  Z"
/>
</svg>
