<?xml version="1.0" encoding="UTF-8" standalone="no"?>
<!DOCTYPE svg PUBLIC "-//W3C//DTD SVG 1.1//EN" "http://www.w3.org/Graphics/SVG/1.1/DTD/svg11.dtd">
<svg xmlns="http://www.w3.org/2000/svg" version="1.1" viewBox="0.00 0.00 205.00 100.00">
<g stroke-width="2.00" fill="none" stroke-linecap="butt">
<path stroke="#1e76b5" vector-effect="non-scaling-stroke" d="
  M 13.38 74.79
  Q 14.05 75.91 15.34 76.64
  Q 34.67 87.59 54.05 98.46
  C 57.06 100.15 58.59 100.30 61.77 98.53
  Q 81.46 87.60 101.03 76.47
  C 101.57 76.16 102.00 75.60 102.44 75.13"
/>
<path stroke="#1e8ccd" vector-effect="non-scaling-stroke" d="
  M 102.44 75.13
  C 104.05 73.70 103.25 33.66 103.24 28.45
  C 103.24 26.61 102.42 24.12 100.95 23.29
  Q 81.08 12.15 61.21 1.02
  Q 58.02 -0.76 55.43 0.69
  Q 35.47 11.78 15.57 23.01
  C 13.65 24.09 12.76 25.97 12.76 28.00
  Q 12.73 50.59 12.77 73.19
  Q 12.77 73.99 13.38 74.79"
/>
<path stroke="#006ab5" vector-effect="non-scaling-stroke" d="
  M 102.44 75.13
  L 87.06 66.51"
/>
<path stroke="#7fbfe5" vector-effect="non-scaling-stroke" d="
  M 87.06 66.51
  L 72.19 58.33"
/>
<path stroke="#006ab5" vector-effect="non-scaling-stroke" d="
  M 72.19 58.33
  L 57.62 50.32
  A 1.35 1.35 0.0 0 0 56.30 50.32
  L 43.42 57.54"
/>
<path stroke="#7fbfe5" vector-effect="non-scaling-stroke" d="
  M 43.42 57.54
  C 34.48 38.70 59.89 24.04 71.81 41.14
  Q 72.11 41.57 72.57 41.31
  L 86.40 33.39
  Q 86.88 33.12 86.57 32.65
  C 62.96 -3.44 9.56 26.91 28.68 66.08"
/>
<path stroke="#006ab5" vector-effect="non-scaling-stroke" d="
  M 28.68 66.08
  L 13.38 74.79"
/>
<path stroke="#7fa9ce" vector-effect="non-scaling-stroke" d="
  M 43.42 57.54
  C 49.88 68.91 64.97 69.43 72.19 58.33"
/>
<path stroke="#7fa9ce" vector-effect="non-scaling-stroke" d="
  M 87.06 66.51
  C 73.07 89.09 42.16 89.08 28.68 66.08"
/>
<path stroke="#1e4c67" vector-effect="non-scaling-stroke" d="
  M 141.14 45.21
  C 137.22 33.96 120.23 36.09 118.04 47.75
  C 116.72 54.75 118.81 63.45 126.92 64.96
  Q 138.03 67.03 141.59 56.94
  A 0.48 0.47 14.6 0 0 141.22 56.32
  L 136.71 55.47
  Q 136.16 55.37 135.93 55.88
  C 134.36 59.36 131.79 62.07 127.72 60.31
  C 121.80 57.75 121.68 45.99 127.05 43.28
  Q 133.00 40.29 135.65 46.51
  Q 135.85 46.98 136.35 46.87
  L 140.78 45.85
  A 0.49 0.49 0.0 0 0 141.14 45.21"
/>
<path stroke="#1e4c67" vector-effect="non-scaling-stroke" d="
  M 151.74 55.02
  C 155.10 55.01 159.18 55.09 161.89 53.18
  C 165.77 50.44 166.47 44.22 162.98 40.65
  C 159.98 37.58 151.47 38.12 146.22 38.30
  Q 145.74 38.32 145.74 38.80
  L 145.78 64.51
  Q 145.78 65.00 146.26 65.00
  L 150.75 65.00
  Q 151.25 65.00 151.25 64.50
  L 151.25 55.52
  Q 151.25 55.02 151.74 55.02"
/>
<path stroke="#1e4c67" vector-effect="non-scaling-stroke" d="
  M 185.03 39.99
  C 181.16 37.59 173.92 38.09 169.45 38.31
  Q 169.00 38.33 169.00 38.78
  L 169.00 64.50
  Q 169.00 65.00 169.50 65.00
  L 173.72 65.00
  Q 174.43 65.00 174.44 64.28
  L 174.48 55.63
  Q 174.49 55.07 175.05 55.05
  C 178.31 54.93 182.35 55.01 184.93 53.31
  C 189.10 50.56 189.74 42.91 185.03 39.99"
/>
<path stroke="#7fbfe5" vector-effect="non-scaling-stroke" d="
  M 79.82 47.50
  A 0.32 0.32 0.0 0 1 79.50 47.18
  L 79.50 42.94
  A 0.32 0.32 0.0 0 0 79.17 42.62
  L 74.81 42.76
  A 0.32 0.32 0.0 0 0 74.50 43.08
  L 74.50 47.18
  A 0.32 0.32 0.0 0 1 74.18 47.50
  L 70.13 47.50
  A 0.32 0.32 0.0 0 0 69.81 47.81
  L 69.61 52.17
  A 0.32 0.32 0.0 0 0 69.93 52.50
  L 74.18 52.50
  A 0.32 0.32 0.0 0 1 74.50 52.82
  L 74.50 57.20
  A 0.32 0.32 0.0 0 0 74.83 57.52
  L 79.19 57.46
  A 0.32 0.32 0.0 0 0 79.50 57.14
  L 79.50 52.82
  A 0.32 0.32 0.0 0 1 79.82 52.50
  L 83.88 52.50
  A 0.32 0.32 0.0 0 0 84.20 52.19
  L 84.36 47.83
  A 0.32 0.32 0.0 0 0 84.04 47.50
  L 79.82 47.50"
/>
<path stroke="#7fbfe5" vector-effect="non-scaling-stroke" d="
  M 96.19 47.09
  L 96.27 43.24
  Q 96.28 42.70 95.74 42.68
  L 91.89 42.50
  Q 91.25 42.47 91.25 43.11
  L 91.25 47.00
  A 0.50 0.50 0.0 0 1 90.75 47.50
  L 86.88 47.50
  Q 86.25 47.50 86.25 48.12
  L 86.25 51.87
  Q 86.25 52.50 86.88 52.50
  L 90.75 52.50
  A 0.50 0.50 0.0 0 1 91.25 53.00
  L 91.25 56.93
  Q 91.25 57.63 91.94 57.54
  L 94.20 57.24
  Q 94.60 57.18 94.99 57.27
  C 97.02 57.74 96.19 54.02 96.09 53.00
  A 0.46 0.46 0.0 0 1 96.55 52.50
  L 100.25 52.50
  Q 100.75 52.50 100.75 52.00
  L 100.75 48.13
  Q 100.75 47.51 100.13 47.51
  L 96.58 47.49
  Q 96.19 47.49 96.19 47.09"
/>
<path stroke="#1e4c67" vector-effect="non-scaling-stroke" d="
  M 151.24 43.38
  L 151.24 49.90
  A 0.58 0.58 0.0 0 0 151.82 50.48
  L 155.56 50.48
  A 3.96 3.18 0.0 0 0 159.52 47.30
  L 159.52 45.98
  A 3.96 3.18 0.0 0 0 155.56 42.80
  L 151.82 42.80
  A 0.58 0.58 0.0 0 0 151.24 43.38"
/>
<path stroke="#1e4c67" vector-effect="non-scaling-stroke" d="
  M 174.40 43.03
  L 174.38 50.19
  A 0.28 0.28 0.0 0 0 174.66 50.47
  L 178.52 50.48
  A 4.22 3.54 0.2 0 0 182.75 46.95
  L 182.75 46.31
  A 4.22 3.54 0.2 0 0 178.54 42.76
  L 174.68 42.75
  A 0.28 0.28 0.0 0 0 174.40 43.03"
/>
</g>
<path fill="#3c97cd" d="
  M 0.00 0.00
  L 205.00 0.00
  L 205.00 100.00
  L 0.00 100.00
  L 0.00 0.00
  Z
  M 13.38 74.79
  Q 14.05 75.91 15.34 76.64
  Q 34.67 87.59 54.05 98.46
  C 57.06 100.15 58.59 100.30 61.77 98.53
  Q 81.46 87.60 101.03 76.47
  C 101.57 76.16 102.00 75.60 102.44 75.13
  C 104.05 73.70 103.25 33.66 103.24 28.45
  C 103.24 26.61 102.42 24.12 100.95 23.29
  Q 81.08 12.15 61.21 1.02
  Q 58.02 -0.76 55.43 0.69
  Q 35.47 11.78 15.57 23.01
  C 13.65 24.09 12.76 25.97 12.76 28.00
  Q 12.73 50.59 12.77 73.19
  Q 12.77 73.99 13.38 74.79
  Z
  M 141.14 45.21
  C 137.22 33.96 120.23 36.09 118.04 47.75
  C 116.72 54.75 118.81 63.45 126.92 64.96
  Q 138.03 67.03 141.59 56.94
  A 0.48 0.47 14.6 0 0 141.22 56.32
  L 136.71 55.47
  Q 136.16 55.37 135.93 55.88
  C 134.36 59.36 131.79 62.07 127.72 60.31
  C 121.80 57.75 121.68 45.99 127.05 43.28
  Q 133.00 40.29 135.65 46.51
  Q 135.85 46.98 136.35 46.87
  L 140.78 45.85
  A 0.49 0.49 0.0 0 0 141.14 45.21
  Z
  M 151.74 55.02
  C 155.10 55.01 159.18 55.09 161.89 53.18
  C 165.77 50.44 166.47 44.22 162.98 40.65
  C 159.98 37.58 151.47 38.12 146.22 38.30
  Q 145.74 38.32 145.74 38.80
  L 145.78 64.51
  Q 145.78 65.00 146.26 65.00
  L 150.75 65.00
  Q 151.25 65.00 151.25 64.50
  L 151.25 55.52
  Q 151.25 55.02 151.74 55.02
  Z
  M 185.03 39.99
  C 181.16 37.59 173.92 38.09 169.45 38.31
  Q 169.00 38.33 169.00 38.78
  L 169.00 64.50
  Q 169.00 65.00 169.50 65.00
  L 173.72 65.00
  Q 174.43 65.00 174.44 64.28
  L 174.48 55.63
  Q 174.49 55.07 175.05 55.05
  C 178.31 54.93 182.35 55.01 184.93 53.31
  C 189.10 50.56 189.74 42.91 185.03 39.99
  Z"
/>
<path fill="#0080cc" d="
  M 102.44 75.13
  L 87.06 66.51
  L 72.19 58.33
  L 57.62 50.32
  A 1.35 1.35 0.0 0 0 56.30 50.32
  L 43.42 57.54
  C 34.48 38.70 59.89 24.04 71.81 41.14
  Q 72.11 41.57 72.57 41.31
  L 86.40 33.39
  Q 86.88 33.12 86.57 32.65
  C 62.96 -3.44 9.56 26.91 28.68 66.08
  L 13.38 74.79
  Q 12.77 73.99 12.77 73.19
  Q 12.73 50.59 12.76 28.00
  C 12.76 25.97 13.65 24.09 15.57 23.01
  Q 35.47 11.78 55.43 0.69
  Q 58.02 -0.76 61.21 1.02
  Q 81.08 12.15 100.95 23.29
  C 102.42 24.12 103.24 26.61 103.24 28.45
  C 103.25 33.66 104.05 73.70 102.44 75.13
  Z
  M 79.82 47.50
  A 0.32 0.32 0.0 0 1 79.50 47.18
  L 79.50 42.94
  A 0.32 0.32 0.0 0 0 79.17 42.62
  L 74.81 42.76
  A 0.32 0.32 0.0 0 0 74.50 43.08
  L 74.50 47.18
  A 0.32 0.32 0.0 0 1 74.18 47.50
  L 70.13 47.50
  A 0.32 0.32 0.0 0 0 69.81 47.81
  L 69.61 52.17
  A 0.32 0.32 0.0 0 0 69.93 52.50
  L 74.18 52.50
  A 0.32 0.32 0.0 0 1 74.50 52.82
  L 74.50 57.20
  A 0.32 0.32 0.0 0 0 74.83 57.52
  L 79.19 57.46
  A 0.32 0.32 0.0 0 0 79.50 57.14
  L 79.50 52.82
  A 0.32 0.32 0.0 0 1 79.82 52.50
  L 83.88 52.50
  A 0.32 0.32 0.0 0 0 84.20 52.19
  L 84.36 47.83
  A 0.32 0.32 0.0 0 0 84.04 47.50
  L 79.82 47.50
  Z
  M 96.19 47.09
  L 96.27 43.24
  Q 96.28 42.70 95.74 42.68
  L 91.89 42.50
  Q 91.25 42.47 91.25 43.11
  L 91.25 47.00
  A 0.50 0.50 0.0 0 1 90.75 47.50
  L 86.88 47.50
  Q 86.25 47.50 86.25 48.12
  L 86.25 51.87
  Q 86.25 52.50 86.88 52.50
  L 90.75 52.50
  A 0.50 0.50 0.0 0 1 91.25 53.00
  L 91.25 56.93
  Q 91.25 57.63 91.94 57.54
  L 94.20 57.24
  Q 94.60 57.18 94.99 57.27
  C 97.02 57.74 96.19 54.02 96.09 53.00
  A 0.46 0.46 0.0 0 1 96.55 52.50
  L 100.25 52.50
  Q 100.75 52.50 100.75 52.00
  L 100.75 48.13
  Q 100.75 47.51 100.13 47.51
  L 96.58 47.49
  Q 96.19 47.49 96.19 47.09
  Z"
/>
<path fill="#fefefe" d="
  M 43.42 57.54
  C 49.88 68.91 64.97 69.43 72.19 58.33
  L 87.06 66.51
  C 73.07 89.09 42.16 89.08 28.68 66.08
  C 9.56 26.91 62.96 -3.44 86.57 32.65
  Q 86.88 33.12 86.40 33.39
  L 72.57 41.31
  Q 72.11 41.57 71.81 41.14
  C 59.89 24.04 34.48 38.70 43.42 57.54
  Z"
/>
<path fill="#000000" d="
  M 118.04 47.75
  C 120.23 36.09 137.22 33.96 141.14 45.21
  A 0.49 0.49 0.0 0 1 140.78 45.85
  L 136.35 46.87
  Q 135.85 46.98 135.65 46.51
  Q 133.00 40.29 127.05 43.28
  C 121.68 45.99 121.80 57.75 127.72 60.31
  C 131.79 62.07 134.36 59.36 135.93 55.88
  Q 136.16 55.37 136.71 55.47
  L 141.22 56.32
  A 0.48 0.47 14.6 0 1 141.59 56.94
  Q 138.03 67.03 126.92 64.96
  C 118.81 63.45 116.72 54.75 118.04 47.75
  Z"
/>
<path fill="#000000" d="
  M 151.25 55.52
  L 151.25 64.50
  Q 151.25 65.00 150.75 65.00
  L 146.26 65.00
  Q 145.78 65.00 145.78 64.51
  L 145.74 38.80
  Q 145.74 38.32 146.22 38.30
  C 151.47 38.12 159.98 37.58 162.98 40.65
  C 166.47 44.22 165.77 50.44 161.89 53.18
  C 159.18 55.09 155.10 55.01 151.74 55.02
  Q 151.25 55.02 151.25 55.52
  Z
  M 151.24 43.38
  L 151.24 49.90
  A 0.58 0.58 0.0 0 0 151.82 50.48
  L 155.56 50.48
  A 3.96 3.18 0.0 0 0 159.52 47.30
  L 159.52 45.98
  A 3.96 3.18 0.0 0 0 155.56 42.80
  L 151.82 42.80
  A 0.58 0.58 0.0 0 0 151.24 43.38
  Z"
/>
<path fill="#000000" d="
  M 185.03 39.99
  C 189.74 42.91 189.10 50.56 184.93 53.31
  C 182.35 55.01 178.31 54.93 175.05 55.05
  Q 174.49 55.07 174.48 55.63
  L 174.44 64.28
  Q 174.43 65.00 173.72 65.00
  L 169.50 65.00
  Q 169.00 65.00 169.00 64.50
  L 169.00 38.78
  Q 169.00 38.33 169.45 38.31
  C 173.92 38.09 181.16 37.59 185.03 39.99
  Z
  M 174.40 43.03
  L 174.38 50.19
  A 0.28 0.28 0.0 0 0 174.66 50.47
  L 178.52 50.48
  A 4.22 3.54 0.2 0 0 182.75 46.95
  L 182.75 46.31
  A 4.22 3.54 0.2 0 0 178.54 42.76
  L 174.68 42.75
  A 0.28 0.28 0.0 0 0 174.40 43.03
  Z"
/>
<path fill="#fefefe" d="
  M 79.82 47.50
  L 84.04 47.50
  A 0.32 0.32 0.0 0 1 84.36 47.83
  L 84.20 52.19
  A 0.32 0.32 0.0 0 1 83.88 52.50
  L 79.82 52.50
  A 0.32 0.32 0.0 0 0 79.50 52.82
  L 79.50 57.14
  A 0.32 0.32 0.0 0 1 79.19 57.46
  L 74.83 57.52
  A 0.32 0.32 0.0 0 1 74.50 57.20
  L 74.50 52.82
  A 0.32 0.32 0.0 0 0 74.18 52.50
  L 69.93 52.50
  A 0.32 0.32 0.0 0 1 69.61 52.17
  L 69.81 47.81
  A 0.32 0.32 0.0 0 1 70.13 47.50
  L 74.18 47.50
  A 0.32 0.32 0.0 0 0 74.50 47.18
  L 74.50 43.08
  A 0.32 0.32 0.0 0 1 74.81 42.76
  L 79.17 42.62
  A 0.32 0.32 0.0 0 1 79.50 42.94
  L 79.50 47.18
  A 0.32 0.32 0.0 0 0 79.82 47.50
  Z"
/>
<path fill="#fefefe" d="
  M 96.58 47.49
  L 100.13 47.51
  Q 100.75 47.51 100.75 48.13
  L 100.75 52.00
  Q 100.75 52.50 100.25 52.50
  L 96.55 52.50
  A 0.46 0.46 0.0 0 0 96.09 53.00
  C 96.19 54.02 97.02 57.74 94.99 57.27
  Q 94.60 57.18 94.20 57.24
  L 91.94 57.54
  Q 91.25 57.63 91.25 56.93
  L 91.25 53.00
  A 0.50 0.50 0.0 0 0 90.75 52.50
  L 86.88 52.50
  Q 86.25 52.50 86.25 51.87
  L 86.25 48.12
  Q 86.25 47.50 86.88 47.50
  L 90.75 47.50
  A 0.50 0.50 0.0 0 0 91.25 47.00
  L 91.25 43.11
  Q 91.25 42.47 91.89 42.50
  L 95.74 42.68
  Q 96.28 42.70 96.27 43.24
  L 96.19 47.09
  Q 96.19 47.49 96.58 47.49
  Z"
/>
<path fill="#3c97cd" d="
  M 151.24 43.38
  A 0.58 0.58 0.0 0 1 151.82 42.80
  L 155.56 42.80
  A 3.96 3.18 -0.0 0 1 159.52 45.98
  L 159.52 47.30
  A 3.96 3.18 -0.0 0 1 155.56 50.48
  L 151.82 50.48
  A 0.58 0.58 0.0 0 1 151.24 49.90
  L 151.24 43.38
  Z"
/>
<path fill="#3c97cd" d="
  M 174.40 43.03
  A 0.28 0.28 0.0 0 1 174.68 42.75
  L 178.54 42.76
  A 4.22 3.54 0.2 0 1 182.75 46.31
  L 182.75 46.95
  A 4.22 3.54 0.2 0 1 178.52 50.48
  L 174.66 50.47
  A 0.28 0.28 0.0 0 1 174.38 50.19
  L 174.40 43.03
  Z"
/>
<path fill="#00549d" d="
  M 72.19 58.33
  C 64.97 69.43 49.88 68.91 43.42 57.54
  L 56.30 50.32
  A 1.35 1.35 0.0 0 1 57.62 50.32
  L 72.19 58.33
  Z"
/>
<path fill="#00549d" d="
  M 28.68 66.08
  C 42.16 89.08 73.07 89.09 87.06 66.51
  L 102.44 75.13
  C 102.00 75.60 101.57 76.16 101.03 76.47
  Q 81.46 87.60 61.77 98.53
  C 58.59 100.30 57.06 100.15 54.05 98.46
  Q 34.67 87.59 15.34 76.64
  Q 14.05 75.91 13.38 74.79
  L 28.68 66.08
  Z"
/>
</svg>
