<?xml version="1.0" encoding="UTF-8" standalone="no"?>
<!DOCTYPE svg PUBLIC "-//W3C//DTD SVG 1.1//EN" "http://www.w3.org/Graphics/SVG/1.1/DTD/svg11.dtd">
<svg xmlns="http://www.w3.org/2000/svg" version="1.1" viewBox="0.00 0.00 255.00 100.00">
<g stroke-width="2.00" fill="none" stroke-linecap="butt">
<path stroke="#3692c6" vector-effect="non-scaling-stroke" d="
  M 19.06 0.00
  Q 22.98 44.68 26.72 89.33
  Q 26.84 90.75 28.51 91.21
  Q 44.59 95.66 60.68 100.00"
/>
<path stroke="#3692c6" vector-effect="non-scaling-stroke" d="
  M 108.29 0.00
  L 100.24 90.17
  Q 100.19 90.78 99.60 90.94
  L 66.45 100.00"
/>
<path stroke="#7faecf" vector-effect="non-scaling-stroke" d="
  M 54.24 17.93
  L 34.77 17.91
  A 0.49 0.48 86.3 0 0 34.29 18.46
  L 35.63 29.04
  Q 35.68 29.49 36.13 29.49
  L 63.66 29.49"
/>
<path stroke="#8ab9db" vector-effect="non-scaling-stroke" d="
  M 63.66 29.49
  Q 65.13 29.53 62.70 30.20"
/>
<path stroke="#7faecf" vector-effect="non-scaling-stroke" d="
  M 62.70 30.20
  L 37.15 40.79
  Q 36.67 40.99 36.71 41.50
  L 37.54 51.98
  Q 37.57 52.46 38.06 52.46
  L 63.48 52.47"
/>
<path stroke="#8ab9db" vector-effect="non-scaling-stroke" d="
  M 63.48 52.47
  L 63.84 52.52"
/>
<path stroke="#258dc9" vector-effect="non-scaling-stroke" d="
  M 63.84 52.52
  Q 62.99 61.29 63.86 70.40"
/>
<path stroke="#7faecf" vector-effect="non-scaling-stroke" d="
  M 63.86 70.40
  L 51.27 67.33
  Q 50.85 67.23 50.83 66.80
  L 50.49 58.86
  Q 50.46 58.25 49.86 58.25
  L 38.78 58.25
  Q 38.31 58.25 38.35 58.71
  L 39.80 75.55
  Q 39.85 76.13 40.40 76.29
  L 63.50 83.04"
/>
<path stroke="#258dc9" vector-effect="non-scaling-stroke" d="
  M 63.50 83.04
  L 63.50 93.47
  A 0.94 0.94 0.0 0 0 64.69 94.37
  L 93.96 86.27
  Q 94.48 86.13 94.53 85.59
  L 101.56 6.94
  Q 101.63 6.25 100.93 6.25
  L 64.11 6.25
  A 0.64 0.63 -90.0 0 0 63.48 6.89
  L 63.54 17.31
  Q 63.54 17.76 63.09 17.77
  L 54.24 17.93"
/>
<path stroke="#8fc9e2" vector-effect="non-scaling-stroke" d="
  M 63.50 83.04
  L 64.75 82.79"
/>
<path stroke="#9ad4ed" vector-effect="non-scaling-stroke" d="
  M 64.75 82.79
  L 86.88 76.35
  A 0.67 0.66 -6.4 0 0 87.36 75.76
  L 90.22 41.76
  A 0.70 0.70 0.0 0 0 89.52 41.00
  L 65.28 41.00
  Q 64.13 41.00 65.19 40.56
  Q 78.05 35.18 90.83 29.60
  Q 91.33 29.39 91.39 28.84
  L 92.44 18.47
  Q 92.50 17.86 91.89 17.86
  L 63.64 17.98"
/>
<path stroke="#8fc9e2" vector-effect="non-scaling-stroke" d="
  M 63.64 17.98
  L 54.24 17.93"
/>
<path stroke="#f4f4f4" vector-effect="non-scaling-stroke" d="
  M 64.75 82.79
  C 62.64 83.28 63.54 74.41 63.64 73.15
  A 2.23 2.21 37.0 0 0 63.50 72.18
  Q 62.99 70.89 63.86 70.40"
/>
<path stroke="#9ad4ed" vector-effect="non-scaling-stroke" d="
  M 63.86 70.40
  L 75.77 67.02
  Q 76.29 66.87 76.33 66.33
  L 77.31 53.00
  Q 77.35 52.52 76.87 52.52
  L 63.84 52.52"
/>
<path stroke="#f4f4f4" vector-effect="non-scaling-stroke" d="
  M 63.48 52.47
  L 63.56 32.14
  Q 63.56 31.66 63.20 31.35
  Q 62.67 30.90 62.70 30.20"
/>
<path stroke="#f4f4f4" vector-effect="non-scaling-stroke" d="
  M 63.64 17.98
  L 63.66 29.49"
/>
<path stroke="#2c596b" vector-effect="non-scaling-stroke" d="
  M 144.81 37.69
  C 136.37 33.19 127.60 37.09 125.92 46.48
  C 124.44 54.72 128.26 63.25 137.74 63.30
  Q 147.08 63.35 149.53 54.87
  Q 149.65 54.48 149.25 54.39
  L 144.48 53.33
  Q 144.08 53.24 143.97 53.63
  C 142.75 57.93 138.38 60.46 134.48 57.66
  C 127.39 52.58 132.43 35.11 142.10 41.86
  Q 142.56 42.19 142.81 42.70
  L 143.65 44.44
  Q 143.90 44.95 144.44 44.83
  L 148.77 43.87
  Q 149.28 43.75 149.11 43.27
  Q 147.76 39.26 144.81 37.69"
/>
<path stroke="#2c596b" vector-effect="non-scaling-stroke" d="
  M 164.47 52.14
  C 174.58 54.58 160.78 64.91 157.87 54.21
  Q 157.75 53.76 157.28 53.81
  L 152.79 54.31
  A 0.44 0.43 81.8 0 0 152.42 54.82
  C 153.78 61.98 160.59 64.62 167.06 62.88
  C 175.82 60.51 175.80 49.55 167.00 47.22
  Q 163.81 46.37 160.70 45.27
  C 158.28 44.41 157.74 41.58 160.59 40.75
  Q 163.49 39.89 166.23 41.33
  A 1.14 1.14 0.0 0 1 166.79 42.03
  Q 167.02 42.89 167.32 43.74
  Q 167.48 44.20 167.97 44.15
  L 172.45 43.73
  Q 173.07 43.67 172.88 43.08
  Q 170.76 36.44 164.33 35.99
  C 160.55 35.73 155.76 36.57 154.02 40.24
  C 150.58 47.49 158.13 50.61 164.47 52.14"
/>
<path stroke="#2c596b" vector-effect="non-scaling-stroke" d="
  M 191.11 47.29
  C 189.15 46.57 183.40 45.69 182.85 43.39
  A 2.04 2.03 -18.7 0 1 184.01 41.06
  Q 189.16 38.78 191.72 43.53
  A 1.08 1.07 73.0 0 0 192.77 44.09
  L 196.68 43.70
  Q 197.27 43.65 197.07 43.09
  C 194.74 36.47 189.03 34.83 182.72 36.46
  C 178.01 37.67 175.80 44.10 178.77 47.61
  C 181.24 50.52 186.65 51.58 190.53 52.73
  Q 190.96 52.86 191.25 53.19
  C 195.66 58.34 183.60 62.36 181.98 54.21
  Q 181.89 53.77 181.45 53.81
  L 177.00 54.29
  Q 176.37 54.36 176.50 54.98
  C 178.48 63.91 192.10 66.87 196.65 58.90
  C 199.77 53.43 196.40 49.23 191.11 47.29"
/>
<path stroke="#2c596b" vector-effect="non-scaling-stroke" d="
  M 208.01 58.66
  Q 206.20 57.60 205.97 55.79
  A 0.61 0.61 0.0 0 0 205.28 55.26
  L 201.24 55.83
  Q 200.68 55.91 200.78 56.47
  C 202.66 66.81 219.84 65.14 218.60 54.58
  Q 218.18 50.98 214.66 49.03
  Q 214.14 48.74 214.61 48.38
  C 226.29 39.31 203.93 29.45 201.33 42.86
  Q 201.22 43.41 201.78 43.50
  L 205.40 44.09
  Q 206.01 44.19 206.16 43.59
  Q 207.01 40.17 210.55 40.76
  A 2.32 2.32 0.0 0 1 212.48 43.23
  Q 212.17 46.95 208.09 46.76
  Q 207.43 46.73 207.33 47.38
  L 206.82 50.64
  A 0.45 0.45 0.0 0 0 207.37 51.15
  C 211.48 50.22 214.53 52.99 212.79 56.87
  Q 211.81 59.07 209.18 59.00
  A 2.46 2.44 -28.5 0 1 208.01 58.66"
/>
</g>
<path fill="#57b2d6" d="
  M 0.00 0.00
  L 19.06 0.00
  Q 22.98 44.68 26.72 89.33
  Q 26.84 90.75 28.51 91.21
  Q 44.59 95.66 60.68 100.00
  L 0.00 100.00
  L 0.00 0.00
  Z"
/>
<path fill="#1572b6" d="
  M 19.06 0.00
  L 108.29 0.00
  L 100.24 90.17
  Q 100.19 90.78 99.60 90.94
  L 66.45 100.00
  L 60.68 100.00
  Q 44.59 95.66 28.51 91.21
  Q 26.84 90.75 26.72 89.33
  Q 22.98 44.68 19.06 0.00
  Z
  M 54.24 17.93
  L 34.77 17.91
  A 0.49 0.48 86.3 0 0 34.29 18.46
  L 35.63 29.04
  Q 35.68 29.49 36.13 29.49
  L 63.66 29.49
  Q 65.13 29.53 62.70 30.20
  L 37.15 40.79
  Q 36.67 40.99 36.71 41.50
  L 37.54 51.98
  Q 37.57 52.46 38.06 52.46
  L 63.48 52.47
  L 63.84 52.52
  Q 62.99 61.29 63.86 70.40
  L 51.27 67.33
  Q 50.85 67.23 50.83 66.80
  L 50.49 58.86
  Q 50.46 58.25 49.86 58.25
  L 38.78 58.25
  Q 38.31 58.25 38.35 58.71
  L 39.80 75.55
  Q 39.85 76.13 40.40 76.29
  L 63.50 83.04
  L 63.50 93.47
  A 0.94 0.94 0.0 0 0 64.69 94.37
  L 93.96 86.27
  Q 94.48 86.13 94.53 85.59
  L 101.56 6.94
  Q 101.63 6.25 100.93 6.25
  L 64.11 6.25
  A 0.64 0.63 -90.0 0 0 63.48 6.89
  L 63.54 17.31
  Q 63.54 17.76 63.09 17.77
  L 54.24 17.93
  Z"
/>
<path fill="#57b2d6" d="
  M 108.29 0.00
  L 255.00 0.00
  L 255.00 100.00
  L 66.45 100.00
  L 99.60 90.94
  Q 100.19 90.78 100.24 90.17
  L 108.29 0.00
  Z
  M 144.81 37.69
  C 136.37 33.19 127.60 37.09 125.92 46.48
  C 124.44 54.72 128.26 63.25 137.74 63.30
  Q 147.08 63.35 149.53 54.87
  Q 149.65 54.48 149.25 54.39
  L 144.48 53.33
  Q 144.08 53.24 143.97 53.63
  C 142.75 57.93 138.38 60.46 134.48 57.66
  C 127.39 52.58 132.43 35.11 142.10 41.86
  Q 142.56 42.19 142.81 42.70
  L 143.65 44.44
  Q 143.90 44.95 144.44 44.83
  L 148.77 43.87
  Q 149.28 43.75 149.11 43.27
  Q 147.76 39.26 144.81 37.69
  Z
  M 164.47 52.14
  C 174.58 54.58 160.78 64.91 157.87 54.21
  Q 157.75 53.76 157.28 53.81
  L 152.79 54.31
  A 0.44 0.43 81.8 0 0 152.42 54.82
  C 153.78 61.98 160.59 64.62 167.06 62.88
  C 175.82 60.51 175.80 49.55 167.00 47.22
  Q 163.81 46.37 160.70 45.27
  C 158.28 44.41 157.74 41.58 160.59 40.75
  Q 163.49 39.89 166.23 41.33
  A 1.14 1.14 0.0 0 1 166.79 42.03
  Q 167.02 42.89 167.32 43.74
  Q 167.48 44.20 167.97 44.15
  L 172.45 43.73
  Q 173.07 43.67 172.88 43.08
  Q 170.76 36.44 164.33 35.99
  C 160.55 35.73 155.76 36.57 154.02 40.24
  C 150.58 47.49 158.13 50.61 164.47 52.14
  Z
  M 191.11 47.29
  C 189.15 46.57 183.40 45.69 182.85 43.39
  A 2.04 2.03 -18.7 0 1 184.01 41.06
  Q 189.16 38.78 191.72 43.53
  A 1.08 1.07 73.0 0 0 192.77 44.09
  L 196.68 43.70
  Q 197.27 43.65 197.07 43.09
  C 194.74 36.47 189.03 34.83 182.72 36.46
  C 178.01 37.67 175.80 44.10 178.77 47.61
  C 181.24 50.52 186.65 51.58 190.53 52.73
  Q 190.96 52.86 191.25 53.19
  C 195.66 58.34 183.60 62.36 181.98 54.21
  Q 181.89 53.77 181.45 53.81
  L 177.00 54.29
  Q 176.37 54.36 176.50 54.98
  C 178.48 63.91 192.10 66.87 196.65 58.90
  C 199.77 53.43 196.40 49.23 191.11 47.29
  Z
  M 208.01 58.66
  Q 206.20 57.60 205.97 55.79
  A 0.61 0.61 0.0 0 0 205.28 55.26
  L 201.24 55.83
  Q 200.68 55.91 200.78 56.47
  C 202.66 66.81 219.84 65.14 218.60 54.58
  Q 218.18 50.98 214.66 49.03
  Q 214.14 48.74 214.61 48.38
  C 226.29 39.31 203.93 29.45 201.33 42.86
  Q 201.22 43.41 201.78 43.50
  L 205.40 44.09
  Q 206.01 44.19 206.16 43.59
  Q 207.01 40.17 210.55 40.76
  A 2.32 2.32 0.0 0 1 212.48 43.23
  Q 212.17 46.95 208.09 46.76
  Q 207.43 46.73 207.33 47.38
  L 206.82 50.64
  A 0.45 0.45 0.0 0 0 207.37 51.15
  C 211.48 50.22 214.53 52.99 212.79 56.87
  Q 211.81 59.07 209.18 59.00
  A 2.46 2.44 -28.5 0 1 208.01 58.66
  Z"
/>
<path fill="#35a8db" d="
  M 63.50 83.04
  L 64.75 82.79
  L 86.88 76.35
  A 0.67 0.66 -6.4 0 0 87.36 75.76
  L 90.22 41.76
  A 0.70 0.70 0.0 0 0 89.52 41.00
  L 65.28 41.00
  Q 64.13 41.00 65.19 40.56
  Q 78.05 35.18 90.83 29.60
  Q 91.33 29.39 91.39 28.84
  L 92.44 18.47
  Q 92.50 17.86 91.89 17.86
  L 63.64 17.98
  L 54.24 17.93
  L 63.09 17.77
  Q 63.54 17.76 63.54 17.31
  L 63.48 6.89
  A 0.64 0.63 90.0 0 1 64.11 6.25
  L 100.93 6.25
  Q 101.63 6.25 101.56 6.94
  L 94.53 85.59
  Q 94.48 86.13 93.96 86.27
  L 64.69 94.37
  A 0.94 0.94 0.0 0 1 63.50 93.47
  L 63.50 83.04
  Z"
/>
<path fill="#e9e9e8" d="
  M 54.24 17.93
  L 63.64 17.98
  L 63.66 29.49
  L 36.13 29.49
  Q 35.68 29.49 35.63 29.04
  L 34.29 18.46
  A 0.49 0.48 86.3 0 1 34.77 17.91
  L 54.24 17.93
  Z"
/>
<path fill="#ffffff" d="
  M 64.75 82.79
  C 62.64 83.28 63.54 74.41 63.64 73.15
  A 2.23 2.21 37.0 0 0 63.50 72.18
  Q 62.99 70.89 63.86 70.40
  L 75.77 67.02
  Q 76.29 66.87 76.33 66.33
  L 77.31 53.00
  Q 77.35 52.52 76.87 52.52
  L 63.84 52.52
  L 63.48 52.47
  L 63.56 32.14
  Q 63.56 31.66 63.20 31.35
  Q 62.67 30.90 62.70 30.20
  Q 65.13 29.53 63.66 29.49
  L 63.64 17.98
  L 91.89 17.86
  Q 92.50 17.86 92.44 18.47
  L 91.39 28.84
  Q 91.33 29.39 90.83 29.60
  Q 78.05 35.18 65.19 40.56
  Q 64.13 41.00 65.28 41.00
  L 89.52 41.00
  A 0.70 0.70 0.0 0 1 90.22 41.76
  L 87.36 75.76
  A 0.67 0.66 -6.4 0 1 86.88 76.35
  L 64.75 82.79
  Z"
/>
<path fill="#e9e9e8" d="
  M 62.70 30.20
  Q 62.67 30.90 63.20 31.35
  Q 63.56 31.66 63.56 32.14
  L 63.48 52.47
  L 38.06 52.46
  Q 37.57 52.46 37.54 51.98
  L 36.71 41.50
  Q 36.67 40.99 37.15 40.79
  L 62.70 30.20
  Z"
/>
<path fill="#000000" d="
  M 144.81 37.69
  Q 147.76 39.26 149.11 43.27
  Q 149.28 43.75 148.77 43.87
  L 144.44 44.83
  Q 143.90 44.95 143.65 44.44
  L 142.81 42.70
  Q 142.56 42.19 142.10 41.86
  C 132.43 35.11 127.39 52.58 134.48 57.66
  C 138.38 60.46 142.75 57.93 143.97 53.63
  Q 144.08 53.24 144.48 53.33
  L 149.25 54.39
  Q 149.65 54.48 149.53 54.87
  Q 147.08 63.35 137.74 63.30
  C 128.26 63.25 124.44 54.72 125.92 46.48
  C 127.60 37.09 136.37 33.19 144.81 37.69
  Z"
/>
<path fill="#000000" d="
  M 157.87 54.21
  C 160.78 64.91 174.58 54.58 164.47 52.14
  C 158.13 50.61 150.58 47.49 154.02 40.24
  C 155.76 36.57 160.55 35.73 164.33 35.99
  Q 170.76 36.44 172.88 43.08
  Q 173.07 43.67 172.45 43.73
  L 167.97 44.15
  Q 167.48 44.20 167.32 43.74
  Q 167.02 42.89 166.79 42.03
  A 1.14 1.14 0.0 0 0 166.23 41.33
  Q 163.49 39.89 160.59 40.75
  C 157.74 41.58 158.28 44.41 160.70 45.27
  Q 163.81 46.37 167.00 47.22
  C 175.80 49.55 175.82 60.51 167.06 62.88
  C 160.59 64.62 153.78 61.98 152.42 54.82
  A 0.44 0.43 81.8 0 1 152.79 54.31
  L 157.28 53.81
  Q 157.75 53.76 157.87 54.21
  Z"
/>
<path fill="#000000" d="
  M 191.11 47.29
  C 196.40 49.23 199.77 53.43 196.65 58.90
  C 192.10 66.87 178.48 63.91 176.50 54.98
  Q 176.37 54.36 177.00 54.29
  L 181.45 53.81
  Q 181.89 53.77 181.98 54.21
  C 183.60 62.36 195.66 58.34 191.25 53.19
  Q 190.96 52.86 190.53 52.73
  C 186.65 51.58 181.24 50.52 178.77 47.61
  C 175.80 44.10 178.01 37.67 182.72 36.46
  C 189.03 34.83 194.74 36.47 197.07 43.09
  Q 197.27 43.65 196.68 43.70
  L 192.77 44.09
  A 1.08 1.07 73.0 0 1 191.72 43.53
  Q 189.16 38.78 184.01 41.06
  A 2.04 2.03 -18.7 0 0 182.85 43.39
  C 183.40 45.69 189.15 46.57 191.11 47.29
  Z"
/>
<path fill="#000000" d="
  M 208.01 58.66
  A 2.46 2.44 -28.5 0 0 209.18 59.00
  Q 211.81 59.07 212.79 56.87
  C 214.53 52.99 211.48 50.22 207.37 51.15
  A 0.45 0.45 0.0 0 1 206.82 50.64
  L 207.33 47.38
  Q 207.43 46.73 208.09 46.76
  Q 212.17 46.95 212.48 43.23
  A 2.32 2.32 0.0 0 0 210.55 40.76
  Q 207.01 40.17 206.16 43.59
  Q 206.01 44.19 205.40 44.09
  L 201.78 43.50
  Q 201.22 43.41 201.33 42.86
  C 203.93 29.45 226.29 39.31 214.61 48.38
  Q 214.14 48.74 214.66 49.03
  Q 218.18 50.98 218.60 54.58
  C 219.84 65.14 202.66 66.81 200.78 56.47
  Q 200.68 55.91 201.24 55.83
  L 205.28 55.26
  A 0.61 0.61 0.0 0 1 205.97 55.79
  Q 206.20 57.60 208.01 58.66
  Z"
/>
<path fill="#35a8db" d="
  M 63.84 52.52
  L 76.87 52.52
  Q 77.35 52.52 77.31 53.00
  L 76.33 66.33
  Q 76.29 66.87 75.77 67.02
  L 63.86 70.40
  Q 62.99 61.29 63.84 52.52
  Z"
/>
<path fill="#e9e9e8" d="
  M 63.86 70.40
  Q 62.99 70.89 63.50 72.18
  A 2.23 2.21 37.0 0 1 63.64 73.15
  C 63.54 74.41 62.64 83.28 64.75 82.79
  L 63.50 83.04
  L 40.40 76.29
  Q 39.85 76.13 39.80 75.55
  L 38.35 58.71
  Q 38.31 58.25 38.78 58.25
  L 49.86 58.25
  Q 50.46 58.25 50.49 58.86
  L 50.83 66.80
  Q 50.85 67.23 51.27 67.33
  L 63.86 70.40
  Z"
/>
</svg>
