<?xml version="1.0" encoding="UTF-8" standalone="no"?>
<!DOCTYPE svg PUBLIC "-//W3C//DTD SVG 1.1//EN" "http://www.w3.org/Graphics/SVG/1.1/DTD/svg11.dtd">
<svg xmlns="http://www.w3.org/2000/svg" version="1.1" viewBox="0.00 0.00 350.00 100.00">
<g stroke-width="2.00" fill="none" stroke-linecap="butt">
<path stroke="#615769" vector-effect="non-scaling-stroke" d="
  M 232.56 63.64
  L 240.13 75.83
  Q 240.39 76.25 240.88 76.25
  L 253.95 76.25
  Q 254.52 76.25 254.20 75.78
  L 240.84 55.91
  Q 240.57 55.51 240.87 55.13
  L 252.75 40.01
  Q 253.15 39.50 252.50 39.50
  L 239.63 39.50
  Q 239.13 39.50 238.84 39.91
  L 230.02 52.22
  Q 229.50 52.95 229.50 52.05
  L 229.50 25.25
  Q 229.50 24.75 229.00 24.75
  L 216.51 24.75
  Q 216.01 24.75 216.01 25.25
  L 215.97 75.57
  A 0.66 0.66 0.0 0 0 216.63 76.23
  L 229.05 76.29
  Q 229.48 76.29 229.49 75.86
  C 229.51 73.69 228.93 66.48 230.08 64.98
  Q 230.76 64.11 231.72 63.46
  Q 232.24 63.12 232.56 63.64"
/>
<path stroke="#615769" vector-effect="non-scaling-stroke" d="
  M 317.88 64.26
  C 314.73 65.41 311.31 65.29 311.30 60.99
  Q 311.25 43.14 311.24 25.25
  Q 311.24 24.75 310.74 24.75
  L 298.51 24.75
  A 0.51 0.50 -89.4 0 0 298.01 25.25
  Q 297.96 46.57 298.04 67.94
  C 298.09 79.15 313.04 77.71 319.73 74.77
  Q 320.11 74.61 320.04 74.20
  L 318.54 64.64
  A 0.49 0.49 0.0 0 0 317.88 64.26"
/>
<path stroke="#615769" vector-effect="non-scaling-stroke" d="
  M 343.44 64.28
  C 340.77 65.19 337.09 65.24 336.95 62.00
  Q 336.53 52.01 336.82 25.32
  Q 336.83 24.75 336.26 24.75
  L 324.02 24.75
  A 0.48 0.48 0.0 0 0 323.54 25.23
  Q 323.43 45.69 323.49 66.18
  C 323.52 78.81 336.80 78.42 345.29 74.74
  Q 345.70 74.56 345.63 74.12
  L 344.20 64.74
  Q 344.10 64.06 343.44 64.28"
/>
<path stroke="#68597e" vector-effect="non-scaling-stroke" d="
  M 19.79 51.33
  A 0.32 0.32 0.0 0 1 19.79 51.69
  L 3.57 76.00
  A 0.32 0.32 0.0 0 0 3.84 76.50
  L 15.57 76.50
  A 0.32 0.32 0.0 0 0 15.83 76.36
  L 32.27 51.68
  A 0.32 0.32 0.0 0 0 32.27 51.32
  L 15.96 26.65
  A 0.32 0.32 0.0 0 0 15.70 26.51
  L 3.90 26.43
  A 0.32 0.32 0.0 0 0 3.63 26.93
  L 19.79 51.33"
/>
<path stroke="#746490" vector-effect="non-scaling-stroke" d="
  M 42.55 61.25
  A 0.34 0.34 0.0 0 1 43.11 61.25
  L 53.13 76.35
  A 0.34 0.34 0.0 0 0 53.41 76.50
  L 65.14 76.49
  A 0.34 0.34 0.0 0 0 65.42 75.96
  L 32.47 26.41
  A 0.34 0.34 0.0 0 0 32.19 26.26
  L 20.48 26.26
  A 0.34 0.34 0.0 0 0 20.20 26.79
  L 36.47 51.33
  A 0.34 0.34 0.0 0 1 36.46 51.71
  L 20.25 75.97
  A 0.34 0.34 0.0 0 0 20.54 76.50
  L 32.24 76.50
  A 0.34 0.34 0.0 0 0 32.52 76.35
  L 42.55 61.25"
/>
<path stroke="#615769" vector-effect="non-scaling-stroke" d="
  M 98.77 57.09
  A 0.34 0.34 0.0 0 1 99.11 56.75
  L 115.16 56.75
  A 0.34 0.34 0.0 0 1 115.50 57.09
  L 115.50 75.91
  A 0.34 0.34 0.0 0 0 115.84 76.25
  L 128.91 76.25
  A 0.34 0.34 0.0 0 0 129.25 75.91
  L 129.25 26.84
  A 0.34 0.34 0.0 0 0 128.91 26.50
  L 115.84 26.50
  A 0.34 0.34 0.0 0 0 115.50 26.84
  L 115.50 44.41
  A 0.34 0.34 0.0 0 1 115.16 44.75
  L 98.86 44.75
  A 0.34 0.34 0.0 0 1 98.52 44.41
  L 98.59 26.84
  A 0.34 0.34 0.0 0 0 98.25 26.50
  L 85.37 26.50
  A 0.34 0.34 0.0 0 0 85.03 26.84
  L 84.90 75.91
  A 0.34 0.34 0.0 0 0 85.24 76.25
  L 98.18 76.25
  A 0.34 0.34 0.0 0 0 98.52 75.91
  L 98.77 57.09"
/>
<path stroke="#615769" vector-effect="non-scaling-stroke" d="
  M 191.20 51.28
  A 1.51 1.51 0.0 0 1 190.85 48.57
  C 194.20 46.41 201.61 49.41 204.83 51.01
  Q 205.30 51.24 205.57 50.80
  L 210.05 43.32
  A 0.45 0.45 0.0 0 0 209.85 42.68
  C 202.26 39.00 191.46 36.46 184.03 41.15
  C 178.08 44.91 175.04 53.49 181.53 58.44
  C 185.18 61.23 192.45 62.80 197.48 64.36
  A 1.59 1.58 45.6 0 1 197.45 67.40
  C 192.88 68.70 185.71 65.96 181.61 63.88
  Q 181.12 63.63 180.85 64.11
  L 176.33 72.10
  Q 175.95 72.76 176.66 73.05
  C 185.69 76.79 206.64 81.47 210.83 68.28
  C 214.79 55.85 199.18 53.88 191.20 51.28"
/>
<path stroke="#615769" vector-effect="non-scaling-stroke" d="
  M 157.16 53.64
  C 148.09 50.73 134.34 53.88 134.26 65.25
  Q 134.22 70.41 137.94 73.64
  C 144.51 79.36 154.10 77.53 159.55 70.97
  A 0.24 0.24 0.0 0 1 159.97 71.06
  C 161.83 78.06 167.87 77.79 173.88 76.34
  Q 174.33 76.24 174.33 75.78
  L 174.31 65.66
  Q 174.30 65.10 173.75 65.04
  C 171.80 64.85 171.28 63.91 171.27 61.98
  C 171.24 52.53 171.90 43.12 160.74 39.73
  Q 148.67 36.05 136.45 43.17
  Q 136.04 43.41 136.24 43.84
  L 139.72 51.25
  Q 139.97 51.80 140.46 51.45
  C 144.64 48.45 158.45 43.79 157.64 53.32
  Q 157.60 53.78 157.16 53.64"
/>
<path stroke="#615769" vector-effect="non-scaling-stroke" d="
  M 268.14 61.97
  C 275.22 62.24 283.77 61.49 292.78 62.13
  Q 293.29 62.17 293.37 61.66
  C 298.00 32.95 252.87 30.14 253.27 58.72
  C 253.56 79.03 282.43 83.46 291.61 67.43
  Q 291.84 67.03 291.39 66.91
  L 281.24 64.01
  Q 280.81 63.89 280.51 64.23
  Q 275.69 69.86 269.44 66.07
  Q 267.30 64.77 267.61 62.41
  A 0.52 0.51 -84.4 0 1 268.14 61.97"
/>
<path stroke="#8d6392" vector-effect="non-scaling-stroke" d="
  M 51.81 49.10
  A 0.33 0.33 0.0 0 0 52.09 49.25
  L 73.65 49.29
  A 0.33 0.33 0.0 0 0 73.98 48.97
  L 74.27 41.34
  A 0.33 0.33 0.0 0 0 73.94 41.00
  L 47.02 41.00
  A 0.33 0.33 0.0 0 0 46.74 41.51
  L 51.81 49.10"
/>
<path stroke="#8d6392" vector-effect="non-scaling-stroke" d="
  M 73.57 61.75
  A 0.50 0.50 0.0 0 0 74.07 61.25
  L 74.04 54.00
  A 0.50 0.50 0.0 0 0 73.54 53.50
  L 55.56 53.50
  A 0.50 0.50 0.0 0 0 55.14 54.28
  L 60.01 61.53
  A 0.50 0.50 0.0 0 0 60.43 61.75
  L 73.57 61.75"
/>
<path stroke="#615769" vector-effect="non-scaling-stroke" d="
  M 147.05 63.55
  C 146.17 69.35 158.96 68.57 157.73 61.40
  Q 157.65 60.95 157.23 60.76
  C 154.24 59.40 147.72 59.08 147.05 63.55"
/>
<path stroke="#615769" vector-effect="non-scaling-stroke" d="
  M 267.49 53.76
  L 279.05 53.72
  A 0.14 0.14 0.0 0 0 279.19 53.58
  L 279.19 53.50
  A 5.79 5.28 -0.2 0 0 273.38 48.24
  L 273.12 48.24
  A 5.79 5.28 -0.2 0 0 267.35 53.54
  L 267.35 53.62
  A 0.14 0.14 0.0 0 0 267.49 53.76"
/>
</g>
<path fill="#8a7799" d="
  M 0.00 0.00
  L 350.00 0.00
  L 350.00 100.00
  L 0.00 100.00
  L 0.00 0.00
  Z
  M 232.56 63.64
  L 240.13 75.83
  Q 240.39 76.25 240.88 76.25
  L 253.95 76.25
  Q 254.52 76.25 254.20 75.78
  L 240.84 55.91
  Q 240.57 55.51 240.87 55.13
  L 252.75 40.01
  Q 253.15 39.50 252.50 39.50
  L 239.63 39.50
  Q 239.13 39.50 238.84 39.91
  L 230.02 52.22
  Q 229.50 52.95 229.50 52.05
  L 229.50 25.25
  Q 229.50 24.75 229.00 24.75
  L 216.51 24.75
  Q 216.01 24.75 216.01 25.25
  L 215.97 75.57
  A 0.66 0.66 0.0 0 0 216.63 76.23
  L 229.05 76.29
  Q 229.48 76.29 229.49 75.86
  C 229.51 73.69 228.93 66.48 230.08 64.98
  Q 230.76 64.11 231.72 63.46
  Q 232.24 63.12 232.56 63.64
  Z
  M 317.88 64.26
  C 314.73 65.41 311.31 65.29 311.30 60.99
  Q 311.25 43.14 311.24 25.25
  Q 311.24 24.75 310.74 24.75
  L 298.51 24.75
  A 0.51 0.50 -89.4 0 0 298.01 25.25
  Q 297.96 46.57 298.04 67.94
  C 298.09 79.15 313.04 77.71 319.73 74.77
  Q 320.11 74.61 320.04 74.20
  L 318.54 64.64
  A 0.49 0.49 0.0 0 0 317.88 64.26
  Z
  M 343.44 64.28
  C 340.77 65.19 337.09 65.24 336.95 62.00
  Q 336.53 52.01 336.82 25.32
  Q 336.83 24.75 336.26 24.75
  L 324.02 24.75
  A 0.48 0.48 0.0 0 0 323.54 25.23
  Q 323.43 45.69 323.49 66.18
  C 323.52 78.81 336.80 78.42 345.29 74.74
  Q 345.70 74.56 345.63 74.12
  L 344.20 64.74
  Q 344.10 64.06 343.44 64.28
  Z
  M 19.79 51.33
  A 0.32 0.32 0.0 0 1 19.79 51.69
  L 3.57 76.00
  A 0.32 0.32 0.0 0 0 3.84 76.50
  L 15.57 76.50
  A 0.32 0.32 0.0 0 0 15.83 76.36
  L 32.27 51.68
  A 0.32 0.32 0.0 0 0 32.27 51.32
  L 15.96 26.65
  A 0.32 0.32 0.0 0 0 15.70 26.51
  L 3.90 26.43
  A 0.32 0.32 0.0 0 0 3.63 26.93
  L 19.79 51.33
  Z
  M 42.55 61.25
  A 0.34 0.34 0.0 0 1 43.11 61.25
  L 53.13 76.35
  A 0.34 0.34 0.0 0 0 53.41 76.50
  L 65.14 76.49
  A 0.34 0.34 0.0 0 0 65.42 75.96
  L 32.47 26.41
  A 0.34 0.34 0.0 0 0 32.19 26.26
  L 20.48 26.26
  A 0.34 0.34 0.0 0 0 20.20 26.79
  L 36.47 51.33
  A 0.34 0.34 0.0 0 1 36.46 51.71
  L 20.25 75.97
  A 0.34 0.34 0.0 0 0 20.54 76.50
  L 32.24 76.50
  A 0.34 0.34 0.0 0 0 32.52 76.35
  L 42.55 61.25
  Z
  M 98.77 57.09
  A 0.34 0.34 0.0 0 1 99.11 56.75
  L 115.16 56.75
  A 0.34 0.34 0.0 0 1 115.50 57.09
  L 115.50 75.91
  A 0.34 0.34 0.0 0 0 115.84 76.25
  L 128.91 76.25
  A 0.34 0.34 0.0 0 0 129.25 75.91
  L 129.25 26.84
  A 0.34 0.34 0.0 0 0 128.91 26.50
  L 115.84 26.50
  A 0.34 0.34 0.0 0 0 115.50 26.84
  L 115.50 44.41
  A 0.34 0.34 0.0 0 1 115.16 44.75
  L 98.86 44.75
  A 0.34 0.34 0.0 0 1 98.52 44.41
  L 98.59 26.84
  A 0.34 0.34 0.0 0 0 98.25 26.50
  L 85.37 26.50
  A 0.34 0.34 0.0 0 0 85.03 26.84
  L 84.90 75.91
  A 0.34 0.34 0.0 0 0 85.24 76.25
  L 98.18 76.25
  A 0.34 0.34 0.0 0 0 98.52 75.91
  L 98.77 57.09
  Z
  M 191.20 51.28
  A 1.51 1.51 0.0 0 1 190.85 48.57
  C 194.20 46.41 201.61 49.41 204.83 51.01
  Q 205.30 51.24 205.57 50.80
  L 210.05 43.32
  A 0.45 0.45 0.0 0 0 209.85 42.68
  C 202.26 39.00 191.46 36.46 184.03 41.15
  C 178.08 44.91 175.04 53.49 181.53 58.44
  C 185.18 61.23 192.45 62.80 197.48 64.36
  A 1.59 1.58 45.6 0 1 197.45 67.40
  C 192.88 68.70 185.71 65.96 181.61 63.88
  Q 181.12 63.63 180.85 64.11
  L 176.33 72.10
  Q 175.95 72.76 176.66 73.05
  C 185.69 76.79 206.64 81.47 210.83 68.28
  C 214.79 55.85 199.18 53.88 191.20 51.28
  Z
  M 157.16 53.64
  C 148.09 50.73 134.34 53.88 134.26 65.25
  Q 134.22 70.41 137.94 73.64
  C 144.51 79.36 154.10 77.53 159.55 70.97
  A 0.24 0.24 0.0 0 1 159.97 71.06
  C 161.83 78.06 167.87 77.79 173.88 76.34
  Q 174.33 76.24 174.33 75.78
  L 174.31 65.66
  Q 174.30 65.10 173.75 65.04
  C 171.80 64.85 171.28 63.91 171.27 61.98
  C 171.24 52.53 171.90 43.12 160.74 39.73
  Q 148.67 36.05 136.45 43.17
  Q 136.04 43.41 136.24 43.84
  L 139.72 51.25
  Q 139.97 51.80 140.46 51.45
  C 144.64 48.45 158.45 43.79 157.64 53.32
  Q 157.60 53.78 157.16 53.64
  Z
  M 268.14 61.97
  C 275.22 62.24 283.77 61.49 292.78 62.13
  Q 293.29 62.17 293.37 61.66
  C 298.00 32.95 252.87 30.14 253.27 58.72
  C 253.56 79.03 282.43 83.46 291.61 67.43
  Q 291.84 67.03 291.39 66.91
  L 281.24 64.01
  Q 280.81 63.89 280.51 64.23
  Q 275.69 69.86 269.44 66.07
  Q 267.30 64.77 267.61 62.41
  A 0.52 0.51 -84.4 0 1 268.14 61.97
  Z
  M 51.81 49.10
  A 0.33 0.33 0.0 0 0 52.09 49.25
  L 73.65 49.29
  A 0.33 0.33 0.0 0 0 73.98 48.97
  L 74.27 41.34
  A 0.33 0.33 0.0 0 0 73.94 41.00
  L 47.02 41.00
  A 0.33 0.33 0.0 0 0 46.74 41.51
  L 51.81 49.10
  Z
  M 73.57 61.75
  A 0.50 0.50 0.0 0 0 74.07 61.25
  L 74.04 54.00
  A 0.50 0.50 0.0 0 0 73.54 53.50
  L 55.56 53.50
  A 0.50 0.50 0.0 0 0 55.14 54.28
  L 60.01 61.53
  A 0.50 0.50 0.0 0 0 60.43 61.75
  L 73.57 61.75
  Z"
/>
<path fill="#373638" d="
  M 231.72 63.46
  Q 230.76 64.11 230.08 64.98
  C 228.93 66.48 229.51 73.69 229.49 75.86
  Q 229.48 76.29 229.05 76.29
  L 216.63 76.23
  A 0.66 0.66 0.0 0 1 215.97 75.57
  L 216.01 25.25
  Q 216.01 24.75 216.51 24.75
  L 229.00 24.75
  Q 229.50 24.75 229.50 25.25
  L 229.50 52.05
  Q 229.50 52.95 230.02 52.22
  L 238.84 39.91
  Q 239.13 39.50 239.63 39.50
  L 252.50 39.50
  Q 253.15 39.50 252.75 40.01
  L 240.87 55.13
  Q 240.57 55.51 240.84 55.91
  L 254.20 75.78
  Q 254.52 76.25 253.95 76.25
  L 240.88 76.25
  Q 240.39 76.25 240.13 75.83
  L 232.56 63.64
  Q 232.24 63.12 231.72 63.46
  Z"
/>
<path fill="#373638" d="
  M 311.30 60.99
  C 311.31 65.29 314.73 65.41 317.88 64.26
  A 0.49 0.49 0.0 0 1 318.54 64.64
  L 320.04 74.20
  Q 320.11 74.61 319.73 74.77
  C 313.04 77.71 298.09 79.15 298.04 67.94
  Q 297.96 46.57 298.01 25.25
  A 0.51 0.50 -89.4 0 1 298.51 24.75
  L 310.74 24.75
  Q 311.24 24.75 311.24 25.25
  Q 311.25 43.14 311.30 60.99
  Z"
/>
<path fill="#373638" d="
  M 336.95 62.00
  C 337.09 65.24 340.77 65.19 343.44 64.28
  Q 344.10 64.06 344.20 64.74
  L 345.63 74.12
  Q 345.70 74.56 345.29 74.74
  C 336.80 78.42 323.52 78.81 323.49 66.18
  Q 323.43 45.69 323.54 25.23
  A 0.48 0.48 0.0 0 1 324.02 24.75
  L 336.26 24.75
  Q 336.83 24.75 336.82 25.32
  Q 336.53 52.01 336.95 62.00
  Z"
/>
<path fill="#453a62" d="
  M 19.79 51.33
  L 3.63 26.93
  A 0.32 0.32 0.0 0 1 3.90 26.43
  L 15.70 26.51
  A 0.32 0.32 0.0 0 1 15.96 26.65
  L 32.27 51.32
  A 0.32 0.32 0.0 0 1 32.27 51.68
  L 15.83 76.36
  A 0.32 0.32 0.0 0 1 15.57 76.50
  L 3.84 76.50
  A 0.32 0.32 0.0 0 1 3.57 76.00
  L 19.79 51.69
  A 0.32 0.32 0.0 0 0 19.79 51.33
  Z"
/>
<path fill="#5e5086" d="
  M 42.55 61.25
  L 32.52 76.35
  A 0.34 0.34 0.0 0 1 32.24 76.50
  L 20.54 76.50
  A 0.34 0.34 0.0 0 1 20.25 75.97
  L 36.46 51.71
  A 0.34 0.34 0.0 0 0 36.47 51.33
  L 20.20 26.79
  A 0.34 0.34 0.0 0 1 20.48 26.26
  L 32.19 26.26
  A 0.34 0.34 0.0 0 1 32.47 26.41
  L 65.42 75.96
  A 0.34 0.34 0.0 0 1 65.14 76.49
  L 53.41 76.50
  A 0.34 0.34 0.0 0 1 53.13 76.35
  L 43.11 61.25
  A 0.34 0.34 0.0 0 0 42.55 61.25
  Z"
/>
<path fill="#373638" d="
  M 98.77 57.09
  L 98.52 75.91
  A 0.34 0.34 0.0 0 1 98.18 76.25
  L 85.24 76.25
  A 0.34 0.34 0.0 0 1 84.90 75.91
  L 85.03 26.84
  A 0.34 0.34 0.0 0 1 85.37 26.50
  L 98.25 26.50
  A 0.34 0.34 0.0 0 1 98.59 26.84
  L 98.52 44.41
  A 0.34 0.34 0.0 0 0 98.86 44.75
  L 115.16 44.75
  A 0.34 0.34 0.0 0 0 115.50 44.41
  L 115.50 26.84
  A 0.34 0.34 0.0 0 1 115.84 26.50
  L 128.91 26.50
  A 0.34 0.34 0.0 0 1 129.25 26.84
  L 129.25 75.91
  A 0.34 0.34 0.0 0 1 128.91 76.25
  L 115.84 76.25
  A 0.34 0.34 0.0 0 1 115.50 75.91
  L 115.50 57.09
  A 0.34 0.34 0.0 0 0 115.16 56.75
  L 99.11 56.75
  A 0.34 0.34 0.0 0 0 98.77 57.09
  Z"
/>
<path fill="#373638" d="
  M 191.20 51.28
  C 199.18 53.88 214.79 55.85 210.83 68.28
  C 206.64 81.47 185.69 76.79 176.66 73.05
  Q 175.95 72.76 176.33 72.10
  L 180.85 64.11
  Q 181.12 63.63 181.61 63.88
  C 185.71 65.96 192.88 68.70 197.45 67.40
  A 1.59 1.58 45.6 0 0 197.48 64.36
  C 192.45 62.80 185.18 61.23 181.53 58.44
  C 175.04 53.49 178.08 44.91 184.03 41.15
  C 191.46 36.46 202.26 39.00 209.85 42.68
  A 0.45 0.45 0.0 0 1 210.05 43.32
  L 205.57 50.80
  Q 205.30 51.24 204.83 51.01
  C 201.61 49.41 194.20 46.41 190.85 48.57
  A 1.51 1.51 0.0 0 0 191.20 51.28
  Z"
/>
<path fill="#373638" d="
  M 157.64 53.32
  C 158.45 43.79 144.64 48.45 140.46 51.45
  Q 139.97 51.80 139.72 51.25
  L 136.24 43.84
  Q 136.04 43.41 136.45 43.17
  Q 148.67 36.05 160.74 39.73
  C 171.90 43.12 171.24 52.53 171.27 61.98
  C 171.28 63.91 171.80 64.85 173.75 65.04
  Q 174.30 65.10 174.31 65.66
  L 174.33 75.78
  Q 174.33 76.24 173.88 76.34
  C 167.87 77.79 161.83 78.06 159.97 71.06
  A 0.24 0.24 0.0 0 0 159.55 70.97
  C 154.10 77.53 144.51 79.36 137.94 73.64
  Q 134.22 70.41 134.26 65.25
  C 134.34 53.88 148.09 50.73 157.16 53.64
  Q 157.60 53.78 157.64 53.32
  Z
  M 147.05 63.55
  C 146.17 69.35 158.96 68.57 157.73 61.40
  Q 157.65 60.95 157.23 60.76
  C 154.24 59.40 147.72 59.08 147.05 63.55
  Z"
/>
<path fill="#373638" d="
  M 267.61 62.41
  Q 267.30 64.77 269.44 66.07
  Q 275.69 69.86 280.51 64.23
  Q 280.81 63.89 281.24 64.01
  L 291.39 66.91
  Q 291.84 67.03 291.61 67.43
  C 282.43 83.46 253.56 79.03 253.27 58.72
  C 252.87 30.14 298.00 32.95 293.37 61.66
  Q 293.29 62.17 292.78 62.13
  C 283.77 61.49 275.22 62.24 268.14 61.97
  A 0.52 0.51 -84.4 0 0 267.61 62.41
  Z
  M 267.49 53.76
  L 279.05 53.72
  A 0.14 0.14 0.0 0 0 279.19 53.58
  L 279.19 53.50
  A 5.79 5.28 -0.2 0 0 273.38 48.24
  L 273.12 48.24
  A 5.79 5.28 -0.2 0 0 267.35 53.54
  L 267.35 53.62
  A 0.14 0.14 0.0 0 0 267.49 53.76
  Z"
/>
<path fill="#8f4e8b" d="
  M 51.81 49.10
  L 46.74 41.51
  A 0.33 0.33 0.0 0 1 47.02 41.00
  L 73.94 41.00
  A 0.33 0.33 0.0 0 1 74.27 41.34
  L 73.98 48.97
  A 0.33 0.33 0.0 0 1 73.65 49.29
  L 52.09 49.25
  A 0.33 0.33 0.0 0 1 51.81 49.10
  Z"
/>
<path fill="#8a7799" d="
  M 267.49 53.76
  A 0.14 0.14 0.0 0 1 267.35 53.62
  L 267.35 53.54
  A 5.79 5.28 -0.2 0 1 273.12 48.24
  L 273.38 48.24
  A 5.79 5.28 -0.2 0 1 279.19 53.50
  L 279.19 53.58
  A 0.14 0.14 0.0 0 1 279.05 53.72
  L 267.49 53.76
  Z"
/>
<path fill="#8f4e8b" d="
  M 73.57 61.75
  L 60.43 61.75
  A 0.50 0.50 0.0 0 1 60.01 61.53
  L 55.14 54.28
  A 0.50 0.50 0.0 0 1 55.56 53.50
  L 73.54 53.50
  A 0.50 0.50 0.0 0 1 74.04 54.00
  L 74.07 61.25
  A 0.50 0.50 0.0 0 1 73.57 61.75
  Z"
/>
<path fill="#8a7799" d="
  M 157.73 61.40
  C 158.96 68.57 146.17 69.35 147.05 63.55
  C 147.72 59.08 154.24 59.40 157.23 60.76
  Q 157.65 60.95 157.73 61.40
  Z"
/>
</svg>
