<?xml version="1.0" encoding="UTF-8" standalone="no"?>
<!DOCTYPE svg PUBLIC "-//W3C//DTD SVG 1.1//EN" "http://www.w3.org/Graphics/SVG/1.1/DTD/svg11.dtd">
<svg xmlns="http://www.w3.org/2000/svg" version="1.1" viewBox="0.00 0.00 350.00 100.00">
<g stroke-width="2.00" fill="none" stroke-linecap="butt">
<path stroke="#babbbb" vector-effect="non-scaling-stroke" d="
  M 26.56 26.72
  Q 27.10 26.61 26.29 27.22"
/>
<path stroke="#3b7091" vector-effect="non-scaling-stroke" d="
  M 26.29 27.22
  C 24.79 27.41 6.33 46.60 3.65 49.16
  A 0.62 0.61 46.0 0 0 3.64 50.04
  Q 13.88 60.23 24.17 70.54
  C 24.79 71.17 25.29 72.77 26.37 72.48"
/>
<path stroke="#babbbb" vector-effect="non-scaling-stroke" d="
  M 26.37 72.48
  L 27.26 72.48"
/>
<path stroke="#3b7091" vector-effect="non-scaling-stroke" d="
  M 27.26 72.48
  Q 27.29 72.72 27.13 73.02
  A 0.48 0.48 0.0 0 0 27.22 73.58
  L 48.80 95.18
  A 0.56 0.55 44.6 0 0 49.59 95.18
  Q 60.10 84.37 70.88 73.63
  Q 71.27 73.24 71.47 72.39"
/>
<path stroke="#babbbb" vector-effect="non-scaling-stroke" d="
  M 71.47 72.39
  L 72.52 72.18"
/>
<path stroke="#3b7091" vector-effect="non-scaling-stroke" d="
  M 72.52 72.18
  L 94.48 50.13
  Q 94.85 49.76 94.48 49.38
  C 92.12 46.97 73.87 27.72 72.51 28.05"
/>
<path stroke="#babbbb" vector-effect="non-scaling-stroke" d="
  M 72.51 28.05
  L 71.57 26.62"
/>
<path stroke="#3b7091" vector-effect="non-scaling-stroke" d="
  M 71.57 26.62
  L 49.55 4.48
  Q 49.16 4.09 48.77 4.48
  L 26.56 26.72"
/>
<path stroke="#80b4d5" vector-effect="non-scaling-stroke" d="
  M 71.57 26.62
  L 61.01 26.74
  Q 60.50 26.75 60.50 27.26
  L 60.50 45.75
  Q 60.50 46.25 60.00 46.25
  L 50.00 46.25
  Q 49.50 46.25 49.50 45.75
  L 49.50 27.26
  Q 49.50 26.76 49.00 26.76
  L 26.56 26.72"
/>
<path stroke="#80b4d5" vector-effect="non-scaling-stroke" d="
  M 72.51 28.05
  L 72.52 72.18"
/>
<path stroke="#80b4d5" vector-effect="non-scaling-stroke" d="
  M 71.47 72.39
  L 60.98 72.71
  A 0.47 0.47 0.0 0 1 60.50 72.24
  L 60.50 53.73
  Q 60.50 53.21 59.98 53.21
  L 49.97 53.07
  Q 49.50 53.07 49.50 53.53
  L 49.50 72.23
  A 0.49 0.49 0.0 0 1 49.01 72.72
  L 27.26 72.48"
/>
<path stroke="#80b4d5" vector-effect="non-scaling-stroke" d="
  M 26.37 72.48
  L 26.31 53.41
  A 0.91 0.91 0.0 0 1 27.22 52.50
  L 48.75 52.50
  Q 49.25 52.50 49.25 52.00
  L 49.25 47.26
  Q 49.25 46.53 48.51 46.53
  L 26.96 46.73
  A 0.70 0.70 0.0 0 1 26.25 46.03
  L 26.29 27.22"
/>
<path stroke="#3b3b3c" vector-effect="non-scaling-stroke" d="
  M 192.74 46.52
  A 1.46 1.46 0.0 0 1 192.99 43.70
  Q 196.97 43.08 200.41 45.36
  Q 200.85 45.66 201.04 45.16
  L 204.02 37.30
  Q 204.16 36.92 203.81 36.74
  Q 195.96 32.76 188.08 35.10
  C 182.20 36.84 178.08 42.69 179.48 48.75
  C 180.93 55.02 186.53 55.83 191.99 56.86
  A 1.54 1.54 0.0 0 1 192.92 59.32
  C 190.65 62.24 184.45 58.88 182.26 57.27
  Q 181.74 56.89 181.50 57.49
  L 178.14 65.92
  Q 177.91 66.48 178.44 66.76
  C 184.92 70.25 194.76 71.62 201.15 67.29
  C 207.34 63.09 208.25 53.02 201.31 49.19
  C 198.99 47.91 195.49 47.46 192.74 46.52"
/>
<path stroke="#3b3b3c" vector-effect="non-scaling-stroke" d="
  M 114.06 46.50
  A 0.31 0.31 0.0 0 1 113.75 46.19
  L 113.75 35.06
  A 0.31 0.31 0.0 0 0 113.44 34.75
  L 101.81 34.75
  A 0.31 0.31 0.0 0 0 101.50 35.06
  L 101.50 68.94
  A 0.31 0.31 0.0 0 0 101.81 69.25
  L 113.44 69.26
  A 0.31 0.31 0.0 0 0 113.75 68.95
  L 113.75 57.06
  A 0.31 0.31 0.0 0 1 114.06 56.75
  L 121.68 56.75
  A 0.31 0.31 0.0 0 1 121.99 57.06
  L 121.84 68.94
  A 0.31 0.31 0.0 0 0 122.15 69.25
  L 133.68 69.25
  A 0.31 0.31 0.0 0 0 133.99 68.94
  L 134.03 35.06
  A 0.31 0.31 0.0 0 0 133.72 34.75
  L 122.12 34.75
  A 0.31 0.31 0.0 0 0 121.81 35.07
  L 121.99 46.18
  A 0.31 0.31 0.0 0 1 121.68 46.50
  L 114.06 46.50"
/>
<path stroke="#3b3b3c" vector-effect="non-scaling-stroke" d="
  M 149.99 69.23
  A 0.32 0.32 0.0 0 0 150.30 69.00
  L 151.45 64.98
  A 0.32 0.32 0.0 0 1 151.76 64.75
  L 161.28 64.75
  A 0.32 0.32 0.0 0 1 161.59 64.98
  L 162.80 69.02
  A 0.32 0.32 0.0 0 0 163.11 69.25
  L 175.16 69.25
  A 0.32 0.32 0.0 0 0 175.46 68.82
  L 163.68 34.96
  A 0.32 0.32 0.0 0 0 163.38 34.75
  L 149.75 34.75
  A 0.32 0.32 0.0 0 0 149.45 34.96
  L 137.67 68.82
  A 0.32 0.32 0.0 0 0 137.97 69.25
  L 149.99 69.23"
/>
<path stroke="#3b3b3c" vector-effect="non-scaling-stroke" d="
  M 220.94 69.25
  A 0.34 0.34 0.0 0 0 221.28 68.91
  L 221.19 52.74
  A 0.34 0.34 0.0 0 1 221.81 52.55
  L 232.91 69.10
  A 0.34 0.34 0.0 0 0 233.19 69.25
  L 246.47 69.25
  A 0.34 0.34 0.0 0 0 246.76 68.72
  L 235.31 51.65
  A 0.34 0.34 0.0 0 1 235.32 51.26
  L 246.68 35.29
  A 0.34 0.34 0.0 0 0 246.40 34.75
  L 233.15 34.75
  A 0.34 0.34 0.0 0 0 232.87 34.89
  L 221.81 50.42
  A 0.34 0.34 0.0 0 1 221.20 50.23
  L 221.28 35.09
  A 0.34 0.34 0.0 0 0 220.94 34.75
  L 209.34 34.75
  A 0.34 0.34 0.0 0 0 209.00 35.09
  L 209.00 68.91
  A 0.34 0.34 0.0 0 0 209.34 69.25
  L 220.94 69.25"
/>
<path stroke="#3b3b3c" vector-effect="non-scaling-stroke" d="
  M 263.67 47.25
  A 0.33 0.33 0.0 0 1 263.34 46.96
  L 262.99 43.87
  A 0.33 0.33 0.0 0 1 263.32 43.50
  L 279.67 43.50
  A 0.33 0.33 0.0 0 0 280.00 43.18
  L 280.19 35.09
  A 0.33 0.33 0.0 0 0 279.86 34.75
  L 251.34 34.75
  A 0.33 0.33 0.0 0 0 251.01 35.08
  L 250.98 68.92
  A 0.33 0.33 0.0 0 0 251.31 69.25
  L 279.69 69.25
  A 0.33 0.33 0.0 0 0 280.02 68.92
  L 280.12 60.83
  A 0.33 0.33 0.0 0 0 279.79 60.50
  L 263.31 60.50
  A 0.33 0.33 0.0 0 1 262.98 60.16
  L 263.05 56.30
  A 0.33 0.33 0.0 0 1 263.38 55.98
  L 279.63 56.04
  A 0.33 0.33 0.0 0 0 279.96 55.72
  L 280.30 47.59
  A 0.33 0.33 0.0 0 0 279.97 47.25
  L 263.67 47.25"
/>
<path stroke="#3b3b3c" vector-effect="non-scaling-stroke" d="
  M 312.44 69.25
  A 0.33 0.33 0.0 0 0 312.77 68.92
  L 312.77 58.58
  A 0.33 0.33 0.0 0 0 312.44 58.25
  L 297.27 58.25
  A 0.33 0.33 0.0 0 1 296.94 57.92
  L 297.13 35.08
  A 0.33 0.33 0.0 0 0 296.80 34.75
  L 285.34 34.75
  A 0.33 0.33 0.0 0 0 285.01 35.08
  L 284.98 68.92
  A 0.33 0.33 0.0 0 0 285.31 69.25
  L 312.44 69.25"
/>
<path stroke="#3b3b3c" vector-effect="non-scaling-stroke" d="
  M 329.57 58.25
  A 0.32 0.32 0.0 0 1 329.25 57.93
  L 329.25 35.07
  A 0.32 0.32 0.0 0 0 328.93 34.75
  L 317.57 34.75
  A 0.32 0.32 0.0 0 0 317.25 35.07
  L 317.25 68.93
  A 0.32 0.32 0.0 0 0 317.57 69.25
  L 344.68 69.25
  A 0.32 0.32 0.0 0 0 345.00 68.93
  L 345.00 58.57
  A 0.32 0.32 0.0 0 0 344.68 58.25
  L 329.57 58.25"
/>
<path stroke="#3b3b3c" vector-effect="non-scaling-stroke" d="
  M 153.56 56.78
  A 0.39 0.39 0.0 0 0 153.95 57.25
  L 159.14 57.25
  A 0.39 0.39 0.0 0 0 159.52 56.79
  L 156.95 44.27
  A 0.39 0.39 0.0 0 0 156.18 44.27
  L 153.56 56.78"
/>
</g>
<path fill="#757677" d="
  M 0.00 0.00
  L 350.00 0.00
  L 350.00 100.00
  L 0.00 100.00
  L 0.00 0.00
  Z
  M 26.56 26.72
  Q 27.10 26.61 26.29 27.22
  C 24.79 27.41 6.33 46.60 3.65 49.16
  A 0.62 0.61 46.0 0 0 3.64 50.04
  Q 13.88 60.23 24.17 70.54
  C 24.79 71.17 25.29 72.77 26.37 72.48
  L 27.26 72.48
  Q 27.29 72.72 27.13 73.02
  A 0.48 0.48 0.0 0 0 27.22 73.58
  L 48.80 95.18
  A 0.56 0.55 44.6 0 0 49.59 95.18
  Q 60.10 84.37 70.88 73.63
  Q 71.27 73.24 71.47 72.39
  L 72.52 72.18
  L 94.48 50.13
  Q 94.85 49.76 94.48 49.38
  C 92.12 46.97 73.87 27.72 72.51 28.05
  L 71.57 26.62
  L 49.55 4.48
  Q 49.16 4.09 48.77 4.48
  L 26.56 26.72
  Z
  M 192.74 46.52
  A 1.46 1.46 0.0 0 1 192.99 43.70
  Q 196.97 43.08 200.41 45.36
  Q 200.85 45.66 201.04 45.16
  L 204.02 37.30
  Q 204.16 36.92 203.81 36.74
  Q 195.96 32.76 188.08 35.10
  C 182.20 36.84 178.08 42.69 179.48 48.75
  C 180.93 55.02 186.53 55.83 191.99 56.86
  A 1.54 1.54 0.0 0 1 192.92 59.32
  C 190.65 62.24 184.45 58.88 182.26 57.27
  Q 181.74 56.89 181.50 57.49
  L 178.14 65.92
  Q 177.91 66.48 178.44 66.76
  C 184.92 70.25 194.76 71.62 201.15 67.29
  C 207.34 63.09 208.25 53.02 201.31 49.19
  C 198.99 47.91 195.49 47.46 192.74 46.52
  Z
  M 114.06 46.50
  A 0.31 0.31 0.0 0 1 113.75 46.19
  L 113.75 35.06
  A 0.31 0.31 0.0 0 0 113.44 34.75
  L 101.81 34.75
  A 0.31 0.31 0.0 0 0 101.50 35.06
  L 101.50 68.94
  A 0.31 0.31 0.0 0 0 101.81 69.25
  L 113.44 69.26
  A 0.31 0.31 0.0 0 0 113.75 68.95
  L 113.75 57.06
  A 0.31 0.31 0.0 0 1 114.06 56.75
  L 121.68 56.75
  A 0.31 0.31 0.0 0 1 121.99 57.06
  L 121.84 68.94
  A 0.31 0.31 0.0 0 0 122.15 69.25
  L 133.68 69.25
  A 0.31 0.31 0.0 0 0 133.99 68.94
  L 134.03 35.06
  A 0.31 0.31 0.0 0 0 133.72 34.75
  L 122.12 34.75
  A 0.31 0.31 0.0 0 0 121.81 35.07
  L 121.99 46.18
  A 0.31 0.31 0.0 0 1 121.68 46.50
  L 114.06 46.50
  Z
  M 149.99 69.23
  A 0.32 0.32 0.0 0 0 150.30 69.00
  L 151.45 64.98
  A 0.32 0.32 0.0 0 1 151.76 64.75
  L 161.28 64.75
  A 0.32 0.32 0.0 0 1 161.59 64.98
  L 162.80 69.02
  A 0.32 0.32 0.0 0 0 163.11 69.25
  L 175.16 69.25
  A 0.32 0.32 0.0 0 0 175.46 68.82
  L 163.68 34.96
  A 0.32 0.32 0.0 0 0 163.38 34.75
  L 149.75 34.75
  A 0.32 0.32 0.0 0 0 149.45 34.96
  L 137.67 68.82
  A 0.32 0.32 0.0 0 0 137.97 69.25
  L 149.99 69.23
  Z
  M 220.94 69.25
  A 0.34 0.34 0.0 0 0 221.28 68.91
  L 221.19 52.74
  A 0.34 0.34 0.0 0 1 221.81 52.55
  L 232.91 69.10
  A 0.34 0.34 0.0 0 0 233.19 69.25
  L 246.47 69.25
  A 0.34 0.34 0.0 0 0 246.76 68.72
  L 235.31 51.65
  A 0.34 0.34 0.0 0 1 235.32 51.26
  L 246.68 35.29
  A 0.34 0.34 0.0 0 0 246.40 34.75
  L 233.15 34.75
  A 0.34 0.34 0.0 0 0 232.87 34.89
  L 221.81 50.42
  A 0.34 0.34 0.0 0 1 221.20 50.23
  L 221.28 35.09
  A 0.34 0.34 0.0 0 0 220.94 34.75
  L 209.34 34.75
  A 0.34 0.34 0.0 0 0 209.00 35.09
  L 209.00 68.91
  A 0.34 0.34 0.0 0 0 209.34 69.25
  L 220.94 69.25
  Z
  M 263.67 47.25
  A 0.33 0.33 0.0 0 1 263.34 46.96
  L 262.99 43.87
  A 0.33 0.33 0.0 0 1 263.32 43.50
  L 279.67 43.50
  A 0.33 0.33 0.0 0 0 280.00 43.18
  L 280.19 35.09
  A 0.33 0.33 0.0 0 0 279.86 34.75
  L 251.34 34.75
  A 0.33 0.33 0.0 0 0 251.01 35.08
  L 250.98 68.92
  A 0.33 0.33 0.0 0 0 251.31 69.25
  L 279.69 69.25
  A 0.33 0.33 0.0 0 0 280.02 68.92
  L 280.12 60.83
  A 0.33 0.33 0.0 0 0 279.79 60.50
  L 263.31 60.50
  A 0.33 0.33 0.0 0 1 262.98 60.16
  L 263.05 56.30
  A 0.33 0.33 0.0 0 1 263.38 55.98
  L 279.63 56.04
  A 0.33 0.33 0.0 0 0 279.96 55.72
  L 280.30 47.59
  A 0.33 0.33 0.0 0 0 279.97 47.25
  L 263.67 47.25
  Z
  M 312.44 69.25
  A 0.33 0.33 0.0 0 0 312.77 68.92
  L 312.77 58.58
  A 0.33 0.33 0.0 0 0 312.44 58.25
  L 297.27 58.25
  A 0.33 0.33 0.0 0 1 296.94 57.92
  L 297.13 35.08
  A 0.33 0.33 0.0 0 0 296.80 34.75
  L 285.34 34.75
  A 0.33 0.33 0.0 0 0 285.01 35.08
  L 284.98 68.92
  A 0.33 0.33 0.0 0 0 285.31 69.25
  L 312.44 69.25
  Z
  M 329.57 58.25
  A 0.32 0.32 0.0 0 1 329.25 57.93
  L 329.25 35.07
  A 0.32 0.32 0.0 0 0 328.93 34.75
  L 317.57 34.75
  A 0.32 0.32 0.0 0 0 317.25 35.07
  L 317.25 68.93
  A 0.32 0.32 0.0 0 0 317.57 69.25
  L 344.68 69.25
  A 0.32 0.32 0.0 0 0 345.00 68.93
  L 345.00 58.57
  A 0.32 0.32 0.0 0 0 344.68 58.25
  L 329.57 58.25
  Z"
/>
<path fill="#0069aa" d="
  M 71.57 26.62
  L 61.01 26.74
  Q 60.50 26.75 60.50 27.26
  L 60.50 45.75
  Q 60.50 46.25 60.00 46.25
  L 50.00 46.25
  Q 49.50 46.25 49.50 45.75
  L 49.50 27.26
  Q 49.50 26.76 49.00 26.76
  L 26.56 26.72
  L 48.77 4.48
  Q 49.16 4.09 49.55 4.48
  L 71.57 26.62
  Z"
/>
<path fill="#ffffff" d="
  M 26.56 26.72
  L 49.00 26.76
  Q 49.50 26.76 49.50 27.26
  L 49.50 45.75
  Q 49.50 46.25 50.00 46.25
  L 60.00 46.25
  Q 60.50 46.25 60.50 45.75
  L 60.50 27.26
  Q 60.50 26.75 61.01 26.74
  L 71.57 26.62
  L 72.51 28.05
  L 72.52 72.18
  L 71.47 72.39
  L 60.98 72.71
  A 0.47 0.47 0.0 0 1 60.50 72.24
  L 60.50 53.73
  Q 60.50 53.21 59.98 53.21
  L 49.97 53.07
  Q 49.50 53.07 49.50 53.53
  L 49.50 72.23
  A 0.49 0.49 0.0 0 1 49.01 72.72
  L 27.26 72.48
  L 26.37 72.48
  L 26.31 53.41
  A 0.91 0.91 0.0 0 1 27.22 52.50
  L 48.75 52.50
  Q 49.25 52.50 49.25 52.00
  L 49.25 47.26
  Q 49.25 46.53 48.51 46.53
  L 26.96 46.73
  A 0.70 0.70 0.0 0 1 26.25 46.03
  L 26.29 27.22
  Q 27.10 26.61 26.56 26.72
  Z"
/>
<path fill="#0069aa" d="
  M 26.29 27.22
  L 26.25 46.03
  A 0.70 0.70 0.0 0 0 26.96 46.73
  L 48.51 46.53
  Q 49.25 46.53 49.25 47.26
  L 49.25 52.00
  Q 49.25 52.50 48.75 52.50
  L 27.22 52.50
  A 0.91 0.91 0.0 0 0 26.31 53.41
  L 26.37 72.48
  C 25.29 72.77 24.79 71.17 24.17 70.54
  Q 13.88 60.23 3.64 50.04
  A 0.62 0.61 46.0 0 1 3.65 49.16
  C 6.33 46.60 24.79 27.41 26.29 27.22
  Z"
/>
<path fill="#0069aa" d="
  M 72.51 28.05
  C 73.87 27.72 92.12 46.97 94.48 49.38
  Q 94.85 49.76 94.48 50.13
  L 72.52 72.18
  L 72.51 28.05
  Z"
/>
<path fill="#000000" d="
  M 192.74 46.52
  C 195.49 47.46 198.99 47.91 201.31 49.19
  C 208.25 53.02 207.34 63.09 201.15 67.29
  C 194.76 71.62 184.92 70.25 178.44 66.76
  Q 177.91 66.48 178.14 65.92
  L 181.50 57.49
  Q 181.74 56.89 182.26 57.27
  C 184.45 58.88 190.65 62.24 192.92 59.32
  A 1.54 1.54 0.0 0 0 191.99 56.86
  C 186.53 55.83 180.93 55.02 179.48 48.75
  C 178.08 42.69 182.20 36.84 188.08 35.10
  Q 195.96 32.76 203.81 36.74
  Q 204.16 36.92 204.02 37.30
  L 201.04 45.16
  Q 200.85 45.66 200.41 45.36
  Q 196.97 43.08 192.99 43.70
  A 1.46 1.46 0.0 0 0 192.74 46.52
  Z"
/>
<path fill="#000000" d="
  M 114.06 46.50
  L 121.68 46.50
  A 0.31 0.31 0.0 0 0 121.99 46.18
  L 121.81 35.07
  A 0.31 0.31 0.0 0 1 122.12 34.75
  L 133.72 34.75
  A 0.31 0.31 0.0 0 1 134.03 35.06
  L 133.99 68.94
  A 0.31 0.31 0.0 0 1 133.68 69.25
  L 122.15 69.25
  A 0.31 0.31 0.0 0 1 121.84 68.94
  L 121.99 57.06
  A 0.31 0.31 0.0 0 0 121.68 56.75
  L 114.06 56.75
  A 0.31 0.31 0.0 0 0 113.75 57.06
  L 113.75 68.95
  A 0.31 0.31 0.0 0 1 113.44 69.26
  L 101.81 69.25
  A 0.31 0.31 0.0 0 1 101.50 68.94
  L 101.50 35.06
  A 0.31 0.31 0.0 0 1 101.81 34.75
  L 113.44 34.75
  A 0.31 0.31 0.0 0 1 113.75 35.06
  L 113.75 46.19
  A 0.31 0.31 0.0 0 0 114.06 46.50
  Z"
/>
<path fill="#000000" d="
  M 149.99 69.23
  L 137.97 69.25
  A 0.32 0.32 0.0 0 1 137.67 68.82
  L 149.45 34.96
  A 0.32 0.32 0.0 0 1 149.75 34.75
  L 163.38 34.75
  A 0.32 0.32 0.0 0 1 163.68 34.96
  L 175.46 68.82
  A 0.32 0.32 0.0 0 1 175.16 69.25
  L 163.11 69.25
  A 0.32 0.32 0.0 0 1 162.80 69.02
  L 161.59 64.98
  A 0.32 0.32 0.0 0 0 161.28 64.75
  L 151.76 64.75
  A 0.32 0.32 0.0 0 0 151.45 64.98
  L 150.30 69.00
  A 0.32 0.32 0.0 0 1 149.99 69.23
  Z
  M 153.56 56.78
  A 0.39 0.39 0.0 0 0 153.95 57.25
  L 159.14 57.25
  A 0.39 0.39 0.0 0 0 159.52 56.79
  L 156.95 44.27
  A 0.39 0.39 0.0 0 0 156.18 44.27
  L 153.56 56.78
  Z"
/>
<path fill="#000000" d="
  M 220.94 69.25
  L 209.34 69.25
  A 0.34 0.34 0.0 0 1 209.00 68.91
  L 209.00 35.09
  A 0.34 0.34 0.0 0 1 209.34 34.75
  L 220.94 34.75
  A 0.34 0.34 0.0 0 1 221.28 35.09
  L 221.20 50.23
  A 0.34 0.34 0.0 0 0 221.81 50.42
  L 232.87 34.89
  A 0.34 0.34 0.0 0 1 233.15 34.75
  L 246.40 34.75
  A 0.34 0.34 0.0 0 1 246.68 35.29
  L 235.32 51.26
  A 0.34 0.34 0.0 0 0 235.31 51.65
  L 246.76 68.72
  A 0.34 0.34 0.0 0 1 246.47 69.25
  L 233.19 69.25
  A 0.34 0.34 0.0 0 1 232.91 69.10
  L 221.81 52.55
  A 0.34 0.34 0.0 0 0 221.19 52.74
  L 221.28 68.91
  A 0.34 0.34 0.0 0 1 220.94 69.25
  Z"
/>
<path fill="#000000" d="
  M 263.67 47.25
  L 279.97 47.25
  A 0.33 0.33 0.0 0 1 280.30 47.59
  L 279.96 55.72
  A 0.33 0.33 0.0 0 1 279.63 56.04
  L 263.38 55.98
  A 0.33 0.33 0.0 0 0 263.05 56.30
  L 262.98 60.16
  A 0.33 0.33 0.0 0 0 263.31 60.50
  L 279.79 60.50
  A 0.33 0.33 0.0 0 1 280.12 60.83
  L 280.02 68.92
  A 0.33 0.33 0.0 0 1 279.69 69.25
  L 251.31 69.25
  A 0.33 0.33 0.0 0 1 250.98 68.92
  L 251.01 35.08
  A 0.33 0.33 0.0 0 1 251.34 34.75
  L 279.86 34.75
  A 0.33 0.33 0.0 0 1 280.19 35.09
  L 280.00 43.18
  A 0.33 0.33 0.0 0 1 279.67 43.50
  L 263.32 43.50
  A 0.33 0.33 0.0 0 0 262.99 43.87
  L 263.34 46.96
  A 0.33 0.33 0.0 0 0 263.67 47.25
  Z"
/>
<path fill="#000000" d="
  M 312.44 69.25
  L 285.31 69.25
  A 0.33 0.33 0.0 0 1 284.98 68.92
  L 285.01 35.08
  A 0.33 0.33 0.0 0 1 285.34 34.75
  L 296.80 34.75
  A 0.33 0.33 0.0 0 1 297.13 35.08
  L 296.94 57.92
  A 0.33 0.33 0.0 0 0 297.27 58.25
  L 312.44 58.25
  A 0.33 0.33 0.0 0 1 312.77 58.58
  L 312.77 68.92
  A 0.33 0.33 0.0 0 1 312.44 69.25
  Z"
/>
<path fill="#000000" d="
  M 329.57 58.25
  L 344.68 58.25
  A 0.32 0.32 0.0 0 1 345.00 58.57
  L 345.00 68.93
  A 0.32 0.32 0.0 0 1 344.68 69.25
  L 317.57 69.25
  A 0.32 0.32 0.0 0 1 317.25 68.93
  L 317.25 35.07
  A 0.32 0.32 0.0 0 1 317.57 34.75
  L 328.93 34.75
  A 0.32 0.32 0.0 0 1 329.25 35.07
  L 329.25 57.93
  A 0.32 0.32 0.0 0 0 329.57 58.25
  Z"
/>
<path fill="#757677" d="
  M 153.56 56.78
  L 156.18 44.27
  A 0.39 0.39 0.0 0 1 156.95 44.27
  L 159.52 56.79
  A 0.39 0.39 0.0 0 1 159.14 57.25
  L 153.95 57.25
  A 0.39 0.39 0.0 0 1 153.56 56.78
  Z"
/>
<path fill="#0069aa" d="
  M 71.47 72.39
  Q 71.27 73.24 70.88 73.63
  Q 60.10 84.37 49.59 95.18
  A 0.56 0.55 44.6 0 1 48.80 95.18
  L 27.22 73.58
  A 0.48 0.48 0.0 0 1 27.13 73.02
  Q 27.29 72.72 27.26 72.48
  L 49.01 72.72
  A 0.49 0.49 0.0 0 0 49.50 72.23
  L 49.50 53.53
  Q 49.50 53.07 49.97 53.07
  L 59.98 53.21
  Q 60.50 53.21 60.50 53.73
  L 60.50 72.24
  A 0.47 0.47 0.0 0 0 60.98 72.71
  L 71.47 72.39
  Z"
/>
</svg>
