<?xml version="1.0" encoding="UTF-8" standalone="no"?>
<!DOCTYPE svg PUBLIC "-//W3C//DTD SVG 1.1//EN" "http://www.w3.org/Graphics/SVG/1.1/DTD/svg11.dtd">
<svg xmlns="http://www.w3.org/2000/svg" version="1.1" viewBox="0.00 0.00 255.00 100.00">
<g stroke-width="2.00" fill="none" stroke-linecap="butt">
<path stroke="#e45a2c" vector-effect="non-scaling-stroke" d="
  M 19.86 0.00
  L 27.76 89.33
  Q 27.81 89.90 28.36 90.06
  L 63.47 100.00"
/>
<path stroke="#e45a2c" vector-effect="non-scaling-stroke" d="
  M 107.90 0.00
  L 100.04 88.84
  A 1.41 1.40 -5.3 0 1 99.01 90.08
  L 63.93 100.00"
/>
<path stroke="#e79d89" vector-effect="non-scaling-stroke" d="
  M 36.58 18.16
  Q 36.12 19.73 36.40 23.07
  Q 37.53 36.17 38.94 51.01
  A 0.80 0.80 0.0 0 0 39.74 51.74
  L 63.71 51.74"
/>
<path stroke="#f1a793" vector-effect="non-scaling-stroke" d="
  M 63.71 51.74
  Q 64.65 52.28 64.03 51.80"
/>
<path stroke="#e45a2c" vector-effect="non-scaling-stroke" d="
  M 64.03 51.80
  L 63.86 67.00
  A 0.71 0.71 0.0 0 0 64.75 67.69
  L 74.40 65.19
  A 0.72 0.71 -5.6 0 0 74.94 64.54
  C 75.11 61.70 75.19 59.93 75.86 56.49
  Q 76.28 54.35 75.25 52.09"
/>
<path stroke="#f1a793" vector-effect="non-scaling-stroke" d="
  M 75.25 52.09
  L 76.53 51.84
  A 0.53 0.53 0.0 0 1 77.16 52.41
  L 76.03 64.88
  A 1.42 1.40 -5.4 0 1 74.99 66.12
  L 63.53 69.20"
/>
<path stroke="#e79d89" vector-effect="non-scaling-stroke" d="
  M 63.53 69.20
  L 52.07 66.07
  Q 51.68 65.97 51.65 65.56
  L 50.98 57.80
  Q 50.93 57.25 50.38 57.25
  L 40.06 57.25
  Q 39.57 57.25 39.61 57.73
  Q 40.21 65.64 40.79 73.45
  Q 40.94 75.40 44.05 75.63"
/>
<path stroke="#e45a2c" vector-effect="non-scaling-stroke" d="
  M 44.05 75.63
  L 43.32 75.81
  A 0.53 0.53 0.0 0 0 43.31 76.83
  L 63.59 82.27
  Q 64.00 82.38 64.00 82.80
  L 64.00 91.46
  Q 64.00 92.20 64.71 92.00
  L 92.63 84.32
  Q 93.15 84.17 93.20 83.63
  L 99.87 8.24
  Q 99.96 7.25 98.97 7.25
  L 64.51 7.25
  Q 64.03 7.25 64.02 7.74
  L 63.95 16.72
  Q 63.95 17.23 63.44 17.24
  Q 51.97 17.29 40.50 17.23
  Q 39.21 17.23 36.58 18.16"
/>
<path stroke="#e8a88f" vector-effect="non-scaling-stroke" d="
  M 44.05 75.63
  L 63.53 81.03"
/>
<path stroke="#f2b299" vector-effect="non-scaling-stroke" d="
  M 63.53 81.03
  L 85.71 74.99
  A 1.39 1.39 0.0 0 0 86.73 73.78
  L 89.65 41.23
  A 0.71 0.70 -87.4 0 0 88.95 40.46
  L 63.65 40.50"
/>
<path stroke="#e8a88f" vector-effect="non-scaling-stroke" d="
  M 63.65 40.50
  L 50.08 40.43
  Q 49.63 40.43 49.58 39.98
  L 48.60 29.99
  Q 48.55 29.51 49.03 29.51
  L 63.47 29.49"
/>
<path stroke="#f2b299" vector-effect="non-scaling-stroke" d="
  M 63.47 29.49
  L 90.17 29.49
  Q 90.69 29.49 90.74 28.97
  L 91.78 19.01
  A 0.69 0.68 -87.0 0 0 91.10 18.25
  L 63.49 18.24"
/>
<path stroke="#e8a88f" vector-effect="non-scaling-stroke" d="
  M 63.49 18.24
  L 36.58 18.16"
/>
<path stroke="#f5f5f5" vector-effect="non-scaling-stroke" d="
  M 63.49 18.24
  Q 64.08 23.88 63.47 29.49"
/>
<path stroke="#f5f5f5" vector-effect="non-scaling-stroke" d="
  M 63.65 40.50
  L 63.71 51.74"
/>
<path stroke="#f5f5f5" vector-effect="non-scaling-stroke" d="
  M 63.53 81.03
  L 63.53 69.20"
/>
<path stroke="#f2b299" vector-effect="non-scaling-stroke" d="
  M 75.25 52.09
  L 64.03 51.80"
/>
<path stroke="#733319" vector-effect="non-scaling-stroke" d="
  M 122.59 47.50
  A 0.34 0.34 0.0 0 1 122.25 47.16
  L 122.25 37.46
  A 0.34 0.34 0.0 0 0 121.90 37.12
  L 117.08 37.31
  A 0.34 0.34 0.0 0 0 116.75 37.65
  L 116.75 63.66
  A 0.34 0.34 0.0 0 0 117.09 64.00
  L 121.91 64.00
  A 0.34 0.34 0.0 0 0 122.25 63.66
  L 122.25 52.34
  A 0.34 0.34 0.0 0 1 122.59 52.00
  L 132.41 52.00
  A 0.34 0.34 0.0 0 1 132.75 52.34
  L 132.75 63.66
  A 0.34 0.34 0.0 0 0 133.09 64.00
  L 137.64 64.00
  A 0.34 0.34 0.0 0 0 137.98 63.66
  L 138.07 37.47
  A 0.34 0.34 0.0 0 0 137.72 37.13
  L 133.08 37.31
  A 0.34 0.34 0.0 0 0 132.75 37.65
  L 132.75 47.16
  A 0.34 0.34 0.0 0 1 132.41 47.50
  L 122.59 47.50"
/>
<path stroke="#733319" vector-effect="non-scaling-stroke" d="
  M 155.00 42.20
  A 0.31 0.31 0.0 0 1 155.32 41.89
  L 162.43 42.05
  A 0.31 0.31 0.0 0 0 162.75 41.74
  L 162.75 37.52
  A 0.31 0.31 0.0 0 0 162.44 37.21
  L 142.06 37.27
  A 0.31 0.31 0.0 0 0 141.75 37.58
  L 141.75 41.75
  A 0.31 0.31 0.0 0 0 142.07 42.06
  L 149.18 41.88
  A 0.31 0.31 0.0 0 1 149.50 42.19
  L 149.50 63.69
  A 0.31 0.31 0.0 0 0 149.81 64.00
  L 154.69 64.00
  A 0.31 0.31 0.0 0 0 155.00 63.69
  L 155.00 42.20"
/>
<path stroke="#733319" vector-effect="non-scaling-stroke" d="
  M 171.61 44.91
  L 177.11 63.40
  Q 177.29 64.00 177.91 64.00
  L 181.99 64.00
  Q 182.52 64.00 182.67 63.49
  L 187.38 46.65
  A 0.29 0.28 52.8 0 1 187.94 46.73
  L 188.14 63.45
  Q 188.14 64.00 188.70 64.00
  L 192.75 64.00
  Q 193.25 64.00 193.25 63.50
  L 193.26 37.66
  Q 193.26 37.13 192.73 37.14
  L 185.55 37.30
  Q 185.14 37.30 185.03 37.70
  L 180.36 54.22
  A 0.41 0.40 -45.6 0 1 179.58 54.23
  L 174.72 37.80
  Q 174.57 37.30 174.04 37.29
  L 166.79 37.17
  Q 166.25 37.16 166.25 37.70
  L 166.25 63.50
  Q 166.25 64.00 166.75 64.00
  L 170.89 64.00
  A 0.64 0.64 0.0 0 0 171.53 63.36
  L 171.44 44.93
  A 0.09 0.09 0.0 0 1 171.61 44.91"
/>
<path stroke="#733319" vector-effect="non-scaling-stroke" d="
  M 204.58 59.25
  A 0.33 0.33 0.0 0 1 204.25 58.92
  L 204.25 37.51
  A 0.33 0.33 0.0 0 0 203.92 37.18
  L 199.31 37.25
  A 0.33 0.33 0.0 0 0 198.99 37.57
  L 198.90 63.67
  A 0.33 0.33 0.0 0 0 199.23 64.00
  L 215.92 64.00
  A 0.33 0.33 0.0 0 0 216.25 63.67
  L 216.25 59.58
  A 0.33 0.33 0.0 0 0 215.92 59.25
  L 204.58 59.25"
/>
<path stroke="#733319" vector-effect="non-scaling-stroke" d="
  M 225.37 46.28
  L 225.98 42.94
  Q 226.07 42.42 226.60 42.43
  L 235.23 42.53
  Q 235.75 42.54 235.75 42.02
  L 235.75 38.00
  Q 235.75 37.50 235.25 37.50
  L 222.49 37.50
  A 0.70 0.70 0.0 0 0 221.80 38.07
  L 219.28 51.25
  A 0.51 0.51 0.0 0 0 219.73 51.85
  L 223.29 52.18
  Q 223.83 52.23 224.19 51.82
  Q 226.11 49.66 229.27 50.65
  Q 229.74 50.79 230.02 51.19
  C 234.42 57.30 226.56 64.39 224.11 56.93
  Q 223.96 56.47 223.49 56.53
  L 219.05 57.02
  A 0.50 0.50 0.0 0 0 218.63 57.68
  Q 220.79 64.14 227.05 64.37
  C 240.64 64.87 239.85 43.08 225.75 46.63
  Q 225.28 46.75 225.37 46.28"
/>
<path stroke="#e45a2c" vector-effect="non-scaling-stroke" d="
  M 64.01 38.71
  L 64.03 31.27
  A 0.28 0.28 0.0 0 0 63.75 30.99
  L 51.62 30.97
  A 1.27 1.15 0.1 0 0 50.34 32.12
  L 50.34 37.82
  A 1.27 1.15 0.1 0 0 51.60 38.97
  L 63.73 38.99
  A 0.28 0.28 0.0 0 0 64.01 38.71"
/>
</g>
<path fill="#e56532" d="
  M 0.00 0.00
  L 19.86 0.00
  L 27.76 89.33
  Q 27.81 89.90 28.36 90.06
  L 63.47 100.00
  L 0.00 100.00
  L 0.00 0.00
  Z"
/>
<path fill="#e34f26" d="
  M 19.86 0.00
  L 107.90 0.00
  L 100.04 88.84
  A 1.41 1.40 -5.3 0 1 99.01 90.08
  L 63.93 100.00
  L 63.47 100.00
  L 28.36 90.06
  Q 27.81 89.90 27.76 89.33
  L 19.86 0.00
  Z
  M 36.58 18.16
  Q 36.12 19.73 36.40 23.07
  Q 37.53 36.17 38.94 51.01
  A 0.80 0.80 0.0 0 0 39.74 51.74
  L 63.71 51.74
  Q 64.65 52.28 64.03 51.80
  L 63.86 67.00
  A 0.71 0.71 0.0 0 0 64.75 67.69
  L 74.40 65.19
  A 0.72 0.71 -5.6 0 0 74.94 64.54
  C 75.11 61.70 75.19 59.93 75.86 56.49
  Q 76.28 54.35 75.25 52.09
  L 76.53 51.84
  A 0.53 0.53 0.0 0 1 77.16 52.41
  L 76.03 64.88
  A 1.42 1.40 -5.4 0 1 74.99 66.12
  L 63.53 69.20
  L 52.07 66.07
  Q 51.68 65.97 51.65 65.56
  L 50.98 57.80
  Q 50.93 57.25 50.38 57.25
  L 40.06 57.25
  Q 39.57 57.25 39.61 57.73
  Q 40.21 65.64 40.79 73.45
  Q 40.94 75.40 44.05 75.63
  L 43.32 75.81
  A 0.53 0.53 0.0 0 0 43.31 76.83
  L 63.59 82.27
  Q 64.00 82.38 64.00 82.80
  L 64.00 91.46
  Q 64.00 92.20 64.71 92.00
  L 92.63 84.32
  Q 93.15 84.17 93.20 83.63
  L 99.87 8.24
  Q 99.96 7.25 98.97 7.25
  L 64.51 7.25
  Q 64.03 7.25 64.02 7.74
  L 63.95 16.72
  Q 63.95 17.23 63.44 17.24
  Q 51.97 17.29 40.50 17.23
  Q 39.21 17.23 36.58 18.16
  Z"
/>
<path fill="#e56532" d="
  M 107.90 0.00
  L 255.00 0.00
  L 255.00 100.00
  L 63.93 100.00
  L 99.01 90.08
  A 1.41 1.40 -5.3 0 0 100.04 88.84
  L 107.90 0.00
  Z
  M 122.59 47.50
  A 0.34 0.34 0.0 0 1 122.25 47.16
  L 122.25 37.46
  A 0.34 0.34 0.0 0 0 121.90 37.12
  L 117.08 37.31
  A 0.34 0.34 0.0 0 0 116.75 37.65
  L 116.75 63.66
  A 0.34 0.34 0.0 0 0 117.09 64.00
  L 121.91 64.00
  A 0.34 0.34 0.0 0 0 122.25 63.66
  L 122.25 52.34
  A 0.34 0.34 0.0 0 1 122.59 52.00
  L 132.41 52.00
  A 0.34 0.34 0.0 0 1 132.75 52.34
  L 132.75 63.66
  A 0.34 0.34 0.0 0 0 133.09 64.00
  L 137.64 64.00
  A 0.34 0.34 0.0 0 0 137.98 63.66
  L 138.07 37.47
  A 0.34 0.34 0.0 0 0 137.72 37.13
  L 133.08 37.31
  A 0.34 0.34 0.0 0 0 132.75 37.65
  L 132.75 47.16
  A 0.34 0.34 0.0 0 1 132.41 47.50
  L 122.59 47.50
  Z
  M 155.00 42.20
  A 0.31 0.31 0.0 0 1 155.32 41.89
  L 162.43 42.05
  A 0.31 0.31 0.0 0 0 162.75 41.74
  L 162.75 37.52
  A 0.31 0.31 0.0 0 0 162.44 37.21
  L 142.06 37.27
  A 0.31 0.31 0.0 0 0 141.75 37.58
  L 141.75 41.75
  A 0.31 0.31 0.0 0 0 142.07 42.06
  L 149.18 41.88
  A 0.31 0.31 0.0 0 1 149.50 42.19
  L 149.50 63.69
  A 0.31 0.31 0.0 0 0 149.81 64.00
  L 154.69 64.00
  A 0.31 0.31 0.0 0 0 155.00 63.69
  L 155.00 42.20
  Z
  M 171.61 44.91
  L 177.11 63.40
  Q 177.29 64.00 177.91 64.00
  L 181.99 64.00
  Q 182.52 64.00 182.67 63.49
  L 187.38 46.65
  A 0.29 0.28 52.8 0 1 187.94 46.73
  L 188.14 63.45
  Q 188.14 64.00 188.70 64.00
  L 192.75 64.00
  Q 193.25 64.00 193.25 63.50
  L 193.26 37.66
  Q 193.26 37.13 192.73 37.14
  L 185.55 37.30
  Q 185.14 37.30 185.03 37.70
  L 180.36 54.22
  A 0.41 0.40 -45.6 0 1 179.58 54.23
  L 174.72 37.80
  Q 174.57 37.30 174.04 37.29
  L 166.79 37.17
  Q 166.25 37.16 166.25 37.70
  L 166.25 63.50
  Q 166.25 64.00 166.75 64.00
  L 170.89 64.00
  A 0.64 0.64 0.0 0 0 171.53 63.36
  L 171.44 44.93
  A 0.09 0.09 0.0 0 1 171.61 44.91
  Z
  M 204.58 59.25
  A 0.33 0.33 0.0 0 1 204.25 58.92
  L 204.25 37.51
  A 0.33 0.33 0.0 0 0 203.92 37.18
  L 199.31 37.25
  A 0.33 0.33 0.0 0 0 198.99 37.57
  L 198.90 63.67
  A 0.33 0.33 0.0 0 0 199.23 64.00
  L 215.92 64.00
  A 0.33 0.33 0.0 0 0 216.25 63.67
  L 216.25 59.58
  A 0.33 0.33 0.0 0 0 215.92 59.25
  L 204.58 59.25
  Z
  M 225.37 46.28
  L 225.98 42.94
  Q 226.07 42.42 226.60 42.43
  L 235.23 42.53
  Q 235.75 42.54 235.75 42.02
  L 235.75 38.00
  Q 235.75 37.50 235.25 37.50
  L 222.49 37.50
  A 0.70 0.70 0.0 0 0 221.80 38.07
  L 219.28 51.25
  A 0.51 0.51 0.0 0 0 219.73 51.85
  L 223.29 52.18
  Q 223.83 52.23 224.19 51.82
  Q 226.11 49.66 229.27 50.65
  Q 229.74 50.79 230.02 51.19
  C 234.42 57.30 226.56 64.39 224.11 56.93
  Q 223.96 56.47 223.49 56.53
  L 219.05 57.02
  A 0.50 0.50 0.0 0 0 218.63 57.68
  Q 220.79 64.14 227.05 64.37
  C 240.64 64.87 239.85 43.08 225.75 46.63
  Q 225.28 46.75 225.37 46.28
  Z"
/>
<path fill="#e56532" d="
  M 44.05 75.63
  L 63.53 81.03
  L 85.71 74.99
  A 1.39 1.39 0.0 0 0 86.73 73.78
  L 89.65 41.23
  A 0.71 0.70 -87.4 0 0 88.95 40.46
  L 63.65 40.50
  L 50.08 40.43
  Q 49.63 40.43 49.58 39.98
  L 48.60 29.99
  Q 48.55 29.51 49.03 29.51
  L 63.47 29.49
  L 90.17 29.49
  Q 90.69 29.49 90.74 28.97
  L 91.78 19.01
  A 0.69 0.68 -87.0 0 0 91.10 18.25
  L 63.49 18.24
  L 36.58 18.16
  Q 39.21 17.23 40.50 17.23
  Q 51.97 17.29 63.44 17.24
  Q 63.95 17.23 63.95 16.72
  L 64.02 7.74
  Q 64.03 7.25 64.51 7.25
  L 98.97 7.25
  Q 99.96 7.25 99.87 8.24
  L 93.20 83.63
  Q 93.15 84.17 92.63 84.32
  L 64.71 92.00
  Q 64.00 92.20 64.00 91.46
  L 64.00 82.80
  Q 64.00 82.38 63.59 82.27
  L 43.31 76.83
  A 0.53 0.53 0.0 0 1 43.32 75.81
  L 44.05 75.63
  Z
  M 64.01 38.71
  L 64.03 31.27
  A 0.28 0.28 0.0 0 0 63.75 30.99
  L 51.62 30.97
  A 1.27 1.15 0.1 0 0 50.34 32.12
  L 50.34 37.82
  A 1.27 1.15 0.1 0 0 51.60 38.97
  L 63.73 38.99
  A 0.28 0.28 0.0 0 0 64.01 38.71
  Z"
/>
<path fill="#ebebeb" d="
  M 36.58 18.16
  L 63.49 18.24
  Q 64.08 23.88 63.47 29.49
  L 49.03 29.51
  Q 48.55 29.51 48.60 29.99
  L 49.58 39.98
  Q 49.63 40.43 50.08 40.43
  L 63.65 40.50
  L 63.71 51.74
  L 39.74 51.74
  A 0.80 0.80 0.0 0 1 38.94 51.01
  Q 37.53 36.17 36.40 23.07
  Q 36.12 19.73 36.58 18.16
  Z"
/>
<path fill="#ffffff" d="
  M 63.49 18.24
  L 91.10 18.25
  A 0.69 0.68 -87.0 0 1 91.78 19.01
  L 90.74 28.97
  Q 90.69 29.49 90.17 29.49
  L 63.47 29.49
  Q 64.08 23.88 63.49 18.24
  Z"
/>
<path fill="#e34f26" d="
  M 64.01 38.71
  A 0.28 0.28 0.0 0 1 63.73 38.99
  L 51.60 38.97
  A 1.27 1.15 0.1 0 1 50.34 37.82
  L 50.34 32.12
  A 1.27 1.15 0.1 0 1 51.62 30.97
  L 63.75 30.99
  A 0.28 0.28 0.0 0 1 64.03 31.27
  L 64.01 38.71
  Z"
/>
<path fill="#000000" d="
  M 122.59 47.50
  L 132.41 47.50
  A 0.34 0.34 0.0 0 0 132.75 47.16
  L 132.75 37.65
  A 0.34 0.34 0.0 0 1 133.08 37.31
  L 137.72 37.13
  A 0.34 0.34 0.0 0 1 138.07 37.47
  L 137.98 63.66
  A 0.34 0.34 0.0 0 1 137.64 64.00
  L 133.09 64.00
  A 0.34 0.34 0.0 0 1 132.75 63.66
  L 132.75 52.34
  A 0.34 0.34 0.0 0 0 132.41 52.00
  L 122.59 52.00
  A 0.34 0.34 0.0 0 0 122.25 52.34
  L 122.25 63.66
  A 0.34 0.34 0.0 0 1 121.91 64.00
  L 117.09 64.00
  A 0.34 0.34 0.0 0 1 116.75 63.66
  L 116.75 37.65
  A 0.34 0.34 0.0 0 1 117.08 37.31
  L 121.90 37.12
  A 0.34 0.34 0.0 0 1 122.25 37.46
  L 122.25 47.16
  A 0.34 0.34 0.0 0 0 122.59 47.50
  Z"
/>
<path fill="#000000" d="
  M 155.00 42.20
  L 155.00 63.69
  A 0.31 0.31 0.0 0 1 154.69 64.00
  L 149.81 64.00
  A 0.31 0.31 0.0 0 1 149.50 63.69
  L 149.50 42.19
  A 0.31 0.31 0.0 0 0 149.18 41.88
  L 142.07 42.06
  A 0.31 0.31 0.0 0 1 141.75 41.75
  L 141.75 37.58
  A 0.31 0.31 0.0 0 1 142.06 37.27
  L 162.44 37.21
  A 0.31 0.31 0.0 0 1 162.75 37.52
  L 162.75 41.74
  A 0.31 0.31 0.0 0 1 162.43 42.05
  L 155.32 41.89
  A 0.31 0.31 0.0 0 0 155.00 42.20
  Z"
/>
<path fill="#000000" d="
  M 171.44 44.93
  L 171.53 63.36
  A 0.64 0.64 0.0 0 1 170.89 64.00
  L 166.75 64.00
  Q 166.25 64.00 166.25 63.50
  L 166.25 37.70
  Q 166.25 37.16 166.79 37.17
  L 174.04 37.29
  Q 174.57 37.30 174.72 37.80
  L 179.58 54.23
  A 0.41 0.40 -45.6 0 0 180.36 54.22
  L 185.03 37.70
  Q 185.14 37.30 185.55 37.30
  L 192.73 37.14
  Q 193.26 37.13 193.26 37.66
  L 193.25 63.50
  Q 193.25 64.00 192.75 64.00
  L 188.70 64.00
  Q 188.14 64.00 188.14 63.45
  L 187.94 46.73
  A 0.29 0.28 52.8 0 0 187.38 46.65
  L 182.67 63.49
  Q 182.52 64.00 181.99 64.00
  L 177.91 64.00
  Q 177.29 64.00 177.11 63.40
  L 171.61 44.91
  A 0.09 0.09 0.0 0 0 171.44 44.93
  Z"
/>
<path fill="#000000" d="
  M 204.58 59.25
  L 215.92 59.25
  A 0.33 0.33 0.0 0 1 216.25 59.58
  L 216.25 63.67
  A 0.33 0.33 0.0 0 1 215.92 64.00
  L 199.23 64.00
  A 0.33 0.33 0.0 0 1 198.90 63.67
  L 198.99 37.57
  A 0.33 0.33 0.0 0 1 199.31 37.25
  L 203.92 37.18
  A 0.33 0.33 0.0 0 1 204.25 37.51
  L 204.25 58.92
  A 0.33 0.33 0.0 0 0 204.58 59.25
  Z"
/>
<path fill="#000000" d="
  M 225.75 46.63
  C 239.85 43.08 240.64 64.87 227.05 64.37
  Q 220.79 64.14 218.63 57.68
  A 0.50 0.50 0.0 0 1 219.05 57.02
  L 223.49 56.53
  Q 223.96 56.47 224.11 56.93
  C 226.56 64.39 234.42 57.30 230.02 51.19
  Q 229.74 50.79 229.27 50.65
  Q 226.11 49.66 224.19 51.82
  Q 223.83 52.23 223.29 52.18
  L 219.73 51.85
  A 0.51 0.51 0.0 0 1 219.28 51.25
  L 221.80 38.07
  A 0.70 0.70 0.0 0 1 222.49 37.50
  L 235.25 37.50
  Q 235.75 37.50 235.75 38.00
  L 235.75 42.02
  Q 235.75 42.54 235.23 42.53
  L 226.60 42.43
  Q 226.07 42.42 225.98 42.94
  L 225.37 46.28
  Q 225.28 46.75 225.75 46.63
  Z"
/>
<path fill="#ffffff" d="
  M 63.53 81.03
  L 63.53 69.20
  L 74.99 66.12
  A 1.42 1.40 -5.4 0 0 76.03 64.88
  L 77.16 52.41
  A 0.53 0.53 0.0 0 0 76.53 51.84
  L 75.25 52.09
  L 64.03 51.80
  Q 64.65 52.28 63.71 51.74
  L 63.65 40.50
  L 88.95 40.46
  A 0.71 0.70 -87.4 0 1 89.65 41.23
  L 86.73 73.78
  A 1.39 1.39 0.0 0 1 85.71 74.99
  L 63.53 81.03
  Z"
/>
<path fill="#e56532" d="
  M 75.25 52.09
  Q 76.28 54.35 75.86 56.49
  C 75.19 59.93 75.11 61.70 74.94 64.54
  A 0.72 0.71 -5.6 0 1 74.40 65.19
  L 64.75 67.69
  A 0.71 0.71 0.0 0 1 63.86 67.00
  L 64.03 51.80
  L 75.25 52.09
  Z"
/>
<path fill="#ebebeb" d="
  M 63.53 69.20
  L 63.53 81.03
  L 44.05 75.63
  Q 40.94 75.40 40.79 73.45
  Q 40.21 65.64 39.61 57.73
  Q 39.57 57.25 40.06 57.25
  L 50.38 57.25
  Q 50.93 57.25 50.98 57.80
  L 51.65 65.56
  Q 51.68 65.97 52.07 66.07
  L 63.53 69.20
  Z"
/>
</svg>
