<?xml version="1.0" encoding="UTF-8" standalone="no"?>
<!DOCTYPE svg PUBLIC "-//W3C//DTD SVG 1.1//EN" "http://www.w3.org/Graphics/SVG/1.1/DTD/svg11.dtd">
<svg xmlns="http://www.w3.org/2000/svg" version="1.1" viewBox="0.00 0.00 272.00 100.00">
<g stroke-width="2.00" fill="none" stroke-linecap="butt">
<path stroke="#803e00" vector-effect="non-scaling-stroke" d="
  M 69.93 100.00
  C 73.12 99.73 90.68 97.98 89.90 92.58
  Q 89.75 91.51 88.76 91.93
  C 79.27 95.96 72.65 97.14 61.51 97.24
  C 58.25 97.27 38.73 96.52 37.40 98.19
  A 0.74 0.74 0.0 0 0 37.91 99.39
  L 44.70 100.00"
/>
<path stroke="#803e00" vector-effect="non-scaling-stroke" d="
  M 50.40 52.81
  A 0.81 0.80 -63.3 0 0 51.69 52.38
  Q 52.00 51.15 51.38 49.81
  C 49.04 44.75 45.20 34.74 50.52 30.50
  C 60.36 22.66 71.78 15.02 66.27 2.11
  A 0.92 0.92 0.0 0 0 64.51 2.34
  C 63.78 7.15 62.14 12.35 58.04 15.42
  C 51.65 20.19 41.60 26.05 40.40 34.51
  C 39.46 41.08 45.57 48.84 50.40 52.81"
/>
<path stroke="#803e00" vector-effect="non-scaling-stroke" d="
  M 60.00 52.42
  Q 59.47 54.25 59.68 56.32
  Q 59.74 56.90 60.25 56.61
  Q 65.52 53.68 65.84 47.99
  C 66.05 44.03 63.19 40.31 61.10 36.93
  Q 60.85 36.52 60.98 36.06
  C 62.87 29.79 67.90 27.20 71.21 23.02
  Q 71.62 22.50 70.96 22.53
  C 66.62 22.76 61.37 26.16 57.10 30.08
  C 53.07 33.77 53.15 39.32 55.24 43.93
  C 56.32 46.30 58.85 48.41 59.97 51.57
  Q 60.12 51.99 60.00 52.42"
/>
<path stroke="#803e00" vector-effect="non-scaling-stroke" d="
  M 135.64 81.70
  C 136.75 83.54 139.18 86.52 141.56 85.30
  C 149.46 81.28 151.46 73.25 151.48 65.09
  Q 151.53 45.99 151.49 27.04
  A 0.55 0.54 -0.0 0 0 150.94 26.50
  L 143.06 26.50
  Q 142.56 26.50 142.56 27.00
  Q 142.49 48.17 142.44 69.31
  C 142.42 74.87 140.73 78.64 135.86 80.97
  Q 135.35 81.22 135.64 81.70"
/>
<path stroke="#803e00" vector-effect="non-scaling-stroke" d="
  M 174.26 45.89
  L 175.63 51.07
  A 1.01 1.01 0.0 0 1 174.65 52.33
  C 167.74 52.27 160.42 52.84 156.29 59.23
  C 154.86 61.46 155.23 67.09 156.42 69.26
  C 160.55 76.75 170.41 75.37 175.94 70.56
  Q 176.45 70.13 176.47 70.79
  L 176.56 72.95
  Q 176.59 73.50 177.13 73.50
  L 181.29 73.50
  A 2.15 2.15 0.0 0 0 183.44 71.39
  Q 183.63 61.10 183.48 50.81
  C 183.32 40.26 176.43 36.50 167.07 38.10
  Q 163.91 38.65 160.75 39.36
  C 157.43 40.12 156.29 42.15 157.95 45.25
  A 0.71 0.71 0.0 0 0 158.71 45.61
  C 163.80 44.63 168.36 42.53 173.63 45.12
  Q 174.12 45.36 174.26 45.89"
/>
<path stroke="#803e00" vector-effect="non-scaling-stroke" d="
  M 240.48 70.63
  L 240.51 72.81
  A 0.77 0.77 0.0 0 0 241.31 73.57
  L 246.38 73.35
  A 0.69 0.69 0.0 0 0 247.04 72.63
  Q 246.31 56.38 246.82 51.49
  C 248.57 34.75 232.92 36.73 222.06 40.31
  Q 221.43 40.52 221.47 41.19
  L 221.74 45.16
  A 0.62 0.62 0.0 0 0 222.51 45.72
  C 228.46 44.27 238.56 40.31 239.35 50.52
  A 1.84 1.84 0.0 0 1 237.34 52.49
  C 231.37 51.94 221.55 53.80 219.74 60.93
  C 216.23 74.77 231.67 77.93 240.06 70.44
  A 0.26 0.25 68.8 0 1 240.48 70.63"
/>
<path stroke="#803e00" vector-effect="non-scaling-stroke" d="
  M 202.29 64.01
  Q 202.29 63.15 201.89 61.82
  Q 197.23 46.17 194.91 39.18
  Q 194.70 38.55 194.03 38.55
  L 186.95 38.58
  Q 186.17 38.59 186.40 39.33
  L 196.81 73.02
  Q 196.97 73.53 197.50 73.52
  L 206.14 73.45
  Q 206.62 73.45 206.82 73.01
  Q 213.88 56.98 216.83 39.68
  A 0.94 0.93 -84.7 0 0 215.93 38.59
  L 209.34 38.46
  Q 208.90 38.45 208.85 38.89
  Q 207.70 49.61 203.92 59.69
  C 203.39 61.10 203.70 62.73 202.71 64.15
  Q 202.29 64.74 202.29 64.01"
/>
<path stroke="#803e00" vector-effect="non-scaling-stroke" d="
  M 90.77 56.54
  C 88.08 52.70 84.45 52.51 80.11 53.64
  A 1.45 1.45 0.0 0 0 80.33 56.48
  C 83.44 56.78 88.15 59.49 85.42 63.49
  Q 82.27 68.10 78.06 71.94
  A 0.39 0.39 0.0 0 0 78.34 72.61
  C 85.53 72.17 96.82 65.16 90.77 56.54"
/>
<path stroke="#803e00" vector-effect="non-scaling-stroke" d="
  M 33.50 59.21
  A 0.30 0.30 0.0 0 1 33.36 58.66
  L 37.54 56.01
  Q 37.94 55.75 38.42 55.79
  L 39.59 55.87
  A 0.29 0.29 0.0 0 0 39.64 55.29
  C 37.21 55.07 20.29 54.61 26.16 61.83
  C 30.65 67.35 71.70 66.07 72.62 59.28
  Q 72.70 58.69 72.10 58.73
  C 66.34 59.19 60.54 60.25 54.98 60.25
  Q 47.46 60.26 39.94 60.23
  C 37.78 60.22 35.71 59.37 33.50 59.21"
/>
<path stroke="#803e00" vector-effect="non-scaling-stroke" d="
  M 37.45 68.68
  L 37.19 67.90
  Q 37.08 67.55 36.73 67.45
  C 33.03 66.32 30.51 70.62 33.86 72.36
  C 42.99 77.08 59.87 74.62 69.91 72.37
  A 1.35 1.35 0.0 0 0 70.78 70.37
  C 69.57 68.33 67.27 68.04 64.94 68.47
  C 55.37 70.25 47.54 71.05 38.11 69.26
  Q 37.60 69.16 37.45 68.68"
/>
<path stroke="#803e00" vector-effect="non-scaling-stroke" d="
  M 69.01 80.99
  Q 65.74 78.38 62.62 78.90
  C 54.51 80.24 49.32 80.59 41.42 78.99
  Q 40.97 78.90 40.75 78.48
  L 40.36 77.73
  A 0.94 0.93 -13.6 0 0 39.53 77.23
  C 37.68 77.24 35.65 77.94 35.21 79.97
  C 33.71 86.94 54.43 85.76 58.03 85.73
  C 59.31 85.72 71.57 84.34 69.66 81.68
  A 3.61 3.51 -89.1 0 0 69.01 80.99"
/>
<path stroke="#803e00" vector-effect="non-scaling-stroke" d="
  M 24.64 88.15
  Q 25.89 85.74 28.42 85.85
  Q 28.83 85.87 28.78 85.47
  Q 28.76 85.30 28.59 85.25
  Q 23.79 83.92 19.30 86.15
  C 12.33 89.62 20.44 93.35 23.60 94.00
  Q 24.47 94.18 29.43 94.76
  Q 53.98 97.64 78.22 92.65
  C 79.93 92.30 89.78 89.67 86.71 86.36
  Q 86.34 85.96 85.84 86.18
  Q 78.66 89.35 71.00 90.29
  C 56.30 92.09 39.45 92.48 24.98 88.90
  Q 24.34 88.74 24.64 88.15"
/>
<path stroke="#803e00" vector-effect="non-scaling-stroke" d="
  M 163.85 61.03
  C 159.34 70.58 178.62 70.97 175.28 58.09
  Q 175.15 57.58 174.61 57.54
  C 171.33 57.31 165.50 57.54 163.85 61.03"
/>
<path stroke="#803e00" vector-effect="non-scaling-stroke" d="
  M 231.72 58.18
  C 224.14 60.03 227.19 70.71 234.32 67.56
  Q 237.26 66.26 238.80 65.14
  Q 239.25 64.81 239.25 64.26
  L 239.25 58.02
  Q 239.25 57.54 238.77 57.52
  Q 235.17 57.35 231.72 58.18"
/>
</g>
<path fill="#ff7b00" d="
  M 0.00 0.00
  L 272.00 0.00
  L 272.00 100.00
  L 69.93 100.00
  C 73.12 99.73 90.68 97.98 89.90 92.58
  Q 89.75 91.51 88.76 91.93
  C 79.27 95.96 72.65 97.14 61.51 97.24
  C 58.25 97.27 38.73 96.52 37.40 98.19
  A 0.74 0.74 0.0 0 0 37.91 99.39
  L 44.70 100.00
  L 0.00 100.00
  L 0.00 0.00
  Z
  M 50.40 52.81
  A 0.81 0.80 -63.3 0 0 51.69 52.38
  Q 52.00 51.15 51.38 49.81
  C 49.04 44.75 45.20 34.74 50.52 30.50
  C 60.36 22.66 71.78 15.02 66.27 2.11
  A 0.92 0.92 0.0 0 0 64.51 2.34
  C 63.78 7.15 62.14 12.35 58.04 15.42
  C 51.65 20.19 41.60 26.05 40.40 34.51
  C 39.46 41.08 45.57 48.84 50.40 52.81
  Z
  M 60.00 52.42
  Q 59.47 54.25 59.68 56.32
  Q 59.74 56.90 60.25 56.61
  Q 65.52 53.68 65.84 47.99
  C 66.05 44.03 63.19 40.31 61.10 36.93
  Q 60.85 36.52 60.98 36.06
  C 62.87 29.79 67.90 27.20 71.21 23.02
  Q 71.62 22.50 70.96 22.53
  C 66.62 22.76 61.37 26.16 57.10 30.08
  C 53.07 33.77 53.15 39.32 55.24 43.93
  C 56.32 46.30 58.85 48.41 59.97 51.57
  Q 60.12 51.99 60.00 52.42
  Z
  M 135.64 81.70
  C 136.75 83.54 139.18 86.52 141.56 85.30
  C 149.46 81.28 151.46 73.25 151.48 65.09
  Q 151.53 45.99 151.49 27.04
  A 0.55 0.54 -0.0 0 0 150.94 26.50
  L 143.06 26.50
  Q 142.56 26.50 142.56 27.00
  Q 142.49 48.17 142.44 69.31
  C 142.42 74.87 140.73 78.64 135.86 80.97
  Q 135.35 81.22 135.64 81.70
  Z
  M 174.26 45.89
  L 175.63 51.07
  A 1.01 1.01 0.0 0 1 174.65 52.33
  C 167.74 52.27 160.42 52.84 156.29 59.23
  C 154.86 61.46 155.23 67.09 156.42 69.26
  C 160.55 76.75 170.41 75.37 175.94 70.56
  Q 176.45 70.13 176.47 70.79
  L 176.56 72.95
  Q 176.59 73.50 177.13 73.50
  L 181.29 73.50
  A 2.15 2.15 0.0 0 0 183.44 71.39
  Q 183.63 61.10 183.48 50.81
  C 183.32 40.26 176.43 36.50 167.07 38.10
  Q 163.91 38.65 160.75 39.36
  C 157.43 40.12 156.29 42.15 157.95 45.25
  A 0.71 0.71 0.0 0 0 158.71 45.61
  C 163.80 44.63 168.36 42.53 173.63 45.12
  Q 174.12 45.36 174.26 45.89
  Z
  M 240.48 70.63
  L 240.51 72.81
  A 0.77 0.77 0.0 0 0 241.31 73.57
  L 246.38 73.35
  A 0.69 0.69 0.0 0 0 247.04 72.63
  Q 246.31 56.38 246.82 51.49
  C 248.57 34.75 232.92 36.73 222.06 40.31
  Q 221.43 40.52 221.47 41.19
  L 221.74 45.16
  A 0.62 0.62 0.0 0 0 222.51 45.72
  C 228.46 44.27 238.56 40.31 239.35 50.52
  A 1.84 1.84 0.0 0 1 237.34 52.49
  C 231.37 51.94 221.55 53.80 219.74 60.93
  C 216.23 74.77 231.67 77.93 240.06 70.44
  A 0.26 0.25 68.8 0 1 240.48 70.63
  Z
  M 202.29 64.01
  Q 202.29 63.15 201.89 61.82
  Q 197.23 46.17 194.91 39.18
  Q 194.70 38.55 194.03 38.55
  L 186.95 38.58
  Q 186.17 38.59 186.40 39.33
  L 196.81 73.02
  Q 196.97 73.53 197.50 73.52
  L 206.14 73.45
  Q 206.62 73.45 206.82 73.01
  Q 213.88 56.98 216.83 39.68
  A 0.94 0.93 -84.7 0 0 215.93 38.59
  L 209.34 38.46
  Q 208.90 38.45 208.85 38.89
  Q 207.70 49.61 203.92 59.69
  C 203.39 61.10 203.70 62.73 202.71 64.15
  Q 202.29 64.74 202.29 64.01
  Z
  M 90.77 56.54
  C 88.08 52.70 84.45 52.51 80.11 53.64
  A 1.45 1.45 0.0 0 0 80.33 56.48
  C 83.44 56.78 88.15 59.49 85.42 63.49
  Q 82.27 68.10 78.06 71.94
  A 0.39 0.39 0.0 0 0 78.34 72.61
  C 85.53 72.17 96.82 65.16 90.77 56.54
  Z
  M 33.50 59.21
  A 0.30 0.30 0.0 0 1 33.36 58.66
  L 37.54 56.01
  Q 37.94 55.75 38.42 55.79
  L 39.59 55.87
  A 0.29 0.29 0.0 0 0 39.64 55.29
  C 37.21 55.07 20.29 54.61 26.16 61.83
  C 30.65 67.35 71.70 66.07 72.62 59.28
  Q 72.70 58.69 72.10 58.73
  C 66.34 59.19 60.54 60.25 54.98 60.25
  Q 47.46 60.26 39.94 60.23
  C 37.78 60.22 35.71 59.37 33.50 59.21
  Z
  M 37.45 68.68
  L 37.19 67.90
  Q 37.08 67.55 36.73 67.45
  C 33.03 66.32 30.51 70.62 33.86 72.36
  C 42.99 77.08 59.87 74.62 69.91 72.37
  A 1.35 1.35 0.0 0 0 70.78 70.37
  C 69.57 68.33 67.27 68.04 64.94 68.47
  C 55.37 70.25 47.54 71.05 38.11 69.26
  Q 37.60 69.16 37.45 68.68
  Z
  M 69.01 80.99
  Q 65.74 78.38 62.62 78.90
  C 54.51 80.24 49.32 80.59 41.42 78.99
  Q 40.97 78.90 40.75 78.48
  L 40.36 77.73
  A 0.94 0.93 -13.6 0 0 39.53 77.23
  C 37.68 77.24 35.65 77.94 35.21 79.97
  C 33.71 86.94 54.43 85.76 58.03 85.73
  C 59.31 85.72 71.57 84.34 69.66 81.68
  A 3.61 3.51 -89.1 0 0 69.01 80.99
  Z
  M 24.64 88.15
  Q 25.89 85.74 28.42 85.85
  Q 28.83 85.87 28.78 85.47
  Q 28.76 85.30 28.59 85.25
  Q 23.79 83.92 19.30 86.15
  C 12.33 89.62 20.44 93.35 23.60 94.00
  Q 24.47 94.18 29.43 94.76
  Q 53.98 97.64 78.22 92.65
  C 79.93 92.30 89.78 89.67 86.71 86.36
  Q 86.34 85.96 85.84 86.18
  Q 78.66 89.35 71.00 90.29
  C 56.30 92.09 39.45 92.48 24.98 88.90
  Q 24.34 88.74 24.64 88.15
  Z"
/>
<path fill="#000000" d="
  M 50.40 52.81
  C 45.57 48.84 39.46 41.08 40.40 34.51
  C 41.60 26.05 51.65 20.19 58.04 15.42
  C 62.14 12.35 63.78 7.15 64.51 2.34
  A 0.92 0.92 0.0 0 1 66.27 2.11
  C 71.78 15.02 60.36 22.66 50.52 30.50
  C 45.20 34.74 49.04 44.75 51.38 49.81
  Q 52.00 51.15 51.69 52.38
  A 0.81 0.80 -63.3 0 1 50.40 52.81
  Z"
/>
<path fill="#000000" d="
  M 59.97 51.57
  C 58.85 48.41 56.32 46.30 55.24 43.93
  C 53.15 39.32 53.07 33.77 57.10 30.08
  C 61.37 26.16 66.62 22.76 70.96 22.53
  Q 71.62 22.50 71.21 23.02
  C 67.90 27.20 62.87 29.79 60.98 36.06
  Q 60.85 36.52 61.10 36.93
  C 63.19 40.31 66.05 44.03 65.84 47.99
  Q 65.52 53.68 60.25 56.61
  Q 59.74 56.90 59.68 56.32
  Q 59.47 54.25 60.00 52.42
  Q 60.12 51.99 59.97 51.57
  Z"
/>
<path fill="#000000" d="
  M 141.56 85.30
  C 139.18 86.52 136.75 83.54 135.64 81.70
  Q 135.35 81.22 135.86 80.97
  C 140.73 78.64 142.42 74.87 142.44 69.31
  Q 142.49 48.17 142.56 27.00
  Q 142.56 26.50 143.06 26.50
  L 150.94 26.50
  A 0.55 0.54 0.0 0 1 151.49 27.04
  Q 151.53 45.99 151.48 65.09
  C 151.46 73.25 149.46 81.28 141.56 85.30
  Z"
/>
<path fill="#000000" d="
  M 173.63 45.12
  C 168.36 42.53 163.80 44.63 158.71 45.61
  A 0.71 0.71 0.0 0 1 157.95 45.25
  C 156.29 42.15 157.43 40.12 160.75 39.36
  Q 163.91 38.65 167.07 38.10
  C 176.43 36.50 183.32 40.26 183.48 50.81
  Q 183.63 61.10 183.44 71.39
  A 2.15 2.15 0.0 0 1 181.29 73.50
  L 177.13 73.50
  Q 176.59 73.50 176.56 72.95
  L 176.47 70.79
  Q 176.45 70.13 175.94 70.56
  C 170.41 75.37 160.55 76.75 156.42 69.26
  C 155.23 67.09 154.86 61.46 156.29 59.23
  C 160.42 52.84 167.74 52.27 174.65 52.33
  A 1.01 1.01 0.0 0 0 175.63 51.07
  L 174.26 45.89
  Q 174.12 45.36 173.63 45.12
  Z
  M 163.85 61.03
  C 159.34 70.58 178.62 70.97 175.28 58.09
  Q 175.15 57.58 174.61 57.54
  C 171.33 57.31 165.50 57.54 163.85 61.03
  Z"
/>
<path fill="#000000" d="
  M 240.48 70.63
  A 0.26 0.25 68.8 0 0 240.06 70.44
  C 231.67 77.93 216.23 74.77 219.74 60.93
  C 221.55 53.80 231.37 51.94 237.34 52.49
  A 1.84 1.84 0.0 0 0 239.35 50.52
  C 238.56 40.31 228.46 44.27 222.51 45.72
  A 0.62 0.62 0.0 0 1 221.74 45.16
  L 221.47 41.19
  Q 221.43 40.52 222.06 40.31
  C 232.92 36.73 248.57 34.75 246.82 51.49
  Q 246.31 56.38 247.04 72.63
  A 0.69 0.69 0.0 0 1 246.38 73.35
  L 241.31 73.57
  A 0.77 0.77 0.0 0 1 240.51 72.81
  L 240.48 70.63
  Z
  M 231.72 58.18
  C 224.14 60.03 227.19 70.71 234.32 67.56
  Q 237.26 66.26 238.80 65.14
  Q 239.25 64.81 239.25 64.26
  L 239.25 58.02
  Q 239.25 57.54 238.77 57.52
  Q 235.17 57.35 231.72 58.18
  Z"
/>
<path fill="#000000" d="
  M 202.71 64.15
  C 203.70 62.73 203.39 61.10 203.92 59.69
  Q 207.70 49.61 208.85 38.89
  Q 208.90 38.45 209.34 38.46
  L 215.93 38.59
  A 0.94 0.93 -84.7 0 1 216.83 39.68
  Q 213.88 56.98 206.82 73.01
  Q 206.62 73.45 206.14 73.45
  L 197.50 73.52
  Q 196.97 73.53 196.81 73.02
  L 186.40 39.33
  Q 186.17 38.59 186.95 38.58
  L 194.03 38.55
  Q 194.70 38.55 194.91 39.18
  Q 197.23 46.17 201.89 61.82
  Q 202.29 63.15 202.29 64.01
  Q 202.29 64.74 202.71 64.15
  Z"
/>
<path fill="#000000" d="
  M 90.77 56.54
  C 96.82 65.16 85.53 72.17 78.34 72.61
  A 0.39 0.39 0.0 0 1 78.06 71.94
  Q 82.27 68.10 85.42 63.49
  C 88.15 59.49 83.44 56.78 80.33 56.48
  A 1.45 1.45 0.0 0 1 80.11 53.64
  C 84.45 52.51 88.08 52.70 90.77 56.54
  Z"
/>
<path fill="#000000" d="
  M 33.50 59.21
  C 35.71 59.37 37.78 60.22 39.94 60.23
  Q 47.46 60.26 54.98 60.25
  C 60.54 60.25 66.34 59.19 72.10 58.73
  Q 72.70 58.69 72.62 59.28
  C 71.70 66.07 30.65 67.35 26.16 61.83
  C 20.29 54.61 37.21 55.07 39.64 55.29
  A 0.29 0.29 0.0 0 1 39.59 55.87
  L 38.42 55.79
  Q 37.94 55.75 37.54 56.01
  L 33.36 58.66
  A 0.30 0.30 0.0 0 0 33.50 59.21
  Z"
/>
<path fill="#ff7b00" d="
  M 175.28 58.09
  C 178.62 70.97 159.34 70.58 163.85 61.03
  C 165.50 57.54 171.33 57.31 174.61 57.54
  Q 175.15 57.58 175.28 58.09
  Z"
/>
<path fill="#ff7b00" d="
  M 234.32 67.56
  C 227.19 70.71 224.14 60.03 231.72 58.18
  Q 235.17 57.35 238.77 57.52
  Q 239.25 57.54 239.25 58.02
  L 239.25 64.26
  Q 239.25 64.81 238.80 65.14
  Q 237.26 66.26 234.32 67.56
  Z"
/>
<path fill="#000000" d="
  M 38.11 69.26
  C 47.54 71.05 55.37 70.25 64.94 68.47
  C 67.27 68.04 69.57 68.33 70.78 70.37
  A 1.35 1.35 0.0 0 1 69.91 72.37
  C 59.87 74.62 42.99 77.08 33.86 72.36
  C 30.51 70.62 33.03 66.32 36.73 67.45
  Q 37.08 67.55 37.19 67.90
  L 37.45 68.68
  Q 37.60 69.16 38.11 69.26
  Z"
/>
<path fill="#000000" d="
  M 69.01 80.99
  A 3.61 3.51 -89.1 0 1 69.66 81.68
  C 71.57 84.34 59.31 85.72 58.03 85.73
  C 54.43 85.76 33.71 86.94 35.21 79.97
  C 35.65 77.94 37.68 77.24 39.53 77.23
  A 0.94 0.93 -13.6 0 1 40.36 77.73
  L 40.75 78.48
  Q 40.97 78.90 41.42 78.99
  C 49.32 80.59 54.51 80.24 62.62 78.90
  Q 65.74 78.38 69.01 80.99
  Z"
/>
<path fill="#000000" d="
  M 24.98 88.90
  C 39.45 92.48 56.30 92.09 71.00 90.29
  Q 78.66 89.35 85.84 86.18
  Q 86.34 85.96 86.71 86.36
  C 89.78 89.67 79.93 92.30 78.22 92.65
  Q 53.98 97.64 29.43 94.76
  Q 24.47 94.18 23.60 94.00
  C 20.44 93.35 12.33 89.62 19.30 86.15
  Q 23.79 83.92 28.59 85.25
  Q 28.76 85.30 28.78 85.47
  Q 28.83 85.87 28.42 85.85
  Q 25.89 85.74 24.64 88.15
  Q 24.34 88.74 24.98 88.90
  Z"
/>
<path fill="#000000" d="
  M 69.93 100.00
  L 44.70 100.00
  L 37.91 99.39
  A 0.74 0.74 0.0 0 1 37.40 98.19
  C 38.73 96.52 58.25 97.27 61.51 97.24
  C 72.65 97.14 79.27 95.96 88.76 91.93
  Q 89.75 91.51 89.90 92.58
  C 90.68 97.98 73.12 99.73 69.93 100.00
  Z"
/>
</svg>
