<?xml version="1.0" encoding="UTF-8" standalone="no"?>
<!DOCTYPE svg PUBLIC "-//W3C//DTD SVG 1.1//EN" "http://www.w3.org/Graphics/SVG/1.1/DTD/svg11.dtd">
<svg xmlns="http://www.w3.org/2000/svg" version="1.1" viewBox="0.00 0.00 350.00 100.00">
<g stroke-width="2.00" fill="none" stroke-linecap="butt">
<path stroke="#7c700f" vector-effect="non-scaling-stroke" d="
  M 212.36 43.23
  C 215.22 41.37 218.62 42.34 219.95 45.62
  Q 220.16 46.15 220.73 46.11
  L 224.97 45.76
  Q 225.46 45.72 225.37 45.24
  C 223.25 34.11 202.93 35.78 206.48 48.27
  C 208.15 54.17 222.41 52.56 220.86 58.37
  Q 220.75 58.77 220.43 59.04
  C 216.96 62.05 211.72 61.39 210.63 56.43
  A 0.64 0.64 0.0 0 0 209.96 55.93
  L 205.56 56.26
  Q 205.01 56.31 205.10 56.86
  C 206.37 64.20 213.93 66.78 220.27 64.70
  C 226.11 62.79 228.65 55.68 223.73 51.23
  C 221.36 49.08 215.71 48.15 212.80 47.08
  A 2.17 2.16 -51.6 0 1 212.36 43.23"
/>
<path stroke="#7c700f" vector-effect="non-scaling-stroke" d="
  M 112.21 56.88
  C 112.12 62.36 105.42 61.89 106.02 56.48
  A 0.48 0.47 -0.5 0 0 105.48 55.96
  L 101.07 56.56
  Q 100.63 56.62 100.65 57.07
  C 101.30 68.92 117.49 68.13 117.63 55.95
  Q 117.73 47.31 117.90 38.60
  A 0.37 0.37 0.0 0 0 117.53 38.22
  L 112.49 38.18
  Q 112.14 38.18 112.15 38.53
  Q 112.37 47.71 112.21 56.88"
/>
<path stroke="#7c700f" vector-effect="non-scaling-stroke" d="
  M 252.86 45.31
  C 250.13 36.60 238.52 35.94 233.20 41.37
  C 229.00 45.65 228.48 53.43 230.81 58.70
  C 235.03 68.23 250.36 67.67 253.29 56.88
  Q 253.41 56.44 252.96 56.35
  L 248.52 55.45
  Q 247.98 55.34 247.78 55.85
  C 247.20 57.38 246.74 58.66 245.33 59.58
  C 234.85 66.37 231.69 45.89 239.08 43.12
  Q 245.16 40.85 247.49 46.39
  Q 247.71 46.91 248.27 46.79
  L 252.53 45.89
  Q 253.01 45.78 252.86 45.31"
/>
<path stroke="#7c700f" vector-effect="non-scaling-stroke" d="
  M 299.77 54.99
  C 306.38 55.03 313.13 54.51 313.12 46.50
  C 313.11 36.74 301.96 38.03 294.22 38.31
  Q 293.75 38.32 293.75 38.79
  L 293.75 64.50
  Q 293.75 65.00 294.25 65.00
  L 298.75 65.00
  Q 299.25 65.00 299.25 64.50
  L 299.25 55.51
  Q 299.25 54.99 299.77 54.99"
/>
<path stroke="#7c700f" vector-effect="non-scaling-stroke" d="
  M 138.54 59.00
  A 0.31 0.31 0.0 0 1 138.83 59.21
  L 140.80 64.79
  A 0.31 0.31 0.0 0 0 141.09 65.00
  L 146.59 65.00
  A 0.31 0.31 0.0 0 0 146.88 64.57
  L 136.36 38.44
  A 0.31 0.31 0.0 0 0 136.07 38.25
  L 131.06 38.25
  A 0.31 0.31 0.0 0 0 130.77 38.45
  L 120.51 64.58
  A 0.31 0.31 0.0 0 0 120.79 65.00
  L 126.02 65.00
  A 0.31 0.31 0.0 0 0 126.31 64.80
  L 128.34 59.20
  A 0.31 0.31 0.0 0 1 128.63 59.00
  L 138.54 59.00"
/>
<path stroke="#7c700f" vector-effect="non-scaling-stroke" d="
  M 157.30 57.50
  L 151.16 38.77
  A 0.76 0.75 -9.0 0 0 150.44 38.25
  L 145.79 38.25
  Q 145.05 38.25 145.30 38.94
  L 154.27 64.39
  A 0.93 0.92 -9.9 0 0 155.14 65.00
  L 159.51 65.00
  Q 160.06 65.00 160.24 64.48
  L 169.38 38.86
  Q 169.60 38.25 168.95 38.25
  L 164.28 38.25
  Q 163.81 38.25 163.67 38.70
  L 157.64 57.49
  Q 157.47 58.02 157.30 57.50"
/>
<path stroke="#7c700f" vector-effect="non-scaling-stroke" d="
  M 185.94 59.00
  A 0.32 0.32 0.0 0 1 186.24 59.21
  L 188.33 64.79
  A 0.32 0.32 0.0 0 0 188.63 65.00
  L 193.83 65.00
  A 0.32 0.32 0.0 0 0 194.12 64.56
  L 183.69 38.45
  A 0.32 0.32 0.0 0 0 183.39 38.25
  L 178.50 38.25
  A 0.32 0.32 0.0 0 0 178.20 38.45
  L 168.05 64.56
  A 0.32 0.32 0.0 0 0 168.35 65.00
  L 173.46 65.00
  A 0.32 0.32 0.0 0 0 173.76 64.79
  L 175.71 59.21
  A 0.32 0.32 0.0 0 1 176.01 59.00
  L 185.94 59.00"
/>
<path stroke="#7c700f" vector-effect="non-scaling-stroke" d="
  M 273.57 54.02
  A 0.58 0.58 0.0 0 1 273.45 52.97
  C 275.44 51.81 277.09 50.47 277.68 48.11
  C 280.67 36.31 264.37 37.99 258.11 38.32
  Q 257.73 38.34 257.73 38.72
  L 257.75 64.41
  Q 257.75 65.00 258.35 65.00
  L 262.38 65.00
  Q 263.00 65.00 263.00 64.37
  L 263.00 54.51
  Q 263.00 53.99 263.51 53.92
  C 269.42 53.13 271.36 59.56 273.42 64.58
  Q 273.59 65.00 274.04 65.00
  L 279.24 65.00
  Q 279.80 65.00 279.55 64.50
  C 278.84 63.04 274.65 54.35 273.57 54.02"
/>
<path stroke="#7c700f" vector-effect="non-scaling-stroke" d="
  M 288.25 38.51
  A 0.26 0.26 0.0 0 0 287.99 38.25
  L 283.01 38.25
  A 0.26 0.26 0.0 0 0 282.75 38.51
  L 282.75 64.75
  A 0.26 0.26 0.0 0 0 283.01 65.01
  L 287.99 65.01
  A 0.26 0.26 0.0 0 0 288.25 64.75
  L 288.25 38.51"
/>
<path stroke="#7c700f" vector-effect="non-scaling-stroke" d="
  M 328.50 43.23
  A 0.38 0.38 0.0 0 1 328.89 42.85
  L 335.86 43.07
  A 0.38 0.38 0.0 0 0 336.25 42.69
  L 336.25 38.63
  A 0.38 0.38 0.0 0 0 335.87 38.25
  L 315.63 38.25
  A 0.38 0.38 0.0 0 0 315.25 38.63
  L 315.25 42.66
  A 0.38 0.38 0.0 0 0 315.64 43.04
  L 322.61 42.91
  A 0.38 0.38 0.0 0 1 323.00 43.29
  L 323.00 64.62
  A 0.38 0.38 0.0 0 0 323.38 65.00
  L 328.12 65.00
  A 0.38 0.38 0.0 0 0 328.50 64.62
  L 328.50 43.23"
/>
<path stroke="#7c700f" vector-effect="non-scaling-stroke" d="
  M 42.66 83.26
  Q 36.62 85.43 33.99 79.94
  A 0.85 0.85 0.0 0 0 32.79 79.58
  L 26.60 83.32
  Q 26.14 83.60 26.37 84.09
  C 31.95 95.66 53.55 94.48 53.51 80.24
  Q 53.47 63.44 53.52 46.55
  Q 53.52 46.00 52.97 46.00
  L 45.29 45.99
  Q 44.80 45.99 44.80 46.48
  C 44.70 59.99 46.20 77.86 43.50 82.55
  A 1.60 1.59 -85.1 0 1 42.66 83.26"
/>
<path stroke="#7c700f" vector-effect="non-scaling-stroke" d="
  M 79.34 83.39
  C 74.66 85.51 69.49 82.63 66.88 78.74
  Q 66.57 78.28 66.10 78.57
  L 59.76 82.34
  Q 59.36 82.58 59.56 82.99
  C 65.14 94.62 88.94 95.95 91.22 81.24
  C 93.02 69.63 82.52 65.81 74.12 62.07
  C 66.11 58.50 74.49 47.65 81.73 57.25
  A 0.06 0.06 0.0 0 0 81.82 57.26
  L 88.12 53.11
  Q 88.59 52.81 88.31 52.33
  C 83.52 44.08 70.59 43.20 64.77 50.29
  C 60.57 55.41 61.24 62.96 66.00 67.49
  C 69.01 70.36 74.88 72.60 79.17 74.60
  C 83.31 76.53 83.72 81.40 79.34 83.39"
/>
<path stroke="#7c700f" vector-effect="non-scaling-stroke" d="
  M 299.26 43.19
  L 299.24 50.05
  A 0.41 0.41 0.0 0 0 299.65 50.46
  L 303.68 50.47
  A 3.82 3.35 0.1 0 0 307.51 47.13
  L 307.51 46.15
  A 3.82 3.35 0.1 0 0 303.70 42.79
  L 299.67 42.78
  A 0.41 0.41 0.0 0 0 299.26 43.19"
/>
<path stroke="#7c700f" vector-effect="non-scaling-stroke" d="
  M 133.34 44.55
  L 130.51 53.71
  Q 130.33 54.29 130.94 54.29
  L 136.10 54.23
  Q 136.75 54.23 136.55 53.60
  L 133.58 44.54
  A 0.13 0.12 -46.9 0 0 133.34 44.55"
/>
<path stroke="#7c700f" vector-effect="non-scaling-stroke" d="
  M 179.69 54.30
  Q 181.68 54.51 183.82 54.30
  Q 184.26 54.25 184.11 53.84
  L 181.02 45.00
  Q 180.84 44.48 180.67 45.01
  L 177.74 53.92
  Q 177.58 54.39 178.07 54.50
  Q 178.57 54.62 178.96 54.43
  Q 179.31 54.26 179.69 54.30"
/>
<path stroke="#7c700f" vector-effect="non-scaling-stroke" d="
  M 263.01 43.33
  L 262.99 48.97
  A 0.50 0.50 0.0 0 0 263.48 49.47
  L 268.71 49.50
  A 3.79 2.91 0.3 0 0 272.52 46.60
  L 272.52 45.78
  A 3.79 2.91 0.3 0 0 268.75 42.86
  L 263.52 42.83
  A 0.50 0.50 0.0 0 0 263.01 43.33"
/>
</g>
<path fill="#f7df1e" d="
  M 0.00 0.00
  L 350.00 0.00
  L 350.00 100.00
  L 0.00 100.00
  L 0.00 0.00
  Z
  M 212.36 43.23
  C 215.22 41.37 218.62 42.34 219.95 45.62
  Q 220.16 46.15 220.73 46.11
  L 224.97 45.76
  Q 225.46 45.72 225.37 45.24
  C 223.25 34.11 202.93 35.78 206.48 48.27
  C 208.15 54.17 222.41 52.56 220.86 58.37
  Q 220.75 58.77 220.43 59.04
  C 216.96 62.05 211.72 61.39 210.63 56.43
  A 0.64 0.64 0.0 0 0 209.96 55.93
  L 205.56 56.26
  Q 205.01 56.31 205.10 56.86
  C 206.37 64.20 213.93 66.78 220.27 64.70
  C 226.11 62.79 228.65 55.68 223.73 51.23
  C 221.36 49.08 215.71 48.15 212.80 47.08
  A 2.17 2.16 -51.6 0 1 212.36 43.23
  Z
  M 112.21 56.88
  C 112.12 62.36 105.42 61.89 106.02 56.48
  A 0.48 0.47 -0.5 0 0 105.48 55.96
  L 101.07 56.56
  Q 100.63 56.62 100.65 57.07
  C 101.30 68.92 117.49 68.13 117.63 55.95
  Q 117.73 47.31 117.90 38.60
  A 0.37 0.37 0.0 0 0 117.53 38.22
  L 112.49 38.18
  Q 112.14 38.18 112.15 38.53
  Q 112.37 47.71 112.21 56.88
  Z
  M 252.86 45.31
  C 250.13 36.60 238.52 35.94 233.20 41.37
  C 229.00 45.65 228.48 53.43 230.81 58.70
  C 235.03 68.23 250.36 67.67 253.29 56.88
  Q 253.41 56.44 252.96 56.35
  L 248.52 55.45
  Q 247.98 55.34 247.78 55.85
  C 247.20 57.38 246.74 58.66 245.33 59.58
  C 234.85 66.37 231.69 45.89 239.08 43.12
  Q 245.16 40.85 247.49 46.39
  Q 247.71 46.91 248.27 46.79
  L 252.53 45.89
  Q 253.01 45.78 252.86 45.31
  Z
  M 299.77 54.99
  C 306.38 55.03 313.13 54.51 313.12 46.50
  C 313.11 36.74 301.96 38.03 294.22 38.31
  Q 293.75 38.32 293.75 38.79
  L 293.75 64.50
  Q 293.75 65.00 294.25 65.00
  L 298.75 65.00
  Q 299.25 65.00 299.25 64.50
  L 299.25 55.51
  Q 299.25 54.99 299.77 54.99
  Z
  M 138.54 59.00
  A 0.31 0.31 0.0 0 1 138.83 59.21
  L 140.80 64.79
  A 0.31 0.31 0.0 0 0 141.09 65.00
  L 146.59 65.00
  A 0.31 0.31 0.0 0 0 146.88 64.57
  L 136.36 38.44
  A 0.31 0.31 0.0 0 0 136.07 38.25
  L 131.06 38.25
  A 0.31 0.31 0.0 0 0 130.77 38.45
  L 120.51 64.58
  A 0.31 0.31 0.0 0 0 120.79 65.00
  L 126.02 65.00
  A 0.31 0.31 0.0 0 0 126.31 64.80
  L 128.34 59.20
  A 0.31 0.31 0.0 0 1 128.63 59.00
  L 138.54 59.00
  Z
  M 157.30 57.50
  L 151.16 38.77
  A 0.76 0.75 -9.0 0 0 150.44 38.25
  L 145.79 38.25
  Q 145.05 38.25 145.30 38.94
  L 154.27 64.39
  A 0.93 0.92 -9.9 0 0 155.14 65.00
  L 159.51 65.00
  Q 160.06 65.00 160.24 64.48
  L 169.38 38.86
  Q 169.60 38.25 168.95 38.25
  L 164.28 38.25
  Q 163.81 38.25 163.67 38.70
  L 157.64 57.49
  Q 157.47 58.02 157.30 57.50
  Z
  M 185.94 59.00
  A 0.32 0.32 0.0 0 1 186.24 59.21
  L 188.33 64.79
  A 0.32 0.32 0.0 0 0 188.63 65.00
  L 193.83 65.00
  A 0.32 0.32 0.0 0 0 194.12 64.56
  L 183.69 38.45
  A 0.32 0.32 0.0 0 0 183.39 38.25
  L 178.50 38.25
  A 0.32 0.32 0.0 0 0 178.20 38.45
  L 168.05 64.56
  A 0.32 0.32 0.0 0 0 168.35 65.00
  L 173.46 65.00
  A 0.32 0.32 0.0 0 0 173.76 64.79
  L 175.71 59.21
  A 0.32 0.32 0.0 0 1 176.01 59.00
  L 185.94 59.00
  Z
  M 273.57 54.02
  A 0.58 0.58 0.0 0 1 273.45 52.97
  C 275.44 51.81 277.09 50.47 277.68 48.11
  C 280.67 36.31 264.37 37.99 258.11 38.32
  Q 257.73 38.34 257.73 38.72
  L 257.75 64.41
  Q 257.75 65.00 258.35 65.00
  L 262.38 65.00
  Q 263.00 65.00 263.00 64.37
  L 263.00 54.51
  Q 263.00 53.99 263.51 53.92
  C 269.42 53.13 271.36 59.56 273.42 64.58
  Q 273.59 65.00 274.04 65.00
  L 279.24 65.00
  Q 279.80 65.00 279.55 64.50
  C 278.84 63.04 274.65 54.35 273.57 54.02
  Z
  M 288.25 38.51
  A 0.26 0.26 0.0 0 0 287.99 38.25
  L 283.01 38.25
  A 0.26 0.26 0.0 0 0 282.75 38.51
  L 282.75 64.75
  A 0.26 0.26 0.0 0 0 283.01 65.01
  L 287.99 65.01
  A 0.26 0.26 0.0 0 0 288.25 64.75
  L 288.25 38.51
  Z
  M 328.50 43.23
  A 0.38 0.38 0.0 0 1 328.89 42.85
  L 335.86 43.07
  A 0.38 0.38 0.0 0 0 336.25 42.69
  L 336.25 38.63
  A 0.38 0.38 0.0 0 0 335.87 38.25
  L 315.63 38.25
  A 0.38 0.38 0.0 0 0 315.25 38.63
  L 315.25 42.66
  A 0.38 0.38 0.0 0 0 315.64 43.04
  L 322.61 42.91
  A 0.38 0.38 0.0 0 1 323.00 43.29
  L 323.00 64.62
  A 0.38 0.38 0.0 0 0 323.38 65.00
  L 328.12 65.00
  A 0.38 0.38 0.0 0 0 328.50 64.62
  L 328.50 43.23
  Z
  M 42.66 83.26
  Q 36.62 85.43 33.99 79.94
  A 0.85 0.85 0.0 0 0 32.79 79.58
  L 26.60 83.32
  Q 26.14 83.60 26.37 84.09
  C 31.95 95.66 53.55 94.48 53.51 80.24
  Q 53.47 63.44 53.52 46.55
  Q 53.52 46.00 52.97 46.00
  L 45.29 45.99
  Q 44.80 45.99 44.80 46.48
  C 44.70 59.99 46.20 77.86 43.50 82.55
  A 1.60 1.59 -85.1 0 1 42.66 83.26
  Z
  M 79.34 83.39
  C 74.66 85.51 69.49 82.63 66.88 78.74
  Q 66.57 78.28 66.10 78.57
  L 59.76 82.34
  Q 59.36 82.58 59.56 82.99
  C 65.14 94.62 88.94 95.95 91.22 81.24
  C 93.02 69.63 82.52 65.81 74.12 62.07
  C 66.11 58.50 74.49 47.65 81.73 57.25
  A 0.06 0.06 0.0 0 0 81.82 57.26
  L 88.12 53.11
  Q 88.59 52.81 88.31 52.33
  C 83.52 44.08 70.59 43.20 64.77 50.29
  C 60.57 55.41 61.24 62.96 66.00 67.49
  C 69.01 70.36 74.88 72.60 79.17 74.60
  C 83.31 76.53 83.72 81.40 79.34 83.39
  Z"
/>
<path fill="#000000" d="
  M 219.95 45.62
  C 218.62 42.34 215.22 41.37 212.36 43.23
  A 2.17 2.16 -51.6 0 0 212.80 47.08
  C 215.71 48.15 221.36 49.08 223.73 51.23
  C 228.65 55.68 226.11 62.79 220.27 64.70
  C 213.93 66.78 206.37 64.20 205.10 56.86
  Q 205.01 56.31 205.56 56.26
  L 209.96 55.93
  A 0.64 0.64 0.0 0 1 210.63 56.43
  C 211.72 61.39 216.96 62.05 220.43 59.04
  Q 220.75 58.77 220.86 58.37
  C 222.41 52.56 208.15 54.17 206.48 48.27
  C 202.93 35.78 223.25 34.11 225.37 45.24
  Q 225.46 45.72 224.97 45.76
  L 220.73 46.11
  Q 220.16 46.15 219.95 45.62
  Z"
/>
<path fill="#000000" d="
  M 106.02 56.48
  C 105.42 61.89 112.12 62.36 112.21 56.88
  Q 112.37 47.71 112.15 38.53
  Q 112.14 38.18 112.49 38.18
  L 117.53 38.22
  A 0.37 0.37 0.0 0 1 117.90 38.60
  Q 117.73 47.31 117.63 55.95
  C 117.49 68.13 101.30 68.92 100.65 57.07
  Q 100.63 56.62 101.07 56.56
  L 105.48 55.96
  A 0.48 0.47 -0.5 0 1 106.02 56.48
  Z"
/>
<path fill="#000000" d="
  M 233.20 41.37
  C 238.52 35.94 250.13 36.60 252.86 45.31
  Q 253.01 45.78 252.53 45.89
  L 248.27 46.79
  Q 247.71 46.91 247.49 46.39
  Q 245.16 40.85 239.08 43.12
  C 231.69 45.89 234.85 66.37 245.33 59.58
  C 246.74 58.66 247.20 57.38 247.78 55.85
  Q 247.98 55.34 248.52 55.45
  L 252.96 56.35
  Q 253.41 56.44 253.29 56.88
  C 250.36 67.67 235.03 68.23 230.81 58.70
  C 228.48 53.43 229.00 45.65 233.20 41.37
  Z"
/>
<path fill="#000000" d="
  M 299.25 55.51
  L 299.25 64.50
  Q 299.25 65.00 298.75 65.00
  L 294.25 65.00
  Q 293.75 65.00 293.75 64.50
  L 293.75 38.79
  Q 293.75 38.32 294.22 38.31
  C 301.96 38.03 313.11 36.74 313.12 46.50
  C 313.13 54.51 306.38 55.03 299.77 54.99
  Q 299.25 54.99 299.25 55.51
  Z
  M 299.26 43.19
  L 299.24 50.05
  A 0.41 0.41 0.0 0 0 299.65 50.46
  L 303.68 50.47
  A 3.82 3.35 0.1 0 0 307.51 47.13
  L 307.51 46.15
  A 3.82 3.35 0.1 0 0 303.70 42.79
  L 299.67 42.78
  A 0.41 0.41 0.0 0 0 299.26 43.19
  Z"
/>
<path fill="#000000" d="
  M 138.54 59.00
  L 128.63 59.00
  A 0.31 0.31 0.0 0 0 128.34 59.20
  L 126.31 64.80
  A 0.31 0.31 0.0 0 1 126.02 65.00
  L 120.79 65.00
  A 0.31 0.31 0.0 0 1 120.51 64.58
  L 130.77 38.45
  A 0.31 0.31 0.0 0 1 131.06 38.25
  L 136.07 38.25
  A 0.31 0.31 0.0 0 1 136.36 38.44
  L 146.88 64.57
  A 0.31 0.31 0.0 0 1 146.59 65.00
  L 141.09 65.00
  A 0.31 0.31 0.0 0 1 140.80 64.79
  L 138.83 59.21
  A 0.31 0.31 0.0 0 0 138.54 59.00
  Z
  M 133.34 44.55
  L 130.51 53.71
  Q 130.33 54.29 130.94 54.29
  L 136.10 54.23
  Q 136.75 54.23 136.55 53.60
  L 133.58 44.54
  A 0.13 0.12 -46.9 0 0 133.34 44.55
  Z"
/>
<path fill="#000000" d="
  M 157.64 57.49
  L 163.67 38.70
  Q 163.81 38.25 164.28 38.25
  L 168.95 38.25
  Q 169.60 38.25 169.38 38.86
  L 160.24 64.48
  Q 160.06 65.00 159.51 65.00
  L 155.14 65.00
  A 0.93 0.92 -9.9 0 1 154.27 64.39
  L 145.30 38.94
  Q 145.05 38.25 145.79 38.25
  L 150.44 38.25
  A 0.76 0.75 -9.0 0 1 151.16 38.77
  L 157.30 57.50
  Q 157.47 58.02 157.64 57.49
  Z"
/>
<path fill="#000000" d="
  M 185.94 59.00
  L 176.01 59.00
  A 0.32 0.32 0.0 0 0 175.71 59.21
  L 173.76 64.79
  A 0.32 0.32 0.0 0 1 173.46 65.00
  L 168.35 65.00
  A 0.32 0.32 0.0 0 1 168.05 64.56
  L 178.20 38.45
  A 0.32 0.32 0.0 0 1 178.50 38.25
  L 183.39 38.25
  A 0.32 0.32 0.0 0 1 183.69 38.45
  L 194.12 64.56
  A 0.32 0.32 0.0 0 1 193.83 65.00
  L 188.63 65.00
  A 0.32 0.32 0.0 0 1 188.33 64.79
  L 186.24 59.21
  A 0.32 0.32 0.0 0 0 185.94 59.00
  Z
  M 179.69 54.30
  Q 181.68 54.51 183.82 54.30
  Q 184.26 54.25 184.11 53.84
  L 181.02 45.00
  Q 180.84 44.48 180.67 45.01
  L 177.74 53.92
  Q 177.58 54.39 178.07 54.50
  Q 178.57 54.62 178.96 54.43
  Q 179.31 54.26 179.69 54.30
  Z"
/>
<path fill="#000000" d="
  M 273.57 54.02
  C 274.65 54.35 278.84 63.04 279.55 64.50
  Q 279.80 65.00 279.24 65.00
  L 274.04 65.00
  Q 273.59 65.00 273.42 64.58
  C 271.36 59.56 269.42 53.13 263.51 53.92
  Q 263.00 53.99 263.00 54.51
  L 263.00 64.37
  Q 263.00 65.00 262.38 65.00
  L 258.35 65.00
  Q 257.75 65.00 257.75 64.41
  L 257.73 38.72
  Q 257.73 38.34 258.11 38.32
  C 264.37 37.99 280.67 36.31 277.68 48.11
  C 277.09 50.47 275.44 51.81 273.45 52.97
  A 0.58 0.58 0.0 0 0 273.57 54.02
  Z
  M 263.01 43.33
  L 262.99 48.97
  A 0.50 0.50 0.0 0 0 263.48 49.47
  L 268.71 49.50
  A 3.79 2.91 0.3 0 0 272.52 46.60
  L 272.52 45.78
  A 3.79 2.91 0.3 0 0 268.75 42.86
  L 263.52 42.83
  A 0.50 0.50 0.0 0 0 263.01 43.33
  Z"
/>
<rect fill="#000000" x="282.75" y="38.25" width="5.50" height="26.76" rx="0.26"/>
<path fill="#000000" d="
  M 328.50 43.23
  L 328.50 64.62
  A 0.38 0.38 0.0 0 1 328.12 65.00
  L 323.38 65.00
  A 0.38 0.38 0.0 0 1 323.00 64.62
  L 323.00 43.29
  A 0.38 0.38 0.0 0 0 322.61 42.91
  L 315.64 43.04
  A 0.38 0.38 0.0 0 1 315.25 42.66
  L 315.25 38.63
  A 0.38 0.38 0.0 0 1 315.63 38.25
  L 335.87 38.25
  A 0.38 0.38 0.0 0 1 336.25 38.63
  L 336.25 42.69
  A 0.38 0.38 0.0 0 1 335.86 43.07
  L 328.89 42.85
  A 0.38 0.38 0.0 0 0 328.50 43.23
  Z"
/>
<path fill="#f7df1e" d="
  M 263.01 43.33
  A 0.50 0.50 0.0 0 1 263.52 42.83
  L 268.75 42.86
  A 3.79 2.91 0.3 0 1 272.52 45.78
  L 272.52 46.60
  A 3.79 2.91 0.3 0 1 268.71 49.50
  L 263.48 49.47
  A 0.50 0.50 0.0 0 1 262.99 48.97
  L 263.01 43.33
  Z"
/>
<path fill="#f7df1e" d="
  M 299.26 43.19
  A 0.41 0.41 0.0 0 1 299.67 42.78
  L 303.70 42.79
  A 3.82 3.35 0.1 0 1 307.51 46.15
  L 307.51 47.13
  A 3.82 3.35 0.1 0 1 303.68 50.47
  L 299.65 50.46
  A 0.41 0.41 0.0 0 1 299.24 50.05
  L 299.26 43.19
  Z"
/>
<path fill="#f7df1e" d="
  M 133.34 44.55
  A 0.13 0.12 -46.9 0 1 133.58 44.54
  L 136.55 53.60
  Q 136.75 54.23 136.10 54.23
  L 130.94 54.29
  Q 130.33 54.29 130.51 53.71
  L 133.34 44.55
  Z"
/>
<path fill="#f7df1e" d="
  M 178.96 54.43
  Q 178.57 54.62 178.07 54.50
  Q 177.58 54.39 177.74 53.92
  L 180.67 45.01
  Q 180.84 44.48 181.02 45.00
  L 184.11 53.84
  Q 184.26 54.25 183.82 54.30
  Q 181.68 54.51 179.69 54.30
  Q 179.31 54.26 178.96 54.43
  Z"
/>
<path fill="#000000" d="
  M 43.50 82.55
  C 46.20 77.86 44.70 59.99 44.80 46.48
  Q 44.80 45.99 45.29 45.99
  L 52.97 46.00
  Q 53.52 46.00 53.52 46.55
  Q 53.47 63.44 53.51 80.24
  C 53.55 94.48 31.95 95.66 26.37 84.09
  Q 26.14 83.60 26.60 83.32
  L 32.79 79.58
  A 0.85 0.85 0.0 0 1 33.99 79.94
  Q 36.62 85.43 42.66 83.26
  A 1.60 1.59 -85.1 0 0 43.50 82.55
  Z"
/>
<path fill="#000000" d="
  M 66.88 78.74
  C 69.49 82.63 74.66 85.51 79.34 83.39
  C 83.72 81.40 83.31 76.53 79.17 74.60
  C 74.88 72.60 69.01 70.36 66.00 67.49
  C 61.24 62.96 60.57 55.41 64.77 50.29
  C 70.59 43.20 83.52 44.08 88.31 52.33
  Q 88.59 52.81 88.12 53.11
  L 81.82 57.26
  A 0.06 0.06 0.0 0 1 81.73 57.25
  C 74.49 47.65 66.11 58.50 74.12 62.07
  C 82.52 65.81 93.02 69.63 91.22 81.24
  C 88.94 95.95 65.14 94.62 59.56 82.99
  Q 59.36 82.58 59.76 82.34
  L 66.10 78.57
  Q 66.57 78.28 66.88 78.74
  Z"
/>
</svg>
