<?xml version="1.0" encoding="UTF-8" standalone="no"?>
<!DOCTYPE svg PUBLIC "-//W3C//DTD SVG 1.1//EN" "http://www.w3.org/Graphics/SVG/1.1/DTD/svg11.dtd">
<svg xmlns="http://www.w3.org/2000/svg" version="1.1" viewBox="0.00 0.00 224.00 100.00">
<g stroke-width="2.00" fill="none" stroke-linecap="butt">
<path stroke="#89a296" vector-effect="non-scaling-stroke" d="
  M 158.15 10.88
  A 8.63 8.63 0.0 0 0 149.52 2.25
  A 8.63 8.63 0.0 0 0 140.89 10.88
  A 8.63 8.63 0.0 0 0 149.52 19.51
  A 8.63 8.63 0.0 0 0 158.15 10.88"
/>
<path stroke="#796380" vector-effect="non-scaling-stroke" d="
  M 126.75 20.11
  A 0.57 0.57 0.0 0 0 126.03 19.56
  L 114.42 22.78
  A 0.57 0.57 0.0 0 0 114.00 23.33
  L 114.00 80.93
  A 0.57 0.57 0.0 0 0 114.57 81.50
  L 126.18 81.49
  A 0.57 0.57 0.0 0 0 126.75 80.92
  L 126.75 20.11"
/>
<path stroke="#9388ca" vector-effect="non-scaling-stroke" d="
  M 65.96 29.04
  A 8.63 8.63 0.0 0 0 57.33 20.41
  A 8.63 8.63 0.0 0 0 48.70 29.04
  A 8.63 8.63 0.0 0 0 57.33 37.67
  A 8.63 8.63 0.0 0 0 65.96 29.04"
/>
<path stroke="#d1748c" vector-effect="non-scaling-stroke" d="
  M 147.67 29.03
  A 8.61 8.61 0.0 0 0 139.06 20.42
  A 8.61 8.61 0.0 0 0 130.45 29.03
  A 8.61 8.61 0.0 0 0 139.06 37.64
  A 8.61 8.61 0.0 0 0 147.67 29.03"
/>
<path stroke="#b583c4" vector-effect="non-scaling-stroke" d="
  M 168.58 29.03
  A 8.60 8.60 0.0 0 0 159.98 20.43
  A 8.60 8.60 0.0 0 0 151.38 29.03
  A 8.60 8.60 0.0 0 0 159.98 37.63
  A 8.60 8.60 0.0 0 0 168.58 29.03"
/>
<path stroke="#796380" vector-effect="non-scaling-stroke" d="
  M 48.34 93.42
  C 45.38 90.76 43.76 87.19 39.00 88.94
  C 36.01 90.04 34.42 93.39 36.91 95.93
  C 40.57 99.67 50.88 99.19 55.05 97.77
  C 63.06 95.06 64.20 87.66 64.22 80.23
  Q 64.29 59.62 64.24 38.87
  Q 64.24 38.32 63.70 38.47
  L 51.94 41.69
  Q 51.49 41.82 51.49 42.28
  Q 51.54 66.05 51.44 89.80
  Q 51.43 92.91 49.51 93.64
  Q 48.86 93.88 48.34 93.42"
/>
<path stroke="#796380" vector-effect="non-scaling-stroke" d="
  M 146.24 39.07
  A 0.44 0.44 0.0 0 0 145.68 38.64
  L 133.82 41.89
  A 0.44 0.44 0.0 0 0 133.50 42.32
  L 133.50 81.06
  A 0.44 0.44 0.0 0 0 133.94 81.50
  L 145.81 81.50
  A 0.44 0.44 0.0 0 0 146.25 81.06
  L 146.24 39.07"
/>
<path stroke="#796380" vector-effect="non-scaling-stroke" d="
  M 172.79 78.79
  L 172.58 80.92
  Q 172.52 81.50 173.11 81.50
  L 184.74 81.50
  Q 185.25 81.50 185.25 80.99
  Q 185.25 66.95 185.26 52.89
  C 185.27 45.46 183.62 41.53 176.27 39.78
  Q 163.76 36.82 153.56 42.78
  Q 149.75 45.00 150.14 49.11
  C 150.64 54.43 158.20 56.21 160.84 51.81
  C 162.12 49.68 161.25 47.22 162.41 45.42
  C 164.96 41.47 171.46 42.81 172.39 47.70
  Q 172.99 50.89 172.67 54.35
  A 0.75 0.75 0.0 0 1 172.09 55.01
  Q 161.37 57.38 154.33 62.29
  C 146.73 67.60 148.35 79.25 157.64 81.67
  Q 165.83 83.81 172.15 78.45
  A 0.39 0.39 0.0 0 1 172.79 78.79"
/>
<path stroke="#796380" vector-effect="non-scaling-stroke" d="
  M 95.50 78.47
  L 95.50 80.88
  Q 95.50 81.50 96.12 81.50
  L 107.75 81.50
  A 0.50 0.50 0.0 0 0 108.25 81.00
  L 108.25 39.89
  Q 108.25 39.29 107.65 39.29
  L 96.14 39.23
  A 0.64 0.64 0.0 0 0 95.50 39.87
  L 95.50 69.02
  Q 95.50 69.54 95.20 69.96
  C 93.37 72.51 90.57 75.14 87.23 74.34
  C 84.17 73.60 82.76 71.37 82.76 68.14
  Q 82.75 54.04 82.75 39.81
  A 0.50 0.49 -0.6 0 0 82.24 39.32
  L 70.75 39.47
  Q 70.16 39.48 70.17 40.07
  Q 70.34 53.08 70.24 66.11
  Q 70.20 72.00 71.55 74.71
  C 76.27 84.25 87.31 83.42 94.84 78.12
  A 0.42 0.42 0.0 0 1 95.50 78.47"
/>
<path stroke="#796380" vector-effect="non-scaling-stroke" d="
  M 165.09 75.06
  A 1.83 1.81 47.6 0 0 167.04 75.16
  L 172.01 72.32
  A 1.00 0.98 -15.6 0 0 172.50 71.47
  L 172.50 60.50
  A 0.35 0.34 -10.1 0 0 172.03 60.18
  C 166.80 62.04 156.96 69.26 165.09 75.06"
/>
</g>
<path fill="#d8ace5" d="
  M 0.00 0.00
  L 224.00 0.00
  L 224.00 100.00
  L 0.00 100.00
  L 0.00 0.00
  Z
  M 158.15 10.88
  A 8.63 8.63 0.0 0 0 149.52 2.25
  A 8.63 8.63 0.0 0 0 140.89 10.88
  A 8.63 8.63 0.0 0 0 149.52 19.51
  A 8.63 8.63 0.0 0 0 158.15 10.88
  Z
  M 126.75 20.11
  A 0.57 0.57 0.0 0 0 126.03 19.56
  L 114.42 22.78
  A 0.57 0.57 0.0 0 0 114.00 23.33
  L 114.00 80.93
  A 0.57 0.57 0.0 0 0 114.57 81.50
  L 126.18 81.49
  A 0.57 0.57 0.0 0 0 126.75 80.92
  L 126.75 20.11
  Z
  M 65.96 29.04
  A 8.63 8.63 0.0 0 0 57.33 20.41
  A 8.63 8.63 0.0 0 0 48.70 29.04
  A 8.63 8.63 0.0 0 0 57.33 37.67
  A 8.63 8.63 0.0 0 0 65.96 29.04
  Z
  M 147.67 29.03
  A 8.61 8.61 0.0 0 0 139.06 20.42
  A 8.61 8.61 0.0 0 0 130.45 29.03
  A 8.61 8.61 0.0 0 0 139.06 37.64
  A 8.61 8.61 0.0 0 0 147.67 29.03
  Z
  M 168.58 29.03
  A 8.60 8.60 0.0 0 0 159.98 20.43
  A 8.60 8.60 0.0 0 0 151.38 29.03
  A 8.60 8.60 0.0 0 0 159.98 37.63
  A 8.60 8.60 0.0 0 0 168.58 29.03
  Z
  M 48.34 93.42
  C 45.38 90.76 43.76 87.19 39.00 88.94
  C 36.01 90.04 34.42 93.39 36.91 95.93
  C 40.57 99.67 50.88 99.19 55.05 97.77
  C 63.06 95.06 64.20 87.66 64.22 80.23
  Q 64.29 59.62 64.24 38.87
  Q 64.24 38.32 63.70 38.47
  L 51.94 41.69
  Q 51.49 41.82 51.49 42.28
  Q 51.54 66.05 51.44 89.80
  Q 51.43 92.91 49.51 93.64
  Q 48.86 93.88 48.34 93.42
  Z
  M 146.24 39.07
  A 0.44 0.44 0.0 0 0 145.68 38.64
  L 133.82 41.89
  A 0.44 0.44 0.0 0 0 133.50 42.32
  L 133.50 81.06
  A 0.44 0.44 0.0 0 0 133.94 81.50
  L 145.81 81.50
  A 0.44 0.44 0.0 0 0 146.25 81.06
  L 146.24 39.07
  Z
  M 172.79 78.79
  L 172.58 80.92
  Q 172.52 81.50 173.11 81.50
  L 184.74 81.50
  Q 185.25 81.50 185.25 80.99
  Q 185.25 66.95 185.26 52.89
  C 185.27 45.46 183.62 41.53 176.27 39.78
  Q 163.76 36.82 153.56 42.78
  Q 149.75 45.00 150.14 49.11
  C 150.64 54.43 158.20 56.21 160.84 51.81
  C 162.12 49.68 161.25 47.22 162.41 45.42
  C 164.96 41.47 171.46 42.81 172.39 47.70
  Q 172.99 50.89 172.67 54.35
  A 0.75 0.75 0.0 0 1 172.09 55.01
  Q 161.37 57.38 154.33 62.29
  C 146.73 67.60 148.35 79.25 157.64 81.67
  Q 165.83 83.81 172.15 78.45
  A 0.39 0.39 0.0 0 1 172.79 78.79
  Z
  M 95.50 78.47
  L 95.50 80.88
  Q 95.50 81.50 96.12 81.50
  L 107.75 81.50
  A 0.50 0.50 0.0 0 0 108.25 81.00
  L 108.25 39.89
  Q 108.25 39.29 107.65 39.29
  L 96.14 39.23
  A 0.64 0.64 0.0 0 0 95.50 39.87
  L 95.50 69.02
  Q 95.50 69.54 95.20 69.96
  C 93.37 72.51 90.57 75.14 87.23 74.34
  C 84.17 73.60 82.76 71.37 82.76 68.14
  Q 82.75 54.04 82.75 39.81
  A 0.50 0.49 -0.6 0 0 82.24 39.32
  L 70.75 39.47
  Q 70.16 39.48 70.17 40.07
  Q 70.34 53.08 70.24 66.11
  Q 70.20 72.00 71.55 74.71
  C 76.27 84.25 87.31 83.42 94.84 78.12
  A 0.42 0.42 0.0 0 1 95.50 78.47
  Z"
/>
<circle fill="#399746" cx="149.52" cy="10.88" r="8.63"/>
<path fill="#1a1a1a" d="
  M 126.75 20.11
  L 126.75 80.92
  A 0.57 0.57 0.0 0 1 126.18 81.49
  L 114.57 81.50
  A 0.57 0.57 0.0 0 1 114.00 80.93
  L 114.00 23.33
  A 0.57 0.57 0.0 0 1 114.42 22.78
  L 126.03 19.56
  A 0.57 0.57 0.0 0 1 126.75 20.11
  Z"
/>
<circle fill="#4d64ae" cx="57.33" cy="29.04" r="8.63"/>
<circle fill="#ca3c32" cx="139.06" cy="29.03" r="8.61"/>
<circle fill="#9259a3" cx="159.98" cy="29.03" r="8.60"/>
<path fill="#1a1a1a" d="
  M 49.51 93.64
  Q 51.43 92.91 51.44 89.80
  Q 51.54 66.05 51.49 42.28
  Q 51.49 41.82 51.94 41.69
  L 63.70 38.47
  Q 64.24 38.32 64.24 38.87
  Q 64.29 59.62 64.22 80.23
  C 64.20 87.66 63.06 95.06 55.05 97.77
  C 50.88 99.19 40.57 99.67 36.91 95.93
  C 34.42 93.39 36.01 90.04 39.00 88.94
  C 43.76 87.19 45.38 90.76 48.34 93.42
  Q 48.86 93.88 49.51 93.64
  Z"
/>
<path fill="#1a1a1a" d="
  M 146.24 39.07
  L 146.25 81.06
  A 0.44 0.44 0.0 0 1 145.81 81.50
  L 133.94 81.50
  A 0.44 0.44 0.0 0 1 133.50 81.06
  L 133.50 42.32
  A 0.44 0.44 0.0 0 1 133.82 41.89
  L 145.68 38.64
  A 0.44 0.44 0.0 0 1 146.24 39.07
  Z"
/>
<path fill="#1a1a1a" d="
  M 172.79 78.79
  A 0.39 0.39 0.0 0 0 172.15 78.45
  Q 165.83 83.81 157.64 81.67
  C 148.35 79.25 146.73 67.60 154.33 62.29
  Q 161.37 57.38 172.09 55.01
  A 0.75 0.75 0.0 0 0 172.67 54.35
  Q 172.99 50.89 172.39 47.70
  C 171.46 42.81 164.96 41.47 162.41 45.42
  C 161.25 47.22 162.12 49.68 160.84 51.81
  C 158.20 56.21 150.64 54.43 150.14 49.11
  Q 149.75 45.00 153.56 42.78
  Q 163.76 36.82 176.27 39.78
  C 183.62 41.53 185.27 45.46 185.26 52.89
  Q 185.25 66.95 185.25 80.99
  Q 185.25 81.50 184.74 81.50
  L 173.11 81.50
  Q 172.52 81.50 172.58 80.92
  L 172.79 78.79
  Z
  M 165.09 75.06
  A 1.83 1.81 47.6 0 0 167.04 75.16
  L 172.01 72.32
  A 1.00 0.98 -15.6 0 0 172.50 71.47
  L 172.50 60.50
  A 0.35 0.34 -10.1 0 0 172.03 60.18
  C 166.80 62.04 156.96 69.26 165.09 75.06
  Z"
/>
<path fill="#1a1a1a" d="
  M 94.84 78.12
  C 87.31 83.42 76.27 84.25 71.55 74.71
  Q 70.20 72.00 70.24 66.11
  Q 70.34 53.08 70.17 40.07
  Q 70.16 39.48 70.75 39.47
  L 82.24 39.32
  A 0.50 0.49 -0.6 0 1 82.75 39.81
  Q 82.75 54.04 82.76 68.14
  C 82.76 71.37 84.17 73.60 87.23 74.34
  C 90.57 75.14 93.37 72.51 95.20 69.96
  Q 95.50 69.54 95.50 69.02
  L 95.50 39.87
  A 0.64 0.64 0.0 0 1 96.14 39.23
  L 107.65 39.29
  Q 108.25 39.29 108.25 39.89
  L 108.25 81.00
  A 0.50 0.50 0.0 0 1 107.75 81.50
  L 96.12 81.50
  Q 95.50 81.50 95.50 80.88
  L 95.50 78.47
  A 0.42 0.42 0.0 0 0 94.84 78.12
  Z"
/>
<path fill="#d8ace5" d="
  M 165.09 75.06
  C 156.96 69.26 166.80 62.04 172.03 60.18
  A 0.35 0.34 -10.1 0 1 172.50 60.50
  L 172.50 71.47
  A 1.00 0.98 -15.6 0 1 172.01 72.32
  L 167.04 75.16
  A 1.83 1.81 47.6 0 1 165.09 75.06
  Z"
/>
</svg>
