<?xml version="1.0" encoding="UTF-8" standalone="no"?>
<!DOCTYPE svg PUBLIC "-//W3C//DTD SVG 1.1//EN" "http://www.w3.org/Graphics/SVG/1.1/DTD/svg11.dtd">
<svg xmlns="http://www.w3.org/2000/svg" version="1.1" viewBox="0.00 0.00 350.00 100.00">
<g stroke-width="2.00" fill="none" stroke-linecap="butt">
<path stroke="#87ccc8" vector-effect="non-scaling-stroke" d="
  M 82.06 14.64
  C 76.58 21.25 70.27 31.25 61.85 34.00
  C 58.00 35.26 56.20 36.66 53.52 39.17"
/>
<path stroke="#bfa39e" vector-effect="non-scaling-stroke" d="
  M 53.52 39.17
  C 51.80 40.79 50.65 42.42 48.37 43.28
  Q 45.39 44.40 42.52 45.41"
/>
<path stroke="#87ccc8" vector-effect="non-scaling-stroke" d="
  M 42.52 45.41
  L 39.12 46.57"
/>
<path stroke="#80dfdf" vector-effect="non-scaling-stroke" d="
  M 39.12 46.57
  L 23.66 52.05
  A 0.26 0.26 0.0 0 0 23.59 52.51
  L 34.66 60.16"
/>
<path stroke="#87ccc8" vector-effect="non-scaling-stroke" d="
  M 34.66 60.16
  C 36.25 61.33 41.86 65.94 43.50 65.23"
/>
<path stroke="#bfa39e" vector-effect="non-scaling-stroke" d="
  M 43.50 65.23
  L 48.24 65.11"
/>
<path stroke="#ae8080" vector-effect="non-scaling-stroke" d="
  M 48.24 65.11
  Q 51.54 66.86 53.31 69.24"
/>
<path stroke="#e08180" vector-effect="non-scaling-stroke" d="
  M 53.31 69.24
  L 57.79 76.54"
/>
<path stroke="#ffb280" vector-effect="non-scaling-stroke" d="
  M 57.79 76.54
  L 59.77 80.19"
/>
<path stroke="#ffc380" vector-effect="non-scaling-stroke" d="
  M 59.77 80.19
  L 62.94 86.49
  Q 63.20 86.99 63.74 86.83
  L 65.52 86.29"
/>
<path stroke="#ffed80" vector-effect="non-scaling-stroke" d="
  M 65.52 86.29
  Q 72.03 83.78 77.63 78.32"
/>
<path stroke="#ffc380" vector-effect="non-scaling-stroke" d="
  M 77.63 78.32
  C 82.29 73.98 88.18 67.03 95.25 63.22"
/>
<path stroke="#ffb280" vector-effect="non-scaling-stroke" d="
  M 95.25 63.22
  Q 98.05 62.13 102.84 62.64"
/>
<path stroke="#fe8a80" vector-effect="non-scaling-stroke" d="
  M 102.84 62.64
  L 115.50 71.26
  Q 116.29 71.80 115.84 70.96
  C 111.89 63.47 108.41 56.27 105.24 48.07
  C 100.84 36.66 97.36 25.30 90.64 16.00"
/>
<path stroke="#e08180" vector-effect="non-scaling-stroke" d="
  M 90.64 16.00
  Q 88.59 13.45 85.86 13.18"
/>
<path stroke="#ae8080" vector-effect="non-scaling-stroke" d="
  M 85.86 13.18
  Q 83.90 13.20 82.06 14.64"
/>
<path stroke="#8f0201" vector-effect="non-scaling-stroke" d="
  M 85.86 13.18
  L 82.08 22.50
  Q 81.89 22.96 82.01 23.45
  C 82.96 27.15 81.06 28.97 80.16 31.66
  Q 77.83 38.68 76.26 41.03
  C 72.94 46.00 70.67 52.18 67.41 56.34
  Q 61.61 63.74 53.31 69.24"
/>
<path stroke="#6d241f" vector-effect="non-scaling-stroke" d="
  M 48.24 65.11
  Q 48.15 62.96 50.05 61.51
  Q 56.97 56.25 61.34 50.62
  A 0.50 0.50 0.0 0 0 61.12 49.84
  Q 59.81 49.37 59.08 48.21
  Q 58.84 47.83 58.47 47.57
  L 51.89 43.17
  A 0.51 0.51 0.0 0 1 51.84 42.36
  L 54.77 39.77"
/>
<path stroke="#364d49" vector-effect="non-scaling-stroke" d="
  M 54.77 39.77
  C 58.50 37.56 62.88 36.15 66.09 33.92
  Q 72.11 29.76 76.85 23.75"
/>
<path stroke="#2f6060" vector-effect="non-scaling-stroke" d="
  M 76.85 23.75
  Q 74.56 29.85 71.37 35.16"
/>
<path stroke="#6d241f" vector-effect="non-scaling-stroke" d="
  M 71.37 35.16
  L 67.35 42.02
  Q 67.10 42.45 67.52 42.72
  C 68.31 43.21 71.69 37.04 72.68 35.25"
/>
<path stroke="#2f6060" vector-effect="non-scaling-stroke" d="
  M 72.68 35.25
  Q 77.62 27.08 81.64 17.60"
/>
<path stroke="#364d49" vector-effect="non-scaling-stroke" d="
  M 81.64 17.60
  Q 82.93 16.46 82.06 14.64"
/>
<path stroke="#08aca7" vector-effect="non-scaling-stroke" d="
  M 81.64 17.60
  Q 78.87 18.06 76.85 23.75"
/>
<path stroke="#476f67" vector-effect="non-scaling-stroke" d="
  M 54.77 39.77
  Q 54.18 39.78 53.52 39.17"
/>
<path stroke="#40837e" vector-effect="non-scaling-stroke" d="
  M 72.68 35.25
  Q 72.15 35.53 71.37 35.16"
/>
<path stroke="#476f67" vector-effect="non-scaling-stroke" d="
  M 43.50 65.23
  Q 42.81 63.42 43.50 60.00
  Q 44.47 55.17 42.52 45.41"
/>
<path stroke="#df0c00" vector-effect="non-scaling-stroke" d="
  M 90.64 16.00
  Q 88.64 17.52 88.30 17.47
  A 2.58 2.58 0.0 0 0 85.36 19.61
  C 84.71 23.63 83.07 27.42 82.56 31.15
  C 80.87 43.37 80.15 52.61 74.66 62.29
  Q 74.43 62.70 73.96 62.74
  C 73.51 62.77 70.62 66.86 70.12 67.43
  C 67.80 70.05 63.98 71.06 61.22 73.98"
/>
<path stroke="#e03400" vector-effect="non-scaling-stroke" d="
  M 61.22 73.98
  L 57.79 76.54"
/>
<path stroke="#08aca7" vector-effect="non-scaling-stroke" d="
  M 34.66 60.16
  Q 37.78 53.85 39.12 46.57"
/>
<path stroke="#fe3d00" vector-effect="non-scaling-stroke" d="
  M 102.84 62.64
  Q 99.08 57.99 97.95 53.51
  C 97.60 52.12 95.63 42.16 95.15 41.94
  A 0.67 0.64 10.1 0 1 94.77 41.42
  Q 94.18 36.64 92.37 32.18
  Q 92.17 31.68 92.22 31.15
  Q 92.58 27.83 90.94 24.96"
/>
<path stroke="#fe4e00" vector-effect="non-scaling-stroke" d="
  M 90.94 24.96
  L 88.43 20.15
  A 1.01 1.01 0.0 0 0 86.52 20.58
  Q 86.45 22.39 85.28 23.66
  Q 84.91 24.05 84.88 24.57
  L 83.69 44.01"
/>
<path stroke="#fe3d00" vector-effect="non-scaling-stroke" d="
  M 83.69 44.01
  L 83.18 35.04
  Q 83.12 34.03 82.94 35.02
  Q 81.25 44.52 79.58 54.00
  C 78.80 58.39 76.33 61.79 74.05 65.46
  C 71.66 69.31 65.22 72.02 61.22 73.98"
/>
<path stroke="#ff7600" vector-effect="non-scaling-stroke" d="
  M 90.94 24.96
  C 91.18 26.93 92.80 43.56 93.06 43.80
  Q 93.44 44.15 93.45 44.67
  Q 93.67 54.02 95.25 63.22"
/>
<path stroke="#ffb101" vector-effect="non-scaling-stroke" d="
  M 77.63 78.32
  Q 72.03 76.44 66.58 77.86
  C 64.92 78.29 63.80 79.49 62.50 80.56
  A 0.94 0.94 0.0 0 0 62.19 81.49
  Q 62.77 83.81 65.52 86.29"
/>
<path stroke="#ff7600" vector-effect="non-scaling-stroke" d="
  M 59.77 80.19
  C 62.42 77.81 64.62 75.83 68.15 74.73
  C 76.91 72.01 81.05 72.29 82.99 61.92
  C 84.04 56.32 83.65 49.73 83.69 44.01"
/>
<path stroke="#808080" vector-effect="non-scaling-stroke" d="
  M 133.59 38.49
  A 0.29 0.29 0.0 0 1 134.14 38.38
  L 147.70 68.22
  A 0.44 0.44 0.0 0 0 148.50 68.23
  L 162.62 37.56
  Q 163.41 35.84 163.43 37.73
  Q 163.56 51.04 163.48 63.27
  C 163.46 66.19 162.55 68.02 159.40 67.89
  A 0.70 0.70 0.0 0 0 158.78 68.23
  L 158.63 68.48
  Q 158.32 68.99 158.91 69.00
  L 183.61 69.11
  A 0.40 0.40 0.0 0 0 183.77 68.34
  L 181.49 67.35
  A 2.00 2.00 0.0 0 1 180.37 64.96
  L 182.75 56.80
  A 0.78 0.77 7.9 0 1 183.50 56.24
  L 193.21 56.27
  A 0.69 0.67 80.3 0 1 193.85 56.73
  L 197.02 65.46
  A 1.60 1.59 -20.1 0 1 196.07 67.50
  L 194.08 68.22
  A 0.39 0.39 0.0 0 0 194.20 68.97
  L 205.19 69.32
  A 0.60 0.59 -34.8 0 0 205.40 68.16
  C 203.49 67.52 201.95 66.71 201.17 64.68
  Q 195.59 50.21 190.24 35.91
  A 0.48 0.48 0.0 0 0 189.35 35.91
  Q 183.76 50.15 178.10 64.19
  Q 175.94 69.54 170.49 67.14
  Q 168.52 66.28 168.48 64.74
  Q 168.13 50.63 167.70 36.49
  Q 167.56 31.85 172.50 31.96
  Q 172.84 31.97 172.95 31.65
  L 173.08 31.27
  Q 173.25 30.75 172.70 30.75
  L 164.65 30.75
  A 0.79 0.78 12.4 0 0 163.94 31.20
  L 150.13 60.73
  A 0.28 0.28 0.0 0 1 149.62 60.73
  L 135.77 31.49
  Q 135.47 30.84 134.75 30.85
  L 126.91 30.90
  A 0.37 0.37 0.0 0 0 126.59 31.46
  L 126.79 31.79
  Q 126.96 32.07 127.29 32.07
  Q 132.01 32.09 131.97 36.74
  Q 131.86 49.03 130.51 63.25
  Q 130.11 67.46 125.55 68.10
  Q 125.32 68.13 125.29 68.35
  L 125.25 68.66
  Q 125.21 68.99 125.54 69.00
  C 127.26 69.09 138.04 69.66 138.66 68.96
  A 0.66 0.65 -67.2 0 0 138.22 67.87
  Q 132.75 67.46 132.88 61.93
  Q 133.15 50.09 133.59 38.49"
/>
<path stroke="#808080" vector-effect="non-scaling-stroke" d="
  M 217.86 67.35
  A 2.07 2.06 -82.2 0 1 216.35 65.36
  L 216.34 38.33
  Q 216.34 37.68 216.98 37.60
  Q 220.41 37.13 223.71 38.05
  C 226.41 38.80 226.17 41.84 227.69 43.75
  Q 228.34 44.57 228.29 43.53
  L 227.92 35.84
  A 0.58 0.58 0.0 0 0 226.95 35.43
  L 226.36 35.96
  Q 226.04 36.25 225.61 36.25
  L 203.56 36.25
  A 1.44 1.42 60.7 0 1 202.80 36.03
  L 201.65 35.31
  Q 201.13 34.97 201.08 35.59
  L 200.47 43.45
  A 0.48 0.48 0.0 0 0 201.42 43.61
  Q 203.48 35.94 211.79 37.72
  Q 212.27 37.82 212.27 38.31
  Q 212.25 51.28 212.14 64.25
  C 212.11 69.01 208.86 66.70 207.38 68.50
  A 0.46 0.46 0.0 0 0 207.74 69.25
  L 221.34 69.25
  A 0.45 0.45 0.0 0 0 221.46 68.36
  L 217.86 67.35"
/>
<path stroke="#808080" vector-effect="non-scaling-stroke" d="
  M 273.81 56.79
  L 277.16 66.27
  A 0.71 0.70 -21.3 0 1 276.77 67.15
  L 274.00 68.30
  A 0.36 0.36 0.0 0 0 274.14 68.99
  L 285.08 69.02
  A 0.52 0.52 0.0 0 0 285.16 67.98
  C 282.65 67.57 281.59 66.14 280.67 63.72
  Q 275.39 49.72 270.18 36.01
  A 0.54 0.53 -44.8 0 0 269.18 36.01
  Q 264.39 48.27 259.67 60.42
  C 258.03 64.63 257.51 67.18 253.58 68.25
  A 0.49 0.49 0.0 0 0 253.71 69.21
  L 263.53 69.01
  A 0.36 0.36 0.0 0 0 263.65 68.32
  L 260.55 67.04
  A 0.89 0.89 0.0 0 1 260.03 65.98
  L 262.63 56.82
  A 0.80 0.79 7.9 0 1 263.41 56.24
  L 273.11 56.29
  Q 273.63 56.29 273.81 56.79"
/>
<path stroke="#808080" vector-effect="non-scaling-stroke" d="
  M 241.07 67.63
  Q 238.38 67.17 238.32 64.43
  Q 238.11 54.84 238.24 41.18
  C 238.29 36.57 241.54 38.50 242.95 36.89
  A 0.38 0.38 0.0 0 0 242.67 36.25
  L 230.25 36.25
  Q 229.81 36.25 229.88 36.68
  C 230.05 37.71 234.12 36.83 234.17 41.26
  Q 234.30 52.97 234.22 64.69
  C 234.19 68.34 230.60 67.15 229.82 68.52
  Q 229.41 69.23 230.23 69.22
  L 251.32 69.15
  A 0.88 0.88 0.0 0 0 252.17 68.46
  L 253.69 61.20
  A 0.50 0.50 0.0 0 0 252.72 60.95
  Q 250.34 69.22 241.07 67.63"
/>
<path stroke="#808080" vector-effect="non-scaling-stroke" d="
  M 304.36 50.63
  C 312.38 47.69 312.22 37.38 303.44 36.55
  Q 297.05 35.95 287.59 36.32
  Q 287.41 36.33 287.34 36.49
  Q 287.29 36.63 287.24 36.78
  Q 287.12 37.21 287.56 37.23
  Q 291.39 37.40 291.42 41.51
  Q 291.54 56.47 291.36 64.23
  C 291.29 67.24 289.97 67.58 287.45 68.26
  A 0.43 0.43 0.0 0 0 287.57 69.10
  C 293.42 69.06 303.36 70.00 308.34 66.64
  C 312.80 63.63 313.98 57.05 309.52 53.50
  Q 307.50 51.90 304.37 50.95
  A 0.17 0.17 0.0 0 1 304.36 50.63"
/>
<path stroke="#ffb101" vector-effect="non-scaling-stroke" d="
  M 88.77 23.73
  Q 88.72 22.68 87.76 22.26
  A 0.89 0.88 -74.8 0 0 86.52 22.98
  Q 85.62 30.53 87.62 37.80
  A 1.56 1.55 -9.0 0 0 89.20 38.94
  C 91.48 38.82 89.61 24.15 88.99 24.00
  Q 88.78 23.94 88.77 23.73"
/>
<path stroke="#808080" vector-effect="non-scaling-stroke" d="
  M 183.71 54.28
  A 0.35 0.35 0.0 0 0 184.03 54.75
  L 192.57 54.75
  A 0.35 0.35 0.0 0 0 192.89 54.28
  L 188.63 42.88
  A 0.35 0.35 0.0 0 0 187.97 42.88
  L 183.71 54.28"
/>
<path stroke="#808080" vector-effect="non-scaling-stroke" d="
  M 263.64 54.36
  A 0.30 0.30 0.0 0 0 263.93 54.76
  L 272.55 54.75
  A 0.30 0.30 0.0 0 0 272.83 54.34
  L 268.50 42.83
  A 0.30 0.30 0.0 0 0 267.94 42.83
  L 263.64 54.36"
/>
<path stroke="#808080" vector-effect="non-scaling-stroke" d="
  M 295.49 38.36
  L 295.51 49.82
  A 0.85 0.85 0.0 0 0 296.36 50.67
  L 299.47 50.66
  A 6.30 6.16 -0.1 0 0 305.76 44.49
  L 305.76 43.65
  A 6.30 6.16 -0.1 0 0 299.45 37.50
  L 296.34 37.51
  A 0.85 0.85 0.0 0 0 295.49 38.36"
/>
<path stroke="#808080" vector-effect="non-scaling-stroke" d="
  M 299.48 67.66
  C 311.81 67.51 309.81 49.87 295.99 51.93
  Q 295.51 52.00 295.51 52.48
  Q 295.48 57.95 295.50 63.41
  C 295.51 66.56 296.24 67.70 299.48 67.66"
/>
</g>
<path fill="#ffffff" d="
  M 0.00 0.00
  L 350.00 0.00
  L 350.00 100.00
  L 0.00 100.00
  L 0.00 0.00
  Z
  M 82.06 14.64
  C 76.58 21.25 70.27 31.25 61.85 34.00
  C 58.00 35.26 56.20 36.66 53.52 39.17
  C 51.80 40.79 50.65 42.42 48.37 43.28
  Q 45.39 44.40 42.52 45.41
  L 39.12 46.57
  L 23.66 52.05
  A 0.26 0.26 0.0 0 0 23.59 52.51
  L 34.66 60.16
  C 36.25 61.33 41.86 65.94 43.50 65.23
  L 48.24 65.11
  Q 51.54 66.86 53.31 69.24
  L 57.79 76.54
  L 59.77 80.19
  L 62.94 86.49
  Q 63.20 86.99 63.74 86.83
  L 65.52 86.29
  Q 72.03 83.78 77.63 78.32
  C 82.29 73.98 88.18 67.03 95.25 63.22
  Q 98.05 62.13 102.84 62.64
  L 115.50 71.26
  Q 116.29 71.80 115.84 70.96
  C 111.89 63.47 108.41 56.27 105.24 48.07
  C 100.84 36.66 97.36 25.30 90.64 16.00
  Q 88.59 13.45 85.86 13.18
  Q 83.90 13.20 82.06 14.64
  Z
  M 133.59 38.49
  A 0.29 0.29 0.0 0 1 134.14 38.38
  L 147.70 68.22
  A 0.44 0.44 0.0 0 0 148.50 68.23
  L 162.62 37.56
  Q 163.41 35.84 163.43 37.73
  Q 163.56 51.04 163.48 63.27
  C 163.46 66.19 162.55 68.02 159.40 67.89
  A 0.70 0.70 0.0 0 0 158.78 68.23
  L 158.63 68.48
  Q 158.32 68.99 158.91 69.00
  L 183.61 69.11
  A 0.40 0.40 0.0 0 0 183.77 68.34
  L 181.49 67.35
  A 2.00 2.00 0.0 0 1 180.37 64.96
  L 182.75 56.80
  A 0.78 0.77 7.9 0 1 183.50 56.24
  L 193.21 56.27
  A 0.69 0.67 80.3 0 1 193.85 56.73
  L 197.02 65.46
  A 1.60 1.59 -20.1 0 1 196.07 67.50
  L 194.08 68.22
  A 0.39 0.39 0.0 0 0 194.20 68.97
  L 205.19 69.32
  A 0.60 0.59 -34.8 0 0 205.40 68.16
  C 203.49 67.52 201.95 66.71 201.17 64.68
  Q 195.59 50.21 190.24 35.91
  A 0.48 0.48 0.0 0 0 189.35 35.91
  Q 183.76 50.15 178.10 64.19
  Q 175.94 69.54 170.49 67.14
  Q 168.52 66.28 168.48 64.74
  Q 168.13 50.63 167.70 36.49
  Q 167.56 31.85 172.50 31.96
  Q 172.84 31.97 172.95 31.65
  L 173.08 31.27
  Q 173.25 30.75 172.70 30.75
  L 164.65 30.75
  A 0.79 0.78 12.4 0 0 163.94 31.20
  L 150.13 60.73
  A 0.28 0.28 0.0 0 1 149.62 60.73
  L 135.77 31.49
  Q 135.47 30.84 134.75 30.85
  L 126.91 30.90
  A 0.37 0.37 0.0 0 0 126.59 31.46
  L 126.79 31.79
  Q 126.96 32.07 127.29 32.07
  Q 132.01 32.09 131.97 36.74
  Q 131.86 49.03 130.51 63.25
  Q 130.11 67.46 125.55 68.10
  Q 125.32 68.13 125.29 68.35
  L 125.25 68.66
  Q 125.21 68.99 125.54 69.00
  C 127.26 69.09 138.04 69.66 138.66 68.96
  A 0.66 0.65 -67.2 0 0 138.22 67.87
  Q 132.75 67.46 132.88 61.93
  Q 133.15 50.09 133.59 38.49
  Z
  M 217.86 67.35
  A 2.07 2.06 -82.2 0 1 216.35 65.36
  L 216.34 38.33
  Q 216.34 37.68 216.98 37.60
  Q 220.41 37.13 223.71 38.05
  C 226.41 38.80 226.17 41.84 227.69 43.75
  Q 228.34 44.57 228.29 43.53
  L 227.92 35.84
  A 0.58 0.58 0.0 0 0 226.95 35.43
  L 226.36 35.96
  Q 226.04 36.25 225.61 36.25
  L 203.56 36.25
  A 1.44 1.42 60.7 0 1 202.80 36.03
  L 201.65 35.31
  Q 201.13 34.97 201.08 35.59
  L 200.47 43.45
  A 0.48 0.48 0.0 0 0 201.42 43.61
  Q 203.48 35.94 211.79 37.72
  Q 212.27 37.82 212.27 38.31
  Q 212.25 51.28 212.14 64.25
  C 212.11 69.01 208.86 66.70 207.38 68.50
  A 0.46 0.46 0.0 0 0 207.74 69.25
  L 221.34 69.25
  A 0.45 0.45 0.0 0 0 221.46 68.36
  L 217.86 67.35
  Z
  M 273.81 56.79
  L 277.16 66.27
  A 0.71 0.70 -21.3 0 1 276.77 67.15
  L 274.00 68.30
  A 0.36 0.36 0.0 0 0 274.14 68.99
  L 285.08 69.02
  A 0.52 0.52 0.0 0 0 285.16 67.98
  C 282.65 67.57 281.59 66.14 280.67 63.72
  Q 275.39 49.72 270.18 36.01
  A 0.54 0.53 -44.8 0 0 269.18 36.01
  Q 264.39 48.27 259.67 60.42
  C 258.03 64.63 257.51 67.18 253.58 68.25
  A 0.49 0.49 0.0 0 0 253.71 69.21
  L 263.53 69.01
  A 0.36 0.36 0.0 0 0 263.65 68.32
  L 260.55 67.04
  A 0.89 0.89 0.0 0 1 260.03 65.98
  L 262.63 56.82
  A 0.80 0.79 7.9 0 1 263.41 56.24
  L 273.11 56.29
  Q 273.63 56.29 273.81 56.79
  Z
  M 241.07 67.63
  Q 238.38 67.17 238.32 64.43
  Q 238.11 54.84 238.24 41.18
  C 238.29 36.57 241.54 38.50 242.95 36.89
  A 0.38 0.38 0.0 0 0 242.67 36.25
  L 230.25 36.25
  Q 229.81 36.25 229.88 36.68
  C 230.05 37.71 234.12 36.83 234.17 41.26
  Q 234.30 52.97 234.22 64.69
  C 234.19 68.34 230.60 67.15 229.82 68.52
  Q 229.41 69.23 230.23 69.22
  L 251.32 69.15
  A 0.88 0.88 0.0 0 0 252.17 68.46
  L 253.69 61.20
  A 0.50 0.50 0.0 0 0 252.72 60.95
  Q 250.34 69.22 241.07 67.63
  Z
  M 304.36 50.63
  C 312.38 47.69 312.22 37.38 303.44 36.55
  Q 297.05 35.95 287.59 36.32
  Q 287.41 36.33 287.34 36.49
  Q 287.29 36.63 287.24 36.78
  Q 287.12 37.21 287.56 37.23
  Q 291.39 37.40 291.42 41.51
  Q 291.54 56.47 291.36 64.23
  C 291.29 67.24 289.97 67.58 287.45 68.26
  A 0.43 0.43 0.0 0 0 287.57 69.10
  C 293.42 69.06 303.36 70.00 308.34 66.64
  C 312.80 63.63 313.98 57.05 309.52 53.50
  Q 307.50 51.90 304.37 50.95
  A 0.17 0.17 0.0 0 1 304.36 50.63
  Z"
/>
<path fill="#5c0101" d="
  M 85.86 13.18
  L 82.08 22.50
  Q 81.89 22.96 82.01 23.45
  C 82.96 27.15 81.06 28.97 80.16 31.66
  Q 77.83 38.68 76.26 41.03
  C 72.94 46.00 70.67 52.18 67.41 56.34
  Q 61.61 63.74 53.31 69.24
  Q 51.54 66.86 48.24 65.11
  Q 48.15 62.96 50.05 61.51
  Q 56.97 56.25 61.34 50.62
  A 0.50 0.50 0.0 0 0 61.12 49.84
  Q 59.81 49.37 59.08 48.21
  Q 58.84 47.83 58.47 47.57
  L 51.89 43.17
  A 0.51 0.51 0.0 0 1 51.84 42.36
  L 54.77 39.77
  C 58.50 37.56 62.88 36.15 66.09 33.92
  Q 72.11 29.76 76.85 23.75
  Q 74.56 29.85 71.37 35.16
  L 67.35 42.02
  Q 67.10 42.45 67.52 42.72
  C 68.31 43.21 71.69 37.04 72.68 35.25
  Q 77.62 27.08 81.64 17.60
  Q 82.93 16.46 82.06 14.64
  Q 83.90 13.20 85.86 13.18
  Z"
/>
<path fill="#c10300" d="
  M 85.86 13.18
  Q 88.59 13.45 90.64 16.00
  Q 88.64 17.52 88.30 17.47
  A 2.58 2.58 0.0 0 0 85.36 19.61
  C 84.71 23.63 83.07 27.42 82.56 31.15
  C 80.87 43.37 80.15 52.61 74.66 62.29
  Q 74.43 62.70 73.96 62.74
  C 73.51 62.77 70.62 66.86 70.12 67.43
  C 67.80 70.05 63.98 71.06 61.22 73.98
  L 57.79 76.54
  L 53.31 69.24
  Q 61.61 63.74 67.41 56.34
  C 70.67 52.18 72.94 46.00 76.26 41.03
  Q 77.83 38.68 80.16 31.66
  C 81.06 28.97 82.96 27.15 82.01 23.45
  Q 81.89 22.96 82.08 22.50
  L 85.86 13.18
  Z"
/>
<path fill="#0f9890" d="
  M 82.06 14.64
  Q 82.93 16.46 81.64 17.60
  Q 78.87 18.06 76.85 23.75
  Q 72.11 29.76 66.09 33.92
  C 62.88 36.15 58.50 37.56 54.77 39.77
  Q 54.18 39.78 53.52 39.17
  C 56.20 36.66 58.00 35.26 61.85 34.00
  C 70.27 31.25 76.58 21.25 82.06 14.64
  Z"
/>
<path fill="#fd1500" d="
  M 90.64 16.00
  C 97.36 25.30 100.84 36.66 105.24 48.07
  C 108.41 56.27 111.89 63.47 115.84 70.96
  Q 116.29 71.80 115.50 71.26
  L 102.84 62.64
  Q 99.08 57.99 97.95 53.51
  C 97.60 52.12 95.63 42.16 95.15 41.94
  A 0.67 0.64 10.1 0 1 94.77 41.42
  Q 94.18 36.64 92.37 32.18
  Q 92.17 31.68 92.22 31.15
  Q 92.58 27.83 90.94 24.96
  L 88.43 20.15
  A 1.01 1.01 0.0 0 0 86.52 20.58
  Q 86.45 22.39 85.28 23.66
  Q 84.91 24.05 84.88 24.57
  L 83.69 44.01
  L 83.18 35.04
  Q 83.12 34.03 82.94 35.02
  Q 81.25 44.52 79.58 54.00
  C 78.80 58.39 76.33 61.79 74.05 65.46
  C 71.66 69.31 65.22 72.02 61.22 73.98
  C 63.98 71.06 67.80 70.05 70.12 67.43
  C 70.62 66.86 73.51 62.77 73.96 62.74
  Q 74.43 62.70 74.66 62.29
  C 80.15 52.61 80.87 43.37 82.56 31.15
  C 83.07 27.42 84.71 23.63 85.36 19.61
  A 2.58 2.58 0.0 0 1 88.30 17.47
  Q 88.64 17.52 90.64 16.00
  Z"
/>
<path fill="#01bfbe" d="
  M 81.64 17.60
  Q 77.62 27.08 72.68 35.25
  Q 72.15 35.53 71.37 35.16
  Q 74.56 29.85 76.85 23.75
  Q 78.87 18.06 81.64 17.60
  Z"
/>
<path fill="#ff8600" d="
  M 90.94 24.96
  C 91.18 26.93 92.80 43.56 93.06 43.80
  Q 93.44 44.15 93.45 44.67
  Q 93.67 54.02 95.25 63.22
  C 88.18 67.03 82.29 73.98 77.63 78.32
  Q 72.03 76.44 66.58 77.86
  C 64.92 78.29 63.80 79.49 62.50 80.56
  A 0.94 0.94 0.0 0 0 62.19 81.49
  Q 62.77 83.81 65.52 86.29
  L 63.74 86.83
  Q 63.20 86.99 62.94 86.49
  L 59.77 80.19
  C 62.42 77.81 64.62 75.83 68.15 74.73
  C 76.91 72.01 81.05 72.29 82.99 61.92
  C 84.04 56.32 83.65 49.73 83.69 44.01
  L 84.88 24.57
  Q 84.91 24.05 85.28 23.66
  Q 86.45 22.39 86.52 20.58
  A 1.01 1.01 0.0 0 1 88.43 20.15
  L 90.94 24.96
  Z
  M 88.77 23.73
  Q 88.72 22.68 87.76 22.26
  A 0.89 0.88 -74.8 0 0 86.52 22.98
  Q 85.62 30.53 87.62 37.80
  A 1.56 1.55 -9.0 0 0 89.20 38.94
  C 91.48 38.82 89.61 24.15 88.99 24.00
  Q 88.78 23.94 88.77 23.73
  Z"
/>
<path fill="#ffdb01" d="
  M 88.99 24.00
  C 89.61 24.15 91.48 38.82 89.20 38.94
  A 1.56 1.55 -9.0 0 1 87.62 37.80
  Q 85.62 30.53 86.52 22.98
  A 0.89 0.88 -74.8 0 1 87.76 22.26
  Q 88.72 22.68 88.77 23.73
  Q 88.78 23.94 88.99 24.00
  Z"
/>
<path fill="#ff6500" d="
  M 90.94 24.96
  Q 92.58 27.83 92.22 31.15
  Q 92.17 31.68 92.37 32.18
  Q 94.18 36.64 94.77 41.42
  A 0.67 0.64 10.1 0 0 95.15 41.94
  C 95.63 42.16 97.60 52.12 97.95 53.51
  Q 99.08 57.99 102.84 62.64
  Q 98.05 62.13 95.25 63.22
  Q 93.67 54.02 93.45 44.67
  Q 93.44 44.15 93.06 43.80
  C 92.80 43.56 91.18 26.93 90.94 24.96
  Z"
/>
<path fill="#000000" d="
  M 133.59 38.49
  Q 133.15 50.09 132.88 61.93
  Q 132.75 67.46 138.22 67.87
  A 0.66 0.65 -67.2 0 1 138.66 68.96
  C 138.04 69.66 127.26 69.09 125.54 69.00
  Q 125.21 68.99 125.25 68.66
  L 125.29 68.35
  Q 125.32 68.13 125.55 68.10
  Q 130.11 67.46 130.51 63.25
  Q 131.86 49.03 131.97 36.74
  Q 132.01 32.09 127.29 32.07
  Q 126.96 32.07 126.79 31.79
  L 126.59 31.46
  A 0.37 0.37 0.0 0 1 126.91 30.90
  L 134.75 30.85
  Q 135.47 30.84 135.77 31.49
  L 149.62 60.73
  A 0.28 0.28 0.0 0 0 150.13 60.73
  L 163.94 31.20
  A 0.79 0.78 12.4 0 1 164.65 30.75
  L 172.70 30.75
  Q 173.25 30.75 173.08 31.27
  L 172.95 31.65
  Q 172.84 31.97 172.50 31.96
  Q 167.56 31.85 167.70 36.49
  Q 168.13 50.63 168.48 64.74
  Q 168.52 66.28 170.49 67.14
  Q 175.94 69.54 178.10 64.19
  Q 183.76 50.15 189.35 35.91
  A 0.48 0.48 0.0 0 1 190.24 35.91
  Q 195.59 50.21 201.17 64.68
  C 201.95 66.71 203.49 67.52 205.40 68.16
  A 0.60 0.59 -34.8 0 1 205.19 69.32
  L 194.20 68.97
  A 0.39 0.39 0.0 0 1 194.08 68.22
  L 196.07 67.50
  A 1.60 1.59 -20.1 0 0 197.02 65.46
  L 193.85 56.73
  A 0.69 0.67 80.3 0 0 193.21 56.27
  L 183.50 56.24
  A 0.78 0.77 7.9 0 0 182.75 56.80
  L 180.37 64.96
  A 2.00 2.00 0.0 0 0 181.49 67.35
  L 183.77 68.34
  A 0.40 0.40 0.0 0 1 183.61 69.11
  L 158.91 69.00
  Q 158.32 68.99 158.63 68.48
  L 158.78 68.23
  A 0.70 0.70 0.0 0 1 159.40 67.89
  C 162.55 68.02 163.46 66.19 163.48 63.27
  Q 163.56 51.04 163.43 37.73
  Q 163.41 35.84 162.62 37.56
  L 148.50 68.23
  A 0.44 0.44 0.0 0 1 147.70 68.22
  L 134.14 38.38
  A 0.29 0.29 0.0 0 0 133.59 38.49
  Z
  M 183.71 54.28
  A 0.35 0.35 0.0 0 0 184.03 54.75
  L 192.57 54.75
  A 0.35 0.35 0.0 0 0 192.89 54.28
  L 188.63 42.88
  A 0.35 0.35 0.0 0 0 187.97 42.88
  L 183.71 54.28
  Z"
/>
<path fill="#ff6500" d="
  M 83.69 44.01
  C 83.65 49.73 84.04 56.32 82.99 61.92
  C 81.05 72.29 76.91 72.01 68.15 74.73
  C 64.62 75.83 62.42 77.81 59.77 80.19
  L 57.79 76.54
  L 61.22 73.98
  C 65.22 72.02 71.66 69.31 74.05 65.46
  C 76.33 61.79 78.80 58.39 79.58 54.00
  Q 81.25 44.52 82.94 35.02
  Q 83.12 34.03 83.18 35.04
  L 83.69 44.01
  Z"
/>
<path fill="#7e463d" d="
  M 71.37 35.16
  Q 72.15 35.53 72.68 35.25
  C 71.69 37.04 68.31 43.21 67.52 42.72
  Q 67.10 42.45 67.35 42.02
  L 71.37 35.16
  Z"
/>
<path fill="#000000" d="
  M 217.86 67.35
  L 221.46 68.36
  A 0.45 0.45 0.0 0 1 221.34 69.25
  L 207.74 69.25
  A 0.46 0.46 0.0 0 1 207.38 68.50
  C 208.86 66.70 212.11 69.01 212.14 64.25
  Q 212.25 51.28 212.27 38.31
  Q 212.27 37.82 211.79 37.72
  Q 203.48 35.94 201.42 43.61
  A 0.48 0.48 0.0 0 1 200.47 43.45
  L 201.08 35.59
  Q 201.13 34.97 201.65 35.31
  L 202.80 36.03
  A 1.44 1.42 60.7 0 0 203.56 36.25
  L 225.61 36.25
  Q 226.04 36.25 226.36 35.96
  L 226.95 35.43
  A 0.58 0.58 0.0 0 1 227.92 35.84
  L 228.29 43.53
  Q 228.34 44.57 227.69 43.75
  C 226.17 41.84 226.41 38.80 223.71 38.05
  Q 220.41 37.13 216.98 37.60
  Q 216.34 37.68 216.34 38.33
  L 216.35 65.36
  A 2.07 2.06 -82.2 0 0 217.86 67.35
  Z"
/>
<path fill="#000000" d="
  M 273.11 56.29
  L 263.41 56.24
  A 0.80 0.79 7.9 0 0 262.63 56.82
  L 260.03 65.98
  A 0.89 0.89 0.0 0 0 260.55 67.04
  L 263.65 68.32
  A 0.36 0.36 0.0 0 1 263.53 69.01
  L 253.71 69.21
  A 0.49 0.49 0.0 0 1 253.58 68.25
  C 257.51 67.18 258.03 64.63 259.67 60.42
  Q 264.39 48.27 269.18 36.01
  A 0.54 0.53 -44.8 0 1 270.18 36.01
  Q 275.39 49.72 280.67 63.72
  C 281.59 66.14 282.65 67.57 285.16 67.98
  A 0.52 0.52 0.0 0 1 285.08 69.02
  L 274.14 68.99
  A 0.36 0.36 0.0 0 1 274.00 68.30
  L 276.77 67.15
  A 0.71 0.70 -21.3 0 0 277.16 66.27
  L 273.81 56.79
  Q 273.63 56.29 273.11 56.29
  Z
  M 263.64 54.36
  A 0.30 0.30 0.0 0 0 263.93 54.76
  L 272.55 54.75
  A 0.30 0.30 0.0 0 0 272.83 54.34
  L 268.50 42.83
  A 0.30 0.30 0.0 0 0 267.94 42.83
  L 263.64 54.36
  Z"
/>
<path fill="#000000" d="
  M 241.07 67.63
  Q 250.34 69.22 252.72 60.95
  A 0.50 0.50 0.0 0 1 253.69 61.20
  L 252.17 68.46
  A 0.88 0.88 0.0 0 1 251.32 69.15
  L 230.23 69.22
  Q 229.41 69.23 229.82 68.52
  C 230.60 67.15 234.19 68.34 234.22 64.69
  Q 234.30 52.97 234.17 41.26
  C 234.12 36.83 230.05 37.71 229.88 36.68
  Q 229.81 36.25 230.25 36.25
  L 242.67 36.25
  A 0.38 0.38 0.0 0 1 242.95 36.89
  C 241.54 38.50 238.29 36.57 238.24 41.18
  Q 238.11 54.84 238.32 64.43
  Q 238.38 67.17 241.07 67.63
  Z"
/>
<path fill="#000000" d="
  M 304.36 50.63
  A 0.17 0.17 0.0 0 0 304.37 50.95
  Q 307.50 51.90 309.52 53.50
  C 313.98 57.05 312.80 63.63 308.34 66.64
  C 303.36 70.00 293.42 69.06 287.57 69.10
  A 0.43 0.43 0.0 0 1 287.45 68.26
  C 289.97 67.58 291.29 67.24 291.36 64.23
  Q 291.54 56.47 291.42 41.51
  Q 291.39 37.40 287.56 37.23
  Q 287.12 37.21 287.24 36.78
  Q 287.29 36.63 287.34 36.49
  Q 287.41 36.33 287.59 36.32
  Q 297.05 35.95 303.44 36.55
  C 312.22 37.38 312.38 47.69 304.36 50.63
  Z
  M 295.49 38.36
  L 295.51 49.82
  A 0.85 0.85 0.0 0 0 296.36 50.67
  L 299.47 50.66
  A 6.30 6.16 -0.1 0 0 305.76 44.49
  L 305.76 43.65
  A 6.30 6.16 -0.1 0 0 299.45 37.50
  L 296.34 37.51
  A 0.85 0.85 0.0 0 0 295.49 38.36
  Z
  M 299.48 67.66
  C 311.81 67.51 309.81 49.87 295.99 51.93
  Q 295.51 52.00 295.51 52.48
  Q 295.48 57.95 295.50 63.41
  C 295.51 66.56 296.24 67.70 299.48 67.66
  Z"
/>
<path fill="#ffffff" d="
  M 295.49 38.36
  A 0.85 0.85 0.0 0 1 296.34 37.51
  L 299.45 37.50
  A 6.30 6.16 -0.1 0 1 305.76 43.65
  L 305.76 44.49
  A 6.30 6.16 -0.1 0 1 299.47 50.66
  L 296.36 50.67
  A 0.85 0.85 0.0 0 1 295.51 49.82
  L 295.49 38.36
  Z"
/>
<path fill="#7e463d" d="
  M 53.52 39.17
  Q 54.18 39.78 54.77 39.77
  L 51.84 42.36
  A 0.51 0.51 0.0 0 0 51.89 43.17
  L 58.47 47.57
  Q 58.84 47.83 59.08 48.21
  Q 59.81 49.37 61.12 49.84
  A 0.50 0.50 0.0 0 1 61.34 50.62
  Q 56.97 56.25 50.05 61.51
  Q 48.15 62.96 48.24 65.11
  L 43.50 65.23
  Q 42.81 63.42 43.50 60.00
  Q 44.47 55.17 42.52 45.41
  Q 45.39 44.40 48.37 43.28
  C 50.65 42.42 51.80 40.79 53.52 39.17
  Z"
/>
<path fill="#ffffff" d="
  M 263.64 54.36
  L 267.94 42.83
  A 0.30 0.30 0.0 0 1 268.50 42.83
  L 272.83 54.34
  A 0.30 0.30 0.0 0 1 272.55 54.75
  L 263.93 54.76
  A 0.30 0.30 0.0 0 1 263.64 54.36
  Z"
/>
<path fill="#ffffff" d="
  M 183.71 54.28
  L 187.97 42.88
  A 0.35 0.35 0.0 0 1 188.63 42.88
  L 192.89 54.28
  A 0.35 0.35 0.0 0 1 192.57 54.75
  L 184.03 54.75
  A 0.35 0.35 0.0 0 1 183.71 54.28
  Z"
/>
<path fill="#0f9890" d="
  M 42.52 45.41
  Q 44.47 55.17 43.50 60.00
  Q 42.81 63.42 43.50 65.23
  C 41.86 65.94 36.25 61.33 34.66 60.16
  Q 37.78 53.85 39.12 46.57
  L 42.52 45.41
  Z"
/>
<path fill="#01bfbe" d="
  M 39.12 46.57
  Q 37.78 53.85 34.66 60.16
  L 23.59 52.51
  A 0.26 0.26 0.0 0 1 23.66 52.05
  L 39.12 46.57
  Z"
/>
<path fill="#ffffff" d="
  M 295.99 51.93
  C 309.81 49.87 311.81 67.51 299.48 67.66
  C 296.24 67.70 295.51 66.56 295.50 63.41
  Q 295.48 57.95 295.51 52.48
  Q 295.51 52.00 295.99 51.93
  Z"
/>
<path fill="#ffdb01" d="
  M 77.63 78.32
  Q 72.03 83.78 65.52 86.29
  Q 62.77 83.81 62.19 81.49
  A 0.94 0.94 0.0 0 1 62.50 80.56
  C 63.80 79.49 64.92 78.29 66.58 77.86
  Q 72.03 76.44 77.63 78.32
  Z"
/>
</svg>
