<?xml version="1.0" encoding="UTF-8" standalone="no"?>
<!DOCTYPE svg PUBLIC "-//W3C//DTD SVG 1.1//EN" "http://www.w3.org/Graphics/SVG/1.1/DTD/svg11.dtd">
<svg xmlns="http://www.w3.org/2000/svg" version="1.1" viewBox="0.00 0.00 350.00 100.00">
<g stroke-width="2.00" fill="none" stroke-linecap="butt">
<path stroke="#507fa4" vector-effect="non-scaling-stroke" d="
  M 56.59 0.00
  C 51.85 0.61 43.35 3.96 43.46 9.27
  Q 43.58 15.07 43.39 21.13
  A 0.60 0.60 0.0 0 0 43.99 21.75
  L 67.40 21.75
  Q 68.05 21.75 68.02 22.40
  L 67.94 24.65
  Q 67.92 25.24 67.33 25.24
  Q 51.31 25.28 35.24 25.23
  C 26.99 25.21 21.02 28.82 18.75 37.01
  C 16.14 46.46 15.65 65.42 25.20 72.03
  C 29.25 74.83 34.84 74.51 39.71 74.17
  Q 40.26 74.14 40.25 73.59
  C 40.20 63.65 38.19 50.48 51.33 48.23
  C 58.84 46.94 67.82 47.79 75.51 47.73
  C 85.12 47.65 92.55 45.15 92.52 34.26
  Q 92.49 24.33 92.50 14.39
  C 92.52 5.05 86.88 1.64 78.55 0.00"
/>
<path stroke="#35444f" vector-effect="non-scaling-stroke" d="
  M 234.72 37.24
  L 234.69 17.25
  A 0.95 0.95 0.0 0 0 233.14 16.51
  Q 231.95 17.48 230.42 17.54
  A 2.00 2.00 0.0 0 0 228.50 19.54
  L 228.50 66.04
  Q 228.50 66.77 229.23 66.75
  L 233.98 66.66
  Q 234.65 66.65 234.66 65.97
  L 234.79 43.67
  Q 234.79 43.20 235.12 42.88
  Q 239.07 38.98 244.64 39.51
  Q 245.11 39.55 245.47 39.85
  Q 248.57 42.37 248.53 46.01
  Q 248.43 56.02 248.53 66.09
  Q 248.54 66.71 249.16 66.71
  L 254.09 66.71
  Q 254.70 66.71 254.70 66.10
  C 254.75 59.24 256.20 44.63 253.30 39.16
  C 249.81 32.57 240.72 33.82 235.09 37.44
  Q 234.72 37.68 234.72 37.24"
/>
<path stroke="#b4ac70" vector-effect="non-scaling-stroke" d="
  M 67.77 76.36
  L 67.74 74.09
  Q 67.74 73.51 68.32 73.51
  Q 84.07 73.48 99.87 73.51
  Q 105.53 73.52 108.46 72.19
  C 120.10 66.92 119.92 48.31 117.55 37.98
  C 114.70 25.57 107.68 24.07 96.28 24.58
  A 0.55 0.55 0.0 0 0 95.75 25.13
  C 95.76 38.45 97.30 51.00 79.82 50.73
  Q 61.93 50.45 55.08 51.05
  C 46.48 51.80 43.48 58.05 43.49 66.05
  C 43.50 71.76 42.14 86.48 44.51 91.07
  C 50.24 102.21 84.80 102.58 91.22 92.48
  C 93.41 89.06 92.53 81.88 92.48 77.68
  Q 92.48 77.00 91.79 77.00
  L 68.42 77.00
  A 0.65 0.65 0.0 0 1 67.77 76.36"
/>
<path stroke="#35444f" vector-effect="non-scaling-stroke" d="
  M 217.50 34.00
  L 217.50 25.19
  Q 217.50 24.54 216.85 24.53
  C 209.96 24.48 211.74 29.49 211.42 34.18
  Q 211.39 34.70 210.89 34.57
  C 206.54 33.52 206.09 40.17 210.91 39.48
  Q 211.47 39.40 211.48 39.98
  Q 211.56 49.10 211.47 58.34
  C 211.40 65.15 216.13 68.39 222.88 67.29
  Q 223.50 67.19 223.50 66.56
  L 223.50 64.08
  A 0.54 0.54 0.0 0 0 222.98 63.54
  Q 217.48 63.37 217.47 57.74
  Q 217.45 48.89 217.53 39.98
  Q 217.53 39.50 218.02 39.50
  L 222.88 39.50
  Q 223.50 39.50 223.50 38.87
  L 223.50 35.12
  Q 223.50 34.50 222.87 34.50
  L 218.00 34.50
  Q 217.50 34.50 217.50 34.00"
/>
<path stroke="#35444f" vector-effect="non-scaling-stroke" d="
  M 150.32 65.42
  Q 156.12 68.82 161.51 67.31
  C 172.40 64.27 173.41 49.95 169.59 41.33
  C 165.23 31.49 150.22 32.28 143.82 39.66
  Q 143.50 40.02 143.50 40.51
  L 143.50 80.40
  Q 143.50 80.79 143.81 81.03
  Q 145.77 82.51 148.19 82.70
  A 1.45 1.44 2.2 0 0 149.75 81.26
  L 149.75 65.74
  Q 149.75 65.08 150.32 65.42"
/>
<path stroke="#35444f" vector-effect="non-scaling-stroke" d="
  M 277.68 66.95
  C 293.12 62.37 291.71 33.10 271.49 34.17
  C 251.75 35.21 255.10 73.66 277.68 66.95"
/>
<path stroke="#35444f" vector-effect="non-scaling-stroke" d="
  M 317.52 66.10
  C 317.40 58.07 318.04 50.54 317.57 42.73
  C 316.79 29.66 298.73 34.03 292.49 38.98
  A 2.60 2.60 0.0 0 0 291.50 41.02
  L 291.50 65.96
  Q 291.50 66.66 292.20 66.68
  L 296.59 66.78
  A 1.13 1.13 0.0 0 0 297.75 65.65
  L 297.75 41.56
  Q 297.75 41.10 298.12 40.84
  C 303.71 36.92 311.59 38.06 311.53 45.85
  Q 311.45 55.91 311.52 66.04
  Q 311.52 66.69 312.17 66.69
  L 316.89 66.74
  Q 317.53 66.75 317.52 66.10"
/>
<path stroke="#35444f" vector-effect="non-scaling-stroke" d="
  M 201.79 34.51
  L 197.92 34.56
  Q 197.28 34.57 197.28 35.21
  Q 197.27 46.70 197.01 58.18
  C 196.88 63.98 182.39 64.93 182.47 56.75
  Q 182.57 45.95 182.47 35.08
  Q 182.46 34.55 181.93 34.50
  Q 179.12 34.27 176.74 35.79
  Q 176.30 36.07 176.30 36.59
  Q 176.12 47.61 176.36 58.65
  C 176.59 69.06 190.28 68.58 196.70 65.57
  A 0.58 0.58 0.0 0 1 197.52 66.13
  C 196.88 75.37 193.83 77.68 184.94 78.58
  Q 184.41 78.64 184.45 79.17
  L 184.64 81.98
  Q 184.68 82.52 185.22 82.58
  C 197.74 83.96 203.06 76.59 203.35 65.11
  Q 203.72 50.39 203.41 36.07
  A 1.60 1.60 0.0 0 0 201.79 34.51"
/>
<path stroke="#507fa4" vector-effect="non-scaling-stroke" d="
  M 58.33 11.20
  A 4.33 4.33 0.0 0 0 54.00 6.87
  A 4.33 4.33 0.0 0 0 49.67 11.20
  A 4.33 4.33 0.0 0 0 54.00 15.53
  A 4.33 4.33 0.0 0 0 58.33 11.20"
/>
<path stroke="#b4ac70" vector-effect="non-scaling-stroke" d="
  M 86.25 87.50
  A 4.34 4.34 0.0 0 0 81.91 83.16
  A 4.34 4.34 0.0 0 0 77.57 87.50
  A 4.34 4.34 0.0 0 0 81.91 91.84
  A 4.34 4.34 0.0 0 0 86.25 87.50"
/>
<path stroke="#35444f" vector-effect="non-scaling-stroke" d="
  M 164.03 56.04
  C 166.05 46.90 163.31 33.08 150.19 40.72
  Q 149.76 40.98 149.76 41.47
  L 149.74 59.60
  Q 149.74 60.09 150.16 60.34
  C 156.11 63.90 162.27 63.98 164.03 56.04"
/>
<path stroke="#35444f" vector-effect="non-scaling-stroke" d="
  M 277.33 61.86
  C 284.10 56.70 282.26 34.43 270.54 39.44
  C 260.22 43.85 266.30 70.25 277.33 61.86"
/>
</g>
<path fill="#69879e" d="
  M 0.00 0.00
  L 56.59 0.00
  C 51.85 0.61 43.35 3.96 43.46 9.27
  Q 43.58 15.07 43.39 21.13
  A 0.60 0.60 0.0 0 0 43.99 21.75
  L 67.40 21.75
  Q 68.05 21.75 68.02 22.40
  L 67.94 24.65
  Q 67.92 25.24 67.33 25.24
  Q 51.31 25.28 35.24 25.23
  C 26.99 25.21 21.02 28.82 18.75 37.01
  C 16.14 46.46 15.65 65.42 25.20 72.03
  C 29.25 74.83 34.84 74.51 39.71 74.17
  Q 40.26 74.14 40.25 73.59
  C 40.20 63.65 38.19 50.48 51.33 48.23
  C 58.84 46.94 67.82 47.79 75.51 47.73
  C 85.12 47.65 92.55 45.15 92.52 34.26
  Q 92.49 24.33 92.50 14.39
  C 92.52 5.05 86.88 1.64 78.55 0.00
  L 350.00 0.00
  L 350.00 100.00
  L 0.00 100.00
  L 0.00 0.00
  Z
  M 234.72 37.24
  L 234.69 17.25
  A 0.95 0.95 0.0 0 0 233.14 16.51
  Q 231.95 17.48 230.42 17.54
  A 2.00 2.00 0.0 0 0 228.50 19.54
  L 228.50 66.04
  Q 228.50 66.77 229.23 66.75
  L 233.98 66.66
  Q 234.65 66.65 234.66 65.97
  L 234.79 43.67
  Q 234.79 43.20 235.12 42.88
  Q 239.07 38.98 244.64 39.51
  Q 245.11 39.55 245.47 39.85
  Q 248.57 42.37 248.53 46.01
  Q 248.43 56.02 248.53 66.09
  Q 248.54 66.71 249.16 66.71
  L 254.09 66.71
  Q 254.70 66.71 254.70 66.10
  C 254.75 59.24 256.20 44.63 253.30 39.16
  C 249.81 32.57 240.72 33.82 235.09 37.44
  Q 234.72 37.68 234.72 37.24
  Z
  M 67.77 76.36
  L 67.74 74.09
  Q 67.74 73.51 68.32 73.51
  Q 84.07 73.48 99.87 73.51
  Q 105.53 73.52 108.46 72.19
  C 120.10 66.92 119.92 48.31 117.55 37.98
  C 114.70 25.57 107.68 24.07 96.28 24.58
  A 0.55 0.55 0.0 0 0 95.75 25.13
  C 95.76 38.45 97.30 51.00 79.82 50.73
  Q 61.93 50.45 55.08 51.05
  C 46.48 51.80 43.48 58.05 43.49 66.05
  C 43.50 71.76 42.14 86.48 44.51 91.07
  C 50.24 102.21 84.80 102.58 91.22 92.48
  C 93.41 89.06 92.53 81.88 92.48 77.68
  Q 92.48 77.00 91.79 77.00
  L 68.42 77.00
  A 0.65 0.65 0.0 0 1 67.77 76.36
  Z
  M 217.50 34.00
  L 217.50 25.19
  Q 217.50 24.54 216.85 24.53
  C 209.96 24.48 211.74 29.49 211.42 34.18
  Q 211.39 34.70 210.89 34.57
  C 206.54 33.52 206.09 40.17 210.91 39.48
  Q 211.47 39.40 211.48 39.98
  Q 211.56 49.10 211.47 58.34
  C 211.40 65.15 216.13 68.39 222.88 67.29
  Q 223.50 67.19 223.50 66.56
  L 223.50 64.08
  A 0.54 0.54 0.0 0 0 222.98 63.54
  Q 217.48 63.37 217.47 57.74
  Q 217.45 48.89 217.53 39.98
  Q 217.53 39.50 218.02 39.50
  L 222.88 39.50
  Q 223.50 39.50 223.50 38.87
  L 223.50 35.12
  Q 223.50 34.50 222.87 34.50
  L 218.00 34.50
  Q 217.50 34.50 217.50 34.00
  Z
  M 150.32 65.42
  Q 156.12 68.82 161.51 67.31
  C 172.40 64.27 173.41 49.95 169.59 41.33
  C 165.23 31.49 150.22 32.28 143.82 39.66
  Q 143.50 40.02 143.50 40.51
  L 143.50 80.40
  Q 143.50 80.79 143.81 81.03
  Q 145.77 82.51 148.19 82.70
  A 1.45 1.44 2.2 0 0 149.75 81.26
  L 149.75 65.74
  Q 149.75 65.08 150.32 65.42
  Z
  M 277.68 66.95
  C 293.12 62.37 291.71 33.10 271.49 34.17
  C 251.75 35.21 255.10 73.66 277.68 66.95
  Z
  M 317.52 66.10
  C 317.40 58.07 318.04 50.54 317.57 42.73
  C 316.79 29.66 298.73 34.03 292.49 38.98
  A 2.60 2.60 0.0 0 0 291.50 41.02
  L 291.50 65.96
  Q 291.50 66.66 292.20 66.68
  L 296.59 66.78
  A 1.13 1.13 0.0 0 0 297.75 65.65
  L 297.75 41.56
  Q 297.75 41.10 298.12 40.84
  C 303.71 36.92 311.59 38.06 311.53 45.85
  Q 311.45 55.91 311.52 66.04
  Q 311.52 66.69 312.17 66.69
  L 316.89 66.74
  Q 317.53 66.75 317.52 66.10
  Z
  M 201.79 34.51
  L 197.92 34.56
  Q 197.28 34.57 197.28 35.21
  Q 197.27 46.70 197.01 58.18
  C 196.88 63.98 182.39 64.93 182.47 56.75
  Q 182.57 45.95 182.47 35.08
  Q 182.46 34.55 181.93 34.50
  Q 179.12 34.27 176.74 35.79
  Q 176.30 36.07 176.30 36.59
  Q 176.12 47.61 176.36 58.65
  C 176.59 69.06 190.28 68.58 196.70 65.57
  A 0.58 0.58 0.0 0 1 197.52 66.13
  C 196.88 75.37 193.83 77.68 184.94 78.58
  Q 184.41 78.64 184.45 79.17
  L 184.64 81.98
  Q 184.68 82.52 185.22 82.58
  C 197.74 83.96 203.06 76.59 203.35 65.11
  Q 203.72 50.39 203.41 36.07
  A 1.60 1.60 0.0 0 0 201.79 34.51
  Z"
/>
<path fill="#3776aa" d="
  M 56.59 0.00
  L 78.55 0.00
  C 86.88 1.64 92.52 5.05 92.50 14.39
  Q 92.49 24.33 92.52 34.26
  C 92.55 45.15 85.12 47.65 75.51 47.73
  C 67.82 47.79 58.84 46.94 51.33 48.23
  C 38.19 50.48 40.20 63.65 40.25 73.59
  Q 40.26 74.14 39.71 74.17
  C 34.84 74.51 29.25 74.83 25.20 72.03
  C 15.65 65.42 16.14 46.46 18.75 37.01
  C 21.02 28.82 26.99 25.21 35.24 25.23
  Q 51.31 25.28 67.33 25.24
  Q 67.92 25.24 67.94 24.65
  L 68.02 22.40
  Q 68.05 21.75 67.40 21.75
  L 43.99 21.75
  A 0.60 0.60 0.0 0 1 43.39 21.13
  Q 43.58 15.07 43.46 9.27
  C 43.35 3.96 51.85 0.61 56.59 0.00
  Z
  M 58.33 11.20
  A 4.33 4.33 0.0 0 0 54.00 6.87
  A 4.33 4.33 0.0 0 0 49.67 11.20
  A 4.33 4.33 0.0 0 0 54.00 15.53
  A 4.33 4.33 0.0 0 0 58.33 11.20
  Z"
/>
<circle fill="#69879e" cx="54.00" cy="11.20" r="4.33"/>
<path fill="#000000" d="
  M 235.09 37.44
  C 240.72 33.82 249.81 32.57 253.30 39.16
  C 256.20 44.63 254.75 59.24 254.70 66.10
  Q 254.70 66.71 254.09 66.71
  L 249.16 66.71
  Q 248.54 66.71 248.53 66.09
  Q 248.43 56.02 248.53 46.01
  Q 248.57 42.37 245.47 39.85
  Q 245.11 39.55 244.64 39.51
  Q 239.07 38.98 235.12 42.88
  Q 234.79 43.20 234.79 43.67
  L 234.66 65.97
  Q 234.65 66.65 233.98 66.66
  L 229.23 66.75
  Q 228.50 66.77 228.50 66.04
  L 228.50 19.54
  A 2.00 2.00 0.0 0 1 230.42 17.54
  Q 231.95 17.48 233.14 16.51
  A 0.95 0.95 0.0 0 1 234.69 17.25
  L 234.72 37.24
  Q 234.72 37.68 235.09 37.44
  Z"
/>
<path fill="#ffd141" d="
  M 68.42 77.00
  L 91.79 77.00
  Q 92.48 77.00 92.48 77.68
  C 92.53 81.88 93.41 89.06 91.22 92.48
  C 84.80 102.58 50.24 102.21 44.51 91.07
  C 42.14 86.48 43.50 71.76 43.49 66.05
  C 43.48 58.05 46.48 51.80 55.08 51.05
  Q 61.93 50.45 79.82 50.73
  C 97.30 51.00 95.76 38.45 95.75 25.13
  A 0.55 0.55 0.0 0 1 96.28 24.58
  C 107.68 24.07 114.70 25.57 117.55 37.98
  C 119.92 48.31 120.10 66.92 108.46 72.19
  Q 105.53 73.52 99.87 73.51
  Q 84.07 73.48 68.32 73.51
  Q 67.74 73.51 67.74 74.09
  L 67.77 76.36
  A 0.65 0.65 0.0 0 0 68.42 77.00
  Z
  M 86.25 87.50
  A 4.34 4.34 0.0 0 0 81.91 83.16
  A 4.34 4.34 0.0 0 0 77.57 87.50
  A 4.34 4.34 0.0 0 0 81.91 91.84
  A 4.34 4.34 0.0 0 0 86.25 87.50
  Z"
/>
<path fill="#000000" d="
  M 218.00 34.50
  L 222.87 34.50
  Q 223.50 34.50 223.50 35.12
  L 223.50 38.87
  Q 223.50 39.50 222.88 39.50
  L 218.02 39.50
  Q 217.53 39.50 217.53 39.98
  Q 217.45 48.89 217.47 57.74
  Q 217.48 63.37 222.98 63.54
  A 0.54 0.54 0.0 0 1 223.50 64.08
  L 223.50 66.56
  Q 223.50 67.19 222.88 67.29
  C 216.13 68.39 211.40 65.15 211.47 58.34
  Q 211.56 49.10 211.48 39.98
  Q 211.47 39.40 210.91 39.48
  C 206.09 40.17 206.54 33.52 210.89 34.57
  Q 211.39 34.70 211.42 34.18
  C 211.74 29.49 209.96 24.48 216.85 24.53
  Q 217.50 24.54 217.50 25.19
  L 217.50 34.00
  Q 217.50 34.50 218.00 34.50
  Z"
/>
<path fill="#000000" d="
  M 149.75 65.74
  L 149.75 81.26
  A 1.45 1.44 2.2 0 1 148.19 82.70
  Q 145.77 82.51 143.81 81.03
  Q 143.50 80.79 143.50 80.40
  L 143.50 40.51
  Q 143.50 40.02 143.82 39.66
  C 150.22 32.28 165.23 31.49 169.59 41.33
  C 173.41 49.95 172.40 64.27 161.51 67.31
  Q 156.12 68.82 150.32 65.42
  Q 149.75 65.08 149.75 65.74
  Z
  M 164.03 56.04
  C 166.05 46.90 163.31 33.08 150.19 40.72
  Q 149.76 40.98 149.76 41.47
  L 149.74 59.60
  Q 149.74 60.09 150.16 60.34
  C 156.11 63.90 162.27 63.98 164.03 56.04
  Z"
/>
<path fill="#000000" d="
  M 271.49 34.17
  C 291.71 33.10 293.12 62.37 277.68 66.95
  C 255.10 73.66 251.75 35.21 271.49 34.17
  Z
  M 277.33 61.86
  C 284.10 56.70 282.26 34.43 270.54 39.44
  C 260.22 43.85 266.30 70.25 277.33 61.86
  Z"
/>
<path fill="#000000" d="
  M 317.57 42.73
  C 318.04 50.54 317.40 58.07 317.52 66.10
  Q 317.53 66.75 316.89 66.74
  L 312.17 66.69
  Q 311.52 66.69 311.52 66.04
  Q 311.45 55.91 311.53 45.85
  C 311.59 38.06 303.71 36.92 298.12 40.84
  Q 297.75 41.10 297.75 41.56
  L 297.75 65.65
  A 1.13 1.13 0.0 0 1 296.59 66.78
  L 292.20 66.68
  Q 291.50 66.66 291.50 65.96
  L 291.50 41.02
  A 2.60 2.60 0.0 0 1 292.49 38.98
  C 298.73 34.03 316.79 29.66 317.57 42.73
  Z"
/>
<path fill="#000000" d="
  M 201.79 34.51
  A 1.60 1.60 0.0 0 1 203.41 36.07
  Q 203.72 50.39 203.35 65.11
  C 203.06 76.59 197.74 83.96 185.22 82.58
  Q 184.68 82.52 184.64 81.98
  L 184.45 79.17
  Q 184.41 78.64 184.94 78.58
  C 193.83 77.68 196.88 75.37 197.52 66.13
  A 0.58 0.58 0.0 0 0 196.70 65.57
  C 190.28 68.58 176.59 69.06 176.36 58.65
  Q 176.12 47.61 176.30 36.59
  Q 176.30 36.07 176.74 35.79
  Q 179.12 34.27 181.93 34.50
  Q 182.46 34.55 182.47 35.08
  Q 182.57 45.95 182.47 56.75
  C 182.39 64.93 196.88 63.98 197.01 58.18
  Q 197.27 46.70 197.28 35.21
  Q 197.28 34.57 197.92 34.56
  L 201.79 34.51
  Z"
/>
<path fill="#69879e" d="
  M 150.19 40.72
  C 163.31 33.08 166.05 46.90 164.03 56.04
  C 162.27 63.98 156.11 63.90 150.16 60.34
  Q 149.74 60.09 149.74 59.60
  L 149.76 41.47
  Q 149.76 40.98 150.19 40.72
  Z"
/>
<path fill="#69879e" d="
  M 277.33 61.86
  C 266.30 70.25 260.22 43.85 270.54 39.44
  C 282.26 34.43 284.10 56.70 277.33 61.86
  Z"
/>
<circle fill="#69879e" cx="81.91" cy="87.50" r="4.34"/>
</svg>
