<?xml version="1.0" encoding="UTF-8" standalone="no"?>
<!DOCTYPE svg PUBLIC "-//W3C//DTD SVG 1.1//EN" "http://www.w3.org/Graphics/SVG/1.1/DTD/svg11.dtd">
<svg xmlns="http://www.w3.org/2000/svg" version="1.1" viewBox="0.00 0.00 205.00 100.00">
<g stroke-width="2.00" fill="none" stroke-linecap="butt">
<path stroke="#769ac5" vector-effect="non-scaling-stroke" d="
  M 136.52 100.00
  L 121.83 75.17"
/>
<path stroke="#b0b1b6" vector-effect="non-scaling-stroke" d="
  M 121.83 75.17
  C 134.12 67.75 143.00 54.84 141.32 40.31"
/>
<path stroke="#b8b9be" vector-effect="non-scaling-stroke" d="
  M 141.32 40.31
  Q 140.42 33.40 136.78 27.71
  Q 129.66 16.61 118.72 11.00"
/>
<path stroke="#bdbfc3" vector-effect="non-scaling-stroke" d="
  M 118.72 11.00
  Q 110.17 6.22 103.12 4.34"
/>
<path stroke="#c2c4c8" vector-effect="non-scaling-stroke" d="
  M 103.12 4.34
  Q 70.94 -4.71 41.44 7.68
  C 21.66 15.98 5.67 34.79 15.12 57.18"
/>
<path stroke="#bdbfc3" vector-effect="non-scaling-stroke" d="
  M 15.12 57.18
  Q 22.50 70.47 35.47 77.31"
/>
<path stroke="#b8b9be" vector-effect="non-scaling-stroke" d="
  M 35.47 77.31
  Q 49.94 85.16 65.55 86.73"
/>
<path stroke="#769ac5" vector-effect="non-scaling-stroke" d="
  M 65.55 86.73
  L 65.48 100.00"
/>
<path stroke="#67686a" vector-effect="non-scaling-stroke" d="
  M 179.39 54.20
  A 0.33 0.33 0.0 0 1 179.47 53.58
  C 186.94 51.77 186.56 41.09 179.00 39.70
  Q 174.14 38.80 166.48 39.40
  Q 165.98 39.44 165.98 39.95
  L 166.00 65.41
  Q 166.00 66.00 166.60 66.00
  L 169.00 66.00
  Q 169.50 66.00 169.50 65.50
  L 169.50 55.26
  Q 169.50 54.86 169.90 54.77
  C 177.39 53.15 179.52 59.50 182.16 65.59
  Q 182.34 66.00 182.79 66.00
  L 185.75 66.00
  Q 186.55 66.00 186.19 65.28
  C 184.99 62.93 181.44 55.24 179.39 54.20"
/>
<path stroke="#b2b3b8" vector-effect="non-scaling-stroke" d="
  M 103.12 4.34
  Q 97.66 10.18 90.80 14.12
  C 89.68 14.77 89.10 15.57 88.36 16.57
  Q 88.11 16.91 88.51 17.06
  L 90.31 17.76"
/>
<path stroke="#c2c4c8" vector-effect="non-scaling-stroke" d="
  M 90.31 17.76
  C 72.78 16.85 42.62 23.06 37.91 44.15"
/>
<path stroke="#b2b3b8" vector-effect="non-scaling-stroke" d="
  M 37.91 44.15
  Q 36.72 43.23 34.65 44.65
  Q 25.59 50.87 16.36 56.85
  Q 16.25 56.92 16.25 56.78
  Q 16.25 56.64 16.26 56.50
  A 0.18 0.18 0.0 0 0 15.95 56.35
  L 15.12 57.18"
/>
<path stroke="#a8a8ae" vector-effect="non-scaling-stroke" d="
  M 118.72 11.00
  Q 111.19 14.71 107.97 19.84"
/>
<path stroke="#bdbfc3" vector-effect="non-scaling-stroke" d="
  M 107.97 19.84
  Q 99.79 17.96 90.31 17.76"
/>
<path stroke="#9a9aa1" vector-effect="non-scaling-stroke" d="
  M 141.32 40.31
  L 137.13 42.64
  Q 136.73 42.86 136.59 43.30
  Q 136.17 44.61 134.85 44.83
  Q 134.54 44.88 134.51 45.19
  Q 134.47 45.83 134.04 45.80"
/>
<path stroke="#b8b9be" vector-effect="non-scaling-stroke" d="
  M 134.04 45.80
  C 133.01 30.84 121.64 23.15 107.97 19.84"
/>
<path stroke="#b0b1b6" vector-effect="non-scaling-stroke" d="
  M 134.04 45.80
  Q 134.43 63.20 118.32 71.00"
/>
<path stroke="#769ac5" vector-effect="non-scaling-stroke" d="
  M 118.32 71.00
  L 111.76 68.31
  A 0.39 0.39 0.0 0 1 111.85 67.56
  Q 122.71 65.96 127.38 57.56
  C 131.16 50.77 131.04 41.78 126.30 35.48
  C 122.06 29.85 114.94 27.57 108.00 27.55
  Q 86.91 27.49 66.07 27.49
  A 0.57 0.57 0.0 0 0 65.50 28.06
  L 65.53 74.05"
/>
<path stroke="#b8b9be" vector-effect="non-scaling-stroke" d="
  M 65.53 74.05
  Q 57.15 71.64 50.09 66.89"
/>
<path stroke="#bdbfc3" vector-effect="non-scaling-stroke" d="
  M 50.09 66.89
  C 42.24 61.90 36.69 53.80 37.91 44.15"
/>
<path stroke="#597ca8" vector-effect="non-scaling-stroke" d="
  M 118.32 71.00
  L 121.83 75.17"
/>
<path stroke="#769ac5" vector-effect="non-scaling-stroke" d="
  M 111.67 100.00
  L 103.17 83.88"
/>
<path stroke="#597ca8" vector-effect="non-scaling-stroke" d="
  M 103.17 83.88
  L 98.83 76.28"
/>
<path stroke="#769ac5" vector-effect="non-scaling-stroke" d="
  M 98.83 76.28
  C 95.90 71.74 93.19 71.56 88.08 72.08
  Q 87.55 72.14 87.54 72.67
  L 87.45 76.89"
/>
<path stroke="#597ca8" vector-effect="non-scaling-stroke" d="
  M 87.45 76.89
  L 87.52 86.93"
/>
<path stroke="#769ac5" vector-effect="non-scaling-stroke" d="
  M 87.52 86.93
  L 87.57 100.00"
/>
<path stroke="#6184b0" vector-effect="non-scaling-stroke" d="
  M 65.55 86.73
  Q 66.06 80.35 65.53 74.05"
/>
<path stroke="#769ac5" vector-effect="non-scaling-stroke" d="
  M 87.74 44.15
  L 87.76 55.09
  A 0.66 0.66 0.0 0 0 88.42 55.75
  L 101.32 55.72
  A 5.96 5.67 -0.1 0 0 107.27 50.04
  L 107.27 49.12
  A 5.96 5.67 -0.1 0 0 101.30 43.46
  L 88.40 43.49
  A 0.66 0.66 0.0 0 0 87.74 44.15"
/>
<path stroke="#67686a" vector-effect="non-scaling-stroke" d="
  M 169.50 42.75
  L 169.50 50.95
  A 0.25 0.25 0.0 0 0 169.75 51.20
  L 176.37 51.20
  A 4.65 3.78 -0.0 0 0 181.02 47.42
  L 181.02 46.28
  A 4.65 3.78 0.0 0 0 176.37 42.50
  L 169.75 42.50
  A 0.25 0.25 0.0 0 0 169.50 42.75"
/>
<path stroke="#a8a8ae" vector-effect="non-scaling-stroke" d="
  M 50.09 66.89
  Q 41.91 71.08 35.47 77.31"
/>
<path stroke="#b0b1b6" vector-effect="non-scaling-stroke" d="
  M 98.83 76.28
  L 87.45 76.89"
/>
<path stroke="#b0b1b6" vector-effect="non-scaling-stroke" d="
  M 103.17 83.88
  L 87.52 86.93"
/>
</g>
<path fill="#cdcfd3" d="
  M 0.00 0.00
  L 205.00 0.00
  L 205.00 100.00
  L 136.52 100.00
  L 121.83 75.17
  C 134.12 67.75 143.00 54.84 141.32 40.31
  Q 140.42 33.40 136.78 27.71
  Q 129.66 16.61 118.72 11.00
  Q 110.17 6.22 103.12 4.34
  Q 70.94 -4.71 41.44 7.68
  C 21.66 15.98 5.67 34.79 15.12 57.18
  Q 22.50 70.47 35.47 77.31
  Q 49.94 85.16 65.55 86.73
  L 65.48 100.00
  L 0.00 100.00
  L 0.00 0.00
  Z
  M 179.39 54.20
  A 0.33 0.33 0.0 0 1 179.47 53.58
  C 186.94 51.77 186.56 41.09 179.00 39.70
  Q 174.14 38.80 166.48 39.40
  Q 165.98 39.44 165.98 39.95
  L 166.00 65.41
  Q 166.00 66.00 166.60 66.00
  L 169.00 66.00
  Q 169.50 66.00 169.50 65.50
  L 169.50 55.26
  Q 169.50 54.86 169.90 54.77
  C 177.39 53.15 179.52 59.50 182.16 65.59
  Q 182.34 66.00 182.79 66.00
  L 185.75 66.00
  Q 186.55 66.00 186.19 65.28
  C 184.99 62.93 181.44 55.24 179.39 54.20
  Z"
/>
<path fill="#b6b8bc" d="
  M 103.12 4.34
  Q 97.66 10.18 90.80 14.12
  C 89.68 14.77 89.10 15.57 88.36 16.57
  Q 88.11 16.91 88.51 17.06
  L 90.31 17.76
  C 72.78 16.85 42.62 23.06 37.91 44.15
  Q 36.72 43.23 34.65 44.65
  Q 25.59 50.87 16.36 56.85
  Q 16.25 56.92 16.25 56.78
  Q 16.25 56.64 16.26 56.50
  A 0.18 0.18 0.0 0 0 15.95 56.35
  L 15.12 57.18
  C 5.67 34.79 21.66 15.98 41.44 7.68
  Q 70.94 -4.71 103.12 4.34
  Z"
/>
<path fill="#adaeb3" d="
  M 103.12 4.34
  Q 110.17 6.22 118.72 11.00
  Q 111.19 14.71 107.97 19.84
  Q 99.79 17.96 90.31 17.76
  L 88.51 17.06
  Q 88.11 16.91 88.36 16.57
  C 89.10 15.57 89.68 14.77 90.80 14.12
  Q 97.66 10.18 103.12 4.34
  Z"
/>
<path fill="#a2a2a8" d="
  M 118.72 11.00
  Q 129.66 16.61 136.78 27.71
  Q 140.42 33.40 141.32 40.31
  L 137.13 42.64
  Q 136.73 42.86 136.59 43.30
  Q 136.17 44.61 134.85 44.83
  Q 134.54 44.88 134.51 45.19
  Q 134.47 45.83 134.04 45.80
  C 133.01 30.84 121.64 23.15 107.97 19.84
  Q 111.19 14.71 118.72 11.00
  Z"
/>
<path fill="#cdcfd3" d="
  M 90.31 17.76
  Q 99.79 17.96 107.97 19.84
  C 121.64 23.15 133.01 30.84 134.04 45.80
  Q 134.43 63.20 118.32 71.00
  L 111.76 68.31
  A 0.39 0.39 0.0 0 1 111.85 67.56
  Q 122.71 65.96 127.38 57.56
  C 131.16 50.77 131.04 41.78 126.30 35.48
  C 122.06 29.85 114.94 27.57 108.00 27.55
  Q 86.91 27.49 66.07 27.49
  A 0.57 0.57 0.0 0 0 65.50 28.06
  L 65.53 74.05
  Q 57.15 71.64 50.09 66.89
  C 42.24 61.90 36.69 53.80 37.91 44.15
  C 42.62 23.06 72.78 16.85 90.31 17.76
  Z"
/>
<path fill="#1f65b7" d="
  M 118.32 71.00
  L 121.83 75.17
  L 136.52 100.00
  L 111.67 100.00
  L 103.17 83.88
  L 98.83 76.28
  C 95.90 71.74 93.19 71.56 88.08 72.08
  Q 87.55 72.14 87.54 72.67
  L 87.45 76.89
  L 87.52 86.93
  L 87.57 100.00
  L 65.48 100.00
  L 65.55 86.73
  Q 66.06 80.35 65.53 74.05
  L 65.50 28.06
  A 0.57 0.57 0.0 0 1 66.07 27.49
  Q 86.91 27.49 108.00 27.55
  C 114.94 27.57 122.06 29.85 126.30 35.48
  C 131.04 41.78 131.16 50.77 127.38 57.56
  Q 122.71 65.96 111.85 67.56
  A 0.39 0.39 0.0 0 0 111.76 68.31
  L 118.32 71.00
  Z
  M 87.74 44.15
  L 87.76 55.09
  A 0.66 0.66 0.0 0 0 88.42 55.75
  L 101.32 55.72
  A 5.96 5.67 -0.1 0 0 107.27 50.04
  L 107.27 49.12
  A 5.96 5.67 -0.1 0 0 101.30 43.46
  L 88.40 43.49
  A 0.66 0.66 0.0 0 0 87.74 44.15
  Z"
/>
<path fill="#000000" d="
  M 179.39 54.20
  C 181.44 55.24 184.99 62.93 186.19 65.28
  Q 186.55 66.00 185.75 66.00
  L 182.79 66.00
  Q 182.34 66.00 182.16 65.59
  C 179.52 59.50 177.39 53.15 169.90 54.77
  Q 169.50 54.86 169.50 55.26
  L 169.50 65.50
  Q 169.50 66.00 169.00 66.00
  L 166.60 66.00
  Q 166.00 66.00 166.00 65.41
  L 165.98 39.95
  Q 165.98 39.44 166.48 39.40
  Q 174.14 38.80 179.00 39.70
  C 186.56 41.09 186.94 51.77 179.47 53.58
  A 0.33 0.33 0.0 0 0 179.39 54.20
  Z
  M 169.50 42.75
  L 169.50 50.95
  A 0.25 0.25 0.0 0 0 169.75 51.20
  L 176.37 51.20
  A 4.65 3.78 -0.0 0 0 181.02 47.42
  L 181.02 46.28
  A 4.65 3.78 0.0 0 0 176.37 42.50
  L 169.75 42.50
  A 0.25 0.25 0.0 0 0 169.50 42.75
  Z"
/>
<path fill="#929299" d="
  M 141.32 40.31
  C 143.00 54.84 134.12 67.75 121.83 75.17
  L 118.32 71.00
  Q 134.43 63.20 134.04 45.80
  Q 134.47 45.83 134.51 45.19
  Q 134.54 44.88 134.85 44.83
  Q 136.17 44.61 136.59 43.30
  Q 136.73 42.86 137.13 42.64
  L 141.32 40.31
  Z"
/>
<path fill="#cdcfd3" d="
  M 169.50 42.75
  A 0.25 0.25 0.0 0 1 169.75 42.50
  L 176.37 42.50
  A 4.65 3.78 0.0 0 1 181.02 46.28
  L 181.02 47.42
  A 4.65 3.78 -0.0 0 1 176.37 51.20
  L 169.75 51.20
  A 0.25 0.25 0.0 0 1 169.50 50.95
  L 169.50 42.75
  Z"
/>
<path fill="#adaeb3" d="
  M 37.91 44.15
  C 36.69 53.80 42.24 61.90 50.09 66.89
  Q 41.91 71.08 35.47 77.31
  Q 22.50 70.47 15.12 57.18
  L 15.95 56.35
  A 0.18 0.18 0.0 0 1 16.26 56.50
  Q 16.25 56.64 16.25 56.78
  Q 16.25 56.92 16.36 56.85
  Q 25.59 50.87 34.65 44.65
  Q 36.72 43.23 37.91 44.15
  Z"
/>
<path fill="#cdcfd3" d="
  M 87.74 44.15
  A 0.66 0.66 0.0 0 1 88.40 43.49
  L 101.30 43.46
  A 5.96 5.67 -0.1 0 1 107.27 49.12
  L 107.27 50.04
  A 5.96 5.67 -0.1 0 1 101.32 55.72
  L 88.42 55.75
  A 0.66 0.66 0.0 0 1 87.76 55.09
  L 87.74 44.15
  Z"
/>
<path fill="#a2a2a8" d="
  M 50.09 66.89
  Q 57.15 71.64 65.53 74.05
  Q 66.06 80.35 65.55 86.73
  Q 49.94 85.16 35.47 77.31
  Q 41.91 71.08 50.09 66.89
  Z"
/>
<path fill="#cdcfd3" d="
  M 98.83 76.28
  L 87.45 76.89
  L 87.54 72.67
  Q 87.55 72.14 88.08 72.08
  C 93.19 71.56 95.90 71.74 98.83 76.28
  Z"
/>
<path fill="#929299" d="
  M 98.83 76.28
  L 103.17 83.88
  L 87.52 86.93
  L 87.45 76.89
  L 98.83 76.28
  Z"
/>
<path fill="#cdcfd3" d="
  M 103.17 83.88
  L 111.67 100.00
  L 87.57 100.00
  L 87.52 86.93
  L 103.17 83.88
  Z"
/>
</svg>
