<?xml version="1.0" encoding="UTF-8" standalone="no"?>
<!DOCTYPE svg PUBLIC "-//W3C//DTD SVG 1.1//EN" "http://www.w3.org/Graphics/SVG/1.1/DTD/svg11.dtd">
<svg xmlns="http://www.w3.org/2000/svg" version="1.1" viewBox="0.00 0.00 245.00 100.00">
<g stroke-width="2.00" fill="none" stroke-linecap="butt">
<path stroke="#808080" vector-effect="non-scaling-stroke" d="
  M 68.59 4.33
  A 1.39 1.38 -50.9 0 1 66.44 4.56
  L 63.22 1.35
  A 1.16 1.16 0.0 0 0 61.31 1.76
  L 59.77 5.95
  A 1.35 1.34 -61.8 0 1 57.72 6.57
  L 54.16 4.02
  A 1.34 1.33 -68.6 0 0 52.06 4.94
  L 51.55 8.95
  A 1.55 1.55 0.0 0 1 49.38 10.17
  L 45.48 8.43
  A 1.23 1.23 0.0 0 0 43.75 9.55
  L 43.75 14.48
  A 1.01 1.00 6.1 0 1 42.53 15.46
  L 37.53 14.40
  A 0.92 0.91 -0.8 0 0 36.45 15.50
  L 37.48 19.94
  A 1.47 1.47 0.0 0 1 36.05 21.75
  L 31.84 21.75
  A 1.39 1.38 77.4 0 0 30.59 23.73
  L 32.34 27.43
  A 1.55 1.54 79.7 0 1 30.82 29.63
  Q 28.25 29.43 26.13 30.66
  A 0.68 0.68 0.0 0 0 25.91 31.63
  L 28.71 35.76
  A 1.29 1.28 61.7 0 1 28.14 37.67
  L 24.17 39.27
  A 1.43 1.43 0.0 0 0 23.72 41.63
  L 26.83 44.61
  A 1.26 1.26 0.0 0 1 26.63 46.59
  L 22.99 48.87
  A 1.25 1.25 0.0 0 0 22.94 50.96
  L 27.17 53.89
  A 0.62 0.62 0.0 0 1 27.26 54.84
  L 23.67 58.50
  A 1.35 1.34 -57.4 0 0 24.15 60.70
  L 28.18 62.24
  A 1.30 1.30 0.0 0 1 28.79 64.20
  L 25.96 68.26
  A 0.72 0.70 -56.7 0 0 26.16 69.27
  Q 28.26 70.57 30.81 70.37
  A 1.54 1.54 0.0 0 1 32.33 72.55
  L 30.54 76.47
  A 1.26 1.25 -77.7 0 0 31.68 78.25
  L 36.25 78.25
  A 1.27 1.27 0.0 0 1 37.49 79.78
  L 36.48 84.63
  A 0.85 0.85 0.0 0 0 37.49 85.63
  L 42.53 84.54
  A 1.01 1.00 -6.1 0 1 43.75 85.52
  L 43.75 90.46
  A 1.22 1.22 0.0 0 0 45.48 91.57
  L 49.67 89.67
  A 1.34 1.33 -15.5 0 1 51.55 90.73
  L 52.03 94.96
  A 1.38 1.37 68.8 0 0 54.20 95.92
  L 57.61 93.46
  Q 59.12 92.38 59.78 94.11
  L 61.36 98.20
  A 1.16 1.16 0.0 0 0 63.27 98.61
  L 66.54 95.34
  A 1.33 1.32 51.3 0 1 68.60 95.57
  L 70.91 99.25
  A 1.21 1.20 -40.5 0 0 72.84 99.40
  Q 73.86 98.23 74.58 96.82
  C 76.75 92.62 79.23 97.46 81.36 99.03
  A 0.54 0.53 -60.0 0 0 82.16 98.81
  L 84.29 93.85
  A 1.24 1.24 0.0 0 1 86.13 93.32
  L 90.12 96.10
  Q 90.62 96.44 91.03 96.00
  C 92.75 94.10 91.56 91.50 93.07 89.76
  Q 93.49 89.28 94.07 89.55
  L 98.18 91.51
  A 1.49 1.49 0.0 0 0 100.27 89.83
  Q 99.80 87.79 100.22 85.75
  A 1.42 1.40 -77.9 0 1 101.90 84.65
  L 106.40 85.62
  A 0.71 0.70 -81.6 0 0 107.24 84.99
  Q 107.43 82.77 106.58 80.81
  Q 105.47 78.25 108.26 78.25
  L 112.23 78.25
  A 1.28 1.27 77.9 0 0 113.39 76.45
  L 111.66 72.59
  A 1.49 1.49 0.0 0 1 112.80 70.50
  L 116.75 69.92
  A 1.30 1.30 0.0 0 0 117.65 67.92
  L 115.02 63.86
  A 1.00 1.00 0.0 0 1 115.48 62.38
  L 119.69 60.67
  A 1.30 1.30 0.0 0 0 120.14 58.56
  L 116.61 54.88
  A 0.62 0.62 0.0 0 1 116.71 53.94
  L 120.81 51.17
  A 1.43 1.42 44.3 0 0 120.78 48.79
  L 116.68 46.14
  A 0.66 0.66 0.0 0 1 116.57 45.12
  L 120.17 41.52
  A 1.34 1.34 0.0 0 0 119.73 39.33
  L 115.56 37.64
  A 1.09 1.08 27.8 0 1 115.06 36.04
  L 117.62 32.18
  A 1.44 1.43 20.1 0 0 116.59 29.96
  L 112.78 29.53
  A 1.54 1.53 -69.9 0 1 111.68 27.16
  Q 113.16 24.93 113.31 22.33
  A 0.54 0.54 0.0 0 0 112.77 21.75
  L 107.52 21.75
  A 1.17 1.17 0.0 0 1 106.38 20.34
  L 107.39 15.65
  A 1.07 1.07 0.0 0 0 106.09 14.38
  L 101.52 15.51
  A 1.02 1.02 0.0 0 1 100.26 14.52
  L 100.24 9.65
  A 1.35 1.35 0.0 0 0 98.31 8.44
  L 94.29 10.34
  A 1.43 1.42 -11.5 0 1 92.26 9.00
  Q 92.36 6.62 91.41 4.38
  A 0.95 0.95 0.0 0 0 90.01 3.96
  L 85.49 6.98
  A 0.64 0.63 -27.9 0 1 84.55 6.70
  L 82.45 1.62
  A 1.00 1.00 0.0 0 0 80.82 1.30
  L 77.81 4.32
  A 1.71 1.71 0.0 0 1 75.18 4.07
  L 72.73 0.45
  A 0.99 0.99 0.0 0 0 71.08 0.47
  L 68.59 4.33"
/>
<path stroke="#808080" vector-effect="non-scaling-stroke" d="
  M 197.50 43.76
  C 197.49 48.30 196.59 57.58 198.37 61.34
  C 200.73 66.33 209.27 65.41 214.20 65.19
  Q 214.58 65.17 214.57 64.79
  L 214.47 59.47
  Q 214.46 58.91 213.90 58.95
  C 210.42 59.20 206.19 60.26 206.26 55.25
  Q 206.33 49.36 206.13 43.54
  A 0.32 0.32 0.0 0 1 206.46 43.21
  L 214.99 43.27
  Q 215.50 43.27 215.50 42.76
  L 215.50 37.58
  Q 215.50 36.97 214.89 36.97
  L 206.83 37.01
  Q 206.22 37.02 206.22 36.40
  L 206.26 29.26
  Q 206.27 28.75 205.76 28.75
  L 197.83 28.75
  Q 197.41 28.75 197.41 29.17
  L 197.54 36.35
  Q 197.55 37.00 196.90 37.00
  L 193.25 37.00
  Q 192.75 37.00 192.75 37.50
  L 192.75 42.75
  Q 192.75 43.25 193.25 43.25
  L 196.99 43.25
  Q 197.50 43.25 197.50 43.76"
/>
<path stroke="#808080" vector-effect="non-scaling-stroke" d="
  M 171.58 43.83
  A 2.21 2.20 -83.3 0 1 173.33 42.44
  Q 180.40 41.39 186.85 44.23
  Q 187.25 44.41 187.25 43.97
  L 187.25 38.29
  Q 187.25 37.86 186.83 37.75
  C 181.19 36.36 171.64 35.16 166.82 38.55
  C 161.18 42.52 163.34 52.04 170.51 53.24
  Q 176.77 54.29 179.83 55.04
  A 1.02 1.01 -4.6 0 1 180.53 55.63
  C 183.91 63.56 167.05 59.07 164.59 57.89
  Q 164.00 57.60 164.00 58.26
  L 164.00 63.49
  Q 164.00 63.99 164.47 64.14
  C 171.45 66.45 192.13 68.54 189.05 54.98
  C 187.61 48.64 180.65 48.12 175.38 47.53
  C 173.30 47.30 170.59 46.35 171.58 43.83"
/>
<path stroke="#808080" vector-effect="non-scaling-stroke" d="
  M 147.48 61.62
  L 147.51 64.75
  Q 147.51 65.25 148.01 65.25
  L 155.75 65.25
  Q 156.25 65.25 156.25 64.75
  L 156.25 37.53
  Q 156.25 36.99 155.71 36.99
  L 148.00 37.00
  Q 147.49 37.00 147.50 37.51
  C 147.52 42.90 149.24 55.72 143.85 58.77
  C 141.77 59.95 138.65 59.73 137.45 57.55
  C 135.41 53.88 136.55 42.17 136.47 37.54
  Q 136.46 37.01 135.92 37.01
  L 128.22 36.93
  Q 127.85 36.93 127.84 37.30
  Q 127.55 46.44 127.83 55.55
  C 128.17 66.86 140.27 69.44 146.73 61.36
  A 0.42 0.42 0.0 0 1 147.48 61.62"
/>
<path stroke="#808080" vector-effect="non-scaling-stroke" d="
  M 74.87 11.71
  A 3.09 3.09 0.0 0 0 71.78 8.62
  A 3.09 3.09 0.0 0 0 68.69 11.71
  A 3.09 3.09 0.0 0 0 71.78 14.80
  A 3.09 3.09 0.0 0 0 74.87 11.71"
/>
<path stroke="#808080" vector-effect="non-scaling-stroke" d="
  M 104.76 52.75
  L 107.96 52.75
  Q 108.67 52.75 108.66 52.04
  L 108.54 46.59
  Q 108.53 45.97 107.97 45.73
  L 101.59 42.92
  A 2.48 2.48 0.0 0 1 100.32 39.66
  L 103.67 31.99
  Q 103.87 31.54 103.61 31.11
  Q 95.08 17.23 79.18 13.58
  Q 78.63 13.45 78.23 13.84
  L 72.82 18.98
  Q 72.43 19.34 71.91 19.27
  C 69.61 18.96 67.13 15.47 65.53 13.84
  Q 65.18 13.48 64.69 13.58
  Q 53.00 16.12 44.96 24.91
  Q 44.45 25.47 45.21 25.47
  Q 62.67 25.55 80.13 25.51
  Q 85.59 25.50 88.12 26.41
  C 94.91 28.83 99.32 36.10 94.94 42.92
  Q 93.78 44.73 89.65 47.61
  Q 89.15 47.96 89.65 48.31
  Q 94.77 51.83 95.26 58.13
  A 1.05 1.03 13.8 0 0 95.76 58.94
  C 101.15 62.16 104.39 58.60 104.26 53.26
  Q 104.25 52.75 104.76 52.75"
/>
<path stroke="#808080" vector-effect="non-scaling-stroke" d="
  M 39.53 38.66
  A 3.10 3.10 0.0 0 0 36.43 35.56
  A 3.10 3.10 0.0 0 0 33.33 38.66
  A 3.10 3.10 0.0 0 0 36.43 41.76
  A 3.10 3.10 0.0 0 0 39.53 38.66"
/>
<path stroke="#808080" vector-effect="non-scaling-stroke" d="
  M 110.18 38.78
  A 3.06 3.06 0.0 0 0 107.12 35.72
  A 3.06 3.06 0.0 0 0 104.06 38.78
  A 3.06 3.06 0.0 0 0 107.12 41.84
  A 3.06 3.06 0.0 0 0 110.18 38.78"
/>
<path stroke="#808080" vector-effect="non-scaling-stroke" d="
  M 43.42 40.09
  A 1.98 1.96 67.8 0 1 42.38 42.59
  L 35.96 45.43
  Q 35.46 45.65 35.41 46.19
  Q 34.79 52.79 36.53 59.21
  Q 36.67 59.75 37.24 59.75
  L 47.00 59.75
  Q 47.50 59.75 47.50 59.25
  L 47.50 36.75
  Q 47.50 36.25 47.00 36.25
  L 42.76 36.25
  A 0.55 0.54 -10.6 0 0 42.25 36.99
  L 43.42 40.09"
/>
<path stroke="#808080" vector-effect="non-scaling-stroke" d="
  M 63.52 36.61
  L 63.48 43.45
  A 0.22 0.22 0.0 0 0 63.69 43.67
  L 74.84 43.75
  A 5.65 3.26 0.4 0 0 80.52 40.53
  L 80.52 39.77
  A 5.65 3.26 0.4 0 0 74.90 36.47
  L 63.75 36.39
  A 0.22 0.22 0.0 0 0 63.52 36.61"
/>
<path stroke="#808080" vector-effect="non-scaling-stroke" d="
  M 72.80 60.83
  L 72.80 70.85
  Q 72.80 71.25 72.40 71.25
  L 42.98 71.25
  Q 42.27 71.25 42.72 71.80
  L 45.37 75.04
  Q 45.68 75.43 46.16 75.32
  L 52.10 74.02
  A 2.39 2.38 -12.2 0 1 54.94 75.85
  L 56.35 82.47
  Q 56.47 83.02 56.98 83.25
  Q 71.89 89.78 86.83 83.32
  A 0.82 0.80 -6.4 0 0 87.31 82.73
  L 88.72 75.92
  A 2.22 2.21 -78.4 0 1 91.33 74.20
  L 97.51 75.43
  Q 98.03 75.53 98.39 75.14
  L 101.14 72.13
  Q 101.94 71.25 100.75 71.25
  L 85.62 71.25
  Q 85.29 71.25 85.01 71.08
  C 80.02 68.16 80.00 62.17 78.74 57.27
  C 77.35 51.82 68.16 53.24 64.00 53.26
  Q 63.50 53.26 63.50 53.76
  L 63.50 59.63
  A 0.87 0.87 0.0 0 0 64.39 60.50
  L 72.33 60.37
  Q 72.80 60.37 72.80 60.83"
/>
<path stroke="#808080" vector-effect="non-scaling-stroke" d="
  M 52.91 80.64
  A 3.09 3.09 0.0 0 0 49.82 77.55
  A 3.09 3.09 0.0 0 0 46.73 80.64
  A 3.09 3.09 0.0 0 0 49.82 83.73
  A 3.09 3.09 0.0 0 0 52.91 80.64"
/>
<path stroke="#808080" vector-effect="non-scaling-stroke" d="
  M 96.80 80.77
  A 3.08 3.08 0.0 0 0 93.72 77.69
  A 3.08 3.08 0.0 0 0 90.64 80.77
  A 3.08 3.08 0.0 0 0 93.72 83.85
  A 3.08 3.08 0.0 0 0 96.80 80.77"
/>
</g>
<path fill="#ffffff" d="
  M 0.00 0.00
  L 245.00 0.00
  L 245.00 100.00
  L 0.00 100.00
  L 0.00 0.00
  Z
  M 68.59 4.33
  A 1.39 1.38 -50.9 0 1 66.44 4.56
  L 63.22 1.35
  A 1.16 1.16 0.0 0 0 61.31 1.76
  L 59.77 5.95
  A 1.35 1.34 -61.8 0 1 57.72 6.57
  L 54.16 4.02
  A 1.34 1.33 -68.6 0 0 52.06 4.94
  L 51.55 8.95
  A 1.55 1.55 0.0 0 1 49.38 10.17
  L 45.48 8.43
  A 1.23 1.23 0.0 0 0 43.75 9.55
  L 43.75 14.48
  A 1.01 1.00 6.1 0 1 42.53 15.46
  L 37.53 14.40
  A 0.92 0.91 -0.8 0 0 36.45 15.50
  L 37.48 19.94
  A 1.47 1.47 0.0 0 1 36.05 21.75
  L 31.84 21.75
  A 1.39 1.38 77.4 0 0 30.59 23.73
  L 32.34 27.43
  A 1.55 1.54 79.7 0 1 30.82 29.63
  Q 28.25 29.43 26.13 30.66
  A 0.68 0.68 0.0 0 0 25.91 31.63
  L 28.71 35.76
  A 1.29 1.28 61.7 0 1 28.14 37.67
  L 24.17 39.27
  A 1.43 1.43 0.0 0 0 23.72 41.63
  L 26.83 44.61
  A 1.26 1.26 0.0 0 1 26.63 46.59
  L 22.99 48.87
  A 1.25 1.25 0.0 0 0 22.94 50.96
  L 27.17 53.89
  A 0.62 0.62 0.0 0 1 27.26 54.84
  L 23.67 58.50
  A 1.35 1.34 -57.4 0 0 24.15 60.70
  L 28.18 62.24
  A 1.30 1.30 0.0 0 1 28.79 64.20
  L 25.96 68.26
  A 0.72 0.70 -56.7 0 0 26.16 69.27
  Q 28.26 70.57 30.81 70.37
  A 1.54 1.54 0.0 0 1 32.33 72.55
  L 30.54 76.47
  A 1.26 1.25 -77.7 0 0 31.68 78.25
  L 36.25 78.25
  A 1.27 1.27 0.0 0 1 37.49 79.78
  L 36.48 84.63
  A 0.85 0.85 0.0 0 0 37.49 85.63
  L 42.53 84.54
  A 1.01 1.00 -6.1 0 1 43.75 85.52
  L 43.75 90.46
  A 1.22 1.22 0.0 0 0 45.48 91.57
  L 49.67 89.67
  A 1.34 1.33 -15.5 0 1 51.55 90.73
  L 52.03 94.96
  A 1.38 1.37 68.8 0 0 54.20 95.92
  L 57.61 93.46
  Q 59.12 92.38 59.78 94.11
  L 61.36 98.20
  A 1.16 1.16 0.0 0 0 63.27 98.61
  L 66.54 95.34
  A 1.33 1.32 51.3 0 1 68.60 95.57
  L 70.91 99.25
  A 1.21 1.20 -40.5 0 0 72.84 99.40
  Q 73.86 98.23 74.58 96.82
  C 76.75 92.62 79.23 97.46 81.36 99.03
  A 0.54 0.53 -60.0 0 0 82.16 98.81
  L 84.29 93.85
  A 1.24 1.24 0.0 0 1 86.13 93.32
  L 90.12 96.10
  Q 90.62 96.44 91.03 96.00
  C 92.75 94.10 91.56 91.50 93.07 89.76
  Q 93.49 89.28 94.07 89.55
  L 98.18 91.51
  A 1.49 1.49 0.0 0 0 100.27 89.83
  Q 99.80 87.79 100.22 85.75
  A 1.42 1.40 -77.9 0 1 101.90 84.65
  L 106.40 85.62
  A 0.71 0.70 -81.6 0 0 107.24 84.99
  Q 107.43 82.77 106.58 80.81
  Q 105.47 78.25 108.26 78.25
  L 112.23 78.25
  A 1.28 1.27 77.9 0 0 113.39 76.45
  L 111.66 72.59
  A 1.49 1.49 0.0 0 1 112.80 70.50
  L 116.75 69.92
  A 1.30 1.30 0.0 0 0 117.65 67.92
  L 115.02 63.86
  A 1.00 1.00 0.0 0 1 115.48 62.38
  L 119.69 60.67
  A 1.30 1.30 0.0 0 0 120.14 58.56
  L 116.61 54.88
  A 0.62 0.62 0.0 0 1 116.71 53.94
  L 120.81 51.17
  A 1.43 1.42 44.3 0 0 120.78 48.79
  L 116.68 46.14
  A 0.66 0.66 0.0 0 1 116.57 45.12
  L 120.17 41.52
  A 1.34 1.34 0.0 0 0 119.73 39.33
  L 115.56 37.64
  A 1.09 1.08 27.8 0 1 115.06 36.04
  L 117.62 32.18
  A 1.44 1.43 20.1 0 0 116.59 29.96
  L 112.78 29.53
  A 1.54 1.53 -69.9 0 1 111.68 27.16
  Q 113.16 24.93 113.31 22.33
  A 0.54 0.54 0.0 0 0 112.77 21.75
  L 107.52 21.75
  A 1.17 1.17 0.0 0 1 106.38 20.34
  L 107.39 15.65
  A 1.07 1.07 0.0 0 0 106.09 14.38
  L 101.52 15.51
  A 1.02 1.02 0.0 0 1 100.26 14.52
  L 100.24 9.65
  A 1.35 1.35 0.0 0 0 98.31 8.44
  L 94.29 10.34
  A 1.43 1.42 -11.5 0 1 92.26 9.00
  Q 92.36 6.62 91.41 4.38
  A 0.95 0.95 0.0 0 0 90.01 3.96
  L 85.49 6.98
  A 0.64 0.63 -27.9 0 1 84.55 6.70
  L 82.45 1.62
  A 1.00 1.00 0.0 0 0 80.82 1.30
  L 77.81 4.32
  A 1.71 1.71 0.0 0 1 75.18 4.07
  L 72.73 0.45
  A 0.99 0.99 0.0 0 0 71.08 0.47
  L 68.59 4.33
  Z
  M 197.50 43.76
  C 197.49 48.30 196.59 57.58 198.37 61.34
  C 200.73 66.33 209.27 65.41 214.20 65.19
  Q 214.58 65.17 214.57 64.79
  L 214.47 59.47
  Q 214.46 58.91 213.90 58.95
  C 210.42 59.20 206.19 60.26 206.26 55.25
  Q 206.33 49.36 206.13 43.54
  A 0.32 0.32 0.0 0 1 206.46 43.21
  L 214.99 43.27
  Q 215.50 43.27 215.50 42.76
  L 215.50 37.58
  Q 215.50 36.97 214.89 36.97
  L 206.83 37.01
  Q 206.22 37.02 206.22 36.40
  L 206.26 29.26
  Q 206.27 28.75 205.76 28.75
  L 197.83 28.75
  Q 197.41 28.75 197.41 29.17
  L 197.54 36.35
  Q 197.55 37.00 196.90 37.00
  L 193.25 37.00
  Q 192.75 37.00 192.75 37.50
  L 192.75 42.75
  Q 192.75 43.25 193.25 43.25
  L 196.99 43.25
  Q 197.50 43.25 197.50 43.76
  Z
  M 171.58 43.83
  A 2.21 2.20 -83.3 0 1 173.33 42.44
  Q 180.40 41.39 186.85 44.23
  Q 187.25 44.41 187.25 43.97
  L 187.25 38.29
  Q 187.25 37.86 186.83 37.75
  C 181.19 36.36 171.64 35.16 166.82 38.55
  C 161.18 42.52 163.34 52.04 170.51 53.24
  Q 176.77 54.29 179.83 55.04
  A 1.02 1.01 -4.6 0 1 180.53 55.63
  C 183.91 63.56 167.05 59.07 164.59 57.89
  Q 164.00 57.60 164.00 58.26
  L 164.00 63.49
  Q 164.00 63.99 164.47 64.14
  C 171.45 66.45 192.13 68.54 189.05 54.98
  C 187.61 48.64 180.65 48.12 175.38 47.53
  C 173.30 47.30 170.59 46.35 171.58 43.83
  Z
  M 147.48 61.62
  L 147.51 64.75
  Q 147.51 65.25 148.01 65.25
  L 155.75 65.25
  Q 156.25 65.25 156.25 64.75
  L 156.25 37.53
  Q 156.25 36.99 155.71 36.99
  L 148.00 37.00
  Q 147.49 37.00 147.50 37.51
  C 147.52 42.90 149.24 55.72 143.85 58.77
  C 141.77 59.95 138.65 59.73 137.45 57.55
  C 135.41 53.88 136.55 42.17 136.47 37.54
  Q 136.46 37.01 135.92 37.01
  L 128.22 36.93
  Q 127.85 36.93 127.84 37.30
  Q 127.55 46.44 127.83 55.55
  C 128.17 66.86 140.27 69.44 146.73 61.36
  A 0.42 0.42 0.0 0 1 147.48 61.62
  Z"
/>
<path fill="#000000" d="
  M 68.59 4.33
  L 71.08 0.47
  A 0.99 0.99 0.0 0 1 72.73 0.45
  L 75.18 4.07
  A 1.71 1.71 0.0 0 0 77.81 4.32
  L 80.82 1.30
  A 1.00 1.00 0.0 0 1 82.45 1.62
  L 84.55 6.70
  A 0.64 0.63 -27.9 0 0 85.49 6.98
  L 90.01 3.96
  A 0.95 0.95 0.0 0 1 91.41 4.38
  Q 92.36 6.62 92.26 9.00
  A 1.43 1.42 -11.5 0 0 94.29 10.34
  L 98.31 8.44
  A 1.35 1.35 0.0 0 1 100.24 9.65
  L 100.26 14.52
  A 1.02 1.02 0.0 0 0 101.52 15.51
  L 106.09 14.38
  A 1.07 1.07 0.0 0 1 107.39 15.65
  L 106.38 20.34
  A 1.17 1.17 0.0 0 0 107.52 21.75
  L 112.77 21.75
  A 0.54 0.54 0.0 0 1 113.31 22.33
  Q 113.16 24.93 111.68 27.16
  A 1.54 1.53 -69.9 0 0 112.78 29.53
  L 116.59 29.96
  A 1.44 1.43 20.1 0 1 117.62 32.18
  L 115.06 36.04
  A 1.09 1.08 27.8 0 0 115.56 37.64
  L 119.73 39.33
  A 1.34 1.34 0.0 0 1 120.17 41.52
  L 116.57 45.12
  A 0.66 0.66 0.0 0 0 116.68 46.14
  L 120.78 48.79
  A 1.43 1.42 44.3 0 1 120.81 51.17
  L 116.71 53.94
  A 0.62 0.62 0.0 0 0 116.61 54.88
  L 120.14 58.56
  A 1.30 1.30 0.0 0 1 119.69 60.67
  L 115.48 62.38
  A 1.00 1.00 0.0 0 0 115.02 63.86
  L 117.65 67.92
  A 1.30 1.30 0.0 0 1 116.75 69.92
  L 112.80 70.50
  A 1.49 1.49 0.0 0 0 111.66 72.59
  L 113.39 76.45
  A 1.28 1.27 77.9 0 1 112.23 78.25
  L 108.26 78.25
  Q 105.47 78.25 106.58 80.81
  Q 107.43 82.77 107.24 84.99
  A 0.71 0.70 -81.6 0 1 106.40 85.62
  L 101.90 84.65
  A 1.42 1.40 -77.9 0 0 100.22 85.75
  Q 99.80 87.79 100.27 89.83
  A 1.49 1.49 0.0 0 1 98.18 91.51
  L 94.07 89.55
  Q 93.49 89.28 93.07 89.76
  C 91.56 91.50 92.75 94.10 91.03 96.00
  Q 90.62 96.44 90.12 96.10
  L 86.13 93.32
  A 1.24 1.24 0.0 0 0 84.29 93.85
  L 82.16 98.81
  A 0.54 0.53 -60.0 0 1 81.36 99.03
  C 79.23 97.46 76.75 92.62 74.58 96.82
  Q 73.86 98.23 72.84 99.40
  A 1.21 1.20 -40.5 0 1 70.91 99.25
  L 68.60 95.57
  A 1.33 1.32 51.3 0 0 66.54 95.34
  L 63.27 98.61
  A 1.16 1.16 0.0 0 1 61.36 98.20
  L 59.78 94.11
  Q 59.12 92.38 57.61 93.46
  L 54.20 95.92
  A 1.38 1.37 68.8 0 1 52.03 94.96
  L 51.55 90.73
  A 1.34 1.33 -15.5 0 0 49.67 89.67
  L 45.48 91.57
  A 1.22 1.22 0.0 0 1 43.75 90.46
  L 43.75 85.52
  A 1.01 1.00 -6.1 0 0 42.53 84.54
  L 37.49 85.63
  A 0.85 0.85 0.0 0 1 36.48 84.63
  L 37.49 79.78
  A 1.27 1.27 0.0 0 0 36.25 78.25
  L 31.68 78.25
  A 1.26 1.25 -77.7 0 1 30.54 76.47
  L 32.33 72.55
  A 1.54 1.54 0.0 0 0 30.81 70.37
  Q 28.26 70.57 26.16 69.27
  A 0.72 0.70 -56.7 0 1 25.96 68.26
  L 28.79 64.20
  A 1.30 1.30 0.0 0 0 28.18 62.24
  L 24.15 60.70
  A 1.35 1.34 -57.4 0 1 23.67 58.50
  L 27.26 54.84
  A 0.62 0.62 0.0 0 0 27.17 53.89
  L 22.94 50.96
  A 1.25 1.25 0.0 0 1 22.99 48.87
  L 26.63 46.59
  A 1.26 1.26 0.0 0 0 26.83 44.61
  L 23.72 41.63
  A 1.43 1.43 0.0 0 1 24.17 39.27
  L 28.14 37.67
  A 1.29 1.28 61.7 0 0 28.71 35.76
  L 25.91 31.63
  A 0.68 0.68 0.0 0 1 26.13 30.66
  Q 28.25 29.43 30.82 29.63
  A 1.55 1.54 79.7 0 0 32.34 27.43
  L 30.59 23.73
  A 1.39 1.38 77.4 0 1 31.84 21.75
  L 36.05 21.75
  A 1.47 1.47 0.0 0 0 37.48 19.94
  L 36.45 15.50
  A 0.92 0.91 -0.8 0 1 37.53 14.40
  L 42.53 15.46
  A 1.01 1.00 6.1 0 0 43.75 14.48
  L 43.75 9.55
  A 1.23 1.23 0.0 0 1 45.48 8.43
  L 49.38 10.17
  A 1.55 1.55 0.0 0 0 51.55 8.95
  L 52.06 4.94
  A 1.34 1.33 -68.6 0 1 54.16 4.02
  L 57.72 6.57
  A 1.35 1.34 -61.8 0 0 59.77 5.95
  L 61.31 1.76
  A 1.16 1.16 0.0 0 1 63.22 1.35
  L 66.44 4.56
  A 1.39 1.38 -50.9 0 0 68.59 4.33
  Z
  M 74.87 11.71
  A 3.09 3.09 0.0 0 0 71.78 8.62
  A 3.09 3.09 0.0 0 0 68.69 11.71
  A 3.09 3.09 0.0 0 0 71.78 14.80
  A 3.09 3.09 0.0 0 0 74.87 11.71
  Z
  M 104.76 52.75
  L 107.96 52.75
  Q 108.67 52.75 108.66 52.04
  L 108.54 46.59
  Q 108.53 45.97 107.97 45.73
  L 101.59 42.92
  A 2.48 2.48 0.0 0 1 100.32 39.66
  L 103.67 31.99
  Q 103.87 31.54 103.61 31.11
  Q 95.08 17.23 79.18 13.58
  Q 78.63 13.45 78.23 13.84
  L 72.82 18.98
  Q 72.43 19.34 71.91 19.27
  C 69.61 18.96 67.13 15.47 65.53 13.84
  Q 65.18 13.48 64.69 13.58
  Q 53.00 16.12 44.96 24.91
  Q 44.45 25.47 45.21 25.47
  Q 62.67 25.55 80.13 25.51
  Q 85.59 25.50 88.12 26.41
  C 94.91 28.83 99.32 36.10 94.94 42.92
  Q 93.78 44.73 89.65 47.61
  Q 89.15 47.96 89.65 48.31
  Q 94.77 51.83 95.26 58.13
  A 1.05 1.03 13.8 0 0 95.76 58.94
  C 101.15 62.16 104.39 58.60 104.26 53.26
  Q 104.25 52.75 104.76 52.75
  Z
  M 39.53 38.66
  A 3.10 3.10 0.0 0 0 36.43 35.56
  A 3.10 3.10 0.0 0 0 33.33 38.66
  A 3.10 3.10 0.0 0 0 36.43 41.76
  A 3.10 3.10 0.0 0 0 39.53 38.66
  Z
  M 110.18 38.78
  A 3.06 3.06 0.0 0 0 107.12 35.72
  A 3.06 3.06 0.0 0 0 104.06 38.78
  A 3.06 3.06 0.0 0 0 107.12 41.84
  A 3.06 3.06 0.0 0 0 110.18 38.78
  Z
  M 43.42 40.09
  A 1.98 1.96 67.8 0 1 42.38 42.59
  L 35.96 45.43
  Q 35.46 45.65 35.41 46.19
  Q 34.79 52.79 36.53 59.21
  Q 36.67 59.75 37.24 59.75
  L 47.00 59.75
  Q 47.50 59.75 47.50 59.25
  L 47.50 36.75
  Q 47.50 36.25 47.00 36.25
  L 42.76 36.25
  A 0.55 0.54 -10.6 0 0 42.25 36.99
  L 43.42 40.09
  Z
  M 63.52 36.61
  L 63.48 43.45
  A 0.22 0.22 0.0 0 0 63.69 43.67
  L 74.84 43.75
  A 5.65 3.26 0.4 0 0 80.52 40.53
  L 80.52 39.77
  A 5.65 3.26 0.4 0 0 74.90 36.47
  L 63.75 36.39
  A 0.22 0.22 0.0 0 0 63.52 36.61
  Z
  M 72.80 60.83
  L 72.80 70.85
  Q 72.80 71.25 72.40 71.25
  L 42.98 71.25
  Q 42.27 71.25 42.72 71.80
  L 45.37 75.04
  Q 45.68 75.43 46.16 75.32
  L 52.10 74.02
  A 2.39 2.38 -12.2 0 1 54.94 75.85
  L 56.35 82.47
  Q 56.47 83.02 56.98 83.25
  Q 71.89 89.78 86.83 83.32
  A 0.82 0.80 -6.4 0 0 87.31 82.73
  L 88.72 75.92
  A 2.22 2.21 -78.4 0 1 91.33 74.20
  L 97.51 75.43
  Q 98.03 75.53 98.39 75.14
  L 101.14 72.13
  Q 101.94 71.25 100.75 71.25
  L 85.62 71.25
  Q 85.29 71.25 85.01 71.08
  C 80.02 68.16 80.00 62.17 78.74 57.27
  C 77.35 51.82 68.16 53.24 64.00 53.26
  Q 63.50 53.26 63.50 53.76
  L 63.50 59.63
  A 0.87 0.87 0.0 0 0 64.39 60.50
  L 72.33 60.37
  Q 72.80 60.37 72.80 60.83
  Z
  M 52.91 80.64
  A 3.09 3.09 0.0 0 0 49.82 77.55
  A 3.09 3.09 0.0 0 0 46.73 80.64
  A 3.09 3.09 0.0 0 0 49.82 83.73
  A 3.09 3.09 0.0 0 0 52.91 80.64
  Z
  M 96.80 80.77
  A 3.08 3.08 0.0 0 0 93.72 77.69
  A 3.08 3.08 0.0 0 0 90.64 80.77
  A 3.08 3.08 0.0 0 0 93.72 83.85
  A 3.08 3.08 0.0 0 0 96.80 80.77
  Z"
/>
<circle fill="#ffffff" cx="71.78" cy="11.71" r="3.09"/>
<path fill="#ffffff" d="
  M 104.26 53.26
  C 104.39 58.60 101.15 62.16 95.76 58.94
  A 1.05 1.03 13.8 0 1 95.26 58.13
  Q 94.77 51.83 89.65 48.31
  Q 89.15 47.96 89.65 47.61
  Q 93.78 44.73 94.94 42.92
  C 99.32 36.10 94.91 28.83 88.12 26.41
  Q 85.59 25.50 80.13 25.51
  Q 62.67 25.55 45.21 25.47
  Q 44.45 25.47 44.96 24.91
  Q 53.00 16.12 64.69 13.58
  Q 65.18 13.48 65.53 13.84
  C 67.13 15.47 69.61 18.96 71.91 19.27
  Q 72.43 19.34 72.82 18.98
  L 78.23 13.84
  Q 78.63 13.45 79.18 13.58
  Q 95.08 17.23 103.61 31.11
  Q 103.87 31.54 103.67 31.99
  L 100.32 39.66
  A 2.48 2.48 0.0 0 0 101.59 42.92
  L 107.97 45.73
  Q 108.53 45.97 108.54 46.59
  L 108.66 52.04
  Q 108.67 52.75 107.96 52.75
  L 104.76 52.75
  Q 104.25 52.75 104.26 53.26
  Z"
/>
<path fill="#000000" d="
  M 196.99 43.25
  L 193.25 43.25
  Q 192.75 43.25 192.75 42.75
  L 192.75 37.50
  Q 192.75 37.00 193.25 37.00
  L 196.90 37.00
  Q 197.55 37.00 197.54 36.35
  L 197.41 29.17
  Q 197.41 28.75 197.83 28.75
  L 205.76 28.75
  Q 206.27 28.75 206.26 29.26
  L 206.22 36.40
  Q 206.22 37.02 206.83 37.01
  L 214.89 36.97
  Q 215.50 36.97 215.50 37.58
  L 215.50 42.76
  Q 215.50 43.27 214.99 43.27
  L 206.46 43.21
  A 0.32 0.32 0.0 0 0 206.13 43.54
  Q 206.33 49.36 206.26 55.25
  C 206.19 60.26 210.42 59.20 213.90 58.95
  Q 214.46 58.91 214.47 59.47
  L 214.57 64.79
  Q 214.58 65.17 214.20 65.19
  C 209.27 65.41 200.73 66.33 198.37 61.34
  C 196.59 57.58 197.49 48.30 197.50 43.76
  Q 197.50 43.25 196.99 43.25
  Z"
/>
<circle fill="#ffffff" cx="36.43" cy="38.66" r="3.10"/>
<circle fill="#ffffff" cx="107.12" cy="38.78" r="3.06"/>
<path fill="#ffffff" d="
  M 43.42 40.09
  L 42.25 36.99
  A 0.55 0.54 -10.6 0 1 42.76 36.25
  L 47.00 36.25
  Q 47.50 36.25 47.50 36.75
  L 47.50 59.25
  Q 47.50 59.75 47.00 59.75
  L 37.24 59.75
  Q 36.67 59.75 36.53 59.21
  Q 34.79 52.79 35.41 46.19
  Q 35.46 45.65 35.96 45.43
  L 42.38 42.59
  A 1.98 1.96 67.8 0 0 43.42 40.09
  Z"
/>
<path fill="#ffffff" d="
  M 63.52 36.61
  A 0.22 0.22 0.0 0 1 63.75 36.39
  L 74.90 36.47
  A 5.65 3.26 0.4 0 1 80.52 39.77
  L 80.52 40.53
  A 5.65 3.26 0.4 0 1 74.84 43.75
  L 63.69 43.67
  A 0.22 0.22 0.0 0 1 63.48 43.45
  L 63.52 36.61
  Z"
/>
<path fill="#000000" d="
  M 171.58 43.83
  C 170.59 46.35 173.30 47.30 175.38 47.53
  C 180.65 48.12 187.61 48.64 189.05 54.98
  C 192.13 68.54 171.45 66.45 164.47 64.14
  Q 164.00 63.99 164.00 63.49
  L 164.00 58.26
  Q 164.00 57.60 164.59 57.89
  C 167.05 59.07 183.91 63.56 180.53 55.63
  A 1.02 1.01 -4.6 0 0 179.83 55.04
  Q 176.77 54.29 170.51 53.24
  C 163.34 52.04 161.18 42.52 166.82 38.55
  C 171.64 35.16 181.19 36.36 186.83 37.75
  Q 187.25 37.86 187.25 38.29
  L 187.25 43.97
  Q 187.25 44.41 186.85 44.23
  Q 180.40 41.39 173.33 42.44
  A 2.21 2.20 -83.3 0 0 171.58 43.83
  Z"
/>
<path fill="#000000" d="
  M 146.73 61.36
  C 140.27 69.44 128.17 66.86 127.83 55.55
  Q 127.55 46.44 127.84 37.30
  Q 127.85 36.93 128.22 36.93
  L 135.92 37.01
  Q 136.46 37.01 136.47 37.54
  C 136.55 42.17 135.41 53.88 137.45 57.55
  C 138.65 59.73 141.77 59.95 143.85 58.77
  C 149.24 55.72 147.52 42.90 147.50 37.51
  Q 147.49 37.00 148.00 37.00
  L 155.71 36.99
  Q 156.25 36.99 156.25 37.53
  L 156.25 64.75
  Q 156.25 65.25 155.75 65.25
  L 148.01 65.25
  Q 147.51 65.25 147.51 64.75
  L 147.48 61.62
  A 0.42 0.42 0.0 0 0 146.73 61.36
  Z"
/>
<path fill="#ffffff" d="
  M 72.33 60.37
  L 64.39 60.50
  A 0.87 0.87 0.0 0 1 63.50 59.63
  L 63.50 53.76
  Q 63.50 53.26 64.00 53.26
  C 68.16 53.24 77.35 51.82 78.74 57.27
  C 80.00 62.17 80.02 68.16 85.01 71.08
  Q 85.29 71.25 85.62 71.25
  L 100.75 71.25
  Q 101.94 71.25 101.14 72.13
  L 98.39 75.14
  Q 98.03 75.53 97.51 75.43
  L 91.33 74.20
  A 2.22 2.21 -78.4 0 0 88.72 75.92
  L 87.31 82.73
  A 0.82 0.80 -6.4 0 1 86.83 83.32
  Q 71.89 89.78 56.98 83.25
  Q 56.47 83.02 56.35 82.47
  L 54.94 75.85
  A 2.39 2.38 -12.2 0 0 52.10 74.02
  L 46.16 75.32
  Q 45.68 75.43 45.37 75.04
  L 42.72 71.80
  Q 42.27 71.25 42.98 71.25
  L 72.40 71.25
  Q 72.80 71.25 72.80 70.85
  L 72.80 60.83
  Q 72.80 60.37 72.33 60.37
  Z"
/>
<circle fill="#ffffff" cx="49.82" cy="80.64" r="3.09"/>
<circle fill="#ffffff" cx="93.72" cy="80.77" r="3.08"/>
</svg>
