<?xml version="1.0" encoding="UTF-8" standalone="no"?>
<!DOCTYPE svg PUBLIC "-//W3C//DTD SVG 1.1//EN" "http://www.w3.org/Graphics/SVG/1.1/DTD/svg11.dtd">
<svg xmlns="http://www.w3.org/2000/svg" version="1.1" viewBox="0.00 0.00 350.00 100.00">
<g stroke-width="2.00" fill="none" stroke-linecap="butt">
<path stroke="#20a3a7" vector-effect="non-scaling-stroke" d="
  M 100.56 91.37
  C 128.99 71.67 130.19 32.38 103.49 10.70"
/>
<path stroke="#27a8ad" vector-effect="non-scaling-stroke" d="
  M 103.49 10.70
  C 87.37 -1.68 65.18 -3.10 48.01 7.06
  C 24.01 21.26 16.15 51.86 30.65 75.92
  C 45.11 99.91 76.91 106.68 100.56 91.37"
/>
<path stroke="#109398" vector-effect="non-scaling-stroke" d="
  M 103.49 10.70
  Q 101.98 11.14 101.99 12.25
  Q 102.02 21.16 101.99 29.27
  A 2.10 2.09 -80.6 0 1 99.23 31.25
  Q 97.58 30.69 95.76 30.74
  Q 94.61 30.77 95.73 31.05
  L 99.62 32.06
  A 0.62 0.61 53.5 0 1 99.44 33.27
  L 99.16 33.26"
/>
<path stroke="#8bcbce" vector-effect="non-scaling-stroke" d="
  M 99.16 33.26
  C 88.75 30.03 79.24 33.88 73.38 43.14
  Q 73.08 43.61 72.77 43.14
  C 68.02 35.85 60.36 31.27 51.57 32.24
  C 28.41 34.81 30.85 68.49 54.77 67.86"
/>
<path stroke="#109398" vector-effect="non-scaling-stroke" d="
  M 54.77 67.86
  L 55.74 68.07
  A 0.09 0.09 0.0 0 1 55.72 68.25
  Q 55.45 68.26 55.13 68.23
  A 0.12 0.12 0.0 0 0 55.06 68.46
  C 58.89 70.54 65.85 65.89 68.68 63.17
  Q 70.43 61.50 72.44 59.94
  Q 72.85 59.61 73.27 59.94
  C 79.22 64.60 82.95 69.06 91.43 69.30
  C 94.59 69.38 98.22 68.37 101.55 67.77
  Q 102.01 67.69 102.01 68.16
  C 102.01 75.06 103.21 85.11 100.56 91.37"
/>
<path stroke="#84c6c8" vector-effect="non-scaling-stroke" d="
  M 54.77 67.86
  C 62.64 67.52 68.10 63.19 72.73 57.00
  Q 73.06 56.57 73.36 57.02
  C 78.12 64.19 85.70 68.71 94.38 67.77
  C 113.33 65.70 116.68 40.95 99.16 33.26"
/>
<path stroke="#1b5c5e" vector-effect="non-scaling-stroke" d="
  M 183.38 51.89
  C 189.27 51.51 190.80 57.17 193.19 62.60
  A 0.68 0.66 77.6 0 0 193.80 63.00
  L 198.77 63.00
  Q 199.33 63.00 199.13 62.48
  Q 196.80 56.38 192.66 51.39
  Q 192.35 51.02 192.80 50.83
  Q 198.61 48.35 197.58 42.44
  C 196.22 34.60 184.31 36.08 177.73 36.30
  Q 177.25 36.31 177.25 36.79
  L 177.25 62.50
  Q 177.25 63.00 177.75 63.00
  L 182.37 63.00
  Q 183.00 63.00 183.00 62.37
  L 183.00 52.30
  Q 183.00 51.92 183.38 51.89"
/>
<path stroke="#1b5c5e" vector-effect="non-scaling-stroke" d="
  M 229.42 36.19
  Q 229.00 36.19 229.01 36.62
  Q 229.26 45.02 229.37 53.81
  C 229.44 60.19 233.14 63.08 239.00 63.28
  C 246.30 63.54 249.77 61.70 250.26 53.99
  Q 250.78 45.61 250.45 36.72
  A 0.55 0.54 -1.1 0 0 249.90 36.20
  L 245.48 36.27
  Q 245.01 36.28 245.01 36.76
  Q 244.98 45.25 245.02 53.75
  C 245.06 60.75 235.30 60.13 234.79 54.72
  Q 234.08 47.30 234.76 36.66
  Q 234.79 36.18 234.30 36.18
  L 229.42 36.19"
/>
<path stroke="#1b5c5e" vector-effect="non-scaling-stroke" d="
  M 261.50 36.53
  A 0.35 0.35 0.0 0 0 261.15 36.18
  L 256.35 36.18
  A 0.35 0.35 0.0 0 0 256.00 36.53
  L 256.00 62.65
  A 0.35 0.35 0.0 0 0 256.35 63.00
  L 261.15 63.00
  A 0.35 0.35 0.0 0 0 261.50 62.65
  L 261.50 36.53"
/>
<path stroke="#1b5c5e" vector-effect="non-scaling-stroke" d="
  M 318.4339 47.9857
  A 11.66 11.66 0.0 0 0 306.9999 36.1040
  L 304.7603 36.0610
  A 11.66 11.66 0.0 0 0 292.8786 47.4950
  L 292.8061 51.2743
  A 11.66 11.66 0.0 0 0 304.2401 63.1560
  L 306.4797 63.1990
  A 11.66 11.66 0.0 0 0 318.3614 51.7650
  L 318.4339 47.9857"
/>
<path stroke="#1b5c5e" vector-effect="non-scaling-stroke" d="
  M 166.16 57.00
  A 0.33 0.33 0.0 0 1 166.47 57.22
  L 168.40 62.77
  A 0.33 0.33 0.0 0 0 168.71 62.99
  L 174.23 63.01
  A 0.33 0.33 0.0 0 0 174.54 62.55
  L 163.98 36.46
  A 0.33 0.33 0.0 0 0 163.68 36.25
  L 158.70 36.25
  A 0.33 0.33 0.0 0 0 158.39 36.46
  L 148.17 62.55
  A 0.33 0.33 0.0 0 0 148.47 63.00
  L 153.68 63.00
  A 0.33 0.33 0.0 0 0 154.00 62.78
  L 155.90 57.22
  A 0.33 0.33 0.0 0 1 156.22 57.00
  L 166.16 57.00"
/>
<path stroke="#1b5c5e" vector-effect="non-scaling-stroke" d="
  M 202.51 36.48
  L 202.47 62.76
  A 0.24 0.24 0.0 0 0 202.71 63.00
  L 213.84 63.02
  A 11.19 10.89 -89.9 0 0 224.75 51.85
  L 224.75 47.47
  A 11.19 10.89 -89.9 0 0 213.88 36.26
  L 202.75 36.24
  A 0.24 0.24 0.0 0 0 202.51 36.48"
/>
<path stroke="#1b5c5e" vector-effect="non-scaling-stroke" d="
  M 272.00 47.22
  A 0.34 0.34 0.0 0 1 272.63 47.04
  L 282.58 62.84
  A 0.34 0.34 0.0 0 0 282.87 63.00
  L 287.91 63.00
  A 0.34 0.34 0.0 0 0 288.25 62.66
  L 288.25 36.59
  A 0.34 0.34 0.0 0 0 287.91 36.25
  L 283.34 36.25
  A 0.34 0.34 0.0 0 0 283.00 36.59
  L 283.00 52.26
  A 0.34 0.34 0.0 0 1 282.37 52.44
  L 272.41 36.41
  A 0.34 0.34 0.0 0 0 272.12 36.25
  L 267.34 36.25
  A 0.34 0.34 0.0 0 0 267.00 36.59
  L 267.00 62.66
  A 0.34 0.34 0.0 0 0 267.34 63.00
  L 271.66 63.00
  A 0.34 0.34 0.0 0 0 272.00 62.66
  L 272.00 47.22"
/>
<path stroke="#8bcbce" vector-effect="non-scaling-stroke" d="
  M 47.18 40.73
  C 30.50 51.94 55.77 74.55 69.05 50.47
  Q 69.27 50.07 69.05 49.67
  C 64.58 41.57 55.64 35.03 47.18 40.73"
/>
<path stroke="#8bcbce" vector-effect="non-scaling-stroke" d="
  M 99.56 41.19
  C 90.73 34.61 81.46 41.60 77.05 49.40
  Q 76.76 49.91 77.03 50.43
  C 80.16 56.47 86.51 62.14 93.68 61.21
  C 103.72 59.91 108.05 47.52 99.56 41.19"
/>
<path stroke="#1b5c5e" vector-effect="non-scaling-stroke" d="
  M 182.96 41.12
  L 182.94 47.16
  A 0.28 0.28 0.0 0 0 183.22 47.44
  L 188.43 47.46
  A 3.81 2.92 0.2 0 0 192.25 44.56
  L 192.25 43.80
  A 3.81 2.92 0.2 0 0 188.45 40.86
  L 183.24 40.84
  A 0.28 0.28 0.0 0 0 182.96 41.12"
/>
<path stroke="#1b5c5e" vector-effect="non-scaling-stroke" d="
  M 305.4871 58.9093
  A 9.24 7.47 90.7 0 0 313.0694 49.7613
  A 9.24 7.47 90.7 0 0 305.7129 40.4307
  A 9.24 7.47 90.7 0 0 298.1306 49.5787
  A 9.24 7.47 90.7 0 0 305.4871 58.9093"
/>
<path stroke="#1b5c5e" vector-effect="non-scaling-stroke" d="
  M 161.40 43.24
  A 0.33 0.33 0.0 0 0 160.77 43.24
  L 158.06 51.83
  A 0.33 0.33 0.0 0 0 158.37 52.26
  L 163.92 52.24
  A 0.33 0.33 0.0 0 0 164.24 51.81
  L 161.40 43.24"
/>
<path stroke="#1b5c5e" vector-effect="non-scaling-stroke" d="
  M 208.83 40.86
  Q 208.65 40.80 208.48 40.74
  A 0.36 0.36 0.0 0 0 208.00 41.08
  L 208.00 57.74
  Q 208.00 58.20 208.46 58.27
  C 213.31 59.05 218.51 58.45 219.11 53.07
  C 219.97 45.35 218.77 39.49 209.16 40.88
  Q 208.99 40.91 208.83 40.86"
/>
<path stroke="#8bcbce" vector-effect="non-scaling-stroke" d="
  M 60.14 48.62
  A 0.36 0.36 0.0 0 0 59.78 48.26
  L 49.00 48.26
  A 0.36 0.36 0.0 0 0 48.64 48.62
  L 48.64 51.38
  A 0.36 0.36 0.0 0 0 49.00 51.74
  L 59.78 51.74
  A 0.36 0.36 0.0 0 0 60.14 51.38
  L 60.14 48.62"
/>
<path stroke="#8bcbce" vector-effect="non-scaling-stroke" d="
  M 93.94 48.25
  A 0.44 0.44 0.0 0 1 93.50 47.81
  L 93.50 44.69
  A 0.44 0.44 0.0 0 0 93.06 44.25
  L 89.94 44.25
  A 0.44 0.44 0.0 0 0 89.50 44.69
  L 89.50 47.81
  A 0.44 0.44 0.0 0 1 89.06 48.25
  L 86.19 48.25
  A 0.44 0.44 0.0 0 0 85.75 48.69
  L 85.75 51.31
  A 0.44 0.44 0.0 0 0 86.19 51.75
  L 89.06 51.75
  A 0.44 0.44 0.0 0 1 89.50 52.19
  L 89.50 55.31
  A 0.44 0.44 0.0 0 0 89.94 55.75
  L 93.06 55.75
  A 0.44 0.44 0.0 0 0 93.50 55.31
  L 93.50 52.19
  A 0.44 0.44 0.0 0 1 93.94 51.75
  L 96.81 51.75
  A 0.44 0.44 0.0 0 0 97.25 51.31
  L 97.25 48.69
  A 0.44 0.44 0.0 0 0 96.81 48.25
  L 93.94 48.25"
/>
</g>
<path fill="#36b8bc" d="
  M 0.00 0.00
  L 350.00 0.00
  L 350.00 100.00
  L 0.00 100.00
  L 0.00 0.00
  Z
  M 100.56 91.37
  C 128.99 71.67 130.19 32.38 103.49 10.70
  C 87.37 -1.68 65.18 -3.10 48.01 7.06
  C 24.01 21.26 16.15 51.86 30.65 75.92
  C 45.11 99.91 76.91 106.68 100.56 91.37
  Z
  M 183.38 51.89
  C 189.27 51.51 190.80 57.17 193.19 62.60
  A 0.68 0.66 77.6 0 0 193.80 63.00
  L 198.77 63.00
  Q 199.33 63.00 199.13 62.48
  Q 196.80 56.38 192.66 51.39
  Q 192.35 51.02 192.80 50.83
  Q 198.61 48.35 197.58 42.44
  C 196.22 34.60 184.31 36.08 177.73 36.30
  Q 177.25 36.31 177.25 36.79
  L 177.25 62.50
  Q 177.25 63.00 177.75 63.00
  L 182.37 63.00
  Q 183.00 63.00 183.00 62.37
  L 183.00 52.30
  Q 183.00 51.92 183.38 51.89
  Z
  M 229.42 36.19
  Q 229.00 36.19 229.01 36.62
  Q 229.26 45.02 229.37 53.81
  C 229.44 60.19 233.14 63.08 239.00 63.28
  C 246.30 63.54 249.77 61.70 250.26 53.99
  Q 250.78 45.61 250.45 36.72
  A 0.55 0.54 -1.1 0 0 249.90 36.20
  L 245.48 36.27
  Q 245.01 36.28 245.01 36.76
  Q 244.98 45.25 245.02 53.75
  C 245.06 60.75 235.30 60.13 234.79 54.72
  Q 234.08 47.30 234.76 36.66
  Q 234.79 36.18 234.30 36.18
  L 229.42 36.19
  Z
  M 261.50 36.53
  A 0.35 0.35 0.0 0 0 261.15 36.18
  L 256.35 36.18
  A 0.35 0.35 0.0 0 0 256.00 36.53
  L 256.00 62.65
  A 0.35 0.35 0.0 0 0 256.35 63.00
  L 261.15 63.00
  A 0.35 0.35 0.0 0 0 261.50 62.65
  L 261.50 36.53
  Z
  M 318.4339 47.9857
  A 11.66 11.66 0.0 0 0 306.9999 36.1040
  L 304.7603 36.0610
  A 11.66 11.66 0.0 0 0 292.8786 47.4950
  L 292.8061 51.2743
  A 11.66 11.66 0.0 0 0 304.2401 63.1560
  L 306.4797 63.1990
  A 11.66 11.66 0.0 0 0 318.3614 51.7650
  L 318.4339 47.9857
  Z
  M 166.16 57.00
  A 0.33 0.33 0.0 0 1 166.47 57.22
  L 168.40 62.77
  A 0.33 0.33 0.0 0 0 168.71 62.99
  L 174.23 63.01
  A 0.33 0.33 0.0 0 0 174.54 62.55
  L 163.98 36.46
  A 0.33 0.33 0.0 0 0 163.68 36.25
  L 158.70 36.25
  A 0.33 0.33 0.0 0 0 158.39 36.46
  L 148.17 62.55
  A 0.33 0.33 0.0 0 0 148.47 63.00
  L 153.68 63.00
  A 0.33 0.33 0.0 0 0 154.00 62.78
  L 155.90 57.22
  A 0.33 0.33 0.0 0 1 156.22 57.00
  L 166.16 57.00
  Z
  M 202.51 36.48
  L 202.47 62.76
  A 0.24 0.24 0.0 0 0 202.71 63.00
  L 213.84 63.02
  A 11.19 10.89 -89.9 0 0 224.75 51.85
  L 224.75 47.47
  A 11.19 10.89 -89.9 0 0 213.88 36.26
  L 202.75 36.24
  A 0.24 0.24 0.0 0 0 202.51 36.48
  Z
  M 272.00 47.22
  A 0.34 0.34 0.0 0 1 272.63 47.04
  L 282.58 62.84
  A 0.34 0.34 0.0 0 0 282.87 63.00
  L 287.91 63.00
  A 0.34 0.34 0.0 0 0 288.25 62.66
  L 288.25 36.59
  A 0.34 0.34 0.0 0 0 287.91 36.25
  L 283.34 36.25
  A 0.34 0.34 0.0 0 0 283.00 36.59
  L 283.00 52.26
  A 0.34 0.34 0.0 0 1 282.37 52.44
  L 272.41 36.41
  A 0.34 0.34 0.0 0 0 272.12 36.25
  L 267.34 36.25
  A 0.34 0.34 0.0 0 0 267.00 36.59
  L 267.00 62.66
  A 0.34 0.34 0.0 0 0 267.34 63.00
  L 271.66 63.00
  A 0.34 0.34 0.0 0 0 272.00 62.66
  L 272.00 47.22
  Z"
/>
<path fill="#17989e" d="
  M 103.49 10.70
  Q 101.98 11.14 101.99 12.25
  Q 102.02 21.16 101.99 29.27
  A 2.10 2.09 -80.6 0 1 99.23 31.25
  Q 97.58 30.69 95.76 30.74
  Q 94.61 30.77 95.73 31.05
  L 99.62 32.06
  A 0.62 0.61 53.5 0 1 99.44 33.27
  L 99.16 33.26
  C 88.75 30.03 79.24 33.88 73.38 43.14
  Q 73.08 43.61 72.77 43.14
  C 68.02 35.85 60.36 31.27 51.57 32.24
  C 28.41 34.81 30.85 68.49 54.77 67.86
  L 55.74 68.07
  A 0.09 0.09 0.0 0 1 55.72 68.25
  Q 55.45 68.26 55.13 68.23
  A 0.12 0.12 0.0 0 0 55.06 68.46
  C 58.89 70.54 65.85 65.89 68.68 63.17
  Q 70.43 61.50 72.44 59.94
  Q 72.85 59.61 73.27 59.94
  C 79.22 64.60 82.95 69.06 91.43 69.30
  C 94.59 69.38 98.22 68.37 101.55 67.77
  Q 102.01 67.69 102.01 68.16
  C 102.01 75.06 103.21 85.11 100.56 91.37
  C 76.91 106.68 45.11 99.91 30.65 75.92
  C 16.15 51.86 24.01 21.26 48.01 7.06
  C 65.18 -3.10 87.37 -1.68 103.49 10.70
  Z"
/>
<path fill="#098e92" d="
  M 103.49 10.70
  C 130.19 32.38 128.99 71.67 100.56 91.37
  C 103.21 85.11 102.01 75.06 102.01 68.16
  Q 102.01 67.69 101.55 67.77
  C 98.22 68.37 94.59 69.38 91.43 69.30
  C 82.95 69.06 79.22 64.60 73.27 59.94
  Q 72.85 59.61 72.44 59.94
  Q 70.43 61.50 68.68 63.17
  C 65.85 65.89 58.89 70.54 55.06 68.46
  A 0.12 0.12 0.0 0 1 55.13 68.23
  Q 55.45 68.26 55.72 68.25
  A 0.09 0.09 0.0 0 0 55.74 68.07
  L 54.77 67.86
  C 62.64 67.52 68.10 63.19 72.73 57.00
  Q 73.06 56.57 73.36 57.02
  C 78.12 64.19 85.70 68.71 94.38 67.77
  C 113.33 65.70 116.68 40.95 99.16 33.26
  L 99.44 33.27
  A 0.62 0.61 53.5 0 0 99.62 32.06
  L 95.73 31.05
  Q 94.61 30.77 95.76 30.74
  Q 97.58 30.69 99.23 31.25
  A 2.10 2.09 -80.6 0 0 101.99 29.27
  Q 102.02 21.16 101.99 12.25
  Q 101.98 11.14 103.49 10.70
  Z"
/>
<path fill="#fefefe" d="
  M 99.16 33.26
  C 116.68 40.95 113.33 65.70 94.38 67.77
  C 85.70 68.71 78.12 64.19 73.36 57.02
  Q 73.06 56.57 72.73 57.00
  C 68.10 63.19 62.64 67.52 54.77 67.86
  C 30.85 68.49 28.41 34.81 51.57 32.24
  C 60.36 31.27 68.02 35.85 72.77 43.14
  Q 73.08 43.61 73.38 43.14
  C 79.24 33.88 88.75 30.03 99.16 33.26
  Z
  M 47.18 40.73
  C 30.50 51.94 55.77 74.55 69.05 50.47
  Q 69.27 50.07 69.05 49.67
  C 64.58 41.57 55.64 35.03 47.18 40.73
  Z
  M 99.56 41.19
  C 90.73 34.61 81.46 41.60 77.05 49.40
  Q 76.76 49.91 77.03 50.43
  C 80.16 56.47 86.51 62.14 93.68 61.21
  C 103.72 59.91 108.05 47.52 99.56 41.19
  Z"
/>
<path fill="#000000" d="
  M 183.00 52.30
  L 183.00 62.37
  Q 183.00 63.00 182.37 63.00
  L 177.75 63.00
  Q 177.25 63.00 177.25 62.50
  L 177.25 36.79
  Q 177.25 36.31 177.73 36.30
  C 184.31 36.08 196.22 34.60 197.58 42.44
  Q 198.61 48.35 192.80 50.83
  Q 192.35 51.02 192.66 51.39
  Q 196.80 56.38 199.13 62.48
  Q 199.33 63.00 198.77 63.00
  L 193.80 63.00
  A 0.68 0.66 77.6 0 1 193.19 62.60
  C 190.80 57.17 189.27 51.51 183.38 51.89
  Q 183.00 51.92 183.00 52.30
  Z
  M 182.96 41.12
  L 182.94 47.16
  A 0.28 0.28 0.0 0 0 183.22 47.44
  L 188.43 47.46
  A 3.81 2.92 0.2 0 0 192.25 44.56
  L 192.25 43.80
  A 3.81 2.92 0.2 0 0 188.45 40.86
  L 183.24 40.84
  A 0.28 0.28 0.0 0 0 182.96 41.12
  Z"
/>
<path fill="#000000" d="
  M 229.42 36.19
  L 234.30 36.18
  Q 234.79 36.18 234.76 36.66
  Q 234.08 47.30 234.79 54.72
  C 235.30 60.13 245.06 60.75 245.02 53.75
  Q 244.98 45.25 245.01 36.76
  Q 245.01 36.28 245.48 36.27
  L 249.90 36.20
  A 0.55 0.54 -1.1 0 1 250.45 36.72
  Q 250.78 45.61 250.26 53.99
  C 249.77 61.70 246.30 63.54 239.00 63.28
  C 233.14 63.08 229.44 60.19 229.37 53.81
  Q 229.26 45.02 229.01 36.62
  Q 229.00 36.19 229.42 36.19
  Z"
/>
<rect fill="#000000" x="256.00" y="36.18" width="5.50" height="26.82" rx="0.35"/>
<path fill="#000000" d="
  M 318.3614 51.7650
  A 11.66 11.66 0.0 0 1 306.4797 63.1990
  L 304.2401 63.1560
  A 11.66 11.66 0.0 0 1 292.8061 51.2743
  L 292.8786 47.4950
  A 11.66 11.66 0.0 0 1 304.7603 36.0610
  L 306.9999 36.1040
  A 11.66 11.66 0.0 0 1 318.4339 47.9857
  L 318.3614 51.7650
  Z
  M 305.4871 58.9093
  A 9.24 7.47 90.7 0 0 313.0694 49.7613
  A 9.24 7.47 90.7 0 0 305.7129 40.4307
  A 9.24 7.47 90.7 0 0 298.1306 49.5787
  A 9.24 7.47 90.7 0 0 305.4871 58.9093
  Z"
/>
<path fill="#000000" d="
  M 166.16 57.00
  L 156.22 57.00
  A 0.33 0.33 0.0 0 0 155.90 57.22
  L 154.00 62.78
  A 0.33 0.33 0.0 0 1 153.68 63.00
  L 148.47 63.00
  A 0.33 0.33 0.0 0 1 148.17 62.55
  L 158.39 36.46
  A 0.33 0.33 0.0 0 1 158.70 36.25
  L 163.68 36.25
  A 0.33 0.33 0.0 0 1 163.98 36.46
  L 174.54 62.55
  A 0.33 0.33 0.0 0 1 174.23 63.01
  L 168.71 62.99
  A 0.33 0.33 0.0 0 1 168.40 62.77
  L 166.47 57.22
  A 0.33 0.33 0.0 0 0 166.16 57.00
  Z
  M 161.40 43.24
  A 0.33 0.33 0.0 0 0 160.77 43.24
  L 158.06 51.83
  A 0.33 0.33 0.0 0 0 158.37 52.26
  L 163.92 52.24
  A 0.33 0.33 0.0 0 0 164.24 51.81
  L 161.40 43.24
  Z"
/>
<path fill="#000000" d="
  M 202.51 36.48
  A 0.24 0.24 0.0 0 1 202.75 36.24
  L 213.88 36.26
  A 11.19 10.89 -89.9 0 1 224.75 47.47
  L 224.75 51.85
  A 11.19 10.89 -89.9 0 1 213.84 63.02
  L 202.71 63.00
  A 0.24 0.24 0.0 0 1 202.47 62.76
  L 202.51 36.48
  Z
  M 208.83 40.86
  Q 208.65 40.80 208.48 40.74
  A 0.36 0.36 0.0 0 0 208.00 41.08
  L 208.00 57.74
  Q 208.00 58.20 208.46 58.27
  C 213.31 59.05 218.51 58.45 219.11 53.07
  C 219.97 45.35 218.77 39.49 209.16 40.88
  Q 208.99 40.91 208.83 40.86
  Z"
/>
<path fill="#000000" d="
  M 272.00 47.22
  L 272.00 62.66
  A 0.34 0.34 0.0 0 1 271.66 63.00
  L 267.34 63.00
  A 0.34 0.34 0.0 0 1 267.00 62.66
  L 267.00 36.59
  A 0.34 0.34 0.0 0 1 267.34 36.25
  L 272.12 36.25
  A 0.34 0.34 0.0 0 1 272.41 36.41
  L 282.37 52.44
  A 0.34 0.34 0.0 0 0 283.00 52.26
  L 283.00 36.59
  A 0.34 0.34 0.0 0 1 283.34 36.25
  L 287.91 36.25
  A 0.34 0.34 0.0 0 1 288.25 36.59
  L 288.25 62.66
  A 0.34 0.34 0.0 0 1 287.91 63.00
  L 282.87 63.00
  A 0.34 0.34 0.0 0 1 282.58 62.84
  L 272.63 47.04
  A 0.34 0.34 0.0 0 0 272.00 47.22
  Z"
/>
<path fill="#17989e" d="
  M 69.05 50.47
  C 55.77 74.55 30.50 51.94 47.18 40.73
  C 55.64 35.03 64.58 41.57 69.05 49.67
  Q 69.27 50.07 69.05 50.47
  Z
  M 60.14 48.62
  A 0.36 0.36 0.0 0 0 59.78 48.26
  L 49.00 48.26
  A 0.36 0.36 0.0 0 0 48.64 48.62
  L 48.64 51.38
  A 0.36 0.36 0.0 0 0 49.00 51.74
  L 59.78 51.74
  A 0.36 0.36 0.0 0 0 60.14 51.38
  L 60.14 48.62
  Z"
/>
<path fill="#17989e" d="
  M 99.56 41.19
  C 108.05 47.52 103.72 59.91 93.68 61.21
  C 86.51 62.14 80.16 56.47 77.03 50.43
  Q 76.76 49.91 77.05 49.40
  C 81.46 41.60 90.73 34.61 99.56 41.19
  Z
  M 93.94 48.25
  A 0.44 0.44 0.0 0 1 93.50 47.81
  L 93.50 44.69
  A 0.44 0.44 0.0 0 0 93.06 44.25
  L 89.94 44.25
  A 0.44 0.44 0.0 0 0 89.50 44.69
  L 89.50 47.81
  A 0.44 0.44 0.0 0 1 89.06 48.25
  L 86.19 48.25
  A 0.44 0.44 0.0 0 0 85.75 48.69
  L 85.75 51.31
  A 0.44 0.44 0.0 0 0 86.19 51.75
  L 89.06 51.75
  A 0.44 0.44 0.0 0 1 89.50 52.19
  L 89.50 55.31
  A 0.44 0.44 0.0 0 0 89.94 55.75
  L 93.06 55.75
  A 0.44 0.44 0.0 0 0 93.50 55.31
  L 93.50 52.19
  A 0.44 0.44 0.0 0 1 93.94 51.75
  L 96.81 51.75
  A 0.44 0.44 0.0 0 0 97.25 51.31
  L 97.25 48.69
  A 0.44 0.44 0.0 0 0 96.81 48.25
  L 93.94 48.25
  Z"
/>
<ellipse fill="#36b8bc" cx="0.00" cy="0.00" transform="translate(305.60,49.67) rotate(90.7)" rx="9.24" ry="7.47"/>
<path fill="#36b8bc" d="
  M 182.96 41.12
  A 0.28 0.28 0.0 0 1 183.24 40.84
  L 188.45 40.86
  A 3.81 2.92 0.2 0 1 192.25 43.80
  L 192.25 44.56
  A 3.81 2.92 0.2 0 1 188.43 47.46
  L 183.22 47.44
  A 0.28 0.28 0.0 0 1 182.94 47.16
  L 182.96 41.12
  Z"
/>
<path fill="#36b8bc" d="
  M 209.16 40.88
  C 218.77 39.49 219.97 45.35 219.11 53.07
  C 218.51 58.45 213.31 59.05 208.46 58.27
  Q 208.00 58.20 208.00 57.74
  L 208.00 41.08
  A 0.36 0.36 0.0 0 1 208.48 40.74
  Q 208.65 40.80 208.83 40.86
  Q 208.99 40.91 209.16 40.88
  Z"
/>
<path fill="#36b8bc" d="
  M 161.40 43.24
  L 164.24 51.81
  A 0.33 0.33 0.0 0 1 163.92 52.24
  L 158.37 52.26
  A 0.33 0.33 0.0 0 1 158.06 51.83
  L 160.77 43.24
  A 0.33 0.33 0.0 0 1 161.40 43.24
  Z"
/>
<path fill="#fefefe" d="
  M 93.94 48.25
  L 96.81 48.25
  A 0.44 0.44 0.0 0 1 97.25 48.69
  L 97.25 51.31
  A 0.44 0.44 0.0 0 1 96.81 51.75
  L 93.94 51.75
  A 0.44 0.44 0.0 0 0 93.50 52.19
  L 93.50 55.31
  A 0.44 0.44 0.0 0 1 93.06 55.75
  L 89.94 55.75
  A 0.44 0.44 0.0 0 1 89.50 55.31
  L 89.50 52.19
  A 0.44 0.44 0.0 0 0 89.06 51.75
  L 86.19 51.75
  A 0.44 0.44 0.0 0 1 85.75 51.31
  L 85.75 48.69
  A 0.44 0.44 0.0 0 1 86.19 48.25
  L 89.06 48.25
  A 0.44 0.44 0.0 0 0 89.50 47.81
  L 89.50 44.69
  A 0.44 0.44 0.0 0 1 89.94 44.25
  L 93.06 44.25
  A 0.44 0.44 0.0 0 1 93.50 44.69
  L 93.50 47.81
  A 0.44 0.44 0.0 0 0 93.94 48.25
  Z"
/>
<rect fill="#fefefe" x="48.64" y="48.26" width="11.50" height="3.48" rx="0.36"/>
</svg>
