<?xml version="1.0" encoding="UTF-8" standalone="no"?>
<!DOCTYPE svg PUBLIC "-//W3C//DTD SVG 1.1//EN" "http://www.w3.org/Graphics/SVG/1.1/DTD/svg11.dtd">
<svg xmlns="http://www.w3.org/2000/svg" version="1.1" viewBox="0.00 0.00 239.00 100.00">
<g stroke-width="2.00" fill="none" stroke-linecap="butt">
<path stroke="#f77f5d" vector-effect="non-scaling-stroke" d="
  M 19.98 57.41
  C 32.02 70.04 44.66 82.31 57.07 94.59
  C 60.55 98.03 63.67 97.20 66.98 93.89
  Q 86.10 74.78 105.21 55.66
  C 107.83 53.04 109.73 49.62 106.89 46.61
  Q 99.01 38.24 68.14 7.52
  C 64.56 3.97 61.58 1.44 57.23 5.49
  Q 53.22 9.23 49.39 13.30
  A 0.62 0.61 -46.1 0 0 49.40 14.14
  L 58.99 23.91
  A 1.10 1.09 63.6 0 0 59.93 24.23
  C 65.52 23.45 69.91 27.13 68.72 32.89
  A 1.09 1.09 0.0 0 0 69.02 33.87
  L 78.50 43.42
  Q 78.92 43.84 79.51 43.75
  C 84.21 42.96 88.14 45.70 88.24 50.46
  C 88.47 60.91 71.91 59.72 74.52 48.38
  A 1.06 1.05 29.1 0 0 74.23 47.38
  L 65.56 38.77
  A 0.35 0.35 0.0 0 0 64.97 39.02
  L 64.97 62.73
  Q 64.97 63.25 65.37 63.59
  Q 71.16 68.38 67.53 74.05
  C 61.60 83.31 47.84 70.48 58.80 63.57
  Q 59.25 63.29 59.25 62.75
  L 59.25 38.73
  A 1.02 1.00 -72.8 0 0 58.82 37.90
  C 55.98 35.85 53.57 32.67 55.12 28.99
  A 0.84 0.84 0.0 0 0 54.94 28.07
  L 45.09 18.21
  Q 44.76 17.88 44.43 18.21
  Q 30.91 31.68 17.44 45.19
  C 12.35 50.29 15.95 53.19 19.98 57.41"
/>
<path stroke="#a06e43" vector-effect="non-scaling-stroke" d="
  M 179.83 19.80
  A 6.49 6.49 0.0 0 0 173.34 13.31
  A 6.49 6.49 0.0 0 0 166.85 19.80
  A 6.49 6.49 0.0 0 0 173.34 26.29
  A 6.49 6.49 0.0 0 0 179.83 19.80"
/>
<path stroke="#a06e43" vector-effect="non-scaling-stroke" d="
  M 200.75 38.25
  L 210.25 38.25
  Q 210.75 38.25 210.75 37.75
  L 210.75 31.75
  Q 210.75 31.19 210.19 31.19
  L 200.77 31.28
  A 0.52 0.51 -0.0 0 1 200.25 30.77
  L 200.25 20.88
  Q 200.25 20.25 199.62 20.25
  L 193.98 20.25
  Q 193.34 20.25 193.28 20.89
  C 192.73 26.51 190.51 31.29 184.24 31.76
  A 0.53 0.53 0.0 0 0 183.75 32.29
  L 183.75 37.63
  Q 183.75 38.25 184.38 38.25
  L 188.94 38.25
  Q 189.51 38.25 189.51 38.82
  C 189.48 44.81 188.11 59.53 190.70 64.45
  C 194.39 71.49 206.46 69.14 212.23 66.47
  A 0.64 0.63 -21.5 0 0 212.57 65.70
  L 211.01 60.74
  Q 210.83 60.17 210.24 60.30
  C 206.16 61.22 199.96 62.60 200.20 56.53
  C 200.43 50.64 200.18 44.69 200.21 38.79
  Q 200.22 38.25 200.75 38.25"
/>
<path stroke="#a06e43" vector-effect="non-scaling-stroke" d="
  M 184.49 63.76
  A 0.31 0.31 0.0 0 0 184.22 63.45
  L 179.78 62.84
  A 0.31 0.31 0.0 0 1 179.51 62.53
  L 179.50 32.26
  A 0.31 0.31 0.0 0 0 179.19 31.95
  L 165.10 32.00
  A 0.31 0.31 0.0 0 0 164.80 32.27
  L 164.16 37.45
  A 0.31 0.31 0.0 0 0 164.36 37.78
  L 168.74 39.33
  A 0.31 0.31 0.0 0 1 168.95 39.62
  L 168.70 62.51
  A 0.31 0.31 0.0 0 1 168.44 62.81
  L 164.26 63.47
  A 0.31 0.31 0.0 0 0 164.00 63.78
  L 164.00 68.69
  A 0.31 0.31 0.0 0 0 164.31 69.00
  L 184.20 69.00
  A 0.31 0.31 0.0 0 0 184.51 68.69
  L 184.49 63.76"
/>
<path stroke="#a06e43" vector-effect="non-scaling-stroke" d="
  M 154.63 39.06
  L 160.05 38.69
  Q 160.75 38.64 160.75 37.94
  L 160.75 33.04
  Q 160.75 32.53 160.24 32.52
  C 154.55 32.45 149.42 32.57 143.34 32.11
  C 134.45 31.43 125.37 33.47 123.91 43.79
  Q 122.87 51.17 129.36 56.29
  Q 129.78 56.63 129.38 56.99
  C 125.61 60.40 120.01 65.23 126.15 69.55
  Q 126.61 69.87 126.18 70.22
  Q 123.29 72.59 122.92 76.08
  C 121.63 87.97 142.63 86.38 148.98 85.10
  Q 158.87 83.11 160.01 74.27
  C 160.73 68.68 157.77 64.67 152.24 63.77
  Q 143.26 62.33 134.08 62.22
  Q 133.51 62.22 133.80 61.73
  L 135.61 58.62
  Q 135.84 58.23 136.29 58.32
  C 148.15 60.83 162.62 53.58 154.44 39.40
  A 0.23 0.23 0.0 0 1 154.63 39.06"
/>
<path stroke="#a06e43" vector-effect="non-scaling-stroke" d="
  M 147.1886 44.5140
  A 5.55 5.55 0.0 0 0 141.5331 39.0715
  L 139.4935 39.1107
  A 5.55 5.55 0.0 0 0 134.0510 44.7662
  L 134.0714 45.8260
  A 5.55 5.55 0.0 0 0 139.7269 51.2685
  L 141.7665 51.2293
  A 5.55 5.55 0.0 0 0 147.2090 45.5738
  L 147.1886 44.5140"
/>
<path stroke="#a06e43" vector-effect="non-scaling-stroke" d="
  M 146.83 78.22
  C 149.93 77.40 150.94 73.13 146.76 72.74
  Q 144.07 72.49 133.63 71.75
  Q 133.16 71.72 132.82 72.05
  C 130.37 74.48 130.56 77.81 134.42 78.55
  Q 140.91 79.79 146.83 78.22"
/>
</g>
<path fill="#feac86" d="
  M 0.00 0.00
  L 239.00 0.00
  L 239.00 100.00
  L 0.00 100.00
  L 0.00 0.00
  Z
  M 19.98 57.41
  C 32.02 70.04 44.66 82.31 57.07 94.59
  C 60.55 98.03 63.67 97.20 66.98 93.89
  Q 86.10 74.78 105.21 55.66
  C 107.83 53.04 109.73 49.62 106.89 46.61
  Q 99.01 38.24 68.14 7.52
  C 64.56 3.97 61.58 1.44 57.23 5.49
  Q 53.22 9.23 49.39 13.30
  A 0.62 0.61 -46.1 0 0 49.40 14.14
  L 58.99 23.91
  A 1.10 1.09 63.6 0 0 59.93 24.23
  C 65.52 23.45 69.91 27.13 68.72 32.89
  A 1.09 1.09 0.0 0 0 69.02 33.87
  L 78.50 43.42
  Q 78.92 43.84 79.51 43.75
  C 84.21 42.96 88.14 45.70 88.24 50.46
  C 88.47 60.91 71.91 59.72 74.52 48.38
  A 1.06 1.05 29.1 0 0 74.23 47.38
  L 65.56 38.77
  A 0.35 0.35 0.0 0 0 64.97 39.02
  L 64.97 62.73
  Q 64.97 63.25 65.37 63.59
  Q 71.16 68.38 67.53 74.05
  C 61.60 83.31 47.84 70.48 58.80 63.57
  Q 59.25 63.29 59.25 62.75
  L 59.25 38.73
  A 1.02 1.00 -72.8 0 0 58.82 37.90
  C 55.98 35.85 53.57 32.67 55.12 28.99
  A 0.84 0.84 0.0 0 0 54.94 28.07
  L 45.09 18.21
  Q 44.76 17.88 44.43 18.21
  Q 30.91 31.68 17.44 45.19
  C 12.35 50.29 15.95 53.19 19.98 57.41
  Z
  M 179.83 19.80
  A 6.49 6.49 0.0 0 0 173.34 13.31
  A 6.49 6.49 0.0 0 0 166.85 19.80
  A 6.49 6.49 0.0 0 0 173.34 26.29
  A 6.49 6.49 0.0 0 0 179.83 19.80
  Z
  M 200.75 38.25
  L 210.25 38.25
  Q 210.75 38.25 210.75 37.75
  L 210.75 31.75
  Q 210.75 31.19 210.19 31.19
  L 200.77 31.28
  A 0.52 0.51 -0.0 0 1 200.25 30.77
  L 200.25 20.88
  Q 200.25 20.25 199.62 20.25
  L 193.98 20.25
  Q 193.34 20.25 193.28 20.89
  C 192.73 26.51 190.51 31.29 184.24 31.76
  A 0.53 0.53 0.0 0 0 183.75 32.29
  L 183.75 37.63
  Q 183.75 38.25 184.38 38.25
  L 188.94 38.25
  Q 189.51 38.25 189.51 38.82
  C 189.48 44.81 188.11 59.53 190.70 64.45
  C 194.39 71.49 206.46 69.14 212.23 66.47
  A 0.64 0.63 -21.5 0 0 212.57 65.70
  L 211.01 60.74
  Q 210.83 60.17 210.24 60.30
  C 206.16 61.22 199.96 62.60 200.20 56.53
  C 200.43 50.64 200.18 44.69 200.21 38.79
  Q 200.22 38.25 200.75 38.25
  Z
  M 184.49 63.76
  A 0.31 0.31 0.0 0 0 184.22 63.45
  L 179.78 62.84
  A 0.31 0.31 0.0 0 1 179.51 62.53
  L 179.50 32.26
  A 0.31 0.31 0.0 0 0 179.19 31.95
  L 165.10 32.00
  A 0.31 0.31 0.0 0 0 164.80 32.27
  L 164.16 37.45
  A 0.31 0.31 0.0 0 0 164.36 37.78
  L 168.74 39.33
  A 0.31 0.31 0.0 0 1 168.95 39.62
  L 168.70 62.51
  A 0.31 0.31 0.0 0 1 168.44 62.81
  L 164.26 63.47
  A 0.31 0.31 0.0 0 0 164.00 63.78
  L 164.00 68.69
  A 0.31 0.31 0.0 0 0 164.31 69.00
  L 184.20 69.00
  A 0.31 0.31 0.0 0 0 184.51 68.69
  L 184.49 63.76
  Z
  M 154.63 39.06
  L 160.05 38.69
  Q 160.75 38.64 160.75 37.94
  L 160.75 33.04
  Q 160.75 32.53 160.24 32.52
  C 154.55 32.45 149.42 32.57 143.34 32.11
  C 134.45 31.43 125.37 33.47 123.91 43.79
  Q 122.87 51.17 129.36 56.29
  Q 129.78 56.63 129.38 56.99
  C 125.61 60.40 120.01 65.23 126.15 69.55
  Q 126.61 69.87 126.18 70.22
  Q 123.29 72.59 122.92 76.08
  C 121.63 87.97 142.63 86.38 148.98 85.10
  Q 158.87 83.11 160.01 74.27
  C 160.73 68.68 157.77 64.67 152.24 63.77
  Q 143.26 62.33 134.08 62.22
  Q 133.51 62.22 133.80 61.73
  L 135.61 58.62
  Q 135.84 58.23 136.29 58.32
  C 148.15 60.83 162.62 53.58 154.44 39.40
  A 0.23 0.23 0.0 0 1 154.63 39.06
  Z"
/>
<path fill="#f05133" d="
  M 57.07 94.59
  C 44.66 82.31 32.02 70.04 19.98 57.41
  C 15.95 53.19 12.35 50.29 17.44 45.19
  Q 30.91 31.68 44.43 18.21
  Q 44.76 17.88 45.09 18.21
  L 54.94 28.07
  A 0.84 0.84 0.0 0 1 55.12 28.99
  C 53.57 32.67 55.98 35.85 58.82 37.90
  A 1.02 1.00 -72.8 0 1 59.25 38.73
  L 59.25 62.75
  Q 59.25 63.29 58.80 63.57
  C 47.84 70.48 61.60 83.31 67.53 74.05
  Q 71.16 68.38 65.37 63.59
  Q 64.97 63.25 64.97 62.73
  L 64.97 39.02
  A 0.35 0.35 0.0 0 1 65.56 38.77
  L 74.23 47.38
  A 1.06 1.05 29.1 0 1 74.52 48.38
  C 71.91 59.72 88.47 60.91 88.24 50.46
  C 88.14 45.70 84.21 42.96 79.51 43.75
  Q 78.92 43.84 78.50 43.42
  L 69.02 33.87
  A 1.09 1.09 0.0 0 1 68.72 32.89
  C 69.91 27.13 65.52 23.45 59.93 24.23
  A 1.10 1.09 63.6 0 1 58.99 23.91
  L 49.40 14.14
  A 0.62 0.61 -46.1 0 1 49.39 13.30
  Q 53.22 9.23 57.23 5.49
  C 61.58 1.44 64.56 3.97 68.14 7.52
  Q 99.01 38.24 106.89 46.61
  C 109.73 49.62 107.83 53.04 105.21 55.66
  Q 86.10 74.78 66.98 93.89
  C 63.67 97.20 60.55 98.03 57.07 94.59
  Z"
/>
<circle fill="#413000" cx="173.34" cy="19.80" r="6.49"/>
<path fill="#413000" d="
  M 200.21 38.79
  C 200.18 44.69 200.43 50.64 200.20 56.53
  C 199.96 62.60 206.16 61.22 210.24 60.30
  Q 210.83 60.17 211.01 60.74
  L 212.57 65.70
  A 0.64 0.63 -21.5 0 1 212.23 66.47
  C 206.46 69.14 194.39 71.49 190.70 64.45
  C 188.11 59.53 189.48 44.81 189.51 38.82
  Q 189.51 38.25 188.94 38.25
  L 184.38 38.25
  Q 183.75 38.25 183.75 37.63
  L 183.75 32.29
  A 0.53 0.53 0.0 0 1 184.24 31.76
  C 190.51 31.29 192.73 26.51 193.28 20.89
  Q 193.34 20.25 193.98 20.25
  L 199.62 20.25
  Q 200.25 20.25 200.25 20.88
  L 200.25 30.77
  A 0.52 0.51 0.0 0 0 200.77 31.28
  L 210.19 31.19
  Q 210.75 31.19 210.75 31.75
  L 210.75 37.75
  Q 210.75 38.25 210.25 38.25
  L 200.75 38.25
  Q 200.22 38.25 200.21 38.79
  Z"
/>
<path fill="#413000" d="
  M 184.49 63.76
  L 184.51 68.69
  A 0.31 0.31 0.0 0 1 184.20 69.00
  L 164.31 69.00
  A 0.31 0.31 0.0 0 1 164.00 68.69
  L 164.00 63.78
  A 0.31 0.31 0.0 0 1 164.26 63.47
  L 168.44 62.81
  A 0.31 0.31 0.0 0 0 168.70 62.51
  L 168.95 39.62
  A 0.31 0.31 0.0 0 0 168.74 39.33
  L 164.36 37.78
  A 0.31 0.31 0.0 0 1 164.16 37.45
  L 164.80 32.27
  A 0.31 0.31 0.0 0 1 165.10 32.00
  L 179.19 31.95
  A 0.31 0.31 0.0 0 1 179.50 32.26
  L 179.51 62.53
  A 0.31 0.31 0.0 0 0 179.78 62.84
  L 184.22 63.45
  A 0.31 0.31 0.0 0 1 184.49 63.76
  Z"
/>
<path fill="#413000" d="
  M 154.63 39.06
  A 0.23 0.23 0.0 0 0 154.44 39.40
  C 162.62 53.58 148.15 60.83 136.29 58.32
  Q 135.84 58.23 135.61 58.62
  L 133.80 61.73
  Q 133.51 62.22 134.08 62.22
  Q 143.26 62.33 152.24 63.77
  C 157.77 64.67 160.73 68.68 160.01 74.27
  Q 158.87 83.11 148.98 85.10
  C 142.63 86.38 121.63 87.97 122.92 76.08
  Q 123.29 72.59 126.18 70.22
  Q 126.61 69.87 126.15 69.55
  C 120.01 65.23 125.61 60.40 129.38 56.99
  Q 129.78 56.63 129.36 56.29
  Q 122.87 51.17 123.91 43.79
  C 125.37 33.47 134.45 31.43 143.34 32.11
  C 149.42 32.57 154.55 32.45 160.24 32.52
  Q 160.75 32.53 160.75 33.04
  L 160.75 37.94
  Q 160.75 38.64 160.05 38.69
  L 154.63 39.06
  Z
  M 147.1886 44.5140
  A 5.55 5.55 0.0 0 0 141.5331 39.0715
  L 139.4935 39.1107
  A 5.55 5.55 0.0 0 0 134.0510 44.7662
  L 134.0714 45.8260
  A 5.55 5.55 0.0 0 0 139.7269 51.2685
  L 141.7665 51.2293
  A 5.55 5.55 0.0 0 0 147.2090 45.5738
  L 147.1886 44.5140
  Z
  M 146.83 78.22
  C 149.93 77.40 150.94 73.13 146.76 72.74
  Q 144.07 72.49 133.63 71.75
  Q 133.16 71.72 132.82 72.05
  C 130.37 74.48 130.56 77.81 134.42 78.55
  Q 140.91 79.79 146.83 78.22
  Z"
/>
<rect fill="#feac86" x="-6.57" y="-6.08" transform="translate(140.63,45.17) rotate(-1.1)" width="13.14" height="12.16" rx="5.55"/>
<path fill="#feac86" d="
  M 146.76 72.74
  C 150.94 73.13 149.93 77.40 146.83 78.22
  Q 140.91 79.79 134.42 78.55
  C 130.56 77.81 130.37 74.48 132.82 72.05
  Q 133.16 71.72 133.63 71.75
  Q 144.07 72.49 146.76 72.74
  Z"
/>
</svg>
