<?xml version="1.0" encoding="UTF-8" standalone="no"?>
<!DOCTYPE svg PUBLIC "-//W3C//DTD SVG 1.1//EN" "http://www.w3.org/Graphics/SVG/1.1/DTD/svg11.dtd">
<svg xmlns="http://www.w3.org/2000/svg" version="1.1" viewBox="0.00 0.00 287.00 100.00">
<g stroke-width="2.00" fill="none" stroke-linecap="butt">
<path stroke="#1a1a1a" vector-effect="non-scaling-stroke" d="
  M 78.23 99.49
  C 100.98 92.73 114.96 68.76 112.58 46.05
  C 108.06 2.83 56.10 -14.84 25.52 15.60
  C -0.63 41.63 10.27 86.26 44.34 99.04
  C 51.38 101.69 49.37 92.38 49.17 88.19
  Q 49.15 87.64 48.61 87.77
  Q 41.32 89.54 35.24 85.83
  C 32.98 84.44 32.11 81.65 30.91 79.35
  C 29.42 76.47 27.43 74.83 24.98 72.95
  A 1.19 1.19 0.0 0 1 25.90 70.83
  C 30.04 71.55 32.29 72.78 34.65 76.51
  Q 39.41 84.03 48.87 80.85
  A 0.84 0.84 0.0 0 0 49.44 80.18
  Q 49.89 77.09 51.88 74.70
  Q 52.74 73.68 51.41 73.54
  Q 30.13 71.29 29.52 50.02
  Q 29.28 41.35 34.31 35.21
  Q 34.61 34.84 34.48 34.38
  Q 32.54 27.81 35.19 21.52
  A 0.73 0.73 0.0 0 1 35.98 21.08
  Q 43.03 22.22 48.84 26.34
  A 1.04 1.03 -34.9 0 0 49.69 26.49
  Q 62.01 23.30 74.34 26.47
  A 1.14 1.12 -54.8 0 0 75.27 26.30
  Q 80.23 22.90 86.01 21.31
  C 91.75 19.73 90.22 32.14 89.60 34.48
  Q 89.46 34.98 89.78 35.38
  Q 95.75 42.91 94.44 52.82
  Q 91.90 72.14 72.31 73.40
  A 0.63 0.63 0.0 0 0 71.89 74.46
  C 75.79 78.62 74.94 87.82 74.74 95.25
  C 74.67 97.65 75.06 100.43 78.23 99.49"
/>
<path stroke="#808080" vector-effect="non-scaling-stroke" d="
  M 149.68 56.22
  Q 149.67 59.59 145.73 60.24
  C 134.39 62.08 133.41 44.51 142.83 42.91
  Q 146.90 42.21 149.00 46.58
  Q 149.22 47.04 149.72 46.96
  L 154.75 46.22
  Q 155.30 46.14 155.13 45.61
  C 150.26 30.27 127.68 37.36 130.61 54.93
  C 132.63 67.08 146.34 68.01 154.73 62.13
  Q 155.12 61.86 155.18 61.39
  Q 155.90 56.25 155.15 51.11
  Q 155.06 50.48 154.42 50.48
  L 144.23 50.54
  A 0.74 0.73 -0.4 0 0 143.50 51.27
  L 143.50 54.43
  Q 143.50 55.13 144.19 55.18
  L 149.04 55.53
  Q 149.68 55.58 149.68 56.22"
/>
<path stroke="#808080" vector-effect="non-scaling-stroke" d="
  M 165.74 38.41
  A 0.66 0.66 0.0 0 0 165.08 37.75
  L 160.40 37.75
  A 0.66 0.66 0.0 0 0 159.74 38.41
  L 159.74 64.59
  A 0.66 0.66 0.0 0 0 160.40 65.25
  L 165.08 65.25
  A 0.66 0.66 0.0 0 0 165.74 64.59
  L 165.74 38.41"
/>
<path stroke="#808080" vector-effect="non-scaling-stroke" d="
  M 176.45 43.25
  A 0.30 0.30 0.0 0 1 176.75 43.55
  L 176.75 64.95
  A 0.30 0.30 0.0 0 0 177.05 65.25
  L 182.20 65.25
  A 0.30 0.30 0.0 0 0 182.50 64.95
  L 182.50 43.55
  A 0.30 0.30 0.0 0 1 182.80 43.25
  L 189.95 43.25
  A 0.30 0.30 0.0 0 0 190.25 42.95
  L 190.25 38.05
  A 0.30 0.30 0.0 0 0 189.95 37.75
  L 169.05 37.75
  A 0.30 0.30 0.0 0 0 168.75 38.05
  L 168.75 42.95
  A 0.30 0.30 0.0 0 0 169.05 43.25
  L 176.45 43.25"
/>
<path stroke="#808080" vector-effect="non-scaling-stroke" d="
  M 209.47 47.80
  A 0.53 0.53 0.0 0 1 208.96 48.32
  L 200.04 48.57
  A 0.53 0.53 0.0 0 1 199.50 48.04
  L 199.50 38.28
  A 0.53 0.53 0.0 0 0 198.97 37.75
  L 194.03 37.75
  A 0.53 0.53 0.0 0 0 193.50 38.28
  L 193.50 64.72
  A 0.53 0.53 0.0 0 0 194.03 65.25
  L 198.98 65.25
  A 0.53 0.53 0.0 0 0 199.51 64.72
  L 199.48 53.78
  A 0.53 0.53 0.0 0 1 200.01 53.25
  L 208.97 53.25
  A 0.53 0.53 0.0 0 1 209.50 53.78
  L 209.50 64.72
  A 0.53 0.53 0.0 0 0 210.03 65.25
  L 214.72 65.25
  A 0.53 0.53 0.0 0 0 215.25 64.72
  L 215.25 38.28
  A 0.53 0.53 0.0 0 0 214.72 37.75
  L 210.04 37.75
  A 0.53 0.53 0.0 0 0 209.51 38.28
  L 209.47 47.80"
/>
<path stroke="#808080" vector-effect="non-scaling-stroke" d="
  M 220.64 57.42
  C 221.00 67.73 237.72 68.24 241.14 60.80
  C 243.43 55.82 242.27 44.23 242.24 38.25
  Q 242.23 37.75 241.73 37.75
  L 237.24 37.75
  A 0.99 0.99 0.0 0 0 236.25 38.74
  C 236.25 45.14 236.86 52.14 235.45 58.45
  A 1.48 1.46 -12.3 0 1 234.91 59.28
  C 230.76 62.40 226.35 59.74 226.32 54.75
  Q 226.28 46.50 226.23 38.24
  Q 226.22 37.75 225.73 37.75
  L 221.06 37.75
  Q 220.59 37.75 220.57 38.23
  Q 220.31 47.87 220.64 57.42"
/>
<path stroke="#808080" vector-effect="non-scaling-stroke" d="
  M 264.67 50.36
  C 266.04 49.52 267.04 48.69 267.29 46.99
  C 268.95 35.53 254.99 37.57 247.19 37.82
  Q 246.75 37.83 246.75 38.28
  L 246.75 64.74
  Q 246.75 65.22 247.24 65.23
  C 251.81 65.28 259.80 66.11 263.94 64.54
  C 269.93 62.27 270.42 53.98 264.69 50.90
  Q 264.21 50.64 264.67 50.36"
/>
<path stroke="#808080" vector-effect="non-scaling-stroke" d="
  M 253.29 43.70
  L 253.27 48.20
  A 0.29 0.29 0.0 0 0 253.56 48.49
  L 259.01 48.51
  A 2.50 2.38 0.2 0 0 261.52 46.13
  L 261.52 45.81
  A 2.50 2.38 0.2 0 0 259.03 43.43
  L 253.58 43.41
  A 0.29 0.29 0.0 0 0 253.29 43.70"
/>
<path stroke="#808080" vector-effect="non-scaling-stroke" d="
  M 253.27 54.69
  L 253.27 59.17
  A 0.95 0.95 0.0 0 0 254.22 60.12
  L 257.12 60.12
  A 5.39 2.51 0.0 0 0 262.51 57.61
  L 262.51 56.25
  A 5.39 2.51 -0.0 0 0 257.12 53.74
  L 254.22 53.74
  A 0.95 0.95 0.0 0 0 253.27 54.69"
/>
</g>
<path fill="#000000" d="
  M 0.00 0.00
  L 287.00 0.00
  L 287.00 100.00
  L 0.00 100.00
  L 0.00 0.00
  Z
  M 78.23 99.49
  C 100.98 92.73 114.96 68.76 112.58 46.05
  C 108.06 2.83 56.10 -14.84 25.52 15.60
  C -0.63 41.63 10.27 86.26 44.34 99.04
  C 51.38 101.69 49.37 92.38 49.17 88.19
  Q 49.15 87.64 48.61 87.77
  Q 41.32 89.54 35.24 85.83
  C 32.98 84.44 32.11 81.65 30.91 79.35
  C 29.42 76.47 27.43 74.83 24.98 72.95
  A 1.19 1.19 0.0 0 1 25.90 70.83
  C 30.04 71.55 32.29 72.78 34.65 76.51
  Q 39.41 84.03 48.87 80.85
  A 0.84 0.84 0.0 0 0 49.44 80.18
  Q 49.89 77.09 51.88 74.70
  Q 52.74 73.68 51.41 73.54
  Q 30.13 71.29 29.52 50.02
  Q 29.28 41.35 34.31 35.21
  Q 34.61 34.84 34.48 34.38
  Q 32.54 27.81 35.19 21.52
  A 0.73 0.73 0.0 0 1 35.98 21.08
  Q 43.03 22.22 48.84 26.34
  A 1.04 1.03 -34.9 0 0 49.69 26.49
  Q 62.01 23.30 74.34 26.47
  A 1.14 1.12 -54.8 0 0 75.27 26.30
  Q 80.23 22.90 86.01 21.31
  C 91.75 19.73 90.22 32.14 89.60 34.48
  Q 89.46 34.98 89.78 35.38
  Q 95.75 42.91 94.44 52.82
  Q 91.90 72.14 72.31 73.40
  A 0.63 0.63 0.0 0 0 71.89 74.46
  C 75.79 78.62 74.94 87.82 74.74 95.25
  C 74.67 97.65 75.06 100.43 78.23 99.49
  Z
  M 149.68 56.22
  Q 149.67 59.59 145.73 60.24
  C 134.39 62.08 133.41 44.51 142.83 42.91
  Q 146.90 42.21 149.00 46.58
  Q 149.22 47.04 149.72 46.96
  L 154.75 46.22
  Q 155.30 46.14 155.13 45.61
  C 150.26 30.27 127.68 37.36 130.61 54.93
  C 132.63 67.08 146.34 68.01 154.73 62.13
  Q 155.12 61.86 155.18 61.39
  Q 155.90 56.25 155.15 51.11
  Q 155.06 50.48 154.42 50.48
  L 144.23 50.54
  A 0.74 0.73 -0.4 0 0 143.50 51.27
  L 143.50 54.43
  Q 143.50 55.13 144.19 55.18
  L 149.04 55.53
  Q 149.68 55.58 149.68 56.22
  Z
  M 165.74 38.41
  A 0.66 0.66 0.0 0 0 165.08 37.75
  L 160.40 37.75
  A 0.66 0.66 0.0 0 0 159.74 38.41
  L 159.74 64.59
  A 0.66 0.66 0.0 0 0 160.40 65.25
  L 165.08 65.25
  A 0.66 0.66 0.0 0 0 165.74 64.59
  L 165.74 38.41
  Z
  M 176.45 43.25
  A 0.30 0.30 0.0 0 1 176.75 43.55
  L 176.75 64.95
  A 0.30 0.30 0.0 0 0 177.05 65.25
  L 182.20 65.25
  A 0.30 0.30 0.0 0 0 182.50 64.95
  L 182.50 43.55
  A 0.30 0.30 0.0 0 1 182.80 43.25
  L 189.95 43.25
  A 0.30 0.30 0.0 0 0 190.25 42.95
  L 190.25 38.05
  A 0.30 0.30 0.0 0 0 189.95 37.75
  L 169.05 37.75
  A 0.30 0.30 0.0 0 0 168.75 38.05
  L 168.75 42.95
  A 0.30 0.30 0.0 0 0 169.05 43.25
  L 176.45 43.25
  Z
  M 209.47 47.80
  A 0.53 0.53 0.0 0 1 208.96 48.32
  L 200.04 48.57
  A 0.53 0.53 0.0 0 1 199.50 48.04
  L 199.50 38.28
  A 0.53 0.53 0.0 0 0 198.97 37.75
  L 194.03 37.75
  A 0.53 0.53 0.0 0 0 193.50 38.28
  L 193.50 64.72
  A 0.53 0.53 0.0 0 0 194.03 65.25
  L 198.98 65.25
  A 0.53 0.53 0.0 0 0 199.51 64.72
  L 199.48 53.78
  A 0.53 0.53 0.0 0 1 200.01 53.25
  L 208.97 53.25
  A 0.53 0.53 0.0 0 1 209.50 53.78
  L 209.50 64.72
  A 0.53 0.53 0.0 0 0 210.03 65.25
  L 214.72 65.25
  A 0.53 0.53 0.0 0 0 215.25 64.72
  L 215.25 38.28
  A 0.53 0.53 0.0 0 0 214.72 37.75
  L 210.04 37.75
  A 0.53 0.53 0.0 0 0 209.51 38.28
  L 209.47 47.80
  Z
  M 220.64 57.42
  C 221.00 67.73 237.72 68.24 241.14 60.80
  C 243.43 55.82 242.27 44.23 242.24 38.25
  Q 242.23 37.75 241.73 37.75
  L 237.24 37.75
  A 0.99 0.99 0.0 0 0 236.25 38.74
  C 236.25 45.14 236.86 52.14 235.45 58.45
  A 1.48 1.46 -12.3 0 1 234.91 59.28
  C 230.76 62.40 226.35 59.74 226.32 54.75
  Q 226.28 46.50 226.23 38.24
  Q 226.22 37.75 225.73 37.75
  L 221.06 37.75
  Q 220.59 37.75 220.57 38.23
  Q 220.31 47.87 220.64 57.42
  Z
  M 264.67 50.36
  C 266.04 49.52 267.04 48.69 267.29 46.99
  C 268.95 35.53 254.99 37.57 247.19 37.82
  Q 246.75 37.83 246.75 38.28
  L 246.75 64.74
  Q 246.75 65.22 247.24 65.23
  C 251.81 65.28 259.80 66.11 263.94 64.54
  C 269.93 62.27 270.42 53.98 264.69 50.90
  Q 264.21 50.64 264.67 50.36
  Z"
/>
<path fill="#333333" d="
  M 112.58 46.05
  C 114.96 68.76 100.98 92.73 78.23 99.49
  C 75.06 100.43 74.67 97.65 74.74 95.25
  C 74.94 87.82 75.79 78.62 71.89 74.46
  A 0.63 0.63 0.0 0 1 72.31 73.40
  Q 91.90 72.14 94.44 52.82
  Q 95.75 42.91 89.78 35.38
  Q 89.46 34.98 89.60 34.48
  C 90.22 32.14 91.75 19.73 86.01 21.31
  Q 80.23 22.90 75.27 26.30
  A 1.14 1.12 -54.8 0 1 74.34 26.47
  Q 62.01 23.30 49.69 26.49
  A 1.04 1.03 -34.9 0 1 48.84 26.34
  Q 43.03 22.22 35.98 21.08
  A 0.73 0.73 0.0 0 0 35.19 21.52
  Q 32.54 27.81 34.48 34.38
  Q 34.61 34.84 34.31 35.21
  Q 29.28 41.35 29.52 50.02
  Q 30.13 71.29 51.41 73.54
  Q 52.74 73.68 51.88 74.70
  Q 49.89 77.09 49.44 80.18
  A 0.84 0.84 0.0 0 1 48.87 80.85
  Q 39.41 84.03 34.65 76.51
  C 32.29 72.78 30.04 71.55 25.90 70.83
  A 1.19 1.19 0.0 0 0 24.98 72.95
  C 27.43 74.83 29.42 76.47 30.91 79.35
  C 32.11 81.65 32.98 84.44 35.24 85.83
  Q 41.32 89.54 48.61 87.77
  Q 49.15 87.64 49.17 88.19
  C 49.37 92.38 51.38 101.69 44.34 99.04
  C 10.27 86.26 -0.63 41.63 25.52 15.60
  C 56.10 -14.84 108.06 2.83 112.58 46.05
  Z"
/>
<path fill="#ffffff" d="
  M 149.04 55.53
  L 144.19 55.18
  Q 143.50 55.13 143.50 54.43
  L 143.50 51.27
  A 0.74 0.73 -0.4 0 1 144.23 50.54
  L 154.42 50.48
  Q 155.06 50.48 155.15 51.11
  Q 155.90 56.25 155.18 61.39
  Q 155.12 61.86 154.73 62.13
  C 146.34 68.01 132.63 67.08 130.61 54.93
  C 127.68 37.36 150.26 30.27 155.13 45.61
  Q 155.30 46.14 154.75 46.22
  L 149.72 46.96
  Q 149.22 47.04 149.00 46.58
  Q 146.90 42.21 142.83 42.91
  C 133.41 44.51 134.39 62.08 145.73 60.24
  Q 149.67 59.59 149.68 56.22
  Q 149.68 55.58 149.04 55.53
  Z"
/>
<rect fill="#ffffff" x="159.74" y="37.75" width="6.00" height="27.50" rx="0.66"/>
<path fill="#ffffff" d="
  M 176.45 43.25
  L 169.05 43.25
  A 0.30 0.30 0.0 0 1 168.75 42.95
  L 168.75 38.05
  A 0.30 0.30 0.0 0 1 169.05 37.75
  L 189.95 37.75
  A 0.30 0.30 0.0 0 1 190.25 38.05
  L 190.25 42.95
  A 0.30 0.30 0.0 0 1 189.95 43.25
  L 182.80 43.25
  A 0.30 0.30 0.0 0 0 182.50 43.55
  L 182.50 64.95
  A 0.30 0.30 0.0 0 1 182.20 65.25
  L 177.05 65.25
  A 0.30 0.30 0.0 0 1 176.75 64.95
  L 176.75 43.55
  A 0.30 0.30 0.0 0 0 176.45 43.25
  Z"
/>
<path fill="#ffffff" d="
  M 209.47 47.80
  L 209.51 38.28
  A 0.53 0.53 0.0 0 1 210.04 37.75
  L 214.72 37.75
  A 0.53 0.53 0.0 0 1 215.25 38.28
  L 215.25 64.72
  A 0.53 0.53 0.0 0 1 214.72 65.25
  L 210.03 65.25
  A 0.53 0.53 0.0 0 1 209.50 64.72
  L 209.50 53.78
  A 0.53 0.53 0.0 0 0 208.97 53.25
  L 200.01 53.25
  A 0.53 0.53 0.0 0 0 199.48 53.78
  L 199.51 64.72
  A 0.53 0.53 0.0 0 1 198.98 65.25
  L 194.03 65.25
  A 0.53 0.53 0.0 0 1 193.50 64.72
  L 193.50 38.28
  A 0.53 0.53 0.0 0 1 194.03 37.75
  L 198.97 37.75
  A 0.53 0.53 0.0 0 1 199.50 38.28
  L 199.50 48.04
  A 0.53 0.53 0.0 0 0 200.04 48.57
  L 208.96 48.32
  A 0.53 0.53 0.0 0 0 209.47 47.80
  Z"
/>
<path fill="#ffffff" d="
  M 241.14 60.80
  C 237.72 68.24 221.00 67.73 220.64 57.42
  Q 220.31 47.87 220.57 38.23
  Q 220.59 37.75 221.06 37.75
  L 225.73 37.75
  Q 226.22 37.75 226.23 38.24
  Q 226.28 46.50 226.32 54.75
  C 226.35 59.74 230.76 62.40 234.91 59.28
  A 1.48 1.46 -12.3 0 0 235.45 58.45
  C 236.86 52.14 236.25 45.14 236.25 38.74
  A 0.99 0.99 0.0 0 1 237.24 37.75
  L 241.73 37.75
  Q 242.23 37.75 242.24 38.25
  C 242.27 44.23 243.43 55.82 241.14 60.80
  Z"
/>
<path fill="#ffffff" d="
  M 264.69 50.90
  C 270.42 53.98 269.93 62.27 263.94 64.54
  C 259.80 66.11 251.81 65.28 247.24 65.23
  Q 246.75 65.22 246.75 64.74
  L 246.75 38.28
  Q 246.75 37.83 247.19 37.82
  C 254.99 37.57 268.95 35.53 267.29 46.99
  C 267.04 48.69 266.04 49.52 264.67 50.36
  Q 264.21 50.64 264.69 50.90
  Z
  M 253.29 43.70
  L 253.27 48.20
  A 0.29 0.29 0.0 0 0 253.56 48.49
  L 259.01 48.51
  A 2.50 2.38 0.2 0 0 261.52 46.13
  L 261.52 45.81
  A 2.50 2.38 0.2 0 0 259.03 43.43
  L 253.58 43.41
  A 0.29 0.29 0.0 0 0 253.29 43.70
  Z
  M 253.27 54.69
  L 253.27 59.17
  A 0.95 0.95 0.0 0 0 254.22 60.12
  L 257.12 60.12
  A 5.39 2.51 0.0 0 0 262.51 57.61
  L 262.51 56.25
  A 5.39 2.51 -0.0 0 0 257.12 53.74
  L 254.22 53.74
  A 0.95 0.95 0.0 0 0 253.27 54.69
  Z"
/>
<path fill="#000000" d="
  M 253.29 43.70
  A 0.29 0.29 0.0 0 1 253.58 43.41
  L 259.03 43.43
  A 2.50 2.38 0.2 0 1 261.52 45.81
  L 261.52 46.13
  A 2.50 2.38 0.2 0 1 259.01 48.51
  L 253.56 48.49
  A 0.29 0.29 0.0 0 1 253.27 48.20
  L 253.29 43.70
  Z"
/>
<path fill="#000000" d="
  M 253.27 54.69
  A 0.95 0.95 0.0 0 1 254.22 53.74
  L 257.12 53.74
  A 5.39 2.51 0.0 0 1 262.51 56.25
  L 262.51 57.61
  A 5.39 2.51 -0.0 0 1 257.12 60.12
  L 254.22 60.12
  A 0.95 0.95 0.0 0 1 253.27 59.17
  L 253.27 54.69
  Z"
/>
</svg>
