<?xml version="1.0" encoding="UTF-8" standalone="no"?>
<!DOCTYPE svg PUBLIC "-//W3C//DTD SVG 1.1//EN" "http://www.w3.org/Graphics/SVG/1.1/DTD/svg11.dtd">
<svg xmlns="http://www.w3.org/2000/svg" version="1.1" viewBox="0.00 0.00 287.00 100.00">
<g stroke-width="2.00" fill="none" stroke-linecap="butt">
<path stroke="#fe8b2c" vector-effect="non-scaling-stroke" d="
  M 18.75 38.56
  L 18.32 39.10
  Q 18.01 39.49 17.87 39.96
  Q 15.08 48.73 12.47 57.57
  Q 11.66 60.29 13.14 61.37
  Q 38.36 79.76 63.57 98.16
  Q 63.97 98.45 64.46 98.36
  Q 65.01 98.25 65.03 97.74"
/>
<path stroke="#f15b2e" vector-effect="non-scaling-stroke" d="
  M 65.03 97.74
  L 65.90 98.76
  Q 66.17 99.07 66.43 98.76
  Q 66.92 98.17 67.04 99.09"
/>
<path stroke="#fe8b2c" vector-effect="non-scaling-stroke" d="
  M 67.04 99.09
  Q 92.44 81.12 117.11 62.39
  C 119.06 60.91 120.72 60.46 119.70 57.26
  Q 116.88 48.37 114.01 39.32
  A 0.44 0.44 0.0 0 0 113.24 39.19
  Q 90.99 67.77 68.65 96.66
  Q 67.96 97.55 67.31 97.52"
/>
<path stroke="#f15b2e" vector-effect="non-scaling-stroke" d="
  M 67.31 97.52
  Q 67.15 96.59 67.26 96.25
  Q 76.40 67.72 85.64 39.38
  A 0.67 0.67 0.0 0 0 85.00 38.50
  L 47.02 38.50
  A 0.57 0.56 80.9 0 0 46.49 39.24
  L 65.03 97.74"
/>
<path stroke="#fe8b2c" vector-effect="non-scaling-stroke" d="
  M 65.03 97.74
  Q 63.75 97.05 63.18 96.32
  Q 41.23 68.02 19.23 39.76
  Q 19.05 39.53 18.75 38.56"
/>
<path stroke="#f15b2e" vector-effect="non-scaling-stroke" d="
  M 18.75 38.56
  L 45.51 38.50
  Q 46.06 38.50 45.89 37.97
  Q 40.12 19.91 34.24 1.88
  C 33.40 -0.70 30.89 -0.18 30.14 2.14
  Q 24.38 19.96 18.61 37.79
  Q 18.38 38.49 18.75 38.56"
/>
<path stroke="#ef7328" vector-effect="non-scaling-stroke" d="
  M 67.31 97.52
  Q 66.50 98.28 67.04 99.09"
/>
<path stroke="#f15b2e" vector-effect="non-scaling-stroke" d="
  M 112.95 38.60
  Q 113.18 38.83 113.39 38.71
  Q 113.78 38.49 113.64 38.07
  Q 107.56 19.67 101.50 1.59
  Q 100.79 -0.53 98.83 0.58
  A 2.34 2.30 84.5 0 0 97.78 1.87
  L 86.20 37.74
  Q 85.96 38.50 86.76 38.50
  L 112.71 38.50
  Q 112.85 38.50 112.95 38.60"
/>
<path stroke="#803a19" vector-effect="non-scaling-stroke" d="
  M 153.55 52.39
  C 154.37 54.81 153.58 56.22 151.23 57.06
  C 137.86 61.80 136.33 39.43 147.99 39.57
  Q 152.06 39.62 153.18 43.35
  Q 153.30 43.77 153.73 43.69
  L 158.30 42.87
  Q 158.67 42.80 158.56 42.43
  Q 156.73 36.28 150.78 35.22
  C 141.43 33.54 134.90 39.22 134.64 48.24
  C 134.24 62.49 148.85 66.01 158.62 58.70
  Q 159.04 58.38 159.04 57.86
  L 158.98 47.99
  Q 158.98 47.50 158.49 47.50
  L 148.00 47.50
  Q 147.50 47.50 147.50 48.00
  L 147.50 51.66
  Q 147.50 52.32 148.16 52.30
  L 153.18 52.13
  Q 153.46 52.12 153.55 52.39"
/>
<path stroke="#803a19" vector-effect="non-scaling-stroke" d="
  M 169.64 35.47
  A 0.27 0.27 0.0 0 0 169.37 35.20
  L 164.27 35.20
  A 0.27 0.27 0.0 0 0 164.00 35.47
  L 164.00 61.73
  A 0.27 0.27 0.0 0 0 164.27 62.00
  L 169.37 62.00
  A 0.27 0.27 0.0 0 0 169.64 61.73
  L 169.64 35.47"
/>
<path stroke="#803a19" vector-effect="non-scaling-stroke" d="
  M 180.67 40.00
  A 0.33 0.33 0.0 0 1 181.00 40.33
  L 181.00 61.67
  A 0.33 0.33 0.0 0 0 181.33 62.00
  L 186.10 62.00
  A 0.33 0.33 0.0 0 0 186.43 61.67
  L 186.48 40.20
  A 0.33 0.33 0.0 0 1 186.82 39.87
  L 193.66 40.06
  A 0.33 0.33 0.0 0 0 194.00 39.73
  L 194.00 35.58
  A 0.33 0.33 0.0 0 0 193.67 35.25
  L 173.56 35.23
  A 0.33 0.33 0.0 0 0 173.23 35.55
  L 173.11 39.66
  A 0.33 0.33 0.0 0 0 173.44 40.00
  L 180.67 40.00"
/>
<path stroke="#803a19" vector-effect="non-scaling-stroke" d="
  M 203.58 57.29
  A 0.33 0.33 0.0 0 1 203.25 56.96
  L 203.25 35.45
  A 0.33 0.33 0.0 0 0 202.91 35.12
  L 198.07 35.31
  A 0.33 0.33 0.0 0 0 197.75 35.64
  L 197.75 61.67
  A 0.33 0.33 0.0 0 0 198.08 62.00
  L 214.66 62.00
  A 0.33 0.33 0.0 0 0 214.99 61.68
  L 215.14 57.57
  A 0.33 0.33 0.0 0 0 214.81 57.23
  L 203.58 57.29"
/>
<path stroke="#803a19" vector-effect="non-scaling-stroke" d="
  M 234.27 56.00
  A 0.33 0.33 0.0 0 1 234.59 56.22
  L 236.49 61.78
  A 0.33 0.33 0.0 0 0 236.81 62.00
  L 242.30 62.00
  A 0.33 0.33 0.0 0 0 242.61 61.55
  L 232.11 35.46
  A 0.33 0.33 0.0 0 0 231.81 35.25
  L 226.82 35.25
  A 0.33 0.33 0.0 0 0 226.52 35.46
  L 216.26 61.55
  A 0.33 0.33 0.0 0 0 216.56 62.00
  L 221.76 62.00
  A 0.33 0.33 0.0 0 0 222.07 61.78
  L 224.08 56.22
  A 0.33 0.33 0.0 0 1 224.39 56.00
  L 234.27 56.00"
/>
<path stroke="#803a19" vector-effect="non-scaling-stroke" d="
  M 262.53 47.15
  C 265.92 44.63 266.38 40.22 263.55 37.45
  C 260.29 34.27 250.22 35.10 245.85 35.33
  Q 245.47 35.35 245.47 35.73
  L 245.51 61.29
  Q 245.51 61.81 246.04 61.86
  C 251.97 62.35 266.22 63.82 266.71 54.88
  Q 266.96 50.45 262.58 47.98
  Q 261.92 47.61 262.53 47.15"
/>
<path stroke="#803a19" vector-effect="non-scaling-stroke" d="
  M 228.96 42.23
  L 226.21 50.71
  Q 226.03 51.25 226.60 51.25
  L 231.85 51.25
  Q 232.55 51.25 232.32 50.59
  L 229.45 42.23
  Q 229.20 41.50 228.96 42.23"
/>
<path stroke="#803a19" vector-effect="non-scaling-stroke" d="
  M 250.98 40.46
  L 251.00 45.18
  A 0.64 0.64 0.0 0 0 251.64 45.81
  L 256.56 45.80
  A 3.46 2.43 -0.2 0 0 260.01 43.35
  L 260.01 42.21
  A 3.46 2.43 -0.2 0 0 256.54 39.80
  L 251.62 39.81
  A 0.64 0.64 0.0 0 0 250.98 40.46"
/>
<path stroke="#803a19" vector-effect="non-scaling-stroke" d="
  M 251.01 51.11
  L 250.99 56.83
  A 0.61 0.61 0.0 0 0 251.60 57.44
  L 257.13 57.46
  A 3.88 3.05 0.2 0 0 261.02 54.43
  L 261.02 53.59
  A 3.88 3.05 0.2 0 0 257.15 50.52
  L 251.62 50.50
  A 0.61 0.61 0.0 0 0 251.01 51.11"
/>
</g>
<path fill="#ff7332" d="
  M 0.00 0.00
  L 287.00 0.00
  L 287.00 100.00
  L 0.00 100.00
  L 0.00 0.00
  Z
  M 18.75 38.56
  L 18.32 39.10
  Q 18.01 39.49 17.87 39.96
  Q 15.08 48.73 12.47 57.57
  Q 11.66 60.29 13.14 61.37
  Q 38.36 79.76 63.57 98.16
  Q 63.97 98.45 64.46 98.36
  Q 65.01 98.25 65.03 97.74
  L 65.90 98.76
  Q 66.17 99.07 66.43 98.76
  Q 66.92 98.17 67.04 99.09
  Q 92.44 81.12 117.11 62.39
  C 119.06 60.91 120.72 60.46 119.70 57.26
  Q 116.88 48.37 114.01 39.32
  A 0.44 0.44 0.0 0 0 113.24 39.19
  Q 90.99 67.77 68.65 96.66
  Q 67.96 97.55 67.31 97.52
  Q 67.15 96.59 67.26 96.25
  Q 76.40 67.72 85.64 39.38
  A 0.67 0.67 0.0 0 0 85.00 38.50
  L 47.02 38.50
  A 0.57 0.56 80.9 0 0 46.49 39.24
  L 65.03 97.74
  Q 63.75 97.05 63.18 96.32
  Q 41.23 68.02 19.23 39.76
  Q 19.05 39.53 18.75 38.56
  L 45.51 38.50
  Q 46.06 38.50 45.89 37.97
  Q 40.12 19.91 34.24 1.88
  C 33.40 -0.70 30.89 -0.18 30.14 2.14
  Q 24.38 19.96 18.61 37.79
  Q 18.38 38.49 18.75 38.56
  Z
  M 112.95 38.60
  Q 113.18 38.83 113.39 38.71
  Q 113.78 38.49 113.64 38.07
  Q 107.56 19.67 101.50 1.59
  Q 100.79 -0.53 98.83 0.58
  A 2.34 2.30 84.5 0 0 97.78 1.87
  L 86.20 37.74
  Q 85.96 38.50 86.76 38.50
  L 112.71 38.50
  Q 112.85 38.50 112.95 38.60
  Z
  M 153.55 52.39
  C 154.37 54.81 153.58 56.22 151.23 57.06
  C 137.86 61.80 136.33 39.43 147.99 39.57
  Q 152.06 39.62 153.18 43.35
  Q 153.30 43.77 153.73 43.69
  L 158.30 42.87
  Q 158.67 42.80 158.56 42.43
  Q 156.73 36.28 150.78 35.22
  C 141.43 33.54 134.90 39.22 134.64 48.24
  C 134.24 62.49 148.85 66.01 158.62 58.70
  Q 159.04 58.38 159.04 57.86
  L 158.98 47.99
  Q 158.98 47.50 158.49 47.50
  L 148.00 47.50
  Q 147.50 47.50 147.50 48.00
  L 147.50 51.66
  Q 147.50 52.32 148.16 52.30
  L 153.18 52.13
  Q 153.46 52.12 153.55 52.39
  Z
  M 169.64 35.47
  A 0.27 0.27 0.0 0 0 169.37 35.20
  L 164.27 35.20
  A 0.27 0.27 0.0 0 0 164.00 35.47
  L 164.00 61.73
  A 0.27 0.27 0.0 0 0 164.27 62.00
  L 169.37 62.00
  A 0.27 0.27 0.0 0 0 169.64 61.73
  L 169.64 35.47
  Z
  M 180.67 40.00
  A 0.33 0.33 0.0 0 1 181.00 40.33
  L 181.00 61.67
  A 0.33 0.33 0.0 0 0 181.33 62.00
  L 186.10 62.00
  A 0.33 0.33 0.0 0 0 186.43 61.67
  L 186.48 40.20
  A 0.33 0.33 0.0 0 1 186.82 39.87
  L 193.66 40.06
  A 0.33 0.33 0.0 0 0 194.00 39.73
  L 194.00 35.58
  A 0.33 0.33 0.0 0 0 193.67 35.25
  L 173.56 35.23
  A 0.33 0.33 0.0 0 0 173.23 35.55
  L 173.11 39.66
  A 0.33 0.33 0.0 0 0 173.44 40.00
  L 180.67 40.00
  Z
  M 203.58 57.29
  A 0.33 0.33 0.0 0 1 203.25 56.96
  L 203.25 35.45
  A 0.33 0.33 0.0 0 0 202.91 35.12
  L 198.07 35.31
  A 0.33 0.33 0.0 0 0 197.75 35.64
  L 197.75 61.67
  A 0.33 0.33 0.0 0 0 198.08 62.00
  L 214.66 62.00
  A 0.33 0.33 0.0 0 0 214.99 61.68
  L 215.14 57.57
  A 0.33 0.33 0.0 0 0 214.81 57.23
  L 203.58 57.29
  Z
  M 234.27 56.00
  A 0.33 0.33 0.0 0 1 234.59 56.22
  L 236.49 61.78
  A 0.33 0.33 0.0 0 0 236.81 62.00
  L 242.30 62.00
  A 0.33 0.33 0.0 0 0 242.61 61.55
  L 232.11 35.46
  A 0.33 0.33 0.0 0 0 231.81 35.25
  L 226.82 35.25
  A 0.33 0.33 0.0 0 0 226.52 35.46
  L 216.26 61.55
  A 0.33 0.33 0.0 0 0 216.56 62.00
  L 221.76 62.00
  A 0.33 0.33 0.0 0 0 222.07 61.78
  L 224.08 56.22
  A 0.33 0.33 0.0 0 1 224.39 56.00
  L 234.27 56.00
  Z
  M 262.53 47.15
  C 265.92 44.63 266.38 40.22 263.55 37.45
  C 260.29 34.27 250.22 35.10 245.85 35.33
  Q 245.47 35.35 245.47 35.73
  L 245.51 61.29
  Q 245.51 61.81 246.04 61.86
  C 251.97 62.35 266.22 63.82 266.71 54.88
  Q 266.96 50.45 262.58 47.98
  Q 261.92 47.61 262.53 47.15
  Z"
/>
<path fill="#e24329" d="
  M 18.75 38.56
  Q 18.38 38.49 18.61 37.79
  Q 24.38 19.96 30.14 2.14
  C 30.89 -0.18 33.40 -0.70 34.24 1.88
  Q 40.12 19.91 45.89 37.97
  Q 46.06 38.50 45.51 38.50
  L 18.75 38.56
  Z"
/>
<path fill="#e24329" d="
  M 112.71 38.50
  L 86.76 38.50
  Q 85.96 38.50 86.20 37.74
  L 97.78 1.87
  A 2.34 2.30 84.5 0 1 98.83 0.58
  Q 100.79 -0.53 101.50 1.59
  Q 107.56 19.67 113.64 38.07
  Q 113.78 38.49 113.39 38.71
  Q 113.18 38.83 112.95 38.60
  Q 112.85 38.50 112.71 38.50
  Z"
/>
<path fill="#000000" d="
  M 153.18 52.13
  L 148.16 52.30
  Q 147.50 52.32 147.50 51.66
  L 147.50 48.00
  Q 147.50 47.50 148.00 47.50
  L 158.49 47.50
  Q 158.98 47.50 158.98 47.99
  L 159.04 57.86
  Q 159.04 58.38 158.62 58.70
  C 148.85 66.01 134.24 62.49 134.64 48.24
  C 134.90 39.22 141.43 33.54 150.78 35.22
  Q 156.73 36.28 158.56 42.43
  Q 158.67 42.80 158.30 42.87
  L 153.73 43.69
  Q 153.30 43.77 153.18 43.35
  Q 152.06 39.62 147.99 39.57
  C 136.33 39.43 137.86 61.80 151.23 57.06
  C 153.58 56.22 154.37 54.81 153.55 52.39
  Q 153.46 52.12 153.18 52.13
  Z"
/>
<rect fill="#000000" x="164.00" y="35.20" width="5.64" height="26.80" rx="0.27"/>
<path fill="#000000" d="
  M 180.67 40.00
  L 173.44 40.00
  A 0.33 0.33 0.0 0 1 173.11 39.66
  L 173.23 35.55
  A 0.33 0.33 0.0 0 1 173.56 35.23
  L 193.67 35.25
  A 0.33 0.33 0.0 0 1 194.00 35.58
  L 194.00 39.73
  A 0.33 0.33 0.0 0 1 193.66 40.06
  L 186.82 39.87
  A 0.33 0.33 0.0 0 0 186.48 40.20
  L 186.43 61.67
  A 0.33 0.33 0.0 0 1 186.10 62.00
  L 181.33 62.00
  A 0.33 0.33 0.0 0 1 181.00 61.67
  L 181.00 40.33
  A 0.33 0.33 0.0 0 0 180.67 40.00
  Z"
/>
<path fill="#000000" d="
  M 203.58 57.29
  L 214.81 57.23
  A 0.33 0.33 0.0 0 1 215.14 57.57
  L 214.99 61.68
  A 0.33 0.33 0.0 0 1 214.66 62.00
  L 198.08 62.00
  A 0.33 0.33 0.0 0 1 197.75 61.67
  L 197.75 35.64
  A 0.33 0.33 0.0 0 1 198.07 35.31
  L 202.91 35.12
  A 0.33 0.33 0.0 0 1 203.25 35.45
  L 203.25 56.96
  A 0.33 0.33 0.0 0 0 203.58 57.29
  Z"
/>
<path fill="#000000" d="
  M 234.27 56.00
  L 224.39 56.00
  A 0.33 0.33 0.0 0 0 224.08 56.22
  L 222.07 61.78
  A 0.33 0.33 0.0 0 1 221.76 62.00
  L 216.56 62.00
  A 0.33 0.33 0.0 0 1 216.26 61.55
  L 226.52 35.46
  A 0.33 0.33 0.0 0 1 226.82 35.25
  L 231.81 35.25
  A 0.33 0.33 0.0 0 1 232.11 35.46
  L 242.61 61.55
  A 0.33 0.33 0.0 0 1 242.30 62.00
  L 236.81 62.00
  A 0.33 0.33 0.0 0 1 236.49 61.78
  L 234.59 56.22
  A 0.33 0.33 0.0 0 0 234.27 56.00
  Z
  M 228.96 42.23
  L 226.21 50.71
  Q 226.03 51.25 226.60 51.25
  L 231.85 51.25
  Q 232.55 51.25 232.32 50.59
  L 229.45 42.23
  Q 229.20 41.50 228.96 42.23
  Z"
/>
<path fill="#000000" d="
  M 262.58 47.98
  Q 266.96 50.45 266.71 54.88
  C 266.22 63.82 251.97 62.35 246.04 61.86
  Q 245.51 61.81 245.51 61.29
  L 245.47 35.73
  Q 245.47 35.35 245.85 35.33
  C 250.22 35.10 260.29 34.27 263.55 37.45
  C 266.38 40.22 265.92 44.63 262.53 47.15
  Q 261.92 47.61 262.58 47.98
  Z
  M 250.98 40.46
  L 251.00 45.18
  A 0.64 0.64 0.0 0 0 251.64 45.81
  L 256.56 45.80
  A 3.46 2.43 -0.2 0 0 260.01 43.35
  L 260.01 42.21
  A 3.46 2.43 -0.2 0 0 256.54 39.80
  L 251.62 39.81
  A 0.64 0.64 0.0 0 0 250.98 40.46
  Z
  M 251.01 51.11
  L 250.99 56.83
  A 0.61 0.61 0.0 0 0 251.60 57.44
  L 257.13 57.46
  A 3.88 3.05 0.2 0 0 261.02 54.43
  L 261.02 53.59
  A 3.88 3.05 0.2 0 0 257.15 50.52
  L 251.62 50.50
  A 0.61 0.61 0.0 0 0 251.01 51.11
  Z"
/>
<path fill="#e24329" d="
  M 67.31 97.52
  Q 66.50 98.28 67.04 99.09
  Q 66.92 98.17 66.43 98.76
  Q 66.17 99.07 65.90 98.76
  L 65.03 97.74
  L 46.49 39.24
  A 0.57 0.56 80.9 0 1 47.02 38.50
  L 85.00 38.50
  A 0.67 0.67 0.0 0 1 85.64 39.38
  Q 76.40 67.72 67.26 96.25
  Q 67.15 96.59 67.31 97.52
  Z"
/>
<path fill="#fca326" d="
  M 18.75 38.56
  Q 19.05 39.53 19.23 39.76
  Q 41.23 68.02 63.18 96.32
  Q 63.75 97.05 65.03 97.74
  Q 65.01 98.25 64.46 98.36
  Q 63.97 98.45 63.57 98.16
  Q 38.36 79.76 13.14 61.37
  Q 11.66 60.29 12.47 57.57
  Q 15.08 48.73 17.87 39.96
  Q 18.01 39.49 18.32 39.10
  L 18.75 38.56
  Z"
/>
<path fill="#fca326" d="
  M 67.04 99.09
  Q 66.50 98.28 67.31 97.52
  Q 67.96 97.55 68.65 96.66
  Q 90.99 67.77 113.24 39.19
  A 0.44 0.44 0.0 0 1 114.01 39.32
  Q 116.88 48.37 119.70 57.26
  C 120.72 60.46 119.06 60.91 117.11 62.39
  Q 92.44 81.12 67.04 99.09
  Z"
/>
<path fill="#ff7332" d="
  M 250.98 40.46
  A 0.64 0.64 0.0 0 1 251.62 39.81
  L 256.54 39.80
  A 3.46 2.43 -0.2 0 1 260.01 42.21
  L 260.01 43.35
  A 3.46 2.43 -0.2 0 1 256.56 45.80
  L 251.64 45.81
  A 0.64 0.64 0.0 0 1 251.00 45.18
  L 250.98 40.46
  Z"
/>
<path fill="#ff7332" d="
  M 228.96 42.23
  Q 229.20 41.50 229.45 42.23
  L 232.32 50.59
  Q 232.55 51.25 231.85 51.25
  L 226.60 51.25
  Q 226.03 51.25 226.21 50.71
  L 228.96 42.23
  Z"
/>
<path fill="#ff7332" d="
  M 251.01 51.11
  A 0.61 0.61 0.0 0 1 251.62 50.50
  L 257.15 50.52
  A 3.88 3.05 0.2 0 1 261.02 53.59
  L 261.02 54.43
  A 3.88 3.05 0.2 0 1 257.13 57.46
  L 251.60 57.44
  A 0.61 0.61 0.0 0 1 250.99 56.83
  L 251.01 51.11
  Z"
/>
</svg>
