<?xml version="1.0" encoding="UTF-8" standalone="no"?>
<!DOCTYPE svg PUBLIC "-//W3C//DTD SVG 1.1//EN" "http://www.w3.org/Graphics/SVG/1.1/DTD/svg11.dtd">
<svg xmlns="http://www.w3.org/2000/svg" version="1.1" viewBox="0.00 0.00 316.00 100.00">
<g stroke-width="2.00" fill="none" stroke-linecap="butt">
<path stroke="#ef669b" vector-effect="non-scaling-stroke" d="
  M 31.51 0.00
  L 18.03 36.93
  Q 17.18 39.25 19.45 40.23
  L 22.42 41.51"
/>
<path stroke="#e469a2" vector-effect="non-scaling-stroke" d="
  M 22.42 41.51
  L 26.50 42.79"
/>
<path stroke="#ee8a75" vector-effect="non-scaling-stroke" d="
  M 26.50 42.79
  L 18.35 58.34
  A 0.62 0.61 -57.3 0 0 18.51 59.10
  L 32.85 70.39"
/>
<path stroke="#b378c1" vector-effect="non-scaling-stroke" d="
  M 32.85 70.39
  L 25.21 96.70
  A 0.49 0.48 87.9 0 0 25.84 97.29
  L 55.80 86.45"
/>
<path stroke="#7a8be4" vector-effect="non-scaling-stroke" d="
  M 55.80 86.45
  L 76.03 99.57
  A 1.59 1.57 -39.1 0 0 77.47 99.71
  L 114.65 84.76
  Q 115.12 84.57 115.13 84.06
  L 117.00 27.27
  Q 117.02 26.74 116.61 26.41
  L 86.18 1.80
  A 0.35 0.34 -50.4 0 0 85.70 1.85
  L 73.73 16.26"
/>
<path stroke="#e469a2" vector-effect="non-scaling-stroke" d="
  M 73.73 16.26
  L 68.13 9.92"
/>
<path stroke="#ef669b" vector-effect="non-scaling-stroke" d="
  M 68.13 9.92
  L 63.13 4.19
  A 1.34 1.31 -16.9 0 0 62.30 3.76
  L 32.56 0.00"
/>
<path stroke="#714d6c" vector-effect="non-scaling-stroke" d="
  M 185.74 20.27
  A 0.33 0.33 0.0 0 1 186.07 19.94
  L 193.17 20.03
  A 0.33 0.33 0.0 0 0 193.50 19.70
  L 193.50 15.58
  A 0.33 0.33 0.0 0 0 193.17 15.25
  L 173.00 15.25
  A 0.33 0.33 0.0 0 0 172.67 15.57
  L 172.49 19.65
  A 0.33 0.33 0.0 0 0 172.83 20.00
  L 179.92 19.95
  A 0.33 0.33 0.0 0 1 180.25 20.28
  L 180.25 41.67
  A 0.33 0.33 0.0 0 0 180.58 42.00
  L 185.44 42.00
  A 0.33 0.33 0.0 0 0 185.77 41.67
  L 185.74 20.27"
/>
<path stroke="#714d6c" vector-effect="non-scaling-stroke" d="
  M 225.81 37.25
  A 0.31 0.31 0.0 0 1 225.50 36.94
  L 225.50 15.49
  A 0.31 0.31 0.0 0 0 225.19 15.18
  L 220.31 15.18
  A 0.31 0.31 0.0 0 0 220.00 15.49
  L 220.00 41.69
  A 0.31 0.31 0.0 0 0 220.31 42.00
  L 237.20 42.00
  A 0.31 0.31 0.0 0 0 237.51 41.68
  L 237.39 37.55
  A 0.31 0.31 0.0 0 0 237.08 37.25
  L 225.81 37.25"
/>
<path stroke="#714d6c" vector-effect="non-scaling-stroke" d="
  M 246.85 37.25
  A 0.33 0.33 0.0 0 1 246.52 36.92
  L 246.55 15.49
  A 0.33 0.33 0.0 0 0 246.21 15.16
  L 241.32 15.29
  A 0.33 0.33 0.0 0 0 241.00 15.62
  L 241.00 41.67
  A 0.33 0.33 0.0 0 0 241.33 42.00
  L 258.17 42.00
  A 0.33 0.33 0.0 0 0 258.50 41.67
  L 258.50 37.58
  A 0.33 0.33 0.0 0 0 258.17 37.25
  L 246.85 37.25"
/>
<path stroke="#714d6c" vector-effect="non-scaling-stroke" d="
  M 267.7272 15.5150
  A 0.33 0.33 0.0 0 0 267.3966 15.1856
  L 262.3166 15.1945
  A 0.33 0.33 0.0 0 0 261.9872 15.5250
  L 262.0328 41.6650
  A 0.33 0.33 0.0 0 0 262.3634 41.9944
  L 267.4434 41.9855
  A 0.33 0.33 0.0 0 0 267.7728 41.6550
  L 267.7272 15.5150"
/>
<path stroke="#714d6c" vector-effect="non-scaling-stroke" d="
  M 282.71 33.45
  C 282.63 39.12 275.94 39.09 276.25 33.47
  A 0.47 0.46 88.0 0 0 275.73 32.98
  L 271.56 33.54
  Q 271.11 33.60 271.11 34.05
  C 270.96 44.91 286.35 44.32 287.59 37.00
  Q 288.94 29.07 288.02 15.73
  Q 287.99 15.26 287.52 15.26
  L 283.06 15.24
  Q 282.66 15.24 282.66 15.64
  Q 282.84 24.56 282.71 33.45"
/>
<path stroke="#714d6c" vector-effect="non-scaling-stroke" d="
  M 142.25 15.51
  A 0.26 0.26 0.0 0 0 141.99 15.25
  L 137.01 15.25
  A 0.26 0.26 0.0 0 0 136.75 15.51
  L 136.75 41.75
  A 0.26 0.26 0.0 0 0 137.01 42.01
  L 141.99 42.01
  A 0.26 0.26 0.0 0 0 142.25 41.75
  L 142.25 15.51"
/>
<path stroke="#714d6c" vector-effect="non-scaling-stroke" d="
  M 164.34 15.25
  A 0.34 0.34 0.0 0 0 164.00 15.59
  L 164.00 31.56
  A 0.34 0.34 0.0 0 1 163.37 31.74
  L 153.15 15.41
  A 0.34 0.34 0.0 0 0 152.86 15.25
  L 148.09 15.25
  A 0.34 0.34 0.0 0 0 147.75 15.59
  L 147.75 41.66
  A 0.34 0.34 0.0 0 0 148.09 42.00
  L 152.66 42.00
  A 0.34 0.34 0.0 0 0 153.00 41.66
  L 153.00 26.53
  A 0.34 0.34 0.0 0 1 153.63 26.34
  L 163.41 41.84
  A 0.34 0.34 0.0 0 0 163.70 42.00
  L 168.66 42.00
  A 0.34 0.34 0.0 0 0 169.00 41.66
  L 169.00 15.59
  A 0.34 0.34 0.0 0 0 168.66 15.25
  L 164.34 15.25"
/>
<path stroke="#714d6c" vector-effect="non-scaling-stroke" d="
  M 202.76 30.81
  A 0.31 0.31 0.0 0 1 203.07 30.50
  L 213.51 30.51
  A 0.31 0.31 0.0 0 0 213.82 30.21
  L 214.00 26.07
  A 0.31 0.31 0.0 0 0 213.69 25.75
  L 203.10 25.75
  A 0.31 0.31 0.0 0 1 202.79 25.45
  L 202.65 20.24
  A 0.31 0.31 0.0 0 1 202.96 19.92
  L 214.69 20.04
  A 0.31 0.31 0.0 0 0 215.00 19.73
  L 215.00 15.56
  A 0.31 0.31 0.0 0 0 214.69 15.25
  L 197.31 15.25
  A 0.31 0.31 0.0 0 0 197.00 15.56
  L 197.00 41.69
  A 0.31 0.31 0.0 0 0 197.31 42.00
  L 215.26 42.00
  A 0.31 0.31 0.0 0 0 215.57 41.69
  L 215.51 37.56
  A 0.31 0.31 0.0 0 0 215.20 37.25
  L 203.05 37.25
  A 0.31 0.31 0.0 0 1 202.74 36.94
  L 202.76 30.81"
/>
<path stroke="#714d6c" vector-effect="non-scaling-stroke" d="
  M 181.75 60.40
  L 181.75 86.86
  A 0.21 0.21 0.0 0 0 181.96 87.07
  L 192.69 87.07
  A 11.82 11.46 90.0 0 0 204.15 75.25
  L 204.15 72.01
  A 11.82 11.46 90.0 0 0 192.69 60.19
  L 181.96 60.19
  A 0.21 0.21 0.0 0 0 181.75 60.40"
/>
<path stroke="#714d6c" vector-effect="non-scaling-stroke" d="
  M 176.25 60.51
  A 0.26 0.26 0.0 0 0 175.99 60.25
  L 171.01 60.25
  A 0.26 0.26 0.0 0 0 170.75 60.51
  L 170.75 86.75
  A 0.26 0.26 0.0 0 0 171.01 87.01
  L 175.99 87.01
  A 0.26 0.26 0.0 0 0 176.25 86.75
  L 176.25 60.51"
/>
<path stroke="#714d6c" vector-effect="non-scaling-stroke" d="
  M 214.32 82.25
  A 0.32 0.32 0.0 0 1 214.00 81.93
  L 214.00 75.82
  A 0.32 0.32 0.0 0 1 214.32 75.50
  L 224.93 75.50
  A 0.32 0.32 0.0 0 0 225.25 75.18
  L 225.25 71.07
  A 0.32 0.32 0.0 0 0 224.93 70.75
  L 214.32 70.75
  A 0.32 0.32 0.0 0 1 214.00 70.43
  L 214.00 65.31
  A 0.32 0.32 0.0 0 1 214.32 64.99
  L 225.92 65.00
  A 0.32 0.32 0.0 0 0 226.24 64.68
  L 226.27 60.57
  A 0.32 0.32 0.0 0 0 225.95 60.25
  L 208.82 60.25
  A 0.32 0.32 0.0 0 0 208.50 60.57
  L 208.50 86.68
  A 0.32 0.32 0.0 0 0 208.82 87.00
  L 226.68 87.00
  A 0.32 0.32 0.0 0 0 227.00 86.68
  L 227.00 82.57
  A 0.32 0.32 0.0 0 0 226.68 82.25
  L 214.32 82.25"
/>
<path stroke="#714d6c" vector-effect="non-scaling-stroke" d="
  M 246.68 81.00
  A 0.46 0.46 0.0 0 1 247.11 81.30
  L 249.04 86.70
  A 0.46 0.46 0.0 0 0 249.47 87.00
  L 254.62 87.00
  A 0.46 0.46 0.0 0 0 255.05 86.37
  L 244.66 60.54
  A 0.46 0.46 0.0 0 0 244.23 60.25
  L 239.44 60.25
  A 0.46 0.46 0.0 0 0 239.02 60.54
  L 228.86 86.37
  A 0.46 0.46 0.0 0 0 229.29 87.00
  L 234.17 87.00
  A 0.46 0.46 0.0 0 0 234.60 86.70
  L 236.55 81.30
  A 0.46 0.46 0.0 0 1 236.98 81.00
  L 246.68 81.00"
/>
<path stroke="#f13465" vector-effect="non-scaling-stroke" d="
  M 68.13 9.92
  Q 60.53 13.86 54.50 19.46"
/>
<path stroke="#7e192f" vector-effect="non-scaling-stroke" d="
  M 54.50 19.46
  L 37.31 19.50
  Q 36.77 19.50 36.77 20.04
  L 36.74 32.95"
/>
<path stroke="#f13465" vector-effect="non-scaling-stroke" d="
  M 36.74 32.95
  Q 28.88 36.49 22.42 41.51"
/>
<path stroke="#4b69cd" vector-effect="non-scaling-stroke" d="
  M 55.80 86.45
  Q 60.71 84.59 65.07 82.87
  Q 66.12 82.45 66.53 80.77"
/>
<path stroke="#093e78" vector-effect="non-scaling-stroke" d="
  M 66.53 80.77
  L 97.61 80.76
  A 0.65 0.65 0.0 0 0 98.26 80.11
  L 98.28 49.02"
/>
<path stroke="#2c72e1" vector-effect="non-scaling-stroke" d="
  M 98.28 49.02
  L 115.36 28.88
  A 1.17 1.17 0.0 0 0 114.09 27.01
  L 98.26 32.39"
/>
<path stroke="#093e78" vector-effect="non-scaling-stroke" d="
  M 98.26 32.39
  L 98.23 20.06
  Q 98.23 19.52 97.69 19.52
  L 75.92 19.49"
/>
<path stroke="#7c5aae" vector-effect="non-scaling-stroke" d="
  M 75.92 19.49
  Q 76.27 18.18 73.73 16.26"
/>
<path stroke="#731c36" vector-effect="non-scaling-stroke" d="
  M 75.92 19.49
  L 54.50 19.46"
/>
<path stroke="#233469" vector-effect="non-scaling-stroke" d="
  M 98.26 32.39
  L 98.28 49.02"
/>
<path stroke="#422b55" vector-effect="non-scaling-stroke" d="
  M 66.53 80.77
  L 37.35 80.78
  Q 36.80 80.78 36.80 80.23
  L 36.66 58.40"
/>
<path stroke="#7d3d09" vector-effect="non-scaling-stroke" d="
  M 36.66 58.40
  L 36.72 46.29"
/>
<path stroke="#731c36" vector-effect="non-scaling-stroke" d="
  M 36.72 46.29
  L 36.74 32.95"
/>
<path stroke="#808080" vector-effect="non-scaling-stroke" d="
  M 49.50 47.64
  A 0.35 0.35 0.0 0 1 49.11 47.99
  L 46.39 47.68
  A 0.35 0.35 0.0 0 0 46.00 48.03
  L 46.00 52.65
  A 0.35 0.35 0.0 0 0 46.35 53.00
  L 58.90 53.00
  A 0.35 0.35 0.0 0 0 59.25 52.65
  L 59.25 48.02
  A 0.35 0.35 0.0 0 0 58.85 47.67
  L 56.15 48.03
  A 0.35 0.35 0.0 0 1 55.75 47.68
  L 55.75 32.39
  A 0.35 0.35 0.0 0 1 56.14 32.04
  L 58.81 32.35
  A 0.35 0.35 0.0 0 0 59.20 32.01
  L 59.33 27.61
  A 0.35 0.35 0.0 0 0 58.98 27.25
  L 46.33 27.25
  A 0.35 0.35 0.0 0 0 45.98 27.61
  L 46.04 31.96
  A 0.35 0.35 0.0 0 0 46.41 32.30
  L 49.13 32.16
  A 0.35 0.35 0.0 0 1 49.50 32.51
  L 49.50 47.64"
/>
<path stroke="#714d6c" vector-effect="non-scaling-stroke" d="
  M 72.72 47.43
  Q 71.49 47.16 69.84 47.49"
/>
<path stroke="#808080" vector-effect="non-scaling-stroke" d="
  M 69.84 47.49
  L 66.89 45.67
  Q 66.43 45.38 66.05 45.78
  L 63.46 48.53
  A 1.22 1.22 0.0 0 0 63.52 50.25
  C 69.46 55.82 80.46 54.27 80.49 44.43
  Q 80.52 36.11 80.49 27.75
  Q 80.49 27.25 79.98 27.25
  L 74.80 27.25
  A 0.60 0.60 0.0 0 0 74.20 27.89
  C 74.44 31.22 75.62 46.06 72.72 47.43"
/>
<path stroke="#f1cdec" vector-effect="non-scaling-stroke" d="
  M 69.84 47.49
  C 69.48 48.38 72.36 48.81 72.72 47.43"
/>
<path stroke="#808080" vector-effect="non-scaling-stroke" d="
  M 65.64 69.61
  A 0.36 0.36 0.0 0 0 65.28 69.25
  L 42.60 69.25
  A 0.36 0.36 0.0 0 0 42.24 69.61
  L 42.24 73.13
  A 0.36 0.36 0.0 0 0 42.60 73.49
  L 65.28 73.49
  A 0.36 0.36 0.0 0 0 65.64 73.13
  L 65.64 69.61"
/>
<path stroke="#f0593f" vector-effect="non-scaling-stroke" d="
  M 36.72 46.29
  L 26.50 42.79"
/>
<path stroke="#bf685e" vector-effect="non-scaling-stroke" d="
  M 36.66 58.40
  Q 34.09 64.25 32.85 70.39"
/>
<path stroke="#714d6c" vector-effect="non-scaling-stroke" d="
  M 187.20 65.04
  L 187.29 82.24
  A 0.26 0.26 0.0 0 0 187.55 82.50
  L 192.18 82.47
  A 6.49 6.37 89.7 0 0 198.51 75.95
  L 198.49 71.21
  A 6.49 6.37 89.7 0 0 192.08 64.75
  L 187.45 64.78
  A 0.26 0.26 0.0 0 0 187.20 65.04"
/>
<path stroke="#714d6c" vector-effect="non-scaling-stroke" d="
  M 241.55 66.75
  L 238.65 75.98
  Q 238.53 76.36 238.93 76.35
  L 244.56 76.20
  Q 245.05 76.19 244.89 75.72
  L 241.83 66.75
  A 0.15 0.15 0.0 0 0 241.55 66.75"
/>
</g>
<path fill="#e29ad8" d="
  M 0.00 0.00
  L 31.51 0.00
  L 18.03 36.93
  Q 17.18 39.25 19.45 40.23
  L 22.42 41.51
  L 26.50 42.79
  L 18.35 58.34
  A 0.62 0.61 -57.3 0 0 18.51 59.10
  L 32.85 70.39
  L 25.21 96.70
  A 0.49 0.48 87.9 0 0 25.84 97.29
  L 55.80 86.45
  L 76.03 99.57
  A 1.59 1.57 -39.1 0 0 77.47 99.71
  L 114.65 84.76
  Q 115.12 84.57 115.13 84.06
  L 117.00 27.27
  Q 117.02 26.74 116.61 26.41
  L 86.18 1.80
  A 0.35 0.34 -50.4 0 0 85.70 1.85
  L 73.73 16.26
  L 68.13 9.92
  L 63.13 4.19
  A 1.34 1.31 -16.9 0 0 62.30 3.76
  L 32.56 0.00
  L 316.00 0.00
  L 316.00 100.00
  L 0.00 100.00
  L 0.00 0.00
  Z
  M 185.74 20.27
  A 0.33 0.33 0.0 0 1 186.07 19.94
  L 193.17 20.03
  A 0.33 0.33 0.0 0 0 193.50 19.70
  L 193.50 15.58
  A 0.33 0.33 0.0 0 0 193.17 15.25
  L 173.00 15.25
  A 0.33 0.33 0.0 0 0 172.67 15.57
  L 172.49 19.65
  A 0.33 0.33 0.0 0 0 172.83 20.00
  L 179.92 19.95
  A 0.33 0.33 0.0 0 1 180.25 20.28
  L 180.25 41.67
  A 0.33 0.33 0.0 0 0 180.58 42.00
  L 185.44 42.00
  A 0.33 0.33 0.0 0 0 185.77 41.67
  L 185.74 20.27
  Z
  M 225.81 37.25
  A 0.31 0.31 0.0 0 1 225.50 36.94
  L 225.50 15.49
  A 0.31 0.31 0.0 0 0 225.19 15.18
  L 220.31 15.18
  A 0.31 0.31 0.0 0 0 220.00 15.49
  L 220.00 41.69
  A 0.31 0.31 0.0 0 0 220.31 42.00
  L 237.20 42.00
  A 0.31 0.31 0.0 0 0 237.51 41.68
  L 237.39 37.55
  A 0.31 0.31 0.0 0 0 237.08 37.25
  L 225.81 37.25
  Z
  M 246.85 37.25
  A 0.33 0.33 0.0 0 1 246.52 36.92
  L 246.55 15.49
  A 0.33 0.33 0.0 0 0 246.21 15.16
  L 241.32 15.29
  A 0.33 0.33 0.0 0 0 241.00 15.62
  L 241.00 41.67
  A 0.33 0.33 0.0 0 0 241.33 42.00
  L 258.17 42.00
  A 0.33 0.33 0.0 0 0 258.50 41.67
  L 258.50 37.58
  A 0.33 0.33 0.0 0 0 258.17 37.25
  L 246.85 37.25
  Z
  M 267.7272 15.5150
  A 0.33 0.33 0.0 0 0 267.3966 15.1856
  L 262.3166 15.1945
  A 0.33 0.33 0.0 0 0 261.9872 15.5250
  L 262.0328 41.6650
  A 0.33 0.33 0.0 0 0 262.3634 41.9944
  L 267.4434 41.9855
  A 0.33 0.33 0.0 0 0 267.7728 41.6550
  L 267.7272 15.5150
  Z
  M 282.71 33.45
  C 282.63 39.12 275.94 39.09 276.25 33.47
  A 0.47 0.46 88.0 0 0 275.73 32.98
  L 271.56 33.54
  Q 271.11 33.60 271.11 34.05
  C 270.96 44.91 286.35 44.32 287.59 37.00
  Q 288.94 29.07 288.02 15.73
  Q 287.99 15.26 287.52 15.26
  L 283.06 15.24
  Q 282.66 15.24 282.66 15.64
  Q 282.84 24.56 282.71 33.45
  Z
  M 142.25 15.51
  A 0.26 0.26 0.0 0 0 141.99 15.25
  L 137.01 15.25
  A 0.26 0.26 0.0 0 0 136.75 15.51
  L 136.75 41.75
  A 0.26 0.26 0.0 0 0 137.01 42.01
  L 141.99 42.01
  A 0.26 0.26 0.0 0 0 142.25 41.75
  L 142.25 15.51
  Z
  M 164.34 15.25
  A 0.34 0.34 0.0 0 0 164.00 15.59
  L 164.00 31.56
  A 0.34 0.34 0.0 0 1 163.37 31.74
  L 153.15 15.41
  A 0.34 0.34 0.0 0 0 152.86 15.25
  L 148.09 15.25
  A 0.34 0.34 0.0 0 0 147.75 15.59
  L 147.75 41.66
  A 0.34 0.34 0.0 0 0 148.09 42.00
  L 152.66 42.00
  A 0.34 0.34 0.0 0 0 153.00 41.66
  L 153.00 26.53
  A 0.34 0.34 0.0 0 1 153.63 26.34
  L 163.41 41.84
  A 0.34 0.34 0.0 0 0 163.70 42.00
  L 168.66 42.00
  A 0.34 0.34 0.0 0 0 169.00 41.66
  L 169.00 15.59
  A 0.34 0.34 0.0 0 0 168.66 15.25
  L 164.34 15.25
  Z
  M 202.76 30.81
  A 0.31 0.31 0.0 0 1 203.07 30.50
  L 213.51 30.51
  A 0.31 0.31 0.0 0 0 213.82 30.21
  L 214.00 26.07
  A 0.31 0.31 0.0 0 0 213.69 25.75
  L 203.10 25.75
  A 0.31 0.31 0.0 0 1 202.79 25.45
  L 202.65 20.24
  A 0.31 0.31 0.0 0 1 202.96 19.92
  L 214.69 20.04
  A 0.31 0.31 0.0 0 0 215.00 19.73
  L 215.00 15.56
  A 0.31 0.31 0.0 0 0 214.69 15.25
  L 197.31 15.25
  A 0.31 0.31 0.0 0 0 197.00 15.56
  L 197.00 41.69
  A 0.31 0.31 0.0 0 0 197.31 42.00
  L 215.26 42.00
  A 0.31 0.31 0.0 0 0 215.57 41.69
  L 215.51 37.56
  A 0.31 0.31 0.0 0 0 215.20 37.25
  L 203.05 37.25
  A 0.31 0.31 0.0 0 1 202.74 36.94
  L 202.76 30.81
  Z
  M 181.75 60.40
  L 181.75 86.86
  A 0.21 0.21 0.0 0 0 181.96 87.07
  L 192.69 87.07
  A 11.82 11.46 90.0 0 0 204.15 75.25
  L 204.15 72.01
  A 11.82 11.46 90.0 0 0 192.69 60.19
  L 181.96 60.19
  A 0.21 0.21 0.0 0 0 181.75 60.40
  Z
  M 176.25 60.51
  A 0.26 0.26 0.0 0 0 175.99 60.25
  L 171.01 60.25
  A 0.26 0.26 0.0 0 0 170.75 60.51
  L 170.75 86.75
  A 0.26 0.26 0.0 0 0 171.01 87.01
  L 175.99 87.01
  A 0.26 0.26 0.0 0 0 176.25 86.75
  L 176.25 60.51
  Z
  M 214.32 82.25
  A 0.32 0.32 0.0 0 1 214.00 81.93
  L 214.00 75.82
  A 0.32 0.32 0.0 0 1 214.32 75.50
  L 224.93 75.50
  A 0.32 0.32 0.0 0 0 225.25 75.18
  L 225.25 71.07
  A 0.32 0.32 0.0 0 0 224.93 70.75
  L 214.32 70.75
  A 0.32 0.32 0.0 0 1 214.00 70.43
  L 214.00 65.31
  A 0.32 0.32 0.0 0 1 214.32 64.99
  L 225.92 65.00
  A 0.32 0.32 0.0 0 0 226.24 64.68
  L 226.27 60.57
  A 0.32 0.32 0.0 0 0 225.95 60.25
  L 208.82 60.25
  A 0.32 0.32 0.0 0 0 208.50 60.57
  L 208.50 86.68
  A 0.32 0.32 0.0 0 0 208.82 87.00
  L 226.68 87.00
  A 0.32 0.32 0.0 0 0 227.00 86.68
  L 227.00 82.57
  A 0.32 0.32 0.0 0 0 226.68 82.25
  L 214.32 82.25
  Z
  M 246.68 81.00
  A 0.46 0.46 0.0 0 1 247.11 81.30
  L 249.04 86.70
  A 0.46 0.46 0.0 0 0 249.47 87.00
  L 254.62 87.00
  A 0.46 0.46 0.0 0 0 255.05 86.37
  L 244.66 60.54
  A 0.46 0.46 0.0 0 0 244.23 60.25
  L 239.44 60.25
  A 0.46 0.46 0.0 0 0 239.02 60.54
  L 228.86 86.37
  A 0.46 0.46 0.0 0 0 229.29 87.00
  L 234.17 87.00
  A 0.46 0.46 0.0 0 0 234.60 86.70
  L 236.55 81.30
  A 0.46 0.46 0.0 0 1 236.98 81.00
  L 246.68 81.00
  Z"
/>
<path fill="#fc315e" d="
  M 31.51 0.00
  L 32.56 0.00
  L 62.30 3.76
  A 1.34 1.31 -16.9 0 1 63.13 4.19
  L 68.13 9.92
  Q 60.53 13.86 54.50 19.46
  L 37.31 19.50
  Q 36.77 19.50 36.77 20.04
  L 36.74 32.95
  Q 28.88 36.49 22.42 41.51
  L 19.45 40.23
  Q 17.18 39.25 18.03 36.93
  L 31.51 0.00
  Z"
/>
<path fill="#117cf0" d="
  M 55.80 86.45
  Q 60.71 84.59 65.07 82.87
  Q 66.12 82.45 66.53 80.77
  L 97.61 80.76
  A 0.65 0.65 0.0 0 0 98.26 80.11
  L 98.28 49.02
  L 115.36 28.88
  A 1.17 1.17 0.0 0 0 114.09 27.01
  L 98.26 32.39
  L 98.23 20.06
  Q 98.23 19.52 97.69 19.52
  L 75.92 19.49
  Q 76.27 18.18 73.73 16.26
  L 85.70 1.85
  A 0.35 0.34 -50.4 0 1 86.18 1.80
  L 116.61 26.41
  Q 117.02 26.74 117.00 27.27
  L 115.13 84.06
  Q 115.12 84.57 114.65 84.76
  L 77.47 99.71
  A 1.59 1.57 -39.1 0 1 76.03 99.57
  L 55.80 86.45
  Z"
/>
<path fill="#e6376c" d="
  M 68.13 9.92
  L 73.73 16.26
  Q 76.27 18.18 75.92 19.49
  L 54.50 19.46
  Q 60.53 13.86 68.13 9.92
  Z"
/>
<path fill="#000000" d="
  M 185.74 20.27
  L 185.77 41.67
  A 0.33 0.33 0.0 0 1 185.44 42.00
  L 180.58 42.00
  A 0.33 0.33 0.0 0 1 180.25 41.67
  L 180.25 20.28
  A 0.33 0.33 0.0 0 0 179.92 19.95
  L 172.83 20.00
  A 0.33 0.33 0.0 0 1 172.49 19.65
  L 172.67 15.57
  A 0.33 0.33 0.0 0 1 173.00 15.25
  L 193.17 15.25
  A 0.33 0.33 0.0 0 1 193.50 15.58
  L 193.50 19.70
  A 0.33 0.33 0.0 0 1 193.17 20.03
  L 186.07 19.94
  A 0.33 0.33 0.0 0 0 185.74 20.27
  Z"
/>
<path fill="#000000" d="
  M 225.81 37.25
  L 237.08 37.25
  A 0.31 0.31 0.0 0 1 237.39 37.55
  L 237.51 41.68
  A 0.31 0.31 0.0 0 1 237.20 42.00
  L 220.31 42.00
  A 0.31 0.31 0.0 0 1 220.00 41.69
  L 220.00 15.49
  A 0.31 0.31 0.0 0 1 220.31 15.18
  L 225.19 15.18
  A 0.31 0.31 0.0 0 1 225.50 15.49
  L 225.50 36.94
  A 0.31 0.31 0.0 0 0 225.81 37.25
  Z"
/>
<path fill="#000000" d="
  M 246.85 37.25
  L 258.17 37.25
  A 0.33 0.33 0.0 0 1 258.50 37.58
  L 258.50 41.67
  A 0.33 0.33 0.0 0 1 258.17 42.00
  L 241.33 42.00
  A 0.33 0.33 0.0 0 1 241.00 41.67
  L 241.00 15.62
  A 0.33 0.33 0.0 0 1 241.32 15.29
  L 246.21 15.16
  A 0.33 0.33 0.0 0 1 246.55 15.49
  L 246.52 36.92
  A 0.33 0.33 0.0 0 0 246.85 37.25
  Z"
/>
<rect fill="#000000" x="-2.87" y="-13.40" transform="translate(264.88,28.59) rotate(-0.1)" width="5.74" height="26.80" rx="0.33"/>
<path fill="#000000" d="
  M 282.71 33.45
  Q 282.84 24.56 282.66 15.64
  Q 282.66 15.24 283.06 15.24
  L 287.52 15.26
  Q 287.99 15.26 288.02 15.73
  Q 288.94 29.07 287.59 37.00
  C 286.35 44.32 270.96 44.91 271.11 34.05
  Q 271.11 33.60 271.56 33.54
  L 275.73 32.98
  A 0.47 0.46 88.0 0 1 276.25 33.47
  C 275.94 39.09 282.63 39.12 282.71 33.45
  Z"
/>
<rect fill="#000000" x="136.75" y="15.25" width="5.50" height="26.76" rx="0.26"/>
<path fill="#000000" d="
  M 164.34 15.25
  L 168.66 15.25
  A 0.34 0.34 0.0 0 1 169.00 15.59
  L 169.00 41.66
  A 0.34 0.34 0.0 0 1 168.66 42.00
  L 163.70 42.00
  A 0.34 0.34 0.0 0 1 163.41 41.84
  L 153.63 26.34
  A 0.34 0.34 0.0 0 0 153.00 26.53
  L 153.00 41.66
  A 0.34 0.34 0.0 0 1 152.66 42.00
  L 148.09 42.00
  A 0.34 0.34 0.0 0 1 147.75 41.66
  L 147.75 15.59
  A 0.34 0.34 0.0 0 1 148.09 15.25
  L 152.86 15.25
  A 0.34 0.34 0.0 0 1 153.15 15.41
  L 163.37 31.74
  A 0.34 0.34 0.0 0 0 164.00 31.56
  L 164.00 15.59
  A 0.34 0.34 0.0 0 1 164.34 15.25
  Z"
/>
<path fill="#000000" d="
  M 202.76 30.81
  L 202.74 36.94
  A 0.31 0.31 0.0 0 0 203.05 37.25
  L 215.20 37.25
  A 0.31 0.31 0.0 0 1 215.51 37.56
  L 215.57 41.69
  A 0.31 0.31 0.0 0 1 215.26 42.00
  L 197.31 42.00
  A 0.31 0.31 0.0 0 1 197.00 41.69
  L 197.00 15.56
  A 0.31 0.31 0.0 0 1 197.31 15.25
  L 214.69 15.25
  A 0.31 0.31 0.0 0 1 215.00 15.56
  L 215.00 19.73
  A 0.31 0.31 0.0 0 1 214.69 20.04
  L 202.96 19.92
  A 0.31 0.31 0.0 0 0 202.65 20.24
  L 202.79 25.45
  A 0.31 0.31 0.0 0 0 203.10 25.75
  L 213.69 25.75
  A 0.31 0.31 0.0 0 1 214.00 26.07
  L 213.82 30.21
  A 0.31 0.31 0.0 0 1 213.51 30.51
  L 203.07 30.50
  A 0.31 0.31 0.0 0 0 202.76 30.81
  Z"
/>
<path fill="#000000" d="
  M 54.50 19.46
  L 75.92 19.49
  L 97.69 19.52
  Q 98.23 19.52 98.23 20.06
  L 98.26 32.39
  L 98.28 49.02
  L 98.26 80.11
  A 0.65 0.65 0.0 0 1 97.61 80.76
  L 66.53 80.77
  L 37.35 80.78
  Q 36.80 80.78 36.80 80.23
  L 36.66 58.40
  L 36.72 46.29
  L 36.74 32.95
  L 36.77 20.04
  Q 36.77 19.50 37.31 19.50
  L 54.50 19.46
  Z
  M 49.50 47.64
  A 0.35 0.35 0.0 0 1 49.11 47.99
  L 46.39 47.68
  A 0.35 0.35 0.0 0 0 46.00 48.03
  L 46.00 52.65
  A 0.35 0.35 0.0 0 0 46.35 53.00
  L 58.90 53.00
  A 0.35 0.35 0.0 0 0 59.25 52.65
  L 59.25 48.02
  A 0.35 0.35 0.0 0 0 58.85 47.67
  L 56.15 48.03
  A 0.35 0.35 0.0 0 1 55.75 47.68
  L 55.75 32.39
  A 0.35 0.35 0.0 0 1 56.14 32.04
  L 58.81 32.35
  A 0.35 0.35 0.0 0 0 59.20 32.01
  L 59.33 27.61
  A 0.35 0.35 0.0 0 0 58.98 27.25
  L 46.33 27.25
  A 0.35 0.35 0.0 0 0 45.98 27.61
  L 46.04 31.96
  A 0.35 0.35 0.0 0 0 46.41 32.30
  L 49.13 32.16
  A 0.35 0.35 0.0 0 1 49.50 32.51
  L 49.50 47.64
  Z
  M 72.72 47.43
  Q 71.49 47.16 69.84 47.49
  L 66.89 45.67
  Q 66.43 45.38 66.05 45.78
  L 63.46 48.53
  A 1.22 1.22 0.0 0 0 63.52 50.25
  C 69.46 55.82 80.46 54.27 80.49 44.43
  Q 80.52 36.11 80.49 27.75
  Q 80.49 27.25 79.98 27.25
  L 74.80 27.25
  A 0.60 0.60 0.0 0 0 74.20 27.89
  C 74.44 31.22 75.62 46.06 72.72 47.43
  Z
  M 65.64 69.61
  A 0.36 0.36 0.0 0 0 65.28 69.25
  L 42.60 69.25
  A 0.36 0.36 0.0 0 0 42.24 69.61
  L 42.24 73.13
  A 0.36 0.36 0.0 0 0 42.60 73.49
  L 65.28 73.49
  A 0.36 0.36 0.0 0 0 65.64 73.13
  L 65.64 69.61
  Z"
/>
<path fill="#4668d1" d="
  M 98.28 49.02
  L 98.26 32.39
  L 114.09 27.01
  A 1.17 1.17 0.0 0 1 115.36 28.88
  L 98.28 49.02
  Z"
/>
<path fill="#ffffff" d="
  M 49.50 47.64
  L 49.50 32.51
  A 0.35 0.35 0.0 0 0 49.13 32.16
  L 46.41 32.30
  A 0.35 0.35 0.0 0 1 46.04 31.96
  L 45.98 27.61
  A 0.35 0.35 0.0 0 1 46.33 27.25
  L 58.98 27.25
  A 0.35 0.35 0.0 0 1 59.33 27.61
  L 59.20 32.01
  A 0.35 0.35 0.0 0 1 58.81 32.35
  L 56.14 32.04
  A 0.35 0.35 0.0 0 0 55.75 32.39
  L 55.75 47.68
  A 0.35 0.35 0.0 0 0 56.15 48.03
  L 58.85 47.67
  A 0.35 0.35 0.0 0 1 59.25 48.02
  L 59.25 52.65
  A 0.35 0.35 0.0 0 1 58.90 53.00
  L 46.35 53.00
  A 0.35 0.35 0.0 0 1 46.00 52.65
  L 46.00 48.03
  A 0.35 0.35 0.0 0 1 46.39 47.68
  L 49.11 47.99
  A 0.35 0.35 0.0 0 0 49.50 47.64
  Z"
/>
<path fill="#ffffff" d="
  M 69.84 47.49
  C 69.48 48.38 72.36 48.81 72.72 47.43
  C 75.62 46.06 74.44 31.22 74.20 27.89
  A 0.60 0.60 0.0 0 1 74.80 27.25
  L 79.98 27.25
  Q 80.49 27.25 80.49 27.75
  Q 80.52 36.11 80.49 44.43
  C 80.46 54.27 69.46 55.82 63.52 50.25
  A 1.22 1.22 0.0 0 1 63.46 48.53
  L 66.05 45.78
  Q 66.43 45.38 66.89 45.67
  L 69.84 47.49
  Z"
/>
<path fill="#e6376c" d="
  M 36.74 32.95
  L 36.72 46.29
  L 26.50 42.79
  L 22.42 41.51
  Q 28.88 36.49 36.74 32.95
  Z"
/>
<path fill="#f97a12" d="
  M 26.50 42.79
  L 36.72 46.29
  L 36.66 58.40
  Q 34.09 64.25 32.85 70.39
  L 18.51 59.10
  A 0.62 0.61 -57.3 0 1 18.35 58.34
  L 26.50 42.79
  Z"
/>
<path fill="#e29ad8" d="
  M 72.72 47.43
  C 72.36 48.81 69.48 48.38 69.84 47.49
  Q 71.49 47.16 72.72 47.43
  Z"
/>
<path fill="#8455a9" d="
  M 36.66 58.40
  L 36.80 80.23
  Q 36.80 80.78 37.35 80.78
  L 66.53 80.77
  Q 66.12 82.45 65.07 82.87
  Q 60.71 84.59 55.80 86.45
  L 25.84 97.29
  A 0.49 0.48 87.9 0 1 25.21 96.70
  L 32.85 70.39
  Q 34.09 64.25 36.66 58.40
  Z"
/>
<path fill="#000000" d="
  M 181.75 60.40
  A 0.21 0.21 0.0 0 1 181.96 60.19
  L 192.69 60.19
  A 11.82 11.46 -90.0 0 1 204.15 72.01
  L 204.15 75.25
  A 11.82 11.46 90.0 0 1 192.69 87.07
  L 181.96 87.07
  A 0.21 0.21 0.0 0 1 181.75 86.86
  L 181.75 60.40
  Z
  M 187.20 65.04
  L 187.29 82.24
  A 0.26 0.26 0.0 0 0 187.55 82.50
  L 192.18 82.47
  A 6.49 6.37 89.7 0 0 198.51 75.95
  L 198.49 71.21
  A 6.49 6.37 89.7 0 0 192.08 64.75
  L 187.45 64.78
  A 0.26 0.26 0.0 0 0 187.20 65.04
  Z"
/>
<rect fill="#000000" x="170.75" y="60.25" width="5.50" height="26.76" rx="0.26"/>
<path fill="#000000" d="
  M 214.32 82.25
  L 226.68 82.25
  A 0.32 0.32 0.0 0 1 227.00 82.57
  L 227.00 86.68
  A 0.32 0.32 0.0 0 1 226.68 87.00
  L 208.82 87.00
  A 0.32 0.32 0.0 0 1 208.50 86.68
  L 208.50 60.57
  A 0.32 0.32 0.0 0 1 208.82 60.25
  L 225.95 60.25
  A 0.32 0.32 0.0 0 1 226.27 60.57
  L 226.24 64.68
  A 0.32 0.32 0.0 0 1 225.92 65.00
  L 214.32 64.99
  A 0.32 0.32 0.0 0 0 214.00 65.31
  L 214.00 70.43
  A 0.32 0.32 0.0 0 0 214.32 70.75
  L 224.93 70.75
  A 0.32 0.32 0.0 0 1 225.25 71.07
  L 225.25 75.18
  A 0.32 0.32 0.0 0 1 224.93 75.50
  L 214.32 75.50
  A 0.32 0.32 0.0 0 0 214.00 75.82
  L 214.00 81.93
  A 0.32 0.32 0.0 0 0 214.32 82.25
  Z"
/>
<path fill="#000000" d="
  M 246.68 81.00
  L 236.98 81.00
  A 0.46 0.46 0.0 0 0 236.55 81.30
  L 234.60 86.70
  A 0.46 0.46 0.0 0 1 234.17 87.00
  L 229.29 87.00
  A 0.46 0.46 0.0 0 1 228.86 86.37
  L 239.02 60.54
  A 0.46 0.46 0.0 0 1 239.44 60.25
  L 244.23 60.25
  A 0.46 0.46 0.0 0 1 244.66 60.54
  L 255.05 86.37
  A 0.46 0.46 0.0 0 1 254.62 87.00
  L 249.47 87.00
  A 0.46 0.46 0.0 0 1 249.04 86.70
  L 247.11 81.30
  A 0.46 0.46 0.0 0 0 246.68 81.00
  Z
  M 241.55 66.75
  L 238.65 75.98
  Q 238.53 76.36 238.93 76.35
  L 244.56 76.20
  Q 245.05 76.19 244.89 75.72
  L 241.83 66.75
  A 0.15 0.15 0.0 0 0 241.55 66.75
  Z"
/>
<path fill="#e29ad8" d="
  M 187.20 65.04
  A 0.26 0.26 0.0 0 1 187.45 64.78
  L 192.08 64.75
  A 6.49 6.37 89.7 0 1 198.49 71.21
  L 198.51 75.95
  A 6.49 6.37 89.7 0 1 192.18 82.47
  L 187.55 82.50
  A 0.26 0.26 0.0 0 1 187.29 82.24
  L 187.20 65.04
  Z"
/>
<path fill="#e29ad8" d="
  M 241.55 66.75
  A 0.15 0.15 0.0 0 1 241.83 66.75
  L 244.89 75.72
  Q 245.05 76.19 244.56 76.20
  L 238.93 76.35
  Q 238.53 76.36 238.65 75.98
  L 241.55 66.75
  Z"
/>
<rect fill="#ffffff" x="42.24" y="69.25" width="23.40" height="4.24" rx="0.36"/>
</svg>
