<?xml version="1.0" encoding="UTF-8" standalone="no"?>
<!DOCTYPE svg PUBLIC "-//W3C//DTD SVG 1.1//EN" "http://www.w3.org/Graphics/SVG/1.1/DTD/svg11.dtd">
<svg xmlns="http://www.w3.org/2000/svg" version="1.1" viewBox="0.00 0.00 350.00 100.00">
<g stroke-width="2.00" fill="none" stroke-linecap="butt">
<path stroke="#429ddb" vector-effect="non-scaling-stroke" d="
  M 86.25 1.12
  Q 85.46 0.74 84.81 1.31
  Q 70.43 14.08 44.38 38.10"
/>
<path stroke="#3ba3e9" vector-effect="non-scaling-stroke" d="
  M 44.38 38.10
  Q 36.02 31.74 27.64 25.41
  C 25.85 24.05 23.85 23.73 22.10 25.10
  C 20.39 26.44 12.25 32.47 15.88 35.85
  Q 23.49 42.93 31.25 50.02"
/>
<path stroke="#3897d8" vector-effect="non-scaling-stroke" d="
  M 31.25 50.02
  Q 23.63 56.92 16.59 63.47
  C 11.20 68.49 23.82 77.28 26.25 75.50
  Q 35.13 69.00 44.26 61.93"
/>
<path stroke="#3ba3e9" vector-effect="non-scaling-stroke" d="
  M 44.26 61.93
  L 49.15 66.29"
/>
<path stroke="#429ddb" vector-effect="non-scaling-stroke" d="
  M 49.15 66.29
  Q 71.27 86.68 84.81 98.69
  Q 85.39 99.20 86.43 99.29"
/>
<path stroke="#42aff8" vector-effect="non-scaling-stroke" d="
  M 86.43 99.29
  Q 88.41 100.09 89.94 99.43
  Q 99.25 95.41 111.29 89.20
  C 113.23 88.19 114.99 86.32 114.99 84.25
  Q 115.01 75.37 114.99 66.50"
/>
<path stroke="#4fb4f9" vector-effect="non-scaling-stroke" d="
  M 114.99 66.50
  Q 115.02 41.78 114.99 17.06
  C 114.98 13.27 113.97 12.07 110.81 10.45
  Q 100.64 5.25 90.21 0.52
  A 1.54 1.51 -38.5 0 0 89.25 0.42
  L 86.25 1.12"
/>
<path stroke="#37a7f2" vector-effect="non-scaling-stroke" d="
  M 114.99 66.50
  L 89.98 66.50"
/>
<path stroke="#4fb4f9" vector-effect="non-scaling-stroke" d="
  M 89.98 66.50
  L 89.94 28.42
  Q 89.94 28.06 89.58 27.99
  Q 89.41 27.96 89.23 27.94"
/>
<path stroke="#3895d5" vector-effect="non-scaling-stroke" d="
  M 89.23 27.94
  L 89.67 27.44
  A 1.27 1.23 -25.0 0 0 89.99 26.61
  Q 90.00 15.93 89.94 5.25
  Q 89.91 1.53 86.25 1.12"
/>
<path stroke="#42aff8" vector-effect="non-scaling-stroke" d="
  M 89.98 66.50
  L 89.84 72.53"
/>
<path stroke="#429ddb" vector-effect="non-scaling-stroke" d="
  M 89.84 72.53
  L 79.11 64.47"
/>
<path stroke="#429ddb" vector-effect="non-scaling-stroke" d="
  M 89.23 27.94
  L 60.07 50.06"
/>
<path stroke="#2484c5" vector-effect="non-scaling-stroke" d="
  M 60.07 50.06
  L 44.38 38.10"
/>
<path stroke="#2b90d4" vector-effect="non-scaling-stroke" d="
  M 89.84 72.53
  Q 90.15 83.42 89.94 94.95
  Q 89.88 98.19 86.43 99.29"
/>
<path stroke="#3ba3e9" vector-effect="non-scaling-stroke" d="
  M 60.07 50.06
  L 79.11 64.47"
/>
<path stroke="#2484c5" vector-effect="non-scaling-stroke" d="
  M 79.11 64.47
  Q 71.17 64.95 50.82 65.03
  Q 49.24 65.03 49.15 66.29"
/>
<path stroke="#1a7ec1" vector-effect="non-scaling-stroke" d="
  M 44.26 61.93
  L 31.25 50.02"
/>
<path stroke="#2d5e80" vector-effect="non-scaling-stroke" d="
  M 188.09 32.12
  C 190.16 36.34 181.87 39.02 179.77 32.71
  Q 179.58 32.14 178.99 32.20
  L 175.53 32.55
  A 0.80 0.79 -15.0 0 0 174.88 33.67
  C 180.09 45.21 197.47 40.14 192.27 29.88
  C 190.14 25.67 179.88 26.05 180.53 22.29
  A 1.43 1.43 0.0 0 1 181.41 21.19
  Q 186.14 19.29 187.96 23.62
  A 0.54 0.54 0.0 0 0 188.55 23.95
  L 192.03 23.44
  Q 192.60 23.35 192.45 22.79
  C 190.33 14.96 176.66 14.44 175.88 22.73
  C 175.27 29.22 183.04 29.70 187.36 31.45
  Q 187.86 31.64 188.09 32.12"
/>
<path stroke="#2d5e80" vector-effect="non-scaling-stroke" d="
  M 247.58 34.01
  Q 247.34 35.23 245.71 35.79
  Q 240.14 37.68 238.82 32.45
  A 0.53 0.53 0.0 0 0 238.23 32.05
  L 234.72 32.59
  Q 234.14 32.68 234.26 33.26
  C 236.29 43.36 254.02 42.63 252.01 31.60
  C 250.71 24.42 241.72 27.50 239.71 23.36
  A 1.53 1.53 0.0 0 1 240.45 21.30
  Q 245.28 19.12 247.16 23.62
  Q 247.34 24.07 247.82 23.97
  L 250.36 23.49
  Q 252.61 23.06 251.28 21.20
  Q 247.44 15.82 241.16 16.80
  C 236.72 17.48 233.17 22.36 235.85 26.38
  C 237.62 29.03 242.39 30.26 245.51 30.91
  A 2.66 2.66 0.0 0 1 247.58 34.01"
/>
<path stroke="#2d5e80" vector-effect="non-scaling-stroke" d="
  M 153.11 25.63
  A 0.23 0.23 0.0 0 1 153.56 25.57
  L 157.47 39.35
  Q 157.65 40.00 158.33 40.00
  L 161.77 40.00
  Q 162.23 40.00 162.36 39.55
  L 166.35 25.21
  A 0.33 0.33 0.0 0 1 167.00 25.29
  L 167.00 39.50
  Q 167.00 40.00 167.50 40.00
  L 171.00 40.00
  Q 171.50 40.00 171.50 39.50
  L 171.50 17.50
  Q 171.50 17.00 171.00 17.00
  L 164.99 17.00
  Q 164.44 17.00 164.30 17.53
  L 160.45 31.47
  A 0.40 0.39 -45.6 0 1 159.69 31.48
  L 155.55 17.53
  Q 155.39 17.00 154.84 17.00
  L 148.87 17.00
  Q 148.25 17.00 148.25 17.63
  L 148.25 39.50
  Q 148.25 40.00 148.75 40.00
  L 152.20 40.00
  Q 152.66 40.00 152.67 39.54
  L 153.11 25.63"
/>
<path stroke="#2d5e80" vector-effect="non-scaling-stroke" d="
  M 213.60 32.91
  A 0.33 0.33 0.0 0 1 212.98 32.92
  L 207.68 17.22
  A 0.33 0.33 0.0 0 0 207.36 17.00
  L 202.89 17.00
  A 0.33 0.33 0.0 0 0 202.58 17.44
  L 210.55 39.78
  A 0.33 0.33 0.0 0 0 210.86 40.00
  L 215.35 40.00
  A 0.33 0.33 0.0 0 0 215.66 39.78
  L 223.57 17.45
  A 0.33 0.33 0.0 0 0 223.26 17.01
  L 218.82 16.99
  A 0.33 0.33 0.0 0 0 218.51 17.22
  L 213.60 32.91"
/>
<path stroke="#2d5e80" vector-effect="non-scaling-stroke" d="
  M 230.75 17.39
  A 0.38 0.38 0.0 0 0 230.37 17.01
  L 226.39 17.01
  A 0.38 0.38 0.0 0 0 226.01 17.39
  L 226.01 39.71
  A 0.38 0.38 0.0 0 0 226.39 40.09
  L 230.37 40.09
  A 0.38 0.38 0.0 0 0 230.75 39.71
  L 230.75 17.39"
/>
<path stroke="#2d5e80" vector-effect="non-scaling-stroke" d="
  M 260.85 33.17
  C 260.21 28.13 261.21 22.62 260.67 17.41
  Q 260.62 17.00 260.21 17.00
  L 256.55 17.00
  Q 256.15 17.00 256.13 17.40
  C 255.83 25.22 254.07 38.72 261.75 39.96
  C 267.27 40.86 273.39 40.32 274.00 33.73
  Q 274.54 27.91 274.15 17.43
  Q 274.14 17.00 273.71 17.00
  L 270.02 17.00
  Q 269.52 17.00 269.51 17.50
  C 269.49 20.84 270.38 33.11 268.45 35.28
  C 266.68 37.26 261.30 36.68 260.85 33.17"
/>
<path stroke="#2d5e80" vector-effect="non-scaling-stroke" d="
  M 282.67 35.17
  A 0.38 0.38 0.0 0 1 283.02 34.92
  L 291.26 34.69
  A 0.38 0.38 0.0 0 1 291.63 34.94
  L 293.32 39.75
  A 0.38 0.38 0.0 0 0 293.68 40.00
  L 298.18 40.00
  A 0.38 0.38 0.0 0 0 298.53 39.48
  L 289.57 17.24
  A 0.38 0.38 0.0 0 0 289.21 17.00
  L 285.13 17.00
  A 0.38 0.38 0.0 0 0 284.78 17.24
  L 276.03 39.48
  A 0.38 0.38 0.0 0 0 276.39 40.00
  L 280.65 40.00
  A 0.38 0.38 0.0 0 0 281.01 39.75
  L 282.67 35.17"
/>
<path stroke="#2d5e80" vector-effect="non-scaling-stroke" d="
  M 306.09 36.00
  A 0.34 0.34 0.0 0 1 305.75 35.66
  L 305.75 17.34
  A 0.34 0.34 0.0 0 0 305.41 17.00
  L 301.34 17.00
  A 0.34 0.34 0.0 0 0 301.00 17.34
  L 301.00 39.66
  A 0.34 0.34 0.0 0 0 301.34 40.00
  L 315.66 40.00
  A 0.34 0.34 0.0 0 0 316.00 39.66
  L 316.00 36.34
  A 0.34 0.34 0.0 0 0 315.66 36.00
  L 306.09 36.00"
/>
<path stroke="#2d5e80" vector-effect="non-scaling-stroke" d="
  M 135.50 74.40
  C 133.02 76.45 128.39 75.50 127.99 71.62
  Q 127.93 71.02 127.33 71.10
  L 123.52 71.58
  A 0.49 0.48 -10.3 0 0 123.11 72.17
  Q 124.76 78.97 132.28 79.23
  C 141.57 79.56 145.47 68.92 135.73 65.55
  C 133.60 64.81 129.51 64.32 128.51 62.06
  A 1.18 1.17 63.6 0 1 129.01 60.57
  Q 133.99 57.80 136.04 62.57
  Q 136.24 63.02 136.72 62.95
  L 140.30 62.38
  Q 140.67 62.32 140.59 61.96
  C 138.25 51.64 120.34 55.38 124.49 64.66
  C 126.11 68.29 131.00 68.91 134.76 69.96
  C 136.76 70.52 137.12 73.06 135.50 74.40"
/>
<path stroke="#2d5e80" vector-effect="non-scaling-stroke" d="
  M 229.0066 79.4897
  A 11.94 11.28 90.4 0 0 240.3697 67.6287
  A 11.94 11.28 90.4 0 0 229.1734 55.6103
  A 11.94 11.28 90.4 0 0 217.8103 67.4713
  A 11.94 11.28 90.4 0 0 229.0066 79.4897"
/>
<path stroke="#2d5e80" vector-effect="non-scaling-stroke" d="
  M 266.19 78.34
  C 268.84 77.46 270.69 74.91 271.45 72.29
  Q 271.63 71.70 271.02 71.56
  L 267.50 70.76
  Q 267.02 70.65 266.81 71.11
  C 266.18 72.50 265.73 73.71 264.38 74.51
  C 254.65 80.28 251.47 57.30 263.95 60.02
  Q 265.58 60.38 266.30 63.06
  A 0.57 0.57 0.0 0 0 266.97 63.47
  L 270.74 62.70
  A 0.47 0.47 0.0 0 0 271.10 62.09
  Q 269.46 57.28 265.27 56.22
  C 245.90 51.33 246.23 84.97 266.19 78.34"
/>
<path stroke="#2d5e80" vector-effect="non-scaling-stroke" d="
  M 285.4000 79.5000
  A 11.95 11.28 90.0 0 0 296.6800 67.5500
  A 11.95 11.28 90.0 0 0 285.4000 55.6000
  A 11.95 11.28 90.0 0 0 274.1200 67.5500
  A 11.95 11.28 90.0 0 0 285.4000 79.5000"
/>
<path stroke="#2d5e80" vector-effect="non-scaling-stroke" d="
  M 154.00 60.34
  A 0.34 0.34 0.0 0 1 154.34 60.00
  L 160.16 60.00
  A 0.34 0.34 0.0 0 0 160.50 59.66
  L 160.50 56.34
  A 0.34 0.34 0.0 0 0 160.16 56.00
  L 143.03 56.00
  A 0.34 0.34 0.0 0 0 142.69 56.34
  L 142.65 59.66
  A 0.34 0.34 0.0 0 0 142.99 60.00
  L 148.91 60.00
  A 0.34 0.34 0.0 0 1 149.25 60.34
  L 149.25 78.66
  A 0.34 0.34 0.0 0 0 149.59 79.00
  L 153.66 79.00
  A 0.34 0.34 0.0 0 0 154.00 78.66
  L 154.00 60.34"
/>
<path stroke="#2d5e80" vector-effect="non-scaling-stroke" d="
  M 177.15 70.78
  C 176.90 77.36 168.50 76.72 168.36 71.06
  Q 168.18 63.82 168.27 56.53
  Q 168.27 56.00 167.74 56.00
  L 164.23 56.00
  Q 163.66 56.00 163.62 56.57
  C 163.34 60.82 162.58 73.36 165.46 76.55
  Q 167.10 78.36 169.98 78.93
  Q 181.06 81.15 181.50 70.82
  Q 181.81 63.73 182.10 56.60
  Q 182.13 56.00 181.52 56.00
  L 177.54 56.00
  A 0.56 0.56 0.0 0 0 176.98 56.60
  Q 177.42 63.78 177.15 70.78"
/>
<path stroke="#2d5e80" vector-effect="non-scaling-stroke" d="
  M 186.46 56.35
  L 186.54 78.75
  A 0.32 0.32 0.0 0 0 186.86 79.07
  L 195.93 79.04
  A 10.02 9.83 89.8 0 0 205.73 68.99
  L 205.71 65.99
  A 10.02 9.83 89.8 0 0 195.85 56.00
  L 186.78 56.03
  A 0.32 0.32 0.0 0 0 186.46 56.35"
/>
<path stroke="#2d5e80" vector-effect="non-scaling-stroke" d="
  M 214.24 56.43
  A 0.43 0.43 0.0 0 0 213.81 56.00
  L 209.93 56.00
  A 0.43 0.43 0.0 0 0 209.50 56.43
  L 209.50 78.57
  A 0.43 0.43 0.0 0 0 209.93 79.00
  L 213.81 79.00
  A 0.43 0.43 0.0 0 0 214.24 78.57
  L 214.24 56.43"
/>
<path stroke="#2d5e80" vector-effect="non-scaling-stroke" d="
  M 300.22 56.27
  L 300.26 78.81
  A 0.25 0.25 0.0 0 0 300.51 79.06
  L 309.67 79.04
  A 10.05 9.83 89.9 0 0 319.48 68.97
  L 319.48 66.03
  A 10.05 9.83 89.9 0 0 309.63 56.00
  L 300.47 56.02
  A 0.25 0.25 0.0 0 0 300.22 56.27"
/>
<path stroke="#2d5e80" vector-effect="non-scaling-stroke" d="
  M 328.34 75.00
  A 0.34 0.34 0.0 0 1 328.00 74.66
  L 328.00 69.35
  A 0.34 0.34 0.0 0 1 328.35 69.01
  L 337.27 69.24
  A 0.34 0.34 0.0 0 0 337.62 68.90
  L 337.59 65.34
  A 0.34 0.34 0.0 0 0 337.25 65.00
  L 328.34 65.00
  A 0.34 0.34 0.0 0 1 328.00 64.66
  L 328.00 60.34
  A 0.34 0.34 0.0 0 1 328.34 60.00
  L 338.16 60.00
  A 0.34 0.34 0.0 0 0 338.50 59.66
  L 338.50 56.34
  A 0.34 0.34 0.0 0 0 338.16 56.00
  L 323.59 56.00
  A 0.34 0.34 0.0 0 0 323.25 56.34
  L 323.25 78.66
  A 0.34 0.34 0.0 0 0 323.59 79.00
  L 338.66 79.00
  A 0.34 0.34 0.0 0 0 339.00 78.66
  L 339.00 75.34
  A 0.34 0.34 0.0 0 0 338.66 75.00
  L 328.34 75.00"
/>
<path stroke="#2d5e80" vector-effect="non-scaling-stroke" d="
  M 286.96 22.67
  L 284.48 30.39
  Q 284.28 31.00 284.93 31.00
  L 289.33 31.00
  Q 289.98 31.00 289.77 30.38
  L 287.22 22.67
  A 0.14 0.14 0.0 0 0 286.96 22.67"
/>
<path stroke="#2d5e80" vector-effect="non-scaling-stroke" d="
  M 228.9623 75.4388
  A 7.89 6.39 91.0 0 0 235.4890 67.6615
  A 7.89 6.39 91.0 0 0 229.2377 59.6612
  A 7.89 6.39 91.0 0 0 222.7110 67.4385
  A 7.89 6.39 91.0 0 0 228.9623 75.4388"
/>
<path stroke="#2d5e80" vector-effect="non-scaling-stroke" d="
  M 285.3335 75.4694
  A 7.90 6.38 90.7 0 0 291.8095 67.6479
  A 7.90 6.38 90.7 0 0 285.5265 59.6706
  A 7.90 6.38 90.7 0 0 279.0505 67.4921
  A 7.90 6.38 90.7 0 0 285.3335 75.4694"
/>
<path stroke="#2d5e80" vector-effect="non-scaling-stroke" d="
  M 191.21 60.30
  L 191.21 74.76
  A 0.30 0.30 0.0 0 0 191.51 75.06
  L 195.39 75.06
  A 5.76 5.52 -90.0 0 0 200.91 69.30
  L 200.91 65.76
  A 5.76 5.52 90.0 0 0 195.39 60.00
  L 191.51 60.00
  A 0.30 0.30 0.0 0 0 191.21 60.30"
/>
<path stroke="#2d5e80" vector-effect="non-scaling-stroke" d="
  M 304.98 60.66
  L 305.02 74.44
  A 0.62 0.62 0.0 0 0 305.65 75.05
  L 309.67 75.04
  A 5.72 5.08 89.8 0 0 314.73 69.30
  L 314.71 65.72
  A 5.72 5.08 89.8 0 0 309.61 60.02
  L 305.59 60.03
  A 0.62 0.62 0.0 0 0 304.98 60.66"
/>
</g>
<path fill="#59bcff" d="
  M 0.00 0.00
  L 350.00 0.00
  L 350.00 100.00
  L 0.00 100.00
  L 0.00 0.00
  Z
  M 86.25 1.12
  Q 85.46 0.74 84.81 1.31
  Q 70.43 14.08 44.38 38.10
  Q 36.02 31.74 27.64 25.41
  C 25.85 24.05 23.85 23.73 22.10 25.10
  C 20.39 26.44 12.25 32.47 15.88 35.85
  Q 23.49 42.93 31.25 50.02
  Q 23.63 56.92 16.59 63.47
  C 11.20 68.49 23.82 77.28 26.25 75.50
  Q 35.13 69.00 44.26 61.93
  L 49.15 66.29
  Q 71.27 86.68 84.81 98.69
  Q 85.39 99.20 86.43 99.29
  Q 88.41 100.09 89.94 99.43
  Q 99.25 95.41 111.29 89.20
  C 113.23 88.19 114.99 86.32 114.99 84.25
  Q 115.01 75.37 114.99 66.50
  Q 115.02 41.78 114.99 17.06
  C 114.98 13.27 113.97 12.07 110.81 10.45
  Q 100.64 5.25 90.21 0.52
  A 1.54 1.51 -38.5 0 0 89.25 0.42
  L 86.25 1.12
  Z
  M 188.09 32.12
  C 190.16 36.34 181.87 39.02 179.77 32.71
  Q 179.58 32.14 178.99 32.20
  L 175.53 32.55
  A 0.80 0.79 -15.0 0 0 174.88 33.67
  C 180.09 45.21 197.47 40.14 192.27 29.88
  C 190.14 25.67 179.88 26.05 180.53 22.29
  A 1.43 1.43 0.0 0 1 181.41 21.19
  Q 186.14 19.29 187.96 23.62
  A 0.54 0.54 0.0 0 0 188.55 23.95
  L 192.03 23.44
  Q 192.60 23.35 192.45 22.79
  C 190.33 14.96 176.66 14.44 175.88 22.73
  C 175.27 29.22 183.04 29.70 187.36 31.45
  Q 187.86 31.64 188.09 32.12
  Z
  M 247.58 34.01
  Q 247.34 35.23 245.71 35.79
  Q 240.14 37.68 238.82 32.45
  A 0.53 0.53 0.0 0 0 238.23 32.05
  L 234.72 32.59
  Q 234.14 32.68 234.26 33.26
  C 236.29 43.36 254.02 42.63 252.01 31.60
  C 250.71 24.42 241.72 27.50 239.71 23.36
  A 1.53 1.53 0.0 0 1 240.45 21.30
  Q 245.28 19.12 247.16 23.62
  Q 247.34 24.07 247.82 23.97
  L 250.36 23.49
  Q 252.61 23.06 251.28 21.20
  Q 247.44 15.82 241.16 16.80
  C 236.72 17.48 233.17 22.36 235.85 26.38
  C 237.62 29.03 242.39 30.26 245.51 30.91
  A 2.66 2.66 0.0 0 1 247.58 34.01
  Z
  M 153.11 25.63
  A 0.23 0.23 0.0 0 1 153.56 25.57
  L 157.47 39.35
  Q 157.65 40.00 158.33 40.00
  L 161.77 40.00
  Q 162.23 40.00 162.36 39.55
  L 166.35 25.21
  A 0.33 0.33 0.0 0 1 167.00 25.29
  L 167.00 39.50
  Q 167.00 40.00 167.50 40.00
  L 171.00 40.00
  Q 171.50 40.00 171.50 39.50
  L 171.50 17.50
  Q 171.50 17.00 171.00 17.00
  L 164.99 17.00
  Q 164.44 17.00 164.30 17.53
  L 160.45 31.47
  A 0.40 0.39 -45.6 0 1 159.69 31.48
  L 155.55 17.53
  Q 155.39 17.00 154.84 17.00
  L 148.87 17.00
  Q 148.25 17.00 148.25 17.63
  L 148.25 39.50
  Q 148.25 40.00 148.75 40.00
  L 152.20 40.00
  Q 152.66 40.00 152.67 39.54
  L 153.11 25.63
  Z
  M 213.60 32.91
  A 0.33 0.33 0.0 0 1 212.98 32.92
  L 207.68 17.22
  A 0.33 0.33 0.0 0 0 207.36 17.00
  L 202.89 17.00
  A 0.33 0.33 0.0 0 0 202.58 17.44
  L 210.55 39.78
  A 0.33 0.33 0.0 0 0 210.86 40.00
  L 215.35 40.00
  A 0.33 0.33 0.0 0 0 215.66 39.78
  L 223.57 17.45
  A 0.33 0.33 0.0 0 0 223.26 17.01
  L 218.82 16.99
  A 0.33 0.33 0.0 0 0 218.51 17.22
  L 213.60 32.91
  Z
  M 230.75 17.39
  A 0.38 0.38 0.0 0 0 230.37 17.01
  L 226.39 17.01
  A 0.38 0.38 0.0 0 0 226.01 17.39
  L 226.01 39.71
  A 0.38 0.38 0.0 0 0 226.39 40.09
  L 230.37 40.09
  A 0.38 0.38 0.0 0 0 230.75 39.71
  L 230.75 17.39
  Z
  M 260.85 33.17
  C 260.21 28.13 261.21 22.62 260.67 17.41
  Q 260.62 17.00 260.21 17.00
  L 256.55 17.00
  Q 256.15 17.00 256.13 17.40
  C 255.83 25.22 254.07 38.72 261.75 39.96
  C 267.27 40.86 273.39 40.32 274.00 33.73
  Q 274.54 27.91 274.15 17.43
  Q 274.14 17.00 273.71 17.00
  L 270.02 17.00
  Q 269.52 17.00 269.51 17.50
  C 269.49 20.84 270.38 33.11 268.45 35.28
  C 266.68 37.26 261.30 36.68 260.85 33.17
  Z
  M 282.67 35.17
  A 0.38 0.38 0.0 0 1 283.02 34.92
  L 291.26 34.69
  A 0.38 0.38 0.0 0 1 291.63 34.94
  L 293.32 39.75
  A 0.38 0.38 0.0 0 0 293.68 40.00
  L 298.18 40.00
  A 0.38 0.38 0.0 0 0 298.53 39.48
  L 289.57 17.24
  A 0.38 0.38 0.0 0 0 289.21 17.00
  L 285.13 17.00
  A 0.38 0.38 0.0 0 0 284.78 17.24
  L 276.03 39.48
  A 0.38 0.38 0.0 0 0 276.39 40.00
  L 280.65 40.00
  A 0.38 0.38 0.0 0 0 281.01 39.75
  L 282.67 35.17
  Z
  M 306.09 36.00
  A 0.34 0.34 0.0 0 1 305.75 35.66
  L 305.75 17.34
  A 0.34 0.34 0.0 0 0 305.41 17.00
  L 301.34 17.00
  A 0.34 0.34 0.0 0 0 301.00 17.34
  L 301.00 39.66
  A 0.34 0.34 0.0 0 0 301.34 40.00
  L 315.66 40.00
  A 0.34 0.34 0.0 0 0 316.00 39.66
  L 316.00 36.34
  A 0.34 0.34 0.0 0 0 315.66 36.00
  L 306.09 36.00
  Z
  M 135.50 74.40
  C 133.02 76.45 128.39 75.50 127.99 71.62
  Q 127.93 71.02 127.33 71.10
  L 123.52 71.58
  A 0.49 0.48 -10.3 0 0 123.11 72.17
  Q 124.76 78.97 132.28 79.23
  C 141.57 79.56 145.47 68.92 135.73 65.55
  C 133.60 64.81 129.51 64.32 128.51 62.06
  A 1.18 1.17 63.6 0 1 129.01 60.57
  Q 133.99 57.80 136.04 62.57
  Q 136.24 63.02 136.72 62.95
  L 140.30 62.38
  Q 140.67 62.32 140.59 61.96
  C 138.25 51.64 120.34 55.38 124.49 64.66
  C 126.11 68.29 131.00 68.91 134.76 69.96
  C 136.76 70.52 137.12 73.06 135.50 74.40
  Z
  M 229.0066 79.4897
  A 11.94 11.28 90.4 0 0 240.3697 67.6287
  A 11.94 11.28 90.4 0 0 229.1734 55.6103
  A 11.94 11.28 90.4 0 0 217.8103 67.4713
  A 11.94 11.28 90.4 0 0 229.0066 79.4897
  Z
  M 266.19 78.34
  C 268.84 77.46 270.69 74.91 271.45 72.29
  Q 271.63 71.70 271.02 71.56
  L 267.50 70.76
  Q 267.02 70.65 266.81 71.11
  C 266.18 72.50 265.73 73.71 264.38 74.51
  C 254.65 80.28 251.47 57.30 263.95 60.02
  Q 265.58 60.38 266.30 63.06
  A 0.57 0.57 0.0 0 0 266.97 63.47
  L 270.74 62.70
  A 0.47 0.47 0.0 0 0 271.10 62.09
  Q 269.46 57.28 265.27 56.22
  C 245.90 51.33 246.23 84.97 266.19 78.34
  Z
  M 285.4000 79.5000
  A 11.95 11.28 90.0 0 0 296.6800 67.5500
  A 11.95 11.28 90.0 0 0 285.4000 55.6000
  A 11.95 11.28 90.0 0 0 274.1200 67.5500
  A 11.95 11.28 90.0 0 0 285.4000 79.5000
  Z
  M 154.00 60.34
  A 0.34 0.34 0.0 0 1 154.34 60.00
  L 160.16 60.00
  A 0.34 0.34 0.0 0 0 160.50 59.66
  L 160.50 56.34
  A 0.34 0.34 0.0 0 0 160.16 56.00
  L 143.03 56.00
  A 0.34 0.34 0.0 0 0 142.69 56.34
  L 142.65 59.66
  A 0.34 0.34 0.0 0 0 142.99 60.00
  L 148.91 60.00
  A 0.34 0.34 0.0 0 1 149.25 60.34
  L 149.25 78.66
  A 0.34 0.34 0.0 0 0 149.59 79.00
  L 153.66 79.00
  A 0.34 0.34 0.0 0 0 154.00 78.66
  L 154.00 60.34
  Z
  M 177.15 70.78
  C 176.90 77.36 168.50 76.72 168.36 71.06
  Q 168.18 63.82 168.27 56.53
  Q 168.27 56.00 167.74 56.00
  L 164.23 56.00
  Q 163.66 56.00 163.62 56.57
  C 163.34 60.82 162.58 73.36 165.46 76.55
  Q 167.10 78.36 169.98 78.93
  Q 181.06 81.15 181.50 70.82
  Q 181.81 63.73 182.10 56.60
  Q 182.13 56.00 181.52 56.00
  L 177.54 56.00
  A 0.56 0.56 0.0 0 0 176.98 56.60
  Q 177.42 63.78 177.15 70.78
  Z
  M 186.46 56.35
  L 186.54 78.75
  A 0.32 0.32 0.0 0 0 186.86 79.07
  L 195.93 79.04
  A 10.02 9.83 89.8 0 0 205.73 68.99
  L 205.71 65.99
  A 10.02 9.83 89.8 0 0 195.85 56.00
  L 186.78 56.03
  A 0.32 0.32 0.0 0 0 186.46 56.35
  Z
  M 214.24 56.43
  A 0.43 0.43 0.0 0 0 213.81 56.00
  L 209.93 56.00
  A 0.43 0.43 0.0 0 0 209.50 56.43
  L 209.50 78.57
  A 0.43 0.43 0.0 0 0 209.93 79.00
  L 213.81 79.00
  A 0.43 0.43 0.0 0 0 214.24 78.57
  L 214.24 56.43
  Z
  M 300.22 56.27
  L 300.26 78.81
  A 0.25 0.25 0.0 0 0 300.51 79.06
  L 309.67 79.04
  A 10.05 9.83 89.9 0 0 319.48 68.97
  L 319.48 66.03
  A 10.05 9.83 89.9 0 0 309.63 56.00
  L 300.47 56.02
  A 0.25 0.25 0.0 0 0 300.22 56.27
  Z
  M 328.34 75.00
  A 0.34 0.34 0.0 0 1 328.00 74.66
  L 328.00 69.35
  A 0.34 0.34 0.0 0 1 328.35 69.01
  L 337.27 69.24
  A 0.34 0.34 0.0 0 0 337.62 68.90
  L 337.59 65.34
  A 0.34 0.34 0.0 0 0 337.25 65.00
  L 328.34 65.00
  A 0.34 0.34 0.0 0 1 328.00 64.66
  L 328.00 60.34
  A 0.34 0.34 0.0 0 1 328.34 60.00
  L 338.16 60.00
  A 0.34 0.34 0.0 0 0 338.50 59.66
  L 338.50 56.34
  A 0.34 0.34 0.0 0 0 338.16 56.00
  L 323.59 56.00
  A 0.34 0.34 0.0 0 0 323.25 56.34
  L 323.25 78.66
  A 0.34 0.34 0.0 0 0 323.59 79.00
  L 338.66 79.00
  A 0.34 0.34 0.0 0 0 339.00 78.66
  L 339.00 75.34
  A 0.34 0.34 0.0 0 0 338.66 75.00
  L 328.34 75.00
  Z"
/>
<path fill="#44acf2" d="
  M 114.99 66.50
  L 89.98 66.50
  L 89.94 28.42
  Q 89.94 28.06 89.58 27.99
  Q 89.41 27.96 89.23 27.94
  L 89.67 27.44
  A 1.27 1.23 -25.0 0 0 89.99 26.61
  Q 90.00 15.93 89.94 5.25
  Q 89.91 1.53 86.25 1.12
  L 89.25 0.42
  A 1.54 1.51 -38.5 0 1 90.21 0.52
  Q 100.64 5.25 110.81 10.45
  C 113.97 12.07 114.98 13.27 114.99 17.06
  Q 115.02 41.78 114.99 66.50
  Z"
/>
<path fill="#2b7eb7" d="
  M 86.25 1.12
  Q 89.91 1.53 89.94 5.25
  Q 90.00 15.93 89.99 26.61
  A 1.27 1.23 -25.0 0 1 89.67 27.44
  L 89.23 27.94
  L 60.07 50.06
  L 44.38 38.10
  Q 70.43 14.08 84.81 1.31
  Q 85.46 0.74 86.25 1.12
  Z"
/>
<path fill="#000000" d="
  M 187.36 31.45
  C 183.04 29.70 175.27 29.22 175.88 22.73
  C 176.66 14.44 190.33 14.96 192.45 22.79
  Q 192.60 23.35 192.03 23.44
  L 188.55 23.95
  A 0.54 0.54 0.0 0 1 187.96 23.62
  Q 186.14 19.29 181.41 21.19
  A 1.43 1.43 0.0 0 0 180.53 22.29
  C 179.88 26.05 190.14 25.67 192.27 29.88
  C 197.47 40.14 180.09 45.21 174.88 33.67
  A 0.80 0.79 -15.0 0 1 175.53 32.55
  L 178.99 32.20
  Q 179.58 32.14 179.77 32.71
  C 181.87 39.02 190.16 36.34 188.09 32.12
  Q 187.86 31.64 187.36 31.45
  Z"
/>
<path fill="#000000" d="
  M 247.58 34.01
  A 2.66 2.66 0.0 0 0 245.51 30.91
  C 242.39 30.26 237.62 29.03 235.85 26.38
  C 233.17 22.36 236.72 17.48 241.16 16.80
  Q 247.44 15.82 251.28 21.20
  Q 252.61 23.06 250.36 23.49
  L 247.82 23.97
  Q 247.34 24.07 247.16 23.62
  Q 245.28 19.12 240.45 21.30
  A 1.53 1.53 0.0 0 0 239.71 23.36
  C 241.72 27.50 250.71 24.42 252.01 31.60
  C 254.02 42.63 236.29 43.36 234.26 33.26
  Q 234.14 32.68 234.72 32.59
  L 238.23 32.05
  A 0.53 0.53 0.0 0 1 238.82 32.45
  Q 240.14 37.68 245.71 35.79
  Q 247.34 35.23 247.58 34.01
  Z"
/>
<path fill="#000000" d="
  M 153.11 25.63
  L 152.67 39.54
  Q 152.66 40.00 152.20 40.00
  L 148.75 40.00
  Q 148.25 40.00 148.25 39.50
  L 148.25 17.63
  Q 148.25 17.00 148.87 17.00
  L 154.84 17.00
  Q 155.39 17.00 155.55 17.53
  L 159.69 31.48
  A 0.40 0.39 -45.6 0 0 160.45 31.47
  L 164.30 17.53
  Q 164.44 17.00 164.99 17.00
  L 171.00 17.00
  Q 171.50 17.00 171.50 17.50
  L 171.50 39.50
  Q 171.50 40.00 171.00 40.00
  L 167.50 40.00
  Q 167.00 40.00 167.00 39.50
  L 167.00 25.29
  A 0.33 0.33 0.0 0 0 166.35 25.21
  L 162.36 39.55
  Q 162.23 40.00 161.77 40.00
  L 158.33 40.00
  Q 157.65 40.00 157.47 39.35
  L 153.56 25.57
  A 0.23 0.23 0.0 0 0 153.11 25.63
  Z"
/>
<path fill="#000000" d="
  M 213.60 32.91
  L 218.51 17.22
  A 0.33 0.33 0.0 0 1 218.82 16.99
  L 223.26 17.01
  A 0.33 0.33 0.0 0 1 223.57 17.45
  L 215.66 39.78
  A 0.33 0.33 0.0 0 1 215.35 40.00
  L 210.86 40.00
  A 0.33 0.33 0.0 0 1 210.55 39.78
  L 202.58 17.44
  A 0.33 0.33 0.0 0 1 202.89 17.00
  L 207.36 17.00
  A 0.33 0.33 0.0 0 1 207.68 17.22
  L 212.98 32.92
  A 0.33 0.33 0.0 0 0 213.60 32.91
  Z"
/>
<rect fill="#000000" x="226.01" y="17.01" width="4.74" height="23.08" rx="0.38"/>
<path fill="#000000" d="
  M 260.67 17.41
  C 261.21 22.62 260.21 28.13 260.85 33.17
  C 261.30 36.68 266.68 37.26 268.45 35.28
  C 270.38 33.11 269.49 20.84 269.51 17.50
  Q 269.52 17.00 270.02 17.00
  L 273.71 17.00
  Q 274.14 17.00 274.15 17.43
  Q 274.54 27.91 274.00 33.73
  C 273.39 40.32 267.27 40.86 261.75 39.96
  C 254.07 38.72 255.83 25.22 256.13 17.40
  Q 256.15 17.00 256.55 17.00
  L 260.21 17.00
  Q 260.62 17.00 260.67 17.41
  Z"
/>
<path fill="#000000" d="
  M 282.67 35.17
  L 281.01 39.75
  A 0.38 0.38 0.0 0 1 280.65 40.00
  L 276.39 40.00
  A 0.38 0.38 0.0 0 1 276.03 39.48
  L 284.78 17.24
  A 0.38 0.38 0.0 0 1 285.13 17.00
  L 289.21 17.00
  A 0.38 0.38 0.0 0 1 289.57 17.24
  L 298.53 39.48
  A 0.38 0.38 0.0 0 1 298.18 40.00
  L 293.68 40.00
  A 0.38 0.38 0.0 0 1 293.32 39.75
  L 291.63 34.94
  A 0.38 0.38 0.0 0 0 291.26 34.69
  L 283.02 34.92
  A 0.38 0.38 0.0 0 0 282.67 35.17
  Z
  M 286.96 22.67
  L 284.48 30.39
  Q 284.28 31.00 284.93 31.00
  L 289.33 31.00
  Q 289.98 31.00 289.77 30.38
  L 287.22 22.67
  A 0.14 0.14 0.0 0 0 286.96 22.67
  Z"
/>
<path fill="#000000" d="
  M 306.09 36.00
  L 315.66 36.00
  A 0.34 0.34 0.0 0 1 316.00 36.34
  L 316.00 39.66
  A 0.34 0.34 0.0 0 1 315.66 40.00
  L 301.34 40.00
  A 0.34 0.34 0.0 0 1 301.00 39.66
  L 301.00 17.34
  A 0.34 0.34 0.0 0 1 301.34 17.00
  L 305.41 17.00
  A 0.34 0.34 0.0 0 1 305.75 17.34
  L 305.75 35.66
  A 0.34 0.34 0.0 0 0 306.09 36.00
  Z"
/>
<path fill="#59bcff" d="
  M 286.96 22.67
  A 0.14 0.14 0.0 0 1 287.22 22.67
  L 289.77 30.38
  Q 289.98 31.00 289.33 31.00
  L 284.93 31.00
  Q 284.28 31.00 284.48 30.39
  L 286.96 22.67
  Z"
/>
<path fill="#1c89d2" d="
  M 44.38 38.10
  L 60.07 50.06
  L 79.11 64.47
  Q 71.17 64.95 50.82 65.03
  Q 49.24 65.03 49.15 66.29
  L 44.26 61.93
  L 31.25 50.02
  Q 23.49 42.93 15.88 35.85
  C 12.25 32.47 20.39 26.44 22.10 25.10
  C 23.85 23.73 25.85 24.05 27.64 25.41
  Q 36.02 31.74 44.38 38.10
  Z"
/>
<path fill="#59bcff" d="
  M 89.23 27.94
  Q 89.41 27.96 89.58 27.99
  Q 89.94 28.06 89.94 28.42
  L 89.98 66.50
  L 89.84 72.53
  L 79.11 64.47
  L 60.07 50.06
  L 89.23 27.94
  Z"
/>
<path fill="#1772b0" d="
  M 31.25 50.02
  L 44.26 61.93
  Q 35.13 69.00 26.25 75.50
  C 23.82 77.28 11.20 68.49 16.59 63.47
  Q 23.63 56.92 31.25 50.02
  Z"
/>
<path fill="#000000" d="
  M 127.99 71.62
  C 128.39 75.50 133.02 76.45 135.50 74.40
  C 137.12 73.06 136.76 70.52 134.76 69.96
  C 131.00 68.91 126.11 68.29 124.49 64.66
  C 120.34 55.38 138.25 51.64 140.59 61.96
  Q 140.67 62.32 140.30 62.38
  L 136.72 62.95
  Q 136.24 63.02 136.04 62.57
  Q 133.99 57.80 129.01 60.57
  A 1.18 1.17 63.6 0 0 128.51 62.06
  C 129.51 64.32 133.60 64.81 135.73 65.55
  C 145.47 68.92 141.57 79.56 132.28 79.23
  Q 124.76 78.97 123.11 72.17
  A 0.49 0.48 -10.3 0 1 123.52 71.58
  L 127.33 71.10
  Q 127.93 71.02 127.99 71.62
  Z"
/>
<path fill="#000000" d="
  M 229.0066 79.4897
  A 11.94 11.28 90.4 0 1 217.8103 67.4713
  A 11.94 11.28 90.4 0 1 229.1734 55.6103
  A 11.94 11.28 90.4 0 1 240.3697 67.6287
  A 11.94 11.28 90.4 0 1 229.0066 79.4897
  Z
  M 228.9623 75.4388
  A 7.89 6.39 91.0 0 0 235.4890 67.6615
  A 7.89 6.39 91.0 0 0 229.2377 59.6612
  A 7.89 6.39 91.0 0 0 222.7110 67.4385
  A 7.89 6.39 91.0 0 0 228.9623 75.4388
  Z"
/>
<path fill="#000000" d="
  M 271.45 72.29
  C 270.69 74.91 268.84 77.46 266.19 78.34
  C 246.23 84.97 245.90 51.33 265.27 56.22
  Q 269.46 57.28 271.10 62.09
  A 0.47 0.47 0.0 0 1 270.74 62.70
  L 266.97 63.47
  A 0.57 0.57 0.0 0 1 266.30 63.06
  Q 265.58 60.38 263.95 60.02
  C 251.47 57.30 254.65 80.28 264.38 74.51
  C 265.73 73.71 266.18 72.50 266.81 71.11
  Q 267.02 70.65 267.50 70.76
  L 271.02 71.56
  Q 271.63 71.70 271.45 72.29
  Z"
/>
<path fill="#000000" d="
  M 285.4000 79.5000
  A 11.95 11.28 90.0 0 1 274.1200 67.5500
  A 11.95 11.28 90.0 0 1 285.4000 55.6000
  A 11.95 11.28 90.0 0 1 296.6800 67.5500
  A 11.95 11.28 90.0 0 1 285.4000 79.5000
  Z
  M 285.3335 75.4694
  A 7.90 6.38 90.7 0 0 291.8095 67.6479
  A 7.90 6.38 90.7 0 0 285.5265 59.6706
  A 7.90 6.38 90.7 0 0 279.0505 67.4921
  A 7.90 6.38 90.7 0 0 285.3335 75.4694
  Z"
/>
<path fill="#000000" d="
  M 154.00 60.34
  L 154.00 78.66
  A 0.34 0.34 0.0 0 1 153.66 79.00
  L 149.59 79.00
  A 0.34 0.34 0.0 0 1 149.25 78.66
  L 149.25 60.34
  A 0.34 0.34 0.0 0 0 148.91 60.00
  L 142.99 60.00
  A 0.34 0.34 0.0 0 1 142.65 59.66
  L 142.69 56.34
  A 0.34 0.34 0.0 0 1 143.03 56.00
  L 160.16 56.00
  A 0.34 0.34 0.0 0 1 160.50 56.34
  L 160.50 59.66
  A 0.34 0.34 0.0 0 1 160.16 60.00
  L 154.34 60.00
  A 0.34 0.34 0.0 0 0 154.00 60.34
  Z"
/>
<path fill="#000000" d="
  M 168.36 71.06
  C 168.50 76.72 176.90 77.36 177.15 70.78
  Q 177.42 63.78 176.98 56.60
  A 0.56 0.56 0.0 0 1 177.54 56.00
  L 181.52 56.00
  Q 182.13 56.00 182.10 56.60
  Q 181.81 63.73 181.50 70.82
  Q 181.06 81.15 169.98 78.93
  Q 167.10 78.36 165.46 76.55
  C 162.58 73.36 163.34 60.82 163.62 56.57
  Q 163.66 56.00 164.23 56.00
  L 167.74 56.00
  Q 168.27 56.00 168.27 56.53
  Q 168.18 63.82 168.36 71.06
  Z"
/>
<path fill="#000000" d="
  M 186.46 56.35
  A 0.32 0.32 0.0 0 1 186.78 56.03
  L 195.85 56.00
  A 10.02 9.83 89.8 0 1 205.71 65.99
  L 205.73 68.99
  A 10.02 9.83 89.8 0 1 195.93 79.04
  L 186.86 79.07
  A 0.32 0.32 0.0 0 1 186.54 78.75
  L 186.46 56.35
  Z
  M 191.21 60.30
  L 191.21 74.76
  A 0.30 0.30 0.0 0 0 191.51 75.06
  L 195.39 75.06
  A 5.76 5.52 -90.0 0 0 200.91 69.30
  L 200.91 65.76
  A 5.76 5.52 90.0 0 0 195.39 60.00
  L 191.51 60.00
  A 0.30 0.30 0.0 0 0 191.21 60.30
  Z"
/>
<rect fill="#000000" x="209.50" y="56.00" width="4.74" height="23.00" rx="0.43"/>
<path fill="#000000" d="
  M 300.22 56.27
  A 0.25 0.25 0.0 0 1 300.47 56.02
  L 309.63 56.00
  A 10.05 9.83 89.9 0 1 319.48 66.03
  L 319.48 68.97
  A 10.05 9.83 89.9 0 1 309.67 79.04
  L 300.51 79.06
  A 0.25 0.25 0.0 0 1 300.26 78.81
  L 300.22 56.27
  Z
  M 304.98 60.66
  L 305.02 74.44
  A 0.62 0.62 0.0 0 0 305.65 75.05
  L 309.67 75.04
  A 5.72 5.08 89.8 0 0 314.73 69.30
  L 314.71 65.72
  A 5.72 5.08 89.8 0 0 309.61 60.02
  L 305.59 60.03
  A 0.62 0.62 0.0 0 0 304.98 60.66
  Z"
/>
<path fill="#000000" d="
  M 328.34 75.00
  L 338.66 75.00
  A 0.34 0.34 0.0 0 1 339.00 75.34
  L 339.00 78.66
  A 0.34 0.34 0.0 0 1 338.66 79.00
  L 323.59 79.00
  A 0.34 0.34 0.0 0 1 323.25 78.66
  L 323.25 56.34
  A 0.34 0.34 0.0 0 1 323.59 56.00
  L 338.16 56.00
  A 0.34 0.34 0.0 0 1 338.50 56.34
  L 338.50 59.66
  A 0.34 0.34 0.0 0 1 338.16 60.00
  L 328.34 60.00
  A 0.34 0.34 0.0 0 0 328.00 60.34
  L 328.00 64.66
  A 0.34 0.34 0.0 0 0 328.34 65.00
  L 337.25 65.00
  A 0.34 0.34 0.0 0 1 337.59 65.34
  L 337.62 68.90
  A 0.34 0.34 0.0 0 1 337.27 69.24
  L 328.35 69.01
  A 0.34 0.34 0.0 0 0 328.00 69.35
  L 328.00 74.66
  A 0.34 0.34 0.0 0 0 328.34 75.00
  Z"
/>
<ellipse fill="#59bcff" cx="0.00" cy="0.00" transform="translate(229.10,67.55) rotate(91.0)" rx="7.89" ry="6.39"/>
<ellipse fill="#59bcff" cx="0.00" cy="0.00" transform="translate(285.43,67.57) rotate(90.7)" rx="7.90" ry="6.38"/>
<path fill="#59bcff" d="
  M 191.21 60.30
  A 0.30 0.30 0.0 0 1 191.51 60.00
  L 195.39 60.00
  A 5.76 5.52 90.0 0 1 200.91 65.76
  L 200.91 69.30
  A 5.76 5.52 -90.0 0 1 195.39 75.06
  L 191.51 75.06
  A 0.30 0.30 0.0 0 1 191.21 74.76
  L 191.21 60.30
  Z"
/>
<path fill="#59bcff" d="
  M 304.98 60.66
  A 0.62 0.62 0.0 0 1 305.59 60.03
  L 309.61 60.02
  A 5.72 5.08 89.8 0 1 314.71 65.72
  L 314.73 69.30
  A 5.72 5.08 89.8 0 1 309.67 75.04
  L 305.65 75.05
  A 0.62 0.62 0.0 0 1 305.02 74.44
  L 304.98 60.66
  Z"
/>
<path fill="#2b7eb7" d="
  M 79.11 64.47
  L 89.84 72.53
  Q 90.15 83.42 89.94 94.95
  Q 89.88 98.19 86.43 99.29
  Q 85.39 99.20 84.81 98.69
  Q 71.27 86.68 49.15 66.29
  Q 49.24 65.03 50.82 65.03
  Q 71.17 64.95 79.11 64.47
  Z"
/>
<path fill="#2aa1f1" d="
  M 89.98 66.50
  L 114.99 66.50
  Q 115.01 75.37 114.99 84.25
  C 114.99 86.32 113.23 88.19 111.29 89.20
  Q 99.25 95.41 89.94 99.43
  Q 88.41 100.09 86.43 99.29
  Q 89.88 98.19 89.94 94.95
  Q 90.15 83.42 89.84 72.53
  L 89.98 66.50
  Z"
/>
</svg>
