<?xml version="1.0" encoding="UTF-8" standalone="no"?>
<!DOCTYPE svg PUBLIC "-//W3C//DTD SVG 1.1//EN" "http://www.w3.org/Graphics/SVG/1.1/DTD/svg11.dtd">
<svg xmlns="http://www.w3.org/2000/svg" version="1.1" viewBox="0.00 0.00 350.00 100.00">
<g stroke-width="2.00" fill="none" stroke-linecap="butt">
<path stroke="#a678da" vector-effect="non-scaling-stroke" d="
  M 86.76 1.36
  Q 84.33 0.33 82.19 2.69
  Q 65.81 20.70 49.48 38.78"
/>
<path stroke="#b185e3" vector-effect="non-scaling-stroke" d="
  M 49.48 38.78
  Q 38.82 29.99 28.14 21.37
  Q 26.51 20.06 24.26 20.78
  Q 17.80 22.83 14.10 25.92"
/>
<path stroke="#946dc8" vector-effect="non-scaling-stroke" d="
  M 14.10 25.92
  L 14.11 73.57"
/>
<path stroke="#a678da" vector-effect="non-scaling-stroke" d="
  M 14.11 73.57
  C 15.91 76.47 23.48 79.23 26.78 79.25
  Q 27.27 79.25 27.65 78.94
  L 49.49 61.03"
/>
<path stroke="#b185e3" vector-effect="non-scaling-stroke" d="
  M 49.49 61.03
  Q 66.16 79.57 82.92 97.94
  C 83.44 98.51 84.46 98.82 85.14 98.93"
/>
<path stroke="#c59ff5" vector-effect="non-scaling-stroke" d="
  M 85.14 98.93
  Q 86.87 100.26 89.34 99.11
  Q 99.95 94.19 110.38 88.92
  C 112.19 88.00 113.75 86.13 113.75 84.25
  Q 113.76 50.42 113.74 16.58
  C 113.74 14.64 112.78 12.08 111.19 11.30
  Q 100.46 6.03 89.67 0.83
  Q 88.21 0.12 86.76 1.36"
/>
<path stroke="#a870e1" vector-effect="non-scaling-stroke" d="
  M 85.14 98.93
  C 89.20 97.91 88.76 95.89 88.74 91.97
  Q 88.70 81.23 88.85 70.99"
/>
<path stroke="#c59ff5" vector-effect="non-scaling-stroke" d="
  M 88.85 70.99
  L 88.94 28.82"
/>
<path stroke="#9d63d8" vector-effect="non-scaling-stroke" d="
  M 88.94 28.82
  Q 88.66 16.49 88.69 3.81
  Q 88.69 2.32 86.76 1.36"
/>
<path stroke="#b185e3" vector-effect="non-scaling-stroke" d="
  M 63.13 49.94
  L 88.85 70.99"
/>
<path stroke="#8949c5" vector-effect="non-scaling-stroke" d="
  M 49.49 61.03
  L 39.39 49.97"
/>
<path stroke="#b185e3" vector-effect="non-scaling-stroke" d="
  M 39.39 49.97
  L 26.58 35.94"
/>
<path stroke="#783db3" vector-effect="non-scaling-stroke" d="
  M 26.58 35.94
  L 17.66 26.08
  A 1.10 1.10 0.0 0 0 16.77 25.73
  L 14.10 25.92"
/>
<path stroke="#a678da" vector-effect="non-scaling-stroke" d="
  M 88.94 28.82
  L 63.13 49.94"
/>
<path stroke="#8949c5" vector-effect="non-scaling-stroke" d="
  M 63.13 49.94
  L 49.48 38.78"
/>
<path stroke="#a678da" vector-effect="non-scaling-stroke" d="
  M 39.39 49.97
  L 26.55 64.02"
/>
<path stroke="#946dc8" vector-effect="non-scaling-stroke" d="
  M 26.58 35.94
  L 26.55 64.02"
/>
<path stroke="#6d31aa" vector-effect="non-scaling-stroke" d="
  M 26.55 64.02
  Q 22.50 68.63 18.00 73.50
  Q 17.03 74.55 14.11 73.57"
/>
<path stroke="#675a7c" vector-effect="non-scaling-stroke" d="
  M 185.16 22.20
  C 183.40 12.59 166.51 12.27 165.86 21.98
  C 165.17 32.28 181.96 28.91 180.48 34.99
  Q 180.00 36.94 177.75 37.47
  Q 171.83 38.87 170.31 33.40
  A 0.65 0.65 0.0 0 0 169.65 32.93
  L 165.55 33.22
  Q 164.94 33.27 165.00 33.87
  C 166.39 47.97 192.50 42.88 184.85 29.93
  C 182.32 25.64 171.14 25.46 171.17 21.92
  C 171.20 18.25 178.74 18.55 179.86 22.69
  Q 179.97 23.09 180.40 23.06
  L 184.70 22.79
  Q 185.26 22.75 185.16 22.20"
/>
<path stroke="#675a7c" vector-effect="non-scaling-stroke" d="
  M 209.60 34.42
  A 0.14 0.13 44.3 0 1 209.34 34.42
  Q 206.16 25.18 203.10 15.91
  A 0.85 0.84 82.4 0 0 202.34 15.32
  L 197.43 15.07
  A 0.42 0.41 82.3 0 0 197.02 15.62
  L 206.20 41.49
  Q 206.38 42.00 206.92 42.00
  L 211.58 42.00
  Q 212.14 42.00 212.32 41.48
  L 221.45 15.72
  Q 221.67 15.07 220.99 15.10
  L 216.20 15.31
  Q 215.69 15.33 215.54 15.82
  L 209.60 34.42"
/>
<path stroke="#675a7c" vector-effect="non-scaling-stroke" d="
  M 229.77 15.45
  A 0.27 0.27 0.0 0 0 229.50 15.18
  L 224.52 15.18
  A 0.27 0.27 0.0 0 0 224.25 15.45
  L 224.25 41.73
  A 0.27 0.27 0.0 0 0 224.52 42.00
  L 229.50 42.00
  A 0.27 0.27 0.0 0 0 229.77 41.73
  L 229.77 15.45"
/>
<path stroke="#675a7c" vector-effect="non-scaling-stroke" d="
  M 254.22 22.12
  C 252.29 12.51 235.56 12.30 234.95 22.13
  C 234.51 29.17 243.20 30.26 247.80 31.72
  A 2.58 2.58 0.0 0 1 249.47 34.98
  C 247.90 39.73 240.68 38.41 239.48 33.51
  Q 239.32 32.88 238.68 32.93
  L 234.52 33.25
  Q 233.81 33.31 233.96 34.01
  C 236.47 45.74 256.29 45.20 254.93 32.58
  C 254.31 26.79 246.71 25.72 242.22 24.26
  C 235.87 22.18 245.65 15.14 248.99 22.70
  Q 249.19 23.16 249.68 23.11
  L 253.75 22.75
  Q 254.34 22.70 254.22 22.12"
/>
<path stroke="#675a7c" vector-effect="non-scaling-stroke" d="
  M 280.78 23.58
  Q 280.99 19.66 280.63 15.70
  Q 280.59 15.26 280.16 15.25
  L 275.46 15.15
  A 0.48 0.48 0.0 0 0 274.97 15.66
  Q 275.43 24.30 275.18 32.92
  C 274.98 39.68 265.28 39.57 265.00 32.73
  Q 264.65 24.32 264.76 15.80
  Q 264.77 15.29 264.25 15.27
  L 259.70 15.17
  Q 259.33 15.16 259.32 15.53
  Q 259.04 24.40 259.45 33.26
  C 259.82 41.16 266.42 43.29 273.27 42.23
  C 282.26 40.83 280.42 30.26 280.78 23.58"
/>
<path stroke="#675a7c" vector-effect="non-scaling-stroke" d="
  M 317.58 37.25
  A 0.33 0.33 0.0 0 1 317.25 36.92
  L 317.25 15.49
  A 0.33 0.33 0.0 0 0 316.91 15.16
  L 312.30 15.29
  A 0.33 0.33 0.0 0 0 311.98 15.62
  L 311.99 41.67
  A 0.33 0.33 0.0 0 0 312.32 42.00
  L 328.92 42.00
  A 0.33 0.33 0.0 0 0 329.25 41.67
  L 329.25 37.58
  A 0.33 0.33 0.0 0 0 328.92 37.25
  L 317.58 37.25"
/>
<path stroke="#675a7c" vector-effect="non-scaling-stroke" d="
  M 139.05 24.39
  A 0.27 0.27 0.0 0 1 139.58 24.32
  L 144.41 41.33
  Q 144.60 42.00 145.30 42.00
  L 149.46 42.00
  Q 149.92 42.00 150.04 41.56
  L 155.34 22.81
  A 0.10 0.10 0.0 0 1 155.53 22.84
  L 155.53 41.27
  Q 155.53 42.00 156.27 42.00
  L 160.25 42.00
  Q 160.75 42.00 160.75 41.50
  L 160.75 15.88
  Q 160.75 15.25 160.12 15.25
  L 153.15 15.25
  Q 152.52 15.25 152.35 15.87
  L 147.71 32.71
  A 0.29 0.29 0.0 0 1 147.15 32.71
  L 142.13 15.80
  A 0.78 0.77 81.3 0 0 141.39 15.25
  L 134.25 15.25
  Q 133.75 15.25 133.75 15.75
  L 133.75 41.50
  Q 133.75 42.00 134.25 42.00
  L 138.36 42.00
  Q 138.97 42.00 138.97 41.39
  L 139.05 24.39"
/>
<path stroke="#675a7c" vector-effect="non-scaling-stroke" d="
  M 293.28 15.25
  A 0.41 0.41 0.0 0 0 292.90 15.51
  L 282.68 41.44
  A 0.41 0.41 0.0 0 0 283.06 42.00
  L 288.11 42.00
  A 0.41 0.41 0.0 0 0 288.50 41.73
  L 290.41 36.27
  A 0.41 0.41 0.0 0 1 290.80 36.00
  L 300.49 36.00
  A 0.41 0.41 0.0 0 1 300.87 36.26
  L 302.98 41.74
  A 0.41 0.41 0.0 0 0 303.36 42.00
  L 308.58 42.00
  A 0.41 0.41 0.0 0 0 308.96 41.44
  L 298.52 15.51
  A 0.41 0.41 0.0 0 0 298.14 15.25
  L 293.28 15.25"
/>
<path stroke="#675a7c" vector-effect="non-scaling-stroke" d="
  M 168.85 65.81
  C 170.99 63.58 176.62 63.85 177.22 67.75
  Q 177.29 68.22 177.76 68.18
  L 182.24 67.77
  Q 182.79 67.72 182.67 67.18
  C 180.66 57.88 165.04 57.29 163.41 66.07
  C 162.01 73.65 170.78 75.09 175.83 76.64
  C 183.36 78.94 170.32 88.59 167.87 78.43
  Q 167.73 77.83 167.11 77.89
  L 162.76 78.29
  Q 162.35 78.33 162.40 78.74
  C 163.46 87.05 173.49 89.32 179.66 85.70
  C 184.24 83.00 184.84 76.83 181.00 73.34
  C 178.07 70.68 169.37 70.58 168.56 66.84
  Q 168.43 66.25 168.85 65.81"
/>
<path stroke="#675a7c" vector-effect="non-scaling-stroke" d="
  M 192.44 65.01
  A 0.31 0.31 0.0 0 1 192.75 65.32
  L 192.75 86.69
  A 0.31 0.31 0.0 0 0 193.06 87.00
  L 197.94 87.00
  A 0.31 0.31 0.0 0 0 198.25 86.69
  L 198.25 65.27
  A 0.31 0.31 0.0 0 1 198.56 64.96
  L 205.69 65.02
  A 0.31 0.31 0.0 0 0 206.00 64.71
  L 206.00 60.57
  A 0.31 0.31 0.0 0 0 205.69 60.26
  L 185.31 60.23
  A 0.31 0.31 0.0 0 0 185.00 60.54
  L 185.00 64.69
  A 0.31 0.31 0.0 0 0 185.31 65.00
  L 192.44 65.01"
/>
<path stroke="#675a7c" vector-effect="non-scaling-stroke" d="
  M 218.61 82.51
  Q 215.08 81.55 215.07 77.73
  Q 215.05 69.28 214.96 60.76
  Q 214.96 60.20 214.39 60.20
  L 210.00 60.27
  Q 209.58 60.28 209.57 60.69
  C 209.31 68.10 206.75 85.74 217.08 87.15
  C 224.48 88.16 230.53 86.47 230.64 77.73
  Q 230.73 70.16 231.03 61.08
  Q 231.07 60.14 230.12 60.16
  L 225.69 60.29
  Q 225.13 60.31 225.15 60.86
  Q 225.52 68.66 225.39 76.53
  C 225.32 81.20 223.76 83.89 218.61 82.51"
/>
<path stroke="#675a7c" vector-effect="non-scaling-stroke" d="
  M 236.19 60.44
  L 236.29 86.84
  A 0.28 0.28 0.0 0 0 236.57 87.12
  L 246.82 87.08
  A 11.91 11.88 -0.2 0 0 258.69 75.16
  L 258.67 71.96
  A 11.91 11.88 -0.2 0 0 246.72 60.12
  L 236.47 60.16
  A 0.28 0.28 0.0 0 0 236.19 60.44"
/>
<path stroke="#675a7c" vector-effect="non-scaling-stroke" d="
  M 268.5229 60.4648
  A 0.26 0.26 0.0 0 0 268.2634 60.2044
  L 263.2834 60.1957
  A 0.26 0.26 0.0 0 0 263.0229 60.4552
  L 262.9771 86.7352
  A 0.26 0.26 0.0 0 0 263.2366 86.9956
  L 268.2166 87.0043
  A 0.26 0.26 0.0 0 0 268.4771 86.7448
  L 268.5229 60.4648"
/>
<path stroke="#675a7c" vector-effect="non-scaling-stroke" d="
  M 286.0716 87.5895
  A 13.94 13.17 89.5 0 0 299.1195 73.5351
  A 13.94 13.17 89.5 0 0 285.8284 59.7105
  A 13.94 13.17 89.5 0 0 272.7805 73.7649
  A 13.94 13.17 89.5 0 0 286.0716 87.5895"
/>
<path stroke="#675a7c" vector-effect="non-scaling-stroke" d="
  M 295.52 21.25
  L 292.58 30.85
  Q 292.46 31.26 292.88 31.26
  L 298.39 31.25
  Q 298.90 31.25 298.74 30.77
  L 295.58 21.25
  A 0.03 0.03 0.0 0 0 295.52 21.25"
/>
<path stroke="#675a7c" vector-effect="non-scaling-stroke" d="
  M 241.75 65.72
  L 241.73 81.54
  A 0.95 0.95 0.0 0 0 242.67 82.49
  L 246.57 82.50
  A 6.56 6.43 -89.9 0 0 253.02 75.95
  L 253.02 71.35
  A 6.56 6.43 -89.9 0 0 246.61 64.78
  L 242.71 64.77
  A 0.95 0.95 0.0 0 0 241.75 65.72"
/>
<path stroke="#675a7c" vector-effect="non-scaling-stroke" d="
  M 285.9822 82.8699
  A 9.22 7.47 89.8 0 0 293.4200 73.6239
  A 9.22 7.47 89.8 0 0 285.9178 64.4301
  A 9.22 7.47 89.8 0 0 278.4800 73.6761
  A 9.22 7.47 89.8 0 0 285.9822 82.8699"
/>
</g>
<path fill="#cdb4f7" d="
  M 0.00 0.00
  L 350.00 0.00
  L 350.00 100.00
  L 0.00 100.00
  L 0.00 0.00
  Z
  M 86.76 1.36
  Q 84.33 0.33 82.19 2.69
  Q 65.81 20.70 49.48 38.78
  Q 38.82 29.99 28.14 21.37
  Q 26.51 20.06 24.26 20.78
  Q 17.80 22.83 14.10 25.92
  L 14.11 73.57
  C 15.91 76.47 23.48 79.23 26.78 79.25
  Q 27.27 79.25 27.65 78.94
  L 49.49 61.03
  Q 66.16 79.57 82.92 97.94
  C 83.44 98.51 84.46 98.82 85.14 98.93
  Q 86.87 100.26 89.34 99.11
  Q 99.95 94.19 110.38 88.92
  C 112.19 88.00 113.75 86.13 113.75 84.25
  Q 113.76 50.42 113.74 16.58
  C 113.74 14.64 112.78 12.08 111.19 11.30
  Q 100.46 6.03 89.67 0.83
  Q 88.21 0.12 86.76 1.36
  Z
  M 185.16 22.20
  C 183.40 12.59 166.51 12.27 165.86 21.98
  C 165.17 32.28 181.96 28.91 180.48 34.99
  Q 180.00 36.94 177.75 37.47
  Q 171.83 38.87 170.31 33.40
  A 0.65 0.65 0.0 0 0 169.65 32.93
  L 165.55 33.22
  Q 164.94 33.27 165.00 33.87
  C 166.39 47.97 192.50 42.88 184.85 29.93
  C 182.32 25.64 171.14 25.46 171.17 21.92
  C 171.20 18.25 178.74 18.55 179.86 22.69
  Q 179.97 23.09 180.40 23.06
  L 184.70 22.79
  Q 185.26 22.75 185.16 22.20
  Z
  M 209.60 34.42
  A 0.14 0.13 44.3 0 1 209.34 34.42
  Q 206.16 25.18 203.10 15.91
  A 0.85 0.84 82.4 0 0 202.34 15.32
  L 197.43 15.07
  A 0.42 0.41 82.3 0 0 197.02 15.62
  L 206.20 41.49
  Q 206.38 42.00 206.92 42.00
  L 211.58 42.00
  Q 212.14 42.00 212.32 41.48
  L 221.45 15.72
  Q 221.67 15.07 220.99 15.10
  L 216.20 15.31
  Q 215.69 15.33 215.54 15.82
  L 209.60 34.42
  Z
  M 229.77 15.45
  A 0.27 0.27 0.0 0 0 229.50 15.18
  L 224.52 15.18
  A 0.27 0.27 0.0 0 0 224.25 15.45
  L 224.25 41.73
  A 0.27 0.27 0.0 0 0 224.52 42.00
  L 229.50 42.00
  A 0.27 0.27 0.0 0 0 229.77 41.73
  L 229.77 15.45
  Z
  M 254.22 22.12
  C 252.29 12.51 235.56 12.30 234.95 22.13
  C 234.51 29.17 243.20 30.26 247.80 31.72
  A 2.58 2.58 0.0 0 1 249.47 34.98
  C 247.90 39.73 240.68 38.41 239.48 33.51
  Q 239.32 32.88 238.68 32.93
  L 234.52 33.25
  Q 233.81 33.31 233.96 34.01
  C 236.47 45.74 256.29 45.20 254.93 32.58
  C 254.31 26.79 246.71 25.72 242.22 24.26
  C 235.87 22.18 245.65 15.14 248.99 22.70
  Q 249.19 23.16 249.68 23.11
  L 253.75 22.75
  Q 254.34 22.70 254.22 22.12
  Z
  M 280.78 23.58
  Q 280.99 19.66 280.63 15.70
  Q 280.59 15.26 280.16 15.25
  L 275.46 15.15
  A 0.48 0.48 0.0 0 0 274.97 15.66
  Q 275.43 24.30 275.18 32.92
  C 274.98 39.68 265.28 39.57 265.00 32.73
  Q 264.65 24.32 264.76 15.80
  Q 264.77 15.29 264.25 15.27
  L 259.70 15.17
  Q 259.33 15.16 259.32 15.53
  Q 259.04 24.40 259.45 33.26
  C 259.82 41.16 266.42 43.29 273.27 42.23
  C 282.26 40.83 280.42 30.26 280.78 23.58
  Z
  M 317.58 37.25
  A 0.33 0.33 0.0 0 1 317.25 36.92
  L 317.25 15.49
  A 0.33 0.33 0.0 0 0 316.91 15.16
  L 312.30 15.29
  A 0.33 0.33 0.0 0 0 311.98 15.62
  L 311.99 41.67
  A 0.33 0.33 0.0 0 0 312.32 42.00
  L 328.92 42.00
  A 0.33 0.33 0.0 0 0 329.25 41.67
  L 329.25 37.58
  A 0.33 0.33 0.0 0 0 328.92 37.25
  L 317.58 37.25
  Z
  M 139.05 24.39
  A 0.27 0.27 0.0 0 1 139.58 24.32
  L 144.41 41.33
  Q 144.60 42.00 145.30 42.00
  L 149.46 42.00
  Q 149.92 42.00 150.04 41.56
  L 155.34 22.81
  A 0.10 0.10 0.0 0 1 155.53 22.84
  L 155.53 41.27
  Q 155.53 42.00 156.27 42.00
  L 160.25 42.00
  Q 160.75 42.00 160.75 41.50
  L 160.75 15.88
  Q 160.75 15.25 160.12 15.25
  L 153.15 15.25
  Q 152.52 15.25 152.35 15.87
  L 147.71 32.71
  A 0.29 0.29 0.0 0 1 147.15 32.71
  L 142.13 15.80
  A 0.78 0.77 81.3 0 0 141.39 15.25
  L 134.25 15.25
  Q 133.75 15.25 133.75 15.75
  L 133.75 41.50
  Q 133.75 42.00 134.25 42.00
  L 138.36 42.00
  Q 138.97 42.00 138.97 41.39
  L 139.05 24.39
  Z
  M 293.28 15.25
  A 0.41 0.41 0.0 0 0 292.90 15.51
  L 282.68 41.44
  A 0.41 0.41 0.0 0 0 283.06 42.00
  L 288.11 42.00
  A 0.41 0.41 0.0 0 0 288.50 41.73
  L 290.41 36.27
  A 0.41 0.41 0.0 0 1 290.80 36.00
  L 300.49 36.00
  A 0.41 0.41 0.0 0 1 300.87 36.26
  L 302.98 41.74
  A 0.41 0.41 0.0 0 0 303.36 42.00
  L 308.58 42.00
  A 0.41 0.41 0.0 0 0 308.96 41.44
  L 298.52 15.51
  A 0.41 0.41 0.0 0 0 298.14 15.25
  L 293.28 15.25
  Z
  M 168.85 65.81
  C 170.99 63.58 176.62 63.85 177.22 67.75
  Q 177.29 68.22 177.76 68.18
  L 182.24 67.77
  Q 182.79 67.72 182.67 67.18
  C 180.66 57.88 165.04 57.29 163.41 66.07
  C 162.01 73.65 170.78 75.09 175.83 76.64
  C 183.36 78.94 170.32 88.59 167.87 78.43
  Q 167.73 77.83 167.11 77.89
  L 162.76 78.29
  Q 162.35 78.33 162.40 78.74
  C 163.46 87.05 173.49 89.32 179.66 85.70
  C 184.24 83.00 184.84 76.83 181.00 73.34
  C 178.07 70.68 169.37 70.58 168.56 66.84
  Q 168.43 66.25 168.85 65.81
  Z
  M 192.44 65.01
  A 0.31 0.31 0.0 0 1 192.75 65.32
  L 192.75 86.69
  A 0.31 0.31 0.0 0 0 193.06 87.00
  L 197.94 87.00
  A 0.31 0.31 0.0 0 0 198.25 86.69
  L 198.25 65.27
  A 0.31 0.31 0.0 0 1 198.56 64.96
  L 205.69 65.02
  A 0.31 0.31 0.0 0 0 206.00 64.71
  L 206.00 60.57
  A 0.31 0.31 0.0 0 0 205.69 60.26
  L 185.31 60.23
  A 0.31 0.31 0.0 0 0 185.00 60.54
  L 185.00 64.69
  A 0.31 0.31 0.0 0 0 185.31 65.00
  L 192.44 65.01
  Z
  M 218.61 82.51
  Q 215.08 81.55 215.07 77.73
  Q 215.05 69.28 214.96 60.76
  Q 214.96 60.20 214.39 60.20
  L 210.00 60.27
  Q 209.58 60.28 209.57 60.69
  C 209.31 68.10 206.75 85.74 217.08 87.15
  C 224.48 88.16 230.53 86.47 230.64 77.73
  Q 230.73 70.16 231.03 61.08
  Q 231.07 60.14 230.12 60.16
  L 225.69 60.29
  Q 225.13 60.31 225.15 60.86
  Q 225.52 68.66 225.39 76.53
  C 225.32 81.20 223.76 83.89 218.61 82.51
  Z
  M 236.19 60.44
  L 236.29 86.84
  A 0.28 0.28 0.0 0 0 236.57 87.12
  L 246.82 87.08
  A 11.91 11.88 -0.2 0 0 258.69 75.16
  L 258.67 71.96
  A 11.91 11.88 -0.2 0 0 246.72 60.12
  L 236.47 60.16
  A 0.28 0.28 0.0 0 0 236.19 60.44
  Z
  M 268.5229 60.4648
  A 0.26 0.26 0.0 0 0 268.2634 60.2044
  L 263.2834 60.1957
  A 0.26 0.26 0.0 0 0 263.0229 60.4552
  L 262.9771 86.7352
  A 0.26 0.26 0.0 0 0 263.2366 86.9956
  L 268.2166 87.0043
  A 0.26 0.26 0.0 0 0 268.4771 86.7448
  L 268.5229 60.4648
  Z
  M 286.0716 87.5895
  A 13.94 13.17 89.5 0 0 299.1195 73.5351
  A 13.94 13.17 89.5 0 0 285.8284 59.7105
  A 13.94 13.17 89.5 0 0 272.7805 73.7649
  A 13.94 13.17 89.5 0 0 286.0716 87.5895
  Z"
/>
<path fill="#bc8af3" d="
  M 85.14 98.93
  C 89.20 97.91 88.76 95.89 88.74 91.97
  Q 88.70 81.23 88.85 70.99
  L 88.94 28.82
  Q 88.66 16.49 88.69 3.81
  Q 88.69 2.32 86.76 1.36
  Q 88.21 0.12 89.67 0.83
  Q 100.46 6.03 111.19 11.30
  C 112.78 12.08 113.74 14.64 113.74 16.58
  Q 113.76 50.42 113.75 84.25
  C 113.75 86.13 112.19 88.00 110.38 88.92
  Q 99.95 94.19 89.34 99.11
  Q 86.87 100.26 85.14 98.93
  Z"
/>
<path fill="#7e3cbc" d="
  M 86.76 1.36
  Q 88.69 2.32 88.69 3.81
  Q 88.66 16.49 88.94 28.82
  L 63.13 49.94
  L 49.48 38.78
  Q 65.81 20.70 82.19 2.69
  Q 84.33 0.33 86.76 1.36
  Z"
/>
<path fill="#000000" d="
  M 165.86 21.98
  C 166.51 12.27 183.40 12.59 185.16 22.20
  Q 185.26 22.75 184.70 22.79
  L 180.40 23.06
  Q 179.97 23.09 179.86 22.69
  C 178.74 18.55 171.20 18.25 171.17 21.92
  C 171.14 25.46 182.32 25.64 184.85 29.93
  C 192.50 42.88 166.39 47.97 165.00 33.87
  Q 164.94 33.27 165.55 33.22
  L 169.65 32.93
  A 0.65 0.65 0.0 0 1 170.31 33.40
  Q 171.83 38.87 177.75 37.47
  Q 180.00 36.94 180.48 34.99
  C 181.96 28.91 165.17 32.28 165.86 21.98
  Z"
/>
<path fill="#000000" d="
  M 209.60 34.42
  L 215.54 15.82
  Q 215.69 15.33 216.20 15.31
  L 220.99 15.10
  Q 221.67 15.07 221.45 15.72
  L 212.32 41.48
  Q 212.14 42.00 211.58 42.00
  L 206.92 42.00
  Q 206.38 42.00 206.20 41.49
  L 197.02 15.62
  A 0.42 0.41 82.3 0 1 197.43 15.07
  L 202.34 15.32
  A 0.85 0.84 82.4 0 1 203.10 15.91
  Q 206.16 25.18 209.34 34.42
  A 0.14 0.13 44.3 0 0 209.60 34.42
  Z"
/>
<rect fill="#000000" x="224.25" y="15.18" width="5.52" height="26.82" rx="0.27"/>
<path fill="#000000" d="
  M 234.95 22.13
  C 235.56 12.30 252.29 12.51 254.22 22.12
  Q 254.34 22.70 253.75 22.75
  L 249.68 23.11
  Q 249.19 23.16 248.99 22.70
  C 245.65 15.14 235.87 22.18 242.22 24.26
  C 246.71 25.72 254.31 26.79 254.93 32.58
  C 256.29 45.20 236.47 45.74 233.96 34.01
  Q 233.81 33.31 234.52 33.25
  L 238.68 32.93
  Q 239.32 32.88 239.48 33.51
  C 240.68 38.41 247.90 39.73 249.47 34.98
  A 2.58 2.58 0.0 0 0 247.80 31.72
  C 243.20 30.26 234.51 29.17 234.95 22.13
  Z"
/>
<path fill="#000000" d="
  M 280.78 23.58
  C 280.42 30.26 282.26 40.83 273.27 42.23
  C 266.42 43.29 259.82 41.16 259.45 33.26
  Q 259.04 24.40 259.32 15.53
  Q 259.33 15.16 259.70 15.17
  L 264.25 15.27
  Q 264.77 15.29 264.76 15.80
  Q 264.65 24.32 265.00 32.73
  C 265.28 39.57 274.98 39.68 275.18 32.92
  Q 275.43 24.30 274.97 15.66
  A 0.48 0.48 0.0 0 1 275.46 15.15
  L 280.16 15.25
  Q 280.59 15.26 280.63 15.70
  Q 280.99 19.66 280.78 23.58
  Z"
/>
<path fill="#000000" d="
  M 317.58 37.25
  L 328.92 37.25
  A 0.33 0.33 0.0 0 1 329.25 37.58
  L 329.25 41.67
  A 0.33 0.33 0.0 0 1 328.92 42.00
  L 312.32 42.00
  A 0.33 0.33 0.0 0 1 311.99 41.67
  L 311.98 15.62
  A 0.33 0.33 0.0 0 1 312.30 15.29
  L 316.91 15.16
  A 0.33 0.33 0.0 0 1 317.25 15.49
  L 317.25 36.92
  A 0.33 0.33 0.0 0 0 317.58 37.25
  Z"
/>
<path fill="#000000" d="
  M 139.05 24.39
  L 138.97 41.39
  Q 138.97 42.00 138.36 42.00
  L 134.25 42.00
  Q 133.75 42.00 133.75 41.50
  L 133.75 15.75
  Q 133.75 15.25 134.25 15.25
  L 141.39 15.25
  A 0.78 0.77 81.3 0 1 142.13 15.80
  L 147.15 32.71
  A 0.29 0.29 0.0 0 0 147.71 32.71
  L 152.35 15.87
  Q 152.52 15.25 153.15 15.25
  L 160.12 15.25
  Q 160.75 15.25 160.75 15.88
  L 160.75 41.50
  Q 160.75 42.00 160.25 42.00
  L 156.27 42.00
  Q 155.53 42.00 155.53 41.27
  L 155.53 22.84
  A 0.10 0.10 0.0 0 0 155.34 22.81
  L 150.04 41.56
  Q 149.92 42.00 149.46 42.00
  L 145.30 42.00
  Q 144.60 42.00 144.41 41.33
  L 139.58 24.32
  A 0.27 0.27 0.0 0 0 139.05 24.39
  Z"
/>
<path fill="#000000" d="
  M 293.28 15.25
  L 298.14 15.25
  A 0.41 0.41 0.0 0 1 298.52 15.51
  L 308.96 41.44
  A 0.41 0.41 0.0 0 1 308.58 42.00
  L 303.36 42.00
  A 0.41 0.41 0.0 0 1 302.98 41.74
  L 300.87 36.26
  A 0.41 0.41 0.0 0 0 300.49 36.00
  L 290.80 36.00
  A 0.41 0.41 0.0 0 0 290.41 36.27
  L 288.50 41.73
  A 0.41 0.41 0.0 0 1 288.11 42.00
  L 283.06 42.00
  A 0.41 0.41 0.0 0 1 282.68 41.44
  L 292.90 15.51
  A 0.41 0.41 0.0 0 1 293.28 15.25
  Z
  M 295.52 21.25
  L 292.58 30.85
  Q 292.46 31.26 292.88 31.26
  L 298.39 31.25
  Q 298.90 31.25 298.74 30.77
  L 295.58 21.25
  A 0.03 0.03 0.0 0 0 295.52 21.25
  Z"
/>
<path fill="#9455ce" d="
  M 49.48 38.78
  L 63.13 49.94
  L 88.85 70.99
  Q 88.70 81.23 88.74 91.97
  C 88.76 95.89 89.20 97.91 85.14 98.93
  C 84.46 98.82 83.44 98.51 82.92 97.94
  Q 66.16 79.57 49.49 61.03
  L 39.39 49.97
  L 26.58 35.94
  L 17.66 26.08
  A 1.10 1.10 0.0 0 0 16.77 25.73
  L 14.10 25.92
  Q 17.80 22.83 24.26 20.78
  Q 26.51 20.06 28.14 21.37
  Q 38.82 29.99 49.48 38.78
  Z"
/>
<path fill="#cdb4f7" d="
  M 295.52 21.25
  A 0.03 0.03 0.0 0 1 295.58 21.25
  L 298.74 30.77
  Q 298.90 31.25 298.39 31.25
  L 292.88 31.26
  Q 292.46 31.26 292.58 30.85
  L 295.52 21.25
  Z"
/>
<path fill="#5b2598" d="
  M 26.58 35.94
  L 26.55 64.02
  Q 22.50 68.63 18.00 73.50
  Q 17.03 74.55 14.11 73.57
  L 14.10 25.92
  L 16.77 25.73
  A 1.10 1.10 0.0 0 1 17.66 26.08
  L 26.58 35.94
  Z"
/>
<path fill="#cdb4f7" d="
  M 88.94 28.82
  L 88.85 70.99
  L 63.13 49.94
  L 88.94 28.82
  Z"
/>
<path fill="#cdb4f7" d="
  M 26.58 35.94
  L 39.39 49.97
  L 26.55 64.02
  L 26.58 35.94
  Z"
/>
<path fill="#7e3cbc" d="
  M 39.39 49.97
  L 49.49 61.03
  L 27.65 78.94
  Q 27.27 79.25 26.78 79.25
  C 23.48 79.23 15.91 76.47 14.11 73.57
  Q 17.03 74.55 18.00 73.50
  Q 22.50 68.63 26.55 64.02
  L 39.39 49.97
  Z"
/>
<path fill="#000000" d="
  M 168.56 66.84
  C 169.37 70.58 178.07 70.68 181.00 73.34
  C 184.84 76.83 184.24 83.00 179.66 85.70
  C 173.49 89.32 163.46 87.05 162.40 78.74
  Q 162.35 78.33 162.76 78.29
  L 167.11 77.89
  Q 167.73 77.83 167.87 78.43
  C 170.32 88.59 183.36 78.94 175.83 76.64
  C 170.78 75.09 162.01 73.65 163.41 66.07
  C 165.04 57.29 180.66 57.88 182.67 67.18
  Q 182.79 67.72 182.24 67.77
  L 177.76 68.18
  Q 177.29 68.22 177.22 67.75
  C 176.62 63.85 170.99 63.58 168.85 65.81
  Q 168.43 66.25 168.56 66.84
  Z"
/>
<path fill="#000000" d="
  M 192.44 65.01
  L 185.31 65.00
  A 0.31 0.31 0.0 0 1 185.00 64.69
  L 185.00 60.54
  A 0.31 0.31 0.0 0 1 185.31 60.23
  L 205.69 60.26
  A 0.31 0.31 0.0 0 1 206.00 60.57
  L 206.00 64.71
  A 0.31 0.31 0.0 0 1 205.69 65.02
  L 198.56 64.96
  A 0.31 0.31 0.0 0 0 198.25 65.27
  L 198.25 86.69
  A 0.31 0.31 0.0 0 1 197.94 87.00
  L 193.06 87.00
  A 0.31 0.31 0.0 0 1 192.75 86.69
  L 192.75 65.32
  A 0.31 0.31 0.0 0 0 192.44 65.01
  Z"
/>
<path fill="#000000" d="
  M 218.61 82.51
  C 223.76 83.89 225.32 81.20 225.39 76.53
  Q 225.52 68.66 225.15 60.86
  Q 225.13 60.31 225.69 60.29
  L 230.12 60.16
  Q 231.07 60.14 231.03 61.08
  Q 230.73 70.16 230.64 77.73
  C 230.53 86.47 224.48 88.16 217.08 87.15
  C 206.75 85.74 209.31 68.10 209.57 60.69
  Q 209.58 60.28 210.00 60.27
  L 214.39 60.20
  Q 214.96 60.20 214.96 60.76
  Q 215.05 69.28 215.07 77.73
  Q 215.08 81.55 218.61 82.51
  Z"
/>
<path fill="#000000" d="
  M 236.19 60.44
  A 0.28 0.28 0.0 0 1 236.47 60.16
  L 246.72 60.12
  A 11.91 11.88 -0.2 0 1 258.67 71.96
  L 258.69 75.16
  A 11.91 11.88 -0.2 0 1 246.82 87.08
  L 236.57 87.12
  A 0.28 0.28 0.0 0 1 236.29 86.84
  L 236.19 60.44
  Z
  M 241.75 65.72
  L 241.73 81.54
  A 0.95 0.95 0.0 0 0 242.67 82.49
  L 246.57 82.50
  A 6.56 6.43 -89.9 0 0 253.02 75.95
  L 253.02 71.35
  A 6.56 6.43 -89.9 0 0 246.61 64.78
  L 242.71 64.77
  A 0.95 0.95 0.0 0 0 241.75 65.72
  Z"
/>
<rect fill="#000000" x="-2.75" y="-13.40" transform="translate(265.75,73.60) rotate(0.1)" width="5.50" height="26.80" rx="0.26"/>
<path fill="#000000" d="
  M 286.0716 87.5895
  A 13.94 13.17 89.5 0 1 272.7805 73.7649
  A 13.94 13.17 89.5 0 1 285.8284 59.7105
  A 13.94 13.17 89.5 0 1 299.1195 73.5351
  A 13.94 13.17 89.5 0 1 286.0716 87.5895
  Z
  M 285.9822 82.8699
  A 9.22 7.47 89.8 0 0 293.4200 73.6239
  A 9.22 7.47 89.8 0 0 285.9178 64.4301
  A 9.22 7.47 89.8 0 0 278.4800 73.6761
  A 9.22 7.47 89.8 0 0 285.9822 82.8699
  Z"
/>
<ellipse fill="#cdb4f7" cx="0.00" cy="0.00" transform="translate(285.95,73.65) rotate(89.8)" rx="9.22" ry="7.47"/>
<path fill="#cdb4f7" d="
  M 241.75 65.72
  A 0.95 0.95 0.0 0 1 242.71 64.77
  L 246.61 64.78
  A 6.56 6.43 -89.9 0 1 253.02 71.35
  L 253.02 75.95
  A 6.56 6.43 -89.9 0 1 246.57 82.50
  L 242.67 82.49
  A 0.95 0.95 0.0 0 1 241.73 81.54
  L 241.75 65.72
  Z"
/>
</svg>
