<?xml version="1.0" encoding="UTF-8" standalone="no"?>
<!DOCTYPE svg PUBLIC "-//W3C//DTD SVG 1.1//EN" "http://www.w3.org/Graphics/SVG/1.1/DTD/svg11.dtd">
<svg xmlns="http://www.w3.org/2000/svg" version="1.1" viewBox="0.00 0.00 235.00 100.00">
<g stroke-width="2.00" fill="none" stroke-linecap="butt">
<path stroke="#094a1c" vector-effect="non-scaling-stroke" d="
  M 75.04 9.18
  A 0.28 0.28 0.0 0 1 74.57 9.45
  L 65.58 1.20
  Q 65.15 0.80 64.72 1.20
  L 59.79 5.76
  Q 59.29 6.22 58.77 5.78
  L 57.57 4.77
  Q 57.30 4.54 56.94 4.54
  Q 40.71 4.50 24.51 4.26
  Q 17.36 4.16 17.50 11.02
  C 17.58 15.07 17.84 19.05 23.06 19.09
  Q 23.50 19.09 23.50 19.53
  L 23.50 38.19
  Q 23.50 38.70 23.12 39.05
  L 11.23 49.71
  A 0.53 0.53 0.0 0 0 11.23 50.50
  L 23.14 61.35
  Q 23.50 61.68 23.50 62.17
  L 23.50 86.75
  Q 23.50 87.21 23.86 87.49
  C 28.04 90.75 33.35 90.34 38.62 89.82
  A 1.31 1.26 -67.9 0 0 39.36 89.49
  L 46.35 83.10
  A 0.59 0.59 0.0 0 1 47.15 83.10
  L 64.55 98.93
  Q 64.91 99.25 65.27 98.93
  Q 72.39 92.41 79.56 85.93
  C 80.68 84.91 81.72 84.94 83.13 85.00
  Q 83.66 85.02 84.10 84.72
  Q 85.79 83.53 85.26 81.46
  Q 85.13 80.95 85.50 80.58
  L 90.12 76.09
  A 0.42 0.42 0.0 0 1 90.81 76.54
  L 88.55 82.86
  A 1.60 1.60 0.0 0 0 90.05 85.00
  C 91.69 85.00 103.41 86.17 99.27 80.73
  Q 98.92 80.26 99.10 79.71
  L 102.00 71.22
  Q 102.16 70.75 102.65 70.75
  L 106.22 70.75
  A 0.54 0.54 0.0 0 1 106.73 71.47
  L 102.58 83.18
  A 1.37 1.37 0.0 0 0 103.87 85.00
  L 113.15 85.00
  A 0.94 0.92 12.5 0 0 113.99 84.48
  L 115.12 82.14
  A 0.64 0.64 0.0 0 0 114.78 81.27
  L 113.92 80.94
  Q 113.34 80.72 113.54 80.12
  L 118.20 66.51
  Q 118.34 66.10 118.19 65.69
  C 116.39 60.71 108.88 62.00 105.77 64.36
  Q 104.71 65.17 103.96 64.57
  Q 103.46 64.17 103.94 63.73
  L 118.78 50.33
  Q 119.22 49.93 118.78 49.53
  L 100.95 33.34
  Q 100.34 32.79 100.94 32.23
  L 118.23 16.12
  Q 118.75 15.63 118.75 14.92
  L 118.75 8.39
  A 1.41 1.40 -69.5 0 0 118.27 7.33
  L 115.75 5.10
  Q 115.36 4.75 114.83 4.75
  L 78.95 4.75
  A 1.38 1.38 0.0 0 0 78.00 5.13
  C 76.91 6.14 74.63 7.41 75.04 9.18"
/>
<path stroke="#094a1c" vector-effect="non-scaling-stroke" d="
  M 170.95 37.30
  A 0.30 0.30 0.0 0 0 170.68 37.51
  L 164.77 56.03
  A 0.30 0.30 0.0 0 1 164.20 56.04
  L 158.06 37.55
  A 0.30 0.30 0.0 0 0 157.80 37.35
  L 152.27 37.05
  A 0.30 0.30 0.0 0 0 151.97 37.45
  L 161.39 63.80
  A 0.30 0.30 0.0 0 0 161.67 64.00
  L 166.97 64.00
  A 0.30 0.30 0.0 0 0 167.25 63.80
  L 176.65 37.44
  A 0.30 0.30 0.0 0 0 176.35 37.04
  L 170.95 37.30"
/>
<path stroke="#094a1c" vector-effect="non-scaling-stroke" d="
  M 185.0228 37.5150
  A 0.36 0.36 0.0 0 0 184.6634 37.1544
  L 179.6434 37.1456
  A 0.36 0.36 0.0 0 0 179.2828 37.5050
  L 179.2372 63.6250
  A 0.36 0.36 0.0 0 0 179.5966 63.9856
  L 184.6166 63.9944
  A 0.36 0.36 0.0 0 0 184.9772 63.6350
  L 185.0228 37.5150"
/>
<path stroke="#094a1c" vector-effect="non-scaling-stroke" d="
  M 206.38 64.00
  A 0.24 0.24 0.0 0 0 206.61 63.82
  L 211.45 46.56
  A 0.24 0.24 0.0 0 1 211.92 46.62
  L 212.22 63.76
  A 0.24 0.24 0.0 0 0 212.46 64.00
  L 217.00 64.00
  A 0.24 0.24 0.0 0 0 217.24 63.76
  L 217.28 37.50
  A 0.24 0.24 0.0 0 0 217.04 37.26
  L 209.34 37.19
  A 0.24 0.24 0.0 0 0 209.11 37.37
  L 204.26 54.89
  A 0.24 0.24 0.0 0 1 203.79 54.89
  L 198.71 37.47
  A 0.24 0.24 0.0 0 0 198.48 37.30
  L 190.49 37.14
  A 0.24 0.24 0.0 0 0 190.25 37.38
  L 190.25 63.76
  A 0.24 0.24 0.0 0 0 190.49 64.00
  L 195.26 64.00
  A 0.24 0.24 0.0 0 0 195.50 63.76
  L 195.50 46.95
  A 0.24 0.24 0.0 0 1 195.91 46.78
  L 196.36 47.23
  A 0.24 0.24 0.0 0 1 196.42 47.33
  L 201.21 63.83
  A 0.24 0.24 0.0 0 0 201.44 64.00
  L 206.38 64.00"
/>
<path stroke="#094a1c" vector-effect="non-scaling-stroke" d="
  M 61.06 9.21
  C 61.57 14.03 61.52 18.22 55.89 19.57
  Q 55.50 19.66 55.50 20.06
  L 55.50 38.51
  A 0.56 0.56 0.0 0 0 56.44 38.92
  L 78.22 19.41
  Q 78.76 18.93 78.15 18.53
  Q 75.46 16.77 75.25 14.27"
/>
<path stroke="#237f01" vector-effect="non-scaling-stroke" d="
  M 75.25 14.27
  L 75.25 12.71
  Q 75.25 12.20 74.90 11.84
  Q 70.57 7.28 65.54 3.50"
/>
<path stroke="#347e4d" vector-effect="non-scaling-stroke" d="
  M 65.54 3.50
  Q 65.14 3.02 64.56 3.33
  Q 60.43 5.57 61.06 9.21"
/>
<path stroke="#57fd4e" vector-effect="non-scaling-stroke" d="
  M 65.54 3.50
  L 65.18 4.48"
/>
<path stroke="#3dc869" vector-effect="non-scaling-stroke" d="
  M 65.18 4.48
  Q 64.65 7.95 61.06 9.21"
/>
<path stroke="#2cc81d" vector-effect="non-scaling-stroke" d="
  M 75.25 14.27
  Q 74.44 14.40 72.66 12.81
  C 69.93 10.37 65.34 6.78 65.18 4.48"
/>
<path stroke="#3f3f3f" vector-effect="non-scaling-stroke" d="
  M 22.25 16.29
  Q 23.79 16.79 25.21 16.00"
/>
<path stroke="#666666" vector-effect="non-scaling-stroke" d="
  M 25.21 16.00
  Q 26.34 14.91 27.73 15.31
  Q 28.24 15.46 27.77 15.70
  L 27.25 15.96"
/>
<path stroke="#808080" vector-effect="non-scaling-stroke" d="
  M 27.25 15.96
  C 26.76 16.22 26.50 16.51 26.50 17.12
  Q 26.49 50.97 26.50 84.80
  Q 26.50 85.30 26.81 85.68
  Q 27.71 86.78 28.96 87.25"
/>
<path stroke="#3f3f3f" vector-effect="non-scaling-stroke" d="
  M 28.96 87.25
  Q 32.88 88.24 36.95 87.59
  Q 37.44 87.52 37.80 87.18
  Q 49.44 76.41 61.09 65.65
  C 62.16 64.66 63.16 63.01 64.80 62.10
  Q 68.82 59.86 68.60 55.55"
/>
<path stroke="#666666" vector-effect="non-scaling-stroke" d="
  M 68.60 55.55
  L 73.04 51.27"
/>
<path stroke="#3f3f3f" vector-effect="non-scaling-stroke" d="
  M 73.04 51.27
  Q 74.44 52.02 75.77 51.68
  A 1.88 1.85 15.7 0 0 76.59 51.23
  Q 95.34 33.84 114.09 16.40
  C 116.40 14.25 116.51 12.50 115.50 9.67"
/>
<path stroke="#666666" vector-effect="non-scaling-stroke" d="
  M 115.50 9.67
  Q 115.67 7.30 113.17 7.29
  Q 97.09 7.21 81.00 7.27
  C 77.64 7.28 78.20 11.97 78.29 14.00"
/>
<path stroke="#808080" vector-effect="non-scaling-stroke" d="
  M 78.29 14.00
  Q 78.19 15.89 80.00 16.29"
/>
<path stroke="#3f3f3f" vector-effect="non-scaling-stroke" d="
  M 80.00 16.29
  L 84.54 16.75"
/>
<path stroke="#808080" vector-effect="non-scaling-stroke" d="
  M 84.54 16.75
  L 52.79 45.75"
/>
<path stroke="#3f3f3f" vector-effect="non-scaling-stroke" d="
  M 52.79 45.75
  L 52.79 17.02
  Q 52.79 16.39 53.40 16.54
  C 58.69 17.86 59.04 12.80 58.09 9.23"
/>
<path stroke="#808080" vector-effect="non-scaling-stroke" d="
  M 58.09 9.23
  Q 57.38 7.04 55.25 7.29"
/>
<path stroke="#666666" vector-effect="non-scaling-stroke" d="
  M 55.25 7.29
  Q 39.55 7.21 23.86 7.27
  C 18.60 7.29 19.33 15.73 22.25 16.29"
/>
<path stroke="#e6e6e6" vector-effect="non-scaling-stroke" d="
  M 55.25 7.29
  Q 55.32 8.89 56.75 9.46"
/>
<path stroke="#a5a5a5" vector-effect="non-scaling-stroke" d="
  M 56.75 9.46
  Q 56.17 10.93 56.43 12.13
  A 2.17 2.17 0.0 0 1 54.31 14.75
  L 49.63 14.75
  Q 49.00 14.75 49.00 15.38
  L 49.00 52.43
  A 0.54 0.54 0.0 0 0 50.06 52.57
  L 50.71 50.25"
/>
<path stroke="#e6e6e6" vector-effect="non-scaling-stroke" d="
  M 50.71 50.25
  L 51.25 50.79"
/>
<path stroke="#b8b9b8" vector-effect="non-scaling-stroke" d="
  M 51.25 50.79
  Q 51.24 51.11 50.98 51.31
  Q 50.80 51.45 51.02 51.50
  C 51.29 51.56 85.45 20.89 86.73 18.11
  Q 86.95 17.64 86.44 17.49
  Q 86.24 17.43 86.00 17.50"
/>
<path stroke="#e6e6e6" vector-effect="non-scaling-stroke" d="
  M 86.00 17.50
  L 86.21 16.25"
/>
<path stroke="#a5a5a5" vector-effect="non-scaling-stroke" d="
  M 86.21 16.25
  L 86.55 15.62
  Q 86.80 15.16 86.29 15.01
  Q 83.41 14.20 80.58 15.19"
/>
<path stroke="#e6e6e6" vector-effect="non-scaling-stroke" d="
  M 80.58 15.19
  Q 79.59 12.86 78.29 14.00"
/>
<path stroke="#a5a5a5" vector-effect="non-scaling-stroke" d="
  M 115.50 9.67
  L 114.38 9.63
  Q 114.00 9.62 114.00 10.01
  L 114.00 12.07
  A 1.15 1.13 -22.0 0 1 113.64 12.90
  L 73.04 51.27"
/>
<path stroke="#a5a5a5" vector-effect="non-scaling-stroke" d="
  M 68.60 55.55
  L 36.78 85.21
  Q 36.42 85.54 35.94 85.61
  Q 32.55 86.12 29.25 85.46"
/>
<path stroke="#b8b9b8" vector-effect="non-scaling-stroke" d="
  M 29.25 85.46
  Q 29.64 56.85 28.65 28.27"
/>
<path stroke="#e6e6e6" vector-effect="non-scaling-stroke" d="
  M 28.65 28.27
  Q 27.51 22.47 27.92 16.52
  Q 27.95 16.09 27.52 16.01
  L 27.25 15.96"
/>
<path stroke="#a5a5a5" vector-effect="non-scaling-stroke" d="
  M 25.21 16.00
  Q 23.55 15.09 22.25 16.29"
/>
<path stroke="#bfbfbf" vector-effect="non-scaling-stroke" d="
  M 86.21 16.25
  Q 85.19 15.76 84.54 16.75"
/>
<path stroke="#bfbfbf" vector-effect="non-scaling-stroke" d="
  M 58.09 9.23
  Q 57.29 9.65 56.75 9.46"
/>
<path stroke="#d1d2d2" vector-effect="non-scaling-stroke" d="
  M 86.00 17.50
  Q 86.22 18.52 85.60 19.10
  Q 68.60 35.14 51.25 50.79"
/>
<path stroke="#bfbfbf" vector-effect="non-scaling-stroke" d="
  M 80.58 15.19
  Q 81.06 16.23 80.00 16.29"
/>
<path stroke="#bfbfbf" vector-effect="non-scaling-stroke" d="
  M 52.79 45.75
  L 50.71 50.25"
/>
<path stroke="#919291" vector-effect="non-scaling-stroke" d="
  M 29.25 85.46
  Q 29.13 85.50 29.00 85.54"
/>
<path stroke="#d1d2d2" vector-effect="non-scaling-stroke" d="
  M 28.65 28.27
  Q 28.08 64.45 28.25 84.50
  Q 28.25 85.04 29.00 85.54"
/>
<path stroke="#bfbfbf" vector-effect="non-scaling-stroke" d="
  M 29.00 85.54
  L 28.96 87.25"
/>
<path stroke="#094a1c" vector-effect="non-scaling-stroke" d="
  M 97.46 35.50
  L 79.65 51.93
  Q 79.29 52.26 79.30 52.75
  Q 79.31 56.15 77.60 59.14
  Q 77.36 59.56 76.91 59.73
  C 74.40 60.69 70.38 59.30 69.11 61.85
  Q 68.82 62.44 69.48 62.46
  L 75.22 62.60
  A 0.89 0.89 0.0 0 1 76.04 63.79
  Q 73.16 71.90 69.97 79.88
  Q 69.78 80.38 70.25 80.62
  L 71.29 81.15
  Q 71.67 81.35 71.70 81.77
  C 72.02 86.89 63.73 85.25 60.68 85.25
  Q 57.96 85.25 58.94 82.72
  L 64.59 68.13
  A 0.90 0.90 0.0 0 0 63.13 67.15
  L 48.51 80.97
  A 0.95 0.95 0.0 0 0 48.53 82.37
  Q 56.32 89.40 64.33 96.67
  Q 64.86 97.15 65.88 96.00"
/>
<path stroke="#002c03" vector-effect="non-scaling-stroke" d="
  M 65.88 96.00
  Q 71.78 91.51 77.55 85.63
  A 0.37 0.37 0.0 0 0 77.19 85.01
  Q 75.18 85.54 74.84 85.05"
/>
<path stroke="#094a1c" vector-effect="non-scaling-stroke" d="
  M 74.84 85.05
  C 74.11 84.34 73.54 83.99 73.94 82.90
  Q 76.72 75.36 79.61 67.83
  A 0.60 0.60 0.0 0 0 79.26 67.05
  L 78.32 66.71
  A 0.76 0.75 19.8 0 1 77.87 65.77
  L 78.67 63.35
  Q 78.87 62.75 79.51 62.75
  L 88.02 62.75
  A 1.04 1.03 72.5 0 1 88.87 63.20
  Q 90.22 65.19 92.66 64.72
  Q 93.18 64.62 93.49 64.18
  C 95.65 61.11 98.23 64.02 100.33 61.98"
/>
<path stroke="#002c03" vector-effect="non-scaling-stroke" d="
  M 100.33 61.98
  Q 101.94 63.54 102.94 62.69
  Q 108.87 57.63 116.25 50.29"
/>
<path stroke="#237f01" vector-effect="non-scaling-stroke" d="
  M 116.25 50.29
  Q 116.52 50.37 116.73 50.26
  Q 117.15 50.04 116.80 49.72
  L 100.13 34.54
  Q 99.74 34.19 99.20 34.20
  Q 97.95 34.23 97.46 35.50"
/>
<path stroke="#23aa04" vector-effect="non-scaling-stroke" d="
  M 116.25 50.29
  L 113.29 49.75"
/>
<path stroke="#2cc81d" vector-effect="non-scaling-stroke" d="
  M 113.29 49.75
  L 97.46 35.50"
/>
<path stroke="#09751f" vector-effect="non-scaling-stroke" d="
  M 113.29 49.75
  Q 107.18 56.29 100.33 61.98"
/>
<path stroke="#09751f" vector-effect="non-scaling-stroke" d="
  M 74.84 85.05
  L 65.79 93.52
  A 0.64 0.63 -45.3 0 1 64.93 93.53
  L 50.41 80.46
  Q 50.08 80.15 50.02 80.61
  Q 49.99 80.87 50.20 81.06
  Q 59.52 89.29 65.88 96.00"
/>
<path stroke="#094a1c" vector-effect="non-scaling-stroke" d="
  M 14.21 50.50
  C 14.17 51.64 21.80 58.00 23.10 59.19
  A 0.27 0.26 21.5 0 0 23.55 59.00
  L 23.46 44.50"
/>
<path stroke="#347e4d" vector-effect="non-scaling-stroke" d="
  M 23.46 44.50
  Q 24.17 43.02 23.62 41.39
  Q 23.39 40.70 22.86 41.19
  L 13.54 49.66
  Q 13.19 49.98 13.56 50.27
  Q 13.88 50.52 14.21 50.50"
/>
<path stroke="#3dc869" vector-effect="non-scaling-stroke" d="
  M 23.46 44.50
  L 17.24 49.86
  Q 16.87 50.18 16.38 50.24
  L 14.21 50.50"
/>
<path stroke="#666666" vector-effect="non-scaling-stroke" d="
  M 77.06 53.10
  C 72.99 52.45 70.01 53.63 70.23 58.26
  A 0.65 0.64 -86.1 0 0 70.76 58.87
  C 74.65 59.61 78.27 58.64 77.73 53.80
  Q 77.66 53.19 77.06 53.10"
/>
<path stroke="#666666" vector-effect="non-scaling-stroke" d="
  M 67.98 81.48
  L 74.49 64.25
  A 0.56 0.56 0.0 0 0 73.89 63.50
  C 72.00 63.77 64.06 62.90 63.94 64.95
  Q 63.92 65.30 64.21 65.51
  Q 65.08 66.15 65.94 65.85
  Q 67.01 65.48 66.60 66.54
  L 60.27 83.02
  Q 59.99 83.75 60.77 83.75
  L 69.43 83.75
  A 0.75 0.74 -84.3 0 0 70.16 83.15
  L 70.28 82.57
  Q 70.39 82.00 69.81 82.00
  L 68.34 82.00
  Q 67.78 82.00 67.98 81.48"
/>
<path stroke="#666666" vector-effect="non-scaling-stroke" d="
  M 87.10 69.51
  L 93.98 69.50
  Q 94.69 69.50 94.45 70.17
  L 90.07 82.86
  A 0.66 0.66 0.0 0 0 90.68 83.74
  Q 94.22 83.79 97.71 83.70
  A 0.73 0.73 0.0 0 0 97.94 82.28
  L 97.42 82.08
  Q 96.77 81.84 97.00 81.19
  L 100.93 69.99
  Q 101.10 69.50 101.61 69.50
  L 108.42 69.50
  Q 108.90 69.50 108.74 69.95
  L 104.26 82.80
  A 0.70 0.70 0.0 0 0 104.91 83.73
  C 106.13 83.76 113.66 84.45 113.28 82.51
  Q 113.19 82.03 112.70 82.01
  L 111.92 81.97
  Q 111.33 81.94 111.53 81.38
  Q 114.15 73.93 116.62 66.43
  Q 116.81 65.86 116.46 65.37
  C 114.59 62.78 108.93 63.18 107.57 65.25
  A 3.79 3.04 39.6 0 1 102.29 65.17
  Q 99.79 62.79 96.11 63.96
  Q 95.64 64.11 95.28 64.46
  Q 91.77 67.90 88.23 64.45
  A 1.36 1.30 -20.3 0 0 87.38 64.08
  L 80.51 63.74
  Q 80.18 63.72 79.94 63.94
  Q 79.58 64.25 79.40 64.65
  Q 79.20 65.09 79.52 65.46
  Q 80.10 66.13 80.85 66.01
  Q 81.68 65.88 81.39 66.67
  L 75.24 83.10
  A 0.48 0.48 0.0 0 0 75.69 83.75
  L 83.22 83.75
  A 0.79 0.79 0.0 0 0 83.47 82.21
  L 82.72 81.96
  Q 82.18 81.79 82.37 81.25
  L 86.29 70.08
  Q 86.49 69.51 87.10 69.51"
/>
<path stroke="#002c03" vector-effect="non-scaling-stroke" d="
  M 86.36 74.40
  L 85.02 77.99
  A 0.41 0.41 0.0 0 0 85.68 78.43
  L 92.37 72.08
  A 0.55 0.55 0.0 0 0 92.29 71.22
  Q 91.30 70.58 90.04 71.00"
/>
<path stroke="#094a1c" vector-effect="non-scaling-stroke" d="
  M 90.04 71.00
  Q 86.76 70.06 86.36 74.40"
/>
<path stroke="#09751f" vector-effect="non-scaling-stroke" d="
  M 90.04 71.00
  Q 88.72 73.29 86.36 74.40"
/>
</g>
<path fill="#119338" d="
  M 0.00 0.00
  L 235.00 0.00
  L 235.00 100.00
  L 0.00 100.00
  L 0.00 0.00
  Z
  M 75.04 9.18
  A 0.28 0.28 0.0 0 1 74.57 9.45
  L 65.58 1.20
  Q 65.15 0.80 64.72 1.20
  L 59.79 5.76
  Q 59.29 6.22 58.77 5.78
  L 57.57 4.77
  Q 57.30 4.54 56.94 4.54
  Q 40.71 4.50 24.51 4.26
  Q 17.36 4.16 17.50 11.02
  C 17.58 15.07 17.84 19.05 23.06 19.09
  Q 23.50 19.09 23.50 19.53
  L 23.50 38.19
  Q 23.50 38.70 23.12 39.05
  L 11.23 49.71
  A 0.53 0.53 0.0 0 0 11.23 50.50
  L 23.14 61.35
  Q 23.50 61.68 23.50 62.17
  L 23.50 86.75
  Q 23.50 87.21 23.86 87.49
  C 28.04 90.75 33.35 90.34 38.62 89.82
  A 1.31 1.26 -67.9 0 0 39.36 89.49
  L 46.35 83.10
  A 0.59 0.59 0.0 0 1 47.15 83.10
  L 64.55 98.93
  Q 64.91 99.25 65.27 98.93
  Q 72.39 92.41 79.56 85.93
  C 80.68 84.91 81.72 84.94 83.13 85.00
  Q 83.66 85.02 84.10 84.72
  Q 85.79 83.53 85.26 81.46
  Q 85.13 80.95 85.50 80.58
  L 90.12 76.09
  A 0.42 0.42 0.0 0 1 90.81 76.54
  L 88.55 82.86
  A 1.60 1.60 0.0 0 0 90.05 85.00
  C 91.69 85.00 103.41 86.17 99.27 80.73
  Q 98.92 80.26 99.10 79.71
  L 102.00 71.22
  Q 102.16 70.75 102.65 70.75
  L 106.22 70.75
  A 0.54 0.54 0.0 0 1 106.73 71.47
  L 102.58 83.18
  A 1.37 1.37 0.0 0 0 103.87 85.00
  L 113.15 85.00
  A 0.94 0.92 12.5 0 0 113.99 84.48
  L 115.12 82.14
  A 0.64 0.64 0.0 0 0 114.78 81.27
  L 113.92 80.94
  Q 113.34 80.72 113.54 80.12
  L 118.20 66.51
  Q 118.34 66.10 118.19 65.69
  C 116.39 60.71 108.88 62.00 105.77 64.36
  Q 104.71 65.17 103.96 64.57
  Q 103.46 64.17 103.94 63.73
  L 118.78 50.33
  Q 119.22 49.93 118.78 49.53
  L 100.95 33.34
  Q 100.34 32.79 100.94 32.23
  L 118.23 16.12
  Q 118.75 15.63 118.75 14.92
  L 118.75 8.39
  A 1.41 1.40 -69.5 0 0 118.27 7.33
  L 115.75 5.10
  Q 115.36 4.75 114.83 4.75
  L 78.95 4.75
  A 1.38 1.38 0.0 0 0 78.00 5.13
  C 76.91 6.14 74.63 7.41 75.04 9.18
  Z
  M 170.95 37.30
  A 0.30 0.30 0.0 0 0 170.68 37.51
  L 164.77 56.03
  A 0.30 0.30 0.0 0 1 164.20 56.04
  L 158.06 37.55
  A 0.30 0.30 0.0 0 0 157.80 37.35
  L 152.27 37.05
  A 0.30 0.30 0.0 0 0 151.97 37.45
  L 161.39 63.80
  A 0.30 0.30 0.0 0 0 161.67 64.00
  L 166.97 64.00
  A 0.30 0.30 0.0 0 0 167.25 63.80
  L 176.65 37.44
  A 0.30 0.30 0.0 0 0 176.35 37.04
  L 170.95 37.30
  Z
  M 185.0228 37.5150
  A 0.36 0.36 0.0 0 0 184.6634 37.1544
  L 179.6434 37.1456
  A 0.36 0.36 0.0 0 0 179.2828 37.5050
  L 179.2372 63.6250
  A 0.36 0.36 0.0 0 0 179.5966 63.9856
  L 184.6166 63.9944
  A 0.36 0.36 0.0 0 0 184.9772 63.6350
  L 185.0228 37.5150
  Z
  M 206.38 64.00
  A 0.24 0.24 0.0 0 0 206.61 63.82
  L 211.45 46.56
  A 0.24 0.24 0.0 0 1 211.92 46.62
  L 212.22 63.76
  A 0.24 0.24 0.0 0 0 212.46 64.00
  L 217.00 64.00
  A 0.24 0.24 0.0 0 0 217.24 63.76
  L 217.28 37.50
  A 0.24 0.24 0.0 0 0 217.04 37.26
  L 209.34 37.19
  A 0.24 0.24 0.0 0 0 209.11 37.37
  L 204.26 54.89
  A 0.24 0.24 0.0 0 1 203.79 54.89
  L 198.71 37.47
  A 0.24 0.24 0.0 0 0 198.48 37.30
  L 190.49 37.14
  A 0.24 0.24 0.0 0 0 190.25 37.38
  L 190.25 63.76
  A 0.24 0.24 0.0 0 0 190.49 64.00
  L 195.26 64.00
  A 0.24 0.24 0.0 0 0 195.50 63.76
  L 195.50 46.95
  A 0.24 0.24 0.0 0 1 195.91 46.78
  L 196.36 47.23
  A 0.24 0.24 0.0 0 1 196.42 47.33
  L 201.21 63.83
  A 0.24 0.24 0.0 0 0 201.44 64.00
  L 206.38 64.00
  Z"
/>
<path fill="#000000" d="
  M 75.04 9.18
  C 74.63 7.41 76.91 6.14 78.00 5.13
  A 1.38 1.38 0.0 0 1 78.95 4.75
  L 114.83 4.75
  Q 115.36 4.75 115.75 5.10
  L 118.27 7.33
  A 1.41 1.40 -69.5 0 1 118.75 8.39
  L 118.75 14.92
  Q 118.75 15.63 118.23 16.12
  L 100.94 32.23
  Q 100.34 32.79 100.95 33.34
  L 118.78 49.53
  Q 119.22 49.93 118.78 50.33
  L 103.94 63.73
  Q 103.46 64.17 103.96 64.57
  Q 104.71 65.17 105.77 64.36
  C 108.88 62.00 116.39 60.71 118.19 65.69
  Q 118.34 66.10 118.20 66.51
  L 113.54 80.12
  Q 113.34 80.72 113.92 80.94
  L 114.78 81.27
  A 0.64 0.64 0.0 0 1 115.12 82.14
  L 113.99 84.48
  A 0.94 0.92 12.5 0 1 113.15 85.00
  L 103.87 85.00
  A 1.37 1.37 0.0 0 1 102.58 83.18
  L 106.73 71.47
  A 0.54 0.54 0.0 0 0 106.22 70.75
  L 102.65 70.75
  Q 102.16 70.75 102.00 71.22
  L 99.10 79.71
  Q 98.92 80.26 99.27 80.73
  C 103.41 86.17 91.69 85.00 90.05 85.00
  A 1.60 1.60 0.0 0 1 88.55 82.86
  L 90.81 76.54
  A 0.42 0.42 0.0 0 0 90.12 76.09
  L 85.50 80.58
  Q 85.13 80.95 85.26 81.46
  Q 85.79 83.53 84.10 84.72
  Q 83.66 85.02 83.13 85.00
  C 81.72 84.94 80.68 84.91 79.56 85.93
  Q 72.39 92.41 65.27 98.93
  Q 64.91 99.25 64.55 98.93
  L 47.15 83.10
  A 0.59 0.59 0.0 0 0 46.35 83.10
  L 39.36 89.49
  A 1.31 1.26 -67.9 0 1 38.62 89.82
  C 33.35 90.34 28.04 90.75 23.86 87.49
  Q 23.50 87.21 23.50 86.75
  L 23.50 62.17
  Q 23.50 61.68 23.14 61.35
  L 11.23 50.50
  A 0.53 0.53 0.0 0 1 11.23 49.71
  L 23.12 39.05
  Q 23.50 38.70 23.50 38.19
  L 23.50 19.53
  Q 23.50 19.09 23.06 19.09
  C 17.84 19.05 17.58 15.07 17.50 11.02
  Q 17.36 4.16 24.51 4.26
  Q 40.71 4.50 56.94 4.54
  Q 57.30 4.54 57.57 4.77
  L 58.77 5.78
  Q 59.29 6.22 59.79 5.76
  L 64.72 1.20
  Q 65.15 0.80 65.58 1.20
  L 74.57 9.45
  A 0.28 0.28 0.0 0 0 75.04 9.18
  Z
  M 61.06 9.21
  C 61.57 14.03 61.52 18.22 55.89 19.57
  Q 55.50 19.66 55.50 20.06
  L 55.50 38.51
  A 0.56 0.56 0.0 0 0 56.44 38.92
  L 78.22 19.41
  Q 78.76 18.93 78.15 18.53
  Q 75.46 16.77 75.25 14.27
  L 75.25 12.71
  Q 75.25 12.20 74.90 11.84
  Q 70.57 7.28 65.54 3.50
  Q 65.14 3.02 64.56 3.33
  Q 60.43 5.57 61.06 9.21
  Z
  M 22.25 16.29
  Q 23.79 16.79 25.21 16.00
  Q 26.34 14.91 27.73 15.31
  Q 28.24 15.46 27.77 15.70
  L 27.25 15.96
  C 26.76 16.22 26.50 16.51 26.50 17.12
  Q 26.49 50.97 26.50 84.80
  Q 26.50 85.30 26.81 85.68
  Q 27.71 86.78 28.96 87.25
  Q 32.88 88.24 36.95 87.59
  Q 37.44 87.52 37.80 87.18
  Q 49.44 76.41 61.09 65.65
  C 62.16 64.66 63.16 63.01 64.80 62.10
  Q 68.82 59.86 68.60 55.55
  L 73.04 51.27
  Q 74.44 52.02 75.77 51.68
  A 1.88 1.85 15.7 0 0 76.59 51.23
  Q 95.34 33.84 114.09 16.40
  C 116.40 14.25 116.51 12.50 115.50 9.67
  Q 115.67 7.30 113.17 7.29
  Q 97.09 7.21 81.00 7.27
  C 77.64 7.28 78.20 11.97 78.29 14.00
  Q 78.19 15.89 80.00 16.29
  L 84.54 16.75
  L 52.79 45.75
  L 52.79 17.02
  Q 52.79 16.39 53.40 16.54
  C 58.69 17.86 59.04 12.80 58.09 9.23
  Q 57.38 7.04 55.25 7.29
  Q 39.55 7.21 23.86 7.27
  C 18.60 7.29 19.33 15.73 22.25 16.29
  Z
  M 97.46 35.50
  L 79.65 51.93
  Q 79.29 52.26 79.30 52.75
  Q 79.31 56.15 77.60 59.14
  Q 77.36 59.56 76.91 59.73
  C 74.40 60.69 70.38 59.30 69.11 61.85
  Q 68.82 62.44 69.48 62.46
  L 75.22 62.60
  A 0.89 0.89 0.0 0 1 76.04 63.79
  Q 73.16 71.90 69.97 79.88
  Q 69.78 80.38 70.25 80.62
  L 71.29 81.15
  Q 71.67 81.35 71.70 81.77
  C 72.02 86.89 63.73 85.25 60.68 85.25
  Q 57.96 85.25 58.94 82.72
  L 64.59 68.13
  A 0.90 0.90 0.0 0 0 63.13 67.15
  L 48.51 80.97
  A 0.95 0.95 0.0 0 0 48.53 82.37
  Q 56.32 89.40 64.33 96.67
  Q 64.86 97.15 65.88 96.00
  Q 71.78 91.51 77.55 85.63
  A 0.37 0.37 0.0 0 0 77.19 85.01
  Q 75.18 85.54 74.84 85.05
  C 74.11 84.34 73.54 83.99 73.94 82.90
  Q 76.72 75.36 79.61 67.83
  A 0.60 0.60 0.0 0 0 79.26 67.05
  L 78.32 66.71
  A 0.76 0.75 19.8 0 1 77.87 65.77
  L 78.67 63.35
  Q 78.87 62.75 79.51 62.75
  L 88.02 62.75
  A 1.04 1.03 72.5 0 1 88.87 63.20
  Q 90.22 65.19 92.66 64.72
  Q 93.18 64.62 93.49 64.18
  C 95.65 61.11 98.23 64.02 100.33 61.98
  Q 101.94 63.54 102.94 62.69
  Q 108.87 57.63 116.25 50.29
  Q 116.52 50.37 116.73 50.26
  Q 117.15 50.04 116.80 49.72
  L 100.13 34.54
  Q 99.74 34.19 99.20 34.20
  Q 97.95 34.23 97.46 35.50
  Z
  M 14.21 50.50
  C 14.17 51.64 21.80 58.00 23.10 59.19
  A 0.27 0.26 21.5 0 0 23.55 59.00
  L 23.46 44.50
  Q 24.17 43.02 23.62 41.39
  Q 23.39 40.70 22.86 41.19
  L 13.54 49.66
  Q 13.19 49.98 13.56 50.27
  Q 13.88 50.52 14.21 50.50
  Z
  M 77.06 53.10
  C 72.99 52.45 70.01 53.63 70.23 58.26
  A 0.65 0.64 -86.1 0 0 70.76 58.87
  C 74.65 59.61 78.27 58.64 77.73 53.80
  Q 77.66 53.19 77.06 53.10
  Z
  M 67.98 81.48
  L 74.49 64.25
  A 0.56 0.56 0.0 0 0 73.89 63.50
  C 72.00 63.77 64.06 62.90 63.94 64.95
  Q 63.92 65.30 64.21 65.51
  Q 65.08 66.15 65.94 65.85
  Q 67.01 65.48 66.60 66.54
  L 60.27 83.02
  Q 59.99 83.75 60.77 83.75
  L 69.43 83.75
  A 0.75 0.74 -84.3 0 0 70.16 83.15
  L 70.28 82.57
  Q 70.39 82.00 69.81 82.00
  L 68.34 82.00
  Q 67.78 82.00 67.98 81.48
  Z
  M 87.10 69.51
  L 93.98 69.50
  Q 94.69 69.50 94.45 70.17
  L 90.07 82.86
  A 0.66 0.66 0.0 0 0 90.68 83.74
  Q 94.22 83.79 97.71 83.70
  A 0.73 0.73 0.0 0 0 97.94 82.28
  L 97.42 82.08
  Q 96.77 81.84 97.00 81.19
  L 100.93 69.99
  Q 101.10 69.50 101.61 69.50
  L 108.42 69.50
  Q 108.90 69.50 108.74 69.95
  L 104.26 82.80
  A 0.70 0.70 0.0 0 0 104.91 83.73
  C 106.13 83.76 113.66 84.45 113.28 82.51
  Q 113.19 82.03 112.70 82.01
  L 111.92 81.97
  Q 111.33 81.94 111.53 81.38
  Q 114.15 73.93 116.62 66.43
  Q 116.81 65.86 116.46 65.37
  C 114.59 62.78 108.93 63.18 107.57 65.25
  A 3.79 3.04 39.6 0 1 102.29 65.17
  Q 99.79 62.79 96.11 63.96
  Q 95.64 64.11 95.28 64.46
  Q 91.77 67.90 88.23 64.45
  A 1.36 1.30 -20.3 0 0 87.38 64.08
  L 80.51 63.74
  Q 80.18 63.72 79.94 63.94
  Q 79.58 64.25 79.40 64.65
  Q 79.20 65.09 79.52 65.46
  Q 80.10 66.13 80.85 66.01
  Q 81.68 65.88 81.39 66.67
  L 75.24 83.10
  A 0.48 0.48 0.0 0 0 75.69 83.75
  L 83.22 83.75
  A 0.79 0.79 0.0 0 0 83.47 82.21
  L 82.72 81.96
  Q 82.18 81.79 82.37 81.25
  L 86.29 70.08
  Q 86.49 69.51 87.10 69.51
  Z
  M 86.36 74.40
  L 85.02 77.99
  A 0.41 0.41 0.0 0 0 85.68 78.43
  L 92.37 72.08
  A 0.55 0.55 0.0 0 0 92.29 71.22
  Q 91.30 70.58 90.04 71.00
  Q 86.76 70.06 86.36 74.40
  Z"
/>
<path fill="#68fc9a" d="
  M 65.54 3.50
  L 65.18 4.48
  Q 64.65 7.95 61.06 9.21
  Q 60.43 5.57 64.56 3.33
  Q 65.14 3.02 65.54 3.50
  Z"
/>
<path fill="#46fd02" d="
  M 65.54 3.50
  Q 70.57 7.28 74.90 11.84
  Q 75.25 12.20 75.25 12.71
  L 75.25 14.27
  Q 74.44 14.40 72.66 12.81
  C 69.93 10.37 65.34 6.78 65.18 4.48
  L 65.54 3.50
  Z"
/>
<path fill="#119338" d="
  M 65.18 4.48
  C 65.34 6.78 69.93 10.37 72.66 12.81
  Q 74.44 14.40 75.25 14.27
  Q 75.46 16.77 78.15 18.53
  Q 78.76 18.93 78.22 19.41
  L 56.44 38.92
  A 0.56 0.56 0.0 0 1 55.50 38.51
  L 55.50 20.06
  Q 55.50 19.66 55.89 19.57
  C 61.52 18.22 61.57 14.03 61.06 9.21
  Q 64.65 7.95 65.18 4.48
  Z"
/>
<path fill="#cccccc" d="
  M 55.25 7.29
  Q 55.32 8.89 56.75 9.46
  Q 56.17 10.93 56.43 12.13
  A 2.17 2.17 0.0 0 1 54.31 14.75
  L 49.63 14.75
  Q 49.00 14.75 49.00 15.38
  L 49.00 52.43
  A 0.54 0.54 0.0 0 0 50.06 52.57
  L 50.71 50.25
  L 51.25 50.79
  Q 51.24 51.11 50.98 51.31
  Q 50.80 51.45 51.02 51.50
  C 51.29 51.56 85.45 20.89 86.73 18.11
  Q 86.95 17.64 86.44 17.49
  Q 86.24 17.43 86.00 17.50
  L 86.21 16.25
  L 86.55 15.62
  Q 86.80 15.16 86.29 15.01
  Q 83.41 14.20 80.58 15.19
  Q 79.59 12.86 78.29 14.00
  C 78.20 11.97 77.64 7.28 81.00 7.27
  Q 97.09 7.21 113.17 7.29
  Q 115.67 7.30 115.50 9.67
  L 114.38 9.63
  Q 114.00 9.62 114.00 10.01
  L 114.00 12.07
  A 1.15 1.13 -22.0 0 1 113.64 12.90
  L 73.04 51.27
  L 68.60 55.55
  L 36.78 85.21
  Q 36.42 85.54 35.94 85.61
  Q 32.55 86.12 29.25 85.46
  Q 29.64 56.85 28.65 28.27
  Q 27.51 22.47 27.92 16.52
  Q 27.95 16.09 27.52 16.01
  L 27.25 15.96
  L 27.77 15.70
  Q 28.24 15.46 27.73 15.31
  Q 26.34 14.91 25.21 16.00
  Q 23.55 15.09 22.25 16.29
  C 19.33 15.73 18.60 7.29 23.86 7.27
  Q 39.55 7.21 55.25 7.29
  Z"
/>
<path fill="#ffffff" d="
  M 55.25 7.29
  Q 57.38 7.04 58.09 9.23
  Q 57.29 9.65 56.75 9.46
  Q 55.32 8.89 55.25 7.29
  Z"
/>
<path fill="#7e7e7e" d="
  M 58.09 9.23
  C 59.04 12.80 58.69 17.86 53.40 16.54
  Q 52.79 16.39 52.79 17.02
  L 52.79 45.75
  L 50.71 50.25
  L 50.06 52.57
  A 0.54 0.54 0.0 0 1 49.00 52.43
  L 49.00 15.38
  Q 49.00 14.75 49.63 14.75
  L 54.31 14.75
  A 2.17 2.17 0.0 0 0 56.43 12.13
  Q 56.17 10.93 56.75 9.46
  Q 57.29 9.65 58.09 9.23
  Z"
/>
<path fill="#7e7e7e" d="
  M 115.50 9.67
  C 116.51 12.50 116.40 14.25 114.09 16.40
  Q 95.34 33.84 76.59 51.23
  A 1.88 1.85 15.7 0 1 75.77 51.68
  Q 74.44 52.02 73.04 51.27
  L 113.64 12.90
  A 1.15 1.13 -22.0 0 0 114.00 12.07
  L 114.00 10.01
  Q 114.00 9.62 114.38 9.63
  L 115.50 9.67
  Z"
/>
<path fill="#ffffff" d="
  M 80.58 15.19
  Q 81.06 16.23 80.00 16.29
  Q 78.19 15.89 78.29 14.00
  Q 79.59 12.86 80.58 15.19
  Z"
/>
<path fill="#7e7e7e" d="
  M 86.21 16.25
  Q 85.19 15.76 84.54 16.75
  L 80.00 16.29
  Q 81.06 16.23 80.58 15.19
  Q 83.41 14.20 86.29 15.01
  Q 86.80 15.16 86.55 15.62
  L 86.21 16.25
  Z"
/>
<path fill="#7e7e7e" d="
  M 25.21 16.00
  Q 23.79 16.79 22.25 16.29
  Q 23.55 15.09 25.21 16.00
  Z"
/>
<path fill="#ffffff" d="
  M 27.25 15.96
  L 27.52 16.01
  Q 27.95 16.09 27.92 16.52
  Q 27.51 22.47 28.65 28.27
  Q 28.08 64.45 28.25 84.50
  Q 28.25 85.04 29.00 85.54
  L 28.96 87.25
  Q 27.71 86.78 26.81 85.68
  Q 26.50 85.30 26.50 84.80
  Q 26.49 50.97 26.50 17.12
  C 26.50 16.51 26.76 16.22 27.25 15.96
  Z"
/>
<path fill="#ffffff" d="
  M 86.21 16.25
  L 86.00 17.50
  Q 86.22 18.52 85.60 19.10
  Q 68.60 35.14 51.25 50.79
  L 50.71 50.25
  L 52.79 45.75
  L 84.54 16.75
  Q 85.19 15.76 86.21 16.25
  Z"
/>
<path fill="#a3a5a4" d="
  M 86.00 17.50
  Q 86.24 17.43 86.44 17.49
  Q 86.95 17.64 86.73 18.11
  C 85.45 20.89 51.29 51.56 51.02 51.50
  Q 50.80 51.45 50.98 51.31
  Q 51.24 51.11 51.25 50.79
  Q 68.60 35.14 85.60 19.10
  Q 86.22 18.52 86.00 17.50
  Z"
/>
<path fill="#a3a5a4" d="
  M 28.65 28.27
  Q 29.64 56.85 29.25 85.46
  Q 29.13 85.50 29.00 85.54
  Q 28.25 85.04 28.25 84.50
  Q 28.08 64.45 28.65 28.27
  Z"
/>
<path fill="#46fd02" d="
  M 116.25 50.29
  L 113.29 49.75
  L 97.46 35.50
  Q 97.95 34.23 99.20 34.20
  Q 99.74 34.19 100.13 34.54
  L 116.80 49.72
  Q 117.15 50.04 116.73 50.26
  Q 116.52 50.37 116.25 50.29
  Z"
/>
<path fill="#119338" d="
  M 97.46 35.50
  L 113.29 49.75
  Q 107.18 56.29 100.33 61.98
  C 98.23 64.02 95.65 61.11 93.49 64.18
  Q 93.18 64.62 92.66 64.72
  Q 90.22 65.19 88.87 63.20
  A 1.04 1.03 72.5 0 0 88.02 62.75
  L 79.51 62.75
  Q 78.87 62.75 78.67 63.35
  L 77.87 65.77
  A 0.76 0.75 19.8 0 0 78.32 66.71
  L 79.26 67.05
  A 0.60 0.60 0.0 0 1 79.61 67.83
  Q 76.72 75.36 73.94 82.90
  C 73.54 83.99 74.11 84.34 74.84 85.05
  L 65.79 93.52
  A 0.64 0.63 -45.3 0 1 64.93 93.53
  L 50.41 80.46
  Q 50.08 80.15 50.02 80.61
  Q 49.99 80.87 50.20 81.06
  Q 59.52 89.29 65.88 96.00
  Q 64.86 97.15 64.33 96.67
  Q 56.32 89.40 48.53 82.37
  A 0.95 0.95 0.0 0 1 48.51 80.97
  L 63.13 67.15
  A 0.90 0.90 0.0 0 1 64.59 68.13
  L 58.94 82.72
  Q 57.96 85.25 60.68 85.25
  C 63.73 85.25 72.02 86.89 71.70 81.77
  Q 71.67 81.35 71.29 81.15
  L 70.25 80.62
  Q 69.78 80.38 69.97 79.88
  Q 73.16 71.90 76.04 63.79
  A 0.89 0.89 0.0 0 0 75.22 62.60
  L 69.48 62.46
  Q 68.82 62.44 69.11 61.85
  C 70.38 59.30 74.40 60.69 76.91 59.73
  Q 77.36 59.56 77.60 59.14
  Q 79.31 56.15 79.30 52.75
  Q 79.29 52.26 79.65 51.93
  L 97.46 35.50
  Z"
/>
<path fill="#000000" d="
  M 170.95 37.30
  L 176.35 37.04
  A 0.30 0.30 0.0 0 1 176.65 37.44
  L 167.25 63.80
  A 0.30 0.30 0.0 0 1 166.97 64.00
  L 161.67 64.00
  A 0.30 0.30 0.0 0 1 161.39 63.80
  L 151.97 37.45
  A 0.30 0.30 0.0 0 1 152.27 37.05
  L 157.80 37.35
  A 0.30 0.30 0.0 0 1 158.06 37.55
  L 164.20 56.04
  A 0.30 0.30 0.0 0 0 164.77 56.03
  L 170.68 37.51
  A 0.30 0.30 0.0 0 1 170.95 37.30
  Z"
/>
<rect fill="#000000" x="-2.87" y="-13.42" transform="translate(182.13,50.57) rotate(0.1)" width="5.74" height="26.84" rx="0.36"/>
<path fill="#000000" d="
  M 206.38 64.00
  L 201.44 64.00
  A 0.24 0.24 0.0 0 1 201.21 63.83
  L 196.42 47.33
  A 0.24 0.24 0.0 0 0 196.36 47.23
  L 195.91 46.78
  A 0.24 0.24 0.0 0 0 195.50 46.95
  L 195.50 63.76
  A 0.24 0.24 0.0 0 1 195.26 64.00
  L 190.49 64.00
  A 0.24 0.24 0.0 0 1 190.25 63.76
  L 190.25 37.38
  A 0.24 0.24 0.0 0 1 190.49 37.14
  L 198.48 37.30
  A 0.24 0.24 0.0 0 1 198.71 37.47
  L 203.79 54.89
  A 0.24 0.24 0.0 0 0 204.26 54.89
  L 209.11 37.37
  A 0.24 0.24 0.0 0 1 209.34 37.19
  L 217.04 37.26
  A 0.24 0.24 0.0 0 1 217.28 37.50
  L 217.24 63.76
  A 0.24 0.24 0.0 0 1 217.00 64.00
  L 212.46 64.00
  A 0.24 0.24 0.0 0 1 212.22 63.76
  L 211.92 46.62
  A 0.24 0.24 0.0 0 0 211.45 46.56
  L 206.61 63.82
  A 0.24 0.24 0.0 0 1 206.38 64.00
  Z"
/>
<path fill="#68fc9a" d="
  M 23.46 44.50
  L 17.24 49.86
  Q 16.87 50.18 16.38 50.24
  L 14.21 50.50
  Q 13.88 50.52 13.56 50.27
  Q 13.19 49.98 13.54 49.66
  L 22.86 41.19
  Q 23.39 40.70 23.62 41.39
  Q 24.17 43.02 23.46 44.50
  Z"
/>
<path fill="#119338" d="
  M 23.46 44.50
  L 23.55 59.00
  A 0.27 0.26 21.5 0 1 23.10 59.19
  C 21.80 58.00 14.17 51.64 14.21 50.50
  L 16.38 50.24
  Q 16.87 50.18 17.24 49.86
  L 23.46 44.50
  Z"
/>
<path fill="#005706" d="
  M 113.29 49.75
  L 116.25 50.29
  Q 108.87 57.63 102.94 62.69
  Q 101.94 63.54 100.33 61.98
  Q 107.18 56.29 113.29 49.75
  Z"
/>
<path fill="#cccccc" d="
  M 77.73 53.80
  C 78.27 58.64 74.65 59.61 70.76 58.87
  A 0.65 0.64 -86.1 0 1 70.23 58.26
  C 70.01 53.63 72.99 52.45 77.06 53.10
  Q 77.66 53.19 77.73 53.80
  Z"
/>
<path fill="#7e7e7e" d="
  M 68.60 55.55
  Q 68.82 59.86 64.80 62.10
  C 63.16 63.01 62.16 64.66 61.09 65.65
  Q 49.44 76.41 37.80 87.18
  Q 37.44 87.52 36.95 87.59
  Q 32.88 88.24 28.96 87.25
  L 29.00 85.54
  Q 29.13 85.50 29.25 85.46
  Q 32.55 86.12 35.94 85.61
  Q 36.42 85.54 36.78 85.21
  L 68.60 55.55
  Z"
/>
<path fill="#cccccc" d="
  M 68.34 82.00
  L 69.81 82.00
  Q 70.39 82.00 70.28 82.57
  L 70.16 83.15
  A 0.75 0.74 -84.3 0 1 69.43 83.75
  L 60.77 83.75
  Q 59.99 83.75 60.27 83.02
  L 66.60 66.54
  Q 67.01 65.48 65.94 65.85
  Q 65.08 66.15 64.21 65.51
  Q 63.92 65.30 63.94 64.95
  C 64.06 62.90 72.00 63.77 73.89 63.50
  A 0.56 0.56 0.0 0 1 74.49 64.25
  L 67.98 81.48
  Q 67.78 82.00 68.34 82.00
  Z"
/>
<path fill="#cccccc" d="
  M 86.29 70.08
  L 82.37 81.25
  Q 82.18 81.79 82.72 81.96
  L 83.47 82.21
  A 0.79 0.79 0.0 0 1 83.22 83.75
  L 75.69 83.75
  A 0.48 0.48 0.0 0 1 75.24 83.10
  L 81.39 66.67
  Q 81.68 65.88 80.85 66.01
  Q 80.10 66.13 79.52 65.46
  Q 79.20 65.09 79.40 64.65
  Q 79.58 64.25 79.94 63.94
  Q 80.18 63.72 80.51 63.74
  L 87.38 64.08
  A 1.36 1.30 -20.3 0 1 88.23 64.45
  Q 91.77 67.90 95.28 64.46
  Q 95.64 64.11 96.11 63.96
  Q 99.79 62.79 102.29 65.17
  A 3.79 3.04 39.6 0 0 107.57 65.25
  C 108.93 63.18 114.59 62.78 116.46 65.37
  Q 116.81 65.86 116.62 66.43
  Q 114.15 73.93 111.53 81.38
  Q 111.33 81.94 111.92 81.97
  L 112.70 82.01
  Q 113.19 82.03 113.28 82.51
  C 113.66 84.45 106.13 83.76 104.91 83.73
  A 0.70 0.70 0.0 0 1 104.26 82.80
  L 108.74 69.95
  Q 108.90 69.50 108.42 69.50
  L 101.61 69.50
  Q 101.10 69.50 100.93 69.99
  L 97.00 81.19
  Q 96.77 81.84 97.42 82.08
  L 97.94 82.28
  A 0.73 0.73 0.0 0 1 97.71 83.70
  Q 94.22 83.79 90.68 83.74
  A 0.66 0.66 0.0 0 1 90.07 82.86
  L 94.45 70.17
  Q 94.69 69.50 93.98 69.50
  L 87.10 69.51
  Q 86.49 69.51 86.29 70.08
  Z"
/>
<path fill="#119338" d="
  M 90.04 71.00
  Q 88.72 73.29 86.36 74.40
  Q 86.76 70.06 90.04 71.00
  Z"
/>
<path fill="#005706" d="
  M 90.04 71.00
  Q 91.30 70.58 92.29 71.22
  A 0.55 0.55 0.0 0 1 92.37 72.08
  L 85.68 78.43
  A 0.41 0.41 0.0 0 1 85.02 77.99
  L 86.36 74.40
  Q 88.72 73.29 90.04 71.00
  Z"
/>
<path fill="#005706" d="
  M 74.84 85.05
  Q 75.18 85.54 77.19 85.01
  A 0.37 0.37 0.0 0 1 77.55 85.63
  Q 71.78 91.51 65.88 96.00
  Q 59.52 89.29 50.20 81.06
  Q 49.99 80.87 50.02 80.61
  Q 50.08 80.15 50.41 80.46
  L 64.93 93.53
  A 0.64 0.63 -45.3 0 0 65.79 93.52
  L 74.84 85.05
  Z"
/>
</svg>
