<?xml version="1.0" encoding="UTF-8" standalone="no"?>
<!DOCTYPE svg PUBLIC "-//W3C//DTD SVG 1.1//EN" "http://www.w3.org/Graphics/SVG/1.1/DTD/svg11.dtd">
<svg xmlns="http://www.w3.org/2000/svg" version="1.1" viewBox="0.00 0.00 350.00 100.00">
<g stroke-width="2.00" fill="none" stroke-linecap="butt">
<path stroke="#e1f6f9" vector-effect="non-scaling-stroke" d="
  M 25.66 15.68
  C 25.34 15.79 15.56 20.25 19.38 20.35"
/>
<path stroke="#cedee6" vector-effect="non-scaling-stroke" d="
  M 19.38 20.35
  Q 18.92 21.03 19.01 22.00
  Q 20.72 39.68 21.97 64.10
  A 0.10 0.10 0.0 0 1 21.80 64.17
  L 21.55 63.93
  Q 21.28 63.65 21.08 63.99
  C 19.90 66.05 22.18 67.56 23.86 68.92
  Q 24.25 69.24 24.23 69.75
  C 24.05 73.07 32.99 82.74 35.41 85.57"
/>
<path stroke="#aed2dd" vector-effect="non-scaling-stroke" d="
  M 35.41 85.57
  C 38.52 92.87 46.40 100.74 55.07 99.41"
/>
<path stroke="#6f93ab" vector-effect="non-scaling-stroke" d="
  M 55.07 99.41
  L 65.73 99.69"
/>
<path stroke="#9abfda" vector-effect="non-scaling-stroke" d="
  M 65.73 99.69
  Q 71.79 100.20 77.44 95.88"
/>
<path stroke="#aed2dd" vector-effect="non-scaling-stroke" d="
  M 77.44 95.88
  Q 81.25 94.82 84.28 92.44
  C 85.84 91.23 88.04 90.24 89.28 88.79
  Q 93.11 84.31 97.18 80.05
  Q 97.24 79.99 97.25 79.89
  Q 97.26 79.75 97.25 79.57
  A 0.82 0.79 -23.7 0 1 97.51 78.94
  Q 100.53 76.03 102.24 72.16
  Q 102.46 71.66 102.88 71.30
  Q 103.63 70.67 103.52 69.61
  Q 103.47 69.12 103.69 68.68
  C 105.84 64.20 105.02 60.45 105.73 55.83
  C 106.38 51.62 103.32 42.12 100.36 38.92
  Q 99.79 38.30 99.55 35.98"
/>
<path stroke="#9abfda" vector-effect="non-scaling-stroke" d="
  M 99.55 35.98
  Q 100.79 28.80 100.18 20.84"
/>
<path stroke="#88adcf" vector-effect="non-scaling-stroke" d="
  M 100.18 20.84
  Q 100.44 21.79 99.97 20.78"
/>
<path stroke="#cceaf7" vector-effect="non-scaling-stroke" d="
  M 99.97 20.78
  Q 100.85 20.35 101.17 19.60
  Q 101.40 19.07 100.87 18.82
  C 92.38 14.94 83.31 11.62 75.05 7.37
  C 73.72 6.69 72.33 6.83 71.03 5.53
  A 1.49 1.41 -16.3 0 0 70.25 5.13
  C 68.35 4.80 67.15 4.61 65.33 3.59
  Q 63.81 2.73 62.00 2.41
  Q 61.55 2.33 61.37 1.91
  Q 60.70 0.30 59.01 1.04
  Q 42.36 8.34 25.66 15.68"
/>
<path stroke="#8eaad3" vector-effect="non-scaling-stroke" d="
  M 99.97 20.78
  L 98.58 21.34"
/>
<path stroke="#e7f2fd" vector-effect="non-scaling-stroke" d="
  M 98.58 21.34
  L 98.50 20.62
  A 0.42 0.42 0.0 0 0 97.87 20.30
  Q 87.46 26.13 77.25 32.31
  C 74.86 33.75 72.56 33.47 70.10 32.67
  Q 69.84 32.58 70.04 32.40
  L 70.39 32.11
  Q 70.73 31.81 70.34 31.57
  Q 70.08 31.40 69.46 31.41"
/>
<path stroke="#6b82a9" vector-effect="non-scaling-stroke" d="
  M 69.46 31.41
  L 89.67 19.69
  Q 90.18 19.40 89.64 19.15
  L 60.32 5.69
  Q 59.35 5.24 58.38 5.69
  L 29.66 18.76"
/>
<path stroke="#e7f2fd" vector-effect="non-scaling-stroke" d="
  M 29.66 18.76
  Q 27.17 17.65 25.66 15.68"
/>
<path stroke="#5c7fb6" vector-effect="non-scaling-stroke" d="
  M 100.18 20.84
  Q 100.94 31.71 95.44 37.10"
/>
<path stroke="#315387" vector-effect="non-scaling-stroke" d="
  M 95.44 37.10
  L 95.72 29.82
  A 0.44 0.44 0.0 0 0 95.05 29.43
  Q 81.09 38.07 66.92 46.88
  Q 65.70 47.64 65.73 49.25
  Q 65.84 56.34 65.72 71.09"
/>
<path stroke="#5c7fb6" vector-effect="non-scaling-stroke" d="
  M 65.72 71.09
  Q 66.62 69.18 63.23 71.73
  C 60.67 73.66 62.80 76.20 60.50 77.52"
/>
<path stroke="#a3b6d5" vector-effect="non-scaling-stroke" d="
  M 98.58 21.34
  L 61.21 44.09
  Q 60.79 44.35 60.78 44.85
  L 60.50 77.52"
/>
<path stroke="#b5c7e0" vector-effect="non-scaling-stroke" d="
  M 60.50 77.52
  L 60.84 91.95"
/>
<path stroke="#7e7f80" vector-effect="non-scaling-stroke" d="
  M 60.84 91.95
  Q 58.88 92.71 57.42 90.72"
/>
<path stroke="#f5f1f0" vector-effect="non-scaling-stroke" d="
  M 57.42 90.72
  Q 57.68 89.96 58.55 89.28
  A 1.14 1.13 70.9 0 0 58.98 88.39
  L 58.72 44.86
  Q 58.72 44.40 58.32 44.16
  L 45.78 36.45"
/>
<path stroke="#e9e6ed" vector-effect="non-scaling-stroke" d="
  M 45.78 36.45
  L 19.38 20.35"
/>
<path stroke="#808eab" vector-effect="non-scaling-stroke" d="
  M 69.46 31.41
  L 60.03 36.76
  Q 59.59 37.00 59.15 36.75
  Q 44.29 28.12 29.47 19.50
  Q 28.95 19.20 29.66 18.76"
/>
<path stroke="#77849f" vector-effect="non-scaling-stroke" d="
  M 93.38 58.81
  Q 79.89 67.62 65.99 78.78"
/>
<path stroke="#81a4c4" vector-effect="non-scaling-stroke" d="
  M 99.55 35.98
  Q 98.19 43.90 98.52 51.96
  Q 98.55 52.55 98.74 51.99
  Q 99.13 50.91 98.98 49.76
  A 0.86 0.86 0.0 0 1 100.62 49.30
  Q 104.11 57.28 101.17 65.78
  C 100.73 67.05 99.72 68.27 99.70 70.08
  Q 99.70 70.55 99.27 70.76
  Q 97.78 71.49 97.71 73.10
  Q 97.69 73.55 97.42 73.90
  L 86.44 88.20
  Q 86.07 88.68 85.50 88.89
  Q 84.34 89.32 83.60 90.22
  C 81.59 92.67 79.80 94.07 77.44 95.88"
/>
<path stroke="#436592" vector-effect="non-scaling-stroke" d="
  M 65.73 99.69
  Q 71.99 97.51 76.89 93.93"
/>
<path stroke="#5c7fb6" vector-effect="non-scaling-stroke" d="
  M 76.89 93.93
  C 79.24 94.47 79.66 93.25 81.13 92.16
  C 83.08 90.71 86.82 85.85 87.75 84.00
  Q 88.18 83.14 88.82 82.76
  Q 89.23 82.51 89.48 82.09
  C 91.80 78.07 96.74 73.84 98.03 68.79
  Q 98.19 68.17 97.81 68.69
  L 94.23 73.60
  Q 93.90 74.04 93.76 73.51
  Q 93.58 72.89 94.25 72.73
  Q 95.72 71.01 96.79 69.07
  Q 97.07 68.57 96.64 68.95
  Q 95.22 70.18 94.29 71.87
  A 0.20 0.20 0.0 0 1 93.92 71.71
  Q 94.03 71.39 94.24 71.12
  Q 94.99 70.15 93.99 70.85
  Q 93.33 71.30 92.79 72.21"
/>
<path stroke="#436592" vector-effect="non-scaling-stroke" d="
  M 92.79 72.21
  Q 93.82 69.82 93.72 67.93"
/>
<path stroke="#374861" vector-effect="non-scaling-stroke" d="
  M 93.72 67.93
  L 97.51 64.90
  A 0.40 0.39 52.1 0 0 97.57 64.34
  C 97.22 63.89 64.31 89.32 60.84 91.95"
/>
<path stroke="#436592" vector-effect="non-scaling-stroke" d="
  M 65.72 71.09
  L 65.99 78.78"
/>
<path stroke="#a1afce" vector-effect="non-scaling-stroke" d="
  M 65.99 78.78
  Q 66.37 78.64 66.70 78.43
  Q 80.54 69.72 93.38 58.81"
/>
<path stroke="#436592" vector-effect="non-scaling-stroke" d="
  M 93.38 58.81
  Q 92.66 58.69 93.35 58.46
  Q 93.48 58.42 93.49 58.28
  L 95.44 37.10"
/>
<path stroke="#e1d9de" vector-effect="non-scaling-stroke" d="
  M 45.78 36.45
  C 45.66 38.05 46.67 41.76 44.89 42.01"
/>
<path stroke="#6d7698" vector-effect="non-scaling-stroke" d="
  M 44.89 42.01
  L 24.39 29.14
  Q 23.78 28.75 23.75 29.48
  C 23.69 31.66 24.23 34.53 24.34 36.09
  Q 25.08 46.52 25.85 56.95
  C 25.95 58.40 26.62 58.97 27.78 59.65"
/>
<path stroke="#e1d9de" vector-effect="non-scaling-stroke" d="
  M 27.78 59.65
  C 27.21 60.21 27.44 60.96 28.05 61.41
  Q 33.88 65.73 39.29 69.66
  A 1.11 1.11 0.0 0 1 38.55 71.66
  Q 35.27 71.39 32.25 69.85
  Q 31.79 69.61 32.02 70.07
  Q 32.48 70.96 31.93 71.54"
/>
<path stroke="#77849f" vector-effect="non-scaling-stroke" d="
  M 31.93 71.54
  L 23.31 64.94
  Q 22.49 64.31 22.84 65.29
  Q 23.15 66.13 24.09 66.90"
/>
<path stroke="#b5c3d1" vector-effect="non-scaling-stroke" d="
  M 24.09 66.90
  Q 27.07 73.57 32.24 78.49
  C 33.58 79.76 34.06 81.17 34.64 82.82
  Q 34.77 83.18 35.09 83.40
  Q 35.84 83.93 35.41 85.57"
/>
<path stroke="#0c1d32" vector-effect="non-scaling-stroke" d="
  M 93.72 67.93
  L 85.24 74.72
  A 1.04 1.02 72.2 0 0 84.84 75.52
  Q 84.71 80.71 83.17 86.08"
/>
<path stroke="#253756" vector-effect="non-scaling-stroke" d="
  M 83.17 86.08
  L 82.27 88.07"
/>
<path stroke="#0c1d32" vector-effect="non-scaling-stroke" d="
  M 82.27 88.07
  L 81.30 88.22
  Q 81.08 88.26 80.99 88.05
  Q 80.95 87.94 80.96 87.78"
/>
<path stroke="#253756" vector-effect="non-scaling-stroke" d="
  M 80.96 87.78
  Q 83.96 82.47 83.65 76.27
  A 0.30 0.30 0.0 0 0 83.17 76.05
  L 60.19 93.42"
/>
<path stroke="#6b676d" vector-effect="non-scaling-stroke" d="
  M 60.19 93.42
  Q 60.07 93.32 59.94 93.22"
/>
<path stroke="#374861" vector-effect="non-scaling-stroke" d="
  M 59.94 93.22
  L 56.25 91.21"
/>
<path stroke="#0c1d32" vector-effect="non-scaling-stroke" d="
  M 56.25 91.21
  Q 56.10 90.42 56.76 90.45"
/>
<path stroke="#777271" vector-effect="non-scaling-stroke" d="
  M 57.42 90.72
  Q 57.15 90.83 56.76 90.45"
/>
<path stroke="#838fa2" vector-effect="non-scaling-stroke" d="
  M 56.76 90.45
  L 31.93 71.54"
/>
<path stroke="#436592" vector-effect="non-scaling-stroke" d="
  M 56.25 91.21
  L 37.55 76.80
  A 0.50 0.49 -76.1 0 0 36.76 77.28
  L 37.36 80.86"
/>
<path stroke="#77849f" vector-effect="non-scaling-stroke" d="
  M 37.36 80.86
  L 38.26 83.50"
/>
<path stroke="#577895" vector-effect="non-scaling-stroke" d="
  M 38.26 83.50
  Q 38.26 86.41 40.10 88.55"
/>
<path stroke="#77849f" vector-effect="non-scaling-stroke" d="
  M 40.10 88.55
  Q 46.25 96.62 55.89 97.97"
/>
<path stroke="#315387" vector-effect="non-scaling-stroke" d="
  M 55.89 97.97
  Q 72.28 100.33 80.96 87.78"
/>
<path stroke="#315387" vector-effect="non-scaling-stroke" d="
  M 82.27 88.07
  Q 80.50 91.30 76.89 93.93"
/>
<path stroke="#577895" vector-effect="non-scaling-stroke" d="
  M 55.07 99.41
  C 44.53 96.31 37.01 90.08 35.58 78.54
  Q 35.51 78.03 35.23 77.61
  Q 34.47 76.46 34.26 75.12
  Q 34.18 74.63 33.79 74.32
  L 24.09 66.90"
/>
<path stroke="#315387" vector-effect="non-scaling-stroke" d="
  M 92.79 72.21
  Q 91.42 73.58 89.96 75.10
  C 87.21 77.97 86.85 84.32 83.17 86.08"
/>
<path stroke="#79819c" vector-effect="non-scaling-stroke" d="
  M 44.89 42.01
  L 53.98 47.75"
/>
<path stroke="#0e2b5d" vector-effect="non-scaling-stroke" d="
  M 53.98 47.75
  Q 53.35 50.12 50.69 46.89
  A 1.05 1.01 -15.4 0 0 50.01 46.52
  Q 49.69 46.48 49.58 46.41
  Q 37.80 38.91 25.85 31.50
  A 0.42 0.42 0.0 0 0 25.21 31.86
  Q 25.32 37.62 26.87 42.95"
/>
<path stroke="#79819c" vector-effect="non-scaling-stroke" d="
  M 26.87 42.95
  Q 27.16 48.60 32.00 50.25
  Q 32.18 50.31 32.24 50.49
  Q 32.28 50.62 32.34 50.76"
/>
<path stroke="#0e2b5d" vector-effect="non-scaling-stroke" d="
  M 32.34 50.76
  L 32.22 51.25
  Q 32.10 51.74 31.69 51.45
  L 27.88 48.80
  A 0.77 0.77 0.0 0 0 26.69 49.27
  Q 26.12 51.80 27.03 54.22
  A 1.70 1.68 -48.3 0 1 27.08 55.22
  Q 26.48 57.45 28.21 58.76
  Q 39.55 67.34 51.03 75.67
  Q 51.42 75.95 51.52 76.43
  L 51.74 77.47"
/>
<path stroke="#79819c" vector-effect="non-scaling-stroke" d="
  M 51.74 77.47
  L 27.78 59.65"
/>
<path stroke="#6d7698" vector-effect="non-scaling-stroke" d="
  M 75.77 90.69
  Q 69.38 95.41 59.79 96.10"
/>
<path stroke="#b5c3d1" vector-effect="non-scaling-stroke" d="
  M 40.10 88.55
  L 40.43 87.28
  Q 40.56 86.81 40.28 86.41
  L 38.26 83.50"
/>
<path stroke="#a1afce" vector-effect="non-scaling-stroke" d="
  M 59.94 93.22
  Q 57.92 93.94 55.69 93.40
  Q 54.13 93.03 52.31 91.22
  C 49.37 88.30 44.75 84.20 40.76 83.00
  Q 40.28 82.85 40.08 82.39
  Q 38.65 79.13 37.36 80.86"
/>
<path stroke="#909ec3" vector-effect="non-scaling-stroke" d="
  M 55.89 97.97
  L 56.81 97.21
  Q 57.24 96.86 56.85 96.47
  L 56.45 96.07
  Q 55.72 95.35 56.73 95.53
  L 59.79 96.10"
/>
<path stroke="#274581" vector-effect="non-scaling-stroke" d="
  M 59.79 96.10
  Q 66.04 97.66 72.52 93.99
  Q 75.28 92.42 75.77 90.69"
/>
<path stroke="#909ec3" vector-effect="non-scaling-stroke" d="
  M 75.77 90.69
  Q 81.35 86.71 82.64 80.48
  A 0.60 0.60 0.0 0 0 82.30 79.81
  Q 81.56 79.48 81.34 80.14
  Q 79.21 86.47 73.87 89.50
  Q 73.78 89.55 73.77 89.66
  Q 73.74 89.80 73.73 89.91
  Q 73.72 89.97 73.67 90.00
  Q 67.45 94.26 60.19 93.42"
/>
<path stroke="#838fa2" vector-effect="non-scaling-stroke" d="
  M 53.98 47.75
  L 54.23 78.73
  Q 54.24 79.37 53.73 78.98
  L 51.74 77.47"
/>
<path stroke="#838fa2" vector-effect="non-scaling-stroke" d="
  M 32.34 50.76
  Q 32.41 51.62 33.37 51.37
  Q 33.92 51.23 34.27 51.67
  L 35.20 52.80"
/>
<path stroke="#77849f" vector-effect="non-scaling-stroke" d="
  M 35.20 52.80
  Q 35.86 54.48 37.35 54.55
  Q 37.86 54.58 38.22 54.94
  Q 44.09 60.71 50.90 65.38
  Q 51.56 65.83 51.47 65.04
  Q 51.38 64.20 50.57 63.72
  Q 50.10 63.44 50.50 63.07
  L 51.46 62.19
  Q 51.96 61.73 51.46 61.27
  L 48.50 58.53
  A 0.87 0.87 0.0 0 0 47.15 59.59
  Q 47.45 60.13 46.90 60.46
  Q 46.45 60.73 46.12 60.31
  Q 44.77 58.61 44.92 56.36
  A 1.15 1.14 -70.2 0 0 44.45 55.36
  L 41.09 52.91
  A 0.88 0.88 0.0 0 0 39.99 52.95
  L 39.28 53.56
  A 0.43 0.43 0.0 0 1 38.58 53.14
  C 38.77 52.31 39.05 50.49 37.68 50.53
  Q 37.23 50.54 37.14 50.98
  Q 36.98 51.86 36.55 52.64
  Q 36.30 53.11 36.03 52.65
  Q 35.91 52.44 35.90 52.09"
/>
<path stroke="#838fa2" vector-effect="non-scaling-stroke" d="
  M 35.90 52.09
  Q 36.55 48.16 32.21 46.20
  A 1.86 1.80 -3.7 0 1 31.43 45.54
  Q 29.76 42.98 26.87 42.95"
/>
<path stroke="#e1d9de" vector-effect="non-scaling-stroke" d="
  M 35.90 52.09
  Q 35.70 52.92 35.20 52.80"
/>
<path stroke="#637779" vector-effect="non-scaling-stroke" d="
  M 166.8031 40.5284
  A 12.93 12.22 89.1 0 0 178.8185 27.4081
  A 12.93 12.22 89.1 0 0 166.3969 14.6716
  A 12.93 12.22 89.1 0 0 154.3815 27.7919
  A 12.93 12.22 89.1 0 0 166.8031 40.5284"
/>
<path stroke="#637779" vector-effect="non-scaling-stroke" d="
  M 238.14 20.65
  C 240.96 17.94 245.92 18.74 247.13 22.84
  A 0.53 0.52 75.1 0 0 247.76 23.21
  L 251.89 22.22
  A 0.49 0.49 0.0 0 0 252.24 21.59
  Q 250.52 16.36 245.49 15.26
  C 225.94 10.98 225.46 42.40 243.79 40.24
  Q 250.17 39.49 252.67 32.77
  Q 252.89 32.17 252.27 32.02
  L 248.20 31.06
  Q 247.67 30.93 247.50 31.46
  C 245.39 37.88 238.10 37.35 236.22 31.15
  C 235.23 27.87 235.55 23.16 238.14 20.65"
/>
<path stroke="#637779" vector-effect="non-scaling-stroke" d="
  M 197.17 28.48
  C 202.35 27.03 202.98 20.22 199.50 17.29
  C 196.15 14.46 188.11 15.08 183.45 15.01
  Q 182.75 15.00 182.75 15.70
  L 182.75 39.50
  Q 182.75 40.00 183.25 40.00
  L 187.50 40.00
  Q 188.00 40.00 188.00 39.50
  L 187.99 30.27
  Q 187.99 29.83 188.43 29.78
  C 193.78 29.15 195.51 34.87 197.32 39.50
  Q 197.52 40.00 198.06 40.00
  L 202.49 40.00
  Q 203.23 40.00 202.94 39.32
  Q 200.65 33.77 197.00 29.00
  Q 196.71 28.62 197.17 28.48"
/>
<path stroke="#637779" vector-effect="non-scaling-stroke" d="
  M 219.72 15.35
  A 0.34 0.34 0.0 0 0 219.40 15.13
  L 214.78 15.23
  A 0.34 0.34 0.0 0 0 214.47 15.44
  L 205.00 39.54
  A 0.34 0.34 0.0 0 0 205.32 40.00
  L 210.09 40.00
  A 0.34 0.34 0.0 0 0 210.41 39.78
  L 212.23 34.72
  A 0.34 0.34 0.0 0 1 212.55 34.50
  L 221.69 34.50
  A 0.34 0.34 0.0 0 1 222.01 34.73
  L 223.79 39.77
  A 0.34 0.34 0.0 0 0 224.11 40.00
  L 229.14 40.00
  A 0.34 0.34 0.0 0 0 229.45 39.53
  L 219.72 15.35"
/>
<path stroke="#637779" vector-effect="non-scaling-stroke" d="
  M 262.05 35.75
  A 0.31 0.31 0.0 0 1 261.74 35.44
  L 261.76 15.31
  A 0.31 0.31 0.0 0 0 261.45 15.00
  L 257.06 15.00
  A 0.31 0.31 0.0 0 0 256.75 15.31
  L 256.75 39.69
  A 0.31 0.31 0.0 0 0 257.06 40.00
  L 272.69 40.00
  A 0.31 0.31 0.0 0 0 273.00 39.69
  L 273.00 36.06
  A 0.31 0.31 0.0 0 0 272.69 35.75
  L 262.05 35.75"
/>
<path stroke="#637779" vector-effect="non-scaling-stroke" d="
  M 281.29 29.55
  A 0.31 0.31 0.0 0 1 281.60 29.24
  L 291.52 29.28
  A 0.31 0.31 0.0 0 0 291.83 28.96
  L 291.76 25.30
  A 0.31 0.31 0.0 0 0 291.45 25.00
  L 281.55 25.00
  A 0.31 0.31 0.0 0 1 281.24 24.69
  L 281.26 19.76
  A 0.31 0.31 0.0 0 1 281.57 19.45
  L 292.55 19.52
  A 0.31 0.31 0.0 0 0 292.86 19.22
  L 292.96 15.32
  A 0.31 0.31 0.0 0 0 292.65 15.00
  L 276.56 15.00
  A 0.31 0.31 0.0 0 0 276.25 15.31
  L 276.25 39.69
  A 0.31 0.31 0.0 0 0 276.56 40.00
  L 293.08 40.00
  A 0.31 0.31 0.0 0 0 293.39 39.68
  L 293.34 36.05
  A 0.31 0.31 0.0 0 0 293.03 35.75
  L 281.54 35.75
  A 0.31 0.31 0.0 0 1 281.23 35.44
  L 281.29 29.55"
/>
<path stroke="#637779" vector-effect="non-scaling-stroke" d="
  M 301.7470 82.5495
  A 12.95 12.21 90.5 0 0 314.0695 69.7066
  A 12.95 12.21 90.5 0 0 301.9730 56.6505
  A 12.95 12.21 90.5 0 0 289.6505 69.4934
  A 12.95 12.21 90.5 0 0 301.7470 82.5495"
/>
<path stroke="#637779" vector-effect="non-scaling-stroke" d="
  M 121.44 74.93
  L 115.69 57.67
  Q 115.50 57.10 114.90 57.09
  L 110.56 56.98
  Q 109.86 56.96 110.10 57.61
  L 118.57 81.40
  Q 118.78 82.00 119.42 82.00
  L 123.66 82.00
  Q 124.09 82.00 124.23 81.59
  L 132.78 57.63
  Q 133.01 56.99 132.34 57.00
  L 127.99 57.01
  Q 127.45 57.01 127.28 57.53
  L 121.75 74.93
  A 0.16 0.16 0.0 0 1 121.44 74.93"
/>
<path stroke="#637779" vector-effect="non-scaling-stroke" d="
  M 140.50 57.28
  A 0.27 0.27 0.0 0 0 140.23 57.01
  L 135.75 57.01
  A 0.27 0.27 0.0 0 0 135.48 57.28
  L 135.48 81.72
  A 0.27 0.27 0.0 0 0 135.75 81.99
  L 140.23 81.99
  A 0.27 0.27 0.0 0 0 140.50 81.72
  L 140.50 57.28"
/>
<path stroke="#637779" vector-effect="non-scaling-stroke" d="
  M 159.76 70.83
  L 162.69 69.19
  Q 163.20 68.90 163.45 68.36
  C 169.28 55.63 152.67 57.09 146.33 57.01
  A 0.65 0.64 0.0 0 0 145.68 57.65
  L 145.76 81.38
  A 0.62 0.62 0.0 0 0 146.38 82.00
  L 150.25 82.00
  Q 150.75 82.00 150.75 81.50
  L 150.75 72.31
  Q 150.75 71.97 151.08 71.90
  C 156.39 70.78 158.23 76.56 160.14 81.42
  Q 160.37 82.00 160.99 82.00
  L 165.49 82.00
  Q 166.22 82.00 165.90 81.34
  C 164.87 79.23 161.72 72.16 159.80 71.43
  Q 159.14 71.17 159.76 70.83"
/>
<path stroke="#637779" vector-effect="non-scaling-stroke" d="
  M 179.50 61.82
  A 0.32 0.32 0.0 0 1 179.82 61.50
  L 186.43 61.50
  A 0.32 0.32 0.0 0 0 186.75 61.18
  L 186.75 57.32
  A 0.32 0.32 0.0 0 0 186.43 57.00
  L 167.46 57.00
  A 0.32 0.32 0.0 0 0 167.14 57.32
  L 167.18 61.20
  A 0.32 0.32 0.0 0 0 167.50 61.52
  L 173.95 61.46
  A 0.32 0.32 0.0 0 1 174.27 61.78
  L 174.24 81.68
  A 0.32 0.32 0.0 0 0 174.56 82.00
  L 179.18 82.00
  A 0.32 0.32 0.0 0 0 179.50 81.68
  L 179.50 61.82"
/>
<path stroke="#637779" vector-effect="non-scaling-stroke" d="
  M 204.54 73.20
  C 204.31 80.55 195.10 78.80 195.06 74.18
  Q 194.97 65.86 195.01 57.52
  Q 195.01 57.00 194.49 57.00
  L 190.51 57.00
  Q 189.99 57.00 189.99 57.52
  Q 189.91 65.85 190.33 74.18
  Q 190.70 81.38 197.75 82.02
  C 202.89 82.49 208.31 82.10 209.28 76.25
  Q 210.26 70.28 209.58 57.37
  Q 209.56 57.00 209.19 57.00
  L 205.27 57.00
  Q 204.77 57.00 204.77 57.50
  Q 204.78 65.34 204.54 73.20"
/>
<path stroke="#637779" vector-effect="non-scaling-stroke" d="
  M 228.25 76.50
  A 0.34 0.34 0.0 0 1 228.57 76.72
  L 230.42 81.78
  A 0.34 0.34 0.0 0 0 230.74 82.00
  L 235.73 82.00
  A 0.34 0.34 0.0 0 0 236.04 81.53
  L 226.33 57.40
  A 0.34 0.34 0.0 0 0 226.02 57.19
  L 221.44 57.10
  A 0.34 0.34 0.0 0 0 221.11 57.32
  L 211.59 81.54
  A 0.34 0.34 0.0 0 0 211.91 82.01
  L 216.69 81.99
  A 0.34 0.34 0.0 0 0 217.01 81.77
  L 218.83 76.72
  A 0.34 0.34 0.0 0 1 219.15 76.50
  L 228.25 76.50"
/>
<path stroke="#637779" vector-effect="non-scaling-stroke" d="
  M 244.05 77.75
  A 0.31 0.31 0.0 0 1 243.74 77.44
  L 243.76 57.31
  A 0.31 0.31 0.0 0 0 243.45 57.00
  L 239.06 57.00
  A 0.31 0.31 0.0 0 0 238.75 57.31
  L 238.75 81.69
  A 0.31 0.31 0.0 0 0 239.06 82.00
  L 254.69 82.00
  A 0.31 0.31 0.0 0 0 255.00 81.69
  L 255.00 78.06
  A 0.31 0.31 0.0 0 0 254.69 77.75
  L 244.05 77.75"
/>
<path stroke="#637779" vector-effect="non-scaling-stroke" d="
  M 282.79 68.22
  C 287.92 64.58 285.23 57.51 279.17 57.41
  Q 273.47 57.31 267.81 56.98
  Q 267.00 56.93 267.00 57.74
  L 267.00 81.48
  Q 267.00 81.93 267.45 81.94
  Q 273.26 82.14 279.07 81.94
  C 286.49 81.69 289.80 73.02 282.83 69.00
  Q 282.20 68.64 282.79 68.22"
/>
<path stroke="#637779" vector-effect="non-scaling-stroke" d="
  M 331.10 57.04
  A 0.34 0.34 0.0 0 0 330.81 57.21
  L 326.28 64.92
  A 0.34 0.34 0.0 0 1 325.70 64.92
  L 321.18 57.25
  A 0.34 0.34 0.0 0 0 320.89 57.09
  L 315.48 56.96
  A 0.34 0.34 0.0 0 0 315.19 57.49
  L 322.73 68.92
  A 0.34 0.34 0.0 0 1 322.72 69.30
  L 314.59 81.47
  A 0.34 0.34 0.0 0 0 314.88 82.00
  L 320.30 82.00
  A 0.34 0.34 0.0 0 0 320.59 81.84
  L 325.58 73.87
  A 0.34 0.34 0.0 0 1 326.15 73.86
  L 331.37 81.85
  A 0.34 0.34 0.0 0 0 331.65 82.00
  L 337.01 82.00
  A 0.34 0.34 0.0 0 0 337.29 81.47
  L 329.07 69.34
  A 0.34 0.34 0.0 0 1 329.07 68.96
  L 336.65 57.50
  A 0.34 0.34 0.0 0 0 336.36 56.98
  L 331.10 57.04"
/>
<path stroke="#808eab" vector-effect="non-scaling-stroke" d="
  M 35.12 19.13
  A 0.35 0.35 0.0 0 0 35.10 19.75
  L 59.29 33.61
  A 0.35 0.35 0.0 0 0 59.63 33.61
  L 84.27 19.76
  A 0.35 0.35 0.0 0 0 84.25 19.13
  L 59.82 7.84
  A 0.35 0.35 0.0 0 0 59.52 7.84
  L 35.12 19.13"
/>
<path stroke="#8a9cb1" vector-effect="non-scaling-stroke" d="
  M 66.02 14.11
  Q 64.49 16.29 62.49 18.05
  A 0.26 0.25 -76.4 0 0 62.75 18.48
  L 69.39 15.84
  A 0.50 0.50 0.0 0 1 69.97 16.62
  L 63.90 24.08
  Q 63.50 24.57 64.06 24.86
  L 67.15 26.43
  Q 67.57 26.64 67.98 26.42
  L 80.20 19.70
  A 0.23 0.23 0.0 0 0 80.19 19.29
  L 60.07 10.02
  A 1.16 1.15 44.1 0 0 59.10 10.03
  L 54.78 12.09
  A 0.38 0.37 42.1 0 0 54.82 12.78
  L 57.42 13.72
  A 0.49 0.49 0.0 0 1 57.60 14.53
  L 54.16 17.97
  Q 53.63 18.49 54.31 18.20
  L 65.52 13.49
  A 0.41 0.41 0.0 0 1 66.02 14.11"
/>
<path stroke="#8a9cb1" vector-effect="non-scaling-stroke" d="
  M 56.67 22.34
  L 60.40 17.95
  Q 60.86 17.41 60.21 17.68
  L 47.73 22.83
  A 0.42 0.42 0.0 0 1 47.28 22.13
  L 54.46 15.24
  A 0.58 0.58 0.0 0 0 54.39 14.35
  C 53.20 13.50 52.18 13.27 50.73 13.93
  Q 45.10 16.53 39.44 19.23
  Q 38.86 19.51 39.42 19.83
  L 59.17 30.94
  Q 59.62 31.19 60.07 30.93
  L 64.88 28.17
  Q 65.54 27.79 64.87 27.43
  L 61.42 25.56
  A 0.76 0.76 0.0 0 1 61.19 24.41
  L 64.59 20.19
  A 0.25 0.25 0.0 0 0 64.29 19.81
  L 57.14 22.97
  A 0.40 0.40 0.0 0 1 56.67 22.34"
/>
<path stroke="#637779" vector-effect="non-scaling-stroke" d="
  M 166.4804 36.1595
  A 8.56 6.92 90.6 0 0 173.4896 27.6725
  A 8.56 6.92 90.6 0 0 166.6596 19.0405
  A 8.56 6.92 90.6 0 0 159.6504 27.5275
  A 8.56 6.92 90.6 0 0 166.4804 36.1595"
/>
<path stroke="#637779" vector-effect="non-scaling-stroke" d="
  M 187.93 19.77
  L 187.91 25.36
  A 0.30 0.30 0.0 0 0 188.21 25.67
  L 192.94 25.68
  A 3.57 2.71 0.2 0 0 196.52 22.99
  L 196.52 22.21
  A 3.57 2.71 0.2 0 0 192.96 19.48
  L 188.23 19.47
  A 0.30 0.30 0.0 0 0 187.93 19.77"
/>
<path stroke="#637779" vector-effect="non-scaling-stroke" d="
  M 217.25 21.65
  A 0.31 0.31 0.0 0 0 216.66 21.66
  L 214.24 29.60
  A 0.31 0.31 0.0 0 0 214.54 30.00
  L 219.66 30.00
  A 0.31 0.31 0.0 0 0 219.95 29.59
  L 217.25 21.65"
/>
<path stroke="#436592" vector-effect="non-scaling-stroke" d="
  M 87.46 45.31
  Q 88.01 45.13 87.38 45.50"
/>
<path stroke="#838fa2" vector-effect="non-scaling-stroke" d="
  M 87.38 45.50
  L 86.49 44.73
  Q 86.10 44.39 85.62 44.58
  Q 84.51 45.01 83.63 46.33"
/>
<path stroke="#77849f" vector-effect="non-scaling-stroke" d="
  M 83.63 46.33
  C 81.36 45.58 82.37 48.86 81.55 49.93"
/>
<path stroke="#838fa2" vector-effect="non-scaling-stroke" d="
  M 81.55 49.93
  Q 80.18 49.99 79.68 51.30"
/>
<path stroke="#315387" vector-effect="non-scaling-stroke" d="
  M 79.68 51.30
  Q 79.02 51.71 79.68 51.36"
/>
<path stroke="#838fa2" vector-effect="non-scaling-stroke" d="
  M 79.68 51.36
  Q 77.92 51.91 77.40 53.28"
/>
<path stroke="#77849f" vector-effect="non-scaling-stroke" d="
  M 77.40 53.28
  Q 76.65 53.39 75.74 52.54
  Q 75.20 52.04 75.04 52.75
  Q 74.37 55.65 71.66 57.07
  A 0.25 0.25 0.0 0 1 71.29 56.88
  L 71.25 56.57
  A 0.59 0.58 78.9 0 1 71.68 55.92
  Q 72.59 55.68 72.59 54.66
  A 0.54 0.54 0.0 0 0 71.64 54.30
  L 69.97 56.24
  A 0.97 0.94 -30.0 0 0 69.75 57.01
  L 70.59 63.05
  Q 70.71 63.87 71.37 63.37
  L 74.79 60.76"
/>
<path stroke="#838fa2" vector-effect="non-scaling-stroke" d="
  M 74.79 60.76
  C 76.86 59.28 85.71 53.67 86.25 51.78"
/>
<path stroke="#315387" vector-effect="non-scaling-stroke" d="
  M 86.25 51.78
  Q 87.18 51.50 87.00 51.83"
/>
<path stroke="#838fa2" vector-effect="non-scaling-stroke" d="
  M 87.00 51.83
  L 92.15 48.27
  Q 92.62 47.94 92.37 47.43
  Q 91.19 45.04 92.56 42.80
  A 0.40 0.40 0.0 0 0 92.00 42.26
  L 87.46 45.31"
/>
<path stroke="#9ca9c6" vector-effect="non-scaling-stroke" d="
  M 87.00 51.83
  L 85.79 50.13
  Q 85.35 49.51 85.25 50.27
  Q 85.13 51.15 86.25 51.78"
/>
<path stroke="#e1d9de" vector-effect="non-scaling-stroke" d="
  M 74.79 60.76
  C 73.74 59.40 76.68 57.60 77.83 56.78
  Q 78.24 56.48 78.11 55.99
  L 77.40 53.28"
/>
<path stroke="#9ca9c6" vector-effect="non-scaling-stroke" d="
  M 79.68 51.36
  Q 78.87 53.35 79.50 54.16
  Q 79.80 54.54 80.01 54.11
  Q 80.77 52.51 79.68 51.30"
/>
<path stroke="#e1d9de" vector-effect="non-scaling-stroke" d="
  M 81.55 49.93
  C 83.41 50.71 82.19 52.20 83.25 53.20
  Q 83.67 53.60 83.80 53.03
  Q 84.60 49.55 83.63 46.33"
/>
<path stroke="#adbad1" vector-effect="non-scaling-stroke" d="
  M 87.38 45.50
  L 88.15 49.06
  Q 88.28 49.68 88.56 49.11
  Q 89.64 46.93 87.46 45.31"
/>
<path stroke="#838fa2" vector-effect="non-scaling-stroke" d="
  M 69.94 64.51
  Q 70.28 60.96 69.04 57.48
  A 0.72 0.72 0.0 0 0 67.64 57.77
  L 68.11 64.49
  A 0.92 0.92 0.0 0 0 69.94 64.51"
/>
<path stroke="#e1d9de" vector-effect="non-scaling-stroke" d="
  M 86.00 48.01
  Q 86.18 48.04 86.40 47.96
  Q 86.67 47.86 86.52 47.61
  L 86.01 46.74
  Q 85.62 46.08 85.26 46.76
  L 85.02 47.20
  Q 84.89 47.43 85.07 47.62
  Q 85.18 47.73 85.32 47.77
  A 0.73 0.00 19.7 0 0 86.00 48.01"
/>
<path stroke="#79819c" vector-effect="non-scaling-stroke" d="
  M 31.28 47.52
  Q 30.35 45.90 28.84 44.76
  Q 28.27 44.33 28.39 45.03
  Q 28.74 47.08 30.76 48.08
  Q 31.94 48.66 31.28 47.52"
/>
<path stroke="#9ca9c6" vector-effect="non-scaling-stroke" d="
  M 33.83 48.45
  Q 33.66 48.20 33.31 48.26
  A 0.42 0.42 0.0 0 0 33.09 48.98
  L 34.19 50.02
  A 0.52 0.52 0.0 0 0 34.95 49.31
  Q 34.58 48.86 34.09 48.67
  Q 33.92 48.60 33.83 48.45"
/>
<path stroke="#6d7698" vector-effect="non-scaling-stroke" d="
  M 43.8074 57.7963
  A 1.99 0.67 46.2 0 0 42.9136 55.8963
  A 1.99 0.67 46.2 0 0 41.0526 54.9237
  A 1.99 0.67 46.2 0 0 41.9464 56.8237
  A 1.99 0.67 46.2 0 0 43.8074 57.7963"
/>
<path stroke="#637779" vector-effect="non-scaling-stroke" d="
  M 301.8551 78.1700
  A 8.55 6.93 90.1 0 0 308.8000 69.6321
  A 8.55 6.93 90.1 0 0 301.8849 61.0700
  A 8.55 6.93 90.1 0 0 294.9400 69.6079
  A 8.55 6.93 90.1 0 0 301.8551 78.1700"
/>
<path stroke="#637779" vector-effect="non-scaling-stroke" d="
  M 150.75 61.71
  L 150.75 67.43
  A 0.23 0.23 0.0 0 0 150.99 67.66
  L 156.11 67.65
  A 3.17 2.54 -0.1 0 0 159.27 65.10
  L 159.27 64.00
  A 3.17 2.54 -0.1 0 0 156.09 61.47
  L 150.97 61.48
  A 0.23 0.23 0.0 0 0 150.75 61.71"
/>
<path stroke="#637779" vector-effect="non-scaling-stroke" d="
  M 223.32 63.63
  L 220.90 71.32
  A 0.52 0.52 0.0 0 0 221.39 72.00
  L 226.08 72.00
  Q 226.71 72.00 226.50 71.41
  L 223.82 63.62
  A 0.26 0.26 0.0 0 0 223.32 63.63"
/>
<path stroke="#637779" vector-effect="non-scaling-stroke" d="
  M 271.98 62.08
  L 272.02 66.48
  A 0.54 0.54 0.0 0 0 272.56 67.01
  L 277.43 66.97
  A 3.09 2.45 -0.5 0 0 280.50 64.49
  L 280.50 63.91
  A 3.09 2.45 -0.5 0 0 277.39 61.49
  L 272.52 61.53
  A 0.54 0.54 0.0 0 0 271.98 62.08"
/>
<path stroke="#637779" vector-effect="non-scaling-stroke" d="
  M 272.01 71.87
  L 271.97 77.11
  A 0.62 0.62 0.0 0 0 272.58 77.73
  L 277.34 77.78
  A 4.12 3.10 0.5 0 0 281.49 74.71
  L 281.49 74.43
  A 4.12 3.10 0.5 0 0 277.40 71.30
  L 272.64 71.25
  A 0.62 0.62 0.0 0 0 272.01 71.87"
/>
</g>
<path fill="#c6edf2" d="
  M 0.00 0.00
  L 350.00 0.00
  L 350.00 100.00
  L 0.00 100.00
  L 0.00 0.00
  Z
  M 25.66 15.68
  C 25.34 15.79 15.56 20.25 19.38 20.35
  Q 18.92 21.03 19.01 22.00
  Q 20.72 39.68 21.97 64.10
  A 0.10 0.10 0.0 0 1 21.80 64.17
  L 21.55 63.93
  Q 21.28 63.65 21.08 63.99
  C 19.90 66.05 22.18 67.56 23.86 68.92
  Q 24.25 69.24 24.23 69.75
  C 24.05 73.07 32.99 82.74 35.41 85.57
  C 38.52 92.87 46.40 100.74 55.07 99.41
  L 65.73 99.69
  Q 71.79 100.20 77.44 95.88
  Q 81.25 94.82 84.28 92.44
  C 85.84 91.23 88.04 90.24 89.28 88.79
  Q 93.11 84.31 97.18 80.05
  Q 97.24 79.99 97.25 79.89
  Q 97.26 79.75 97.25 79.57
  A 0.82 0.79 -23.7 0 1 97.51 78.94
  Q 100.53 76.03 102.24 72.16
  Q 102.46 71.66 102.88 71.30
  Q 103.63 70.67 103.52 69.61
  Q 103.47 69.12 103.69 68.68
  C 105.84 64.20 105.02 60.45 105.73 55.83
  C 106.38 51.62 103.32 42.12 100.36 38.92
  Q 99.79 38.30 99.55 35.98
  Q 100.79 28.80 100.18 20.84
  Q 100.44 21.79 99.97 20.78
  Q 100.85 20.35 101.17 19.60
  Q 101.40 19.07 100.87 18.82
  C 92.38 14.94 83.31 11.62 75.05 7.37
  C 73.72 6.69 72.33 6.83 71.03 5.53
  A 1.49 1.41 -16.3 0 0 70.25 5.13
  C 68.35 4.80 67.15 4.61 65.33 3.59
  Q 63.81 2.73 62.00 2.41
  Q 61.55 2.33 61.37 1.91
  Q 60.70 0.30 59.01 1.04
  Q 42.36 8.34 25.66 15.68
  Z
  M 166.8031 40.5284
  A 12.93 12.22 89.1 0 0 178.8185 27.4081
  A 12.93 12.22 89.1 0 0 166.3969 14.6716
  A 12.93 12.22 89.1 0 0 154.3815 27.7919
  A 12.93 12.22 89.1 0 0 166.8031 40.5284
  Z
  M 238.14 20.65
  C 240.96 17.94 245.92 18.74 247.13 22.84
  A 0.53 0.52 75.1 0 0 247.76 23.21
  L 251.89 22.22
  A 0.49 0.49 0.0 0 0 252.24 21.59
  Q 250.52 16.36 245.49 15.26
  C 225.94 10.98 225.46 42.40 243.79 40.24
  Q 250.17 39.49 252.67 32.77
  Q 252.89 32.17 252.27 32.02
  L 248.20 31.06
  Q 247.67 30.93 247.50 31.46
  C 245.39 37.88 238.10 37.35 236.22 31.15
  C 235.23 27.87 235.55 23.16 238.14 20.65
  Z
  M 197.17 28.48
  C 202.35 27.03 202.98 20.22 199.50 17.29
  C 196.15 14.46 188.11 15.08 183.45 15.01
  Q 182.75 15.00 182.75 15.70
  L 182.75 39.50
  Q 182.75 40.00 183.25 40.00
  L 187.50 40.00
  Q 188.00 40.00 188.00 39.50
  L 187.99 30.27
  Q 187.99 29.83 188.43 29.78
  C 193.78 29.15 195.51 34.87 197.32 39.50
  Q 197.52 40.00 198.06 40.00
  L 202.49 40.00
  Q 203.23 40.00 202.94 39.32
  Q 200.65 33.77 197.00 29.00
  Q 196.71 28.62 197.17 28.48
  Z
  M 219.72 15.35
  A 0.34 0.34 0.0 0 0 219.40 15.13
  L 214.78 15.23
  A 0.34 0.34 0.0 0 0 214.47 15.44
  L 205.00 39.54
  A 0.34 0.34 0.0 0 0 205.32 40.00
  L 210.09 40.00
  A 0.34 0.34 0.0 0 0 210.41 39.78
  L 212.23 34.72
  A 0.34 0.34 0.0 0 1 212.55 34.50
  L 221.69 34.50
  A 0.34 0.34 0.0 0 1 222.01 34.73
  L 223.79 39.77
  A 0.34 0.34 0.0 0 0 224.11 40.00
  L 229.14 40.00
  A 0.34 0.34 0.0 0 0 229.45 39.53
  L 219.72 15.35
  Z
  M 262.05 35.75
  A 0.31 0.31 0.0 0 1 261.74 35.44
  L 261.76 15.31
  A 0.31 0.31 0.0 0 0 261.45 15.00
  L 257.06 15.00
  A 0.31 0.31 0.0 0 0 256.75 15.31
  L 256.75 39.69
  A 0.31 0.31 0.0 0 0 257.06 40.00
  L 272.69 40.00
  A 0.31 0.31 0.0 0 0 273.00 39.69
  L 273.00 36.06
  A 0.31 0.31 0.0 0 0 272.69 35.75
  L 262.05 35.75
  Z
  M 281.29 29.55
  A 0.31 0.31 0.0 0 1 281.60 29.24
  L 291.52 29.28
  A 0.31 0.31 0.0 0 0 291.83 28.96
  L 291.76 25.30
  A 0.31 0.31 0.0 0 0 291.45 25.00
  L 281.55 25.00
  A 0.31 0.31 0.0 0 1 281.24 24.69
  L 281.26 19.76
  A 0.31 0.31 0.0 0 1 281.57 19.45
  L 292.55 19.52
  A 0.31 0.31 0.0 0 0 292.86 19.22
  L 292.96 15.32
  A 0.31 0.31 0.0 0 0 292.65 15.00
  L 276.56 15.00
  A 0.31 0.31 0.0 0 0 276.25 15.31
  L 276.25 39.69
  A 0.31 0.31 0.0 0 0 276.56 40.00
  L 293.08 40.00
  A 0.31 0.31 0.0 0 0 293.39 39.68
  L 293.34 36.05
  A 0.31 0.31 0.0 0 0 293.03 35.75
  L 281.54 35.75
  A 0.31 0.31 0.0 0 1 281.23 35.44
  L 281.29 29.55
  Z
  M 301.7470 82.5495
  A 12.95 12.21 90.5 0 0 314.0695 69.7066
  A 12.95 12.21 90.5 0 0 301.9730 56.6505
  A 12.95 12.21 90.5 0 0 289.6505 69.4934
  A 12.95 12.21 90.5 0 0 301.7470 82.5495
  Z
  M 121.44 74.93
  L 115.69 57.67
  Q 115.50 57.10 114.90 57.09
  L 110.56 56.98
  Q 109.86 56.96 110.10 57.61
  L 118.57 81.40
  Q 118.78 82.00 119.42 82.00
  L 123.66 82.00
  Q 124.09 82.00 124.23 81.59
  L 132.78 57.63
  Q 133.01 56.99 132.34 57.00
  L 127.99 57.01
  Q 127.45 57.01 127.28 57.53
  L 121.75 74.93
  A 0.16 0.16 0.0 0 1 121.44 74.93
  Z
  M 140.50 57.28
  A 0.27 0.27 0.0 0 0 140.23 57.01
  L 135.75 57.01
  A 0.27 0.27 0.0 0 0 135.48 57.28
  L 135.48 81.72
  A 0.27 0.27 0.0 0 0 135.75 81.99
  L 140.23 81.99
  A 0.27 0.27 0.0 0 0 140.50 81.72
  L 140.50 57.28
  Z
  M 159.76 70.83
  L 162.69 69.19
  Q 163.20 68.90 163.45 68.36
  C 169.28 55.63 152.67 57.09 146.33 57.01
  A 0.65 0.64 0.0 0 0 145.68 57.65
  L 145.76 81.38
  A 0.62 0.62 0.0 0 0 146.38 82.00
  L 150.25 82.00
  Q 150.75 82.00 150.75 81.50
  L 150.75 72.31
  Q 150.75 71.97 151.08 71.90
  C 156.39 70.78 158.23 76.56 160.14 81.42
  Q 160.37 82.00 160.99 82.00
  L 165.49 82.00
  Q 166.22 82.00 165.90 81.34
  C 164.87 79.23 161.72 72.16 159.80 71.43
  Q 159.14 71.17 159.76 70.83
  Z
  M 179.50 61.82
  A 0.32 0.32 0.0 0 1 179.82 61.50
  L 186.43 61.50
  A 0.32 0.32 0.0 0 0 186.75 61.18
  L 186.75 57.32
  A 0.32 0.32 0.0 0 0 186.43 57.00
  L 167.46 57.00
  A 0.32 0.32 0.0 0 0 167.14 57.32
  L 167.18 61.20
  A 0.32 0.32 0.0 0 0 167.50 61.52
  L 173.95 61.46
  A 0.32 0.32 0.0 0 1 174.27 61.78
  L 174.24 81.68
  A 0.32 0.32 0.0 0 0 174.56 82.00
  L 179.18 82.00
  A 0.32 0.32 0.0 0 0 179.50 81.68
  L 179.50 61.82
  Z
  M 204.54 73.20
  C 204.31 80.55 195.10 78.80 195.06 74.18
  Q 194.97 65.86 195.01 57.52
  Q 195.01 57.00 194.49 57.00
  L 190.51 57.00
  Q 189.99 57.00 189.99 57.52
  Q 189.91 65.85 190.33 74.18
  Q 190.70 81.38 197.75 82.02
  C 202.89 82.49 208.31 82.10 209.28 76.25
  Q 210.26 70.28 209.58 57.37
  Q 209.56 57.00 209.19 57.00
  L 205.27 57.00
  Q 204.77 57.00 204.77 57.50
  Q 204.78 65.34 204.54 73.20
  Z
  M 228.25 76.50
  A 0.34 0.34 0.0 0 1 228.57 76.72
  L 230.42 81.78
  A 0.34 0.34 0.0 0 0 230.74 82.00
  L 235.73 82.00
  A 0.34 0.34 0.0 0 0 236.04 81.53
  L 226.33 57.40
  A 0.34 0.34 0.0 0 0 226.02 57.19
  L 221.44 57.10
  A 0.34 0.34 0.0 0 0 221.11 57.32
  L 211.59 81.54
  A 0.34 0.34 0.0 0 0 211.91 82.01
  L 216.69 81.99
  A 0.34 0.34 0.0 0 0 217.01 81.77
  L 218.83 76.72
  A 0.34 0.34 0.0 0 1 219.15 76.50
  L 228.25 76.50
  Z
  M 244.05 77.75
  A 0.31 0.31 0.0 0 1 243.74 77.44
  L 243.76 57.31
  A 0.31 0.31 0.0 0 0 243.45 57.00
  L 239.06 57.00
  A 0.31 0.31 0.0 0 0 238.75 57.31
  L 238.75 81.69
  A 0.31 0.31 0.0 0 0 239.06 82.00
  L 254.69 82.00
  A 0.31 0.31 0.0 0 0 255.00 81.69
  L 255.00 78.06
  A 0.31 0.31 0.0 0 0 254.69 77.75
  L 244.05 77.75
  Z
  M 282.79 68.22
  C 287.92 64.58 285.23 57.51 279.17 57.41
  Q 273.47 57.31 267.81 56.98
  Q 267.00 56.93 267.00 57.74
  L 267.00 81.48
  Q 267.00 81.93 267.45 81.94
  Q 273.26 82.14 279.07 81.94
  C 286.49 81.69 289.80 73.02 282.83 69.00
  Q 282.20 68.64 282.79 68.22
  Z
  M 331.10 57.04
  A 0.34 0.34 0.0 0 0 330.81 57.21
  L 326.28 64.92
  A 0.34 0.34 0.0 0 1 325.70 64.92
  L 321.18 57.25
  A 0.34 0.34 0.0 0 0 320.89 57.09
  L 315.48 56.96
  A 0.34 0.34 0.0 0 0 315.19 57.49
  L 322.73 68.92
  A 0.34 0.34 0.0 0 1 322.72 69.30
  L 314.59 81.47
  A 0.34 0.34 0.0 0 0 314.88 82.00
  L 320.30 82.00
  A 0.34 0.34 0.0 0 0 320.59 81.84
  L 325.58 73.87
  A 0.34 0.34 0.0 0 1 326.15 73.86
  L 331.37 81.85
  A 0.34 0.34 0.0 0 0 331.65 82.00
  L 337.01 82.00
  A 0.34 0.34 0.0 0 0 337.29 81.47
  L 329.07 69.34
  A 0.34 0.34 0.0 0 1 329.07 68.96
  L 336.65 57.50
  A 0.34 0.34 0.0 0 0 336.36 56.98
  L 331.10 57.04
  Z"
/>
<path fill="#d1e6fb" d="
  M 99.97 20.78
  L 98.58 21.34
  L 98.50 20.62
  A 0.42 0.42 0.0 0 0 97.87 20.30
  Q 87.46 26.13 77.25 32.31
  C 74.86 33.75 72.56 33.47 70.10 32.67
  Q 69.84 32.58 70.04 32.40
  L 70.39 32.11
  Q 70.73 31.81 70.34 31.57
  Q 70.08 31.40 69.46 31.41
  L 89.67 19.69
  Q 90.18 19.40 89.64 19.15
  L 60.32 5.69
  Q 59.35 5.24 58.38 5.69
  L 29.66 18.76
  Q 27.17 17.65 25.66 15.68
  Q 42.36 8.34 59.01 1.04
  Q 60.70 0.30 61.37 1.91
  Q 61.55 2.33 62.00 2.41
  Q 63.81 2.73 65.33 3.59
  C 67.15 4.61 68.35 4.80 70.25 5.13
  A 1.49 1.41 -16.3 0 1 71.03 5.53
  C 72.33 6.83 73.72 6.69 75.05 7.37
  C 83.31 11.62 92.38 14.94 100.87 18.82
  Q 101.40 19.07 101.17 19.60
  Q 100.85 20.35 99.97 20.78
  Z"
/>
<path fill="#041d56" d="
  M 69.46 31.41
  L 60.03 36.76
  Q 59.59 37.00 59.15 36.75
  Q 44.29 28.12 29.47 19.50
  Q 28.95 19.20 29.66 18.76
  L 58.38 5.69
  Q 59.35 5.24 60.32 5.69
  L 89.64 19.15
  Q 90.18 19.40 89.67 19.69
  L 69.46 31.41
  Z
  M 35.12 19.13
  A 0.35 0.35 0.0 0 0 35.10 19.75
  L 59.29 33.61
  A 0.35 0.35 0.0 0 0 59.63 33.61
  L 84.27 19.76
  A 0.35 0.35 0.0 0 0 84.25 19.13
  L 59.82 7.84
  A 0.35 0.35 0.0 0 0 59.52 7.84
  L 35.12 19.13
  Z"
/>
<path fill="#fcfeff" d="
  M 35.12 19.13
  L 59.52 7.84
  A 0.35 0.35 0.0 0 1 59.82 7.84
  L 84.25 19.13
  A 0.35 0.35 0.0 0 1 84.27 19.76
  L 59.63 33.61
  A 0.35 0.35 0.0 0 1 59.29 33.61
  L 35.10 19.75
  A 0.35 0.35 0.0 0 1 35.12 19.13
  Z
  M 66.02 14.11
  Q 64.49 16.29 62.49 18.05
  A 0.26 0.25 -76.4 0 0 62.75 18.48
  L 69.39 15.84
  A 0.50 0.50 0.0 0 1 69.97 16.62
  L 63.90 24.08
  Q 63.50 24.57 64.06 24.86
  L 67.15 26.43
  Q 67.57 26.64 67.98 26.42
  L 80.20 19.70
  A 0.23 0.23 0.0 0 0 80.19 19.29
  L 60.07 10.02
  A 1.16 1.15 44.1 0 0 59.10 10.03
  L 54.78 12.09
  A 0.38 0.37 42.1 0 0 54.82 12.78
  L 57.42 13.72
  A 0.49 0.49 0.0 0 1 57.60 14.53
  L 54.16 17.97
  Q 53.63 18.49 54.31 18.20
  L 65.52 13.49
  A 0.41 0.41 0.0 0 1 66.02 14.11
  Z
  M 56.67 22.34
  L 60.40 17.95
  Q 60.86 17.41 60.21 17.68
  L 47.73 22.83
  A 0.42 0.42 0.0 0 1 47.28 22.13
  L 54.46 15.24
  A 0.58 0.58 0.0 0 0 54.39 14.35
  C 53.20 13.50 52.18 13.27 50.73 13.93
  Q 45.10 16.53 39.44 19.23
  Q 38.86 19.51 39.42 19.83
  L 59.17 30.94
  Q 59.62 31.19 60.07 30.93
  L 64.88 28.17
  Q 65.54 27.79 64.87 27.43
  L 61.42 25.56
  A 0.76 0.76 0.0 0 1 61.19 24.41
  L 64.59 20.19
  A 0.25 0.25 0.0 0 0 64.29 19.81
  L 57.14 22.97
  A 0.40 0.40 0.0 0 1 56.67 22.34
  Z"
/>
<path fill="#183963" d="
  M 65.52 13.49
  L 54.31 18.20
  Q 53.63 18.49 54.16 17.97
  L 57.60 14.53
  A 0.49 0.49 0.0 0 0 57.42 13.72
  L 54.82 12.78
  A 0.38 0.37 42.1 0 1 54.78 12.09
  L 59.10 10.03
  A 1.16 1.15 44.1 0 1 60.07 10.02
  L 80.19 19.29
  A 0.23 0.23 0.0 0 1 80.20 19.70
  L 67.98 26.42
  Q 67.57 26.64 67.15 26.43
  L 64.06 24.86
  Q 63.50 24.57 63.90 24.08
  L 69.97 16.62
  A 0.50 0.50 0.0 0 0 69.39 15.84
  L 62.75 18.48
  A 0.26 0.25 -76.4 0 1 62.49 18.05
  Q 64.49 16.29 66.02 14.11
  A 0.41 0.41 0.0 0 0 65.52 13.49
  Z"
/>
<path fill="#183963" d="
  M 57.14 22.97
  L 64.29 19.81
  A 0.25 0.25 0.0 0 1 64.59 20.19
  L 61.19 24.41
  A 0.76 0.76 0.0 0 0 61.42 25.56
  L 64.87 27.43
  Q 65.54 27.79 64.88 28.17
  L 60.07 30.93
  Q 59.62 31.19 59.17 30.94
  L 39.42 19.83
  Q 38.86 19.51 39.44 19.23
  Q 45.10 16.53 50.73 13.93
  C 52.18 13.27 53.20 13.50 54.39 14.35
  A 0.58 0.58 0.0 0 1 54.46 15.24
  L 47.28 22.13
  A 0.42 0.42 0.0 0 0 47.73 22.83
  L 60.21 17.68
  Q 60.86 17.41 60.40 17.95
  L 56.67 22.34
  A 0.40 0.40 0.0 0 0 57.14 22.97
  Z"
/>
<path fill="#000000" d="
  M 166.8031 40.5284
  A 12.93 12.22 89.1 0 1 154.3815 27.7919
  A 12.93 12.22 89.1 0 1 166.3969 14.6716
  A 12.93 12.22 89.1 0 1 178.8185 27.4081
  A 12.93 12.22 89.1 0 1 166.8031 40.5284
  Z
  M 166.4804 36.1595
  A 8.56 6.92 90.6 0 0 173.4896 27.6725
  A 8.56 6.92 90.6 0 0 166.6596 19.0405
  A 8.56 6.92 90.6 0 0 159.6504 27.5275
  A 8.56 6.92 90.6 0 0 166.4804 36.1595
  Z"
/>
<path fill="#000000" d="
  M 247.13 22.84
  C 245.92 18.74 240.96 17.94 238.14 20.65
  C 235.55 23.16 235.23 27.87 236.22 31.15
  C 238.10 37.35 245.39 37.88 247.50 31.46
  Q 247.67 30.93 248.20 31.06
  L 252.27 32.02
  Q 252.89 32.17 252.67 32.77
  Q 250.17 39.49 243.79 40.24
  C 225.46 42.40 225.94 10.98 245.49 15.26
  Q 250.52 16.36 252.24 21.59
  A 0.49 0.49 0.0 0 1 251.89 22.22
  L 247.76 23.21
  A 0.53 0.52 75.1 0 1 247.13 22.84
  Z"
/>
<path fill="#000000" d="
  M 197.00 29.00
  Q 200.65 33.77 202.94 39.32
  Q 203.23 40.00 202.49 40.00
  L 198.06 40.00
  Q 197.52 40.00 197.32 39.50
  C 195.51 34.87 193.78 29.15 188.43 29.78
  Q 187.99 29.83 187.99 30.27
  L 188.00 39.50
  Q 188.00 40.00 187.50 40.00
  L 183.25 40.00
  Q 182.75 40.00 182.75 39.50
  L 182.75 15.70
  Q 182.75 15.00 183.45 15.01
  C 188.11 15.08 196.15 14.46 199.50 17.29
  C 202.98 20.22 202.35 27.03 197.17 28.48
  Q 196.71 28.62 197.00 29.00
  Z
  M 187.93 19.77
  L 187.91 25.36
  A 0.30 0.30 0.0 0 0 188.21 25.67
  L 192.94 25.68
  A 3.57 2.71 0.2 0 0 196.52 22.99
  L 196.52 22.21
  A 3.57 2.71 0.2 0 0 192.96 19.48
  L 188.23 19.47
  A 0.30 0.30 0.0 0 0 187.93 19.77
  Z"
/>
<path fill="#000000" d="
  M 219.72 15.35
  L 229.45 39.53
  A 0.34 0.34 0.0 0 1 229.14 40.00
  L 224.11 40.00
  A 0.34 0.34 0.0 0 1 223.79 39.77
  L 222.01 34.73
  A 0.34 0.34 0.0 0 0 221.69 34.50
  L 212.55 34.50
  A 0.34 0.34 0.0 0 0 212.23 34.72
  L 210.41 39.78
  A 0.34 0.34 0.0 0 1 210.09 40.00
  L 205.32 40.00
  A 0.34 0.34 0.0 0 1 205.00 39.54
  L 214.47 15.44
  A 0.34 0.34 0.0 0 1 214.78 15.23
  L 219.40 15.13
  A 0.34 0.34 0.0 0 1 219.72 15.35
  Z
  M 217.25 21.65
  A 0.31 0.31 0.0 0 0 216.66 21.66
  L 214.24 29.60
  A 0.31 0.31 0.0 0 0 214.54 30.00
  L 219.66 30.00
  A 0.31 0.31 0.0 0 0 219.95 29.59
  L 217.25 21.65
  Z"
/>
<path fill="#000000" d="
  M 262.05 35.75
  L 272.69 35.75
  A 0.31 0.31 0.0 0 1 273.00 36.06
  L 273.00 39.69
  A 0.31 0.31 0.0 0 1 272.69 40.00
  L 257.06 40.00
  A 0.31 0.31 0.0 0 1 256.75 39.69
  L 256.75 15.31
  A 0.31 0.31 0.0 0 1 257.06 15.00
  L 261.45 15.00
  A 0.31 0.31 0.0 0 1 261.76 15.31
  L 261.74 35.44
  A 0.31 0.31 0.0 0 0 262.05 35.75
  Z"
/>
<path fill="#000000" d="
  M 281.29 29.55
  L 281.23 35.44
  A 0.31 0.31 0.0 0 0 281.54 35.75
  L 293.03 35.75
  A 0.31 0.31 0.0 0 1 293.34 36.05
  L 293.39 39.68
  A 0.31 0.31 0.0 0 1 293.08 40.00
  L 276.56 40.00
  A 0.31 0.31 0.0 0 1 276.25 39.69
  L 276.25 15.31
  A 0.31 0.31 0.0 0 1 276.56 15.00
  L 292.65 15.00
  A 0.31 0.31 0.0 0 1 292.96 15.32
  L 292.86 19.22
  A 0.31 0.31 0.0 0 1 292.55 19.52
  L 281.57 19.45
  A 0.31 0.31 0.0 0 0 281.26 19.76
  L 281.24 24.69
  A 0.31 0.31 0.0 0 0 281.55 25.00
  L 291.45 25.00
  A 0.31 0.31 0.0 0 1 291.76 25.30
  L 291.83 28.96
  A 0.31 0.31 0.0 0 1 291.52 29.28
  L 281.60 29.24
  A 0.31 0.31 0.0 0 0 281.29 29.55
  Z"
/>
<path fill="#fcfeff" d="
  M 25.66 15.68
  Q 27.17 17.65 29.66 18.76
  Q 28.95 19.20 29.47 19.50
  Q 44.29 28.12 59.15 36.75
  Q 59.59 37.00 60.03 36.76
  L 69.46 31.41
  Q 70.08 31.40 70.34 31.57
  Q 70.73 31.81 70.39 32.11
  L 70.04 32.40
  Q 69.84 32.58 70.10 32.67
  C 72.56 33.47 74.86 33.75 77.25 32.31
  Q 87.46 26.13 97.87 20.30
  A 0.42 0.42 0.0 0 1 98.50 20.62
  L 98.58 21.34
  L 61.21 44.09
  Q 60.79 44.35 60.78 44.85
  L 60.50 77.52
  L 60.84 91.95
  Q 58.88 92.71 57.42 90.72
  Q 57.68 89.96 58.55 89.28
  A 1.14 1.13 70.9 0 0 58.98 88.39
  L 58.72 44.86
  Q 58.72 44.40 58.32 44.16
  L 45.78 36.45
  L 19.38 20.35
  C 15.56 20.25 25.34 15.79 25.66 15.68
  Z"
/>
<ellipse fill="#c6edf2" cx="0.00" cy="0.00" transform="translate(166.57,27.60) rotate(90.6)" rx="8.56" ry="6.92"/>
<path fill="#c6edf2" d="
  M 187.93 19.77
  A 0.30 0.30 0.0 0 1 188.23 19.47
  L 192.96 19.48
  A 3.57 2.71 0.2 0 1 196.52 22.21
  L 196.52 22.99
  A 3.57 2.71 0.2 0 1 192.94 25.68
  L 188.21 25.67
  A 0.30 0.30 0.0 0 1 187.91 25.36
  L 187.93 19.77
  Z"
/>
<path fill="#d5ceda" d="
  M 19.38 20.35
  L 45.78 36.45
  C 45.66 38.05 46.67 41.76 44.89 42.01
  L 24.39 29.14
  Q 23.78 28.75 23.75 29.48
  C 23.69 31.66 24.23 34.53 24.34 36.09
  Q 25.08 46.52 25.85 56.95
  C 25.95 58.40 26.62 58.97 27.78 59.65
  C 27.21 60.21 27.44 60.96 28.05 61.41
  Q 33.88 65.73 39.29 69.66
  A 1.11 1.11 0.0 0 1 38.55 71.66
  Q 35.27 71.39 32.25 69.85
  Q 31.79 69.61 32.02 70.07
  Q 32.48 70.96 31.93 71.54
  L 23.31 64.94
  Q 22.49 64.31 22.84 65.29
  Q 23.15 66.13 24.09 66.90
  Q 27.07 73.57 32.24 78.49
  C 33.58 79.76 34.06 81.17 34.64 82.82
  Q 34.77 83.18 35.09 83.40
  Q 35.84 83.93 35.41 85.57
  C 32.99 82.74 24.05 73.07 24.23 69.75
  Q 24.25 69.24 23.86 68.92
  C 22.18 67.56 19.90 66.05 21.08 63.99
  Q 21.28 63.65 21.55 63.93
  L 21.80 64.17
  A 0.10 0.10 0.0 0 0 21.97 64.10
  Q 20.72 39.68 19.01 22.00
  Q 18.92 21.03 19.38 20.35
  Z"
/>
<path fill="#4a6dab" d="
  M 99.97 20.78
  Q 100.44 21.79 100.18 20.84
  Q 100.94 31.71 95.44 37.10
  L 95.72 29.82
  A 0.44 0.44 0.0 0 0 95.05 29.43
  Q 81.09 38.07 66.92 46.88
  Q 65.70 47.64 65.73 49.25
  Q 65.84 56.34 65.72 71.09
  Q 66.62 69.18 63.23 71.73
  C 60.67 73.66 62.80 76.20 60.50 77.52
  L 60.78 44.85
  Q 60.79 44.35 61.21 44.09
  L 98.58 21.34
  L 99.97 20.78
  Z"
/>
<path fill="#6d90c1" d="
  M 100.18 20.84
  Q 100.79 28.80 99.55 35.98
  Q 98.19 43.90 98.52 51.96
  Q 98.55 52.55 98.74 51.99
  Q 99.13 50.91 98.98 49.76
  A 0.86 0.86 0.0 0 1 100.62 49.30
  Q 104.11 57.28 101.17 65.78
  C 100.73 67.05 99.72 68.27 99.70 70.08
  Q 99.70 70.55 99.27 70.76
  Q 97.78 71.49 97.71 73.10
  Q 97.69 73.55 97.42 73.90
  L 86.44 88.20
  Q 86.07 88.68 85.50 88.89
  Q 84.34 89.32 83.60 90.22
  C 81.59 92.67 79.80 94.07 77.44 95.88
  Q 71.79 100.20 65.73 99.69
  Q 71.99 97.51 76.89 93.93
  C 79.24 94.47 79.66 93.25 81.13 92.16
  C 83.08 90.71 86.82 85.85 87.75 84.00
  Q 88.18 83.14 88.82 82.76
  Q 89.23 82.51 89.48 82.09
  C 91.80 78.07 96.74 73.84 98.03 68.79
  Q 98.19 68.17 97.81 68.69
  L 94.23 73.60
  Q 93.90 74.04 93.76 73.51
  Q 93.58 72.89 94.25 72.73
  Q 95.72 71.01 96.79 69.07
  Q 97.07 68.57 96.64 68.95
  Q 95.22 70.18 94.29 71.87
  A 0.20 0.20 0.0 0 1 93.92 71.71
  Q 94.03 71.39 94.24 71.12
  Q 94.99 70.15 93.99 70.85
  Q 93.33 71.30 92.79 72.21
  Q 93.82 69.82 93.72 67.93
  L 97.51 64.90
  A 0.40 0.39 52.1 0 0 97.57 64.34
  C 97.22 63.89 64.31 89.32 60.84 91.95
  L 60.50 77.52
  C 62.80 76.20 60.67 73.66 63.23 71.73
  Q 66.62 69.18 65.72 71.09
  L 65.99 78.78
  Q 66.37 78.64 66.70 78.43
  Q 80.54 69.72 93.38 58.81
  Q 92.66 58.69 93.35 58.46
  Q 93.48 58.42 93.49 58.28
  L 95.44 37.10
  Q 100.94 31.71 100.18 20.84
  Z"
/>
<path fill="#c6edf2" d="
  M 217.25 21.65
  L 219.95 29.59
  A 0.31 0.31 0.0 0 1 219.66 30.00
  L 214.54 30.00
  A 0.31 0.31 0.0 0 1 214.24 29.60
  L 216.66 21.66
  A 0.31 0.31 0.0 0 1 217.25 21.65
  Z"
/>
<path fill="#041d56" d="
  M 44.89 42.01
  L 53.98 47.75
  Q 53.35 50.12 50.69 46.89
  A 1.05 1.01 -15.4 0 0 50.01 46.52
  Q 49.69 46.48 49.58 46.41
  Q 37.80 38.91 25.85 31.50
  A 0.42 0.42 0.0 0 0 25.21 31.86
  Q 25.32 37.62 26.87 42.95
  Q 27.16 48.60 32.00 50.25
  Q 32.18 50.31 32.24 50.49
  Q 32.28 50.62 32.34 50.76
  L 32.22 51.25
  Q 32.10 51.74 31.69 51.45
  L 27.88 48.80
  A 0.77 0.77 0.0 0 0 26.69 49.27
  Q 26.12 51.80 27.03 54.22
  A 1.70 1.68 -48.3 0 1 27.08 55.22
  Q 26.48 57.45 28.21 58.76
  Q 39.55 67.34 51.03 75.67
  Q 51.42 75.95 51.52 76.43
  L 51.74 77.47
  L 27.78 59.65
  C 26.62 58.97 25.95 58.40 25.85 56.95
  Q 25.08 46.52 24.34 36.09
  C 24.23 34.53 23.69 31.66 23.75 29.48
  Q 23.78 28.75 24.39 29.14
  L 44.89 42.01
  Z"
/>
<path fill="#183963" d="
  M 95.44 37.10
  L 93.49 58.28
  Q 93.48 58.42 93.35 58.46
  Q 92.66 58.69 93.38 58.81
  Q 79.89 67.62 65.99 78.78
  L 65.72 71.09
  Q 65.84 56.34 65.73 49.25
  Q 65.70 47.64 66.92 46.88
  Q 81.09 38.07 95.05 29.43
  A 0.44 0.44 0.0 0 1 95.72 29.82
  L 95.44 37.10
  Z
  M 87.46 45.31
  Q 88.01 45.13 87.38 45.50
  L 86.49 44.73
  Q 86.10 44.39 85.62 44.58
  Q 84.51 45.01 83.63 46.33
  C 81.36 45.58 82.37 48.86 81.55 49.93
  Q 80.18 49.99 79.68 51.30
  Q 79.02 51.71 79.68 51.36
  Q 77.92 51.91 77.40 53.28
  Q 76.65 53.39 75.74 52.54
  Q 75.20 52.04 75.04 52.75
  Q 74.37 55.65 71.66 57.07
  A 0.25 0.25 0.0 0 1 71.29 56.88
  L 71.25 56.57
  A 0.59 0.58 78.9 0 1 71.68 55.92
  Q 72.59 55.68 72.59 54.66
  A 0.54 0.54 0.0 0 0 71.64 54.30
  L 69.97 56.24
  A 0.97 0.94 -30.0 0 0 69.75 57.01
  L 70.59 63.05
  Q 70.71 63.87 71.37 63.37
  L 74.79 60.76
  C 76.86 59.28 85.71 53.67 86.25 51.78
  Q 87.18 51.50 87.00 51.83
  L 92.15 48.27
  Q 92.62 47.94 92.37 47.43
  Q 91.19 45.04 92.56 42.80
  A 0.40 0.40 0.0 0 0 92.00 42.26
  L 87.46 45.31
  Z
  M 69.94 64.51
  Q 70.28 60.96 69.04 57.48
  A 0.72 0.72 0.0 0 0 67.64 57.77
  L 68.11 64.49
  A 0.92 0.92 0.0 0 0 69.94 64.51
  Z"
/>
<path fill="#183963" d="
  M 53.98 47.75
  L 54.23 78.73
  Q 54.24 79.37 53.73 78.98
  L 51.74 77.47
  L 51.52 76.43
  Q 51.42 75.95 51.03 75.67
  Q 39.55 67.34 28.21 58.76
  Q 26.48 57.45 27.08 55.22
  A 1.70 1.68 -48.3 0 0 27.03 54.22
  Q 26.12 51.80 26.69 49.27
  A 0.77 0.77 0.0 0 1 27.88 48.80
  L 31.69 51.45
  Q 32.10 51.74 32.22 51.25
  L 32.34 50.76
  Q 32.41 51.62 33.37 51.37
  Q 33.92 51.23 34.27 51.67
  L 35.20 52.80
  Q 35.86 54.48 37.35 54.55
  Q 37.86 54.58 38.22 54.94
  Q 44.09 60.71 50.90 65.38
  Q 51.56 65.83 51.47 65.04
  Q 51.38 64.20 50.57 63.72
  Q 50.10 63.44 50.50 63.07
  L 51.46 62.19
  Q 51.96 61.73 51.46 61.27
  L 48.50 58.53
  A 0.87 0.87 0.0 0 0 47.15 59.59
  Q 47.45 60.13 46.90 60.46
  Q 46.45 60.73 46.12 60.31
  Q 44.77 58.61 44.92 56.36
  A 1.15 1.14 -70.2 0 0 44.45 55.36
  L 41.09 52.91
  A 0.88 0.88 0.0 0 0 39.99 52.95
  L 39.28 53.56
  A 0.43 0.43 0.0 0 1 38.58 53.14
  C 38.77 52.31 39.05 50.49 37.68 50.53
  Q 37.23 50.54 37.14 50.98
  Q 36.98 51.86 36.55 52.64
  Q 36.30 53.11 36.03 52.65
  Q 35.91 52.44 35.90 52.09
  Q 36.55 48.16 32.21 46.20
  A 1.86 1.80 -3.7 0 1 31.43 45.54
  Q 29.76 42.98 26.87 42.95
  Q 25.32 37.62 25.21 31.86
  A 0.42 0.42 0.0 0 1 25.85 31.50
  Q 37.80 38.91 49.58 46.41
  Q 49.69 46.48 50.01 46.52
  A 1.05 1.01 -15.4 0 1 50.69 46.89
  Q 53.35 50.12 53.98 47.75
  Z"
/>
<path fill="#95b7c7" d="
  M 99.55 35.98
  Q 99.79 38.30 100.36 38.92
  C 103.32 42.12 106.38 51.62 105.73 55.83
  C 105.02 60.45 105.84 64.20 103.69 68.68
  Q 103.47 69.12 103.52 69.61
  Q 103.63 70.67 102.88 71.30
  Q 102.46 71.66 102.24 72.16
  Q 100.53 76.03 97.51 78.94
  A 0.82 0.79 -23.7 0 0 97.25 79.57
  Q 97.26 79.75 97.25 79.89
  Q 97.24 79.99 97.18 80.05
  Q 93.11 84.31 89.28 88.79
  C 88.04 90.24 85.84 91.23 84.28 92.44
  Q 81.25 94.82 77.44 95.88
  C 79.80 94.07 81.59 92.67 83.60 90.22
  Q 84.34 89.32 85.50 88.89
  Q 86.07 88.68 86.44 88.20
  L 97.42 73.90
  Q 97.69 73.55 97.71 73.10
  Q 97.78 71.49 99.27 70.76
  Q 99.70 70.55 99.70 70.08
  C 99.72 68.27 100.73 67.05 101.17 65.78
  Q 104.11 57.28 100.62 49.30
  A 0.86 0.86 0.0 0 0 98.98 49.76
  Q 99.13 50.91 98.74 51.99
  Q 98.55 52.55 98.52 51.96
  Q 98.19 43.90 99.55 35.98
  Z"
/>
<path fill="#ede4e1" d="
  M 45.78 36.45
  L 58.32 44.16
  Q 58.72 44.40 58.72 44.86
  L 58.98 88.39
  A 1.14 1.13 70.9 0 1 58.55 89.28
  Q 57.68 89.96 57.42 90.72
  Q 57.15 90.83 56.76 90.45
  L 31.93 71.54
  Q 32.48 70.96 32.02 70.07
  Q 31.79 69.61 32.25 69.85
  Q 35.27 71.39 38.55 71.66
  A 1.11 1.11 0.0 0 0 39.29 69.66
  Q 33.88 65.73 28.05 61.41
  C 27.44 60.96 27.21 60.21 27.78 59.65
  L 51.74 77.47
  L 53.73 78.98
  Q 54.24 79.37 54.23 78.73
  L 53.98 47.75
  L 44.89 42.01
  C 46.67 41.76 45.66 38.05 45.78 36.45
  Z"
/>
<path fill="#ede4e1" d="
  M 87.00 51.83
  L 85.79 50.13
  Q 85.35 49.51 85.25 50.27
  Q 85.13 51.15 86.25 51.78
  C 85.71 53.67 76.86 59.28 74.79 60.76
  C 73.74 59.40 76.68 57.60 77.83 56.78
  Q 78.24 56.48 78.11 55.99
  L 77.40 53.28
  Q 77.92 51.91 79.68 51.36
  Q 78.87 53.35 79.50 54.16
  Q 79.80 54.54 80.01 54.11
  Q 80.77 52.51 79.68 51.30
  Q 80.18 49.99 81.55 49.93
  C 83.41 50.71 82.19 52.20 83.25 53.20
  Q 83.67 53.60 83.80 53.03
  Q 84.60 49.55 83.63 46.33
  Q 84.51 45.01 85.62 44.58
  Q 86.10 44.39 86.49 44.73
  L 87.38 45.50
  L 88.15 49.06
  Q 88.28 49.68 88.56 49.11
  Q 89.64 46.93 87.46 45.31
  L 92.00 42.26
  A 0.40 0.40 0.0 0 1 92.56 42.80
  Q 91.19 45.04 92.37 47.43
  Q 92.62 47.94 92.15 48.27
  L 87.00 51.83
  Z
  M 86.00 48.01
  Q 86.18 48.04 86.40 47.96
  Q 86.67 47.86 86.52 47.61
  L 86.01 46.74
  Q 85.62 46.08 85.26 46.76
  L 85.02 47.20
  Q 84.89 47.43 85.07 47.62
  Q 85.18 47.73 85.32 47.77
  A 0.73 0.00 19.7 0 0 86.00 48.01
  Z"
/>
<path fill="#ede4e1" d="
  M 26.87 42.95
  Q 29.76 42.98 31.43 45.54
  A 1.86 1.80 -3.7 0 0 32.21 46.20
  Q 36.55 48.16 35.90 52.09
  Q 35.70 52.92 35.20 52.80
  L 34.27 51.67
  Q 33.92 51.23 33.37 51.37
  Q 32.41 51.62 32.34 50.76
  Q 32.28 50.62 32.24 50.49
  Q 32.18 50.31 32.00 50.25
  Q 27.16 48.60 26.87 42.95
  Z
  M 31.28 47.52
  Q 30.35 45.90 28.84 44.76
  Q 28.27 44.33 28.39 45.03
  Q 28.74 47.08 30.76 48.08
  Q 31.94 48.66 31.28 47.52
  Z
  M 33.83 48.45
  Q 33.66 48.20 33.31 48.26
  A 0.42 0.42 0.0 0 0 33.09 48.98
  L 34.19 50.02
  A 0.52 0.52 0.0 0 0 34.95 49.31
  Q 34.58 48.86 34.09 48.67
  Q 33.92 48.60 33.83 48.45
  Z"
/>
<path fill="#041d56" d="
  M 30.76 48.08
  Q 28.74 47.08 28.39 45.03
  Q 28.27 44.33 28.84 44.76
  Q 30.35 45.90 31.28 47.52
  Q 31.94 48.66 30.76 48.08
  Z"
/>
<path fill="#6d90c1" d="
  M 87.46 45.31
  Q 89.64 46.93 88.56 49.11
  Q 88.28 49.68 88.15 49.06
  L 87.38 45.50
  Q 88.01 45.13 87.46 45.31
  Z"
/>
<path fill="#d5ceda" d="
  M 83.63 46.33
  Q 84.60 49.55 83.80 53.03
  Q 83.67 53.60 83.25 53.20
  C 82.19 52.20 83.41 50.71 81.55 49.93
  C 82.37 48.86 81.36 45.58 83.63 46.33
  Z"
/>
<path fill="#d5ceda" d="
  M 85.32 47.77
  Q 85.18 47.73 85.07 47.62
  Q 84.89 47.43 85.02 47.20
  L 85.26 46.76
  Q 85.62 46.08 86.01 46.74
  L 86.52 47.61
  Q 86.67 47.86 86.40 47.96
  Q 86.18 48.04 86.00 48.01
  A 0.73 0.00 19.7 0 1 85.32 47.77
  Z"
/>
<path fill="#4a6dab" d="
  M 34.09 48.67
  Q 34.58 48.86 34.95 49.31
  A 0.52 0.52 0.0 0 1 34.19 50.02
  L 33.09 48.98
  A 0.42 0.42 0.0 0 1 33.31 48.26
  Q 33.66 48.20 33.83 48.45
  Q 33.92 48.60 34.09 48.67
  Z"
/>
<path fill="#4a6dab" d="
  M 87.00 51.83
  Q 87.18 51.50 86.25 51.78
  Q 85.13 51.15 85.25 50.27
  Q 85.35 49.51 85.79 50.13
  L 87.00 51.83
  Z"
/>
<path fill="#d5ceda" d="
  M 35.20 52.80
  Q 35.70 52.92 35.90 52.09
  Q 35.91 52.44 36.03 52.65
  Q 36.30 53.11 36.55 52.64
  Q 36.98 51.86 37.14 50.98
  Q 37.23 50.54 37.68 50.53
  C 39.05 50.49 38.77 52.31 38.58 53.14
  A 0.43 0.43 0.0 0 0 39.28 53.56
  L 39.99 52.95
  A 0.88 0.88 0.0 0 1 41.09 52.91
  L 44.45 55.36
  A 1.15 1.14 -70.2 0 1 44.92 56.36
  Q 44.77 58.61 46.12 60.31
  Q 46.45 60.73 46.90 60.46
  Q 47.45 60.13 47.15 59.59
  A 0.87 0.87 0.0 0 1 48.50 58.53
  L 51.46 61.27
  Q 51.96 61.73 51.46 62.19
  L 50.50 63.07
  Q 50.10 63.44 50.57 63.72
  Q 51.38 64.20 51.47 65.04
  Q 51.56 65.83 50.90 65.38
  Q 44.09 60.71 38.22 54.94
  Q 37.86 54.58 37.35 54.55
  Q 35.86 54.48 35.20 52.80
  Z
  M 43.8074 57.7963
  A 1.99 0.67 46.2 0 0 42.9136 55.8963
  A 1.99 0.67 46.2 0 0 41.0526 54.9237
  A 1.99 0.67 46.2 0 0 41.9464 56.8237
  A 1.99 0.67 46.2 0 0 43.8074 57.7963
  Z"
/>
<path fill="#4a6dab" d="
  M 79.68 51.30
  Q 80.77 52.51 80.01 54.11
  Q 79.80 54.54 79.50 54.16
  Q 78.87 53.35 79.68 51.36
  Q 79.02 51.71 79.68 51.30
  Z"
/>
<path fill="#d5ceda" d="
  M 77.40 53.28
  L 78.11 55.99
  Q 78.24 56.48 77.83 56.78
  C 76.68 57.60 73.74 59.40 74.79 60.76
  L 71.37 63.37
  Q 70.71 63.87 70.59 63.05
  L 69.75 57.01
  A 0.97 0.94 -30.0 0 1 69.97 56.24
  L 71.64 54.30
  A 0.54 0.54 0.0 0 1 72.59 54.66
  Q 72.59 55.68 71.68 55.92
  A 0.59 0.58 78.9 0 0 71.25 56.57
  L 71.29 56.88
  A 0.25 0.25 0.0 0 0 71.66 57.07
  Q 74.37 55.65 75.04 52.75
  Q 75.20 52.04 75.74 52.54
  Q 76.65 53.39 77.40 53.28
  Z"
/>
<ellipse fill="#041d56" cx="0.00" cy="0.00" transform="translate(42.43,56.36) rotate(46.2)" rx="1.99" ry="0.67"/>
<path fill="#000000" d="
  M 301.7470 82.5495
  A 12.95 12.21 90.5 0 1 289.6505 69.4934
  A 12.95 12.21 90.5 0 1 301.9730 56.6505
  A 12.95 12.21 90.5 0 1 314.0695 69.7066
  A 12.95 12.21 90.5 0 1 301.7470 82.5495
  Z
  M 301.8551 78.1700
  A 8.55 6.93 90.1 0 0 308.8000 69.6321
  A 8.55 6.93 90.1 0 0 301.8849 61.0700
  A 8.55 6.93 90.1 0 0 294.9400 69.6079
  A 8.55 6.93 90.1 0 0 301.8551 78.1700
  Z"
/>
<path fill="#000000" d="
  M 121.44 74.93
  A 0.16 0.16 0.0 0 0 121.75 74.93
  L 127.28 57.53
  Q 127.45 57.01 127.99 57.01
  L 132.34 57.00
  Q 133.01 56.99 132.78 57.63
  L 124.23 81.59
  Q 124.09 82.00 123.66 82.00
  L 119.42 82.00
  Q 118.78 82.00 118.57 81.40
  L 110.10 57.61
  Q 109.86 56.96 110.56 56.98
  L 114.90 57.09
  Q 115.50 57.10 115.69 57.67
  L 121.44 74.93
  Z"
/>
<rect fill="#000000" x="135.48" y="57.01" width="5.02" height="24.98" rx="0.27"/>
<path fill="#000000" d="
  M 159.80 71.43
  C 161.72 72.16 164.87 79.23 165.90 81.34
  Q 166.22 82.00 165.49 82.00
  L 160.99 82.00
  Q 160.37 82.00 160.14 81.42
  C 158.23 76.56 156.39 70.78 151.08 71.90
  Q 150.75 71.97 150.75 72.31
  L 150.75 81.50
  Q 150.75 82.00 150.25 82.00
  L 146.38 82.00
  A 0.62 0.62 0.0 0 1 145.76 81.38
  L 145.68 57.65
  A 0.65 0.64 -0.0 0 1 146.33 57.01
  C 152.67 57.09 169.28 55.63 163.45 68.36
  Q 163.20 68.90 162.69 69.19
  L 159.76 70.83
  Q 159.14 71.17 159.80 71.43
  Z
  M 150.75 61.71
  L 150.75 67.43
  A 0.23 0.23 0.0 0 0 150.99 67.66
  L 156.11 67.65
  A 3.17 2.54 -0.1 0 0 159.27 65.10
  L 159.27 64.00
  A 3.17 2.54 -0.1 0 0 156.09 61.47
  L 150.97 61.48
  A 0.23 0.23 0.0 0 0 150.75 61.71
  Z"
/>
<path fill="#000000" d="
  M 179.50 61.82
  L 179.50 81.68
  A 0.32 0.32 0.0 0 1 179.18 82.00
  L 174.56 82.00
  A 0.32 0.32 0.0 0 1 174.24 81.68
  L 174.27 61.78
  A 0.32 0.32 0.0 0 0 173.95 61.46
  L 167.50 61.52
  A 0.32 0.32 0.0 0 1 167.18 61.20
  L 167.14 57.32
  A 0.32 0.32 0.0 0 1 167.46 57.00
  L 186.43 57.00
  A 0.32 0.32 0.0 0 1 186.75 57.32
  L 186.75 61.18
  A 0.32 0.32 0.0 0 1 186.43 61.50
  L 179.82 61.50
  A 0.32 0.32 0.0 0 0 179.50 61.82
  Z"
/>
<path fill="#000000" d="
  M 195.06 74.18
  C 195.10 78.80 204.31 80.55 204.54 73.20
  Q 204.78 65.34 204.77 57.50
  Q 204.77 57.00 205.27 57.00
  L 209.19 57.00
  Q 209.56 57.00 209.58 57.37
  Q 210.26 70.28 209.28 76.25
  C 208.31 82.10 202.89 82.49 197.75 82.02
  Q 190.70 81.38 190.33 74.18
  Q 189.91 65.85 189.99 57.52
  Q 189.99 57.00 190.51 57.00
  L 194.49 57.00
  Q 195.01 57.00 195.01 57.52
  Q 194.97 65.86 195.06 74.18
  Z"
/>
<path fill="#000000" d="
  M 228.25 76.50
  L 219.15 76.50
  A 0.34 0.34 0.0 0 0 218.83 76.72
  L 217.01 81.77
  A 0.34 0.34 0.0 0 1 216.69 81.99
  L 211.91 82.01
  A 0.34 0.34 0.0 0 1 211.59 81.54
  L 221.11 57.32
  A 0.34 0.34 0.0 0 1 221.44 57.10
  L 226.02 57.19
  A 0.34 0.34 0.0 0 1 226.33 57.40
  L 236.04 81.53
  A 0.34 0.34 0.0 0 1 235.73 82.00
  L 230.74 82.00
  A 0.34 0.34 0.0 0 1 230.42 81.78
  L 228.57 76.72
  A 0.34 0.34 0.0 0 0 228.25 76.50
  Z
  M 223.32 63.63
  L 220.90 71.32
  A 0.52 0.52 0.0 0 0 221.39 72.00
  L 226.08 72.00
  Q 226.71 72.00 226.50 71.41
  L 223.82 63.62
  A 0.26 0.26 0.0 0 0 223.32 63.63
  Z"
/>
<path fill="#000000" d="
  M 244.05 77.75
  L 254.69 77.75
  A 0.31 0.31 0.0 0 1 255.00 78.06
  L 255.00 81.69
  A 0.31 0.31 0.0 0 1 254.69 82.00
  L 239.06 82.00
  A 0.31 0.31 0.0 0 1 238.75 81.69
  L 238.75 57.31
  A 0.31 0.31 0.0 0 1 239.06 57.00
  L 243.45 57.00
  A 0.31 0.31 0.0 0 1 243.76 57.31
  L 243.74 77.44
  A 0.31 0.31 0.0 0 0 244.05 77.75
  Z"
/>
<path fill="#000000" d="
  M 282.83 69.00
  C 289.80 73.02 286.49 81.69 279.07 81.94
  Q 273.26 82.14 267.45 81.94
  Q 267.00 81.93 267.00 81.48
  L 267.00 57.74
  Q 267.00 56.93 267.81 56.98
  Q 273.47 57.31 279.17 57.41
  C 285.23 57.51 287.92 64.58 282.79 68.22
  Q 282.20 68.64 282.83 69.00
  Z
  M 271.98 62.08
  L 272.02 66.48
  A 0.54 0.54 0.0 0 0 272.56 67.01
  L 277.43 66.97
  A 3.09 2.45 -0.5 0 0 280.50 64.49
  L 280.50 63.91
  A 3.09 2.45 -0.5 0 0 277.39 61.49
  L 272.52 61.53
  A 0.54 0.54 0.0 0 0 271.98 62.08
  Z
  M 272.01 71.87
  L 271.97 77.11
  A 0.62 0.62 0.0 0 0 272.58 77.73
  L 277.34 77.78
  A 4.12 3.10 0.5 0 0 281.49 74.71
  L 281.49 74.43
  A 4.12 3.10 0.5 0 0 277.40 71.30
  L 272.64 71.25
  A 0.62 0.62 0.0 0 0 272.01 71.87
  Z"
/>
<path fill="#000000" d="
  M 331.10 57.04
  L 336.36 56.98
  A 0.34 0.34 0.0 0 1 336.65 57.50
  L 329.07 68.96
  A 0.34 0.34 0.0 0 0 329.07 69.34
  L 337.29 81.47
  A 0.34 0.34 0.0 0 1 337.01 82.00
  L 331.65 82.00
  A 0.34 0.34 0.0 0 1 331.37 81.85
  L 326.15 73.86
  A 0.34 0.34 0.0 0 0 325.58 73.87
  L 320.59 81.84
  A 0.34 0.34 0.0 0 1 320.30 82.00
  L 314.88 82.00
  A 0.34 0.34 0.0 0 1 314.59 81.47
  L 322.72 69.30
  A 0.34 0.34 0.0 0 0 322.73 68.92
  L 315.19 57.49
  A 0.34 0.34 0.0 0 1 315.48 56.96
  L 320.89 57.09
  A 0.34 0.34 0.0 0 1 321.18 57.25
  L 325.70 64.92
  A 0.34 0.34 0.0 0 0 326.28 64.92
  L 330.81 57.21
  A 0.34 0.34 0.0 0 1 331.10 57.04
  Z"
/>
<path fill="#ede4e1" d="
  M 69.94 64.51
  A 0.92 0.92 0.0 0 1 68.11 64.49
  L 67.64 57.77
  A 0.72 0.72 0.0 0 1 69.04 57.48
  Q 70.28 60.96 69.94 64.51
  Z"
/>
<path fill="#d5ceda" d="
  M 93.38 58.81
  Q 80.54 69.72 66.70 78.43
  Q 66.37 78.64 65.99 78.78
  Q 79.89 67.62 93.38 58.81
  Z"
/>
<ellipse fill="#c6edf2" cx="0.00" cy="0.00" transform="translate(301.87,69.62) rotate(90.1)" rx="8.55" ry="6.93"/>
<path fill="#c6edf2" d="
  M 150.75 61.71
  A 0.23 0.23 0.0 0 1 150.97 61.48
  L 156.09 61.47
  A 3.17 2.54 -0.1 0 1 159.27 64.00
  L 159.27 65.10
  A 3.17 2.54 -0.1 0 1 156.11 67.65
  L 150.99 67.66
  A 0.23 0.23 0.0 0 1 150.75 67.43
  L 150.75 61.71
  Z"
/>
<path fill="#c6edf2" d="
  M 271.98 62.08
  A 0.54 0.54 0.0 0 1 272.52 61.53
  L 277.39 61.49
  A 3.09 2.45 -0.5 0 1 280.50 63.91
  L 280.50 64.49
  A 3.09 2.45 -0.5 0 1 277.43 66.97
  L 272.56 67.01
  A 0.54 0.54 0.0 0 1 272.02 66.48
  L 271.98 62.08
  Z"
/>
<path fill="#c6edf2" d="
  M 223.82 63.62
  L 226.50 71.41
  Q 226.71 72.00 226.08 72.00
  L 221.39 72.00
  A 0.52 0.52 0.0 0 1 220.90 71.32
  L 223.32 63.63
  A 0.26 0.26 0.0 0 1 223.82 63.62
  Z"
/>
<path fill="#000000" d="
  M 93.72 67.93
  L 85.24 74.72
  A 1.04 1.02 72.2 0 0 84.84 75.52
  Q 84.71 80.71 83.17 86.08
  L 82.27 88.07
  L 81.30 88.22
  Q 81.08 88.26 80.99 88.05
  Q 80.95 87.94 80.96 87.78
  Q 83.96 82.47 83.65 76.27
  A 0.30 0.30 0.0 0 0 83.17 76.05
  L 60.19 93.42
  Q 60.07 93.32 59.94 93.22
  L 56.25 91.21
  Q 56.10 90.42 56.76 90.45
  Q 57.15 90.83 57.42 90.72
  Q 58.88 92.71 60.84 91.95
  C 64.31 89.32 97.22 63.89 97.57 64.34
  A 0.40 0.39 52.1 0 1 97.51 64.90
  L 93.72 67.93
  Z"
/>
<path fill="#183963" d="
  M 31.93 71.54
  L 56.76 90.45
  Q 56.10 90.42 56.25 91.21
  L 37.55 76.80
  A 0.50 0.49 -76.1 0 0 36.76 77.28
  L 37.36 80.86
  L 38.26 83.50
  Q 38.26 86.41 40.10 88.55
  Q 46.25 96.62 55.89 97.97
  Q 72.28 100.33 80.96 87.78
  Q 80.95 87.94 80.99 88.05
  Q 81.08 88.26 81.30 88.22
  L 82.27 88.07
  Q 80.50 91.30 76.89 93.93
  Q 71.99 97.51 65.73 99.69
  L 55.07 99.41
  C 44.53 96.31 37.01 90.08 35.58 78.54
  Q 35.51 78.03 35.23 77.61
  Q 34.47 76.46 34.26 75.12
  Q 34.18 74.63 33.79 74.32
  L 24.09 66.90
  Q 23.15 66.13 22.84 65.29
  Q 22.49 64.31 23.31 64.94
  L 31.93 71.54
  Z"
/>
<path fill="#95b7c7" d="
  M 24.09 66.90
  L 33.79 74.32
  Q 34.18 74.63 34.26 75.12
  Q 34.47 76.46 35.23 77.61
  Q 35.51 78.03 35.58 78.54
  C 37.01 90.08 44.53 96.31 55.07 99.41
  C 46.40 100.74 38.52 92.87 35.41 85.57
  Q 35.84 83.93 35.09 83.40
  Q 34.77 83.18 34.64 82.82
  C 34.06 81.17 33.58 79.76 32.24 78.49
  Q 27.07 73.57 24.09 66.90
  Z"
/>
<path fill="#183963" d="
  M 93.72 67.93
  Q 93.82 69.82 92.79 72.21
  Q 91.42 73.58 89.96 75.10
  C 87.21 77.97 86.85 84.32 83.17 86.08
  Q 84.71 80.71 84.84 75.52
  A 1.04 1.02 72.2 0 1 85.24 74.72
  L 93.72 67.93
  Z"
/>
<path fill="#4a6dab" d="
  M 76.89 93.93
  Q 80.50 91.30 82.27 88.07
  L 83.17 86.08
  C 86.85 84.32 87.21 77.97 89.96 75.10
  Q 91.42 73.58 92.79 72.21
  Q 93.33 71.30 93.99 70.85
  Q 94.99 70.15 94.24 71.12
  Q 94.03 71.39 93.92 71.71
  A 0.20 0.20 0.0 0 0 94.29 71.87
  Q 95.22 70.18 96.64 68.95
  Q 97.07 68.57 96.79 69.07
  Q 95.72 71.01 94.25 72.73
  Q 93.58 72.89 93.76 73.51
  Q 93.90 74.04 94.23 73.60
  L 97.81 68.69
  Q 98.19 68.17 98.03 68.79
  C 96.74 73.84 91.80 78.07 89.48 82.09
  Q 89.23 82.51 88.82 82.76
  Q 88.18 83.14 87.75 84.00
  C 86.82 85.85 83.08 90.71 81.13 92.16
  C 79.66 93.25 79.24 94.47 76.89 93.93
  Z"
/>
<path fill="#c6edf2" d="
  M 272.01 71.87
  A 0.62 0.62 0.0 0 1 272.64 71.25
  L 277.40 71.30
  A 4.12 3.10 0.5 0 1 281.49 74.43
  L 281.49 74.71
  A 4.12 3.10 0.5 0 1 277.34 77.78
  L 272.58 77.73
  A 0.62 0.62 0.0 0 1 271.97 77.11
  L 272.01 71.87
  Z"
/>
<path fill="#4a6dab" d="
  M 80.96 87.78
  Q 72.28 100.33 55.89 97.97
  L 56.81 97.21
  Q 57.24 96.86 56.85 96.47
  L 56.45 96.07
  Q 55.72 95.35 56.73 95.53
  L 59.79 96.10
  Q 66.04 97.66 72.52 93.99
  Q 75.28 92.42 75.77 90.69
  Q 81.35 86.71 82.64 80.48
  A 0.60 0.60 0.0 0 0 82.30 79.81
  Q 81.56 79.48 81.34 80.14
  Q 79.21 86.47 73.87 89.50
  Q 73.78 89.55 73.77 89.66
  Q 73.74 89.80 73.73 89.91
  Q 73.72 89.97 73.67 90.00
  Q 67.45 94.26 60.19 93.42
  L 83.17 76.05
  A 0.30 0.30 0.0 0 1 83.65 76.27
  Q 83.96 82.47 80.96 87.78
  Z"
/>
<path fill="#6d90c1" d="
  M 56.25 91.21
  L 59.94 93.22
  Q 57.92 93.94 55.69 93.40
  Q 54.13 93.03 52.31 91.22
  C 49.37 88.30 44.75 84.20 40.76 83.00
  Q 40.28 82.85 40.08 82.39
  Q 38.65 79.13 37.36 80.86
  L 36.76 77.28
  A 0.50 0.49 -76.1 0 1 37.55 76.80
  L 56.25 91.21
  Z"
/>
<path fill="#d5ceda" d="
  M 75.77 90.69
  Q 69.38 95.41 59.79 96.10
  L 56.73 95.53
  Q 55.72 95.35 56.45 96.07
  L 56.85 96.47
  Q 57.24 96.86 56.81 97.21
  L 55.89 97.97
  Q 46.25 96.62 40.10 88.55
  L 40.43 87.28
  Q 40.56 86.81 40.28 86.41
  L 38.26 83.50
  L 37.36 80.86
  Q 38.65 79.13 40.08 82.39
  Q 40.28 82.85 40.76 83.00
  C 44.75 84.20 49.37 88.30 52.31 91.22
  Q 54.13 93.03 55.69 93.40
  Q 57.92 93.94 59.94 93.22
  Q 60.07 93.32 60.19 93.42
  Q 67.45 94.26 73.67 90.00
  Q 73.72 89.97 73.73 89.91
  Q 73.74 89.80 73.77 89.66
  Q 73.78 89.55 73.87 89.50
  Q 79.21 86.47 81.34 80.14
  Q 81.56 79.48 82.30 79.81
  A 0.60 0.60 0.0 0 1 82.64 80.48
  Q 81.35 86.71 75.77 90.69
  Z"
/>
<path fill="#95b7c7" d="
  M 38.26 83.50
  L 40.28 86.41
  Q 40.56 86.81 40.43 87.28
  L 40.10 88.55
  Q 38.26 86.41 38.26 83.50
  Z"
/>
<path fill="#041d56" d="
  M 75.77 90.69
  Q 75.28 92.42 72.52 93.99
  Q 66.04 97.66 59.79 96.10
  Q 69.38 95.41 75.77 90.69
  Z"
/>
</svg>
